<svg xmlns="http://www.w3.org/2000/svg" viewBox="0 0 120 120" role="img">
  <rect width="120" height="120" rx="10" fill="#f8f7f2"/>
  <style>
    .shadow{fill:none;stroke:#4a4f56;stroke-width:13;stroke-linecap:round;stroke-linejoin:round;opacity:.22}
    .rope{fill:none;stroke:#1778bd;stroke-width:8;stroke-linecap:round;stroke-linejoin:round}
    .highlight{fill:none;stroke:#4fb1f0;stroke-width:2.2;stroke-linecap:round;stroke-linejoin:round;opacity:.85}
  </style>
  
    <polyline points="63.9,72.6 65.7,73.8 67.4,75.1 69.2,76.3 70.9,77.5 72.6,78.6 74.3,79.8 76.0,80.8 77.6,81.8 79.2,82.8 80.7,83.7 82.2,84.6 83.6,85.4 84.9,86.1 86.2,86.8 87.4,87.3 88.5,87.9 89.5,88.3 90.5,88.7 91.3,89.0 92.1,89.2 92.7,89.4 93.3,89.5 93.8,89.5 94.2,89.5 94.5,89.4 94.8,89.2 94.9,88.9 95.0,88.6 95.0,88.2 94.9,87.8 94.7,87.3 94.5,86.7 94.2,86.1 93.9,85.5 93.5,84.8 93.1,84.1 92.6,83.3 92.1,82.5 91.5,81.6 91.0,80.8 90.4,79.9 89.7,78.9 89.1,78.0 88.5,77.0 87.8,76.1 87.2,75.1 86.5,74.1 85.9,73.0 85.2,72.0 84.6,71.0 84.0,69.9 83.4,68.9 82.8,67.8 82.2,66.8 81.7,65.7 81.1,64.7 80.7,63.6 80.2,62.6 79.7,61.5 79.3,60.5 78.9,59.4 78.5,58.4 78.2,57.4 77.9,56.3 77.6,55.3 77.3,54.3 77.1,53.2 76.9,52.2 76.7,51.2 76.5,50.2 76.4,49.2 76.2,48.2 76.1,47.2 76.0,46.2 75.9,45.2 75.8,44.3 75.8,43.3 75.7,42.4 75.6,41.5 75.6,40.6 75.5,39.7 75.5,38.9 75.4,38.1 75.3,37.3 75.2,36.5 75.1,35.8 74.9,35.1 74.7,34.5 74.5,33.9 74.3,33.4 74.0,32.9 73.7,32.4 73.4,32.0 73.0,31.7 72.5,31.4 72.0,31.2 71.5,31.1 70.9,31.0 70.2,31.0 69.5,31.1 68.7,31.2 67.9,31.4 67.0,31.7 66.0,32.0 65.0,32.5 63.9,32.9 62.8,33.5 61.6,34.1 60.4,34.8 59.1,35.6 57.8,36.4 56.4,37.3 55.1,38.2 53.6,39.2 52.2,40.2 50.7,41.3 49.2,42.5 47.7,43.7 46.2,44.9 44.7,46.1 43.2,47.4 41.8,48.7 40.3,50.0 38.9,51.3 37.5,52.7 36.1,54.0 34.8,55.4 33.6,56.7 32.3,58.1 31.2,59.4 30.1,60.7 29.1,62.0 28.1,63.3 27.2,64.5 26.4,65.7 25.7,66.9 25.0,68.1 24.5,69.2 24.0,70.3 23.5,71.3 23.2,72.3 22.9,73.3 22.7,74.2 22.6,75.0 22.6,75.9 22.6,76.6 22.7,77.4 22.8,78.0 23.0,78.7 23.3,79.3 23.6,79.8 24.0,80.3 24.5,80.8 24.9,81.2 25.5,81.6 26.0,81.9 26.6,82.2 27.3,82.5 27.9,82.7 28.6,82.9 29.4,83.1 30.1,83.2 30.9,83.3 31.6,83.3 32.4,83.3 33.3,83.3 34.1,83.2 34.9,83.1 35.8,83.0 36.6,82.9 37.5,82.7 38.3,82.5 39.2,82.2 40.1,81.9 40.9,81.6 41.8,81.2 42.7,80.8 43.5,80.4 44.4,79.9 45.2,79.4 46.1,78.8 46.9,78.2 47.7,77.6 48.5,76.9 49.3,76.2 50.1,75.4 50.9,74.6 51.7,73.8 52.4,72.9 53.2,71.9 53.9,71.0 54.6,69.9 55.2,68.9 55.9,67.8 56.5,66.7 57.1,65.5 57.7,64.3 58.3,63.1 58.9,61.9 59.4,60.6 59.9,59.3 60.4,58.0 60.9,56.7 61.4,55.4 61.8,54.0 62.2,52.7 62.7,51.4 63.1,50.1 63.5,48.7 63.9,47.4 64.3,46.2 64.7,44.9 65.2,43.7 65.6,42.5 66.0,41.4 66.4,40.2 66.9,39.2 67.3,38.2 67.8,37.2 68.3,36.3 68.8,35.4 69.3,34.6 69.9,33.9 70.5,33.2 71.1,32.7 71.7,32.1 72.3,31.7 72.9,31.3 73.6,31.0 74.3,30.8 75.0,30.6 75.7,30.5 76.5,30.5 77.2,30.5 78.0,30.6 78.7,30.8 79.5,31.1 80.3,31.4 81.0,31.8 81.8,32.2 82.6,32.7 83.3,33.3 84.0,33.9 84.8,34.5 85.5,35.2 86.2,35.9 86.8,36.7 87.5,37.5 88.1,38.4 88.7,39.2 89.2,40.1 89.7,41.1 90.2,42.0 90.7,43.0 91.1,43.9 91.5,44.9 91.8,45.9 92.1,47.0 92.4,48.0 92.6,49.0 92.8,50.1 93.0,51.1 93.1,52.2 93.2,53.2 93.2,54.3 93.2,55.3 93.1,56.4 93.0,57.4 92.9,58.5 92.7,59.5 92.5,60.6 92.3,61.6 92.0,62.6 91.6,63.7 91.2,64.7 90.8,65.7 90.3,66.8 89.8,67.8 89.3,68.8 88.6,69.8 88.0,70.8 87.3,71.8 86.5,72.8 85.7,73.8 84.9,74.8 84.0,75.7 83.1,76.7 82.1,77.6 81.1,78.5 80.0,79.4 78.9,80.3 77.7,81.1 76.5,81.9 75.3,82.7 74.0,83.5 72.7,84.2 71.4,84.9 70.0,85.5 68.7,86.1 67.3,86.6 65.9,87.1 64.4,87.6 63.0,88.0 61.6,88.3 60.2,88.6 58.7,88.8 57.3,88.9 56.0,89.0 54.6,89.0 53.3,88.9 52.0,88.8 50.7,88.6 49.5,88.3 48.3,88.0 47.1,87.5 46.0,87.1 45.0,86.5 44.0,85.9 43.1,85.2 42.2,84.4 41.4,83.6 40.7,82.7 40.0,81.8 39.4,80.8 38.8,79.8 38.3,78.7 37.9,77.5 37.5,76.3 37.1,75.1 36.9,73.9 36.6,72.6 36.4,71.3 36.3,70.0 36.2,68.7 36.2,67.3 36.1,66.0 36.1,64.6 36.2,63.3 36.2,61.9 36.3,60.6 36.4,59.3 36.5,58.0 36.6,56.7 36.8,55.5 36.9,54.3 37.0,53.1 37.1,51.9 37.3,50.8 37.4,49.7 37.5,48.7 37.6,47.7 37.7,46.7 37.7,45.8 37.8,45.0 37.8,44.1 37.8,43.4 37.9,42.6 37.8,42.0 37.8,41.3 37.8,40.7 37.7,40.2 37.6,39.7 37.5,39.2 37.4,38.8 37.3,38.4 37.2,38.1 37.0,37.8 36.8,37.5 36.7,37.3 36.5,37.1 36.3,36.9 36.1,36.8 35.9,36.7 35.7,36.7 35.5,36.7 35.3,36.7 35.1,36.8 34.9,36.9 34.7,37.0 34.6,37.1 34.4,37.3 34.2,37.5 34.1,37.8 34.0,38.1 33.9,38.4 33.9,38.8 33.8,39.2 33.8,39.6 33.9,40.1 34.0,40.6 34.1,41.2 34.3,41.8 34.5,42.4 34.7,43.1 35.1,43.8 35.5,44.6 35.9,45.4 36.4,46.2 37.0,47.1 37.6,48.1 38.3,49.0 39.1,50.1 40.0,51.1 40.9,52.2 41.9,53.3 43.0,54.5 44.1,55.7 45.3,56.9 46.6,58.1 47.9,59.4 49.3,60.7 50.8,62.0 52.3,63.3 53.8,64.6 55.4,66.0 57.1,67.3 58.8,68.6 60.5,69.9 62.2,71.3 63.9,72.6" class="shadow"/>
    <polyline points="63.9,72.6 65.7,73.8 67.4,75.1 69.2,76.3 70.9,77.5 72.6,78.6 74.3,79.8 76.0,80.8 77.6,81.8 79.2,82.8 80.7,83.7 82.2,84.6 83.6,85.4 84.9,86.1 86.2,86.8 87.4,87.3 88.5,87.9 89.5,88.3 90.5,88.7 91.3,89.0 92.1,89.2 92.7,89.4 93.3,89.5 93.8,89.5 94.2,89.5 94.5,89.4 94.8,89.2 94.9,88.9 95.0,88.6 95.0,88.2 94.9,87.8 94.7,87.3 94.5,86.7 94.2,86.1 93.9,85.5 93.5,84.8 93.1,84.1 92.6,83.3 92.1,82.5 91.5,81.6 91.0,80.8 90.4,79.9 89.7,78.9 89.1,78.0 88.5,77.0 87.8,76.1 87.2,75.1 86.5,74.1 85.9,73.0 85.2,72.0 84.6,71.0 84.0,69.9 83.4,68.9 82.8,67.8 82.2,66.8 81.7,65.7 81.1,64.7 80.7,63.6 80.2,62.6 79.7,61.5 79.3,60.5 78.9,59.4 78.5,58.4 78.2,57.4 77.9,56.3 77.6,55.3 77.3,54.3 77.1,53.2 76.9,52.2 76.7,51.2 76.5,50.2 76.4,49.2 76.2,48.2 76.1,47.2 76.0,46.2 75.9,45.2 75.8,44.3 75.8,43.3 75.7,42.4 75.6,41.5 75.6,40.6 75.5,39.7 75.5,38.9 75.4,38.1 75.3,37.3 75.2,36.5 75.1,35.8 74.9,35.1 74.7,34.5 74.5,33.9 74.3,33.4 74.0,32.9 73.7,32.4 73.4,32.0 73.0,31.7 72.5,31.4 72.0,31.2 71.5,31.1 70.9,31.0 70.2,31.0 69.5,31.1 68.7,31.2 67.9,31.4 67.0,31.7 66.0,32.0 65.0,32.5 63.9,32.9 62.8,33.5 61.6,34.1 60.4,34.8 59.1,35.6 57.8,36.4 56.4,37.3 55.1,38.2 53.6,39.2 52.2,40.2 50.7,41.3 49.2,42.5 47.7,43.7 46.2,44.9 44.7,46.1 43.2,47.4 41.8,48.7 40.3,50.0 38.9,51.3 37.5,52.7 36.1,54.0 34.8,55.4 33.6,56.7 32.3,58.1 31.2,59.4 30.1,60.7 29.1,62.0 28.1,63.3 27.2,64.5 26.4,65.7 25.7,66.9 25.0,68.1 24.5,69.2 24.0,70.3 23.5,71.3 23.2,72.3 22.9,73.3 22.7,74.2 22.6,75.0 22.6,75.9 22.6,76.6 22.7,77.4 22.8,78.0 23.0,78.7 23.3,79.3 23.6,79.8 24.0,80.3 24.5,80.8 24.9,81.2 25.5,81.6 26.0,81.9 26.6,82.2 27.3,82.5 27.9,82.7 28.6,82.9 29.4,83.1 30.1,83.2 30.9,83.3 31.6,83.3 32.4,83.3 33.3,83.3 34.1,83.2 34.9,83.1 35.8,83.0 36.6,82.9 37.5,82.7 38.3,82.5 39.2,82.2 40.1,81.9 40.9,81.6 41.8,81.2 42.7,80.8 43.5,80.4 44.4,79.9 45.2,79.4 46.1,78.8 46.9,78.2 47.7,77.6 48.5,76.9 49.3,76.2 50.1,75.4 50.9,74.6 51.7,73.8 52.4,72.9 53.2,71.9 53.9,71.0 54.6,69.9 55.2,68.9 55.9,67.8 56.5,66.7 57.1,65.5 57.7,64.3 58.3,63.1 58.9,61.9 59.4,60.6 59.9,59.3 60.4,58.0 60.9,56.7 61.4,55.4 61.8,54.0 62.2,52.7 62.7,51.4 63.1,50.1 63.5,48.7 63.9,47.4 64.3,46.2 64.7,44.9 65.2,43.7 65.6,42.5 66.0,41.4 66.4,40.2 66.9,39.2 67.3,38.2 67.8,37.2 68.3,36.3 68.8,35.4 69.3,34.6 69.9,33.9 70.5,33.2 71.1,32.7 71.7,32.1 72.3,31.7 72.9,31.3 73.6,31.0 74.3,30.8 75.0,30.6 75.7,30.5 76.5,30.5 77.2,30.5 78.0,30.6 78.7,30.8 79.5,31.1 80.3,31.4 81.0,31.8 81.8,32.2 82.6,32.7 83.3,33.3 84.0,33.9 84.8,34.5 85.5,35.2 86.2,35.9 86.8,36.7 87.5,37.5 88.1,38.4 88.7,39.2 89.2,40.1 89.7,41.1 90.2,42.0 90.7,43.0 91.1,43.9 91.5,44.9 91.8,45.9 92.1,47.0 92.4,48.0 92.6,49.0 92.8,50.1 93.0,51.1 93.1,52.2 93.2,53.2 93.2,54.3 93.2,55.3 93.1,56.4 93.0,57.4 92.9,58.5 92.7,59.5 92.5,60.6 92.3,61.6 92.0,62.6 91.6,63.7 91.2,64.7 90.8,65.7 90.3,66.8 89.8,67.8 89.3,68.8 88.6,69.8 88.0,70.8 87.3,71.8 86.5,72.8 85.7,73.8 84.9,74.8 84.0,75.7 83.1,76.7 82.1,77.6 81.1,78.5 80.0,79.4 78.9,80.3 77.7,81.1 76.5,81.9 75.3,82.7 74.0,83.5 72.7,84.2 71.4,84.9 70.0,85.5 68.7,86.1 67.3,86.6 65.9,87.1 64.4,87.6 63.0,88.0 61.6,88.3 60.2,88.6 58.7,88.8 57.3,88.9 56.0,89.0 54.6,89.0 53.3,88.9 52.0,88.8 50.7,88.6 49.5,88.3 48.3,88.0 47.1,87.5 46.0,87.1 45.0,86.5 44.0,85.9 43.1,85.2 42.2,84.4 41.4,83.6 40.7,82.7 40.0,81.8 39.4,80.8 38.8,79.8 38.3,78.7 37.9,77.5 37.5,76.3 37.1,75.1 36.9,73.9 36.6,72.6 36.4,71.3 36.3,70.0 36.2,68.7 36.2,67.3 36.1,66.0 36.1,64.6 36.2,63.3 36.2,61.9 36.3,60.6 36.4,59.3 36.5,58.0 36.6,56.7 36.8,55.5 36.9,54.3 37.0,53.1 37.1,51.9 37.3,50.8 37.4,49.7 37.5,48.7 37.6,47.7 37.7,46.7 37.7,45.8 37.8,45.0 37.8,44.1 37.8,43.4 37.9,42.6 37.8,42.0 37.8,41.3 37.8,40.7 37.7,40.2 37.6,39.7 37.5,39.2 37.4,38.8 37.3,38.4 37.2,38.1 37.0,37.8 36.8,37.5 36.7,37.3 36.5,37.1 36.3,36.9 36.1,36.8 35.9,36.7 35.7,36.7 35.5,36.7 35.3,36.7 35.1,36.8 34.9,36.9 34.7,37.0 34.6,37.1 34.4,37.3 34.2,37.5 34.1,37.8 34.0,38.1 33.9,38.4 33.9,38.8 33.8,39.2 33.8,39.6 33.9,40.1 34.0,40.6 34.1,41.2 34.3,41.8 34.5,42.4 34.7,43.1 35.1,43.8 35.5,44.6 35.9,45.4 36.4,46.2 37.0,47.1 37.6,48.1 38.3,49.0 39.1,50.1 40.0,51.1 40.9,52.2 41.9,53.3 43.0,54.5 44.1,55.7 45.3,56.9 46.6,58.1 47.9,59.4 49.3,60.7 50.8,62.0 52.3,63.3 53.8,64.6 55.4,66.0 57.1,67.3 58.8,68.6 60.5,69.9 62.2,71.3 63.9,72.6" class="rope"/>
    <rect x="81.2" y="84.9" width="20" height="6" rx="3" transform="rotate(37.5 91.2 87.9)" fill="#f8f7f2"/><rect x="20.6" y="84.9" width="20" height="6" rx="3" transform="rotate(27.5 30.6 87.9)" fill="#f8f7f2"/><rect x="48.2" y="84.9" width="20" height="6" rx="3" transform="rotate(17.5 58.2 87.9)" fill="#f8f7f2"/>
    <polyline points="63.9,72.6 65.7,73.8 67.4,75.1 69.2,76.3 70.9,77.5 72.6,78.6 74.3,79.8 76.0,80.8 77.6,81.8 79.2,82.8 80.7,83.7 82.2,84.6 83.6,85.4 84.9,86.1 86.2,86.8 87.4,87.3 88.5,87.9 89.5,88.3 90.5,88.7 91.3,89.0 92.1,89.2 92.7,89.4 93.3,89.5 93.8,89.5 94.2,89.5 94.5,89.4 94.8,89.2 94.9,88.9 95.0,88.6 95.0,88.2 94.9,87.8 94.7,87.3 94.5,86.7 94.2,86.1 93.9,85.5 93.5,84.8 93.1,84.1 92.6,83.3 92.1,82.5 91.5,81.6 91.0,80.8 90.4,79.9 89.7,78.9 89.1,78.0 88.5,77.0 87.8,76.1 87.2,75.1 86.5,74.1 85.9,73.0 85.2,72.0 84.6,71.0 84.0,69.9 83.4,68.9 82.8,67.8 82.2,66.8 81.7,65.7 81.1,64.7 80.7,63.6 80.2,62.6 79.7,61.5 79.3,60.5 78.9,59.4 78.5,58.4 78.2,57.4 77.9,56.3 77.6,55.3 77.3,54.3 77.1,53.2 76.9,52.2 76.7,51.2 76.5,50.2 76.4,49.2 76.2,48.2 76.1,47.2 76.0,46.2 75.9,45.2 75.8,44.3 75.8,43.3 75.7,42.4 75.6,41.5 75.6,40.6 75.5,39.7 75.5,38.9 75.4,38.1 75.3,37.3 75.2,36.5 75.1,35.8 74.9,35.1 74.7,34.5 74.5,33.9 74.3,33.4 74.0,32.9 73.7,32.4 73.4,32.0 73.0,31.7 72.5,31.4 72.0,31.2 71.5,31.1 70.9,31.0 70.2,31.0 69.5,31.1 68.7,31.2 67.9,31.4 67.0,31.7 66.0,32.0 65.0,32.5 63.9,32.9 62.8,33.5 61.6,34.1 60.4,34.8 59.1,35.6 57.8,36.4 56.4,37.3 55.1,38.2 53.6,39.2 52.2,40.2 50.7,41.3 49.2,42.5 47.7,43.7 46.2,44.9 44.7,46.1 43.2,47.4 41.8,48.7 40.3,50.0 38.9,51.3 37.5,52.7 36.1,54.0 34.8,55.4 33.6,56.7 32.3,58.1 31.2,59.4 30.1,60.7 29.1,62.0 28.1,63.3 27.2,64.5 26.4,65.7 25.7,66.9 25.0,68.1 24.5,69.2 24.0,70.3 23.5,71.3 23.2,72.3 22.9,73.3 22.7,74.2 22.6,75.0 22.6,75.9 22.6,76.6 22.7,77.4 22.8,78.0 23.0,78.7 23.3,79.3 23.6,79.8 24.0,80.3 24.5,80.8 24.9,81.2 25.5,81.6 26.0,81.9 26.6,82.2 27.3,82.5 27.9,82.7 28.6,82.9 29.4,83.1 30.1,83.2 30.9,83.3 31.6,83.3 32.4,83.3 33.3,83.3 34.1,83.2 34.9,83.1 35.8,83.0 36.6,82.9 37.5,82.7 38.3,82.5 39.2,82.2 40.1,81.9 40.9,81.6 41.8,81.2 42.7,80.8 43.5,80.4 44.4,79.9 45.2,79.4 46.1,78.8 46.9,78.2 47.7,77.6 48.5,76.9 49.3,76.2 50.1,75.4 50.9,74.6 51.7,73.8 52.4,72.9 53.2,71.9 53.9,71.0 54.6,69.9 55.2,68.9 55.9,67.8 56.5,66.7 57.1,65.5 57.7,64.3 58.3,63.1 58.9,61.9 59.4,60.6 59.9,59.3 60.4,58.0 60.9,56.7 61.4,55.4 61.8,54.0 62.2,52.7 62.7,51.4 63.1,50.1 63.5,48.7 63.9,47.4 64.3,46.2 64.7,44.9 65.2,43.7 65.6,42.5 66.0,41.4 66.4,40.2 66.9,39.2 67.3,38.2 67.8,37.2 68.3,36.3 68.8,35.4 69.3,34.6 69.9,33.9 70.5,33.2 71.1,32.7 71.7,32.1 72.3,31.7 72.9,31.3 73.6,31.0 74.3,30.8 75.0,30.6 75.7,30.5 76.5,30.5 77.2,30.5 78.0,30.6 78.7,30.8 79.5,31.1 80.3,31.4 81.0,31.8 81.8,32.2 82.6,32.7 83.3,33.3 84.0,33.9 84.8,34.5 85.5,35.2 86.2,35.9 86.8,36.7 87.5,37.5 88.1,38.4 88.7,39.2 89.2,40.1 89.7,41.1 90.2,42.0 90.7,43.0 91.1,43.9 91.5,44.9 91.8,45.9 92.1,47.0 92.4,48.0 92.6,49.0 92.8,50.1 93.0,51.1 93.1,52.2 93.2,53.2 93.2,54.3 93.2,55.3 93.1,56.4 93.0,57.4 92.9,58.5 92.7,59.5 92.5,60.6 92.3,61.6 92.0,62.6 91.6,63.7 91.2,64.7 90.8,65.7 90.3,66.8 89.8,67.8 89.3,68.8 88.6,69.8 88.0,70.8 87.3,71.8 86.5,72.8 85.7,73.8 84.9,74.8 84.0,75.7 83.1,76.7 82.1,77.6 81.1,78.5 80.0,79.4 78.9,80.3 77.7,81.1 76.5,81.9 75.3,82.7 74.0,83.5 72.7,84.2 71.4,84.9 70.0,85.5 68.7,86.1 67.3,86.6 65.9,87.1 64.4,87.6 63.0,88.0 61.6,88.3 60.2,88.6 58.7,88.8 57.3,88.9 56.0,89.0 54.6,89.0 53.3,88.9 52.0,88.8 50.7,88.6 49.5,88.3 48.3,88.0 47.1,87.5 46.0,87.1 45.0,86.5 44.0,85.9 43.1,85.2 42.2,84.4 41.4,83.6 40.7,82.7 40.0,81.8 39.4,80.8 38.8,79.8 38.3,78.7 37.9,77.5 37.5,76.3 37.1,75.1 36.9,73.9 36.6,72.6 36.4,71.3 36.3,70.0 36.2,68.7 36.2,67.3 36.1,66.0 36.1,64.6 36.2,63.3 36.2,61.9 36.3,60.6 36.4,59.3 36.5,58.0 36.6,56.7 36.8,55.5 36.9,54.3 37.0,53.1 37.1,51.9 37.3,50.8 37.4,49.7 37.5,48.7 37.6,47.7 37.7,46.7 37.7,45.8 37.8,45.0 37.8,44.1 37.8,43.4 37.9,42.6 37.8,42.0 37.8,41.3 37.8,40.7 37.7,40.2 37.6,39.7 37.5,39.2 37.4,38.8 37.3,38.4 37.2,38.1 37.0,37.8 36.8,37.5 36.7,37.3 36.5,37.1 36.3,36.9 36.1,36.8 35.9,36.7 35.7,36.7 35.5,36.7 35.3,36.7 35.1,36.8 34.9,36.9 34.7,37.0 34.6,37.1 34.4,37.3 34.2,37.5 34.1,37.8 34.0,38.1 33.9,38.4 33.9,38.8 33.8,39.2 33.8,39.6 33.9,40.1 34.0,40.6 34.1,41.2 34.3,41.8 34.5,42.4 34.7,43.1 35.1,43.8 35.5,44.6 35.9,45.4 36.4,46.2 37.0,47.1 37.6,48.1 38.3,49.0 39.1,50.1 40.0,51.1 40.9,52.2 41.9,53.3 43.0,54.5 44.1,55.7 45.3,56.9 46.6,58.1 47.9,59.4 49.3,60.7 50.8,62.0 52.3,63.3 53.8,64.6 55.4,66.0 57.1,67.3 58.8,68.6 60.5,69.9 62.2,71.3 63.9,72.6" class="highlight"/>
  
</svg>