<svg xmlns="http://www.w3.org/2000/svg" viewBox="0 0 120 120" role="img">
  <rect width="120" height="120" rx="10" fill="#f8f7f2"/>
  <style>
    .shadow{fill:none;stroke:#4a4f56;stroke-width:13;stroke-linecap:round;stroke-linejoin:round;opacity:.22}
    .rope{fill:none;stroke:#1778bd;stroke-width:8;stroke-linecap:round;stroke-linejoin:round}
    .highlight{fill:none;stroke:#4fb1f0;stroke-width:2.2;stroke-linecap:round;stroke-linejoin:round;opacity:.85}
  </style>
  
    <polyline points="63.9,72.6 66.3,73.8 68.8,75.1 71.2,76.3 73.6,77.4 75.9,78.5 78.2,79.6 80.4,80.6 82.5,81.5 84.5,82.3 86.4,83.1 88.2,83.8 89.9,84.4 91.4,84.9 92.8,85.4 94.0,85.8 95.1,86.1 96.0,86.3 96.7,86.5 97.3,86.5 97.8,86.5 98.1,86.4 98.2,86.3 98.2,86.1 98.1,85.8 97.8,85.5 97.4,85.1 96.9,84.7 96.3,84.2 95.6,83.6 94.8,83.1 93.9,82.5 92.9,81.8 91.9,81.2 90.9,80.5 89.8,79.8 88.6,79.1 87.5,78.3 86.3,77.6 85.1,76.8 83.9,76.1 82.8,75.3 81.6,74.5 80.4,73.8 79.3,73.0 78.1,72.2 77.0,71.4 75.9,70.7 74.9,69.9 73.8,69.1 72.8,68.3 71.8,67.6 70.8,66.8 69.9,66.0 69.0,65.3 68.1,64.5 67.2,63.7 66.4,62.9 65.5,62.1 64.7,61.3 63.9,60.5 63.2,59.7 62.4,58.9 61.7,58.1 60.9,57.3 60.2,56.4 59.4,55.6 58.7,54.8 58.0,54.0 57.2,53.1 56.5,52.3 55.8,51.5 55.0,50.7 54.2,49.9 53.5,49.1 52.7,48.3 51.8,47.6 51.0,46.8 50.1,46.1 49.2,45.4 48.3,44.8 47.4,44.1 46.4,43.5 45.4,42.9 44.4,42.4 43.4,41.9 42.4,41.4 41.3,41.0 40.2,40.6 39.1,40.3 38.1,40.0 37.0,39.8 35.9,39.6 34.9,39.4 33.8,39.3 32.8,39.3 31.9,39.3 30.9,39.3 30.1,39.4 29.2,39.5 28.5,39.7 27.8,39.9 27.2,40.1 26.6,40.4 26.2,40.7 25.8,41.0 25.5,41.4 25.3,41.8 25.2,42.2 25.3,42.7 25.4,43.2 25.6,43.7 25.9,44.2 26.3,44.7 26.8,45.2 27.4,45.8 28.1,46.3 28.9,46.9 29.8,47.5 30.7,48.1 31.8,48.6 32.9,49.2 34.0,49.8 35.3,50.4 36.5,51.0 37.9,51.6 39.3,52.2 40.8,52.7 42.3,53.3 43.8,53.9 45.4,54.5 47.0,55.1 48.7,55.7 50.4,56.3 52.1,56.9 53.9,57.5 55.7,58.1 57.5,58.7 59.3,59.4 61.2,60.0 63.1,60.6 65.0,61.3 66.9,62.0 68.8,62.7 70.8,63.4 72.7,64.1 74.6,64.8 76.5,65.5 78.4,66.3 80.3,67.0 82.1,67.8 83.9,68.6 85.7,69.4 87.3,70.2 89.0,71.0 90.5,71.8 92.0,72.6 93.3,73.4 94.6,74.2 95.7,75.0 96.8,75.8 97.7,76.6 98.5,77.3 99.1,78.1 99.6,78.8 100.0,79.5 100.2,80.1 100.3,80.7 100.3,81.3 100.1,81.9 99.8,82.4 99.3,82.8 98.7,83.2 98.0,83.6 97.2,83.9 96.3,84.1 95.2,84.3 94.1,84.4 92.9,84.4 91.6,84.4 90.3,84.4 88.9,84.2 87.5,84.1 86.1,83.8 84.6,83.5 83.1,83.1 81.6,82.7 80.2,82.2 78.7,81.7 77.3,81.1 75.9,80.5 74.5,79.8 73.2,79.1 71.9,78.3 70.6,77.5 69.4,76.7 68.3,75.8 67.2,75.0 66.2,74.1 65.2,73.2 64.2,72.2 63.3,71.3 62.5,70.3 61.7,69.3 60.9,68.4 60.2,67.4 59.5,66.4 58.8,65.4 58.1,64.4 57.5,63.4 56.9,62.4 56.3,61.5 55.7,60.5 55.1,59.5 54.5,58.5 53.9,57.5 53.3,56.5 52.7,55.5 52.1,54.5 51.4,53.5 50.8,52.5 50.1,51.5 49.3,50.5 48.6,49.4 47.8,48.4 47.0,47.4 46.1,46.4 45.2,45.4 44.3,44.3 43.4,43.3 42.4,42.3 41.3,41.3 40.3,40.3 39.2,39.3 38.1,38.3 37.0,37.4 35.8,36.4 34.7,35.6 33.5,34.7 32.4,33.9 31.3,33.1 30.2,32.4 29.1,31.7 28.1,31.1 27.1,30.5 26.2,30.1 25.3,29.6 24.5,29.3 23.8,29.1 23.2,28.9 22.8,28.8 22.4,28.8 22.1,28.9 22.0,29.1 22.1,29.4 22.2,29.8 22.5,30.3 23.0,30.9 23.6,31.5 24.4,32.3 25.3,33.2 26.3,34.1 27.5,35.1 28.8,36.2 30.3,37.4 31.9,38.6 33.6,39.9 35.4,41.2 37.3,42.6 39.3,44.0 41.4,45.5 43.6,47.0 45.7,48.5 48.0,50.0 50.2,51.6 52.5,53.1 54.7,54.7 57.0,56.2 59.2,57.7 61.4,59.3 63.5,60.7 65.6,62.2 67.7,63.6 69.6,65.0 71.5,66.4 73.3,67.7 75.1,69.0 76.7,70.2 78.3,71.4 79.7,72.6 81.1,73.7 82.4,74.7 83.6,75.8 84.7,76.8 85.7,77.7 86.6,78.6 87.5,79.5 88.2,80.3 88.9,81.1 89.5,81.9 90.0,82.6 90.5,83.3 90.8,84.0 91.1,84.6 91.3,85.2 91.5,85.8 91.6,86.3 91.6,86.8 91.6,87.3 91.4,87.7 91.3,88.1 91.0,88.4 90.7,88.7 90.3,88.9 89.9,89.1 89.4,89.2 88.8,89.3 88.2,89.3 87.5,89.3 86.8,89.2 86.0,89.0 85.2,88.7 84.3,88.3 83.4,87.9 82.4,87.4 81.4,86.8 80.4,86.1 79.3,85.3 78.2,84.5 77.1,83.6 76.0,82.5 74.8,81.4 73.7,80.2 72.6,79.0 71.4,77.6 70.3,76.2 69.2,74.8 68.1,73.3 67.1,71.7 66.0,70.1 65.0,68.4 64.0,66.7 63.0,65.0 62.0,63.3 61.1,61.5 60.2,59.8 59.3,58.0 58.5,56.3 57.6,54.6 56.8,52.9 56.1,51.3 55.3,49.7 54.5,48.2 53.8,46.7 53.0,45.3 52.3,43.9 51.6,42.6 50.9,41.4 50.2,40.2 49.5,39.2 48.8,38.2 48.1,37.3 47.4,36.5 46.7,35.7 46.0,35.1 45.3,34.5 44.6,34.0 43.9,33.6 43.2,33.2 42.5,33.0 41.8,32.8 41.1,32.6 40.4,32.5 39.7,32.5 39.1,32.5 38.4,32.6 37.8,32.8 37.1,33.0 36.5,33.2 35.9,33.4 35.3,33.8 34.7,34.1 34.2,34.5 33.6,34.9 33.1,35.3 32.6,35.8 32.2,36.3 31.8,36.8 31.4,37.4 31.1,38.0 30.8,38.6 30.5,39.3 30.3,40.0 30.2,40.7 30.2,41.5 30.2,42.3 30.3,43.1 30.5,44.0 30.7,44.9 31.1,45.9 31.6,46.9 32.1,47.9 32.8,49.0 33.6,50.1 34.5,51.2 35.5,52.4 36.7,53.7 38.0,54.9 39.4,56.2 40.9,57.5 42.5,58.9 44.3,60.2 46.1,61.6 48.1,63.0 50.1,64.4 52.3,65.8 54.5,67.2 56.8,68.5 59.1,69.9 61.5,71.2 63.9,72.6" class="shadow"/>
    <polyline points="63.9,72.6 66.3,73.8 68.8,75.1 71.2,76.3 73.6,77.4 75.9,78.5 78.2,79.6 80.4,80.6 82.5,81.5 84.5,82.3 86.4,83.1 88.2,83.8 89.9,84.4 91.4,84.9 92.8,85.4 94.0,85.8 95.1,86.1 96.0,86.3 96.7,86.5 97.3,86.5 97.8,86.5 98.1,86.4 98.2,86.3 98.2,86.1 98.1,85.8 97.8,85.5 97.4,85.1 96.9,84.7 96.3,84.2 95.6,83.6 94.8,83.1 93.9,82.5 92.9,81.8 91.9,81.2 90.9,80.5 89.8,79.8 88.6,79.1 87.5,78.3 86.3,77.6 85.1,76.8 83.9,76.1 82.8,75.3 81.6,74.5 80.4,73.8 79.3,73.0 78.1,72.2 77.0,71.4 75.9,70.7 74.9,69.9 73.8,69.1 72.8,68.3 71.8,67.6 70.8,66.8 69.9,66.0 69.0,65.3 68.1,64.5 67.2,63.7 66.4,62.9 65.5,62.1 64.7,61.3 63.9,60.5 63.2,59.7 62.4,58.9 61.7,58.1 60.9,57.3 60.2,56.4 59.4,55.6 58.7,54.8 58.0,54.0 57.2,53.1 56.5,52.3 55.8,51.5 55.0,50.7 54.2,49.9 53.5,49.1 52.7,48.3 51.8,47.6 51.0,46.8 50.1,46.1 49.2,45.4 48.3,44.8 47.4,44.1 46.4,43.5 45.4,42.9 44.4,42.4 43.4,41.9 42.4,41.4 41.3,41.0 40.2,40.6 39.1,40.3 38.1,40.0 37.0,39.8 35.9,39.6 34.9,39.4 33.8,39.3 32.8,39.3 31.9,39.3 30.9,39.3 30.1,39.4 29.2,39.5 28.5,39.7 27.8,39.9 27.2,40.1 26.6,40.4 26.2,40.7 25.8,41.0 25.5,41.4 25.3,41.8 25.2,42.2 25.3,42.7 25.4,43.2 25.6,43.7 25.9,44.2 26.3,44.7 26.8,45.2 27.4,45.8 28.1,46.3 28.9,46.9 29.8,47.5 30.7,48.1 31.8,48.6 32.9,49.2 34.0,49.8 35.3,50.4 36.5,51.0 37.9,51.6 39.3,52.2 40.8,52.7 42.3,53.3 43.8,53.9 45.4,54.5 47.0,55.1 48.7,55.7 50.4,56.3 52.1,56.9 53.9,57.5 55.7,58.1 57.5,58.7 59.3,59.4 61.2,60.0 63.1,60.6 65.0,61.3 66.9,62.0 68.8,62.7 70.8,63.4 72.7,64.1 74.6,64.8 76.5,65.5 78.4,66.3 80.3,67.0 82.1,67.8 83.9,68.6 85.7,69.4 87.3,70.2 89.0,71.0 90.5,71.8 92.0,72.6 93.3,73.4 94.6,74.2 95.7,75.0 96.8,75.8 97.7,76.6 98.5,77.3 99.1,78.1 99.6,78.8 100.0,79.5 100.2,80.1 100.3,80.7 100.3,81.3 100.1,81.9 99.8,82.4 99.3,82.8 98.7,83.2 98.0,83.6 97.2,83.9 96.3,84.1 95.2,84.3 94.1,84.4 92.9,84.4 91.6,84.4 90.3,84.4 88.9,84.2 87.5,84.1 86.1,83.8 84.6,83.5 83.1,83.1 81.6,82.7 80.2,82.2 78.7,81.7 77.3,81.1 75.9,80.5 74.5,79.8 73.2,79.1 71.9,78.3 70.6,77.5 69.4,76.7 68.3,75.8 67.2,75.0 66.2,74.1 65.2,73.2 64.2,72.2 63.3,71.3 62.5,70.3 61.7,69.3 60.9,68.4 60.2,67.4 59.5,66.4 58.8,65.4 58.1,64.4 57.5,63.4 56.9,62.4 56.3,61.5 55.7,60.5 55.1,59.5 54.5,58.5 53.9,57.5 53.3,56.5 52.7,55.5 52.1,54.5 51.4,53.5 50.8,52.5 50.1,51.5 49.3,50.5 48.6,49.4 47.8,48.4 47.0,47.4 46.1,46.4 45.2,45.4 44.3,44.3 43.4,43.3 42.4,42.3 41.3,41.3 40.3,40.3 39.2,39.3 38.1,38.3 37.0,37.4 35.8,36.4 34.7,35.6 33.5,34.7 32.4,33.9 31.3,33.1 30.2,32.4 29.1,31.7 28.1,31.1 27.1,30.5 26.2,30.1 25.3,29.6 24.5,29.3 23.8,29.1 23.2,28.9 22.8,28.8 22.4,28.8 22.1,28.9 22.0,29.1 22.1,29.4 22.2,29.8 22.5,30.3 23.0,30.9 23.6,31.5 24.4,32.3 25.3,33.2 26.3,34.1 27.5,35.1 28.8,36.2 30.3,37.4 31.9,38.6 33.6,39.9 35.4,41.2 37.3,42.6 39.3,44.0 41.4,45.5 43.6,47.0 45.7,48.5 48.0,50.0 50.2,51.6 52.5,53.1 54.7,54.7 57.0,56.2 59.2,57.7 61.4,59.3 63.5,60.7 65.6,62.2 67.7,63.6 69.6,65.0 71.5,66.4 73.3,67.7 75.1,69.0 76.7,70.2 78.3,71.4 79.7,72.6 81.1,73.7 82.4,74.7 83.6,75.8 84.7,76.8 85.7,77.7 86.6,78.6 87.5,79.5 88.2,80.3 88.9,81.1 89.5,81.9 90.0,82.6 90.5,83.3 90.8,84.0 91.1,84.6 91.3,85.2 91.5,85.8 91.6,86.3 91.6,86.8 91.6,87.3 91.4,87.7 91.3,88.1 91.0,88.4 90.7,88.7 90.3,88.9 89.9,89.1 89.4,89.2 88.8,89.3 88.2,89.3 87.5,89.3 86.8,89.2 86.0,89.0 85.2,88.7 84.3,88.3 83.4,87.9 82.4,87.4 81.4,86.8 80.4,86.1 79.3,85.3 78.2,84.5 77.1,83.6 76.0,82.5 74.8,81.4 73.7,80.2 72.6,79.0 71.4,77.6 70.3,76.2 69.2,74.8 68.1,73.3 67.1,71.7 66.0,70.1 65.0,68.4 64.0,66.7 63.0,65.0 62.0,63.3 61.1,61.5 60.2,59.8 59.3,58.0 58.5,56.3 57.6,54.6 56.8,52.9 56.1,51.3 55.3,49.7 54.5,48.2 53.8,46.7 53.0,45.3 52.3,43.9 51.6,42.6 50.9,41.4 50.2,40.2 49.5,39.2 48.8,38.2 48.1,37.3 47.4,36.5 46.7,35.7 46.0,35.1 45.3,34.5 44.6,34.0 43.9,33.6 43.2,33.2 42.5,33.0 41.8,32.8 41.1,32.6 40.4,32.5 39.7,32.5 39.1,32.5 38.4,32.6 37.8,32.8 37.1,33.0 36.5,33.2 35.9,33.4 35.3,33.8 34.7,34.1 34.2,34.5 33.6,34.9 33.1,35.3 32.6,35.8 32.2,36.3 31.8,36.8 31.4,37.4 31.1,38.0 30.8,38.6 30.5,39.3 30.3,40.0 30.2,40.7 30.2,41.5 30.2,42.3 30.3,43.1 30.5,44.0 30.7,44.9 31.1,45.9 31.6,46.9 32.1,47.9 32.8,49.0 33.6,50.1 34.5,51.2 35.5,52.4 36.7,53.7 38.0,54.9 39.4,56.2 40.9,57.5 42.5,58.9 44.3,60.2 46.1,61.6 48.1,63.0 50.1,64.4 52.3,65.8 54.5,67.2 56.8,68.5 59.1,69.9 61.5,71.2 63.9,72.6" class="rope"/>
    <rect x="85.0" y="84.9" width="20" height="6" rx="3" transform="rotate(37.5 95.0 87.9)" fill="#f8f7f2"/><rect x="50.7" y="59.2" width="20" height="6" rx="3" transform="rotate(75.0 60.7 62.2)" fill="#f8f7f2"/><rect x="15.0" y="29.1" width="20" height="6" rx="3" transform="rotate(112.5 25.0 32.1)" fill="#f8f7f2"/><rect x="49.3" y="54.8" width="20" height="6" rx="3" transform="rotate(150.0 59.3 57.8)" fill="#f8f7f2"/>
    <polyline points="63.9,72.6 66.3,73.8 68.8,75.1 71.2,76.3 73.6,77.4 75.9,78.5 78.2,79.6 80.4,80.6 82.5,81.5 84.5,82.3 86.4,83.1 88.2,83.8 89.9,84.4 91.4,84.9 92.8,85.4 94.0,85.8 95.1,86.1 96.0,86.3 96.7,86.5 97.3,86.5 97.8,86.5 98.1,86.4 98.2,86.3 98.2,86.1 98.1,85.8 97.8,85.5 97.4,85.1 96.9,84.7 96.3,84.2 95.6,83.6 94.8,83.1 93.9,82.5 92.9,81.8 91.9,81.2 90.9,80.5 89.8,79.8 88.6,79.1 87.5,78.3 86.3,77.6 85.1,76.8 83.9,76.1 82.8,75.3 81.6,74.5 80.4,73.8 79.3,73.0 78.1,72.2 77.0,71.4 75.9,70.7 74.9,69.9 73.8,69.1 72.8,68.3 71.8,67.6 70.8,66.8 69.9,66.0 69.0,65.3 68.1,64.5 67.2,63.7 66.4,62.9 65.5,62.1 64.7,61.3 63.9,60.5 63.2,59.7 62.4,58.9 61.7,58.1 60.9,57.3 60.2,56.4 59.4,55.6 58.7,54.8 58.0,54.0 57.2,53.1 56.5,52.3 55.8,51.5 55.0,50.7 54.2,49.9 53.5,49.1 52.7,48.3 51.8,47.6 51.0,46.8 50.1,46.1 49.2,45.4 48.3,44.8 47.4,44.1 46.4,43.5 45.4,42.9 44.4,42.4 43.4,41.9 42.4,41.4 41.3,41.0 40.2,40.6 39.1,40.3 38.1,40.0 37.0,39.8 35.9,39.6 34.9,39.4 33.8,39.3 32.8,39.3 31.9,39.3 30.9,39.3 30.1,39.4 29.2,39.5 28.5,39.7 27.8,39.9 27.2,40.1 26.6,40.4 26.2,40.7 25.8,41.0 25.5,41.4 25.3,41.8 25.2,42.2 25.3,42.7 25.4,43.2 25.6,43.7 25.9,44.2 26.3,44.7 26.8,45.2 27.4,45.8 28.1,46.3 28.9,46.9 29.8,47.5 30.7,48.1 31.8,48.6 32.9,49.2 34.0,49.8 35.3,50.4 36.5,51.0 37.9,51.6 39.3,52.2 40.8,52.7 42.3,53.3 43.8,53.9 45.4,54.5 47.0,55.1 48.7,55.7 50.4,56.3 52.1,56.9 53.9,57.5 55.7,58.1 57.5,58.7 59.3,59.4 61.2,60.0 63.1,60.6 65.0,61.3 66.9,62.0 68.8,62.7 70.8,63.4 72.7,64.1 74.6,64.8 76.5,65.5 78.4,66.3 80.3,67.0 82.1,67.8 83.9,68.6 85.7,69.4 87.3,70.2 89.0,71.0 90.5,71.8 92.0,72.6 93.3,73.4 94.6,74.2 95.7,75.0 96.8,75.8 97.7,76.6 98.5,77.3 99.1,78.1 99.6,78.8 100.0,79.5 100.2,80.1 100.3,80.7 100.3,81.3 100.1,81.9 99.8,82.4 99.3,82.8 98.7,83.2 98.0,83.6 97.2,83.9 96.3,84.1 95.2,84.3 94.1,84.4 92.9,84.4 91.6,84.4 90.3,84.4 88.9,84.2 87.5,84.1 86.1,83.8 84.6,83.5 83.1,83.1 81.6,82.7 80.2,82.2 78.7,81.7 77.3,81.1 75.9,80.5 74.5,79.8 73.2,79.1 71.9,78.3 70.6,77.5 69.4,76.7 68.3,75.8 67.2,75.0 66.2,74.1 65.2,73.2 64.2,72.2 63.3,71.3 62.5,70.3 61.7,69.3 60.9,68.4 60.2,67.4 59.5,66.4 58.8,65.4 58.1,64.4 57.5,63.4 56.9,62.4 56.3,61.5 55.7,60.5 55.1,59.5 54.5,58.5 53.9,57.5 53.3,56.5 52.7,55.5 52.1,54.5 51.4,53.5 50.8,52.5 50.1,51.5 49.3,50.5 48.6,49.4 47.8,48.4 47.0,47.4 46.1,46.4 45.2,45.4 44.3,44.3 43.4,43.3 42.4,42.3 41.3,41.3 40.3,40.3 39.2,39.3 38.1,38.3 37.0,37.4 35.8,36.4 34.7,35.6 33.5,34.7 32.4,33.9 31.3,33.1 30.2,32.4 29.1,31.7 28.1,31.1 27.1,30.5 26.2,30.1 25.3,29.6 24.5,29.3 23.8,29.1 23.2,28.9 22.8,28.8 22.4,28.8 22.1,28.9 22.0,29.1 22.1,29.4 22.2,29.8 22.5,30.3 23.0,30.9 23.6,31.5 24.4,32.3 25.3,33.2 26.3,34.1 27.5,35.1 28.8,36.2 30.3,37.4 31.9,38.6 33.6,39.9 35.4,41.2 37.3,42.6 39.3,44.0 41.4,45.5 43.6,47.0 45.7,48.5 48.0,50.0 50.2,51.6 52.5,53.1 54.7,54.7 57.0,56.2 59.2,57.7 61.4,59.3 63.5,60.7 65.6,62.2 67.7,63.6 69.6,65.0 71.5,66.4 73.3,67.7 75.1,69.0 76.7,70.2 78.3,71.4 79.7,72.6 81.1,73.7 82.4,74.7 83.6,75.8 84.7,76.8 85.7,77.7 86.6,78.6 87.5,79.5 88.2,80.3 88.9,81.1 89.5,81.9 90.0,82.6 90.5,83.3 90.8,84.0 91.1,84.6 91.3,85.2 91.5,85.8 91.6,86.3 91.6,86.8 91.6,87.3 91.4,87.7 91.3,88.1 91.0,88.4 90.7,88.7 90.3,88.9 89.9,89.1 89.4,89.2 88.8,89.3 88.2,89.3 87.5,89.3 86.8,89.2 86.0,89.0 85.2,88.7 84.3,88.3 83.4,87.9 82.4,87.4 81.4,86.8 80.4,86.1 79.3,85.3 78.2,84.5 77.1,83.6 76.0,82.5 74.8,81.4 73.7,80.2 72.6,79.0 71.4,77.6 70.3,76.2 69.2,74.8 68.1,73.3 67.1,71.7 66.0,70.1 65.0,68.4 64.0,66.7 63.0,65.0 62.0,63.3 61.1,61.5 60.2,59.8 59.3,58.0 58.5,56.3 57.6,54.6 56.8,52.9 56.1,51.3 55.3,49.7 54.5,48.2 53.8,46.7 53.0,45.3 52.3,43.9 51.6,42.6 50.9,41.4 50.2,40.2 49.5,39.2 48.8,38.2 48.1,37.3 47.4,36.5 46.7,35.7 46.0,35.1 45.3,34.5 44.6,34.0 43.9,33.6 43.2,33.2 42.5,33.0 41.8,32.8 41.1,32.6 40.4,32.5 39.7,32.5 39.1,32.5 38.4,32.6 37.8,32.8 37.1,33.0 36.5,33.2 35.9,33.4 35.3,33.8 34.7,34.1 34.2,34.5 33.6,34.9 33.1,35.3 32.6,35.8 32.2,36.3 31.8,36.8 31.4,37.4 31.1,38.0 30.8,38.6 30.5,39.3 30.3,40.0 30.2,40.7 30.2,41.5 30.2,42.3 30.3,43.1 30.5,44.0 30.7,44.9 31.1,45.9 31.6,46.9 32.1,47.9 32.8,49.0 33.6,50.1 34.5,51.2 35.5,52.4 36.7,53.7 38.0,54.9 39.4,56.2 40.9,57.5 42.5,58.9 44.3,60.2 46.1,61.6 48.1,63.0 50.1,64.4 52.3,65.8 54.5,67.2 56.8,68.5 59.1,69.9 61.5,71.2 63.9,72.6" class="highlight"/>
  
</svg>