<svg xmlns="http://www.w3.org/2000/svg" viewBox="0 0 120 120" role="img">
  <rect width="120" height="120" rx="10" fill="#f8f7f2"/>
  <style>
    .shadow{fill:none;stroke:#4a4f56;stroke-width:13;stroke-linecap:round;stroke-linejoin:round;opacity:.22}
    .rope{fill:none;stroke:#1778bd;stroke-width:8;stroke-linecap:round;stroke-linejoin:round}
    .highlight{fill:none;stroke:#4fb1f0;stroke-width:2.2;stroke-linecap:round;stroke-linejoin:round;opacity:.85}
  </style>
  
    <polyline points="63.9,72.6 66.6,74.7 69.3,76.7 72.0,78.7 74.6,80.6 77.1,82.4 79.5,84.0 81.8,85.5 83.9,86.9 85.9,88.0 87.6,89.0 89.2,89.9 90.6,90.5 91.7,90.9 92.7,91.2 93.4,91.2 93.9,91.1 94.2,90.8 94.3,90.3 94.3,89.6 94.0,88.7 93.7,87.8 93.1,86.6 92.5,85.4 91.7,84.0 90.9,82.5 90.0,80.9 89.1,79.3 88.2,77.6 87.2,75.8 86.2,74.0 85.3,72.1 84.4,70.2 83.5,68.4 82.7,66.5 81.9,64.5 81.2,62.6 80.6,60.8 80.1,58.9 79.6,57.0 79.2,55.1 78.8,53.3 78.5,51.5 78.3,49.7 78.2,47.9 78.1,46.2 78.1,44.5 78.1,42.8 78.1,41.2 78.2,39.6 78.3,38.1 78.4,36.7 78.5,35.3 78.5,34.0 78.5,32.8 78.5,31.7 78.4,30.8 78.3,29.9 78.0,29.2 77.6,28.7 77.1,28.3 76.5,28.1 75.7,28.0 74.8,28.2 73.7,28.5 72.5,29.0 71.1,29.7 69.5,30.7 67.8,31.8 65.9,33.1 63.8,34.6 61.6,36.3 59.4,38.1 57.0,40.1 54.5,42.2 52.0,44.5 49.4,46.9 46.9,49.3 44.3,51.8 41.9,54.4 39.4,56.9 37.1,59.5 34.9,62.1 32.8,64.6 30.9,67.1 29.2,69.5 27.6,71.8 26.3,74.0 25.1,76.0 24.2,78.0 23.5,79.8 23.0,81.4 22.7,82.9 22.6,84.2 22.7,85.4 22.9,86.3 23.3,87.2 23.9,87.8 24.6,88.3 25.4,88.7 26.4,88.9 27.4,88.9 28.5,88.9 29.6,88.7 30.7,88.4 31.9,87.9 33.1,87.4 34.3,86.7 35.5,86.0 36.7,85.1 37.9,84.2 39.0,83.2 40.0,82.0 41.0,80.8 42.0,79.6 42.9,78.2 43.8,76.7 44.6,75.2 45.3,73.6 46.0,71.9 46.6,70.1 47.2,68.3 47.7,66.3 48.1,64.3 48.5,62.3 48.9,60.2 49.2,58.0 49.6,55.8 49.8,53.6 50.1,51.3 50.4,49.1 50.7,46.8 51.1,44.6 51.4,42.4 51.9,40.3 52.4,38.3 52.9,36.4 53.6,34.5 54.3,32.8 55.2,31.3 56.2,29.9 57.3,28.6 58.5,27.6 59.8,26.8 61.3,26.1 62.9,25.7 64.6,25.5 66.3,25.5 68.2,25.7 70.1,26.1 72.1,26.7 74.2,27.5 76.2,28.6 78.2,29.7 80.3,31.1 82.2,32.6 84.2,34.3 86.0,36.0 87.7,37.9 89.3,39.8 90.8,41.9 92.2,43.9 93.3,46.1 94.4,48.2 95.2,50.3 95.9,52.4 96.4,54.5 96.8,56.6 97.0,58.6 97.0,60.6 96.9,62.5 96.6,64.4 96.2,66.1 95.6,67.8 94.9,69.5 94.2,71.0 93.3,72.5 92.3,73.9 91.3,75.2 90.2,76.4 89.0,77.5 87.8,78.6 86.5,79.5 85.2,80.4 83.9,81.2 82.5,82.0 81.1,82.6 79.7,83.1 78.3,83.6 76.9,83.9 75.5,84.1 74.1,84.3 72.8,84.3 71.4,84.2 70.1,83.9 68.8,83.6 67.6,83.1 66.4,82.4 65.3,81.7 64.2,80.8 63.2,79.7 62.3,78.5 61.4,77.2 60.6,75.8 59.8,74.3 59.1,72.6 58.4,70.9 57.8,69.0 57.2,67.1 56.6,65.1 56.1,63.1 55.5,61.0 55.0,59.0 54.4,56.9 53.8,54.9 53.2,52.9 52.5,50.9 51.8,49.1 51.0,47.3 50.1,45.6 49.2,44.1 48.2,42.6 47.2,41.3 46.1,40.2 44.9,39.2 43.7,38.4 42.5,37.7 41.2,37.2 39.9,36.8 38.6,36.6 37.4,36.6 36.1,36.7 34.8,37.0 33.6,37.4 32.5,37.9 31.4,38.5 30.4,39.3 29.5,40.1 28.7,41.1 27.9,42.1 27.3,43.1 26.8,44.3 26.4,45.5 26.1,46.7 25.9,48.0 25.8,49.3 25.9,50.6 26.0,51.9 26.3,53.3 26.6,54.7 27.1,56.0 27.7,57.4 28.4,58.8 29.2,60.1 30.0,61.5 31.0,62.9 32.1,64.2 33.3,65.5 34.6,66.9 36.0,68.1 37.5,69.4 39.0,70.6 40.7,71.8 42.4,73.0 44.1,74.0 46.0,75.1 47.8,76.0 49.8,76.9 51.7,77.7 53.6,78.3 55.6,78.9 57.5,79.4 59.3,79.7 61.2,79.9 62.9,80.0 64.6,80.0 66.3,79.8 67.8,79.4 69.2,79.0 70.5,78.3 71.7,77.6 72.7,76.7 73.7,75.7 74.5,74.5 75.3,73.3 75.9,72.0 76.5,70.5 76.9,69.0 77.3,67.5 77.6,65.9 77.9,64.2 78.1,62.6 78.3,60.9 78.5,59.3 78.7,57.7 78.8,56.1 79.1,54.6 79.3,53.2 79.5,51.8 79.8,50.6 80.2,49.4 80.5,48.3 81.0,47.3 81.4,46.5 81.9,45.7 82.4,45.1 83.0,44.5 83.5,44.1 84.1,43.8 84.7,43.6 85.3,43.5 85.9,43.5 86.5,43.6 87.0,43.8 87.6,44.1 88.1,44.4 88.5,44.9 89.0,45.4 89.3,46.0 89.7,46.6 89.9,47.3 90.1,48.1 90.2,49.0 90.2,49.9 90.2,50.8 90.0,51.8 89.7,52.9 89.3,54.0 88.8,55.2 88.2,56.5 87.4,57.7 86.5,59.1 85.5,60.4 84.3,61.8 82.9,63.2 81.5,64.7 79.8,66.2 78.1,67.6 76.2,69.1 74.1,70.6 72.0,72.0 69.8,73.4 67.4,74.7 65.1,76.0 62.6,77.2 60.2,78.4 57.7,79.4 55.3,80.3 52.9,81.1 50.6,81.8 48.3,82.3 46.2,82.7 44.2,82.9 42.3,83.0 40.5,82.9 39.0,82.6 37.5,82.2 36.3,81.6 35.3,80.9 34.4,80.0 33.7,79.0 33.2,77.8 32.8,76.6 32.6,75.2 32.5,73.7 32.6,72.2 32.7,70.5 33.0,68.9 33.3,67.1 33.7,65.4 34.1,63.6 34.6,61.9 35.1,60.1 35.5,58.4 36.0,56.7 36.4,55.1 36.8,53.6 37.2,52.0 37.5,50.6 37.7,49.2 37.9,48.0 38.1,46.8 38.2,45.6 38.2,44.6 38.1,43.7 38.1,42.8 37.9,42.0 37.7,41.4 37.5,40.7 37.2,40.2 37.0,39.8 36.7,39.5 36.3,39.2 36.0,39.0 35.7,38.9 35.4,38.9 35.2,39.1 35.0,39.3 34.8,39.6 34.7,40.0 34.7,40.5 34.8,41.1 35.0,41.8 35.3,42.7 35.7,43.7 36.3,44.8 37.0,46.0 37.9,47.3 39.0,48.8 40.2,50.3 41.7,52.0 43.2,53.8 45.0,55.7 46.9,57.6 49.0,59.7 51.2,61.7 53.6,63.9 56.1,66.0 58.6,68.2 61.3,70.4 63.9,72.6" class="shadow"/>
    <polyline points="63.9,72.6 66.6,74.7 69.3,76.7 72.0,78.7 74.6,80.6 77.1,82.4 79.5,84.0 81.8,85.5 83.9,86.9 85.9,88.0 87.6,89.0 89.2,89.9 90.6,90.5 91.7,90.9 92.7,91.2 93.4,91.2 93.9,91.1 94.2,90.8 94.3,90.3 94.3,89.6 94.0,88.7 93.7,87.8 93.1,86.6 92.5,85.4 91.7,84.0 90.9,82.5 90.0,80.9 89.1,79.3 88.2,77.6 87.2,75.8 86.2,74.0 85.3,72.1 84.4,70.2 83.5,68.4 82.7,66.5 81.9,64.5 81.2,62.6 80.6,60.8 80.1,58.9 79.6,57.0 79.2,55.1 78.8,53.3 78.5,51.5 78.3,49.7 78.2,47.9 78.1,46.2 78.1,44.5 78.1,42.8 78.1,41.2 78.2,39.6 78.3,38.1 78.4,36.7 78.5,35.3 78.5,34.0 78.5,32.8 78.5,31.7 78.4,30.8 78.3,29.9 78.0,29.2 77.6,28.7 77.1,28.3 76.5,28.1 75.7,28.0 74.8,28.2 73.7,28.5 72.5,29.0 71.1,29.7 69.5,30.7 67.8,31.8 65.9,33.1 63.8,34.6 61.6,36.3 59.4,38.1 57.0,40.1 54.5,42.2 52.0,44.5 49.4,46.9 46.9,49.3 44.3,51.8 41.9,54.4 39.4,56.9 37.1,59.5 34.9,62.1 32.8,64.6 30.9,67.1 29.2,69.5 27.6,71.8 26.3,74.0 25.1,76.0 24.2,78.0 23.5,79.8 23.0,81.4 22.7,82.9 22.6,84.2 22.7,85.4 22.9,86.3 23.3,87.2 23.9,87.8 24.6,88.3 25.4,88.7 26.4,88.9 27.4,88.9 28.5,88.9 29.6,88.7 30.7,88.4 31.9,87.9 33.1,87.4 34.3,86.7 35.5,86.0 36.7,85.1 37.9,84.2 39.0,83.2 40.0,82.0 41.0,80.8 42.0,79.6 42.9,78.2 43.8,76.7 44.6,75.2 45.3,73.6 46.0,71.9 46.6,70.1 47.2,68.3 47.7,66.3 48.1,64.3 48.5,62.3 48.9,60.2 49.2,58.0 49.6,55.8 49.8,53.6 50.1,51.3 50.4,49.1 50.7,46.8 51.1,44.6 51.4,42.4 51.9,40.3 52.4,38.3 52.9,36.4 53.6,34.5 54.3,32.8 55.2,31.3 56.2,29.9 57.3,28.6 58.5,27.6 59.8,26.8 61.3,26.1 62.9,25.7 64.6,25.5 66.3,25.5 68.2,25.7 70.1,26.1 72.1,26.7 74.2,27.5 76.2,28.6 78.2,29.7 80.3,31.1 82.2,32.6 84.2,34.3 86.0,36.0 87.7,37.9 89.3,39.8 90.8,41.9 92.2,43.9 93.3,46.1 94.4,48.2 95.2,50.3 95.9,52.4 96.4,54.5 96.8,56.6 97.0,58.6 97.0,60.6 96.9,62.5 96.6,64.4 96.2,66.1 95.6,67.8 94.9,69.5 94.2,71.0 93.3,72.5 92.3,73.9 91.3,75.2 90.2,76.4 89.0,77.5 87.8,78.6 86.5,79.5 85.2,80.4 83.9,81.2 82.5,82.0 81.1,82.6 79.7,83.1 78.3,83.6 76.9,83.9 75.5,84.1 74.1,84.3 72.8,84.3 71.4,84.2 70.1,83.9 68.8,83.6 67.6,83.1 66.4,82.4 65.3,81.7 64.2,80.8 63.2,79.7 62.3,78.5 61.4,77.2 60.6,75.8 59.8,74.3 59.1,72.6 58.4,70.9 57.8,69.0 57.2,67.1 56.6,65.1 56.1,63.1 55.5,61.0 55.0,59.0 54.4,56.9 53.8,54.9 53.2,52.9 52.5,50.9 51.8,49.1 51.0,47.3 50.1,45.6 49.2,44.1 48.2,42.6 47.2,41.3 46.1,40.2 44.9,39.2 43.7,38.4 42.5,37.7 41.2,37.2 39.9,36.8 38.6,36.6 37.4,36.6 36.1,36.7 34.8,37.0 33.6,37.4 32.5,37.9 31.4,38.5 30.4,39.3 29.5,40.1 28.7,41.1 27.9,42.1 27.3,43.1 26.8,44.3 26.4,45.5 26.1,46.7 25.9,48.0 25.8,49.3 25.9,50.6 26.0,51.9 26.3,53.3 26.6,54.7 27.1,56.0 27.7,57.4 28.4,58.8 29.2,60.1 30.0,61.5 31.0,62.9 32.1,64.2 33.3,65.5 34.6,66.9 36.0,68.1 37.5,69.4 39.0,70.6 40.7,71.8 42.4,73.0 44.1,74.0 46.0,75.1 47.8,76.0 49.8,76.9 51.7,77.7 53.6,78.3 55.6,78.9 57.5,79.4 59.3,79.7 61.2,79.9 62.9,80.0 64.6,80.0 66.3,79.8 67.8,79.4 69.2,79.0 70.5,78.3 71.7,77.6 72.7,76.7 73.7,75.7 74.5,74.5 75.3,73.3 75.9,72.0 76.5,70.5 76.9,69.0 77.3,67.5 77.6,65.9 77.9,64.2 78.1,62.6 78.3,60.9 78.5,59.3 78.7,57.7 78.8,56.1 79.1,54.6 79.3,53.2 79.5,51.8 79.8,50.6 80.2,49.4 80.5,48.3 81.0,47.3 81.4,46.5 81.9,45.7 82.4,45.1 83.0,44.5 83.5,44.1 84.1,43.8 84.7,43.6 85.3,43.5 85.9,43.5 86.5,43.6 87.0,43.8 87.6,44.1 88.1,44.4 88.5,44.9 89.0,45.4 89.3,46.0 89.7,46.6 89.9,47.3 90.1,48.1 90.2,49.0 90.2,49.9 90.2,50.8 90.0,51.8 89.7,52.9 89.3,54.0 88.8,55.2 88.2,56.5 87.4,57.7 86.5,59.1 85.5,60.4 84.3,61.8 82.9,63.2 81.5,64.7 79.8,66.2 78.1,67.6 76.2,69.1 74.1,70.6 72.0,72.0 69.8,73.4 67.4,74.7 65.1,76.0 62.6,77.2 60.2,78.4 57.7,79.4 55.3,80.3 52.9,81.1 50.6,81.8 48.3,82.3 46.2,82.7 44.2,82.9 42.3,83.0 40.5,82.9 39.0,82.6 37.5,82.2 36.3,81.6 35.3,80.9 34.4,80.0 33.7,79.0 33.2,77.8 32.8,76.6 32.6,75.2 32.5,73.7 32.6,72.2 32.7,70.5 33.0,68.9 33.3,67.1 33.7,65.4 34.1,63.6 34.6,61.9 35.1,60.1 35.5,58.4 36.0,56.7 36.4,55.1 36.8,53.6 37.2,52.0 37.5,50.6 37.7,49.2 37.9,48.0 38.1,46.8 38.2,45.6 38.2,44.6 38.1,43.7 38.1,42.8 37.9,42.0 37.7,41.4 37.5,40.7 37.2,40.2 37.0,39.8 36.7,39.5 36.3,39.2 36.0,39.0 35.7,38.9 35.4,38.9 35.2,39.1 35.0,39.3 34.8,39.6 34.7,40.0 34.7,40.5 34.8,41.1 35.0,41.8 35.3,42.7 35.7,43.7 36.3,44.8 37.0,46.0 37.9,47.3 39.0,48.8 40.2,50.3 41.7,52.0 43.2,53.8 45.0,55.7 46.9,57.6 49.0,59.7 51.2,61.7 53.6,63.9 56.1,66.0 58.6,68.2 61.3,70.4 63.9,72.6" class="rope"/>
    <rect x="85.0" y="70.5" width="20" height="6" rx="3" transform="rotate(37.5 95.0 73.5)" fill="#f8f7f2"/><rect x="22.1" y="70.5" width="20" height="6" rx="3" transform="rotate(67.5 32.1 73.5)" fill="#f8f7f2"/><rect x="60.1" y="70.5" width="20" height="6" rx="3" transform="rotate(97.5 70.1 73.5)" fill="#f8f7f2"/><rect x="61.5" y="70.5" width="20" height="6" rx="3" transform="rotate(127.5 71.5 73.5)" fill="#f8f7f2"/><rect x="21.3" y="70.5" width="20" height="6" rx="3" transform="rotate(157.5 31.3 73.5)" fill="#f8f7f2"/>
    <polyline points="63.9,72.6 66.6,74.7 69.3,76.7 72.0,78.7 74.6,80.6 77.1,82.4 79.5,84.0 81.8,85.5 83.9,86.9 85.9,88.0 87.6,89.0 89.2,89.9 90.6,90.5 91.7,90.9 92.7,91.2 93.4,91.2 93.9,91.1 94.2,90.8 94.3,90.3 94.3,89.6 94.0,88.7 93.7,87.8 93.1,86.6 92.5,85.4 91.7,84.0 90.9,82.5 90.0,80.9 89.1,79.3 88.2,77.6 87.2,75.8 86.2,74.0 85.3,72.1 84.4,70.2 83.5,68.4 82.7,66.5 81.9,64.5 81.2,62.6 80.6,60.8 80.1,58.9 79.6,57.0 79.2,55.1 78.8,53.3 78.5,51.5 78.3,49.7 78.2,47.9 78.1,46.2 78.1,44.5 78.1,42.8 78.1,41.2 78.2,39.6 78.3,38.1 78.4,36.7 78.5,35.3 78.5,34.0 78.5,32.8 78.5,31.7 78.4,30.8 78.3,29.9 78.0,29.2 77.6,28.7 77.1,28.3 76.5,28.1 75.7,28.0 74.8,28.2 73.7,28.5 72.5,29.0 71.1,29.7 69.5,30.7 67.8,31.8 65.9,33.1 63.8,34.6 61.6,36.3 59.4,38.1 57.0,40.1 54.5,42.2 52.0,44.5 49.4,46.9 46.9,49.3 44.3,51.8 41.9,54.4 39.4,56.9 37.1,59.5 34.9,62.1 32.8,64.6 30.9,67.1 29.2,69.5 27.6,71.8 26.3,74.0 25.1,76.0 24.2,78.0 23.5,79.8 23.0,81.4 22.7,82.9 22.6,84.2 22.7,85.4 22.9,86.3 23.3,87.2 23.9,87.8 24.6,88.3 25.4,88.7 26.4,88.9 27.4,88.9 28.5,88.9 29.6,88.7 30.7,88.4 31.9,87.9 33.1,87.4 34.3,86.7 35.5,86.0 36.7,85.1 37.9,84.2 39.0,83.2 40.0,82.0 41.0,80.8 42.0,79.6 42.9,78.2 43.8,76.7 44.6,75.2 45.3,73.6 46.0,71.9 46.6,70.1 47.2,68.3 47.7,66.3 48.1,64.3 48.5,62.3 48.9,60.2 49.2,58.0 49.6,55.8 49.8,53.6 50.1,51.3 50.4,49.1 50.7,46.8 51.1,44.6 51.4,42.4 51.9,40.3 52.4,38.3 52.9,36.4 53.6,34.5 54.3,32.8 55.2,31.3 56.2,29.9 57.3,28.6 58.5,27.6 59.8,26.8 61.3,26.1 62.9,25.7 64.6,25.5 66.3,25.5 68.2,25.7 70.1,26.1 72.1,26.7 74.2,27.5 76.2,28.6 78.2,29.7 80.3,31.1 82.2,32.6 84.2,34.3 86.0,36.0 87.7,37.9 89.3,39.8 90.8,41.9 92.2,43.9 93.3,46.1 94.4,48.2 95.2,50.3 95.9,52.4 96.4,54.5 96.8,56.6 97.0,58.6 97.0,60.6 96.9,62.5 96.6,64.4 96.2,66.1 95.6,67.8 94.9,69.5 94.2,71.0 93.3,72.5 92.3,73.9 91.3,75.2 90.2,76.4 89.0,77.5 87.8,78.6 86.5,79.5 85.2,80.4 83.9,81.2 82.5,82.0 81.1,82.6 79.7,83.1 78.3,83.6 76.9,83.9 75.5,84.1 74.1,84.3 72.8,84.3 71.4,84.2 70.1,83.9 68.8,83.6 67.6,83.1 66.4,82.4 65.3,81.7 64.2,80.8 63.2,79.7 62.3,78.5 61.4,77.2 60.6,75.8 59.8,74.3 59.1,72.6 58.4,70.9 57.8,69.0 57.2,67.1 56.6,65.1 56.1,63.1 55.5,61.0 55.0,59.0 54.4,56.9 53.8,54.9 53.2,52.9 52.5,50.9 51.8,49.1 51.0,47.3 50.1,45.6 49.2,44.1 48.2,42.6 47.2,41.3 46.1,40.2 44.9,39.2 43.7,38.4 42.5,37.7 41.2,37.2 39.9,36.8 38.6,36.6 37.4,36.6 36.1,36.7 34.8,37.0 33.6,37.4 32.5,37.9 31.4,38.5 30.4,39.3 29.5,40.1 28.7,41.1 27.9,42.1 27.3,43.1 26.8,44.3 26.4,45.5 26.1,46.7 25.9,48.0 25.8,49.3 25.9,50.6 26.0,51.9 26.3,53.3 26.6,54.7 27.1,56.0 27.7,57.4 28.4,58.8 29.2,60.1 30.0,61.5 31.0,62.9 32.1,64.2 33.3,65.5 34.6,66.9 36.0,68.1 37.5,69.4 39.0,70.6 40.7,71.8 42.4,73.0 44.1,74.0 46.0,75.1 47.8,76.0 49.8,76.9 51.7,77.7 53.6,78.3 55.6,78.9 57.5,79.4 59.3,79.7 61.2,79.9 62.9,80.0 64.6,80.0 66.3,79.8 67.8,79.4 69.2,79.0 70.5,78.3 71.7,77.6 72.7,76.7 73.7,75.7 74.5,74.5 75.3,73.3 75.9,72.0 76.5,70.5 76.9,69.0 77.3,67.5 77.6,65.9 77.9,64.2 78.1,62.6 78.3,60.9 78.5,59.3 78.7,57.7 78.8,56.1 79.1,54.6 79.3,53.2 79.5,51.8 79.8,50.6 80.2,49.4 80.5,48.3 81.0,47.3 81.4,46.5 81.9,45.7 82.4,45.1 83.0,44.5 83.5,44.1 84.1,43.8 84.7,43.6 85.3,43.5 85.9,43.5 86.5,43.6 87.0,43.8 87.6,44.1 88.1,44.4 88.5,44.9 89.0,45.4 89.3,46.0 89.7,46.6 89.9,47.3 90.1,48.1 90.2,49.0 90.2,49.9 90.2,50.8 90.0,51.8 89.7,52.9 89.3,54.0 88.8,55.2 88.2,56.5 87.4,57.7 86.5,59.1 85.5,60.4 84.3,61.8 82.9,63.2 81.5,64.7 79.8,66.2 78.1,67.6 76.2,69.1 74.1,70.6 72.0,72.0 69.8,73.4 67.4,74.7 65.1,76.0 62.6,77.2 60.2,78.4 57.7,79.4 55.3,80.3 52.9,81.1 50.6,81.8 48.3,82.3 46.2,82.7 44.2,82.9 42.3,83.0 40.5,82.9 39.0,82.6 37.5,82.2 36.3,81.6 35.3,80.9 34.4,80.0 33.7,79.0 33.2,77.8 32.8,76.6 32.6,75.2 32.5,73.7 32.6,72.2 32.7,70.5 33.0,68.9 33.3,67.1 33.7,65.4 34.1,63.6 34.6,61.9 35.1,60.1 35.5,58.4 36.0,56.7 36.4,55.1 36.8,53.6 37.2,52.0 37.5,50.6 37.7,49.2 37.9,48.0 38.1,46.8 38.2,45.6 38.2,44.6 38.1,43.7 38.1,42.8 37.9,42.0 37.7,41.4 37.5,40.7 37.2,40.2 37.0,39.8 36.7,39.5 36.3,39.2 36.0,39.0 35.7,38.9 35.4,38.9 35.2,39.1 35.0,39.3 34.8,39.6 34.7,40.0 34.7,40.5 34.8,41.1 35.0,41.8 35.3,42.7 35.7,43.7 36.3,44.8 37.0,46.0 37.9,47.3 39.0,48.8 40.2,50.3 41.7,52.0 43.2,53.8 45.0,55.7 46.9,57.6 49.0,59.7 51.2,61.7 53.6,63.9 56.1,66.0 58.6,68.2 61.3,70.4 63.9,72.6" class="highlight"/>
  
</svg>