<svg xmlns="http://www.w3.org/2000/svg" viewBox="0 0 120 120" role="img">
  <rect width="120" height="120" rx="10" fill="#f8f7f2"/>
  <style>
    .shadow{fill:none;stroke:#4a4f56;stroke-width:13;stroke-linecap:round;stroke-linejoin:round;opacity:.22}
    .rope{fill:none;stroke:#1778bd;stroke-width:8;stroke-linecap:round;stroke-linejoin:round}
    .highlight{fill:none;stroke:#4fb1f0;stroke-width:2.2;stroke-linecap:round;stroke-linejoin:round;opacity:.85}
  </style>
  
    <polyline points="67.9,77.3 71.1,79.1 74.2,80.8 77.2,82.3 80.0,83.6 82.6,84.7 84.9,85.7 87.0,86.5 88.8,87.0 90.3,87.4 91.6,87.6 92.5,87.7 93.3,87.5 93.7,87.3 93.9,86.8 93.9,86.3 93.7,85.6 93.2,84.8 92.7,83.9 91.9,82.9 91.1,81.8 90.1,80.7 89.1,79.5 88.0,78.2 86.9,76.9 85.7,75.5 84.5,74.0 83.3,72.6 82.1,71.0 80.9,69.4 79.8,67.7 78.6,66.0 77.5,64.2 76.4,62.4 75.3,60.5 74.3,58.6 73.3,56.7 72.4,54.6 71.4,52.6 70.6,50.6 69.7,48.5 68.9,46.4 68.1,44.4 67.4,42.4 66.6,40.5 65.8,38.6 65.0,36.9 64.2,35.2 63.3,33.7 62.4,32.3 61.4,31.1 60.3,30.1 59.1,29.2 57.9,28.6 56.5,28.2 55.0,28.0 53.5,28.0 51.8,28.2 50.1,28.7 48.3,29.4 46.4,30.2 44.5,31.3 42.6,32.6 40.7,34.0 38.8,35.6 36.9,37.3 35.1,39.1 33.4,41.0 31.8,43.0 30.4,45.0 29.1,47.1 27.9,49.2 27.0,51.3 26.2,53.4 25.6,55.4 25.2,57.5 25.0,59.4 24.9,61.4 25.1,63.3 25.4,65.1 26.0,66.8 26.7,68.5 27.5,70.2 28.5,71.7 29.7,73.2 31.0,74.7 32.4,76.1 34.0,77.4 35.7,78.7 37.5,79.9 39.5,81.0 41.5,82.0 43.7,83.0 46.0,83.9 48.3,84.7 50.8,85.5 53.3,86.1 55.8,86.5 58.4,86.9 61.1,87.1 63.7,87.2 66.3,87.1 68.8,86.8 71.2,86.4 73.6,85.7 75.9,84.9 78.0,83.9 79.9,82.8 81.7,81.4 83.3,79.9 84.7,78.2 85.8,76.4 86.8,74.4 87.6,72.3 88.2,70.1 88.6,67.8 88.9,65.5 89.0,63.1 88.9,60.7 88.8,58.3 88.5,56.0 88.2,53.7 87.8,51.4 87.3,49.3 86.9,47.3 86.4,45.4 85.9,43.6 85.5,42.0 85.0,40.5 84.6,39.2 84.2,38.1 83.8,37.1 83.5,36.3 83.1,35.7 82.8,35.2 82.5,34.9 82.2,34.7 81.9,34.6 81.6,34.7 81.2,34.8 80.9,35.1 80.4,35.5 80.0,36.0 79.5,36.6 78.9,37.2 78.2,38.0 77.4,38.8 76.5,39.7 75.5,40.7 74.4,41.8 73.1,42.9 71.7,44.2 70.2,45.5 68.5,46.9 66.6,48.4 64.6,50.0 62.3,51.7 60.0,53.5 57.5,55.4 54.8,57.4 52.0,59.4 49.1,61.5 46.2,63.6 43.2,65.8 40.1,68.1 37.1,70.3 34.2,72.5 31.3,74.7 28.6,76.8 26.0,78.8 23.7,80.8 21.6,82.7 19.7,84.4 18.2,85.9 17.0,87.3 16.1,88.6 15.6,89.6 15.4,90.4 15.5,91.0 16.0,91.4 16.9,91.6 18.0,91.5 19.4,91.2 21.1,90.8 22.9,90.1 25.0,89.2 27.2,88.2 29.5,87.0 31.8,85.7 34.2,84.2 36.6,82.7 39.0,81.0 41.4,79.3 43.6,77.5 45.8,75.6 47.9,73.7 49.9,71.8 51.7,69.9 53.4,68.0 55.0,66.1 56.4,64.2 57.8,62.4 59.0,60.5 60.1,58.7 61.2,56.9 62.1,55.1 63.0,53.4 63.8,51.6 64.6,49.9 65.4,48.3 66.1,46.6 66.8,45.0 67.6,43.4 68.3,41.9 69.2,40.4 70.0,39.0 70.9,37.6 71.9,36.3 73.0,35.1 74.1,34.1 75.4,33.1 76.7,32.3 78.1,31.6 79.6,31.0 81.2,30.7 82.8,30.5 84.5,30.5 86.2,30.7 88.0,31.1 89.7,31.7 91.4,32.5 93.0,33.6 94.5,34.8 95.9,36.2 97.1,37.7 98.1,39.5 98.9,41.4 99.5,43.4 99.8,45.5 99.9,47.7 99.6,50.0 99.1,52.3 98.3,54.7 97.2,57.0 95.8,59.3 94.1,61.6 92.2,63.8 90.1,66.0 87.8,68.0 85.3,70.0 82.7,71.8 79.9,73.5 77.1,75.1 74.3,76.5 71.4,77.8 68.5,79.0 65.7,80.1 62.9,81.0 60.1,81.8 57.5,82.4 54.9,83.0 52.5,83.4 50.1,83.8 47.9,84.0 45.8,84.1 43.8,84.2 42.0,84.1 40.3,84.0 38.7,83.8 37.2,83.5 35.9,83.0 34.7,82.5 33.6,81.9 32.7,81.1 31.9,80.3 31.2,79.3 30.7,78.2 30.3,77.0 30.0,75.7 29.9,74.2 29.9,72.6 30.0,70.8 30.2,69.0 30.5,67.1 30.9,65.0 31.4,62.9 32.0,60.6 32.6,58.4 33.2,56.1 33.9,53.7 34.6,51.4 35.3,49.1 36.0,46.8 36.7,44.7 37.3,42.6 38.0,40.6 38.7,38.7 39.3,37.0 40.0,35.4 40.6,34.1 41.3,32.9 42.0,31.9 42.7,31.1 43.5,30.6 44.4,30.2 45.3,30.0 46.3,30.1 47.4,30.3 48.5,30.7 49.8,31.3 51.1,32.1 52.5,33.0 54.0,34.0 55.6,35.2 57.3,36.5 59.0,37.8 60.8,39.2 62.7,40.7 64.6,42.3 66.6,43.9 68.5,45.5 70.5,47.2 72.5,48.9 74.5,50.6 76.6,52.4 78.6,54.1 80.6,55.9 82.5,57.7 84.5,59.5 86.3,61.3 88.1,63.1 89.9,65.0 91.5,66.8 93.0,68.7 94.4,70.6 95.7,72.4 96.8,74.3 97.6,76.1 98.3,77.9 98.7,79.6 98.9,81.3 98.9,82.9 98.5,84.4 97.9,85.8 97.0,87.1 95.9,88.2 94.4,89.2 92.7,90.0 90.8,90.6 88.6,91.1 86.2,91.3 83.7,91.3 81.1,91.1 78.3,90.7 75.5,90.0 72.7,89.2 69.9,88.1 67.1,86.8 64.4,85.4 61.8,83.8 59.4,82.1 57.1,80.2 55.0,78.2 53.1,76.1 51.3,73.9 49.8,71.7 48.4,69.5 47.3,67.2 46.3,65.0 45.4,62.8 44.8,60.6 44.2,58.5 43.8,56.5 43.5,54.5 43.2,52.6 43.0,50.9 42.8,49.2 42.7,47.6 42.5,46.1 42.4,44.7 42.2,43.5 42.0,42.3 41.7,41.2 41.4,40.2 41.0,39.3 40.6,38.4 40.1,37.7 39.6,37.0 38.9,36.5 38.3,36.0 37.5,35.6 36.8,35.3 36.0,35.1 35.1,35.0 34.3,35.0 33.5,35.2 32.7,35.4 32.0,35.8 31.4,36.4 30.8,37.1 30.4,37.9 30.1,38.9 30.1,40.1 30.2,41.4 30.5,42.9 31.1,44.6 32.0,46.3 33.1,48.3 34.5,50.3 36.2,52.4 38.1,54.7 40.4,57.0 42.8,59.3 45.5,61.7 48.4,64.1 51.4,66.5 54.6,68.8 57.9,71.1 61.2,73.2 64.6,75.3 67.9,77.3" class="shadow"/>
    <polyline points="67.9,77.3 71.1,79.1 74.2,80.8 77.2,82.3 80.0,83.6 82.6,84.7 84.9,85.7 87.0,86.5 88.8,87.0 90.3,87.4 91.6,87.6 92.5,87.7 93.3,87.5 93.7,87.3 93.9,86.8 93.9,86.3 93.7,85.6 93.2,84.8 92.7,83.9 91.9,82.9 91.1,81.8 90.1,80.7 89.1,79.5 88.0,78.2 86.9,76.9 85.7,75.5 84.5,74.0 83.3,72.6 82.1,71.0 80.9,69.4 79.8,67.7 78.6,66.0 77.5,64.2 76.4,62.4 75.3,60.5 74.3,58.6 73.3,56.7 72.4,54.6 71.4,52.6 70.6,50.6 69.7,48.5 68.9,46.4 68.1,44.4 67.4,42.4 66.6,40.5 65.8,38.6 65.0,36.9 64.2,35.2 63.3,33.7 62.4,32.3 61.4,31.1 60.3,30.1 59.1,29.2 57.9,28.6 56.5,28.2 55.0,28.0 53.5,28.0 51.8,28.2 50.1,28.7 48.3,29.4 46.4,30.2 44.5,31.3 42.6,32.6 40.7,34.0 38.8,35.6 36.9,37.3 35.1,39.1 33.4,41.0 31.8,43.0 30.4,45.0 29.1,47.1 27.9,49.2 27.0,51.3 26.2,53.4 25.6,55.4 25.2,57.5 25.0,59.4 24.9,61.4 25.1,63.3 25.4,65.1 26.0,66.8 26.7,68.5 27.5,70.2 28.5,71.7 29.7,73.2 31.0,74.7 32.4,76.1 34.0,77.4 35.7,78.7 37.5,79.9 39.5,81.0 41.5,82.0 43.7,83.0 46.0,83.9 48.3,84.7 50.8,85.5 53.3,86.1 55.8,86.5 58.4,86.9 61.1,87.1 63.7,87.2 66.3,87.1 68.8,86.8 71.2,86.4 73.6,85.7 75.9,84.9 78.0,83.9 79.9,82.8 81.7,81.4 83.3,79.9 84.7,78.2 85.8,76.4 86.8,74.4 87.6,72.3 88.2,70.1 88.6,67.8 88.9,65.5 89.0,63.1 88.9,60.7 88.8,58.3 88.5,56.0 88.2,53.7 87.8,51.4 87.3,49.3 86.9,47.3 86.4,45.4 85.9,43.6 85.5,42.0 85.0,40.5 84.6,39.2 84.2,38.1 83.8,37.1 83.5,36.3 83.1,35.7 82.8,35.2 82.5,34.9 82.2,34.7 81.9,34.6 81.6,34.7 81.2,34.8 80.9,35.1 80.4,35.5 80.0,36.0 79.5,36.6 78.9,37.2 78.2,38.0 77.4,38.8 76.5,39.7 75.5,40.7 74.4,41.8 73.1,42.9 71.7,44.2 70.2,45.5 68.5,46.9 66.6,48.4 64.6,50.0 62.3,51.7 60.0,53.5 57.5,55.4 54.8,57.4 52.0,59.4 49.1,61.5 46.2,63.6 43.2,65.8 40.1,68.1 37.1,70.3 34.2,72.5 31.3,74.7 28.6,76.8 26.0,78.8 23.7,80.8 21.6,82.7 19.7,84.4 18.2,85.9 17.0,87.3 16.1,88.6 15.6,89.6 15.4,90.4 15.5,91.0 16.0,91.4 16.9,91.6 18.0,91.5 19.4,91.2 21.1,90.8 22.9,90.1 25.0,89.2 27.2,88.2 29.5,87.0 31.8,85.7 34.2,84.2 36.6,82.7 39.0,81.0 41.4,79.3 43.6,77.5 45.8,75.6 47.9,73.7 49.9,71.8 51.7,69.9 53.4,68.0 55.0,66.1 56.4,64.2 57.8,62.4 59.0,60.5 60.1,58.7 61.2,56.9 62.1,55.1 63.0,53.4 63.8,51.6 64.6,49.9 65.4,48.3 66.1,46.6 66.8,45.0 67.6,43.4 68.3,41.9 69.2,40.4 70.0,39.0 70.9,37.6 71.9,36.3 73.0,35.1 74.1,34.1 75.4,33.1 76.7,32.3 78.1,31.6 79.6,31.0 81.2,30.7 82.8,30.5 84.5,30.5 86.2,30.7 88.0,31.1 89.7,31.7 91.4,32.5 93.0,33.6 94.5,34.8 95.9,36.2 97.1,37.7 98.1,39.5 98.9,41.4 99.5,43.4 99.8,45.5 99.9,47.7 99.6,50.0 99.1,52.3 98.3,54.7 97.2,57.0 95.8,59.3 94.1,61.6 92.2,63.8 90.1,66.0 87.8,68.0 85.3,70.0 82.7,71.8 79.9,73.5 77.1,75.1 74.3,76.5 71.4,77.8 68.5,79.0 65.7,80.1 62.9,81.0 60.1,81.8 57.5,82.4 54.9,83.0 52.5,83.4 50.1,83.8 47.9,84.0 45.8,84.1 43.8,84.2 42.0,84.1 40.3,84.0 38.7,83.8 37.2,83.5 35.9,83.0 34.7,82.5 33.6,81.9 32.7,81.1 31.9,80.3 31.2,79.3 30.7,78.2 30.3,77.0 30.0,75.7 29.9,74.2 29.9,72.6 30.0,70.8 30.2,69.0 30.5,67.1 30.9,65.0 31.4,62.9 32.0,60.6 32.6,58.4 33.2,56.1 33.9,53.7 34.6,51.4 35.3,49.1 36.0,46.8 36.7,44.7 37.3,42.6 38.0,40.6 38.7,38.7 39.3,37.0 40.0,35.4 40.6,34.1 41.3,32.9 42.0,31.9 42.7,31.1 43.5,30.6 44.4,30.2 45.3,30.0 46.3,30.1 47.4,30.3 48.5,30.7 49.8,31.3 51.1,32.1 52.5,33.0 54.0,34.0 55.6,35.2 57.3,36.5 59.0,37.8 60.8,39.2 62.7,40.7 64.6,42.3 66.6,43.9 68.5,45.5 70.5,47.2 72.5,48.9 74.5,50.6 76.6,52.4 78.6,54.1 80.6,55.9 82.5,57.7 84.5,59.5 86.3,61.3 88.1,63.1 89.9,65.0 91.5,66.8 93.0,68.7 94.4,70.6 95.7,72.4 96.8,74.3 97.6,76.1 98.3,77.9 98.7,79.6 98.9,81.3 98.9,82.9 98.5,84.4 97.9,85.8 97.0,87.1 95.9,88.2 94.4,89.2 92.7,90.0 90.8,90.6 88.6,91.1 86.2,91.3 83.7,91.3 81.1,91.1 78.3,90.7 75.5,90.0 72.7,89.2 69.9,88.1 67.1,86.8 64.4,85.4 61.8,83.8 59.4,82.1 57.1,80.2 55.0,78.2 53.1,76.1 51.3,73.9 49.8,71.7 48.4,69.5 47.3,67.2 46.3,65.0 45.4,62.8 44.8,60.6 44.2,58.5 43.8,56.5 43.5,54.5 43.2,52.6 43.0,50.9 42.8,49.2 42.7,47.6 42.5,46.1 42.4,44.7 42.2,43.5 42.0,42.3 41.7,41.2 41.4,40.2 41.0,39.3 40.6,38.4 40.1,37.7 39.6,37.0 38.9,36.5 38.3,36.0 37.5,35.6 36.8,35.3 36.0,35.1 35.1,35.0 34.3,35.0 33.5,35.2 32.7,35.4 32.0,35.8 31.4,36.4 30.8,37.1 30.4,37.9 30.1,38.9 30.1,40.1 30.2,41.4 30.5,42.9 31.1,44.6 32.0,46.3 33.1,48.3 34.5,50.3 36.2,52.4 38.1,54.7 40.4,57.0 42.8,59.3 45.5,61.7 48.4,64.1 51.4,66.5 54.6,68.8 57.9,71.1 61.2,73.2 64.6,75.3 67.9,77.3" class="rope"/>
    <rect x="60.0" y="43.8" width="20" height="6" rx="3" transform="rotate(110.0 70.0 46.8)" fill="#f8f7f2"/><rect x="85.0" y="43.8" width="20" height="6" rx="3" transform="rotate(140.0 95.0 46.8)" fill="#f8f7f2"/><rect x="61.7" y="43.8" width="20" height="6" rx="3" transform="rotate(170.0 71.7 46.8)" fill="#f8f7f2"/><rect x="22.2" y="43.8" width="20" height="6" rx="3" transform="rotate(20.0 32.2 46.8)" fill="#f8f7f2"/><rect x="21.2" y="43.8" width="20" height="6" rx="3" transform="rotate(50.0 31.2 46.8)" fill="#f8f7f2"/>
    <polyline points="67.9,77.3 71.1,79.1 74.2,80.8 77.2,82.3 80.0,83.6 82.6,84.7 84.9,85.7 87.0,86.5 88.8,87.0 90.3,87.4 91.6,87.6 92.5,87.7 93.3,87.5 93.7,87.3 93.9,86.8 93.9,86.3 93.7,85.6 93.2,84.8 92.7,83.9 91.9,82.9 91.1,81.8 90.1,80.7 89.1,79.5 88.0,78.2 86.9,76.9 85.7,75.5 84.5,74.0 83.3,72.6 82.1,71.0 80.9,69.4 79.8,67.7 78.6,66.0 77.5,64.2 76.4,62.4 75.3,60.5 74.3,58.6 73.3,56.7 72.4,54.6 71.4,52.6 70.6,50.6 69.7,48.5 68.9,46.4 68.1,44.4 67.4,42.4 66.6,40.5 65.8,38.6 65.0,36.9 64.2,35.2 63.3,33.7 62.4,32.3 61.4,31.1 60.3,30.1 59.1,29.2 57.9,28.6 56.5,28.2 55.0,28.0 53.5,28.0 51.8,28.2 50.1,28.7 48.3,29.4 46.4,30.2 44.5,31.3 42.6,32.6 40.7,34.0 38.8,35.6 36.9,37.3 35.1,39.1 33.4,41.0 31.8,43.0 30.4,45.0 29.1,47.1 27.9,49.2 27.0,51.3 26.2,53.4 25.6,55.4 25.2,57.5 25.0,59.4 24.9,61.4 25.1,63.3 25.4,65.1 26.0,66.8 26.7,68.5 27.5,70.2 28.5,71.7 29.7,73.2 31.0,74.7 32.4,76.1 34.0,77.4 35.7,78.7 37.5,79.9 39.5,81.0 41.5,82.0 43.7,83.0 46.0,83.9 48.3,84.7 50.8,85.5 53.3,86.1 55.8,86.5 58.4,86.9 61.1,87.1 63.7,87.2 66.3,87.1 68.8,86.8 71.2,86.4 73.6,85.7 75.9,84.9 78.0,83.9 79.9,82.8 81.7,81.4 83.3,79.9 84.7,78.2 85.8,76.4 86.8,74.4 87.6,72.3 88.2,70.1 88.6,67.8 88.9,65.5 89.0,63.1 88.9,60.7 88.8,58.3 88.5,56.0 88.2,53.7 87.8,51.4 87.3,49.3 86.9,47.3 86.4,45.4 85.9,43.6 85.5,42.0 85.0,40.5 84.6,39.2 84.2,38.1 83.8,37.1 83.5,36.3 83.1,35.7 82.8,35.2 82.5,34.9 82.2,34.7 81.9,34.6 81.6,34.7 81.2,34.8 80.9,35.1 80.4,35.5 80.0,36.0 79.5,36.6 78.9,37.2 78.2,38.0 77.4,38.8 76.5,39.7 75.5,40.7 74.4,41.8 73.1,42.9 71.7,44.2 70.2,45.5 68.5,46.9 66.6,48.4 64.6,50.0 62.3,51.7 60.0,53.5 57.5,55.4 54.8,57.4 52.0,59.4 49.1,61.5 46.2,63.6 43.2,65.8 40.1,68.1 37.1,70.3 34.2,72.5 31.3,74.7 28.6,76.8 26.0,78.8 23.7,80.8 21.6,82.7 19.7,84.4 18.2,85.9 17.0,87.3 16.1,88.6 15.6,89.6 15.4,90.4 15.5,91.0 16.0,91.4 16.9,91.6 18.0,91.5 19.4,91.2 21.1,90.8 22.9,90.1 25.0,89.2 27.2,88.2 29.5,87.0 31.8,85.7 34.2,84.2 36.6,82.7 39.0,81.0 41.4,79.3 43.6,77.5 45.8,75.6 47.9,73.7 49.9,71.8 51.7,69.9 53.4,68.0 55.0,66.1 56.4,64.2 57.8,62.4 59.0,60.5 60.1,58.7 61.2,56.9 62.1,55.1 63.0,53.4 63.8,51.6 64.6,49.9 65.4,48.3 66.1,46.6 66.8,45.0 67.6,43.4 68.3,41.9 69.2,40.4 70.0,39.0 70.9,37.6 71.9,36.3 73.0,35.1 74.1,34.1 75.4,33.1 76.7,32.3 78.1,31.6 79.6,31.0 81.2,30.7 82.8,30.5 84.5,30.5 86.2,30.7 88.0,31.1 89.7,31.7 91.4,32.5 93.0,33.6 94.5,34.8 95.9,36.2 97.1,37.7 98.1,39.5 98.9,41.4 99.5,43.4 99.8,45.5 99.9,47.7 99.6,50.0 99.1,52.3 98.3,54.7 97.2,57.0 95.8,59.3 94.1,61.6 92.2,63.8 90.1,66.0 87.8,68.0 85.3,70.0 82.7,71.8 79.9,73.5 77.1,75.1 74.3,76.5 71.4,77.8 68.5,79.0 65.7,80.1 62.9,81.0 60.1,81.8 57.5,82.4 54.9,83.0 52.5,83.4 50.1,83.8 47.9,84.0 45.8,84.1 43.8,84.2 42.0,84.1 40.3,84.0 38.7,83.8 37.2,83.5 35.9,83.0 34.7,82.5 33.6,81.9 32.7,81.1 31.9,80.3 31.2,79.3 30.7,78.2 30.3,77.0 30.0,75.7 29.9,74.2 29.9,72.6 30.0,70.8 30.2,69.0 30.5,67.1 30.9,65.0 31.4,62.9 32.0,60.6 32.6,58.4 33.2,56.1 33.9,53.7 34.6,51.4 35.3,49.1 36.0,46.8 36.7,44.7 37.3,42.6 38.0,40.6 38.7,38.7 39.3,37.0 40.0,35.4 40.6,34.1 41.3,32.9 42.0,31.9 42.7,31.1 43.5,30.6 44.4,30.2 45.3,30.0 46.3,30.1 47.4,30.3 48.5,30.7 49.8,31.3 51.1,32.1 52.5,33.0 54.0,34.0 55.6,35.2 57.3,36.5 59.0,37.8 60.8,39.2 62.7,40.7 64.6,42.3 66.6,43.9 68.5,45.5 70.5,47.2 72.5,48.9 74.5,50.6 76.6,52.4 78.6,54.1 80.6,55.9 82.5,57.7 84.5,59.5 86.3,61.3 88.1,63.1 89.9,65.0 91.5,66.8 93.0,68.7 94.4,70.6 95.7,72.4 96.8,74.3 97.6,76.1 98.3,77.9 98.7,79.6 98.9,81.3 98.9,82.9 98.5,84.4 97.9,85.8 97.0,87.1 95.9,88.2 94.4,89.2 92.7,90.0 90.8,90.6 88.6,91.1 86.2,91.3 83.7,91.3 81.1,91.1 78.3,90.7 75.5,90.0 72.7,89.2 69.9,88.1 67.1,86.8 64.4,85.4 61.8,83.8 59.4,82.1 57.1,80.2 55.0,78.2 53.1,76.1 51.3,73.9 49.8,71.7 48.4,69.5 47.3,67.2 46.3,65.0 45.4,62.8 44.8,60.6 44.2,58.5 43.8,56.5 43.5,54.5 43.2,52.6 43.0,50.9 42.8,49.2 42.7,47.6 42.5,46.1 42.4,44.7 42.2,43.5 42.0,42.3 41.7,41.2 41.4,40.2 41.0,39.3 40.6,38.4 40.1,37.7 39.6,37.0 38.9,36.5 38.3,36.0 37.5,35.6 36.8,35.3 36.0,35.1 35.1,35.0 34.3,35.0 33.5,35.2 32.7,35.4 32.0,35.8 31.4,36.4 30.8,37.1 30.4,37.9 30.1,38.9 30.1,40.1 30.2,41.4 30.5,42.9 31.1,44.6 32.0,46.3 33.1,48.3 34.5,50.3 36.2,52.4 38.1,54.7 40.4,57.0 42.8,59.3 45.5,61.7 48.4,64.1 51.4,66.5 54.6,68.8 57.9,71.1 61.2,73.2 64.6,75.3 67.9,77.3" class="highlight"/>
  
</svg>