<svg xmlns="http://www.w3.org/2000/svg" viewBox="0 0 120 120" role="img">
  <rect width="120" height="120" rx="10" fill="#f8f7f2"/>
  <style>
    .shadow{fill:none;stroke:#4a4f56;stroke-width:13;stroke-linecap:round;stroke-linejoin:round;opacity:.22}
    .rope{fill:none;stroke:#1778bd;stroke-width:8;stroke-linecap:round;stroke-linejoin:round}
    .highlight{fill:none;stroke:#4fb1f0;stroke-width:2.2;stroke-linecap:round;stroke-linejoin:round;opacity:.85}
  </style>
  
    <polyline points="63.9,72.6 66.6,74.7 69.3,76.7 72.0,78.7 74.6,80.6 77.1,82.4 79.5,84.0 81.8,85.5 83.8,86.8 85.7,87.9 87.4,88.8 88.9,89.6 90.2,90.1 91.3,90.5 92.1,90.6 92.7,90.5 93.1,90.3 93.2,89.9 93.2,89.3 93.1,88.5 92.7,87.6 92.2,86.6 91.6,85.4 91.0,84.2 90.2,82.8 89.4,81.4 88.5,79.8 87.6,78.3 86.7,76.7 85.8,75.0 85.0,73.3 84.2,71.6 83.4,69.8 82.7,68.0 82.0,66.3 81.4,64.4 80.9,62.6 80.4,60.7 80.0,58.9 79.7,57.0 79.5,55.1 79.3,53.1 79.2,51.2 79.2,49.2 79.2,47.3 79.3,45.3 79.4,43.3 79.6,41.4 79.8,39.5 80.0,37.7 80.2,35.9 80.4,34.2 80.5,32.5 80.7,31.0 80.7,29.7 80.7,28.4 80.6,27.4 80.4,26.5 80.0,25.8 79.5,25.3 78.9,25.0 78.1,25.0 77.1,25.2 76.0,25.6 74.7,26.2 73.3,27.1 71.6,28.2 69.9,29.5 68.0,31.0 66.0,32.6 63.8,34.4 61.6,36.4 59.4,38.5 57.1,40.7 54.7,43.0 52.4,45.4 50.2,47.7 47.9,50.1 45.8,52.6 43.7,54.9 41.7,57.3 39.9,59.6 38.1,61.8 36.5,64.0 35.1,66.1 33.8,68.1 32.6,70.0 31.6,71.8 30.7,73.5 29.9,75.1 29.2,76.6 28.7,78.1 28.3,79.4 28.0,80.7 27.8,81.9 27.6,83.0 27.6,84.0 27.6,85.0 27.8,85.8 27.9,86.6 28.2,87.3 28.6,87.9 29.0,88.4 29.4,88.8 30.0,89.1 30.6,89.2 31.3,89.3 32.0,89.2 32.8,88.9 33.6,88.5 34.4,87.9 35.3,87.1 36.3,86.2 37.2,85.1 38.1,83.8 39.1,82.3 40.0,80.7 40.9,78.9 41.7,76.9 42.6,74.8 43.4,72.6 44.1,70.2 44.8,67.8 45.5,65.3 46.1,62.8 46.7,60.2 47.3,57.6 47.8,55.1 48.3,52.6 48.9,50.2 49.4,47.9 49.9,45.7 50.5,43.6 51.0,41.6 51.7,39.9 52.3,38.2 53.1,36.8 53.8,35.5 54.7,34.5 55.6,33.6 56.6,32.9 57.6,32.3 58.7,32.0 59.9,31.8 61.1,31.7 62.4,31.8 63.7,32.0 65.1,32.4 66.5,32.8 68.0,33.4 69.4,34.1 71.0,34.8 72.5,35.7 74.1,36.6 75.8,37.5 77.4,38.6 79.0,39.7 80.7,40.9 82.4,42.1 84.1,43.5 85.8,44.8 87.4,46.3 89.1,47.8 90.7,49.5 92.2,51.2 93.7,52.9 95.1,54.7 96.4,56.7 97.6,58.6 98.6,60.6 99.5,62.7 100.2,64.8 100.8,66.9 101.1,69.1 101.3,71.2 101.2,73.3 100.9,75.3 100.4,77.3 99.7,79.2 98.8,81.0 97.7,82.7 96.4,84.3 94.9,85.7 93.2,86.9 91.5,88.0 89.6,88.9 87.6,89.5 85.6,90.0 83.5,90.2 81.4,90.3 79.4,90.1 77.4,89.8 75.4,89.3 73.5,88.5 71.7,87.6 70.0,86.6 68.4,85.4 66.9,84.1 65.6,82.7 64.3,81.2 63.2,79.6 62.2,77.9 61.3,76.2 60.5,74.5 59.8,72.8 59.2,71.0 58.7,69.3 58.2,67.5 57.7,65.8 57.3,64.1 56.9,62.4 56.5,60.8 56.1,59.2 55.7,57.6 55.3,56.1 54.8,54.6 54.3,53.2 53.8,51.7 53.1,50.3 52.4,49.0 51.7,47.7 50.8,46.4 49.8,45.2 48.8,44.0 47.6,42.9 46.3,41.8 45.0,40.8 43.5,39.9 41.9,39.1 40.3,38.4 38.5,37.8 36.7,37.3 34.9,37.0 33.0,36.8 31.1,36.7 29.2,36.8 27.3,37.1 25.5,37.5 23.7,38.1 22.1,38.8 20.6,39.7 19.2,40.7 18.1,41.9 17.1,43.2 16.4,44.6 15.8,46.1 15.6,47.8 15.6,49.5 15.8,51.2 16.3,53.0 17.0,54.8 18.0,56.6 19.2,58.4 20.7,60.2 22.3,61.9 24.1,63.5 26.0,65.1 28.1,66.6 30.3,68.0 32.5,69.3 34.8,70.5 37.1,71.6 39.4,72.6 41.7,73.4 44.0,74.2 46.2,74.8 48.4,75.3 50.4,75.8 52.4,76.1 54.3,76.3 56.1,76.5 57.8,76.5 59.5,76.5 61.0,76.4 62.4,76.2 63.7,76.0 65.0,75.7 66.1,75.3 67.2,74.9 68.2,74.4 69.1,73.8 70.0,73.1 70.8,72.4 71.6,71.6 72.3,70.7 72.9,69.7 73.5,68.7 74.1,67.5 74.6,66.3 75.2,65.1 75.7,63.7 76.2,62.3 76.7,60.9 77.2,59.4 77.7,57.8 78.2,56.3 78.8,54.7 79.4,53.2 80.1,51.6 80.8,50.1 81.5,48.7 82.3,47.3 83.2,46.0 84.0,44.8 85.0,43.7 85.9,42.7 86.9,41.9 87.9,41.2 88.8,40.6 89.8,40.2 90.7,40.0 91.5,39.9 92.3,40.0 93.1,40.2 93.7,40.5 94.2,41.0 94.6,41.6 94.9,42.4 95.1,43.2 95.1,44.2 95.0,45.2 94.7,46.3 94.3,47.5 93.8,48.7 93.1,49.9 92.4,51.2 91.5,52.5 90.5,53.8 89.4,55.1 88.2,56.5 86.9,57.8 85.5,59.1 84.1,60.4 82.6,61.7 81.0,63.0 79.4,64.2 77.7,65.5 75.9,66.7 74.1,68.0 72.3,69.2 70.4,70.4 68.4,71.5 66.4,72.7 64.3,73.7 62.3,74.8 60.2,75.8 58.0,76.8 55.9,77.7 53.8,78.5 51.7,79.2 49.6,79.8 47.6,80.3 45.7,80.7 43.8,81.0 42.0,81.1 40.3,81.1 38.8,81.0 37.4,80.7 36.1,80.2 35.0,79.5 34.0,78.7 33.2,77.8 32.6,76.7 32.1,75.5 31.8,74.1 31.6,72.6 31.5,71.0 31.5,69.3 31.7,67.6 31.9,65.7 32.2,63.9 32.6,62.0 33.0,60.1 33.4,58.3 33.8,56.5 34.3,54.7 34.7,53.0 35.1,51.3 35.4,49.8 35.8,48.3 36.0,46.9 36.3,45.7 36.4,44.5 36.6,43.5 36.7,42.6 36.7,41.8 36.7,41.1 36.7,40.5 36.6,40.0 36.5,39.6 36.4,39.3 36.3,39.1 36.1,39.0 35.9,38.9 35.8,39.0 35.6,39.1 35.5,39.3 35.4,39.6 35.3,40.0 35.3,40.5 35.4,41.0 35.5,41.6 35.7,42.4 36.0,43.2 36.4,44.2 37.0,45.2 37.7,46.4 38.5,47.7 39.5,49.0 40.7,50.6 42.0,52.2 43.6,53.9 45.2,55.7 47.1,57.7 49.1,59.7 51.3,61.7 53.6,63.9 56.1,66.0 58.6,68.2 61.3,70.4 63.9,72.6" class="shadow"/>
    <polyline points="63.9,72.6 66.6,74.7 69.3,76.7 72.0,78.7 74.6,80.6 77.1,82.4 79.5,84.0 81.8,85.5 83.8,86.8 85.7,87.9 87.4,88.8 88.9,89.6 90.2,90.1 91.3,90.5 92.1,90.6 92.7,90.5 93.1,90.3 93.2,89.9 93.2,89.3 93.1,88.5 92.7,87.6 92.2,86.6 91.6,85.4 91.0,84.2 90.2,82.8 89.4,81.4 88.5,79.8 87.6,78.3 86.7,76.7 85.8,75.0 85.0,73.3 84.2,71.6 83.4,69.8 82.7,68.0 82.0,66.3 81.4,64.4 80.9,62.6 80.4,60.7 80.0,58.9 79.7,57.0 79.5,55.1 79.3,53.1 79.2,51.2 79.2,49.2 79.2,47.3 79.3,45.3 79.4,43.3 79.6,41.4 79.8,39.5 80.0,37.7 80.2,35.9 80.4,34.2 80.5,32.5 80.7,31.0 80.7,29.7 80.7,28.4 80.6,27.4 80.4,26.5 80.0,25.8 79.5,25.3 78.9,25.0 78.1,25.0 77.1,25.2 76.0,25.6 74.7,26.2 73.3,27.1 71.6,28.2 69.9,29.5 68.0,31.0 66.0,32.6 63.8,34.4 61.6,36.4 59.4,38.5 57.1,40.7 54.7,43.0 52.4,45.4 50.2,47.7 47.9,50.1 45.8,52.6 43.7,54.9 41.7,57.3 39.9,59.6 38.1,61.8 36.5,64.0 35.1,66.1 33.8,68.1 32.6,70.0 31.6,71.8 30.7,73.5 29.9,75.1 29.2,76.6 28.7,78.1 28.3,79.4 28.0,80.7 27.8,81.9 27.6,83.0 27.6,84.0 27.6,85.0 27.8,85.8 27.9,86.6 28.2,87.3 28.6,87.9 29.0,88.4 29.4,88.8 30.0,89.1 30.6,89.2 31.3,89.3 32.0,89.2 32.8,88.9 33.6,88.5 34.4,87.9 35.3,87.1 36.3,86.2 37.2,85.1 38.1,83.8 39.1,82.3 40.0,80.7 40.9,78.9 41.7,76.9 42.6,74.8 43.4,72.6 44.1,70.2 44.8,67.8 45.5,65.3 46.1,62.8 46.7,60.2 47.3,57.6 47.8,55.1 48.3,52.6 48.9,50.2 49.4,47.9 49.9,45.7 50.5,43.6 51.0,41.6 51.7,39.9 52.3,38.2 53.1,36.8 53.8,35.5 54.7,34.5 55.6,33.6 56.6,32.9 57.6,32.3 58.7,32.0 59.9,31.8 61.1,31.7 62.4,31.8 63.7,32.0 65.1,32.4 66.5,32.8 68.0,33.4 69.4,34.1 71.0,34.8 72.5,35.7 74.1,36.6 75.8,37.5 77.4,38.6 79.0,39.7 80.7,40.9 82.4,42.1 84.1,43.5 85.8,44.8 87.4,46.3 89.1,47.8 90.7,49.5 92.2,51.2 93.7,52.9 95.1,54.7 96.4,56.7 97.6,58.6 98.6,60.6 99.5,62.7 100.2,64.8 100.8,66.9 101.1,69.1 101.3,71.2 101.2,73.3 100.9,75.3 100.4,77.3 99.7,79.2 98.8,81.0 97.7,82.7 96.4,84.3 94.9,85.7 93.2,86.9 91.5,88.0 89.6,88.9 87.6,89.5 85.6,90.0 83.5,90.2 81.4,90.3 79.4,90.1 77.4,89.8 75.4,89.3 73.5,88.5 71.7,87.6 70.0,86.6 68.4,85.4 66.9,84.1 65.6,82.7 64.3,81.2 63.2,79.6 62.2,77.9 61.3,76.2 60.5,74.5 59.8,72.8 59.2,71.0 58.7,69.3 58.2,67.5 57.7,65.8 57.3,64.1 56.9,62.4 56.5,60.8 56.1,59.2 55.7,57.6 55.3,56.1 54.8,54.6 54.3,53.2 53.8,51.7 53.1,50.3 52.4,49.0 51.7,47.7 50.8,46.4 49.8,45.2 48.8,44.0 47.6,42.9 46.3,41.8 45.0,40.8 43.5,39.9 41.9,39.1 40.3,38.4 38.5,37.8 36.7,37.3 34.9,37.0 33.0,36.8 31.1,36.7 29.2,36.8 27.3,37.1 25.5,37.5 23.7,38.1 22.1,38.8 20.6,39.7 19.2,40.7 18.1,41.9 17.1,43.2 16.4,44.6 15.8,46.1 15.6,47.8 15.6,49.5 15.8,51.2 16.3,53.0 17.0,54.8 18.0,56.6 19.2,58.4 20.7,60.2 22.3,61.9 24.1,63.5 26.0,65.1 28.1,66.6 30.3,68.0 32.5,69.3 34.8,70.5 37.1,71.6 39.4,72.6 41.7,73.4 44.0,74.2 46.2,74.8 48.4,75.3 50.4,75.8 52.4,76.1 54.3,76.3 56.1,76.5 57.8,76.5 59.5,76.5 61.0,76.4 62.4,76.2 63.7,76.0 65.0,75.7 66.1,75.3 67.2,74.9 68.2,74.4 69.1,73.8 70.0,73.1 70.8,72.4 71.6,71.6 72.3,70.7 72.9,69.7 73.5,68.7 74.1,67.5 74.6,66.3 75.2,65.1 75.7,63.7 76.2,62.3 76.7,60.9 77.2,59.4 77.7,57.8 78.2,56.3 78.8,54.7 79.4,53.2 80.1,51.6 80.8,50.1 81.5,48.7 82.3,47.3 83.2,46.0 84.0,44.8 85.0,43.7 85.9,42.7 86.9,41.9 87.9,41.2 88.8,40.6 89.8,40.2 90.7,40.0 91.5,39.9 92.3,40.0 93.1,40.2 93.7,40.5 94.2,41.0 94.6,41.6 94.9,42.4 95.1,43.2 95.1,44.2 95.0,45.2 94.7,46.3 94.3,47.5 93.8,48.7 93.1,49.9 92.4,51.2 91.5,52.5 90.5,53.8 89.4,55.1 88.2,56.5 86.9,57.8 85.5,59.1 84.1,60.4 82.6,61.7 81.0,63.0 79.4,64.2 77.7,65.5 75.9,66.7 74.1,68.0 72.3,69.2 70.4,70.4 68.4,71.5 66.4,72.7 64.3,73.7 62.3,74.8 60.2,75.8 58.0,76.8 55.9,77.7 53.8,78.5 51.7,79.2 49.6,79.8 47.6,80.3 45.7,80.7 43.8,81.0 42.0,81.1 40.3,81.1 38.8,81.0 37.4,80.7 36.1,80.2 35.0,79.5 34.0,78.7 33.2,77.8 32.6,76.7 32.1,75.5 31.8,74.1 31.6,72.6 31.5,71.0 31.5,69.3 31.7,67.6 31.9,65.7 32.2,63.9 32.6,62.0 33.0,60.1 33.4,58.3 33.8,56.5 34.3,54.7 34.7,53.0 35.1,51.3 35.4,49.8 35.8,48.3 36.0,46.9 36.3,45.7 36.4,44.5 36.6,43.5 36.7,42.6 36.7,41.8 36.7,41.1 36.7,40.5 36.6,40.0 36.5,39.6 36.4,39.3 36.3,39.1 36.1,39.0 35.9,38.9 35.8,39.0 35.6,39.1 35.5,39.3 35.4,39.6 35.3,40.0 35.3,40.5 35.4,41.0 35.5,41.6 35.7,42.4 36.0,43.2 36.4,44.2 37.0,45.2 37.7,46.4 38.5,47.7 39.5,49.0 40.7,50.6 42.0,52.2 43.6,53.9 45.2,55.7 47.1,57.7 49.1,59.7 51.3,61.7 53.6,63.9 56.1,66.0 58.6,68.2 61.3,70.4 63.9,72.6" class="rope"/>
    <rect x="85.0" y="70.5" width="20" height="6" rx="3" transform="rotate(37.5 95.0 73.5)" fill="#f8f7f2"/><rect x="15.0" y="85.0" width="20" height="6" rx="3" transform="rotate(122.5 25.0 88.0)" fill="#f8f7f2"/><rect x="85.0" y="71.5" width="20" height="6" rx="3" transform="rotate(27.5 95.0 74.5)" fill="#f8f7f2"/><rect x="15.0" y="43.5" width="20" height="6" rx="3" transform="rotate(112.5 25.0 46.5)" fill="#f8f7f2"/><rect x="85.0" y="29.0" width="20" height="6" rx="3" transform="rotate(17.5 95.0 32.0)" fill="#f8f7f2"/><rect x="15.0" y="42.5" width="20" height="6" rx="3" transform="rotate(102.5 25.0 45.5)" fill="#f8f7f2"/>
    <polyline points="63.9,72.6 66.6,74.7 69.3,76.7 72.0,78.7 74.6,80.6 77.1,82.4 79.5,84.0 81.8,85.5 83.8,86.8 85.7,87.9 87.4,88.8 88.9,89.6 90.2,90.1 91.3,90.5 92.1,90.6 92.7,90.5 93.1,90.3 93.2,89.9 93.2,89.3 93.1,88.5 92.7,87.6 92.2,86.6 91.6,85.4 91.0,84.2 90.2,82.8 89.4,81.4 88.5,79.8 87.6,78.3 86.7,76.7 85.8,75.0 85.0,73.3 84.2,71.6 83.4,69.8 82.7,68.0 82.0,66.3 81.4,64.4 80.9,62.6 80.4,60.7 80.0,58.9 79.7,57.0 79.5,55.1 79.3,53.1 79.2,51.2 79.2,49.2 79.2,47.3 79.3,45.3 79.4,43.3 79.6,41.4 79.8,39.5 80.0,37.7 80.2,35.9 80.4,34.2 80.5,32.5 80.7,31.0 80.7,29.7 80.7,28.4 80.6,27.4 80.4,26.5 80.0,25.8 79.5,25.3 78.9,25.0 78.1,25.0 77.1,25.2 76.0,25.6 74.7,26.2 73.3,27.1 71.6,28.2 69.9,29.5 68.0,31.0 66.0,32.6 63.8,34.4 61.6,36.4 59.4,38.5 57.1,40.7 54.7,43.0 52.4,45.4 50.2,47.7 47.9,50.1 45.8,52.6 43.7,54.9 41.7,57.3 39.9,59.6 38.1,61.8 36.5,64.0 35.1,66.1 33.8,68.1 32.6,70.0 31.6,71.8 30.7,73.5 29.9,75.1 29.2,76.6 28.7,78.1 28.3,79.4 28.0,80.7 27.8,81.9 27.6,83.0 27.6,84.0 27.6,85.0 27.8,85.8 27.9,86.6 28.2,87.3 28.6,87.9 29.0,88.4 29.4,88.8 30.0,89.1 30.6,89.2 31.3,89.3 32.0,89.2 32.8,88.9 33.6,88.5 34.4,87.9 35.3,87.1 36.3,86.2 37.2,85.1 38.1,83.8 39.1,82.3 40.0,80.7 40.9,78.9 41.7,76.9 42.6,74.8 43.4,72.6 44.1,70.2 44.8,67.8 45.5,65.3 46.1,62.8 46.7,60.2 47.3,57.6 47.8,55.1 48.3,52.6 48.9,50.2 49.4,47.9 49.9,45.7 50.5,43.6 51.0,41.6 51.7,39.9 52.3,38.2 53.1,36.8 53.8,35.5 54.7,34.5 55.6,33.6 56.6,32.9 57.6,32.3 58.7,32.0 59.9,31.8 61.1,31.7 62.4,31.8 63.7,32.0 65.1,32.4 66.5,32.8 68.0,33.4 69.4,34.1 71.0,34.8 72.5,35.7 74.1,36.6 75.8,37.5 77.4,38.6 79.0,39.7 80.7,40.9 82.4,42.1 84.1,43.5 85.8,44.8 87.4,46.3 89.1,47.8 90.7,49.5 92.2,51.2 93.7,52.9 95.1,54.7 96.4,56.7 97.6,58.6 98.6,60.6 99.5,62.7 100.2,64.8 100.8,66.9 101.1,69.1 101.3,71.2 101.2,73.3 100.9,75.3 100.4,77.3 99.7,79.2 98.8,81.0 97.7,82.7 96.4,84.3 94.9,85.7 93.2,86.9 91.5,88.0 89.6,88.9 87.6,89.5 85.6,90.0 83.5,90.2 81.4,90.3 79.4,90.1 77.4,89.8 75.4,89.3 73.5,88.5 71.7,87.6 70.0,86.6 68.4,85.4 66.9,84.1 65.6,82.7 64.3,81.2 63.2,79.6 62.2,77.9 61.3,76.2 60.5,74.5 59.8,72.8 59.2,71.0 58.7,69.3 58.2,67.5 57.7,65.8 57.3,64.1 56.9,62.4 56.5,60.8 56.1,59.2 55.7,57.6 55.3,56.1 54.8,54.6 54.3,53.2 53.8,51.7 53.1,50.3 52.4,49.0 51.7,47.7 50.8,46.4 49.8,45.2 48.8,44.0 47.6,42.9 46.3,41.8 45.0,40.8 43.5,39.9 41.9,39.1 40.3,38.4 38.5,37.8 36.7,37.3 34.9,37.0 33.0,36.8 31.1,36.7 29.2,36.8 27.3,37.1 25.5,37.5 23.7,38.1 22.1,38.8 20.6,39.7 19.2,40.7 18.1,41.9 17.1,43.2 16.4,44.6 15.8,46.1 15.6,47.8 15.6,49.5 15.8,51.2 16.3,53.0 17.0,54.8 18.0,56.6 19.2,58.4 20.7,60.2 22.3,61.9 24.1,63.5 26.0,65.1 28.1,66.6 30.3,68.0 32.5,69.3 34.8,70.5 37.1,71.6 39.4,72.6 41.7,73.4 44.0,74.2 46.2,74.8 48.4,75.3 50.4,75.8 52.4,76.1 54.3,76.3 56.1,76.5 57.8,76.5 59.5,76.5 61.0,76.4 62.4,76.2 63.7,76.0 65.0,75.7 66.1,75.3 67.2,74.9 68.2,74.4 69.1,73.8 70.0,73.1 70.8,72.4 71.6,71.6 72.3,70.7 72.9,69.7 73.5,68.7 74.1,67.5 74.6,66.3 75.2,65.1 75.7,63.7 76.2,62.3 76.7,60.9 77.2,59.4 77.7,57.8 78.2,56.3 78.8,54.7 79.4,53.2 80.1,51.6 80.8,50.1 81.5,48.7 82.3,47.3 83.2,46.0 84.0,44.8 85.0,43.7 85.9,42.7 86.9,41.9 87.9,41.2 88.8,40.6 89.8,40.2 90.7,40.0 91.5,39.9 92.3,40.0 93.1,40.2 93.7,40.5 94.2,41.0 94.6,41.6 94.9,42.4 95.1,43.2 95.1,44.2 95.0,45.2 94.7,46.3 94.3,47.5 93.8,48.7 93.1,49.9 92.4,51.2 91.5,52.5 90.5,53.8 89.4,55.1 88.2,56.5 86.9,57.8 85.5,59.1 84.1,60.4 82.6,61.7 81.0,63.0 79.4,64.2 77.7,65.5 75.9,66.7 74.1,68.0 72.3,69.2 70.4,70.4 68.4,71.5 66.4,72.7 64.3,73.7 62.3,74.8 60.2,75.8 58.0,76.8 55.9,77.7 53.8,78.5 51.7,79.2 49.6,79.8 47.6,80.3 45.7,80.7 43.8,81.0 42.0,81.1 40.3,81.1 38.8,81.0 37.4,80.7 36.1,80.2 35.0,79.5 34.0,78.7 33.2,77.8 32.6,76.7 32.1,75.5 31.8,74.1 31.6,72.6 31.5,71.0 31.5,69.3 31.7,67.6 31.9,65.7 32.2,63.9 32.6,62.0 33.0,60.1 33.4,58.3 33.8,56.5 34.3,54.7 34.7,53.0 35.1,51.3 35.4,49.8 35.8,48.3 36.0,46.9 36.3,45.7 36.4,44.5 36.6,43.5 36.7,42.6 36.7,41.8 36.7,41.1 36.7,40.5 36.6,40.0 36.5,39.6 36.4,39.3 36.3,39.1 36.1,39.0 35.9,38.9 35.8,39.0 35.6,39.1 35.5,39.3 35.4,39.6 35.3,40.0 35.3,40.5 35.4,41.0 35.5,41.6 35.7,42.4 36.0,43.2 36.4,44.2 37.0,45.2 37.7,46.4 38.5,47.7 39.5,49.0 40.7,50.6 42.0,52.2 43.6,53.9 45.2,55.7 47.1,57.7 49.1,59.7 51.3,61.7 53.6,63.9 56.1,66.0 58.6,68.2 61.3,70.4 63.9,72.6" class="highlight"/>
  
</svg>