<svg xmlns="http://www.w3.org/2000/svg" viewBox="0 0 120 120" role="img">
  <rect width="120" height="120" rx="10" fill="#f8f7f2"/>
  <style>
    .shadow{fill:none;stroke:#4a4f56;stroke-width:13;stroke-linecap:round;stroke-linejoin:round;opacity:.22}
    .rope{fill:none;stroke:#1778bd;stroke-width:8;stroke-linecap:round;stroke-linejoin:round}
    .highlight{fill:none;stroke:#4fb1f0;stroke-width:2.2;stroke-linecap:round;stroke-linejoin:round;opacity:.85}
  </style>
  
    <polyline points="67.9,77.3 71.2,79.5 74.5,81.5 77.5,83.2 80.3,84.7 82.9,86.0 85.1,87.0 87.1,87.8 88.7,88.3 90.1,88.5 91.1,88.5 91.8,88.3 92.2,87.9 92.4,87.3 92.3,86.5 92.0,85.5 91.6,84.4 91.0,83.1 90.2,81.8 89.4,80.3 88.5,78.8 87.5,77.1 86.5,75.4 85.5,73.6 84.5,71.7 83.5,69.7 82.5,67.6 81.6,65.4 80.8,63.2 80.0,60.9 79.2,58.5 78.5,56.0 77.9,53.5 77.3,51.0 76.8,48.4 76.4,45.8 76.0,43.2 75.7,40.7 75.3,38.2 75.0,35.9 74.7,33.7 74.3,31.6 73.9,29.8 73.4,28.2 72.8,26.8 72.1,25.7 71.2,25.0 70.1,24.5 68.9,24.4 67.5,24.6 65.9,25.1 64.1,26.0 62.2,27.2 60.1,28.6 57.8,30.3 55.5,32.3 53.0,34.5 50.5,36.9 48.0,39.4 45.5,42.0 43.1,44.7 40.7,47.5 38.5,50.2 36.4,53.0 34.4,55.7 32.7,58.4 31.1,61.0 29.7,63.5 28.6,66.0 27.6,68.3 26.8,70.5 26.2,72.6 25.8,74.6 25.6,76.5 25.6,78.3 25.8,80.0 26.1,81.5 26.6,83.0 27.2,84.4 28.0,85.6 29.0,86.8 30.1,87.8 31.4,88.6 32.8,89.3 34.4,89.8 36.0,90.1 37.8,90.2 39.7,90.1 41.7,89.7 43.7,89.1 45.8,88.2 47.9,87.1 49.9,85.6 52.0,83.9 53.9,82.0 55.8,79.8 57.5,77.4 59.2,74.8 60.7,72.0 62.1,69.0 63.3,66.0 64.4,62.9 65.4,59.8 66.3,56.6 67.1,53.6 67.9,50.6 68.6,47.8 69.2,45.1 69.9,42.6 70.5,40.3 71.2,38.2 71.9,36.4 72.7,34.9 73.5,33.6 74.3,32.6 75.3,31.8 76.2,31.3 77.3,31.0 78.3,31.0 79.5,31.2 80.6,31.5 81.8,32.0 82.9,32.7 84.1,33.6 85.2,34.5 86.4,35.6 87.5,36.8 88.5,38.2 89.5,39.6 90.5,41.1 91.3,42.8 92.0,44.5 92.6,46.4 93.1,48.3 93.3,50.4 93.4,52.5 93.3,54.8 92.9,57.2 92.2,59.6 91.3,62.2 90.1,64.8 88.6,67.4 86.8,70.1 84.7,72.7 82.3,75.3 79.7,77.8 76.9,80.3 73.9,82.5 70.8,84.7 67.5,86.6 64.3,88.3 61.0,89.8 57.8,91.0 54.7,91.9 51.7,92.5 49.0,92.8 46.4,92.8 44.1,92.4 42.1,91.8 40.4,90.9 39.0,89.7 37.9,88.3 37.0,86.7 36.4,84.8 36.1,82.8 35.9,80.7 35.9,78.5 36.1,76.2 36.4,73.9 36.7,71.5 37.2,69.2 37.6,66.8 38.0,64.5 38.4,62.3 38.8,60.1 39.1,58.0 39.3,55.9 39.4,54.0 39.4,52.1 39.4,50.2 39.2,48.5 38.9,46.8 38.5,45.2 38.1,43.7 37.5,42.3 36.9,41.0 36.3,39.7 35.6,38.6 35.0,37.6 34.4,36.7 33.8,36.0 33.3,35.4 32.9,35.1 32.7,34.9 32.7,34.9 32.9,35.2 33.4,35.6 34.1,36.3 35.2,37.2 36.5,38.4 38.2,39.8 40.2,41.4 42.5,43.2 45.0,45.1 47.9,47.3 50.9,49.5 54.2,51.8 57.5,54.2 61.0,56.7 64.4,59.1 67.9,61.5 71.2,63.8 74.5,66.1 77.5,68.2 80.3,70.2 82.9,72.0 85.1,73.7 87.1,75.1 88.7,76.4 90.1,77.5 91.1,78.4 91.8,79.0 92.2,79.5 92.4,79.8 92.3,80.0 92.0,79.9 91.6,79.8 91.0,79.5 90.2,79.0 89.4,78.5 88.5,77.9 87.5,77.1 86.5,76.3 85.5,75.4 84.5,74.3 83.5,73.2 82.5,72.0 81.6,70.8 80.8,69.4 80.0,68.0 79.2,66.4 78.5,64.8 77.9,63.2 77.3,61.4 76.8,59.6 76.4,57.8 76.0,55.9 75.7,54.0 75.3,52.1 75.0,50.3 74.7,48.5 74.3,46.7 73.9,45.1 73.4,43.6 72.8,42.3 72.1,41.1 71.2,40.1 70.1,39.3 68.9,38.8 67.5,38.4 65.9,38.3 64.1,38.4 62.2,38.8 60.1,39.3 57.8,40.1 55.5,41.0 53.0,42.1 50.5,43.4 48.0,44.8 45.5,46.3 43.1,47.9 40.7,49.6 38.5,51.3 36.4,53.0 34.4,54.7 32.7,56.4 31.1,58.1 29.7,59.7 28.6,61.3 27.6,62.8 26.8,64.3 26.2,65.7 25.8,67.0 25.6,68.3 25.6,69.4 25.8,70.5 26.1,71.6 26.6,72.6 27.2,73.4 28.0,74.2 29.0,75.0 30.1,75.6 31.4,76.1 32.8,76.5 34.4,76.8 36.0,76.9 37.8,76.9 39.7,76.7 41.7,76.4 43.7,75.9 45.8,75.2 47.9,74.4 49.9,73.4 52.0,72.2 53.9,70.8 55.8,69.3 57.5,67.7 59.2,65.9 60.7,64.1 62.1,62.1 63.3,60.2 64.4,58.2 65.4,56.2 66.3,54.3 67.1,52.4 67.9,50.6 68.6,48.9 69.2,47.4 69.9,46.0 70.5,44.8 71.2,43.7 71.9,42.9 72.7,42.2 73.5,41.7 74.3,41.4 75.3,41.3 76.2,41.3 77.3,41.5 78.3,41.9 79.5,42.4 80.6,43.1 81.8,43.8 82.9,44.6 84.1,45.6 85.2,46.6 86.4,47.7 87.5,48.9 88.5,50.2 89.5,51.5 90.5,52.9 91.3,54.3 92.0,55.9 92.6,57.4 93.1,59.1 93.3,60.8 93.4,62.5 93.3,64.3 92.9,66.1 92.2,68.0 91.3,69.8 90.1,71.7 88.6,73.5 86.8,75.3 84.7,77.0 82.3,78.6 79.7,80.1 76.9,81.4 73.9,82.5 70.8,83.5 67.5,84.3 64.3,84.8 61.0,85.1 57.8,85.2 54.7,85.0 51.7,84.5 49.0,83.8 46.4,82.8 44.1,81.7 42.1,80.3 40.4,78.7 39.0,76.9 37.9,75.1 37.0,73.0 36.4,71.0 36.1,68.8 35.9,66.6 35.9,64.4 36.1,62.2 36.4,60.1 36.7,58.0 37.2,56.0 37.6,54.1 38.0,52.2 38.4,50.5 38.8,48.8 39.1,47.2 39.3,45.8 39.4,44.4 39.4,43.2 39.4,42.0 39.2,41.0 38.9,40.0 38.5,39.2 38.1,38.5 37.5,37.8 36.9,37.3 36.3,36.9 35.6,36.7 35.0,36.6 34.4,36.7 33.8,37.0 33.3,37.5 32.9,38.1 32.7,39.0 32.7,40.1 32.9,41.4 33.4,42.9 34.1,44.7 35.2,46.6 36.5,48.8 38.2,51.1 40.2,53.6 42.5,56.1 45.0,58.8 47.9,61.6 50.9,64.3 54.2,67.1 57.5,69.8 61.0,72.4 64.4,74.9 67.9,77.3" class="shadow"/>
    <polyline points="67.9,77.3 71.2,79.5 74.5,81.5 77.5,83.2 80.3,84.7 82.9,86.0 85.1,87.0 87.1,87.8 88.7,88.3 90.1,88.5 91.1,88.5 91.8,88.3 92.2,87.9 92.4,87.3 92.3,86.5 92.0,85.5 91.6,84.4 91.0,83.1 90.2,81.8 89.4,80.3 88.5,78.8 87.5,77.1 86.5,75.4 85.5,73.6 84.5,71.7 83.5,69.7 82.5,67.6 81.6,65.4 80.8,63.2 80.0,60.9 79.2,58.5 78.5,56.0 77.9,53.5 77.3,51.0 76.8,48.4 76.4,45.8 76.0,43.2 75.7,40.7 75.3,38.2 75.0,35.9 74.7,33.7 74.3,31.6 73.9,29.8 73.4,28.2 72.8,26.8 72.1,25.7 71.2,25.0 70.1,24.5 68.9,24.4 67.5,24.6 65.9,25.1 64.1,26.0 62.2,27.2 60.1,28.6 57.8,30.3 55.5,32.3 53.0,34.5 50.5,36.9 48.0,39.4 45.5,42.0 43.1,44.7 40.7,47.5 38.5,50.2 36.4,53.0 34.4,55.7 32.7,58.4 31.1,61.0 29.7,63.5 28.6,66.0 27.6,68.3 26.8,70.5 26.2,72.6 25.8,74.6 25.6,76.5 25.6,78.3 25.8,80.0 26.1,81.5 26.6,83.0 27.2,84.4 28.0,85.6 29.0,86.8 30.1,87.8 31.4,88.6 32.8,89.3 34.4,89.8 36.0,90.1 37.8,90.2 39.7,90.1 41.7,89.7 43.7,89.1 45.8,88.2 47.9,87.1 49.9,85.6 52.0,83.9 53.9,82.0 55.8,79.8 57.5,77.4 59.2,74.8 60.7,72.0 62.1,69.0 63.3,66.0 64.4,62.9 65.4,59.8 66.3,56.6 67.1,53.6 67.9,50.6 68.6,47.8 69.2,45.1 69.9,42.6 70.5,40.3 71.2,38.2 71.9,36.4 72.7,34.9 73.5,33.6 74.3,32.6 75.3,31.8 76.2,31.3 77.3,31.0 78.3,31.0 79.5,31.2 80.6,31.5 81.8,32.0 82.9,32.7 84.1,33.6 85.2,34.5 86.4,35.6 87.5,36.8 88.5,38.2 89.5,39.6 90.5,41.1 91.3,42.8 92.0,44.5 92.6,46.4 93.1,48.3 93.3,50.4 93.4,52.5 93.3,54.8 92.9,57.2 92.2,59.6 91.3,62.2 90.1,64.8 88.6,67.4 86.8,70.1 84.7,72.7 82.3,75.3 79.7,77.8 76.9,80.3 73.9,82.5 70.8,84.7 67.5,86.6 64.3,88.3 61.0,89.8 57.8,91.0 54.7,91.9 51.7,92.5 49.0,92.8 46.4,92.8 44.1,92.4 42.1,91.8 40.4,90.9 39.0,89.7 37.9,88.3 37.0,86.7 36.4,84.8 36.1,82.8 35.9,80.7 35.9,78.5 36.1,76.2 36.4,73.9 36.7,71.5 37.2,69.2 37.6,66.8 38.0,64.5 38.4,62.3 38.8,60.1 39.1,58.0 39.3,55.9 39.4,54.0 39.4,52.1 39.4,50.2 39.2,48.5 38.9,46.8 38.5,45.2 38.1,43.7 37.5,42.3 36.9,41.0 36.3,39.7 35.6,38.6 35.0,37.6 34.4,36.7 33.8,36.0 33.3,35.4 32.9,35.1 32.7,34.9 32.7,34.9 32.9,35.2 33.4,35.6 34.1,36.3 35.2,37.2 36.5,38.4 38.2,39.8 40.2,41.4 42.5,43.2 45.0,45.1 47.9,47.3 50.9,49.5 54.2,51.8 57.5,54.2 61.0,56.7 64.4,59.1 67.9,61.5 71.2,63.8 74.5,66.1 77.5,68.2 80.3,70.2 82.9,72.0 85.1,73.7 87.1,75.1 88.7,76.4 90.1,77.5 91.1,78.4 91.8,79.0 92.2,79.5 92.4,79.8 92.3,80.0 92.0,79.9 91.6,79.8 91.0,79.5 90.2,79.0 89.4,78.5 88.5,77.9 87.5,77.1 86.5,76.3 85.5,75.4 84.5,74.3 83.5,73.2 82.5,72.0 81.6,70.8 80.8,69.4 80.0,68.0 79.2,66.4 78.5,64.8 77.9,63.2 77.3,61.4 76.8,59.6 76.4,57.8 76.0,55.9 75.7,54.0 75.3,52.1 75.0,50.3 74.7,48.5 74.3,46.7 73.9,45.1 73.4,43.6 72.8,42.3 72.1,41.1 71.2,40.1 70.1,39.3 68.9,38.8 67.5,38.4 65.9,38.3 64.1,38.4 62.2,38.8 60.1,39.3 57.8,40.1 55.5,41.0 53.0,42.1 50.5,43.4 48.0,44.8 45.5,46.3 43.1,47.9 40.7,49.6 38.5,51.3 36.4,53.0 34.4,54.7 32.7,56.4 31.1,58.1 29.7,59.7 28.6,61.3 27.6,62.8 26.8,64.3 26.2,65.7 25.8,67.0 25.6,68.3 25.6,69.4 25.8,70.5 26.1,71.6 26.6,72.6 27.2,73.4 28.0,74.2 29.0,75.0 30.1,75.6 31.4,76.1 32.8,76.5 34.4,76.8 36.0,76.9 37.8,76.9 39.7,76.7 41.7,76.4 43.7,75.9 45.8,75.2 47.9,74.4 49.9,73.4 52.0,72.2 53.9,70.8 55.8,69.3 57.5,67.7 59.2,65.9 60.7,64.1 62.1,62.1 63.3,60.2 64.4,58.2 65.4,56.2 66.3,54.3 67.1,52.4 67.9,50.6 68.6,48.9 69.2,47.4 69.9,46.0 70.5,44.8 71.2,43.7 71.9,42.9 72.7,42.2 73.5,41.7 74.3,41.4 75.3,41.3 76.2,41.3 77.3,41.5 78.3,41.9 79.5,42.4 80.6,43.1 81.8,43.8 82.9,44.6 84.1,45.6 85.2,46.6 86.4,47.7 87.5,48.9 88.5,50.2 89.5,51.5 90.5,52.9 91.3,54.3 92.0,55.9 92.6,57.4 93.1,59.1 93.3,60.8 93.4,62.5 93.3,64.3 92.9,66.1 92.2,68.0 91.3,69.8 90.1,71.7 88.6,73.5 86.8,75.3 84.7,77.0 82.3,78.6 79.7,80.1 76.9,81.4 73.9,82.5 70.8,83.5 67.5,84.3 64.3,84.8 61.0,85.1 57.8,85.2 54.7,85.0 51.7,84.5 49.0,83.8 46.4,82.8 44.1,81.7 42.1,80.3 40.4,78.7 39.0,76.9 37.9,75.1 37.0,73.0 36.4,71.0 36.1,68.8 35.9,66.6 35.9,64.4 36.1,62.2 36.4,60.1 36.7,58.0 37.2,56.0 37.6,54.1 38.0,52.2 38.4,50.5 38.8,48.8 39.1,47.2 39.3,45.8 39.4,44.4 39.4,43.2 39.4,42.0 39.2,41.0 38.9,40.0 38.5,39.2 38.1,38.5 37.5,37.8 36.9,37.3 36.3,36.9 35.6,36.7 35.0,36.6 34.4,36.7 33.8,37.0 33.3,37.5 32.9,38.1 32.7,39.0 32.7,40.1 32.9,41.4 33.4,42.9 34.1,44.7 35.2,46.6 36.5,48.8 38.2,51.1 40.2,53.6 42.5,56.1 45.0,58.8 47.9,61.6 50.9,64.3 54.2,67.1 57.5,69.8 61.0,72.4 64.4,74.9 67.9,77.3" class="rope"/>
    <rect x="60.0" y="31.5" width="20" height="6" rx="3" transform="rotate(110.0 70.0 34.5)" fill="#f8f7f2"/><rect x="74.1" y="31.5" width="20" height="6" rx="3" transform="rotate(15.0 84.1 34.5)" fill="#f8f7f2"/><rect x="16.0" y="31.5" width="20" height="6" rx="3" transform="rotate(100.0 26.0 34.5)" fill="#f8f7f2"/><rect x="60.0" y="31.5" width="20" height="6" rx="3" transform="rotate(5.0 70.0 34.5)" fill="#f8f7f2"/><rect x="74.1" y="31.5" width="20" height="6" rx="3" transform="rotate(90.0 84.1 34.5)" fill="#f8f7f2"/><rect x="16.0" y="31.5" width="20" height="6" rx="3" transform="rotate(175.0 26.0 34.5)" fill="#f8f7f2"/>
    <polyline points="67.9,77.3 71.2,79.5 74.5,81.5 77.5,83.2 80.3,84.7 82.9,86.0 85.1,87.0 87.1,87.8 88.7,88.3 90.1,88.5 91.1,88.5 91.8,88.3 92.2,87.9 92.4,87.3 92.3,86.5 92.0,85.5 91.6,84.4 91.0,83.1 90.2,81.8 89.4,80.3 88.5,78.8 87.5,77.1 86.5,75.4 85.5,73.6 84.5,71.7 83.5,69.7 82.5,67.6 81.6,65.4 80.8,63.2 80.0,60.9 79.2,58.5 78.5,56.0 77.9,53.5 77.3,51.0 76.8,48.4 76.4,45.8 76.0,43.2 75.7,40.7 75.3,38.2 75.0,35.9 74.7,33.7 74.3,31.6 73.9,29.8 73.4,28.2 72.8,26.8 72.1,25.7 71.2,25.0 70.1,24.5 68.9,24.4 67.5,24.6 65.9,25.1 64.1,26.0 62.2,27.2 60.1,28.6 57.8,30.3 55.5,32.3 53.0,34.5 50.5,36.9 48.0,39.4 45.5,42.0 43.1,44.7 40.7,47.5 38.5,50.2 36.4,53.0 34.4,55.7 32.7,58.4 31.1,61.0 29.7,63.5 28.6,66.0 27.6,68.3 26.8,70.5 26.2,72.6 25.8,74.6 25.6,76.5 25.6,78.3 25.8,80.0 26.1,81.5 26.6,83.0 27.2,84.4 28.0,85.6 29.0,86.8 30.1,87.8 31.4,88.6 32.8,89.3 34.4,89.8 36.0,90.1 37.8,90.2 39.7,90.1 41.7,89.7 43.7,89.1 45.8,88.2 47.9,87.1 49.9,85.6 52.0,83.9 53.9,82.0 55.8,79.8 57.5,77.4 59.2,74.8 60.7,72.0 62.1,69.0 63.3,66.0 64.4,62.9 65.4,59.8 66.3,56.6 67.1,53.6 67.9,50.6 68.6,47.8 69.2,45.1 69.9,42.6 70.5,40.3 71.2,38.2 71.9,36.4 72.7,34.9 73.5,33.6 74.3,32.6 75.3,31.8 76.2,31.3 77.3,31.0 78.3,31.0 79.5,31.2 80.6,31.5 81.8,32.0 82.9,32.7 84.1,33.6 85.2,34.5 86.4,35.6 87.5,36.8 88.5,38.2 89.5,39.6 90.5,41.1 91.3,42.8 92.0,44.5 92.6,46.4 93.1,48.3 93.3,50.4 93.4,52.5 93.3,54.8 92.9,57.2 92.2,59.6 91.3,62.2 90.1,64.8 88.6,67.4 86.8,70.1 84.7,72.7 82.3,75.3 79.7,77.8 76.9,80.3 73.9,82.5 70.8,84.7 67.5,86.6 64.3,88.3 61.0,89.8 57.8,91.0 54.7,91.9 51.7,92.5 49.0,92.8 46.4,92.8 44.1,92.4 42.1,91.8 40.4,90.9 39.0,89.7 37.9,88.3 37.0,86.7 36.4,84.8 36.1,82.8 35.9,80.7 35.9,78.5 36.1,76.2 36.4,73.9 36.7,71.5 37.2,69.2 37.6,66.8 38.0,64.5 38.4,62.3 38.8,60.1 39.1,58.0 39.3,55.9 39.4,54.0 39.4,52.1 39.4,50.2 39.2,48.5 38.9,46.8 38.5,45.2 38.1,43.7 37.5,42.3 36.9,41.0 36.3,39.7 35.6,38.6 35.0,37.6 34.4,36.7 33.8,36.0 33.3,35.4 32.9,35.1 32.7,34.9 32.7,34.9 32.9,35.2 33.4,35.6 34.1,36.3 35.2,37.2 36.5,38.4 38.2,39.8 40.2,41.4 42.5,43.2 45.0,45.1 47.9,47.3 50.9,49.5 54.2,51.8 57.5,54.2 61.0,56.7 64.4,59.1 67.9,61.5 71.2,63.8 74.5,66.1 77.5,68.2 80.3,70.2 82.9,72.0 85.1,73.7 87.1,75.1 88.7,76.4 90.1,77.5 91.1,78.4 91.8,79.0 92.2,79.5 92.4,79.8 92.3,80.0 92.0,79.9 91.6,79.8 91.0,79.5 90.2,79.0 89.4,78.5 88.5,77.9 87.5,77.1 86.5,76.3 85.5,75.4 84.5,74.3 83.5,73.2 82.5,72.0 81.6,70.8 80.8,69.4 80.0,68.0 79.2,66.4 78.5,64.8 77.9,63.2 77.3,61.4 76.8,59.6 76.4,57.8 76.0,55.9 75.7,54.0 75.3,52.1 75.0,50.3 74.7,48.5 74.3,46.7 73.9,45.1 73.4,43.6 72.8,42.3 72.1,41.1 71.2,40.1 70.1,39.3 68.9,38.8 67.5,38.4 65.9,38.3 64.1,38.4 62.2,38.8 60.1,39.3 57.8,40.1 55.5,41.0 53.0,42.1 50.5,43.4 48.0,44.8 45.5,46.3 43.1,47.9 40.7,49.6 38.5,51.3 36.4,53.0 34.4,54.7 32.7,56.4 31.1,58.1 29.7,59.7 28.6,61.3 27.6,62.8 26.8,64.3 26.2,65.7 25.8,67.0 25.6,68.3 25.6,69.4 25.8,70.5 26.1,71.6 26.6,72.6 27.2,73.4 28.0,74.2 29.0,75.0 30.1,75.6 31.4,76.1 32.8,76.5 34.4,76.8 36.0,76.9 37.8,76.9 39.7,76.7 41.7,76.4 43.7,75.9 45.8,75.2 47.9,74.4 49.9,73.4 52.0,72.2 53.9,70.8 55.8,69.3 57.5,67.7 59.2,65.9 60.7,64.1 62.1,62.1 63.3,60.2 64.4,58.2 65.4,56.2 66.3,54.3 67.1,52.4 67.9,50.6 68.6,48.9 69.2,47.4 69.9,46.0 70.5,44.8 71.2,43.7 71.9,42.9 72.7,42.2 73.5,41.7 74.3,41.4 75.3,41.3 76.2,41.3 77.3,41.5 78.3,41.9 79.5,42.4 80.6,43.1 81.8,43.8 82.9,44.6 84.1,45.6 85.2,46.6 86.4,47.7 87.5,48.9 88.5,50.2 89.5,51.5 90.5,52.9 91.3,54.3 92.0,55.9 92.6,57.4 93.1,59.1 93.3,60.8 93.4,62.5 93.3,64.3 92.9,66.1 92.2,68.0 91.3,69.8 90.1,71.7 88.6,73.5 86.8,75.3 84.7,77.0 82.3,78.6 79.7,80.1 76.9,81.4 73.9,82.5 70.8,83.5 67.5,84.3 64.3,84.8 61.0,85.1 57.8,85.2 54.7,85.0 51.7,84.5 49.0,83.8 46.4,82.8 44.1,81.7 42.1,80.3 40.4,78.7 39.0,76.9 37.9,75.1 37.0,73.0 36.4,71.0 36.1,68.8 35.9,66.6 35.9,64.4 36.1,62.2 36.4,60.1 36.7,58.0 37.2,56.0 37.6,54.1 38.0,52.2 38.4,50.5 38.8,48.8 39.1,47.2 39.3,45.8 39.4,44.4 39.4,43.2 39.4,42.0 39.2,41.0 38.9,40.0 38.5,39.2 38.1,38.5 37.5,37.8 36.9,37.3 36.3,36.9 35.6,36.7 35.0,36.6 34.4,36.7 33.8,37.0 33.3,37.5 32.9,38.1 32.7,39.0 32.7,40.1 32.9,41.4 33.4,42.9 34.1,44.7 35.2,46.6 36.5,48.8 38.2,51.1 40.2,53.6 42.5,56.1 45.0,58.8 47.9,61.6 50.9,64.3 54.2,67.1 57.5,69.8 61.0,72.4 64.4,74.9 67.9,77.3" class="highlight"/>
  
</svg>