<svg xmlns="http://www.w3.org/2000/svg" viewBox="0 0 120 120" role="img">
  <rect width="120" height="120" rx="10" fill="#f8f7f2"/>
  <style>
    .shadow{fill:none;stroke:#4a4f56;stroke-width:13;stroke-linecap:round;stroke-linejoin:round;opacity:.22}
    .rope{fill:none;stroke:#1778bd;stroke-width:8;stroke-linecap:round;stroke-linejoin:round}
    .highlight{fill:none;stroke:#4fb1f0;stroke-width:2.2;stroke-linecap:round;stroke-linejoin:round;opacity:.85}
  </style>
  
    <polyline points="70.6,79.6 74.1,81.5 77.5,83.2 80.6,84.6 83.4,85.8 85.8,86.6 87.9,87.2 89.6,87.4 91.0,87.4 91.9,87.1 92.5,86.5 92.8,85.7 92.7,84.7 92.3,83.4 91.6,82.0 90.6,80.3 89.5,78.5 88.2,76.5 86.8,74.3 85.2,72.1 83.7,69.7 82.0,67.2 80.4,64.6 78.9,61.9 77.3,59.2 75.9,56.5 74.5,53.7 73.3,50.9 72.1,48.2 71.1,45.5 70.1,42.9 69.2,40.4 68.4,38.1 67.6,35.9 66.8,33.9 66.0,32.1 65.2,30.5 64.2,29.3 63.2,28.3 61.9,27.7 60.5,27.4 58.9,27.4 57.1,27.8 55.0,28.6 52.6,29.8 50.1,31.3 47.3,33.2 44.4,35.4 41.3,37.9 38.1,40.7 35.0,43.8 31.8,47.0 28.7,50.5 25.9,54.1 23.2,57.7 20.9,61.4 18.9,65.1 17.4,68.6 16.3,72.1 15.7,75.4 15.6,78.6 16.0,81.4 17.0,84.1 18.4,86.4 20.3,88.3 22.7,90.0 25.3,91.2 28.3,92.1 31.6,92.6 35.0,92.8 38.6,92.6 42.1,92.1 45.7,91.2 49.2,90.1 52.5,88.6 55.7,86.9 58.6,85.0 61.4,82.9 63.8,80.6 66.0,78.1 67.9,75.5 69.6,72.8 71.0,70.1 72.2,67.3 73.2,64.5 74.0,61.6 74.6,58.8 75.1,56.1 75.6,53.4 76.0,50.7 76.4,48.2 76.7,45.7 77.2,43.4 77.6,41.2 78.2,39.1 78.9,37.3 79.6,35.6 80.5,34.1 81.5,32.9 82.6,31.9 83.7,31.1 84.9,30.7 86.2,30.5 87.4,30.6 88.6,31.0 89.7,31.8 90.6,32.8 91.4,34.2 91.9,35.8 92.1,37.8 91.9,40.1 91.4,42.6 90.5,45.4 89.2,48.4 87.4,51.5 85.1,54.8 82.5,58.3 79.4,61.7 76.0,65.2 72.2,68.7 68.2,72.0 64.0,75.3 59.7,78.4 55.3,81.3 51.0,83.9 46.8,86.3 42.8,88.3 39.1,90.0 35.7,91.3 32.7,92.3 30.2,92.9 28.0,93.1 26.4,93.0 25.2,92.4 24.5,91.5 24.2,90.3 24.3,88.8 24.8,87.0 25.6,84.9 26.7,82.6 28.0,80.2 29.4,77.6 31.0,74.9 32.6,72.1 34.2,69.2 35.8,66.4 37.4,63.5 38.8,60.7 40.2,58.0 41.4,55.4 42.5,52.9 43.4,50.5 44.3,48.3 45.0,46.3 45.7,44.4 46.4,42.7 47.0,41.2 47.6,39.9 48.2,38.7 48.9,37.8 49.7,37.1 50.6,36.7 51.7,36.4 53.0,36.4 54.4,36.6 56.1,37.0 58.0,37.6 60.1,38.5 62.5,39.6 65.1,40.9 67.8,42.4 70.8,44.1 73.9,46.0 77.1,48.1 80.4,50.4 83.6,52.8 86.9,55.3 90.0,58.0 92.9,60.7 95.6,63.4 97.9,66.1 100.0,68.9 101.6,71.5 102.7,74.1 103.4,76.5 103.6,78.8 103.3,80.8 102.5,82.6 101.1,84.2 99.4,85.5 97.2,86.5 94.6,87.2 91.8,87.5 88.7,87.6 85.4,87.3 82.0,86.6 78.6,85.7 75.2,84.5 71.9,83.0 68.8,81.2 65.8,79.2 63.1,77.1 60.6,74.7 58.4,72.3 56.5,69.7 54.8,67.2 53.3,64.6 52.1,62.0 51.1,59.5 50.2,57.0 49.4,54.7 48.7,52.5 48.1,50.5 47.5,48.6 46.8,46.9 46.2,45.5 45.4,44.2 44.6,43.2 43.7,42.3 42.7,41.7 41.6,41.3 40.4,41.2 39.2,41.2 37.9,41.4 36.7,41.8 35.4,42.4 34.2,43.1 33.0,44.1 32.0,45.1 31.1,46.3 30.4,47.7 29.8,49.1 29.6,50.7 29.5,52.3 29.8,54.1 30.4,55.9 31.3,57.7 32.6,59.6 34.1,61.6 36.1,63.5 38.4,65.4 41.0,67.3 43.9,69.2 47.0,71.0 50.4,72.6 54.0,74.2 57.7,75.6 61.4,76.9 65.2,77.9 68.9,78.8 72.5,79.5 75.9,79.9 79.2,80.1 82.1,80.0 84.7,79.7 87.0,79.1 88.9,78.3 90.5,77.2 91.6,75.9 92.4,74.4 92.9,72.7 93.0,70.8 92.9,68.8 92.5,66.7 91.9,64.4 91.2,62.2 90.4,59.9 89.5,57.6 88.6,55.4 87.7,53.2 86.9,51.2 86.2,49.3 85.5,47.6 84.9,46.1 84.3,44.8 83.9,43.6 83.4,42.8 83.0,42.1 82.5,41.7 82.0,41.6 81.4,41.6 80.7,41.9 79.9,42.5 78.9,43.2 77.7,44.1 76.3,45.1 74.7,46.4 72.9,47.7 70.8,49.2 68.6,50.7 66.2,52.4 63.6,54.1 60.8,55.8 58.0,57.6 55.0,59.3 52.1,61.1 49.1,62.8 46.1,64.5 43.2,66.1 40.4,67.7 37.7,69.2 35.2,70.6 32.8,71.9 30.8,73.1 29.0,74.1 27.4,75.0 26.2,75.8 25.3,76.4 24.8,76.9 24.6,77.2 24.8,77.2 25.3,77.1 26.1,76.8 27.2,76.2 28.6,75.5 30.3,74.5 32.2,73.4 34.3,72.0 36.5,70.4 38.8,68.7 41.1,66.8 43.4,64.7 45.7,62.5 47.9,60.3 50.0,58.0 52.0,55.6 53.8,53.2 55.4,50.9 57.0,48.6 58.4,46.5 59.6,44.4 60.8,42.6 61.9,40.9 63.0,39.5 64.1,38.2 65.2,37.3 66.4,36.6 67.7,36.3 69.2,36.2 70.7,36.4 72.4,36.9 74.2,37.7 76.1,38.7 78.1,40.0 80.2,41.5 82.3,43.3 84.5,45.2 86.5,47.3 88.5,49.5 90.4,51.7 92.0,54.1 93.4,56.5 94.6,58.8 95.4,61.2 96.0,63.5 96.1,65.7 96.0,67.8 95.4,69.8 94.5,71.7 93.2,73.4 91.6,75.0 89.7,76.4 87.6,77.6 85.1,78.6 82.5,79.4 79.7,80.0 76.7,80.5 73.7,80.7 70.6,80.7 67.4,80.5 64.3,80.2 61.3,79.6 58.3,78.8 55.4,77.9 52.7,76.7 50.2,75.3 47.8,73.8 45.7,72.1 43.8,70.2 42.1,68.2 40.6,66.0 39.4,63.7 38.3,61.2 37.5,58.7 36.9,56.1 36.4,53.5 36.0,50.8 35.7,48.2 35.5,45.6 35.3,43.1 35.1,40.7 34.9,38.5 34.6,36.4 34.3,34.6 33.9,33.0 33.5,31.7 33.0,30.7 32.4,30.0 31.8,29.6 31.2,29.6 30.7,30.0 30.2,30.7 29.9,31.7 29.7,33.2 29.8,34.9 30.1,36.9 30.7,39.2 31.7,41.8 33.0,44.5 34.7,47.5 36.7,50.6 39.1,53.7 41.8,56.9 44.9,60.1 48.2,63.3 51.7,66.4 55.4,69.4 59.2,72.3 63.1,74.9 66.9,77.4 70.6,79.6" class="shadow"/>
    <polyline points="70.6,79.6 74.1,81.5 77.5,83.2 80.6,84.6 83.4,85.8 85.8,86.6 87.9,87.2 89.6,87.4 91.0,87.4 91.9,87.1 92.5,86.5 92.8,85.7 92.7,84.7 92.3,83.4 91.6,82.0 90.6,80.3 89.5,78.5 88.2,76.5 86.8,74.3 85.2,72.1 83.7,69.7 82.0,67.2 80.4,64.6 78.9,61.9 77.3,59.2 75.9,56.5 74.5,53.7 73.3,50.9 72.1,48.2 71.1,45.5 70.1,42.9 69.2,40.4 68.4,38.1 67.6,35.9 66.8,33.9 66.0,32.1 65.2,30.5 64.2,29.3 63.2,28.3 61.9,27.7 60.5,27.4 58.9,27.4 57.1,27.8 55.0,28.6 52.6,29.8 50.1,31.3 47.3,33.2 44.4,35.4 41.3,37.9 38.1,40.7 35.0,43.8 31.8,47.0 28.7,50.5 25.9,54.1 23.2,57.7 20.9,61.4 18.9,65.1 17.4,68.6 16.3,72.1 15.7,75.4 15.6,78.6 16.0,81.4 17.0,84.1 18.4,86.4 20.3,88.3 22.7,90.0 25.3,91.2 28.3,92.1 31.6,92.6 35.0,92.8 38.6,92.6 42.1,92.1 45.7,91.2 49.2,90.1 52.5,88.6 55.7,86.9 58.6,85.0 61.4,82.9 63.8,80.6 66.0,78.1 67.9,75.5 69.6,72.8 71.0,70.1 72.2,67.3 73.2,64.5 74.0,61.6 74.6,58.8 75.1,56.1 75.6,53.4 76.0,50.7 76.4,48.2 76.7,45.7 77.2,43.4 77.6,41.2 78.2,39.1 78.9,37.3 79.6,35.6 80.5,34.1 81.5,32.9 82.6,31.9 83.7,31.1 84.9,30.7 86.2,30.5 87.4,30.6 88.6,31.0 89.7,31.8 90.6,32.8 91.4,34.2 91.9,35.8 92.1,37.8 91.9,40.1 91.4,42.6 90.5,45.4 89.2,48.4 87.4,51.5 85.1,54.8 82.5,58.3 79.4,61.7 76.0,65.2 72.2,68.7 68.2,72.0 64.0,75.3 59.7,78.4 55.3,81.3 51.0,83.9 46.8,86.3 42.8,88.3 39.1,90.0 35.7,91.3 32.7,92.3 30.2,92.9 28.0,93.1 26.4,93.0 25.2,92.4 24.5,91.5 24.2,90.3 24.3,88.8 24.8,87.0 25.6,84.9 26.7,82.6 28.0,80.2 29.4,77.6 31.0,74.9 32.6,72.1 34.2,69.2 35.8,66.4 37.4,63.5 38.8,60.7 40.2,58.0 41.4,55.4 42.5,52.9 43.4,50.5 44.3,48.3 45.0,46.3 45.7,44.4 46.4,42.7 47.0,41.2 47.6,39.9 48.2,38.7 48.9,37.8 49.7,37.1 50.6,36.7 51.7,36.4 53.0,36.4 54.4,36.6 56.1,37.0 58.0,37.6 60.1,38.5 62.5,39.6 65.1,40.9 67.8,42.4 70.8,44.1 73.9,46.0 77.1,48.1 80.4,50.4 83.6,52.8 86.9,55.3 90.0,58.0 92.9,60.7 95.6,63.4 97.9,66.1 100.0,68.9 101.6,71.5 102.7,74.1 103.4,76.5 103.6,78.8 103.3,80.8 102.5,82.6 101.1,84.2 99.4,85.5 97.2,86.5 94.6,87.2 91.8,87.5 88.7,87.6 85.4,87.3 82.0,86.6 78.6,85.7 75.2,84.5 71.9,83.0 68.8,81.2 65.8,79.2 63.1,77.1 60.6,74.7 58.4,72.3 56.5,69.7 54.8,67.2 53.3,64.6 52.1,62.0 51.1,59.5 50.2,57.0 49.4,54.7 48.7,52.5 48.1,50.5 47.5,48.6 46.8,46.9 46.2,45.5 45.4,44.2 44.6,43.2 43.7,42.3 42.7,41.7 41.6,41.3 40.4,41.2 39.2,41.2 37.9,41.4 36.7,41.8 35.4,42.4 34.2,43.1 33.0,44.1 32.0,45.1 31.1,46.3 30.4,47.7 29.8,49.1 29.6,50.7 29.5,52.3 29.8,54.1 30.4,55.9 31.3,57.7 32.6,59.6 34.1,61.6 36.1,63.5 38.4,65.4 41.0,67.3 43.9,69.2 47.0,71.0 50.4,72.6 54.0,74.2 57.7,75.6 61.4,76.9 65.2,77.9 68.9,78.8 72.5,79.5 75.9,79.9 79.2,80.1 82.1,80.0 84.7,79.7 87.0,79.1 88.9,78.3 90.5,77.2 91.6,75.9 92.4,74.4 92.9,72.7 93.0,70.8 92.9,68.8 92.5,66.7 91.9,64.4 91.2,62.2 90.4,59.9 89.5,57.6 88.6,55.4 87.7,53.2 86.9,51.2 86.2,49.3 85.5,47.6 84.9,46.1 84.3,44.8 83.9,43.6 83.4,42.8 83.0,42.1 82.5,41.7 82.0,41.6 81.4,41.6 80.7,41.9 79.9,42.5 78.9,43.2 77.7,44.1 76.3,45.1 74.7,46.4 72.9,47.7 70.8,49.2 68.6,50.7 66.2,52.4 63.6,54.1 60.8,55.8 58.0,57.6 55.0,59.3 52.1,61.1 49.1,62.8 46.1,64.5 43.2,66.1 40.4,67.7 37.7,69.2 35.2,70.6 32.8,71.9 30.8,73.1 29.0,74.1 27.4,75.0 26.2,75.8 25.3,76.4 24.8,76.9 24.6,77.2 24.8,77.2 25.3,77.1 26.1,76.8 27.2,76.2 28.6,75.5 30.3,74.5 32.2,73.4 34.3,72.0 36.5,70.4 38.8,68.7 41.1,66.8 43.4,64.7 45.7,62.5 47.9,60.3 50.0,58.0 52.0,55.6 53.8,53.2 55.4,50.9 57.0,48.6 58.4,46.5 59.6,44.4 60.8,42.6 61.9,40.9 63.0,39.5 64.1,38.2 65.2,37.3 66.4,36.6 67.7,36.3 69.2,36.2 70.7,36.4 72.4,36.9 74.2,37.7 76.1,38.7 78.1,40.0 80.2,41.5 82.3,43.3 84.5,45.2 86.5,47.3 88.5,49.5 90.4,51.7 92.0,54.1 93.4,56.5 94.6,58.8 95.4,61.2 96.0,63.5 96.1,65.7 96.0,67.8 95.4,69.8 94.5,71.7 93.2,73.4 91.6,75.0 89.7,76.4 87.6,77.6 85.1,78.6 82.5,79.4 79.7,80.0 76.7,80.5 73.7,80.7 70.6,80.7 67.4,80.5 64.3,80.2 61.3,79.6 58.3,78.8 55.4,77.9 52.7,76.7 50.2,75.3 47.8,73.8 45.7,72.1 43.8,70.2 42.1,68.2 40.6,66.0 39.4,63.7 38.3,61.2 37.5,58.7 36.9,56.1 36.4,53.5 36.0,50.8 35.7,48.2 35.5,45.6 35.3,43.1 35.1,40.7 34.9,38.5 34.6,36.4 34.3,34.6 33.9,33.0 33.5,31.7 33.0,30.7 32.4,30.0 31.8,29.6 31.2,29.6 30.7,30.0 30.2,30.7 29.9,31.7 29.7,33.2 29.8,34.9 30.1,36.9 30.7,39.2 31.7,41.8 33.0,44.5 34.7,47.5 36.7,50.6 39.1,53.7 41.8,56.9 44.9,60.1 48.2,63.3 51.7,66.4 55.4,69.4 59.2,72.3 63.1,74.9 66.9,77.4 70.6,79.6" class="rope"/>
    <rect x="16.3" y="56.6" width="20" height="6" rx="3" transform="rotate(2.5 26.3 59.6)" fill="#f8f7f2"/><rect x="41.2" y="81.1" width="20" height="6" rx="3" transform="rotate(87.5 51.2 84.1)" fill="#f8f7f2"/><rect x="74.9" y="81.4" width="20" height="6" rx="3" transform="rotate(172.5 84.9 84.4)" fill="#f8f7f2"/><rect x="83.7" y="57.4" width="20" height="6" rx="3" transform="rotate(77.5 93.7 60.4)" fill="#f8f7f2"/><rect x="58.8" y="32.9" width="20" height="6" rx="3" transform="rotate(162.5 68.8 35.9)" fill="#f8f7f2"/><rect x="71.0" y="46.0" width="20" height="6" rx="3" transform="rotate(27.5 81.0 49.0)" fill="#f8f7f2"/>
    <polyline points="70.6,79.6 74.1,81.5 77.5,83.2 80.6,84.6 83.4,85.8 85.8,86.6 87.9,87.2 89.6,87.4 91.0,87.4 91.9,87.1 92.5,86.5 92.8,85.7 92.7,84.7 92.3,83.4 91.6,82.0 90.6,80.3 89.5,78.5 88.2,76.5 86.8,74.3 85.2,72.1 83.7,69.7 82.0,67.2 80.4,64.6 78.9,61.9 77.3,59.2 75.9,56.5 74.5,53.7 73.3,50.9 72.1,48.2 71.1,45.5 70.1,42.9 69.2,40.4 68.4,38.1 67.6,35.9 66.8,33.9 66.0,32.1 65.2,30.5 64.2,29.3 63.2,28.3 61.9,27.7 60.5,27.4 58.9,27.4 57.1,27.8 55.0,28.6 52.6,29.8 50.1,31.3 47.3,33.2 44.4,35.4 41.3,37.9 38.1,40.7 35.0,43.8 31.8,47.0 28.7,50.5 25.9,54.1 23.2,57.7 20.9,61.4 18.9,65.1 17.4,68.6 16.3,72.1 15.7,75.4 15.6,78.6 16.0,81.4 17.0,84.1 18.4,86.4 20.3,88.3 22.7,90.0 25.3,91.2 28.3,92.1 31.6,92.6 35.0,92.8 38.6,92.6 42.1,92.1 45.7,91.2 49.2,90.1 52.5,88.6 55.7,86.9 58.6,85.0 61.4,82.9 63.8,80.6 66.0,78.1 67.9,75.5 69.6,72.8 71.0,70.1 72.2,67.3 73.2,64.5 74.0,61.6 74.6,58.8 75.1,56.1 75.6,53.4 76.0,50.7 76.4,48.2 76.7,45.7 77.2,43.4 77.6,41.2 78.2,39.1 78.9,37.3 79.6,35.6 80.5,34.1 81.5,32.9 82.6,31.9 83.7,31.1 84.9,30.7 86.2,30.5 87.4,30.6 88.6,31.0 89.7,31.8 90.6,32.8 91.4,34.2 91.9,35.8 92.1,37.8 91.9,40.1 91.4,42.6 90.5,45.4 89.2,48.4 87.4,51.5 85.1,54.8 82.5,58.3 79.4,61.7 76.0,65.2 72.2,68.7 68.2,72.0 64.0,75.3 59.7,78.4 55.3,81.3 51.0,83.9 46.8,86.3 42.8,88.3 39.1,90.0 35.7,91.3 32.7,92.3 30.2,92.9 28.0,93.1 26.4,93.0 25.2,92.4 24.5,91.5 24.2,90.3 24.3,88.8 24.8,87.0 25.6,84.9 26.7,82.6 28.0,80.2 29.4,77.6 31.0,74.9 32.6,72.1 34.2,69.2 35.8,66.4 37.4,63.5 38.8,60.7 40.2,58.0 41.4,55.4 42.5,52.9 43.4,50.5 44.3,48.3 45.0,46.3 45.7,44.4 46.4,42.7 47.0,41.2 47.6,39.9 48.2,38.7 48.9,37.8 49.7,37.1 50.6,36.7 51.7,36.4 53.0,36.4 54.4,36.6 56.1,37.0 58.0,37.6 60.1,38.5 62.5,39.6 65.1,40.9 67.8,42.4 70.8,44.1 73.9,46.0 77.1,48.1 80.4,50.4 83.6,52.8 86.9,55.3 90.0,58.0 92.9,60.7 95.6,63.4 97.9,66.1 100.0,68.9 101.6,71.5 102.7,74.1 103.4,76.5 103.6,78.8 103.3,80.8 102.5,82.6 101.1,84.2 99.4,85.5 97.2,86.5 94.6,87.2 91.8,87.5 88.7,87.6 85.4,87.3 82.0,86.6 78.6,85.7 75.2,84.5 71.9,83.0 68.8,81.2 65.8,79.2 63.1,77.1 60.6,74.7 58.4,72.3 56.5,69.7 54.8,67.2 53.3,64.6 52.1,62.0 51.1,59.5 50.2,57.0 49.4,54.7 48.7,52.5 48.1,50.5 47.5,48.6 46.8,46.9 46.2,45.5 45.4,44.2 44.6,43.2 43.7,42.3 42.7,41.7 41.6,41.3 40.4,41.2 39.2,41.2 37.9,41.4 36.7,41.8 35.4,42.4 34.2,43.1 33.0,44.1 32.0,45.1 31.1,46.3 30.4,47.7 29.8,49.1 29.6,50.7 29.5,52.3 29.8,54.1 30.4,55.9 31.3,57.7 32.6,59.6 34.1,61.6 36.1,63.5 38.4,65.4 41.0,67.3 43.9,69.2 47.0,71.0 50.4,72.6 54.0,74.2 57.7,75.6 61.4,76.9 65.2,77.9 68.9,78.8 72.5,79.5 75.9,79.9 79.2,80.1 82.1,80.0 84.7,79.7 87.0,79.1 88.9,78.3 90.5,77.2 91.6,75.9 92.4,74.4 92.9,72.7 93.0,70.8 92.9,68.8 92.5,66.7 91.9,64.4 91.2,62.2 90.4,59.9 89.5,57.6 88.6,55.4 87.7,53.2 86.9,51.2 86.2,49.3 85.5,47.6 84.9,46.1 84.3,44.8 83.9,43.6 83.4,42.8 83.0,42.1 82.5,41.7 82.0,41.6 81.4,41.6 80.7,41.9 79.9,42.5 78.9,43.2 77.7,44.1 76.3,45.1 74.7,46.4 72.9,47.7 70.8,49.2 68.6,50.7 66.2,52.4 63.6,54.1 60.8,55.8 58.0,57.6 55.0,59.3 52.1,61.1 49.1,62.8 46.1,64.5 43.2,66.1 40.4,67.7 37.7,69.2 35.2,70.6 32.8,71.9 30.8,73.1 29.0,74.1 27.4,75.0 26.2,75.8 25.3,76.4 24.8,76.9 24.6,77.2 24.8,77.2 25.3,77.1 26.1,76.8 27.2,76.2 28.6,75.5 30.3,74.5 32.2,73.4 34.3,72.0 36.5,70.4 38.8,68.7 41.1,66.8 43.4,64.7 45.7,62.5 47.9,60.3 50.0,58.0 52.0,55.6 53.8,53.2 55.4,50.9 57.0,48.6 58.4,46.5 59.6,44.4 60.8,42.6 61.9,40.9 63.0,39.5 64.1,38.2 65.2,37.3 66.4,36.6 67.7,36.3 69.2,36.2 70.7,36.4 72.4,36.9 74.2,37.7 76.1,38.7 78.1,40.0 80.2,41.5 82.3,43.3 84.5,45.2 86.5,47.3 88.5,49.5 90.4,51.7 92.0,54.1 93.4,56.5 94.6,58.8 95.4,61.2 96.0,63.5 96.1,65.7 96.0,67.8 95.4,69.8 94.5,71.7 93.2,73.4 91.6,75.0 89.7,76.4 87.6,77.6 85.1,78.6 82.5,79.4 79.7,80.0 76.7,80.5 73.7,80.7 70.6,80.7 67.4,80.5 64.3,80.2 61.3,79.6 58.3,78.8 55.4,77.9 52.7,76.7 50.2,75.3 47.8,73.8 45.7,72.1 43.8,70.2 42.1,68.2 40.6,66.0 39.4,63.7 38.3,61.2 37.5,58.7 36.9,56.1 36.4,53.5 36.0,50.8 35.7,48.2 35.5,45.6 35.3,43.1 35.1,40.7 34.9,38.5 34.6,36.4 34.3,34.6 33.9,33.0 33.5,31.7 33.0,30.7 32.4,30.0 31.8,29.6 31.2,29.6 30.7,30.0 30.2,30.7 29.9,31.7 29.7,33.2 29.8,34.9 30.1,36.9 30.7,39.2 31.7,41.8 33.0,44.5 34.7,47.5 36.7,50.6 39.1,53.7 41.8,56.9 44.9,60.1 48.2,63.3 51.7,66.4 55.4,69.4 59.2,72.3 63.1,74.9 66.9,77.4 70.6,79.6" class="highlight"/>
  
</svg>