<svg xmlns="http://www.w3.org/2000/svg" viewBox="0 0 120 120" role="img">
  <rect width="120" height="120" rx="10" fill="#f8f7f2"/>
  <style>
    .shadow{fill:none;stroke:#4a4f56;stroke-width:13;stroke-linecap:round;stroke-linejoin:round;opacity:.22}
    .rope{fill:none;stroke:#1778bd;stroke-width:8;stroke-linecap:round;stroke-linejoin:round}
    .highlight{fill:none;stroke:#4fb1f0;stroke-width:2.2;stroke-linecap:round;stroke-linejoin:round;opacity:.85}
  </style>
  
    <polyline points="63.9,72.6 66.8,75.1 69.6,77.6 72.4,79.9 75.1,82.1 77.7,84.2 80.1,86.0 82.3,87.6 84.3,88.9 86.1,90.0 87.6,90.8 88.8,91.4 89.8,91.6 90.5,91.6 91.0,91.3 91.2,90.7 91.2,89.9 91.0,88.9 90.6,87.7 90.1,86.3 89.5,84.7 88.7,83.1 87.9,81.3 87.1,79.4 86.3,77.4 85.4,75.3 84.6,73.3 83.8,71.1 83.1,69.0 82.5,66.8 82.0,64.6 81.5,62.4 81.2,60.1 81.0,57.8 80.9,55.5 80.8,53.2 80.9,50.9 81.2,48.6 81.5,46.3 81.9,44.0 82.4,41.7 83.0,39.4 83.6,37.3 84.3,35.2 85.0,33.2 85.7,31.4 86.4,29.7 87.1,28.3 87.7,27.0 88.1,26.0 88.5,25.2 88.7,24.8 88.7,24.6 88.6,24.7 88.2,25.2 87.6,26.0 86.7,27.0 85.6,28.4 84.3,30.0 82.7,31.9 80.9,34.0 78.9,36.3 76.7,38.8 74.4,41.5 71.9,44.2 69.4,47.0 66.8,49.8 64.2,52.6 61.5,55.4 59.0,58.1 56.5,60.7 54.1,63.3 51.7,65.7 49.6,67.9 47.5,70.0 45.6,72.0 43.9,73.8 42.3,75.5 40.9,77.0 39.6,78.3 38.4,79.6 37.4,80.6 36.4,81.6 35.6,82.4 34.9,83.1 34.3,83.7 33.8,84.2 33.4,84.5 33.0,84.7 32.7,84.8 32.5,84.7 32.4,84.5 32.3,84.1 32.3,83.5 32.3,82.7 32.4,81.8 32.5,80.7 32.6,79.4 32.8,77.9 32.9,76.2 33.1,74.3 33.2,72.3 33.3,70.1 33.4,67.9 33.4,65.5 33.4,63.1 33.3,60.6 33.2,58.2 33.1,55.7 32.9,53.4 32.7,51.1 32.5,48.9 32.2,46.9 32.0,45.1 31.9,43.5 31.8,42.1 31.7,40.9 31.8,39.9 31.9,39.2 32.2,38.7 32.6,38.4 33.1,38.4 33.8,38.6 34.6,38.9 35.5,39.5 36.6,40.2 37.7,41.1 39.0,42.0 40.4,43.1 41.9,44.3 43.5,45.6 45.2,46.9 46.9,48.3 48.7,49.8 50.6,51.2 52.6,52.7 54.6,54.3 56.6,55.8 58.7,57.4 60.9,59.0 63.1,60.6 65.3,62.3 67.6,63.9 69.9,65.5 72.2,67.2 74.5,68.7 76.7,70.3 78.9,71.8 81.1,73.2 83.2,74.6 85.1,75.8 86.9,76.9 88.6,77.9 90.1,78.7 91.4,79.3 92.5,79.7 93.3,79.9 94.0,79.8 94.4,79.6 94.6,79.1 94.6,78.3 94.5,77.4 94.1,76.2 93.6,74.9 92.9,73.4 92.2,71.7 91.3,69.9 90.4,68.0 89.5,66.0 88.6,63.9 87.7,61.9 86.8,59.9 86.0,57.8 85.2,55.9 84.6,54.0 84.0,52.2 83.4,50.5 83.0,49.0 82.7,47.6 82.4,46.3 82.2,45.1 82.1,44.1 82.0,43.2 82.0,42.5 82.0,41.8 82.1,41.4 82.2,41.0 82.3,40.7 82.4,40.6 82.5,40.6 82.5,40.7 82.6,40.9 82.5,41.3 82.4,41.8 82.2,42.4 81.9,43.2 81.4,44.1 80.8,45.2 80.0,46.4 79.1,47.9 77.9,49.5 76.6,51.2 75.0,53.1 73.3,55.2 71.3,57.5 69.1,59.8 66.8,62.2 64.3,64.8 61.6,67.4 58.9,70.0 56.1,72.6 53.2,75.1 50.4,77.6 47.6,79.9 44.9,82.1 42.3,84.2 39.9,86.0 37.7,87.6 35.7,88.9 33.9,90.0 32.4,90.8 31.2,91.4 30.2,91.6 29.5,91.6 29.0,91.3 28.8,90.7 28.8,89.9 29.0,88.9 29.4,87.7 29.9,86.3 30.5,84.7 31.3,83.1 32.1,81.3 32.9,79.4 33.7,77.4 34.6,75.3 35.4,73.3 36.2,71.1 36.9,69.0 37.5,66.8 38.0,64.6 38.5,62.4 38.8,60.1 39.0,57.8 39.1,55.5 39.2,53.2 39.1,50.9 38.8,48.6 38.5,46.3 38.1,44.0 37.6,41.7 37.0,39.4 36.4,37.3 35.7,35.2 35.0,33.2 34.3,31.4 33.6,29.7 32.9,28.3 32.3,27.0 31.9,26.0 31.5,25.2 31.3,24.8 31.3,24.6 31.4,24.7 31.8,25.2 32.4,26.0 33.3,27.0 34.4,28.4 35.7,30.0 37.3,31.9 39.1,34.0 41.1,36.3 43.3,38.8 45.6,41.5 48.1,44.2 50.6,47.0 53.2,49.8 55.8,52.6 58.5,55.4 61.0,58.1 63.5,60.7 65.9,63.3 68.3,65.7 70.4,67.9 72.5,70.0 74.4,72.0 76.1,73.8 77.7,75.5 79.1,77.0 80.4,78.3 81.6,79.6 82.6,80.6 83.6,81.6 84.4,82.4 85.1,83.1 85.7,83.7 86.2,84.2 86.6,84.5 87.0,84.7 87.3,84.8 87.5,84.7 87.6,84.5 87.7,84.1 87.7,83.5 87.7,82.7 87.6,81.8 87.5,80.7 87.4,79.4 87.2,77.9 87.1,76.2 86.9,74.3 86.8,72.3 86.7,70.1 86.6,67.9 86.6,65.5 86.6,63.1 86.7,60.6 86.8,58.2 86.9,55.7 87.1,53.4 87.3,51.1 87.5,48.9 87.8,46.9 88.0,45.1 88.1,43.5 88.2,42.1 88.3,40.9 88.2,39.9 88.1,39.2 87.8,38.7 87.4,38.4 86.9,38.4 86.2,38.6 85.4,38.9 84.5,39.5 83.4,40.2 82.3,41.1 81.0,42.0 79.6,43.1 78.1,44.3 76.5,45.6 74.8,46.9 73.1,48.3 71.3,49.8 69.4,51.2 67.4,52.7 65.4,54.3 63.4,55.8 61.3,57.4 59.1,59.0 56.9,60.6 54.7,62.3 52.4,63.9 50.1,65.5 47.8,67.2 45.5,68.7 43.3,70.3 41.1,71.8 38.9,73.2 36.8,74.6 34.9,75.8 33.1,76.9 31.4,77.9 29.9,78.7 28.6,79.3 27.5,79.7 26.7,79.9 26.0,79.8 25.6,79.6 25.4,79.1 25.4,78.3 25.5,77.4 25.9,76.2 26.4,74.9 27.1,73.4 27.8,71.7 28.7,69.9 29.6,68.0 30.5,66.0 31.4,63.9 32.3,61.9 33.2,59.9 34.0,57.8 34.8,55.9 35.4,54.0 36.0,52.2 36.6,50.5 37.0,49.0 37.3,47.6 37.6,46.3 37.8,45.1 37.9,44.1 38.0,43.2 38.0,42.5 38.0,41.8 37.9,41.4 37.8,41.0 37.7,40.7 37.6,40.6 37.5,40.6 37.5,40.7 37.4,40.9 37.5,41.3 37.6,41.8 37.8,42.4 38.1,43.2 38.6,44.1 39.2,45.2 40.0,46.4 40.9,47.9 42.1,49.5 43.4,51.2 45.0,53.1 46.7,55.2 48.7,57.5 50.9,59.8 53.2,62.2 55.7,64.8 58.4,67.4 61.1,70.0 63.9,72.6" class="shadow"/>
    <polyline points="63.9,72.6 66.8,75.1 69.6,77.6 72.4,79.9 75.1,82.1 77.7,84.2 80.1,86.0 82.3,87.6 84.3,88.9 86.1,90.0 87.6,90.8 88.8,91.4 89.8,91.6 90.5,91.6 91.0,91.3 91.2,90.7 91.2,89.9 91.0,88.9 90.6,87.7 90.1,86.3 89.5,84.7 88.7,83.1 87.9,81.3 87.1,79.4 86.3,77.4 85.4,75.3 84.6,73.3 83.8,71.1 83.1,69.0 82.5,66.8 82.0,64.6 81.5,62.4 81.2,60.1 81.0,57.8 80.9,55.5 80.8,53.2 80.9,50.9 81.2,48.6 81.5,46.3 81.9,44.0 82.4,41.7 83.0,39.4 83.6,37.3 84.3,35.2 85.0,33.2 85.7,31.4 86.4,29.7 87.1,28.3 87.7,27.0 88.1,26.0 88.5,25.2 88.7,24.8 88.7,24.6 88.6,24.7 88.2,25.2 87.6,26.0 86.7,27.0 85.6,28.4 84.3,30.0 82.7,31.9 80.9,34.0 78.9,36.3 76.7,38.8 74.4,41.5 71.9,44.2 69.4,47.0 66.8,49.8 64.2,52.6 61.5,55.4 59.0,58.1 56.5,60.7 54.1,63.3 51.7,65.7 49.6,67.9 47.5,70.0 45.6,72.0 43.9,73.8 42.3,75.5 40.9,77.0 39.6,78.3 38.4,79.6 37.4,80.6 36.4,81.6 35.6,82.4 34.9,83.1 34.3,83.7 33.8,84.2 33.4,84.5 33.0,84.7 32.7,84.8 32.5,84.7 32.4,84.5 32.3,84.1 32.3,83.5 32.3,82.7 32.4,81.8 32.5,80.7 32.6,79.4 32.8,77.9 32.9,76.2 33.1,74.3 33.2,72.3 33.3,70.1 33.4,67.9 33.4,65.5 33.4,63.1 33.3,60.6 33.2,58.2 33.1,55.7 32.9,53.4 32.7,51.1 32.5,48.9 32.2,46.9 32.0,45.1 31.9,43.5 31.8,42.1 31.7,40.9 31.8,39.9 31.9,39.2 32.2,38.7 32.6,38.4 33.1,38.4 33.8,38.6 34.6,38.9 35.5,39.5 36.6,40.2 37.7,41.1 39.0,42.0 40.4,43.1 41.9,44.3 43.5,45.6 45.2,46.9 46.9,48.3 48.7,49.8 50.6,51.2 52.6,52.7 54.6,54.3 56.6,55.8 58.7,57.4 60.9,59.0 63.1,60.6 65.3,62.3 67.6,63.9 69.9,65.5 72.2,67.2 74.5,68.7 76.7,70.3 78.9,71.8 81.1,73.2 83.2,74.6 85.1,75.8 86.9,76.9 88.6,77.9 90.1,78.7 91.4,79.3 92.5,79.7 93.3,79.9 94.0,79.8 94.4,79.6 94.6,79.1 94.6,78.3 94.5,77.4 94.1,76.2 93.6,74.9 92.9,73.4 92.2,71.7 91.3,69.9 90.4,68.0 89.5,66.0 88.6,63.9 87.7,61.9 86.8,59.9 86.0,57.8 85.2,55.9 84.6,54.0 84.0,52.2 83.4,50.5 83.0,49.0 82.7,47.6 82.4,46.3 82.2,45.1 82.1,44.1 82.0,43.2 82.0,42.5 82.0,41.8 82.1,41.4 82.2,41.0 82.3,40.7 82.4,40.6 82.5,40.6 82.5,40.7 82.6,40.9 82.5,41.3 82.4,41.8 82.2,42.4 81.9,43.2 81.4,44.1 80.8,45.2 80.0,46.4 79.1,47.9 77.9,49.5 76.6,51.2 75.0,53.1 73.3,55.2 71.3,57.5 69.1,59.8 66.8,62.2 64.3,64.8 61.6,67.4 58.9,70.0 56.1,72.6 53.2,75.1 50.4,77.6 47.6,79.9 44.9,82.1 42.3,84.2 39.9,86.0 37.7,87.6 35.7,88.9 33.9,90.0 32.4,90.8 31.2,91.4 30.2,91.6 29.5,91.6 29.0,91.3 28.8,90.7 28.8,89.9 29.0,88.9 29.4,87.7 29.9,86.3 30.5,84.7 31.3,83.1 32.1,81.3 32.9,79.4 33.7,77.4 34.6,75.3 35.4,73.3 36.2,71.1 36.9,69.0 37.5,66.8 38.0,64.6 38.5,62.4 38.8,60.1 39.0,57.8 39.1,55.5 39.2,53.2 39.1,50.9 38.8,48.6 38.5,46.3 38.1,44.0 37.6,41.7 37.0,39.4 36.4,37.3 35.7,35.2 35.0,33.2 34.3,31.4 33.6,29.7 32.9,28.3 32.3,27.0 31.9,26.0 31.5,25.2 31.3,24.8 31.3,24.6 31.4,24.7 31.8,25.2 32.4,26.0 33.3,27.0 34.4,28.4 35.7,30.0 37.3,31.9 39.1,34.0 41.1,36.3 43.3,38.8 45.6,41.5 48.1,44.2 50.6,47.0 53.2,49.8 55.8,52.6 58.5,55.4 61.0,58.1 63.5,60.7 65.9,63.3 68.3,65.7 70.4,67.9 72.5,70.0 74.4,72.0 76.1,73.8 77.7,75.5 79.1,77.0 80.4,78.3 81.6,79.6 82.6,80.6 83.6,81.6 84.4,82.4 85.1,83.1 85.7,83.7 86.2,84.2 86.6,84.5 87.0,84.7 87.3,84.8 87.5,84.7 87.6,84.5 87.7,84.1 87.7,83.5 87.7,82.7 87.6,81.8 87.5,80.7 87.4,79.4 87.2,77.9 87.1,76.2 86.9,74.3 86.8,72.3 86.7,70.1 86.6,67.9 86.6,65.5 86.6,63.1 86.7,60.6 86.8,58.2 86.9,55.7 87.1,53.4 87.3,51.1 87.5,48.9 87.8,46.9 88.0,45.1 88.1,43.5 88.2,42.1 88.3,40.9 88.2,39.9 88.1,39.2 87.8,38.7 87.4,38.4 86.9,38.4 86.2,38.6 85.4,38.9 84.5,39.5 83.4,40.2 82.3,41.1 81.0,42.0 79.6,43.1 78.1,44.3 76.5,45.6 74.8,46.9 73.1,48.3 71.3,49.8 69.4,51.2 67.4,52.7 65.4,54.3 63.4,55.8 61.3,57.4 59.1,59.0 56.9,60.6 54.7,62.3 52.4,63.9 50.1,65.5 47.8,67.2 45.5,68.7 43.3,70.3 41.1,71.8 38.9,73.2 36.8,74.6 34.9,75.8 33.1,76.9 31.4,77.9 29.9,78.7 28.6,79.3 27.5,79.7 26.7,79.9 26.0,79.8 25.6,79.6 25.4,79.1 25.4,78.3 25.5,77.4 25.9,76.2 26.4,74.9 27.1,73.4 27.8,71.7 28.7,69.9 29.6,68.0 30.5,66.0 31.4,63.9 32.3,61.9 33.2,59.9 34.0,57.8 34.8,55.9 35.4,54.0 36.0,52.2 36.6,50.5 37.0,49.0 37.3,47.6 37.6,46.3 37.8,45.1 37.9,44.1 38.0,43.2 38.0,42.5 38.0,41.8 37.9,41.4 37.8,41.0 37.7,40.7 37.6,40.6 37.5,40.6 37.5,40.7 37.4,40.9 37.5,41.3 37.6,41.8 37.8,42.4 38.1,43.2 38.6,44.1 39.2,45.2 40.0,46.4 40.9,47.9 42.1,49.5 43.4,51.2 45.0,53.1 46.7,55.2 48.7,57.5 50.9,59.8 53.2,62.2 55.7,64.8 58.4,67.4 61.1,70.0 63.9,72.6" class="rope"/>
    <rect x="85.0" y="57.3" width="20" height="6" rx="3" transform="rotate(37.5 95.0 60.3)" fill="#f8f7f2"/><rect x="18.2" y="79.1" width="20" height="6" rx="3" transform="rotate(7.5 28.2 82.1)" fill="#f8f7f2"/><rect x="72.4" y="84.2" width="20" height="6" rx="3" transform="rotate(157.5 82.4 87.2)" fill="#f8f7f2"/><rect x="41.5" y="68.9" width="20" height="6" rx="3" transform="rotate(127.5 51.5 71.9)" fill="#f8f7f2"/><rect x="42.9" y="44.6" width="20" height="6" rx="3" transform="rotate(97.5 52.9 47.6)" fill="#f8f7f2"/><rect x="71.3" y="29.6" width="20" height="6" rx="3" transform="rotate(67.5 81.3 32.6)" fill="#f8f7f2"/><rect x="18.8" y="35.3" width="20" height="6" rx="3" transform="rotate(37.5 28.8 38.3)" fill="#f8f7f2"/>
    <polyline points="63.9,72.6 66.8,75.1 69.6,77.6 72.4,79.9 75.1,82.1 77.7,84.2 80.1,86.0 82.3,87.6 84.3,88.9 86.1,90.0 87.6,90.8 88.8,91.4 89.8,91.6 90.5,91.6 91.0,91.3 91.2,90.7 91.2,89.9 91.0,88.9 90.6,87.7 90.1,86.3 89.5,84.7 88.7,83.1 87.9,81.3 87.1,79.4 86.3,77.4 85.4,75.3 84.6,73.3 83.8,71.1 83.1,69.0 82.5,66.8 82.0,64.6 81.5,62.4 81.2,60.1 81.0,57.8 80.9,55.5 80.8,53.2 80.9,50.9 81.2,48.6 81.5,46.3 81.9,44.0 82.4,41.7 83.0,39.4 83.6,37.3 84.3,35.2 85.0,33.2 85.7,31.4 86.4,29.7 87.1,28.3 87.7,27.0 88.1,26.0 88.5,25.2 88.7,24.8 88.7,24.6 88.6,24.7 88.2,25.2 87.6,26.0 86.7,27.0 85.6,28.4 84.3,30.0 82.7,31.9 80.9,34.0 78.9,36.3 76.7,38.8 74.4,41.5 71.9,44.2 69.4,47.0 66.8,49.8 64.2,52.6 61.5,55.4 59.0,58.1 56.5,60.7 54.1,63.3 51.7,65.7 49.6,67.9 47.5,70.0 45.6,72.0 43.9,73.8 42.3,75.5 40.9,77.0 39.6,78.3 38.4,79.6 37.4,80.6 36.4,81.6 35.6,82.4 34.9,83.1 34.3,83.7 33.8,84.2 33.4,84.5 33.0,84.7 32.7,84.8 32.5,84.7 32.4,84.5 32.3,84.1 32.3,83.5 32.3,82.7 32.4,81.8 32.5,80.7 32.6,79.4 32.8,77.9 32.9,76.2 33.1,74.3 33.2,72.3 33.3,70.1 33.4,67.9 33.4,65.5 33.4,63.1 33.3,60.6 33.2,58.2 33.1,55.7 32.9,53.4 32.7,51.1 32.5,48.9 32.2,46.9 32.0,45.1 31.9,43.5 31.8,42.1 31.7,40.9 31.8,39.9 31.9,39.2 32.2,38.7 32.6,38.4 33.1,38.4 33.8,38.6 34.6,38.9 35.5,39.5 36.6,40.2 37.7,41.1 39.0,42.0 40.4,43.1 41.9,44.3 43.5,45.6 45.2,46.9 46.9,48.3 48.7,49.8 50.6,51.2 52.6,52.7 54.6,54.3 56.6,55.8 58.7,57.4 60.9,59.0 63.1,60.6 65.3,62.3 67.6,63.9 69.9,65.5 72.2,67.2 74.5,68.7 76.7,70.3 78.9,71.8 81.1,73.2 83.2,74.6 85.1,75.8 86.9,76.9 88.6,77.9 90.1,78.7 91.4,79.3 92.5,79.7 93.3,79.9 94.0,79.8 94.4,79.6 94.6,79.1 94.6,78.3 94.5,77.4 94.1,76.2 93.6,74.9 92.9,73.4 92.2,71.7 91.3,69.9 90.4,68.0 89.5,66.0 88.6,63.9 87.7,61.9 86.8,59.9 86.0,57.8 85.2,55.9 84.6,54.0 84.0,52.2 83.4,50.5 83.0,49.0 82.7,47.6 82.4,46.3 82.2,45.1 82.1,44.1 82.0,43.2 82.0,42.5 82.0,41.8 82.1,41.4 82.2,41.0 82.3,40.7 82.4,40.6 82.5,40.6 82.5,40.7 82.6,40.9 82.5,41.3 82.4,41.8 82.2,42.4 81.9,43.2 81.4,44.1 80.8,45.2 80.0,46.4 79.1,47.9 77.9,49.5 76.6,51.2 75.0,53.1 73.3,55.2 71.3,57.5 69.1,59.8 66.8,62.2 64.3,64.8 61.6,67.4 58.9,70.0 56.1,72.6 53.2,75.1 50.4,77.6 47.6,79.9 44.9,82.1 42.3,84.2 39.9,86.0 37.7,87.6 35.7,88.9 33.9,90.0 32.4,90.8 31.2,91.4 30.2,91.6 29.5,91.6 29.0,91.3 28.8,90.7 28.8,89.9 29.0,88.9 29.4,87.7 29.9,86.3 30.5,84.7 31.3,83.1 32.1,81.3 32.9,79.4 33.7,77.4 34.6,75.3 35.4,73.3 36.2,71.1 36.9,69.0 37.5,66.8 38.0,64.6 38.5,62.4 38.8,60.1 39.0,57.8 39.1,55.5 39.2,53.2 39.1,50.9 38.8,48.6 38.5,46.3 38.1,44.0 37.6,41.7 37.0,39.4 36.4,37.3 35.7,35.2 35.0,33.2 34.3,31.4 33.6,29.7 32.9,28.3 32.3,27.0 31.9,26.0 31.5,25.2 31.3,24.8 31.3,24.6 31.4,24.7 31.8,25.2 32.4,26.0 33.3,27.0 34.4,28.4 35.7,30.0 37.3,31.9 39.1,34.0 41.1,36.3 43.3,38.8 45.6,41.5 48.1,44.2 50.6,47.0 53.2,49.8 55.8,52.6 58.5,55.4 61.0,58.1 63.5,60.7 65.9,63.3 68.3,65.7 70.4,67.9 72.5,70.0 74.4,72.0 76.1,73.8 77.7,75.5 79.1,77.0 80.4,78.3 81.6,79.6 82.6,80.6 83.6,81.6 84.4,82.4 85.1,83.1 85.7,83.7 86.2,84.2 86.6,84.5 87.0,84.7 87.3,84.8 87.5,84.7 87.6,84.5 87.7,84.1 87.7,83.5 87.7,82.7 87.6,81.8 87.5,80.7 87.4,79.4 87.2,77.9 87.1,76.2 86.9,74.3 86.8,72.3 86.7,70.1 86.6,67.9 86.6,65.5 86.6,63.1 86.7,60.6 86.8,58.2 86.9,55.7 87.1,53.4 87.3,51.1 87.5,48.9 87.8,46.9 88.0,45.1 88.1,43.5 88.2,42.1 88.3,40.9 88.2,39.9 88.1,39.2 87.8,38.7 87.4,38.4 86.9,38.4 86.2,38.6 85.4,38.9 84.5,39.5 83.4,40.2 82.3,41.1 81.0,42.0 79.6,43.1 78.1,44.3 76.5,45.6 74.8,46.9 73.1,48.3 71.3,49.8 69.4,51.2 67.4,52.7 65.4,54.3 63.4,55.8 61.3,57.4 59.1,59.0 56.9,60.6 54.7,62.3 52.4,63.9 50.1,65.5 47.8,67.2 45.5,68.7 43.3,70.3 41.1,71.8 38.9,73.2 36.8,74.6 34.9,75.8 33.1,76.9 31.4,77.9 29.9,78.7 28.6,79.3 27.5,79.7 26.7,79.9 26.0,79.8 25.6,79.6 25.4,79.1 25.4,78.3 25.5,77.4 25.9,76.2 26.4,74.9 27.1,73.4 27.8,71.7 28.7,69.9 29.6,68.0 30.5,66.0 31.4,63.9 32.3,61.9 33.2,59.9 34.0,57.8 34.8,55.9 35.4,54.0 36.0,52.2 36.6,50.5 37.0,49.0 37.3,47.6 37.6,46.3 37.8,45.1 37.9,44.1 38.0,43.2 38.0,42.5 38.0,41.8 37.9,41.4 37.8,41.0 37.7,40.7 37.6,40.6 37.5,40.6 37.5,40.7 37.4,40.9 37.5,41.3 37.6,41.8 37.8,42.4 38.1,43.2 38.6,44.1 39.2,45.2 40.0,46.4 40.9,47.9 42.1,49.5 43.4,51.2 45.0,53.1 46.7,55.2 48.7,57.5 50.9,59.8 53.2,62.2 55.7,64.8 58.4,67.4 61.1,70.0 63.9,72.6" class="highlight"/>
  
</svg>