<svg xmlns="http://www.w3.org/2000/svg" viewBox="0 0 120 120" role="img">
  <rect width="120" height="120" rx="10" fill="#f8f7f2"/>
  <style>
    .shadow{fill:none;stroke:#4a4f56;stroke-width:13;stroke-linecap:round;stroke-linejoin:round;opacity:.22}
    .rope{fill:none;stroke:#1778bd;stroke-width:8;stroke-linecap:round;stroke-linejoin:round}
    .highlight{fill:none;stroke:#4fb1f0;stroke-width:2.2;stroke-linecap:round;stroke-linejoin:round;opacity:.85}
  </style>
  
    <polyline points="67.9,77.3 71.3,79.8 74.7,82.1 77.8,84.1 80.6,85.8 83.1,87.1 85.3,88.1 87.1,88.8 88.6,89.1 89.7,89.2 90.4,88.9 90.9,88.3 91.0,87.5 90.9,86.4 90.6,85.2 90.1,83.7 89.5,82.1 88.7,80.4 87.9,78.5 87.0,76.5 86.2,74.4 85.3,72.2 84.5,69.9 83.7,67.4 82.9,64.9 82.3,62.2 81.7,59.5 81.2,56.6 80.8,53.7 80.6,50.7 80.4,47.7 80.3,44.7 80.3,41.7 80.4,38.9 80.5,36.1 80.7,33.5 80.9,31.1 81.0,29.0 81.0,27.1 81.0,25.7 80.8,24.6 80.4,23.9 79.8,23.6 78.9,23.8 77.8,24.4 76.4,25.4 74.8,26.9 72.9,28.7 70.7,30.9 68.3,33.3 65.7,36.0 62.9,38.9 60.1,42.0 57.1,45.1 54.2,48.3 51.3,51.5 48.5,54.6 45.8,57.7 43.3,60.7 40.9,63.5 38.7,66.2 36.7,68.7 34.8,71.1 33.2,73.4 31.8,75.4 30.6,77.3 29.6,79.1 28.8,80.7 28.1,82.1 27.6,83.4 27.3,84.5 27.2,85.4 27.2,86.2 27.4,86.8 27.8,87.1 28.4,87.2 29.1,87.1 29.9,86.6 30.9,85.9 32.0,84.9 33.1,83.6 34.4,82.0 35.6,80.1 36.9,77.9 38.2,75.4 39.4,72.8 40.5,69.9 41.6,67.0 42.6,63.9 43.5,60.8 44.3,57.7 45.0,54.7 45.7,51.7 46.3,49.0 46.9,46.5 47.5,44.2 48.2,42.2 48.9,40.5 49.8,39.1 50.7,38.0 51.8,37.2 52.9,36.8 54.3,36.6 55.7,36.8 57.3,37.2 59.0,37.8 60.9,38.6 62.8,39.6 64.8,40.8 67.0,42.1 69.1,43.5 71.4,45.1 73.7,46.7 76.0,48.4 78.3,50.1 80.7,52.0 83.0,53.8 85.3,55.8 87.6,57.8 89.8,59.8 91.9,61.8 93.8,63.9 95.6,66.0 97.1,68.1 98.4,70.1 99.4,72.0 100.1,73.8 100.4,75.5 100.4,77.0 100.0,78.3 99.2,79.4 98.1,80.2 96.7,80.8 95.0,81.0 93.0,80.9 90.8,80.6 88.5,79.9 86.0,78.9 83.6,77.6 81.1,76.1 78.7,74.4 76.5,72.4 74.3,70.4 72.4,68.2 70.6,66.0 69.0,63.7 67.6,61.5 66.4,59.3 65.4,57.2 64.5,55.3 63.7,53.4 63.0,51.7 62.4,50.2 61.8,48.8 61.2,47.6 60.6,46.6 60.0,45.7 59.2,45.0 58.4,44.4 57.5,44.1 56.5,43.8 55.3,43.8 53.9,43.8 52.4,44.1 50.7,44.5 48.8,45.1 46.7,45.9 44.4,46.9 42.0,48.0 39.5,49.4 36.8,51.0 34.1,52.8 31.3,54.7 28.6,56.9 25.9,59.2 23.5,61.6 21.2,64.1 19.1,66.7 17.4,69.3 16.1,71.8 15.2,74.3 14.8,76.6 14.8,78.8 15.3,80.8 16.3,82.5 17.7,84.0 19.5,85.1 21.7,85.9 24.2,86.3 26.9,86.4 29.8,86.2 32.8,85.6 35.9,84.8 39.0,83.6 42.0,82.2 44.9,80.6 47.6,78.8 50.2,76.8 52.5,74.7 54.6,72.4 56.5,70.2 58.1,67.8 59.6,65.5 60.9,63.1 62.0,60.7 62.9,58.3 63.7,55.9 64.4,53.6 65.0,51.2 65.6,48.9 66.1,46.6 66.6,44.4 67.2,42.2 67.8,40.0 68.6,38.0 69.4,36.1 70.3,34.3 71.4,32.7 72.7,31.4 74.2,30.3 75.8,29.4 77.6,28.9 79.6,28.8 81.8,29.0 84.0,29.6 86.3,30.5 88.7,31.9 91.1,33.6 93.3,35.7 95.5,38.2 97.4,40.9 99.1,43.9 100.5,47.0 101.6,50.4 102.2,53.8 102.5,57.2 102.4,60.6 101.9,64.0 100.9,67.2 99.6,70.3 97.9,73.1 96.0,75.8 93.7,78.1 91.3,80.2 88.7,82.1 85.9,83.6 83.2,84.9 80.3,85.9 77.5,86.7 74.7,87.2 72.0,87.6 69.4,87.7 66.9,87.6 64.5,87.3 62.2,86.9 60.0,86.2 58.0,85.4 56.1,84.4 54.3,83.1 52.7,81.7 51.2,80.1 49.8,78.2 48.6,76.1 47.4,73.8 46.4,71.2 45.6,68.5 44.8,65.6 44.1,62.5 43.4,59.3 42.8,56.0 42.2,52.6 41.6,49.3 41.0,46.1 40.3,42.9 39.6,40.0 38.7,37.2 37.8,34.8 36.8,32.6 35.7,30.8 34.6,29.4 33.4,28.3 32.2,27.7 31.0,27.5 29.9,27.7 28.8,28.2 27.9,29.1 27.1,30.3 26.5,31.9 26.1,33.6 25.9,35.6 25.9,37.7 26.1,40.0 26.6,42.3 27.3,44.8 28.2,47.2 29.3,49.7 30.6,52.2 32.0,54.6 33.7,57.0 35.4,59.4 37.4,61.7 39.4,64.0 41.6,66.3 44.0,68.5 46.4,70.6 49.0,72.7 51.6,74.6 54.3,76.5 57.1,78.2 60.0,79.8 62.8,81.3 65.6,82.5 68.4,83.5 71.0,84.3 73.5,84.8 75.9,84.9 78.0,84.8 79.9,84.4 81.5,83.6 82.9,82.5 84.0,81.1 84.8,79.5 85.4,77.6 85.8,75.4 85.9,73.1 85.9,70.6 85.7,68.0 85.5,65.4 85.2,62.8 84.8,60.3 84.5,57.8 84.2,55.4 84.0,53.3 83.9,51.3 83.8,49.5 83.8,47.9 83.9,46.6 84.0,45.5 84.2,44.7 84.5,44.0 84.8,43.6 85.2,43.4 85.5,43.4 85.9,43.6 86.2,43.9 86.5,44.4 86.7,45.0 86.9,45.8 86.9,46.7 86.8,47.7 86.6,48.9 86.2,50.2 85.6,51.6 84.7,53.2 83.6,54.9 82.3,56.7 80.6,58.6 78.6,60.6 76.4,62.7 73.8,64.8 71.0,67.0 68.0,69.1 64.7,71.2 61.3,73.1 57.8,75.0 54.3,76.7 50.8,78.2 47.3,79.4 44.1,80.4 41.1,81.1 38.3,81.4 35.9,81.5 33.8,81.2 32.2,80.6 30.9,79.8 29.9,78.6 29.4,77.2 29.2,75.6 29.3,73.7 29.7,71.7 30.3,69.6 31.1,67.5 32.0,65.2 33.0,63.0 34.0,60.8 35.0,58.6 36.0,56.5 36.9,54.4 37.6,52.5 38.3,50.6 38.8,48.9 39.2,47.2 39.4,45.7 39.5,44.3 39.5,43.0 39.3,41.8 39.0,40.8 38.6,39.9 38.1,39.1 37.5,38.5 36.9,38.1 36.4,37.9 35.9,37.9 35.4,38.2 35.1,38.7 35.0,39.5 35.1,40.6 35.5,42.0 36.2,43.7 37.2,45.7 38.5,47.9 40.2,50.4 42.3,53.2 44.7,56.1 47.4,59.1 50.5,62.2 53.7,65.4 57.2,68.5 60.7,71.6 64.3,74.5 67.9,77.3" class="shadow"/>
    <polyline points="67.9,77.3 71.3,79.8 74.7,82.1 77.8,84.1 80.6,85.8 83.1,87.1 85.3,88.1 87.1,88.8 88.6,89.1 89.7,89.2 90.4,88.9 90.9,88.3 91.0,87.5 90.9,86.4 90.6,85.2 90.1,83.7 89.5,82.1 88.7,80.4 87.9,78.5 87.0,76.5 86.2,74.4 85.3,72.2 84.5,69.9 83.7,67.4 82.9,64.9 82.3,62.2 81.7,59.5 81.2,56.6 80.8,53.7 80.6,50.7 80.4,47.7 80.3,44.7 80.3,41.7 80.4,38.9 80.5,36.1 80.7,33.5 80.9,31.1 81.0,29.0 81.0,27.1 81.0,25.7 80.8,24.6 80.4,23.9 79.8,23.6 78.9,23.8 77.8,24.4 76.4,25.4 74.8,26.9 72.9,28.7 70.7,30.9 68.3,33.3 65.7,36.0 62.9,38.9 60.1,42.0 57.1,45.1 54.2,48.3 51.3,51.5 48.5,54.6 45.8,57.7 43.3,60.7 40.9,63.5 38.7,66.2 36.7,68.7 34.8,71.1 33.2,73.4 31.8,75.4 30.6,77.3 29.6,79.1 28.8,80.7 28.1,82.1 27.6,83.4 27.3,84.5 27.2,85.4 27.2,86.2 27.4,86.8 27.8,87.1 28.4,87.2 29.1,87.1 29.9,86.6 30.9,85.9 32.0,84.9 33.1,83.6 34.4,82.0 35.6,80.1 36.9,77.9 38.2,75.4 39.4,72.8 40.5,69.9 41.6,67.0 42.6,63.9 43.5,60.8 44.3,57.7 45.0,54.7 45.7,51.7 46.3,49.0 46.9,46.5 47.5,44.2 48.2,42.2 48.9,40.5 49.8,39.1 50.7,38.0 51.8,37.2 52.9,36.8 54.3,36.6 55.7,36.8 57.3,37.2 59.0,37.8 60.9,38.6 62.8,39.6 64.8,40.8 67.0,42.1 69.1,43.5 71.4,45.1 73.7,46.7 76.0,48.4 78.3,50.1 80.7,52.0 83.0,53.8 85.3,55.8 87.6,57.8 89.8,59.8 91.9,61.8 93.8,63.9 95.6,66.0 97.1,68.1 98.4,70.1 99.4,72.0 100.1,73.8 100.4,75.5 100.4,77.0 100.0,78.3 99.2,79.4 98.1,80.2 96.7,80.8 95.0,81.0 93.0,80.9 90.8,80.6 88.5,79.9 86.0,78.9 83.6,77.6 81.1,76.1 78.7,74.4 76.5,72.4 74.3,70.4 72.4,68.2 70.6,66.0 69.0,63.7 67.6,61.5 66.4,59.3 65.4,57.2 64.5,55.3 63.7,53.4 63.0,51.7 62.4,50.2 61.8,48.8 61.2,47.6 60.6,46.6 60.0,45.7 59.2,45.0 58.4,44.4 57.5,44.1 56.5,43.8 55.3,43.8 53.9,43.8 52.4,44.1 50.7,44.5 48.8,45.1 46.7,45.9 44.4,46.9 42.0,48.0 39.5,49.4 36.8,51.0 34.1,52.8 31.3,54.7 28.6,56.9 25.9,59.2 23.5,61.6 21.2,64.1 19.1,66.7 17.4,69.3 16.1,71.8 15.2,74.3 14.8,76.6 14.8,78.8 15.3,80.8 16.3,82.5 17.7,84.0 19.5,85.1 21.7,85.9 24.2,86.3 26.9,86.4 29.8,86.2 32.8,85.6 35.9,84.8 39.0,83.6 42.0,82.2 44.9,80.6 47.6,78.8 50.2,76.8 52.5,74.7 54.6,72.4 56.5,70.2 58.1,67.8 59.6,65.5 60.9,63.1 62.0,60.7 62.9,58.3 63.7,55.9 64.4,53.6 65.0,51.2 65.6,48.9 66.1,46.6 66.6,44.4 67.2,42.2 67.8,40.0 68.6,38.0 69.4,36.1 70.3,34.3 71.4,32.7 72.7,31.4 74.2,30.3 75.8,29.4 77.6,28.9 79.6,28.8 81.8,29.0 84.0,29.6 86.3,30.5 88.7,31.9 91.1,33.6 93.3,35.7 95.5,38.2 97.4,40.9 99.1,43.9 100.5,47.0 101.6,50.4 102.2,53.8 102.5,57.2 102.4,60.6 101.9,64.0 100.9,67.2 99.6,70.3 97.9,73.1 96.0,75.8 93.7,78.1 91.3,80.2 88.7,82.1 85.9,83.6 83.2,84.9 80.3,85.9 77.5,86.7 74.7,87.2 72.0,87.6 69.4,87.7 66.9,87.6 64.5,87.3 62.2,86.9 60.0,86.2 58.0,85.4 56.1,84.4 54.3,83.1 52.7,81.7 51.2,80.1 49.8,78.2 48.6,76.1 47.4,73.8 46.4,71.2 45.6,68.5 44.8,65.6 44.1,62.5 43.4,59.3 42.8,56.0 42.2,52.6 41.6,49.3 41.0,46.1 40.3,42.9 39.6,40.0 38.7,37.2 37.8,34.8 36.8,32.6 35.7,30.8 34.6,29.4 33.4,28.3 32.2,27.7 31.0,27.5 29.9,27.7 28.8,28.2 27.9,29.1 27.1,30.3 26.5,31.9 26.1,33.6 25.9,35.6 25.9,37.7 26.1,40.0 26.6,42.3 27.3,44.8 28.2,47.2 29.3,49.7 30.6,52.2 32.0,54.6 33.7,57.0 35.4,59.4 37.4,61.7 39.4,64.0 41.6,66.3 44.0,68.5 46.4,70.6 49.0,72.7 51.6,74.6 54.3,76.5 57.1,78.2 60.0,79.8 62.8,81.3 65.6,82.5 68.4,83.5 71.0,84.3 73.5,84.8 75.9,84.9 78.0,84.8 79.9,84.4 81.5,83.6 82.9,82.5 84.0,81.1 84.8,79.5 85.4,77.6 85.8,75.4 85.9,73.1 85.9,70.6 85.7,68.0 85.5,65.4 85.2,62.8 84.8,60.3 84.5,57.8 84.2,55.4 84.0,53.3 83.9,51.3 83.8,49.5 83.8,47.9 83.9,46.6 84.0,45.5 84.2,44.7 84.5,44.0 84.8,43.6 85.2,43.4 85.5,43.4 85.9,43.6 86.2,43.9 86.5,44.4 86.7,45.0 86.9,45.8 86.9,46.7 86.8,47.7 86.6,48.9 86.2,50.2 85.6,51.6 84.7,53.2 83.6,54.9 82.3,56.7 80.6,58.6 78.6,60.6 76.4,62.7 73.8,64.8 71.0,67.0 68.0,69.1 64.7,71.2 61.3,73.1 57.8,75.0 54.3,76.7 50.8,78.2 47.3,79.4 44.1,80.4 41.1,81.1 38.3,81.4 35.9,81.5 33.8,81.2 32.2,80.6 30.9,79.8 29.9,78.6 29.4,77.2 29.2,75.6 29.3,73.7 29.7,71.7 30.3,69.6 31.1,67.5 32.0,65.2 33.0,63.0 34.0,60.8 35.0,58.6 36.0,56.5 36.9,54.4 37.6,52.5 38.3,50.6 38.8,48.9 39.2,47.2 39.4,45.7 39.5,44.3 39.5,43.0 39.3,41.8 39.0,40.8 38.6,39.9 38.1,39.1 37.5,38.5 36.9,38.1 36.4,37.9 35.9,37.9 35.4,38.2 35.1,38.7 35.0,39.5 35.1,40.6 35.5,42.0 36.2,43.7 37.2,45.7 38.5,47.9 40.2,50.4 42.3,53.2 44.7,56.1 47.4,59.1 50.5,62.2 53.7,65.4 57.2,68.5 60.7,71.6 64.3,74.5 67.9,77.3" class="rope"/>
    <rect x="60.0" y="29.8" width="20" height="6" rx="3" transform="rotate(110.0 70.0 32.8)" fill="#f8f7f2"/><rect x="55.6" y="29.8" width="20" height="6" rx="3" transform="rotate(80.0 65.6 32.8)" fill="#f8f7f2"/><rect x="30.0" y="29.8" width="20" height="6" rx="3" transform="rotate(50.0 40.0 32.8)" fill="#f8f7f2"/><rect x="80.5" y="29.8" width="20" height="6" rx="3" transform="rotate(20.0 90.5 32.8)" fill="#f8f7f2"/><rect x="15.1" y="29.8" width="20" height="6" rx="3" transform="rotate(170.0 25.1 32.8)" fill="#f8f7f2"/><rect x="82.4" y="29.8" width="20" height="6" rx="3" transform="rotate(140.0 92.4 32.8)" fill="#f8f7f2"/><rect x="83.2" y="53.4" width="20" height="6" rx="3" transform="rotate(70.0 93.2 56.4)" fill="#f8f7f2"/>
    <polyline points="67.9,77.3 71.3,79.8 74.7,82.1 77.8,84.1 80.6,85.8 83.1,87.1 85.3,88.1 87.1,88.8 88.6,89.1 89.7,89.2 90.4,88.9 90.9,88.3 91.0,87.5 90.9,86.4 90.6,85.2 90.1,83.7 89.5,82.1 88.7,80.4 87.9,78.5 87.0,76.5 86.2,74.4 85.3,72.2 84.5,69.9 83.7,67.4 82.9,64.9 82.3,62.2 81.7,59.5 81.2,56.6 80.8,53.7 80.6,50.7 80.4,47.7 80.3,44.7 80.3,41.7 80.4,38.9 80.5,36.1 80.7,33.5 80.9,31.1 81.0,29.0 81.0,27.1 81.0,25.7 80.8,24.6 80.4,23.9 79.8,23.6 78.9,23.8 77.8,24.4 76.4,25.4 74.8,26.9 72.9,28.7 70.7,30.9 68.3,33.3 65.7,36.0 62.9,38.9 60.1,42.0 57.1,45.1 54.2,48.3 51.3,51.5 48.5,54.6 45.8,57.7 43.3,60.7 40.9,63.5 38.7,66.2 36.7,68.7 34.8,71.1 33.2,73.4 31.8,75.4 30.6,77.3 29.6,79.1 28.8,80.7 28.1,82.1 27.6,83.4 27.3,84.5 27.2,85.4 27.2,86.2 27.4,86.8 27.8,87.1 28.4,87.2 29.1,87.1 29.9,86.6 30.9,85.9 32.0,84.9 33.1,83.6 34.4,82.0 35.6,80.1 36.9,77.9 38.2,75.4 39.4,72.8 40.5,69.9 41.6,67.0 42.6,63.9 43.5,60.8 44.3,57.7 45.0,54.7 45.7,51.7 46.3,49.0 46.9,46.5 47.5,44.2 48.2,42.2 48.9,40.5 49.8,39.1 50.7,38.0 51.8,37.2 52.9,36.8 54.3,36.6 55.7,36.8 57.3,37.2 59.0,37.8 60.9,38.6 62.8,39.6 64.8,40.8 67.0,42.1 69.1,43.5 71.4,45.1 73.7,46.7 76.0,48.4 78.3,50.1 80.7,52.0 83.0,53.8 85.3,55.8 87.6,57.8 89.8,59.8 91.9,61.8 93.8,63.9 95.6,66.0 97.1,68.1 98.4,70.1 99.4,72.0 100.1,73.8 100.4,75.5 100.4,77.0 100.0,78.3 99.2,79.4 98.1,80.2 96.7,80.8 95.0,81.0 93.0,80.9 90.8,80.6 88.5,79.9 86.0,78.9 83.6,77.6 81.1,76.1 78.7,74.4 76.5,72.4 74.3,70.4 72.4,68.2 70.6,66.0 69.0,63.7 67.6,61.5 66.4,59.3 65.4,57.2 64.5,55.3 63.7,53.4 63.0,51.7 62.4,50.2 61.8,48.8 61.2,47.6 60.6,46.6 60.0,45.7 59.2,45.0 58.4,44.4 57.5,44.1 56.5,43.8 55.3,43.8 53.9,43.8 52.4,44.1 50.7,44.5 48.8,45.1 46.7,45.9 44.4,46.9 42.0,48.0 39.5,49.4 36.8,51.0 34.1,52.8 31.3,54.7 28.6,56.9 25.9,59.2 23.5,61.6 21.2,64.1 19.1,66.7 17.4,69.3 16.1,71.8 15.2,74.3 14.8,76.6 14.8,78.8 15.3,80.8 16.3,82.5 17.7,84.0 19.5,85.1 21.7,85.9 24.2,86.3 26.9,86.4 29.8,86.2 32.8,85.6 35.9,84.8 39.0,83.6 42.0,82.2 44.9,80.6 47.6,78.8 50.2,76.8 52.5,74.7 54.6,72.4 56.5,70.2 58.1,67.8 59.6,65.5 60.9,63.1 62.0,60.7 62.9,58.3 63.7,55.9 64.4,53.6 65.0,51.2 65.6,48.9 66.1,46.6 66.6,44.4 67.2,42.2 67.8,40.0 68.6,38.0 69.4,36.1 70.3,34.3 71.4,32.7 72.7,31.4 74.2,30.3 75.8,29.4 77.6,28.9 79.6,28.8 81.8,29.0 84.0,29.6 86.3,30.5 88.7,31.9 91.1,33.6 93.3,35.7 95.5,38.2 97.4,40.9 99.1,43.9 100.5,47.0 101.6,50.4 102.2,53.8 102.5,57.2 102.4,60.6 101.9,64.0 100.9,67.2 99.6,70.3 97.9,73.1 96.0,75.8 93.7,78.1 91.3,80.2 88.7,82.1 85.9,83.6 83.2,84.9 80.3,85.9 77.5,86.7 74.7,87.2 72.0,87.6 69.4,87.7 66.9,87.6 64.5,87.3 62.2,86.9 60.0,86.2 58.0,85.4 56.1,84.4 54.3,83.1 52.7,81.7 51.2,80.1 49.8,78.2 48.6,76.1 47.4,73.8 46.4,71.2 45.6,68.5 44.8,65.6 44.1,62.5 43.4,59.3 42.8,56.0 42.2,52.6 41.6,49.3 41.0,46.1 40.3,42.9 39.6,40.0 38.7,37.2 37.8,34.8 36.8,32.6 35.7,30.8 34.6,29.4 33.4,28.3 32.2,27.7 31.0,27.5 29.9,27.7 28.8,28.2 27.9,29.1 27.1,30.3 26.5,31.9 26.1,33.6 25.9,35.6 25.9,37.7 26.1,40.0 26.6,42.3 27.3,44.8 28.2,47.2 29.3,49.7 30.6,52.2 32.0,54.6 33.7,57.0 35.4,59.4 37.4,61.7 39.4,64.0 41.6,66.3 44.0,68.5 46.4,70.6 49.0,72.7 51.6,74.6 54.3,76.5 57.1,78.2 60.0,79.8 62.8,81.3 65.6,82.5 68.4,83.5 71.0,84.3 73.5,84.8 75.9,84.9 78.0,84.8 79.9,84.4 81.5,83.6 82.9,82.5 84.0,81.1 84.8,79.5 85.4,77.6 85.8,75.4 85.9,73.1 85.9,70.6 85.7,68.0 85.5,65.4 85.2,62.8 84.8,60.3 84.5,57.8 84.2,55.4 84.0,53.3 83.9,51.3 83.8,49.5 83.8,47.9 83.9,46.6 84.0,45.5 84.2,44.7 84.5,44.0 84.8,43.6 85.2,43.4 85.5,43.4 85.9,43.6 86.2,43.9 86.5,44.4 86.7,45.0 86.9,45.8 86.9,46.7 86.8,47.7 86.6,48.9 86.2,50.2 85.6,51.6 84.7,53.2 83.6,54.9 82.3,56.7 80.6,58.6 78.6,60.6 76.4,62.7 73.8,64.8 71.0,67.0 68.0,69.1 64.7,71.2 61.3,73.1 57.8,75.0 54.3,76.7 50.8,78.2 47.3,79.4 44.1,80.4 41.1,81.1 38.3,81.4 35.9,81.5 33.8,81.2 32.2,80.6 30.9,79.8 29.9,78.6 29.4,77.2 29.2,75.6 29.3,73.7 29.7,71.7 30.3,69.6 31.1,67.5 32.0,65.2 33.0,63.0 34.0,60.8 35.0,58.6 36.0,56.5 36.9,54.4 37.6,52.5 38.3,50.6 38.8,48.9 39.2,47.2 39.4,45.7 39.5,44.3 39.5,43.0 39.3,41.8 39.0,40.8 38.6,39.9 38.1,39.1 37.5,38.5 36.9,38.1 36.4,37.9 35.9,37.9 35.4,38.2 35.1,38.7 35.0,39.5 35.1,40.6 35.5,42.0 36.2,43.7 37.2,45.7 38.5,47.9 40.2,50.4 42.3,53.2 44.7,56.1 47.4,59.1 50.5,62.2 53.7,65.4 57.2,68.5 60.7,71.6 64.3,74.5 67.9,77.3" class="highlight"/>
  
</svg>