<svg xmlns="http://www.w3.org/2000/svg" viewBox="0 0 120 120" role="img">
  <rect width="120" height="120" rx="10" fill="#f8f7f2"/>
  <style>
    .shadow{fill:none;stroke:#4a4f56;stroke-width:13;stroke-linecap:round;stroke-linejoin:round;opacity:.22}
    .rope{fill:none;stroke:#1778bd;stroke-width:8;stroke-linecap:round;stroke-linejoin:round}
    .highlight{fill:none;stroke:#4fb1f0;stroke-width:2.2;stroke-linecap:round;stroke-linejoin:round;opacity:.85}
  </style>
  
    <polyline points="70.6,79.6 73.6,80.2 76.5,80.8 79.2,81.2 81.7,81.6 83.9,81.9 85.9,82.0 87.7,82.1 89.3,82.2 90.6,82.2 91.7,82.1 92.6,82.0 93.3,81.8 93.7,81.7 94.0,81.5 94.1,81.3 94.0,81.1 93.7,80.8 93.2,80.6 92.5,80.4 91.7,80.1 90.6,79.9 89.4,79.6 88.0,79.3 86.5,79.1 84.7,78.8 82.8,78.5 80.7,78.2 78.4,78.0 76.0,77.6 73.5,77.3 70.8,77.0 68.0,76.7 65.1,76.3 62.2,76.0 59.2,75.6 56.2,75.2 53.2,74.8 50.3,74.4 47.5,74.0 44.8,73.6 42.2,73.2 39.8,72.7 37.5,72.3 35.5,71.8 33.7,71.4 32.1,70.9 30.8,70.4 29.8,69.9 28.9,69.4 28.4,68.9 28.1,68.4 28.0,67.8 28.1,67.3 28.5,66.7 29.0,66.1 29.8,65.5 30.6,64.9 31.6,64.2 32.7,63.6 33.9,62.9 35.2,62.2 36.5,61.5 37.9,60.8 39.3,60.0 40.7,59.3 42.0,58.5 43.4,57.8 44.8,57.0 46.1,56.2 47.4,55.4 48.7,54.5 50.0,53.7 51.3,52.8 52.5,51.9 53.7,51.0 54.9,50.1 56.1,49.1 57.3,48.1 58.6,47.1 59.8,46.0 61.1,44.9 62.4,43.8 63.7,42.6 65.1,41.5 66.5,40.3 68.0,39.1 69.5,37.9 71.1,36.7 72.7,35.5 74.4,34.3 76.1,33.2 77.8,32.1 79.5,31.0 81.2,30.0 82.9,29.2 84.6,28.4 86.2,27.7 87.7,27.1 89.2,26.7 90.5,26.4 91.7,26.2 92.7,26.2 93.5,26.4 94.1,26.7 94.5,27.2 94.6,27.8 94.5,28.6 94.2,29.6 93.5,30.7 92.7,31.9 91.5,33.3 90.1,34.7 88.5,36.3 86.6,37.9 84.5,39.7 82.3,41.4 79.8,43.2 77.3,45.1 74.6,46.9 71.8,48.8 69.0,50.6 66.1,52.4 63.2,54.2 60.3,55.9 57.5,57.6 54.7,59.3 52.0,60.8 49.3,62.4 46.8,63.8 44.3,65.2 42.0,66.6 39.7,67.9 37.6,69.1 35.6,70.3 33.8,71.5 32.0,72.6 30.5,73.7 29.0,74.7 27.8,75.7 26.6,76.7 25.7,77.7 25.0,78.6 24.4,79.4 24.1,80.3 24.0,81.1 24.1,81.8 24.5,82.5 25.1,83.2 26.0,83.8 27.2,84.3 28.7,84.8 30.4,85.2 32.5,85.6 34.8,85.8 37.3,86.0 40.1,86.1 43.2,86.1 46.4,86.0 49.7,85.9 53.2,85.7 56.8,85.3 60.3,85.0 63.9,84.5 67.5,84.0 71.0,83.4 74.3,82.8 77.5,82.2 80.5,81.5 83.2,80.7 85.7,80.0 87.9,79.2 89.8,78.4 91.4,77.6 92.7,76.9 93.7,76.1 94.4,75.3 94.8,74.6 94.9,73.9 94.7,73.2 94.3,72.5 93.6,71.8 92.8,71.2 91.7,70.6 90.5,70.0 89.2,69.5 87.7,68.9 86.2,68.4 84.6,68.0 83.0,67.5 81.3,67.0 79.6,66.6 77.9,66.1 76.3,65.7 74.6,65.3 72.9,64.8 71.2,64.4 69.6,63.9 68.0,63.5 66.4,63.0 64.8,62.5 63.3,61.9 61.7,61.3 60.2,60.7 58.7,60.0 57.2,59.3 55.7,58.6 54.2,57.7 52.7,56.8 51.3,55.9 49.8,54.9 48.4,53.8 47.0,52.7 45.6,51.5 44.3,50.3 42.9,49.0 41.7,47.7 40.4,46.3 39.2,44.9 38.1,43.5 37.0,42.1 35.9,40.7 35.0,39.3 34.1,38.0 33.4,36.7 32.7,35.4 32.1,34.2 31.7,33.1 31.4,32.1 31.2,31.2 31.2,30.4 31.3,29.7 31.5,29.1 31.9,28.7 32.5,28.3 33.2,28.1 34.0,28.1 35.1,28.2 36.2,28.4 37.5,28.7 38.9,29.1 40.5,29.6 42.1,30.3 43.8,31.0 45.7,31.8 47.6,32.7 49.6,33.6 51.6,34.6 53.7,35.7 55.8,36.8 58.0,37.9 60.2,39.0 62.4,40.2 64.6,41.4 66.9,42.6 69.1,43.9 71.4,45.1 73.6,46.4 75.8,47.7 78.1,49.1 80.2,50.4 82.4,51.8 84.5,53.2 86.5,54.7 88.5,56.2 90.3,57.7 92.1,59.3 93.7,60.9 95.1,62.5 96.3,64.1 97.3,65.8 98.1,67.4 98.6,69.1 98.8,70.8 98.7,72.4 98.3,74.0 97.5,75.6 96.4,77.2 95.0,78.6 93.2,80.0 91.0,81.3 88.6,82.5 85.9,83.6 82.9,84.6 79.6,85.5 76.2,86.3 72.6,86.9 68.9,87.4 65.1,87.7 61.3,88.0 57.5,88.1 53.8,88.0 50.2,87.9 46.7,87.6 43.5,87.3 40.4,86.8 37.6,86.3 35.0,85.7 32.8,85.0 30.8,84.3 29.1,83.6 27.8,82.8 26.7,82.0 25.9,81.2 25.4,80.3 25.2,79.5 25.3,78.7 25.5,77.9 26.0,77.2 26.7,76.4 27.5,75.7 28.6,75.1 29.7,74.4 31.0,73.8 32.4,73.3 33.9,72.8 35.5,72.3 37.2,71.8 39.0,71.4 40.8,71.0 42.7,70.7 44.7,70.3 46.7,70.0 48.7,69.7 50.8,69.4 53.0,69.1 55.1,68.9 57.3,68.6 59.5,68.3 61.7,68.0 63.9,67.7 66.1,67.4 68.2,67.1 70.3,66.7 72.3,66.3 74.2,65.9 76.1,65.4 77.8,64.9 79.4,64.4 80.9,63.8 82.2,63.1 83.4,62.5 84.5,61.7 85.4,60.9 86.2,60.1 86.8,59.2 87.2,58.2 87.5,57.2 87.7,56.2 87.7,55.2 87.7,54.1 87.4,53.0 87.1,51.9 86.7,50.8 86.2,49.7 85.5,48.7 84.8,47.6 84.1,46.5 83.2,45.5 82.3,44.5 81.4,43.6 80.4,42.7 79.3,41.8 78.2,41.0 77.1,40.3 75.9,39.5 74.7,38.9 73.5,38.3 72.3,37.7 71.0,37.2 69.6,36.7 68.3,36.2 66.9,35.8 65.5,35.4 64.0,35.1 62.5,34.7 60.9,34.5 59.3,34.2 57.6,34.0 55.9,33.8 54.1,33.6 52.2,33.5 50.3,33.5 48.4,33.5 46.4,33.5 44.3,33.7 42.2,33.9 40.1,34.2 38.0,34.6 35.9,35.0 33.9,35.6 31.9,36.3 30.0,37.1 28.2,38.1 26.6,39.1 25.1,40.3 23.8,41.6 22.8,43.0 22.0,44.5 21.5,46.1 21.3,47.8 21.4,49.6 21.9,51.4 22.6,53.3 23.7,55.2 25.2,57.1 27.0,59.1 29.0,61.0 31.4,63.0 34.0,64.8 36.9,66.7 40.0,68.4 43.2,70.1 46.6,71.7 50.1,73.1 53.6,74.5 57.1,75.8 60.6,76.9 64.0,77.9 67.4,78.8 70.6,79.6" class="shadow"/>
    <polyline points="70.6,79.6 73.6,80.2 76.5,80.8 79.2,81.2 81.7,81.6 83.9,81.9 85.9,82.0 87.7,82.1 89.3,82.2 90.6,82.2 91.7,82.1 92.6,82.0 93.3,81.8 93.7,81.7 94.0,81.5 94.1,81.3 94.0,81.1 93.7,80.8 93.2,80.6 92.5,80.4 91.7,80.1 90.6,79.9 89.4,79.6 88.0,79.3 86.5,79.1 84.7,78.8 82.8,78.5 80.7,78.2 78.4,78.0 76.0,77.6 73.5,77.3 70.8,77.0 68.0,76.7 65.1,76.3 62.2,76.0 59.2,75.6 56.2,75.2 53.2,74.8 50.3,74.4 47.5,74.0 44.8,73.6 42.2,73.2 39.8,72.7 37.5,72.3 35.5,71.8 33.7,71.4 32.1,70.9 30.8,70.4 29.8,69.9 28.9,69.4 28.4,68.9 28.1,68.4 28.0,67.8 28.1,67.3 28.5,66.7 29.0,66.1 29.8,65.5 30.6,64.9 31.6,64.2 32.7,63.6 33.9,62.9 35.2,62.2 36.5,61.5 37.9,60.8 39.3,60.0 40.7,59.3 42.0,58.5 43.4,57.8 44.8,57.0 46.1,56.2 47.4,55.4 48.7,54.5 50.0,53.7 51.3,52.8 52.5,51.9 53.7,51.0 54.9,50.1 56.1,49.1 57.3,48.1 58.6,47.1 59.8,46.0 61.1,44.9 62.4,43.8 63.7,42.6 65.1,41.5 66.5,40.3 68.0,39.1 69.5,37.9 71.1,36.7 72.7,35.5 74.4,34.3 76.1,33.2 77.8,32.1 79.5,31.0 81.2,30.0 82.9,29.2 84.6,28.4 86.2,27.7 87.7,27.1 89.2,26.7 90.5,26.4 91.7,26.2 92.7,26.2 93.5,26.4 94.1,26.7 94.5,27.2 94.6,27.8 94.5,28.6 94.2,29.6 93.5,30.7 92.7,31.9 91.5,33.3 90.1,34.7 88.5,36.3 86.6,37.9 84.5,39.7 82.3,41.4 79.8,43.2 77.3,45.1 74.6,46.9 71.8,48.8 69.0,50.6 66.1,52.4 63.2,54.2 60.3,55.9 57.5,57.6 54.7,59.3 52.0,60.8 49.3,62.4 46.8,63.8 44.3,65.2 42.0,66.6 39.7,67.9 37.6,69.1 35.6,70.3 33.8,71.5 32.0,72.6 30.5,73.7 29.0,74.7 27.8,75.7 26.6,76.7 25.7,77.7 25.0,78.6 24.4,79.4 24.1,80.3 24.0,81.1 24.1,81.8 24.5,82.5 25.1,83.2 26.0,83.8 27.2,84.3 28.7,84.8 30.4,85.2 32.5,85.6 34.8,85.8 37.3,86.0 40.1,86.1 43.2,86.1 46.4,86.0 49.7,85.9 53.2,85.7 56.8,85.3 60.3,85.0 63.9,84.5 67.5,84.0 71.0,83.4 74.3,82.8 77.5,82.2 80.5,81.5 83.2,80.7 85.7,80.0 87.9,79.2 89.8,78.4 91.4,77.6 92.7,76.9 93.7,76.1 94.4,75.3 94.8,74.6 94.9,73.9 94.7,73.2 94.3,72.5 93.6,71.8 92.8,71.2 91.7,70.6 90.5,70.0 89.2,69.5 87.7,68.9 86.2,68.4 84.6,68.0 83.0,67.5 81.3,67.0 79.6,66.6 77.9,66.1 76.3,65.7 74.6,65.3 72.9,64.8 71.2,64.4 69.6,63.9 68.0,63.5 66.4,63.0 64.8,62.5 63.3,61.9 61.7,61.3 60.2,60.7 58.7,60.0 57.2,59.3 55.7,58.6 54.2,57.7 52.7,56.8 51.3,55.9 49.8,54.9 48.4,53.8 47.0,52.7 45.6,51.5 44.3,50.3 42.9,49.0 41.7,47.7 40.4,46.3 39.2,44.9 38.1,43.5 37.0,42.1 35.9,40.7 35.0,39.3 34.1,38.0 33.4,36.7 32.7,35.4 32.1,34.2 31.7,33.1 31.4,32.1 31.2,31.2 31.2,30.4 31.3,29.7 31.5,29.1 31.9,28.7 32.5,28.3 33.2,28.1 34.0,28.1 35.1,28.2 36.2,28.4 37.5,28.7 38.9,29.1 40.5,29.6 42.1,30.3 43.8,31.0 45.7,31.8 47.6,32.7 49.6,33.6 51.6,34.6 53.7,35.7 55.8,36.8 58.0,37.9 60.2,39.0 62.4,40.2 64.6,41.4 66.9,42.6 69.1,43.9 71.4,45.1 73.6,46.4 75.8,47.7 78.1,49.1 80.2,50.4 82.4,51.8 84.5,53.2 86.5,54.7 88.5,56.2 90.3,57.7 92.1,59.3 93.7,60.9 95.1,62.5 96.3,64.1 97.3,65.8 98.1,67.4 98.6,69.1 98.8,70.8 98.7,72.4 98.3,74.0 97.5,75.6 96.4,77.2 95.0,78.6 93.2,80.0 91.0,81.3 88.6,82.5 85.9,83.6 82.9,84.6 79.6,85.5 76.2,86.3 72.6,86.9 68.9,87.4 65.1,87.7 61.3,88.0 57.5,88.1 53.8,88.0 50.2,87.9 46.7,87.6 43.5,87.3 40.4,86.8 37.6,86.3 35.0,85.7 32.8,85.0 30.8,84.3 29.1,83.6 27.8,82.8 26.7,82.0 25.9,81.2 25.4,80.3 25.2,79.5 25.3,78.7 25.5,77.9 26.0,77.2 26.7,76.4 27.5,75.7 28.6,75.1 29.7,74.4 31.0,73.8 32.4,73.3 33.9,72.8 35.5,72.3 37.2,71.8 39.0,71.4 40.8,71.0 42.7,70.7 44.7,70.3 46.7,70.0 48.7,69.7 50.8,69.4 53.0,69.1 55.1,68.9 57.3,68.6 59.5,68.3 61.7,68.0 63.9,67.7 66.1,67.4 68.2,67.1 70.3,66.7 72.3,66.3 74.2,65.9 76.1,65.4 77.8,64.9 79.4,64.4 80.9,63.8 82.2,63.1 83.4,62.5 84.5,61.7 85.4,60.9 86.2,60.1 86.8,59.2 87.2,58.2 87.5,57.2 87.7,56.2 87.7,55.2 87.7,54.1 87.4,53.0 87.1,51.9 86.7,50.8 86.2,49.7 85.5,48.7 84.8,47.6 84.1,46.5 83.2,45.5 82.3,44.5 81.4,43.6 80.4,42.7 79.3,41.8 78.2,41.0 77.1,40.3 75.9,39.5 74.7,38.9 73.5,38.3 72.3,37.7 71.0,37.2 69.6,36.7 68.3,36.2 66.9,35.8 65.5,35.4 64.0,35.1 62.5,34.7 60.9,34.5 59.3,34.2 57.6,34.0 55.9,33.8 54.1,33.6 52.2,33.5 50.3,33.5 48.4,33.5 46.4,33.5 44.3,33.7 42.2,33.9 40.1,34.2 38.0,34.6 35.9,35.0 33.9,35.6 31.9,36.3 30.0,37.1 28.2,38.1 26.6,39.1 25.1,40.3 23.8,41.6 22.8,43.0 22.0,44.5 21.5,46.1 21.3,47.8 21.4,49.6 21.9,51.4 22.6,53.3 23.7,55.2 25.2,57.1 27.0,59.1 29.0,61.0 31.4,63.0 34.0,64.8 36.9,66.7 40.0,68.4 43.2,70.1 46.6,71.7 50.1,73.1 53.6,74.5 57.1,75.8 60.6,76.9 64.0,77.9 67.4,78.8 70.6,79.6" class="rope"/>
    <rect x="16.3" y="61.5" width="20" height="6" rx="3" transform="rotate(2.5 26.3 64.5)" fill="#f8f7f2"/><rect x="66.6" y="40.9" width="20" height="6" rx="3" transform="rotate(152.5 76.6 43.9)" fill="#f8f7f2"/><rect x="76.4" y="81.4" width="20" height="6" rx="3" transform="rotate(122.5 86.4 84.4)" fill="#f8f7f2"/><rect x="21.7" y="29.1" width="20" height="6" rx="3" transform="rotate(92.5 31.7 32.1)" fill="#f8f7f2"/><rect x="36.2" y="82.9" width="20" height="6" rx="3" transform="rotate(62.5 46.2 85.9)" fill="#f8f7f2"/><rect x="84.4" y="38.2" width="20" height="6" rx="3" transform="rotate(32.5 94.4 41.2)" fill="#f8f7f2"/><rect x="46.3" y="78.6" width="20" height="6" rx="3" transform="rotate(142.5 56.3 81.6)" fill="#f8f7f2"/>
    <polyline points="70.6,79.6 73.6,80.2 76.5,80.8 79.2,81.2 81.7,81.6 83.9,81.9 85.9,82.0 87.7,82.1 89.3,82.2 90.6,82.2 91.7,82.1 92.6,82.0 93.3,81.8 93.7,81.7 94.0,81.5 94.1,81.3 94.0,81.1 93.7,80.8 93.2,80.6 92.5,80.4 91.7,80.1 90.6,79.9 89.4,79.6 88.0,79.3 86.5,79.1 84.7,78.8 82.8,78.5 80.7,78.2 78.4,78.0 76.0,77.6 73.5,77.3 70.8,77.0 68.0,76.7 65.1,76.3 62.2,76.0 59.2,75.6 56.2,75.2 53.2,74.8 50.3,74.4 47.5,74.0 44.8,73.6 42.2,73.2 39.8,72.7 37.5,72.3 35.5,71.8 33.7,71.4 32.1,70.9 30.8,70.4 29.8,69.9 28.9,69.4 28.4,68.9 28.1,68.4 28.0,67.8 28.1,67.3 28.5,66.7 29.0,66.1 29.8,65.5 30.6,64.9 31.6,64.2 32.7,63.6 33.9,62.9 35.2,62.2 36.5,61.5 37.9,60.8 39.3,60.0 40.7,59.3 42.0,58.5 43.4,57.8 44.8,57.0 46.1,56.2 47.4,55.4 48.7,54.5 50.0,53.7 51.3,52.8 52.5,51.9 53.7,51.0 54.9,50.1 56.1,49.1 57.3,48.1 58.6,47.1 59.8,46.0 61.1,44.9 62.4,43.8 63.7,42.6 65.1,41.5 66.5,40.3 68.0,39.1 69.5,37.9 71.1,36.7 72.7,35.5 74.4,34.3 76.1,33.2 77.8,32.1 79.5,31.0 81.2,30.0 82.9,29.2 84.6,28.4 86.2,27.7 87.7,27.1 89.2,26.7 90.5,26.4 91.7,26.2 92.7,26.2 93.5,26.4 94.1,26.7 94.5,27.2 94.6,27.8 94.5,28.6 94.2,29.6 93.5,30.7 92.7,31.9 91.5,33.3 90.1,34.7 88.5,36.3 86.6,37.9 84.5,39.7 82.3,41.4 79.8,43.2 77.3,45.1 74.6,46.9 71.8,48.8 69.0,50.6 66.1,52.4 63.2,54.2 60.3,55.9 57.5,57.6 54.7,59.3 52.0,60.8 49.3,62.4 46.8,63.8 44.3,65.2 42.0,66.6 39.7,67.9 37.6,69.1 35.6,70.3 33.8,71.5 32.0,72.6 30.5,73.7 29.0,74.7 27.8,75.7 26.6,76.7 25.7,77.7 25.0,78.6 24.4,79.4 24.1,80.3 24.0,81.1 24.1,81.8 24.5,82.5 25.1,83.2 26.0,83.8 27.2,84.3 28.7,84.8 30.4,85.2 32.5,85.6 34.8,85.8 37.3,86.0 40.1,86.1 43.2,86.1 46.4,86.0 49.7,85.9 53.2,85.7 56.8,85.3 60.3,85.0 63.9,84.5 67.5,84.0 71.0,83.4 74.3,82.8 77.5,82.2 80.5,81.5 83.2,80.7 85.7,80.0 87.9,79.2 89.8,78.4 91.4,77.6 92.7,76.9 93.7,76.1 94.4,75.3 94.8,74.6 94.9,73.9 94.7,73.2 94.3,72.5 93.6,71.8 92.8,71.2 91.7,70.6 90.5,70.0 89.2,69.5 87.7,68.9 86.2,68.4 84.6,68.0 83.0,67.5 81.3,67.0 79.6,66.6 77.9,66.1 76.3,65.7 74.6,65.3 72.9,64.8 71.2,64.4 69.6,63.9 68.0,63.5 66.4,63.0 64.8,62.5 63.3,61.9 61.7,61.3 60.2,60.7 58.7,60.0 57.2,59.3 55.7,58.6 54.2,57.7 52.7,56.8 51.3,55.9 49.8,54.9 48.4,53.8 47.0,52.7 45.6,51.5 44.3,50.3 42.9,49.0 41.7,47.7 40.4,46.3 39.2,44.9 38.1,43.5 37.0,42.1 35.9,40.7 35.0,39.3 34.1,38.0 33.4,36.7 32.7,35.4 32.1,34.2 31.7,33.1 31.4,32.1 31.2,31.2 31.2,30.4 31.3,29.7 31.5,29.1 31.9,28.7 32.5,28.3 33.2,28.1 34.0,28.1 35.1,28.2 36.2,28.4 37.5,28.7 38.9,29.1 40.5,29.6 42.1,30.3 43.8,31.0 45.7,31.8 47.6,32.7 49.6,33.6 51.6,34.6 53.7,35.7 55.8,36.8 58.0,37.9 60.2,39.0 62.4,40.2 64.6,41.4 66.9,42.6 69.1,43.9 71.4,45.1 73.6,46.4 75.8,47.7 78.1,49.1 80.2,50.4 82.4,51.8 84.5,53.2 86.5,54.7 88.5,56.2 90.3,57.7 92.1,59.3 93.7,60.9 95.1,62.5 96.3,64.1 97.3,65.8 98.1,67.4 98.6,69.1 98.8,70.8 98.7,72.4 98.3,74.0 97.5,75.6 96.4,77.2 95.0,78.6 93.2,80.0 91.0,81.3 88.6,82.5 85.9,83.6 82.9,84.6 79.6,85.5 76.2,86.3 72.6,86.9 68.9,87.4 65.1,87.7 61.3,88.0 57.5,88.1 53.8,88.0 50.2,87.9 46.7,87.6 43.5,87.3 40.4,86.8 37.6,86.3 35.0,85.7 32.8,85.0 30.8,84.3 29.1,83.6 27.8,82.8 26.7,82.0 25.9,81.2 25.4,80.3 25.2,79.5 25.3,78.7 25.5,77.9 26.0,77.2 26.7,76.4 27.5,75.7 28.6,75.1 29.7,74.4 31.0,73.8 32.4,73.3 33.9,72.8 35.5,72.3 37.2,71.8 39.0,71.4 40.8,71.0 42.7,70.7 44.7,70.3 46.7,70.0 48.7,69.7 50.8,69.4 53.0,69.1 55.1,68.9 57.3,68.6 59.5,68.3 61.7,68.0 63.9,67.7 66.1,67.4 68.2,67.1 70.3,66.7 72.3,66.3 74.2,65.9 76.1,65.4 77.8,64.9 79.4,64.4 80.9,63.8 82.2,63.1 83.4,62.5 84.5,61.7 85.4,60.9 86.2,60.1 86.8,59.2 87.2,58.2 87.5,57.2 87.7,56.2 87.7,55.2 87.7,54.1 87.4,53.0 87.1,51.9 86.7,50.8 86.2,49.7 85.5,48.7 84.8,47.6 84.1,46.5 83.2,45.5 82.3,44.5 81.4,43.6 80.4,42.7 79.3,41.8 78.2,41.0 77.1,40.3 75.9,39.5 74.7,38.9 73.5,38.3 72.3,37.7 71.0,37.2 69.6,36.7 68.3,36.2 66.9,35.8 65.5,35.4 64.0,35.1 62.5,34.7 60.9,34.5 59.3,34.2 57.6,34.0 55.9,33.8 54.1,33.6 52.2,33.5 50.3,33.5 48.4,33.5 46.4,33.5 44.3,33.7 42.2,33.9 40.1,34.2 38.0,34.6 35.9,35.0 33.9,35.6 31.9,36.3 30.0,37.1 28.2,38.1 26.6,39.1 25.1,40.3 23.8,41.6 22.8,43.0 22.0,44.5 21.5,46.1 21.3,47.8 21.4,49.6 21.9,51.4 22.6,53.3 23.7,55.2 25.2,57.1 27.0,59.1 29.0,61.0 31.4,63.0 34.0,64.8 36.9,66.7 40.0,68.4 43.2,70.1 46.6,71.7 50.1,73.1 53.6,74.5 57.1,75.8 60.6,76.9 64.0,77.9 67.4,78.8 70.6,79.6" class="highlight"/>
  
</svg>