<svg xmlns="http://www.w3.org/2000/svg" viewBox="0 0 120 120" role="img">
  <rect width="120" height="120" rx="10" fill="#f8f7f2"/>
  <style>
    .shadow{fill:none;stroke:#4a4f56;stroke-width:13;stroke-linecap:round;stroke-linejoin:round;opacity:.22}
    .rope{fill:none;stroke:#1778bd;stroke-width:8;stroke-linecap:round;stroke-linejoin:round}
    .highlight{fill:none;stroke:#4fb1f0;stroke-width:2.2;stroke-linecap:round;stroke-linejoin:round;opacity:.85}
  </style>
  
    <polyline points="72.2,80.3 73.4,81.1 74.7,81.8 75.9,82.5 77.1,83.1 78.3,83.7 79.5,84.3 80.7,84.9 81.9,85.5 83.1,86.0 84.4,86.5 85.6,87.0 86.8,87.4 88.1,87.8 89.3,88.2 90.5,88.5 91.7,88.7 92.8,88.8 93.9,88.9 95.0,88.8 95.9,88.6 96.8,88.3 97.6,87.9 98.2,87.3 98.8,86.6 99.2,85.7 99.5,84.7 99.7,83.6 99.7,82.3 99.5,80.9 99.3,79.3 98.9,77.6 98.4,75.9 97.7,74.0 97.0,72.1 96.1,70.2 95.2,68.2 94.2,66.1 93.1,64.1 92.0,62.1 90.8,60.2 89.7,58.2 88.5,56.4 87.4,54.6 86.2,52.8 85.1,51.2 84.1,49.6 83.1,48.2 82.1,46.8 81.3,45.5 80.4,44.3 79.7,43.1 79.0,42.0 78.4,41.0 77.9,40.1 77.5,39.2 77.1,38.3 76.8,37.4 76.6,36.6 76.4,35.8 76.3,35.1 76.3,34.3 76.3,33.6 76.4,32.9 76.5,32.2 76.7,31.6 76.9,31.0 77.1,30.4 77.3,29.9 77.5,29.5 77.8,29.1 78.0,28.9 78.2,28.8 78.4,28.7 78.5,28.8 78.6,29.1 78.6,29.5 78.5,30.0 78.4,30.7 78.2,31.6 77.8,32.6 77.4,33.7 76.9,35.0 76.2,36.5 75.5,38.0 74.6,39.7 73.7,41.4 72.6,43.3 71.5,45.2 70.3,47.2 69.0,49.1 67.6,51.1 66.2,53.1 64.8,55.1 63.3,57.1 61.8,59.0 60.4,60.8 58.9,62.6 57.4,64.3 55.9,65.9 54.5,67.5 53.1,68.9 51.7,70.3 50.4,71.6 49.1,72.9 47.8,74.1 46.6,75.2 45.3,76.2 44.1,77.3 42.9,78.3 41.7,79.2 40.5,80.1 39.3,81.0 38.1,81.9 36.9,82.8 35.6,83.6 34.4,84.5 33.2,85.3 31.9,86.0 30.7,86.8 29.5,87.4 28.3,88.1 27.2,88.6 26.1,89.1 25.0,89.5 24.1,89.8 23.2,89.9 22.4,90.0 21.8,89.9 21.2,89.7 20.8,89.3 20.5,88.8 20.3,88.1 20.3,87.3 20.5,86.4 20.7,85.3 21.1,84.1 21.6,82.7 22.3,81.3 23.0,79.7 23.9,78.1 24.8,76.4 25.8,74.6 26.9,72.8 28.0,71.0 29.2,69.2 30.3,67.4 31.5,65.7 32.6,63.9 33.8,62.2 34.9,60.6 35.9,59.0 36.9,57.5 37.9,56.0 38.7,54.7 39.6,53.4 40.3,52.1 41.0,50.9 41.6,49.8 42.1,48.7 42.5,47.7 42.9,46.7 43.2,45.8 43.4,44.9 43.6,44.0 43.7,43.1 43.7,42.3 43.7,41.5 43.6,40.7 43.5,39.9 43.3,39.1 43.1,38.4 42.9,37.7 42.7,37.1 42.5,36.5 42.2,36.0 42.0,35.5 41.8,35.1 41.6,34.9 41.5,34.7 41.4,34.7 41.4,34.7 41.5,34.9 41.6,35.2 41.8,35.7 42.2,36.2 42.6,36.9 43.1,37.8 43.8,38.7 44.5,39.8 45.4,40.9 46.3,42.2 47.4,43.5 48.5,44.9 49.7,46.4 51.0,47.9 52.4,49.4 53.8,51.0 55.2,52.5 56.7,54.0 58.2,55.5 59.6,57.0 61.1,58.4 62.6,59.8 64.1,61.1 65.5,62.4 66.9,63.6 68.3,64.7 69.6,65.8 70.9,66.8 72.2,67.8 73.4,68.7 74.7,69.6 75.9,70.4 77.1,71.2 78.3,72.0 79.5,72.7 80.7,73.4 81.9,74.1 83.1,74.8 84.4,75.4 85.6,76.1 86.8,76.7 88.1,77.2 89.3,77.8 90.5,78.2 91.7,78.7 92.8,79.1 93.9,79.4 95.0,79.6 95.9,79.8 96.8,79.8 97.6,79.8 98.2,79.7 98.8,79.5 99.2,79.1 99.5,78.7 99.7,78.1 99.7,77.4 99.5,76.7 99.3,75.8 98.9,74.8 98.4,73.7 97.7,72.6 97.0,71.4 96.1,70.2 95.2,68.9 94.2,67.5 93.1,66.2 92.0,64.9 90.8,63.5 89.7,62.2 88.5,60.9 87.4,59.7 86.2,58.5 85.1,57.3 84.1,56.2 83.1,55.1 82.1,54.1 81.3,53.2 80.4,52.3 79.7,51.5 79.0,50.7 78.4,50.0 77.9,49.3 77.5,48.7 77.1,48.1 76.8,47.5 76.6,47.0 76.4,46.4 76.3,46.0 76.3,45.5 76.3,45.0 76.4,44.6 76.5,44.2 76.7,43.9 76.9,43.5 77.1,43.3 77.3,43.0 77.5,42.9 77.8,42.8 78.0,42.7 78.2,42.8 78.4,42.9 78.5,43.2 78.6,43.5 78.6,43.9 78.5,44.5 78.4,45.1 78.2,45.8 77.8,46.7 77.4,47.6 76.9,48.6 76.2,49.7 75.5,50.9 74.6,52.2 73.7,53.4 72.6,54.8 71.5,56.1 70.3,57.5 69.0,58.9 67.6,60.2 66.2,61.5 64.8,62.8 63.3,64.1 61.8,65.3 60.4,66.5 58.9,67.6 57.4,68.6 55.9,69.6 54.5,70.5 53.1,71.3 51.7,72.1 50.4,72.8 49.1,73.4 47.8,74.1 46.6,74.6 45.3,75.1 44.1,75.6 42.9,76.1 41.7,76.5 40.5,76.9 39.3,77.3 38.1,77.7 36.9,78.0 35.6,78.3 34.4,78.6 33.2,78.8 31.9,79.0 30.7,79.2 29.5,79.3 28.3,79.3 27.2,79.3 26.1,79.2 25.0,79.0 24.1,78.6 23.2,78.2 22.4,77.7 21.8,77.1 21.2,76.4 20.8,75.6 20.5,74.6 20.3,73.5 20.3,72.4 20.5,71.1 20.7,69.8 21.1,68.4 21.6,66.9 22.3,65.4 23.0,63.8 23.9,62.2 24.8,60.6 25.8,59.1 26.9,57.5 28.0,55.9 29.2,54.4 30.3,53.0 31.5,51.6 32.6,50.3 33.8,49.1 34.9,47.9 35.9,46.8 36.9,45.8 37.9,44.9 38.7,44.0 39.6,43.2 40.3,42.5 41.0,41.8 41.6,41.2 42.1,40.6 42.5,40.1 42.9,39.6 43.2,39.2 43.4,38.7 43.6,38.3 43.7,37.9 43.7,37.5 43.7,37.2 43.6,36.8 43.5,36.6 43.3,36.3 43.1,36.1 42.9,36.0 42.7,35.9 42.5,35.9 42.2,36.0 42.0,36.1 41.8,36.4 41.6,36.8 41.5,37.3 41.4,37.9 41.4,38.7 41.5,39.6 41.6,40.6 41.8,41.8 42.2,43.0 42.6,44.4 43.1,45.9 43.8,47.5 44.5,49.2 45.4,50.9 46.3,52.7 47.4,54.5 48.5,56.4 49.7,58.2 51.0,60.1 52.4,61.9 53.8,63.7 55.2,65.4 56.7,67.1 58.2,68.7 59.6,70.3 61.1,71.7 62.6,73.1 64.1,74.3 65.5,75.5 66.9,76.6 68.3,77.7 69.6,78.6 70.9,79.5 72.2,80.3" class="shadow"/>
    <polyline points="72.2,80.3 73.4,81.1 74.7,81.8 75.9,82.5 77.1,83.1 78.3,83.7 79.5,84.3 80.7,84.9 81.9,85.5 83.1,86.0 84.4,86.5 85.6,87.0 86.8,87.4 88.1,87.8 89.3,88.2 90.5,88.5 91.7,88.7 92.8,88.8 93.9,88.9 95.0,88.8 95.9,88.6 96.8,88.3 97.6,87.9 98.2,87.3 98.8,86.6 99.2,85.7 99.5,84.7 99.7,83.6 99.7,82.3 99.5,80.9 99.3,79.3 98.9,77.6 98.4,75.9 97.7,74.0 97.0,72.1 96.1,70.2 95.2,68.2 94.2,66.1 93.1,64.1 92.0,62.1 90.8,60.2 89.7,58.2 88.5,56.4 87.4,54.6 86.2,52.8 85.1,51.2 84.1,49.6 83.1,48.2 82.1,46.8 81.3,45.5 80.4,44.3 79.7,43.1 79.0,42.0 78.4,41.0 77.9,40.1 77.5,39.2 77.1,38.3 76.8,37.4 76.6,36.6 76.4,35.8 76.3,35.1 76.3,34.3 76.3,33.6 76.4,32.9 76.5,32.2 76.7,31.6 76.9,31.0 77.1,30.4 77.3,29.9 77.5,29.5 77.8,29.1 78.0,28.9 78.2,28.8 78.4,28.7 78.5,28.8 78.6,29.1 78.6,29.5 78.5,30.0 78.4,30.7 78.2,31.6 77.8,32.6 77.4,33.7 76.9,35.0 76.2,36.5 75.5,38.0 74.6,39.7 73.7,41.4 72.6,43.3 71.5,45.2 70.3,47.2 69.0,49.1 67.6,51.1 66.2,53.1 64.8,55.1 63.3,57.1 61.8,59.0 60.4,60.8 58.9,62.6 57.4,64.3 55.9,65.9 54.5,67.5 53.1,68.9 51.7,70.3 50.4,71.6 49.1,72.9 47.8,74.1 46.6,75.2 45.3,76.2 44.1,77.3 42.9,78.3 41.7,79.2 40.5,80.1 39.3,81.0 38.1,81.9 36.9,82.8 35.6,83.6 34.4,84.5 33.2,85.3 31.9,86.0 30.7,86.8 29.5,87.4 28.3,88.1 27.2,88.6 26.1,89.1 25.0,89.5 24.1,89.8 23.2,89.9 22.4,90.0 21.8,89.9 21.2,89.7 20.8,89.3 20.5,88.8 20.3,88.1 20.3,87.3 20.5,86.4 20.7,85.3 21.1,84.1 21.6,82.7 22.3,81.3 23.0,79.7 23.9,78.1 24.8,76.4 25.8,74.6 26.9,72.8 28.0,71.0 29.2,69.2 30.3,67.4 31.5,65.7 32.6,63.9 33.8,62.2 34.9,60.6 35.9,59.0 36.9,57.5 37.9,56.0 38.7,54.7 39.6,53.4 40.3,52.1 41.0,50.9 41.6,49.8 42.1,48.7 42.5,47.7 42.9,46.7 43.2,45.8 43.4,44.9 43.6,44.0 43.7,43.1 43.7,42.3 43.7,41.5 43.6,40.7 43.5,39.9 43.3,39.1 43.1,38.4 42.9,37.7 42.7,37.1 42.5,36.5 42.2,36.0 42.0,35.5 41.8,35.1 41.6,34.9 41.5,34.7 41.4,34.7 41.4,34.7 41.5,34.9 41.6,35.2 41.8,35.7 42.2,36.2 42.6,36.9 43.1,37.8 43.8,38.7 44.5,39.8 45.4,40.9 46.3,42.2 47.4,43.5 48.5,44.9 49.7,46.4 51.0,47.9 52.4,49.4 53.8,51.0 55.2,52.5 56.7,54.0 58.2,55.5 59.6,57.0 61.1,58.4 62.6,59.8 64.1,61.1 65.5,62.4 66.9,63.6 68.3,64.7 69.6,65.8 70.9,66.8 72.2,67.8 73.4,68.7 74.7,69.6 75.9,70.4 77.1,71.2 78.3,72.0 79.5,72.7 80.7,73.4 81.9,74.1 83.1,74.8 84.4,75.4 85.6,76.1 86.8,76.7 88.1,77.2 89.3,77.8 90.5,78.2 91.7,78.7 92.8,79.1 93.9,79.4 95.0,79.6 95.9,79.8 96.8,79.8 97.6,79.8 98.2,79.7 98.8,79.5 99.2,79.1 99.5,78.7 99.7,78.1 99.7,77.4 99.5,76.7 99.3,75.8 98.9,74.8 98.4,73.7 97.7,72.6 97.0,71.4 96.1,70.2 95.2,68.9 94.2,67.5 93.1,66.2 92.0,64.9 90.8,63.5 89.7,62.2 88.5,60.9 87.4,59.7 86.2,58.5 85.1,57.3 84.1,56.2 83.1,55.1 82.1,54.1 81.3,53.2 80.4,52.3 79.7,51.5 79.0,50.7 78.4,50.0 77.9,49.3 77.5,48.7 77.1,48.1 76.8,47.5 76.6,47.0 76.4,46.4 76.3,46.0 76.3,45.5 76.3,45.0 76.4,44.6 76.5,44.2 76.7,43.9 76.9,43.5 77.1,43.3 77.3,43.0 77.5,42.9 77.8,42.8 78.0,42.7 78.2,42.8 78.4,42.9 78.5,43.2 78.6,43.5 78.6,43.9 78.5,44.5 78.4,45.1 78.2,45.8 77.8,46.7 77.4,47.6 76.9,48.6 76.2,49.7 75.5,50.9 74.6,52.2 73.7,53.4 72.6,54.8 71.5,56.1 70.3,57.5 69.0,58.9 67.6,60.2 66.2,61.5 64.8,62.8 63.3,64.1 61.8,65.3 60.4,66.5 58.9,67.6 57.4,68.6 55.9,69.6 54.5,70.5 53.1,71.3 51.7,72.1 50.4,72.8 49.1,73.4 47.8,74.1 46.6,74.6 45.3,75.1 44.1,75.6 42.9,76.1 41.7,76.5 40.5,76.9 39.3,77.3 38.1,77.7 36.9,78.0 35.6,78.3 34.4,78.6 33.2,78.8 31.9,79.0 30.7,79.2 29.5,79.3 28.3,79.3 27.2,79.3 26.1,79.2 25.0,79.0 24.1,78.6 23.2,78.2 22.4,77.7 21.8,77.1 21.2,76.4 20.8,75.6 20.5,74.6 20.3,73.5 20.3,72.4 20.5,71.1 20.7,69.8 21.1,68.4 21.6,66.9 22.3,65.4 23.0,63.8 23.9,62.2 24.8,60.6 25.8,59.1 26.9,57.5 28.0,55.9 29.2,54.4 30.3,53.0 31.5,51.6 32.6,50.3 33.8,49.1 34.9,47.9 35.9,46.8 36.9,45.8 37.9,44.9 38.7,44.0 39.6,43.2 40.3,42.5 41.0,41.8 41.6,41.2 42.1,40.6 42.5,40.1 42.9,39.6 43.2,39.2 43.4,38.7 43.6,38.3 43.7,37.9 43.7,37.5 43.7,37.2 43.6,36.8 43.5,36.6 43.3,36.3 43.1,36.1 42.9,36.0 42.7,35.9 42.5,35.9 42.2,36.0 42.0,36.1 41.8,36.4 41.6,36.8 41.5,37.3 41.4,37.9 41.4,38.7 41.5,39.6 41.6,40.6 41.8,41.8 42.2,43.0 42.6,44.4 43.1,45.9 43.8,47.5 44.5,49.2 45.4,50.9 46.3,52.7 47.4,54.5 48.5,56.4 49.7,58.2 51.0,60.1 52.4,61.9 53.8,63.7 55.2,65.4 56.7,67.1 58.2,68.7 59.6,70.3 61.1,71.7 62.6,73.1 64.1,74.3 65.5,75.5 66.9,76.6 68.3,77.7 69.6,78.6 70.9,79.5 72.2,80.3" class="rope"/>
    <rect x="73.3" y="29.1" width="20" height="6" rx="3" transform="rotate(75.0 83.3 32.1)" fill="#f8f7f2"/><rect x="19.3" y="83.1" width="20" height="6" rx="3" transform="rotate(45.0 29.3 86.1)" fill="#f8f7f2"/><rect x="40.4" y="37.8" width="20" height="6" rx="3" transform="rotate(15.0 50.4 40.8)" fill="#f8f7f2"/><rect x="84.9" y="65.5" width="20" height="6" rx="3" transform="rotate(165.0 94.9 68.5)" fill="#f8f7f2"/><rect x="44.1" y="60.9" width="20" height="6" rx="3" transform="rotate(135.0 54.1 63.9)" fill="#f8f7f2"/><rect x="17.7" y="41.4" width="20" height="6" rx="3" transform="rotate(105.0 27.7 44.4)" fill="#f8f7f2"/><rect x="82.7" y="42.8" width="20" height="6" rx="3" transform="rotate(35.0 92.7 45.8)" fill="#f8f7f2"/>
    <polyline points="72.2,80.3 73.4,81.1 74.7,81.8 75.9,82.5 77.1,83.1 78.3,83.7 79.5,84.3 80.7,84.9 81.9,85.5 83.1,86.0 84.4,86.5 85.6,87.0 86.8,87.4 88.1,87.8 89.3,88.2 90.5,88.5 91.7,88.7 92.8,88.8 93.9,88.9 95.0,88.8 95.9,88.6 96.8,88.3 97.6,87.9 98.2,87.3 98.8,86.6 99.2,85.7 99.5,84.7 99.7,83.6 99.7,82.3 99.5,80.9 99.3,79.3 98.9,77.6 98.4,75.9 97.7,74.0 97.0,72.1 96.1,70.2 95.2,68.2 94.2,66.1 93.1,64.1 92.0,62.1 90.8,60.2 89.7,58.2 88.5,56.4 87.4,54.6 86.2,52.8 85.1,51.2 84.1,49.6 83.1,48.2 82.1,46.8 81.3,45.5 80.4,44.3 79.7,43.1 79.0,42.0 78.4,41.0 77.9,40.1 77.5,39.2 77.1,38.3 76.8,37.4 76.6,36.6 76.4,35.8 76.3,35.1 76.3,34.3 76.3,33.6 76.4,32.9 76.5,32.2 76.7,31.6 76.9,31.0 77.1,30.4 77.3,29.9 77.5,29.5 77.8,29.1 78.0,28.9 78.2,28.8 78.4,28.7 78.5,28.8 78.6,29.1 78.6,29.5 78.5,30.0 78.4,30.7 78.2,31.6 77.8,32.6 77.4,33.7 76.9,35.0 76.2,36.5 75.5,38.0 74.6,39.7 73.7,41.4 72.6,43.3 71.5,45.2 70.3,47.2 69.0,49.1 67.6,51.1 66.2,53.1 64.8,55.1 63.3,57.1 61.8,59.0 60.4,60.8 58.9,62.6 57.4,64.3 55.9,65.9 54.5,67.5 53.1,68.9 51.7,70.3 50.4,71.6 49.1,72.9 47.8,74.1 46.6,75.2 45.3,76.2 44.1,77.3 42.9,78.3 41.7,79.2 40.5,80.1 39.3,81.0 38.1,81.9 36.9,82.8 35.6,83.6 34.4,84.5 33.2,85.3 31.9,86.0 30.7,86.8 29.5,87.4 28.3,88.1 27.2,88.6 26.1,89.1 25.0,89.5 24.1,89.8 23.2,89.9 22.4,90.0 21.8,89.9 21.2,89.7 20.8,89.3 20.5,88.8 20.3,88.1 20.3,87.3 20.5,86.4 20.7,85.3 21.1,84.1 21.6,82.7 22.3,81.3 23.0,79.7 23.9,78.1 24.8,76.4 25.8,74.6 26.9,72.8 28.0,71.0 29.2,69.2 30.3,67.4 31.5,65.7 32.6,63.9 33.8,62.2 34.9,60.6 35.9,59.0 36.9,57.5 37.9,56.0 38.7,54.7 39.6,53.4 40.3,52.1 41.0,50.9 41.6,49.8 42.1,48.7 42.5,47.7 42.9,46.7 43.2,45.8 43.4,44.9 43.6,44.0 43.7,43.1 43.7,42.3 43.7,41.5 43.6,40.7 43.5,39.9 43.3,39.1 43.1,38.4 42.9,37.7 42.7,37.1 42.5,36.5 42.2,36.0 42.0,35.5 41.8,35.1 41.6,34.9 41.5,34.7 41.4,34.7 41.4,34.7 41.5,34.9 41.6,35.2 41.8,35.7 42.2,36.2 42.6,36.9 43.1,37.8 43.8,38.7 44.5,39.8 45.4,40.9 46.3,42.2 47.4,43.5 48.5,44.9 49.7,46.4 51.0,47.9 52.4,49.4 53.8,51.0 55.2,52.5 56.7,54.0 58.2,55.5 59.6,57.0 61.1,58.4 62.6,59.8 64.1,61.1 65.5,62.4 66.9,63.6 68.3,64.7 69.6,65.8 70.9,66.8 72.2,67.8 73.4,68.7 74.7,69.6 75.9,70.4 77.1,71.2 78.3,72.0 79.5,72.7 80.7,73.4 81.9,74.1 83.1,74.8 84.4,75.4 85.6,76.1 86.8,76.7 88.1,77.2 89.3,77.8 90.5,78.2 91.7,78.7 92.8,79.1 93.9,79.4 95.0,79.6 95.9,79.8 96.8,79.8 97.6,79.8 98.2,79.7 98.8,79.5 99.2,79.1 99.5,78.7 99.7,78.1 99.7,77.4 99.5,76.7 99.3,75.8 98.9,74.8 98.4,73.7 97.7,72.6 97.0,71.4 96.1,70.2 95.2,68.9 94.2,67.5 93.1,66.2 92.0,64.9 90.8,63.5 89.7,62.2 88.5,60.9 87.4,59.7 86.2,58.5 85.1,57.3 84.1,56.2 83.1,55.1 82.1,54.1 81.3,53.2 80.4,52.3 79.7,51.5 79.0,50.7 78.4,50.0 77.9,49.3 77.5,48.7 77.1,48.1 76.8,47.5 76.6,47.0 76.4,46.4 76.3,46.0 76.3,45.5 76.3,45.0 76.4,44.6 76.5,44.2 76.7,43.9 76.9,43.5 77.1,43.3 77.3,43.0 77.5,42.9 77.8,42.8 78.0,42.7 78.2,42.8 78.4,42.9 78.5,43.2 78.6,43.5 78.6,43.9 78.5,44.5 78.4,45.1 78.2,45.8 77.8,46.7 77.4,47.6 76.9,48.6 76.2,49.7 75.5,50.9 74.6,52.2 73.7,53.4 72.6,54.8 71.5,56.1 70.3,57.5 69.0,58.9 67.6,60.2 66.2,61.5 64.8,62.8 63.3,64.1 61.8,65.3 60.4,66.5 58.9,67.6 57.4,68.6 55.9,69.6 54.5,70.5 53.1,71.3 51.7,72.1 50.4,72.8 49.1,73.4 47.8,74.1 46.6,74.6 45.3,75.1 44.1,75.6 42.9,76.1 41.7,76.5 40.5,76.9 39.3,77.3 38.1,77.7 36.9,78.0 35.6,78.3 34.4,78.6 33.2,78.8 31.9,79.0 30.7,79.2 29.5,79.3 28.3,79.3 27.2,79.3 26.1,79.2 25.0,79.0 24.1,78.6 23.2,78.2 22.4,77.7 21.8,77.1 21.2,76.4 20.8,75.6 20.5,74.6 20.3,73.5 20.3,72.4 20.5,71.1 20.7,69.8 21.1,68.4 21.6,66.9 22.3,65.4 23.0,63.8 23.9,62.2 24.8,60.6 25.8,59.1 26.9,57.5 28.0,55.9 29.2,54.4 30.3,53.0 31.5,51.6 32.6,50.3 33.8,49.1 34.9,47.9 35.9,46.8 36.9,45.8 37.9,44.9 38.7,44.0 39.6,43.2 40.3,42.5 41.0,41.8 41.6,41.2 42.1,40.6 42.5,40.1 42.9,39.6 43.2,39.2 43.4,38.7 43.6,38.3 43.7,37.9 43.7,37.5 43.7,37.2 43.6,36.8 43.5,36.6 43.3,36.3 43.1,36.1 42.9,36.0 42.7,35.9 42.5,35.9 42.2,36.0 42.0,36.1 41.8,36.4 41.6,36.8 41.5,37.3 41.4,37.9 41.4,38.7 41.5,39.6 41.6,40.6 41.8,41.8 42.2,43.0 42.6,44.4 43.1,45.9 43.8,47.5 44.5,49.2 45.4,50.9 46.3,52.7 47.4,54.5 48.5,56.4 49.7,58.2 51.0,60.1 52.4,61.9 53.8,63.7 55.2,65.4 56.7,67.1 58.2,68.7 59.6,70.3 61.1,71.7 62.6,73.1 64.1,74.3 65.5,75.5 66.9,76.6 68.3,77.7 69.6,78.6 70.9,79.5 72.2,80.3" class="highlight"/>
  
</svg>