<svg xmlns="http://www.w3.org/2000/svg" viewBox="0 0 120 120" role="img">
  <rect width="120" height="120" rx="10" fill="#f8f7f2"/>
  <style>
    .shadow{fill:none;stroke:#4a4f56;stroke-width:13;stroke-linecap:round;stroke-linejoin:round;opacity:.22}
    .rope{fill:none;stroke:#1778bd;stroke-width:8;stroke-linecap:round;stroke-linejoin:round}
    .highlight{fill:none;stroke:#4fb1f0;stroke-width:2.2;stroke-linecap:round;stroke-linejoin:round;opacity:.85}
  </style>
  
    <polyline points="74.5,82.3 76.5,83.5 78.5,84.7 80.6,85.8 82.6,86.8 84.7,87.8 86.8,88.7 88.9,89.5 90.9,90.1 92.8,90.7 94.7,91.0 96.4,91.2 97.9,91.2 99.3,91.0 100.5,90.6 101.4,90.0 102.2,89.1 102.6,87.9 102.8,86.6 102.7,85.0 102.3,83.2 101.7,81.3 100.9,79.2 99.8,76.9 98.5,74.5 97.1,72.1 95.5,69.6 93.8,67.0 92.0,64.5 90.1,62.0 88.3,59.6 86.4,57.3 84.6,55.0 82.8,52.9 81.1,50.8 79.5,48.9 78.0,47.2 76.7,45.5 75.4,44.0 74.2,42.5 73.2,41.2 72.3,39.9 71.4,38.8 70.7,37.7 70.1,36.6 69.5,35.7 69.0,34.7 68.6,33.9 68.3,33.0 67.9,32.3 67.7,31.6 67.4,30.9 67.1,30.4 66.8,30.0 66.5,29.7 66.1,29.6 65.7,29.6 65.3,29.8 64.7,30.2 64.0,30.8 63.2,31.6 62.3,32.6 61.3,33.9 60.1,35.4 58.9,37.1 57.4,38.9 55.9,41.0 54.3,43.2 52.6,45.5 50.7,48.0 48.9,50.5 47.0,53.0 45.1,55.6 43.2,58.1 41.4,60.6 39.6,63.1 37.9,65.4 36.3,67.6 34.8,69.7 33.4,71.7 32.1,73.5 31.0,75.2 30.0,76.7 29.2,78.0 28.4,79.3 27.8,80.4 27.3,81.4 26.8,82.3 26.5,83.1 26.2,83.9 25.9,84.5 25.7,85.1 25.6,85.7 25.5,86.1 25.5,86.6 25.5,86.9 25.6,87.2 25.8,87.4 26.1,87.5 26.5,87.5 27.0,87.4 27.7,87.1 28.4,86.7 29.4,86.1 30.4,85.4 31.6,84.4 33.0,83.3 34.5,82.0 36.1,80.5 37.8,78.8 39.5,76.9 41.4,74.9 43.2,72.8 45.1,70.5 46.9,68.2 48.7,65.8 50.5,63.4 52.2,61.0 53.8,58.6 55.2,56.3 56.6,54.0 57.8,51.9 58.9,49.9 59.9,48.0 60.8,46.3 61.5,44.7 62.2,43.3 62.8,42.1 63.3,41.0 63.7,40.0 64.1,39.2 64.5,38.6 64.8,38.0 65.2,37.6 65.5,37.2 65.9,36.9 66.3,36.7 66.7,36.6 67.3,36.5 67.8,36.4 68.5,36.5 69.2,36.6 70.1,36.7 71.0,37.0 72.1,37.3 73.2,37.7 74.5,38.2 75.9,38.9 77.5,39.7 79.1,40.6 80.8,41.6 82.6,42.8 84.5,44.2 86.5,45.7 88.4,47.3 90.3,49.1 92.2,51.0 94.1,52.9 95.8,55.0 97.4,57.1 98.8,59.2 100.1,61.3 101.1,63.4 101.9,65.5 102.5,67.5 102.7,69.3 102.8,71.1 102.5,72.8 102.0,74.2 101.3,75.6 100.3,76.7 99.1,77.7 97.8,78.6 96.3,79.3 94.6,79.8 92.9,80.2 91.0,80.4 89.1,80.6 87.2,80.6 85.3,80.5 83.3,80.4 81.4,80.2 79.5,79.9 77.6,79.6 75.7,79.2 73.9,78.8 72.1,78.3 70.2,77.8 68.5,77.2 66.7,76.5 64.9,75.8 63.1,75.0 61.4,74.1 59.6,73.1 57.9,72.0 56.2,70.8 54.6,69.5 53.0,68.2 51.4,66.7 50.0,65.1 48.6,63.5 47.3,61.7 46.1,60.0 45.1,58.2 44.2,56.4 43.3,54.6 42.7,52.9 42.1,51.2 41.6,49.6 41.3,48.0 41.0,46.6 40.9,45.4 40.7,44.2 40.7,43.3 40.7,42.5 40.7,41.8 40.7,41.3 40.7,41.0 40.8,40.9 40.8,40.8 40.7,41.0 40.6,41.2 40.5,41.5 40.3,42.0 40.1,42.5 39.8,43.1 39.5,43.8 39.0,44.5 38.5,45.2 38.0,46.0 37.3,46.8 36.6,47.7 35.8,48.6 35.0,49.5 34.1,50.5 33.1,51.5 32.1,52.5 31.1,53.7 30.0,54.9 29.0,56.1 28.0,57.4 27.1,58.8 26.2,60.2 25.5,61.7 24.9,63.2 24.4,64.7 24.2,66.2 24.2,67.8 24.4,69.3 24.9,70.8 25.6,72.2 26.6,73.6 27.9,74.8 29.4,76.0 31.1,77.0 33.1,77.9 35.3,78.6 37.7,79.1 40.1,79.5 42.7,79.7 45.4,79.7 48.0,79.6 50.7,79.3 53.3,78.9 55.9,78.4 58.4,77.7 60.8,76.9 63.0,76.0 65.1,75.1 67.0,74.1 68.8,73.0 70.5,71.9 72.0,70.8 73.4,69.6 74.7,68.5 75.9,67.3 76.9,66.1 77.9,64.9 78.8,63.7 79.7,62.5 80.5,61.2 81.2,59.9 81.9,58.6 82.6,57.3 83.2,55.9 83.8,54.5 84.3,53.1 84.8,51.7 85.2,50.2 85.6,48.8 85.9,47.3 86.2,45.9 86.5,44.6 86.7,43.3 86.8,42.1 87.0,41.0 87.1,40.0 87.1,39.1 87.2,38.4 87.2,37.9 87.3,37.6 87.3,37.4 87.3,37.4 87.3,37.6 87.4,38.0 87.4,38.6 87.4,39.3 87.3,40.2 87.3,41.2 87.3,42.4 87.2,43.7 87.1,45.0 86.9,46.4 86.7,47.9 86.5,49.4 86.2,50.9 85.9,52.4 85.5,53.9 85.1,55.4 84.7,56.9 84.2,58.4 83.7,59.9 83.2,61.3 82.6,62.7 82.0,64.1 81.3,65.6 80.6,67.0 79.8,68.4 78.9,69.8 77.9,71.2 76.8,72.7 75.5,74.1 74.2,75.5 72.7,76.9 71.0,78.3 69.2,79.6 67.2,80.9 65.0,82.1 62.8,83.1 60.3,84.1 57.8,84.9 55.2,85.6 52.5,86.1 49.8,86.4 47.2,86.5 44.5,86.5 42.0,86.2 39.5,85.6 37.2,84.9 35.1,84.0 33.2,82.9 31.5,81.6 30.0,80.2 28.8,78.6 27.9,76.9 27.2,75.1 26.8,73.2 26.6,71.3 26.6,69.4 26.8,67.5 27.1,65.6 27.6,63.7 28.3,61.8 29.0,60.0 29.8,58.2 30.6,56.5 31.5,54.8 32.3,53.2 33.1,51.7 33.9,50.2 34.7,48.7 35.4,47.2 36.0,45.8 36.6,44.4 37.1,43.0 37.5,41.6 37.9,40.3 38.2,38.9 38.5,37.6 38.7,36.4 38.8,35.2 38.9,34.1 39.0,33.1 39.0,32.2 38.9,31.5 38.8,30.9 38.7,30.5 38.6,30.2 38.5,30.2 38.4,30.4 38.4,30.8 38.3,31.5 38.4,32.4 38.5,33.5 38.6,34.8 38.9,36.3 39.3,38.0 39.8,39.9 40.4,41.9 41.1,44.0 42.0,46.2 42.9,48.5 44.1,50.8 45.3,53.1 46.6,55.3 48.0,57.6 49.5,59.8 51.1,61.9 52.7,63.9 54.4,65.9 56.1,67.8 57.8,69.5 59.6,71.2 61.4,72.8 63.2,74.3 65.0,75.8 66.8,77.2 68.7,78.5 70.6,79.8 72.5,81.1 74.5,82.3" class="shadow"/>
    <polyline points="74.5,82.3 76.5,83.5 78.5,84.7 80.6,85.8 82.6,86.8 84.7,87.8 86.8,88.7 88.9,89.5 90.9,90.1 92.8,90.7 94.7,91.0 96.4,91.2 97.9,91.2 99.3,91.0 100.5,90.6 101.4,90.0 102.2,89.1 102.6,87.9 102.8,86.6 102.7,85.0 102.3,83.2 101.7,81.3 100.9,79.2 99.8,76.9 98.5,74.5 97.1,72.1 95.5,69.6 93.8,67.0 92.0,64.5 90.1,62.0 88.3,59.6 86.4,57.3 84.6,55.0 82.8,52.9 81.1,50.8 79.5,48.9 78.0,47.2 76.7,45.5 75.4,44.0 74.2,42.5 73.2,41.2 72.3,39.9 71.4,38.8 70.7,37.7 70.1,36.6 69.5,35.7 69.0,34.7 68.6,33.9 68.3,33.0 67.9,32.3 67.7,31.6 67.4,30.9 67.1,30.4 66.8,30.0 66.5,29.7 66.1,29.6 65.7,29.6 65.3,29.8 64.7,30.2 64.0,30.8 63.2,31.6 62.3,32.6 61.3,33.9 60.1,35.4 58.9,37.1 57.4,38.9 55.9,41.0 54.3,43.2 52.6,45.5 50.7,48.0 48.9,50.5 47.0,53.0 45.1,55.6 43.2,58.1 41.4,60.6 39.6,63.1 37.9,65.4 36.3,67.6 34.8,69.7 33.4,71.7 32.1,73.5 31.0,75.2 30.0,76.7 29.2,78.0 28.4,79.3 27.8,80.4 27.3,81.4 26.8,82.3 26.5,83.1 26.2,83.9 25.9,84.5 25.7,85.1 25.6,85.7 25.5,86.1 25.5,86.6 25.5,86.9 25.6,87.2 25.8,87.4 26.1,87.5 26.5,87.5 27.0,87.4 27.7,87.1 28.4,86.7 29.4,86.1 30.4,85.4 31.6,84.4 33.0,83.3 34.5,82.0 36.1,80.5 37.8,78.8 39.5,76.9 41.4,74.9 43.2,72.8 45.1,70.5 46.9,68.2 48.7,65.8 50.5,63.4 52.2,61.0 53.8,58.6 55.2,56.3 56.6,54.0 57.8,51.9 58.9,49.9 59.9,48.0 60.8,46.3 61.5,44.7 62.2,43.3 62.8,42.1 63.3,41.0 63.7,40.0 64.1,39.2 64.5,38.6 64.8,38.0 65.2,37.6 65.5,37.2 65.9,36.9 66.3,36.7 66.7,36.6 67.3,36.5 67.8,36.4 68.5,36.5 69.2,36.6 70.1,36.7 71.0,37.0 72.1,37.3 73.2,37.7 74.5,38.2 75.9,38.9 77.5,39.7 79.1,40.6 80.8,41.6 82.6,42.8 84.5,44.2 86.5,45.7 88.4,47.3 90.3,49.1 92.2,51.0 94.1,52.9 95.8,55.0 97.4,57.1 98.8,59.2 100.1,61.3 101.1,63.4 101.9,65.5 102.5,67.5 102.7,69.3 102.8,71.1 102.5,72.8 102.0,74.2 101.3,75.6 100.3,76.7 99.1,77.7 97.8,78.6 96.3,79.3 94.6,79.8 92.9,80.2 91.0,80.4 89.1,80.6 87.2,80.6 85.3,80.5 83.3,80.4 81.4,80.2 79.5,79.9 77.6,79.6 75.7,79.2 73.9,78.8 72.1,78.3 70.2,77.8 68.5,77.2 66.7,76.5 64.9,75.8 63.1,75.0 61.4,74.1 59.6,73.1 57.9,72.0 56.2,70.8 54.6,69.5 53.0,68.2 51.4,66.7 50.0,65.1 48.6,63.5 47.3,61.7 46.1,60.0 45.1,58.2 44.2,56.4 43.3,54.6 42.7,52.9 42.1,51.2 41.6,49.6 41.3,48.0 41.0,46.6 40.9,45.4 40.7,44.2 40.7,43.3 40.7,42.5 40.7,41.8 40.7,41.3 40.7,41.0 40.8,40.9 40.8,40.8 40.7,41.0 40.6,41.2 40.5,41.5 40.3,42.0 40.1,42.5 39.8,43.1 39.5,43.8 39.0,44.5 38.5,45.2 38.0,46.0 37.3,46.8 36.6,47.7 35.8,48.6 35.0,49.5 34.1,50.5 33.1,51.5 32.1,52.5 31.1,53.7 30.0,54.9 29.0,56.1 28.0,57.4 27.1,58.8 26.2,60.2 25.5,61.7 24.9,63.2 24.4,64.7 24.2,66.2 24.2,67.8 24.4,69.3 24.9,70.8 25.6,72.2 26.6,73.6 27.9,74.8 29.4,76.0 31.1,77.0 33.1,77.9 35.3,78.6 37.7,79.1 40.1,79.5 42.7,79.7 45.4,79.7 48.0,79.6 50.7,79.3 53.3,78.9 55.9,78.4 58.4,77.7 60.8,76.9 63.0,76.0 65.1,75.1 67.0,74.1 68.8,73.0 70.5,71.9 72.0,70.8 73.4,69.6 74.7,68.5 75.9,67.3 76.9,66.1 77.9,64.9 78.8,63.7 79.7,62.5 80.5,61.2 81.2,59.9 81.9,58.6 82.6,57.3 83.2,55.9 83.8,54.5 84.3,53.1 84.8,51.7 85.2,50.2 85.6,48.8 85.9,47.3 86.2,45.9 86.5,44.6 86.7,43.3 86.8,42.1 87.0,41.0 87.1,40.0 87.1,39.1 87.2,38.4 87.2,37.9 87.3,37.6 87.3,37.4 87.3,37.4 87.3,37.6 87.4,38.0 87.4,38.6 87.4,39.3 87.3,40.2 87.3,41.2 87.3,42.4 87.2,43.7 87.1,45.0 86.9,46.4 86.7,47.9 86.5,49.4 86.2,50.9 85.9,52.4 85.5,53.9 85.1,55.4 84.7,56.9 84.2,58.4 83.7,59.9 83.2,61.3 82.6,62.7 82.0,64.1 81.3,65.6 80.6,67.0 79.8,68.4 78.9,69.8 77.9,71.2 76.8,72.7 75.5,74.1 74.2,75.5 72.7,76.9 71.0,78.3 69.2,79.6 67.2,80.9 65.0,82.1 62.8,83.1 60.3,84.1 57.8,84.9 55.2,85.6 52.5,86.1 49.8,86.4 47.2,86.5 44.5,86.5 42.0,86.2 39.5,85.6 37.2,84.9 35.1,84.0 33.2,82.9 31.5,81.6 30.0,80.2 28.8,78.6 27.9,76.9 27.2,75.1 26.8,73.2 26.6,71.3 26.6,69.4 26.8,67.5 27.1,65.6 27.6,63.7 28.3,61.8 29.0,60.0 29.8,58.2 30.6,56.5 31.5,54.8 32.3,53.2 33.1,51.7 33.9,50.2 34.7,48.7 35.4,47.2 36.0,45.8 36.6,44.4 37.1,43.0 37.5,41.6 37.9,40.3 38.2,38.9 38.5,37.6 38.7,36.4 38.8,35.2 38.9,34.1 39.0,33.1 39.0,32.2 38.9,31.5 38.8,30.9 38.7,30.5 38.6,30.2 38.5,30.2 38.4,30.4 38.4,30.8 38.3,31.5 38.4,32.4 38.5,33.5 38.6,34.8 38.9,36.3 39.3,38.0 39.8,39.9 40.4,41.9 41.1,44.0 42.0,46.2 42.9,48.5 44.1,50.8 45.3,53.1 46.6,55.3 48.0,57.6 49.5,59.8 51.1,61.9 52.7,63.9 54.4,65.9 56.1,67.8 57.8,69.5 59.6,71.2 61.4,72.8 63.2,74.3 65.0,75.8 66.8,77.2 68.7,78.5 70.6,79.8 72.5,81.1 74.5,82.3" class="rope"/>
    <rect x="23.4" y="66.0" width="20" height="6" rx="3" transform="rotate(147.5 33.4 69.0)" fill="#f8f7f2"/><rect x="64.1" y="29.1" width="20" height="6" rx="3" transform="rotate(117.5 74.1 32.1)" fill="#f8f7f2"/><rect x="51.2" y="60.4" width="20" height="6" rx="3" transform="rotate(87.5 61.2 63.4)" fill="#f8f7f2"/><rect x="33.8" y="83.3" width="20" height="6" rx="3" transform="rotate(57.5 43.8 86.3)" fill="#f8f7f2"/><rect x="78.1" y="41.9" width="20" height="6" rx="3" transform="rotate(27.5 88.1 44.9)" fill="#f8f7f2"/><rect x="15.6" y="37.4" width="20" height="6" rx="3" transform="rotate(177.5 25.6 40.4)" fill="#f8f7f2"/><rect x="44.9" y="35.6" width="20" height="6" rx="3" transform="rotate(107.5 54.9 38.6)" fill="#f8f7f2"/>
    <polyline points="74.5,82.3 76.5,83.5 78.5,84.7 80.6,85.8 82.6,86.8 84.7,87.8 86.8,88.7 88.9,89.5 90.9,90.1 92.8,90.7 94.7,91.0 96.4,91.2 97.9,91.2 99.3,91.0 100.5,90.6 101.4,90.0 102.2,89.1 102.6,87.9 102.8,86.6 102.7,85.0 102.3,83.2 101.7,81.3 100.9,79.2 99.8,76.9 98.5,74.5 97.1,72.1 95.5,69.6 93.8,67.0 92.0,64.5 90.1,62.0 88.3,59.6 86.4,57.3 84.6,55.0 82.8,52.9 81.1,50.8 79.5,48.9 78.0,47.2 76.7,45.5 75.4,44.0 74.2,42.5 73.2,41.2 72.3,39.9 71.4,38.8 70.7,37.7 70.1,36.6 69.5,35.7 69.0,34.7 68.6,33.9 68.3,33.0 67.9,32.3 67.7,31.6 67.4,30.9 67.1,30.4 66.8,30.0 66.5,29.7 66.1,29.6 65.7,29.6 65.3,29.8 64.7,30.2 64.0,30.8 63.2,31.6 62.3,32.6 61.3,33.9 60.1,35.4 58.9,37.1 57.4,38.9 55.9,41.0 54.3,43.2 52.6,45.5 50.7,48.0 48.9,50.5 47.0,53.0 45.1,55.6 43.2,58.1 41.4,60.6 39.6,63.1 37.9,65.4 36.3,67.6 34.8,69.7 33.4,71.7 32.1,73.5 31.0,75.2 30.0,76.7 29.2,78.0 28.4,79.3 27.8,80.4 27.3,81.4 26.8,82.3 26.5,83.1 26.2,83.9 25.9,84.5 25.7,85.1 25.6,85.7 25.5,86.1 25.5,86.6 25.5,86.9 25.6,87.2 25.8,87.4 26.1,87.5 26.5,87.5 27.0,87.4 27.7,87.1 28.4,86.7 29.4,86.1 30.4,85.4 31.6,84.4 33.0,83.3 34.5,82.0 36.1,80.5 37.8,78.8 39.5,76.9 41.4,74.9 43.2,72.8 45.1,70.5 46.9,68.2 48.7,65.8 50.5,63.4 52.2,61.0 53.8,58.6 55.2,56.3 56.6,54.0 57.8,51.9 58.9,49.9 59.9,48.0 60.8,46.3 61.5,44.7 62.2,43.3 62.8,42.1 63.3,41.0 63.7,40.0 64.1,39.2 64.5,38.6 64.8,38.0 65.2,37.6 65.5,37.2 65.9,36.9 66.3,36.7 66.7,36.6 67.3,36.5 67.8,36.4 68.5,36.5 69.2,36.6 70.1,36.7 71.0,37.0 72.1,37.3 73.2,37.7 74.5,38.2 75.9,38.9 77.5,39.7 79.1,40.6 80.8,41.6 82.6,42.8 84.5,44.2 86.5,45.7 88.4,47.3 90.3,49.1 92.2,51.0 94.1,52.9 95.8,55.0 97.4,57.1 98.8,59.2 100.1,61.3 101.1,63.4 101.9,65.5 102.5,67.5 102.7,69.3 102.8,71.1 102.5,72.8 102.0,74.2 101.3,75.6 100.3,76.7 99.1,77.7 97.8,78.6 96.3,79.3 94.6,79.8 92.9,80.2 91.0,80.4 89.1,80.6 87.2,80.6 85.3,80.5 83.3,80.4 81.4,80.2 79.5,79.9 77.6,79.6 75.7,79.2 73.9,78.8 72.1,78.3 70.2,77.8 68.5,77.2 66.7,76.5 64.9,75.8 63.1,75.0 61.4,74.1 59.6,73.1 57.9,72.0 56.2,70.8 54.6,69.5 53.0,68.2 51.4,66.7 50.0,65.1 48.6,63.5 47.3,61.7 46.1,60.0 45.1,58.2 44.2,56.4 43.3,54.6 42.7,52.9 42.1,51.2 41.6,49.6 41.3,48.0 41.0,46.6 40.9,45.4 40.7,44.2 40.7,43.3 40.7,42.5 40.7,41.8 40.7,41.3 40.7,41.0 40.8,40.9 40.8,40.8 40.7,41.0 40.6,41.2 40.5,41.5 40.3,42.0 40.1,42.5 39.8,43.1 39.5,43.8 39.0,44.5 38.5,45.2 38.0,46.0 37.3,46.8 36.6,47.7 35.8,48.6 35.0,49.5 34.1,50.5 33.1,51.5 32.1,52.5 31.1,53.7 30.0,54.9 29.0,56.1 28.0,57.4 27.1,58.8 26.2,60.2 25.5,61.7 24.9,63.2 24.4,64.7 24.2,66.2 24.2,67.8 24.4,69.3 24.9,70.8 25.6,72.2 26.6,73.6 27.9,74.8 29.4,76.0 31.1,77.0 33.1,77.9 35.3,78.6 37.7,79.1 40.1,79.5 42.7,79.7 45.4,79.7 48.0,79.6 50.7,79.3 53.3,78.9 55.9,78.4 58.4,77.7 60.8,76.9 63.0,76.0 65.1,75.1 67.0,74.1 68.8,73.0 70.5,71.9 72.0,70.8 73.4,69.6 74.7,68.5 75.9,67.3 76.9,66.1 77.9,64.9 78.8,63.7 79.7,62.5 80.5,61.2 81.2,59.9 81.9,58.6 82.6,57.3 83.2,55.9 83.8,54.5 84.3,53.1 84.8,51.7 85.2,50.2 85.6,48.8 85.9,47.3 86.2,45.9 86.5,44.6 86.7,43.3 86.8,42.1 87.0,41.0 87.1,40.0 87.1,39.1 87.2,38.4 87.2,37.9 87.3,37.6 87.3,37.4 87.3,37.4 87.3,37.6 87.4,38.0 87.4,38.6 87.4,39.3 87.3,40.2 87.3,41.2 87.3,42.4 87.2,43.7 87.1,45.0 86.9,46.4 86.7,47.9 86.5,49.4 86.2,50.9 85.9,52.4 85.5,53.9 85.1,55.4 84.7,56.9 84.2,58.4 83.7,59.9 83.2,61.3 82.6,62.7 82.0,64.1 81.3,65.6 80.6,67.0 79.8,68.4 78.9,69.8 77.9,71.2 76.8,72.7 75.5,74.1 74.2,75.5 72.7,76.9 71.0,78.3 69.2,79.6 67.2,80.9 65.0,82.1 62.8,83.1 60.3,84.1 57.8,84.9 55.2,85.6 52.5,86.1 49.8,86.4 47.2,86.5 44.5,86.5 42.0,86.2 39.5,85.6 37.2,84.9 35.1,84.0 33.2,82.9 31.5,81.6 30.0,80.2 28.8,78.6 27.9,76.9 27.2,75.1 26.8,73.2 26.6,71.3 26.6,69.4 26.8,67.5 27.1,65.6 27.6,63.7 28.3,61.8 29.0,60.0 29.8,58.2 30.6,56.5 31.5,54.8 32.3,53.2 33.1,51.7 33.9,50.2 34.7,48.7 35.4,47.2 36.0,45.8 36.6,44.4 37.1,43.0 37.5,41.6 37.9,40.3 38.2,38.9 38.5,37.6 38.7,36.4 38.8,35.2 38.9,34.1 39.0,33.1 39.0,32.2 38.9,31.5 38.8,30.9 38.7,30.5 38.6,30.2 38.5,30.2 38.4,30.4 38.4,30.8 38.3,31.5 38.4,32.4 38.5,33.5 38.6,34.8 38.9,36.3 39.3,38.0 39.8,39.9 40.4,41.9 41.1,44.0 42.0,46.2 42.9,48.5 44.1,50.8 45.3,53.1 46.6,55.3 48.0,57.6 49.5,59.8 51.1,61.9 52.7,63.9 54.4,65.9 56.1,67.8 57.8,69.5 59.6,71.2 61.4,72.8 63.2,74.3 65.0,75.8 66.8,77.2 68.7,78.5 70.6,79.8 72.5,81.1 74.5,82.3" class="highlight"/>
  
</svg>