<svg xmlns="http://www.w3.org/2000/svg" viewBox="0 0 120 120" role="img">
  <rect width="120" height="120" rx="10" fill="#f8f7f2"/>
  <style>
    .shadow{fill:none;stroke:#4a4f56;stroke-width:13;stroke-linecap:round;stroke-linejoin:round;opacity:.22}
    .rope{fill:none;stroke:#1778bd;stroke-width:8;stroke-linecap:round;stroke-linejoin:round}
    .highlight{fill:none;stroke:#4fb1f0;stroke-width:2.2;stroke-linecap:round;stroke-linejoin:round;opacity:.85}
  </style>
  
    <polyline points="78.9,87.2 81.7,88.6 84.6,89.9 87.4,91.0 90.1,91.8 92.7,92.4 95.1,92.8 97.3,92.9 99.2,92.7 100.8,92.2 102.2,91.4 103.1,90.3 103.7,89.0 104.0,87.4 103.9,85.4 103.4,83.3 102.6,80.9 101.4,78.3 99.9,75.6 98.2,72.7 96.2,69.7 94.1,66.6 91.8,63.5 89.4,60.4 86.9,57.4 84.4,54.4 81.9,51.5 79.5,48.7 77.2,46.1 75.0,43.7 73.0,41.4 71.1,39.4 69.3,37.6 67.7,36.0 66.3,34.7 65.0,33.5 63.8,32.7 62.8,32.0 61.9,31.6 61.1,31.3 60.4,31.3 59.7,31.4 59.1,31.8 58.5,32.3 57.9,32.9 57.2,33.7 56.5,34.7 55.7,35.8 54.9,37.0 54.0,38.4 52.9,39.9 51.8,41.5 50.5,43.3 49.1,45.1 47.5,47.1 45.9,49.2 44.1,51.5 42.1,53.8 40.1,56.3 38.0,58.8 35.8,61.4 33.6,64.1 31.3,66.8 29.1,69.6 27.0,72.3 24.9,75.0 23.0,77.7 21.3,80.3 19.8,82.7 18.6,85.1 17.6,87.2 17.0,89.1 16.8,90.9 16.9,92.3 17.4,93.5 18.2,94.4 19.5,95.0 21.1,95.3 23.1,95.3 25.4,95.0 27.9,94.3 30.7,93.4 33.7,92.1 36.8,90.6 40.0,88.9 43.3,87.0 46.6,84.8 49.8,82.5 52.9,80.0 55.9,77.5 58.7,74.9 61.3,72.2 63.7,69.5 65.9,66.9 67.9,64.2 69.6,61.7 71.1,59.1 72.4,56.7 73.5,54.4 74.4,52.2 75.1,50.1 75.7,48.1 76.1,46.3 76.5,44.6 76.8,43.0 77.0,41.6 77.2,40.2 77.3,39.1 77.5,38.0 77.7,37.1 77.9,36.3 78.2,35.7 78.6,35.2 79.0,34.8 79.6,34.6 80.2,34.6 80.9,34.7 81.7,35.0 82.7,35.5 83.7,36.2 84.7,37.1 85.9,38.2 87.0,39.5 88.2,41.0 89.4,42.6 90.5,44.5 91.5,46.5 92.5,48.7 93.2,51.0 93.8,53.5 94.2,56.0 94.3,58.6 94.2,61.3 93.7,63.9 93.0,66.5 91.9,69.1 90.4,71.6 88.7,74.0 86.6,76.3 84.2,78.3 81.6,80.2 78.7,81.9 75.7,83.4 72.4,84.6 69.1,85.5 65.7,86.2 62.3,86.7 58.9,86.9 55.6,86.8 52.4,86.6 49.4,86.0 46.6,85.3 44.0,84.4 41.6,83.3 39.5,82.1 37.7,80.7 36.1,79.2 34.8,77.6 33.7,76.0 32.9,74.2 32.3,72.5 32.0,70.6 31.8,68.8 31.8,67.0 31.9,65.1 32.2,63.3 32.6,61.4 33.0,59.6 33.6,57.8 34.1,56.0 34.8,54.3 35.4,52.6 36.0,50.9 36.6,49.3 37.2,47.8 37.7,46.3 38.2,44.9 38.7,43.6 39.0,42.4 39.4,41.3 39.6,40.3 39.8,39.5 39.9,38.8 40.0,38.3 40.1,38.0 40.1,37.8 40.2,37.9 40.2,38.2 40.3,38.7 40.5,39.3 40.7,40.2 41.1,41.3 41.7,42.6 42.4,44.1 43.3,45.7 44.4,47.5 45.7,49.3 47.2,51.3 49.0,53.4 51.0,55.5 53.2,57.6 55.6,59.8 58.1,61.9 60.8,63.9 63.6,65.9 66.4,67.7 69.3,69.4 72.2,71.0 75.0,72.5 77.8,73.8 80.4,74.9 82.8,75.8 85.1,76.5 87.2,77.1 89.0,77.5 90.6,77.7 91.9,77.8 93.0,77.7 93.8,77.5 94.4,77.1 94.7,76.6 94.8,76.0 94.7,75.3 94.3,74.4 93.8,73.5 93.1,72.5 92.3,71.4 91.3,70.3 90.1,69.1 88.9,67.8 87.6,66.5 86.1,65.1 84.7,63.7 83.1,62.2 81.5,60.7 79.9,59.1 78.3,57.5 76.7,55.9 75.1,54.4 73.5,52.8 72.0,51.2 70.5,49.7 69.1,48.2 67.8,46.8 66.5,45.5 65.3,44.3 64.2,43.2 63.2,42.2 62.2,41.4 61.3,40.8 60.5,40.3 59.7,40.1 58.9,40.0 58.1,40.1 57.2,40.5 56.3,41.1 55.4,41.8 54.4,42.8 53.2,43.9 52.0,45.2 50.7,46.7 49.3,48.3 47.8,50.0 46.1,51.8 44.4,53.6 42.7,55.5 40.9,57.4 39.1,59.3 37.3,61.2 35.5,63.0 33.8,64.8 32.2,66.5 30.8,68.0 29.4,69.5 28.2,70.8 27.2,72.1 26.4,73.1 25.7,74.1 25.3,74.9 25.1,75.5 25.1,76.1 25.3,76.5 25.7,76.7 26.3,76.9 27.1,76.9 28.1,76.8 29.3,76.6 30.6,76.2 32.1,75.8 33.8,75.2 35.6,74.5 37.5,73.7 39.6,72.8 41.7,71.8 44.0,70.7 46.4,69.5 48.8,68.1 51.3,66.6 53.8,65.1 56.3,63.4 58.8,61.6 61.2,59.8 63.6,57.9 66.0,55.9 68.2,53.9 70.3,51.9 72.2,49.9 74.0,47.9 75.6,46.0 77.1,44.1 78.4,42.4 79.5,40.7 80.4,39.2 81.1,37.9 81.8,36.8 82.3,35.8 82.6,35.1 83.0,34.6 83.2,34.4 83.4,34.4 83.6,34.7 83.8,35.1 84.0,35.9 84.2,36.8 84.4,38.0 84.7,39.4 85.1,40.9 85.5,42.6 85.9,44.4 86.3,46.3 86.7,48.4 87.2,50.5 87.6,52.6 88.0,54.7 88.3,56.9 88.5,59.0 88.7,61.1 88.7,63.1 88.7,65.1 88.5,67.0 88.2,68.8 87.7,70.5 87.1,72.2 86.3,73.7 85.4,75.1 84.3,76.4 83.1,77.7 81.6,78.8 80.1,79.8 78.3,80.7 76.4,81.4 74.4,82.1 72.1,82.6 69.8,83.0 67.3,83.2 64.6,83.3 61.9,83.2 59.1,83.0 56.2,82.5 53.2,81.9 50.2,81.1 47.3,80.1 44.3,78.9 41.5,77.4 38.7,75.8 36.2,74.0 33.7,72.0 31.5,69.8 29.6,67.5 27.9,65.0 26.4,62.4 25.3,59.8 24.4,57.0 23.9,54.3 23.6,51.5 23.6,48.8 23.8,46.1 24.3,43.6 25.0,41.1 25.8,38.9 26.8,36.8 27.9,34.9 29.1,33.3 30.3,31.9 31.5,30.7 32.7,29.9 33.9,29.3 35.0,29.0 36.1,28.9 37.1,29.1 38.0,29.6 38.8,30.3 39.5,31.3 40.2,32.4 40.8,33.8 41.4,35.3 42.0,36.9 42.5,38.7 43.0,40.6 43.6,42.6 44.1,44.7 44.8,46.8 45.5,49.0 46.2,51.2 47.1,53.4 48.1,55.7 49.1,58.0 50.4,60.2 51.7,62.5 53.2,64.8 54.8,67.1 56.6,69.3 58.5,71.6 60.6,73.7 62.9,75.9 65.3,78.0 67.8,80.0 70.4,82.0 73.2,83.9 76.0,85.6 78.9,87.2" class="shadow"/>
    <polyline points="78.9,87.2 81.7,88.6 84.6,89.9 87.4,91.0 90.1,91.8 92.7,92.4 95.1,92.8 97.3,92.9 99.2,92.7 100.8,92.2 102.2,91.4 103.1,90.3 103.7,89.0 104.0,87.4 103.9,85.4 103.4,83.3 102.6,80.9 101.4,78.3 99.9,75.6 98.2,72.7 96.2,69.7 94.1,66.6 91.8,63.5 89.4,60.4 86.9,57.4 84.4,54.4 81.9,51.5 79.5,48.7 77.2,46.1 75.0,43.7 73.0,41.4 71.1,39.4 69.3,37.6 67.7,36.0 66.3,34.7 65.0,33.5 63.8,32.7 62.8,32.0 61.9,31.6 61.1,31.3 60.4,31.3 59.7,31.4 59.1,31.8 58.5,32.3 57.9,32.9 57.2,33.7 56.5,34.7 55.7,35.8 54.9,37.0 54.0,38.4 52.9,39.9 51.8,41.5 50.5,43.3 49.1,45.1 47.5,47.1 45.9,49.2 44.1,51.5 42.1,53.8 40.1,56.3 38.0,58.8 35.8,61.4 33.6,64.1 31.3,66.8 29.1,69.6 27.0,72.3 24.9,75.0 23.0,77.7 21.3,80.3 19.8,82.7 18.6,85.1 17.6,87.2 17.0,89.1 16.8,90.9 16.9,92.3 17.4,93.5 18.2,94.4 19.5,95.0 21.1,95.3 23.1,95.3 25.4,95.0 27.9,94.3 30.7,93.4 33.7,92.1 36.8,90.6 40.0,88.9 43.3,87.0 46.6,84.8 49.8,82.5 52.9,80.0 55.9,77.5 58.7,74.9 61.3,72.2 63.7,69.5 65.9,66.9 67.9,64.2 69.6,61.7 71.1,59.1 72.4,56.7 73.5,54.4 74.4,52.2 75.1,50.1 75.7,48.1 76.1,46.3 76.5,44.6 76.8,43.0 77.0,41.6 77.2,40.2 77.3,39.1 77.5,38.0 77.7,37.1 77.9,36.3 78.2,35.7 78.6,35.2 79.0,34.8 79.6,34.6 80.2,34.6 80.9,34.7 81.7,35.0 82.7,35.5 83.7,36.2 84.7,37.1 85.9,38.2 87.0,39.5 88.2,41.0 89.4,42.6 90.5,44.5 91.5,46.5 92.5,48.7 93.2,51.0 93.8,53.5 94.2,56.0 94.3,58.6 94.2,61.3 93.7,63.9 93.0,66.5 91.9,69.1 90.4,71.6 88.7,74.0 86.6,76.3 84.2,78.3 81.6,80.2 78.7,81.9 75.7,83.4 72.4,84.6 69.1,85.5 65.7,86.2 62.3,86.7 58.9,86.9 55.6,86.8 52.4,86.6 49.4,86.0 46.6,85.3 44.0,84.4 41.6,83.3 39.5,82.1 37.7,80.7 36.1,79.2 34.8,77.6 33.7,76.0 32.9,74.2 32.3,72.5 32.0,70.6 31.8,68.8 31.8,67.0 31.9,65.1 32.2,63.3 32.6,61.4 33.0,59.6 33.6,57.8 34.1,56.0 34.8,54.3 35.4,52.6 36.0,50.9 36.6,49.3 37.2,47.8 37.7,46.3 38.2,44.9 38.7,43.6 39.0,42.4 39.4,41.3 39.6,40.3 39.8,39.5 39.9,38.8 40.0,38.3 40.1,38.0 40.1,37.8 40.2,37.9 40.2,38.2 40.3,38.7 40.5,39.3 40.7,40.2 41.1,41.3 41.7,42.6 42.4,44.1 43.3,45.7 44.4,47.5 45.7,49.3 47.2,51.3 49.0,53.4 51.0,55.5 53.2,57.6 55.6,59.8 58.1,61.9 60.8,63.9 63.6,65.9 66.4,67.7 69.3,69.4 72.2,71.0 75.0,72.5 77.8,73.8 80.4,74.9 82.8,75.8 85.1,76.5 87.2,77.1 89.0,77.5 90.6,77.7 91.9,77.8 93.0,77.7 93.8,77.5 94.4,77.1 94.7,76.6 94.8,76.0 94.7,75.3 94.3,74.4 93.8,73.5 93.1,72.5 92.3,71.4 91.3,70.3 90.1,69.1 88.9,67.8 87.6,66.5 86.1,65.1 84.7,63.7 83.1,62.2 81.5,60.7 79.9,59.1 78.3,57.5 76.7,55.9 75.1,54.4 73.5,52.8 72.0,51.2 70.5,49.7 69.1,48.2 67.8,46.8 66.5,45.5 65.3,44.3 64.2,43.2 63.2,42.2 62.2,41.4 61.3,40.8 60.5,40.3 59.7,40.1 58.9,40.0 58.1,40.1 57.2,40.5 56.3,41.1 55.4,41.8 54.4,42.8 53.2,43.9 52.0,45.2 50.7,46.7 49.3,48.3 47.8,50.0 46.1,51.8 44.4,53.6 42.7,55.5 40.9,57.4 39.1,59.3 37.3,61.2 35.5,63.0 33.8,64.8 32.2,66.5 30.8,68.0 29.4,69.5 28.2,70.8 27.2,72.1 26.4,73.1 25.7,74.1 25.3,74.9 25.1,75.5 25.1,76.1 25.3,76.5 25.7,76.7 26.3,76.9 27.1,76.9 28.1,76.8 29.3,76.6 30.6,76.2 32.1,75.8 33.8,75.2 35.6,74.5 37.5,73.7 39.6,72.8 41.7,71.8 44.0,70.7 46.4,69.5 48.8,68.1 51.3,66.6 53.8,65.1 56.3,63.4 58.8,61.6 61.2,59.8 63.6,57.9 66.0,55.9 68.2,53.9 70.3,51.9 72.2,49.9 74.0,47.9 75.6,46.0 77.1,44.1 78.4,42.4 79.5,40.7 80.4,39.2 81.1,37.9 81.8,36.8 82.3,35.8 82.6,35.1 83.0,34.6 83.2,34.4 83.4,34.4 83.6,34.7 83.8,35.1 84.0,35.9 84.2,36.8 84.4,38.0 84.7,39.4 85.1,40.9 85.5,42.6 85.9,44.4 86.3,46.3 86.7,48.4 87.2,50.5 87.6,52.6 88.0,54.7 88.3,56.9 88.5,59.0 88.7,61.1 88.7,63.1 88.7,65.1 88.5,67.0 88.2,68.8 87.7,70.5 87.1,72.2 86.3,73.7 85.4,75.1 84.3,76.4 83.1,77.7 81.6,78.8 80.1,79.8 78.3,80.7 76.4,81.4 74.4,82.1 72.1,82.6 69.8,83.0 67.3,83.2 64.6,83.3 61.9,83.2 59.1,83.0 56.2,82.5 53.2,81.9 50.2,81.1 47.3,80.1 44.3,78.9 41.5,77.4 38.7,75.8 36.2,74.0 33.7,72.0 31.5,69.8 29.6,67.5 27.9,65.0 26.4,62.4 25.3,59.8 24.4,57.0 23.9,54.3 23.6,51.5 23.6,48.8 23.8,46.1 24.3,43.6 25.0,41.1 25.8,38.9 26.8,36.8 27.9,34.9 29.1,33.3 30.3,31.9 31.5,30.7 32.7,29.9 33.9,29.3 35.0,29.0 36.1,28.9 37.1,29.1 38.0,29.6 38.8,30.3 39.5,31.3 40.2,32.4 40.8,33.8 41.4,35.3 42.0,36.9 42.5,38.7 43.0,40.6 43.6,42.6 44.1,44.7 44.8,46.8 45.5,49.0 46.2,51.2 47.1,53.4 48.1,55.7 49.1,58.0 50.4,60.2 51.7,62.5 53.2,64.8 54.8,67.1 56.6,69.3 58.5,71.6 60.6,73.7 62.9,75.9 65.3,78.0 67.8,80.0 70.4,82.0 73.2,83.9 76.0,85.6 78.9,87.2" class="rope"/>
    <rect x="37.8" y="70.6" width="20" height="6" rx="3" transform="rotate(40.0 47.8 73.6)" fill="#f8f7f2"/><rect x="46.8" y="84.6" width="20" height="6" rx="3" transform="rotate(10.0 56.8 87.6)" fill="#f8f7f2"/><rect x="68.0" y="77.9" width="20" height="6" rx="3" transform="rotate(160.0 78.0 80.9)" fill="#f8f7f2"/><rect x="20.8" y="55.4" width="20" height="6" rx="3" transform="rotate(130.0 30.8 58.4)" fill="#f8f7f2"/><rect x="84.7" y="34.1" width="20" height="6" rx="3" transform="rotate(100.0 94.7 37.1)" fill="#f8f7f2"/><rect x="16.7" y="30.1" width="20" height="6" rx="3" transform="rotate(70.0 26.7 33.1)" fill="#f8f7f2"/><rect x="16.1" y="83.1" width="20" height="6" rx="3" transform="rotate(0.0 26.1 86.1)" fill="#f8f7f2"/>
    <polyline points="78.9,87.2 81.7,88.6 84.6,89.9 87.4,91.0 90.1,91.8 92.7,92.4 95.1,92.8 97.3,92.9 99.2,92.7 100.8,92.2 102.2,91.4 103.1,90.3 103.7,89.0 104.0,87.4 103.9,85.4 103.4,83.3 102.6,80.9 101.4,78.3 99.9,75.6 98.2,72.7 96.2,69.7 94.1,66.6 91.8,63.5 89.4,60.4 86.9,57.4 84.4,54.4 81.9,51.5 79.5,48.7 77.2,46.1 75.0,43.7 73.0,41.4 71.1,39.4 69.3,37.6 67.7,36.0 66.3,34.7 65.0,33.5 63.8,32.7 62.8,32.0 61.9,31.6 61.1,31.3 60.4,31.3 59.7,31.4 59.1,31.8 58.5,32.3 57.9,32.9 57.2,33.7 56.5,34.7 55.7,35.8 54.9,37.0 54.0,38.4 52.9,39.9 51.8,41.5 50.5,43.3 49.1,45.1 47.5,47.1 45.9,49.2 44.1,51.5 42.1,53.8 40.1,56.3 38.0,58.8 35.8,61.4 33.6,64.1 31.3,66.8 29.1,69.6 27.0,72.3 24.9,75.0 23.0,77.7 21.3,80.3 19.8,82.7 18.6,85.1 17.6,87.2 17.0,89.1 16.8,90.9 16.9,92.3 17.4,93.5 18.2,94.4 19.5,95.0 21.1,95.3 23.1,95.3 25.4,95.0 27.9,94.3 30.7,93.4 33.7,92.1 36.8,90.6 40.0,88.9 43.3,87.0 46.6,84.8 49.8,82.5 52.9,80.0 55.9,77.5 58.7,74.9 61.3,72.2 63.7,69.5 65.9,66.9 67.9,64.2 69.6,61.7 71.1,59.1 72.4,56.7 73.5,54.4 74.4,52.2 75.1,50.1 75.7,48.1 76.1,46.3 76.5,44.6 76.8,43.0 77.0,41.6 77.2,40.2 77.3,39.1 77.5,38.0 77.7,37.1 77.9,36.3 78.2,35.7 78.6,35.2 79.0,34.8 79.6,34.6 80.2,34.6 80.9,34.7 81.7,35.0 82.7,35.5 83.7,36.2 84.7,37.1 85.9,38.2 87.0,39.5 88.2,41.0 89.4,42.6 90.5,44.5 91.5,46.5 92.5,48.7 93.2,51.0 93.8,53.5 94.2,56.0 94.3,58.6 94.2,61.3 93.7,63.9 93.0,66.5 91.9,69.1 90.4,71.6 88.7,74.0 86.6,76.3 84.2,78.3 81.6,80.2 78.7,81.9 75.7,83.4 72.4,84.6 69.1,85.5 65.7,86.2 62.3,86.7 58.9,86.9 55.6,86.8 52.4,86.6 49.4,86.0 46.6,85.3 44.0,84.4 41.6,83.3 39.5,82.1 37.7,80.7 36.1,79.2 34.8,77.6 33.7,76.0 32.9,74.2 32.3,72.5 32.0,70.6 31.8,68.8 31.8,67.0 31.9,65.1 32.2,63.3 32.6,61.4 33.0,59.6 33.6,57.8 34.1,56.0 34.8,54.3 35.4,52.6 36.0,50.9 36.6,49.3 37.2,47.8 37.7,46.3 38.2,44.9 38.7,43.6 39.0,42.4 39.4,41.3 39.6,40.3 39.8,39.5 39.9,38.8 40.0,38.3 40.1,38.0 40.1,37.8 40.2,37.9 40.2,38.2 40.3,38.7 40.5,39.3 40.7,40.2 41.1,41.3 41.7,42.6 42.4,44.1 43.3,45.7 44.4,47.5 45.7,49.3 47.2,51.3 49.0,53.4 51.0,55.5 53.2,57.6 55.6,59.8 58.1,61.9 60.8,63.9 63.6,65.9 66.4,67.7 69.3,69.4 72.2,71.0 75.0,72.5 77.8,73.8 80.4,74.9 82.8,75.8 85.1,76.5 87.2,77.1 89.0,77.5 90.6,77.7 91.9,77.8 93.0,77.7 93.8,77.5 94.4,77.1 94.7,76.6 94.8,76.0 94.7,75.3 94.3,74.4 93.8,73.5 93.1,72.5 92.3,71.4 91.3,70.3 90.1,69.1 88.9,67.8 87.6,66.5 86.1,65.1 84.7,63.7 83.1,62.2 81.5,60.7 79.9,59.1 78.3,57.5 76.7,55.9 75.1,54.4 73.5,52.8 72.0,51.2 70.5,49.7 69.1,48.2 67.8,46.8 66.5,45.5 65.3,44.3 64.2,43.2 63.2,42.2 62.2,41.4 61.3,40.8 60.5,40.3 59.7,40.1 58.9,40.0 58.1,40.1 57.2,40.5 56.3,41.1 55.4,41.8 54.4,42.8 53.2,43.9 52.0,45.2 50.7,46.7 49.3,48.3 47.8,50.0 46.1,51.8 44.4,53.6 42.7,55.5 40.9,57.4 39.1,59.3 37.3,61.2 35.5,63.0 33.8,64.8 32.2,66.5 30.8,68.0 29.4,69.5 28.2,70.8 27.2,72.1 26.4,73.1 25.7,74.1 25.3,74.9 25.1,75.5 25.1,76.1 25.3,76.5 25.7,76.7 26.3,76.9 27.1,76.9 28.1,76.8 29.3,76.6 30.6,76.2 32.1,75.8 33.8,75.2 35.6,74.5 37.5,73.7 39.6,72.8 41.7,71.8 44.0,70.7 46.4,69.5 48.8,68.1 51.3,66.6 53.8,65.1 56.3,63.4 58.8,61.6 61.2,59.8 63.6,57.9 66.0,55.9 68.2,53.9 70.3,51.9 72.2,49.9 74.0,47.9 75.6,46.0 77.1,44.1 78.4,42.4 79.5,40.7 80.4,39.2 81.1,37.9 81.8,36.8 82.3,35.8 82.6,35.1 83.0,34.6 83.2,34.4 83.4,34.4 83.6,34.7 83.8,35.1 84.0,35.9 84.2,36.8 84.4,38.0 84.7,39.4 85.1,40.9 85.5,42.6 85.9,44.4 86.3,46.3 86.7,48.4 87.2,50.5 87.6,52.6 88.0,54.7 88.3,56.9 88.5,59.0 88.7,61.1 88.7,63.1 88.7,65.1 88.5,67.0 88.2,68.8 87.7,70.5 87.1,72.2 86.3,73.7 85.4,75.1 84.3,76.4 83.1,77.7 81.6,78.8 80.1,79.8 78.3,80.7 76.4,81.4 74.4,82.1 72.1,82.6 69.8,83.0 67.3,83.2 64.6,83.3 61.9,83.2 59.1,83.0 56.2,82.5 53.2,81.9 50.2,81.1 47.3,80.1 44.3,78.9 41.5,77.4 38.7,75.8 36.2,74.0 33.7,72.0 31.5,69.8 29.6,67.5 27.9,65.0 26.4,62.4 25.3,59.8 24.4,57.0 23.9,54.3 23.6,51.5 23.6,48.8 23.8,46.1 24.3,43.6 25.0,41.1 25.8,38.9 26.8,36.8 27.9,34.9 29.1,33.3 30.3,31.9 31.5,30.7 32.7,29.9 33.9,29.3 35.0,29.0 36.1,28.9 37.1,29.1 38.0,29.6 38.8,30.3 39.5,31.3 40.2,32.4 40.8,33.8 41.4,35.3 42.0,36.9 42.5,38.7 43.0,40.6 43.6,42.6 44.1,44.7 44.8,46.8 45.5,49.0 46.2,51.2 47.1,53.4 48.1,55.7 49.1,58.0 50.4,60.2 51.7,62.5 53.2,64.8 54.8,67.1 56.6,69.3 58.5,71.6 60.6,73.7 62.9,75.9 65.3,78.0 67.8,80.0 70.4,82.0 73.2,83.9 76.0,85.6 78.9,87.2" class="highlight"/>
  
</svg>