<svg xmlns="http://www.w3.org/2000/svg" viewBox="0 0 120 120" role="img">
  <rect width="120" height="120" rx="10" fill="#f8f7f2"/>
  <style>
    .shadow{fill:none;stroke:#4a4f56;stroke-width:13;stroke-linecap:round;stroke-linejoin:round;opacity:.22}
    .rope{fill:none;stroke:#1778bd;stroke-width:8;stroke-linecap:round;stroke-linejoin:round}
    .highlight{fill:none;stroke:#4fb1f0;stroke-width:2.2;stroke-linecap:round;stroke-linejoin:round;opacity:.85}
  </style>
  
    <polyline points="84.3,93.0 88.0,94.2 91.5,95.1 94.7,95.6 97.7,95.6 100.2,95.3 102.2,94.4 103.8,93.2 104.7,91.6 105.2,89.5 105.0,87.2 104.3,84.5 103.0,81.6 101.3,78.4 99.1,75.1 96.6,71.7 93.8,68.3 90.8,64.8 87.6,61.4 84.4,58.1 81.2,54.9 78.0,51.8 75.0,49.0 72.1,46.3 69.5,43.9 67.0,41.7 64.8,39.7 62.8,38.0 61.0,36.5 59.5,35.3 58.1,34.3 56.9,33.5 55.9,33.0 54.9,32.6 54.1,32.5 53.3,32.6 52.5,32.9 51.7,33.5 50.8,34.3 49.9,35.3 48.9,36.6 47.7,38.1 46.4,39.9 44.9,41.9 43.3,44.2 41.4,46.7 39.5,49.4 37.4,52.4 35.1,55.5 32.9,58.7 30.5,62.1 28.3,65.6 26.1,69.0 24.1,72.5 22.3,75.8 20.8,79.0 19.7,82.1 19.0,84.9 18.8,87.4 19.1,89.6 19.9,91.4 21.3,92.9 23.1,93.9 25.5,94.5 28.3,94.8 31.5,94.5 35.0,93.9 38.8,92.9 42.7,91.5 46.8,89.8 50.8,87.9 54.8,85.6 58.7,83.2 62.4,80.6 65.8,77.8 69.0,75.0 71.8,72.1 74.4,69.3 76.5,66.4 78.4,63.5 79.9,60.7 81.2,58.0 82.1,55.4 82.8,52.8 83.3,50.4 83.6,48.0 83.7,45.8 83.7,43.7 83.6,41.8 83.5,40.0 83.3,38.3 83.1,36.8 82.9,35.5 82.8,34.3 82.7,33.4 82.6,32.8 82.7,32.4 82.8,32.2 83.0,32.4 83.3,32.8 83.7,33.6 84.0,34.7 84.4,36.1 84.7,37.9 85.0,39.9 85.1,42.2 85.0,44.8 84.7,47.6 84.2,50.6 83.3,53.7 82.1,56.9 80.6,60.1 78.7,63.4 76.4,66.6 73.7,69.6 70.7,72.6 67.5,75.3 64.0,77.7 60.4,79.9 56.6,81.8 52.8,83.4 49.1,84.7 45.5,85.6 42.0,86.2 38.8,86.5 35.9,86.4 33.4,86.1 31.1,85.5 29.3,84.6 27.9,83.5 26.8,82.2 26.2,80.7 25.9,79.1 25.9,77.4 26.3,75.5 26.9,73.6 27.8,71.6 28.9,69.5 30.2,67.4 31.6,65.2 33.2,63.0 34.9,60.7 36.7,58.5 38.5,56.2 40.3,54.0 42.2,51.8 44.0,49.6 45.7,47.4 47.4,45.4 49.1,43.4 50.6,41.6 52.0,40.0 53.4,38.5 54.6,37.3 55.8,36.2 56.9,35.5 57.9,35.0 58.9,34.9 60.0,35.0 61.1,35.5 62.2,36.3 63.5,37.4 64.9,38.7 66.4,40.4 68.2,42.3 70.0,44.4 72.1,46.7 74.3,49.2 76.6,51.7 78.9,54.3 81.3,56.9 83.8,59.5 86.1,62.0 88.3,64.5 90.4,66.7 92.2,68.8 93.7,70.8 95.0,72.5 95.9,74.0 96.5,75.2 96.7,76.3 96.5,77.1 96.0,77.7 95.1,78.1 93.9,78.2 92.4,78.2 90.7,78.0 88.6,77.6 86.4,77.1 83.9,76.4 81.3,75.6 78.5,74.6 75.6,73.5 72.7,72.3 69.7,71.0 66.6,69.5 63.6,67.9 60.6,66.3 57.6,64.5 54.8,62.7 52.0,60.8 49.5,58.8 47.1,56.8 44.8,54.7 42.9,52.7 41.1,50.7 39.6,48.8 38.3,46.9 37.2,45.2 36.3,43.7 35.7,42.3 35.2,41.1 34.8,40.2 34.5,39.6 34.2,39.2 34.0,39.1 33.8,39.2 33.6,39.7 33.3,40.4 33.0,41.5 32.7,42.7 32.3,44.2 31.9,45.8 31.5,47.6 31.2,49.6 30.9,51.6 30.7,53.7 30.7,55.8 30.9,57.9 31.2,60.0 31.8,62.0 32.7,63.9 33.8,65.7 35.1,67.4 36.7,68.9 38.6,70.3 40.6,71.5 43.0,72.5 45.5,73.4 48.2,74.2 51.0,74.7 54.0,75.1 57.1,75.4 60.2,75.5 63.5,75.5 66.7,75.3 70.0,75.0 73.2,74.5 76.4,73.8 79.5,73.0 82.4,72.0 85.2,70.9 87.7,69.6 90.0,68.1 92.1,66.5 93.8,64.8 95.1,62.9 96.1,61.0 96.7,58.9 96.9,56.8 96.8,54.6 96.3,52.4 95.5,50.3 94.3,48.2 93.0,46.3 91.4,44.4 89.7,42.8 87.9,41.4 86.0,40.2 84.1,39.2 82.3,38.5 80.5,38.1 78.9,38.0 77.3,38.2 75.9,38.7 74.6,39.5 73.4,40.5 72.3,41.8 71.2,43.3 70.2,44.9 69.2,46.8 68.1,48.7 67.0,50.8 65.8,52.9 64.5,55.0 63.0,57.1 61.5,59.2 59.8,61.3 58.0,63.3 56.1,65.2 54.0,67.1 51.8,68.8 49.6,70.4 47.2,72.0 44.8,73.4 42.4,74.6 39.9,75.8 37.5,76.8 35.1,77.7 32.8,78.4 30.6,79.0 28.6,79.4 26.7,79.6 25.1,79.6 23.8,79.5 22.8,79.1 22.1,78.4 21.9,77.6 22.0,76.5 22.6,75.1 23.6,73.6 25.1,71.8 27.0,69.7 29.3,67.5 32.0,65.1 34.9,62.5 38.1,59.8 41.5,57.1 45.0,54.3 48.6,51.5 52.1,48.8 55.5,46.2 58.7,43.7 61.7,41.4 64.5,39.4 66.9,37.6 69.1,36.1 70.9,34.8 72.4,34.0 73.7,33.4 74.7,33.2 75.5,33.3 76.0,33.7 76.5,34.4 76.8,35.5 77.1,36.7 77.4,38.2 77.6,39.9 77.9,41.7 78.3,43.7 78.7,45.9 79.3,48.1 79.9,50.3 80.6,52.7 81.4,55.0 82.2,57.4 83.1,59.8 84.0,62.1 85.0,64.5 85.9,66.8 86.8,69.1 87.6,71.4 88.2,73.5 88.7,75.7 89.0,77.7 89.1,79.6 88.9,81.4 88.4,83.1 87.5,84.6 86.3,85.8 84.6,86.9 82.5,87.7 80.1,88.2 77.2,88.4 74.0,88.3 70.5,87.8 66.6,87.0 62.6,85.8 58.4,84.3 54.2,82.4 50.0,80.2 45.9,77.8 42.0,75.0 38.4,72.1 35.1,68.9 32.2,65.6 29.7,62.3 27.8,58.9 26.3,55.5 25.3,52.2 24.7,49.0 24.7,46.0 25.0,43.3 25.6,40.7 26.6,38.5 27.8,36.5 29.2,34.9 30.7,33.6 32.3,32.6 33.8,31.9 35.4,31.6 36.8,31.5 38.2,31.8 39.4,32.3 40.5,33.0 41.5,34.0 42.3,35.2 43.1,36.6 43.7,38.1 44.2,39.9 44.7,41.7 45.1,43.8 45.6,45.9 46.1,48.2 46.6,50.7 47.3,53.2 48.1,55.9 49.1,58.6 50.2,61.5 51.7,64.4 53.4,67.4 55.3,70.4 57.6,73.4 60.2,76.4 63.1,79.3 66.2,82.1 69.6,84.8 73.1,87.2 76.8,89.4 80.6,91.4 84.3,93.0" class="shadow"/>
    <polyline points="84.3,93.0 88.0,94.2 91.5,95.1 94.7,95.6 97.7,95.6 100.2,95.3 102.2,94.4 103.8,93.2 104.7,91.6 105.2,89.5 105.0,87.2 104.3,84.5 103.0,81.6 101.3,78.4 99.1,75.1 96.6,71.7 93.8,68.3 90.8,64.8 87.6,61.4 84.4,58.1 81.2,54.9 78.0,51.8 75.0,49.0 72.1,46.3 69.5,43.9 67.0,41.7 64.8,39.7 62.8,38.0 61.0,36.5 59.5,35.3 58.1,34.3 56.9,33.5 55.9,33.0 54.9,32.6 54.1,32.5 53.3,32.6 52.5,32.9 51.7,33.5 50.8,34.3 49.9,35.3 48.9,36.6 47.7,38.1 46.4,39.9 44.9,41.9 43.3,44.2 41.4,46.7 39.5,49.4 37.4,52.4 35.1,55.5 32.9,58.7 30.5,62.1 28.3,65.6 26.1,69.0 24.1,72.5 22.3,75.8 20.8,79.0 19.7,82.1 19.0,84.9 18.8,87.4 19.1,89.6 19.9,91.4 21.3,92.9 23.1,93.9 25.5,94.5 28.3,94.8 31.5,94.5 35.0,93.9 38.8,92.9 42.7,91.5 46.8,89.8 50.8,87.9 54.8,85.6 58.7,83.2 62.4,80.6 65.8,77.8 69.0,75.0 71.8,72.1 74.4,69.3 76.5,66.4 78.4,63.5 79.9,60.7 81.2,58.0 82.1,55.4 82.8,52.8 83.3,50.4 83.6,48.0 83.7,45.8 83.7,43.7 83.6,41.8 83.5,40.0 83.3,38.3 83.1,36.8 82.9,35.5 82.8,34.3 82.7,33.4 82.6,32.8 82.7,32.4 82.8,32.2 83.0,32.4 83.3,32.8 83.7,33.6 84.0,34.7 84.4,36.1 84.7,37.9 85.0,39.9 85.1,42.2 85.0,44.8 84.7,47.6 84.2,50.6 83.3,53.7 82.1,56.9 80.6,60.1 78.7,63.4 76.4,66.6 73.7,69.6 70.7,72.6 67.5,75.3 64.0,77.7 60.4,79.9 56.6,81.8 52.8,83.4 49.1,84.7 45.5,85.6 42.0,86.2 38.8,86.5 35.9,86.4 33.4,86.1 31.1,85.5 29.3,84.6 27.9,83.5 26.8,82.2 26.2,80.7 25.9,79.1 25.9,77.4 26.3,75.5 26.9,73.6 27.8,71.6 28.9,69.5 30.2,67.4 31.6,65.2 33.2,63.0 34.9,60.7 36.7,58.5 38.5,56.2 40.3,54.0 42.2,51.8 44.0,49.6 45.7,47.4 47.4,45.4 49.1,43.4 50.6,41.6 52.0,40.0 53.4,38.5 54.6,37.3 55.8,36.2 56.9,35.5 57.9,35.0 58.9,34.9 60.0,35.0 61.1,35.5 62.2,36.3 63.5,37.4 64.9,38.7 66.4,40.4 68.2,42.3 70.0,44.4 72.1,46.7 74.3,49.2 76.6,51.7 78.9,54.3 81.3,56.9 83.8,59.5 86.1,62.0 88.3,64.5 90.4,66.7 92.2,68.8 93.7,70.8 95.0,72.5 95.9,74.0 96.5,75.2 96.7,76.3 96.5,77.1 96.0,77.7 95.1,78.1 93.9,78.2 92.4,78.2 90.7,78.0 88.6,77.6 86.4,77.1 83.9,76.4 81.3,75.6 78.5,74.6 75.6,73.5 72.7,72.3 69.7,71.0 66.6,69.5 63.6,67.9 60.6,66.3 57.6,64.5 54.8,62.7 52.0,60.8 49.5,58.8 47.1,56.8 44.8,54.7 42.9,52.7 41.1,50.7 39.6,48.8 38.3,46.9 37.2,45.2 36.3,43.7 35.7,42.3 35.2,41.1 34.8,40.2 34.5,39.6 34.2,39.2 34.0,39.1 33.8,39.2 33.6,39.7 33.3,40.4 33.0,41.5 32.7,42.7 32.3,44.2 31.9,45.8 31.5,47.6 31.2,49.6 30.9,51.6 30.7,53.7 30.7,55.8 30.9,57.9 31.2,60.0 31.8,62.0 32.7,63.9 33.8,65.7 35.1,67.4 36.7,68.9 38.6,70.3 40.6,71.5 43.0,72.5 45.5,73.4 48.2,74.2 51.0,74.7 54.0,75.1 57.1,75.4 60.2,75.5 63.5,75.5 66.7,75.3 70.0,75.0 73.2,74.5 76.4,73.8 79.5,73.0 82.4,72.0 85.2,70.9 87.7,69.6 90.0,68.1 92.1,66.5 93.8,64.8 95.1,62.9 96.1,61.0 96.7,58.9 96.9,56.8 96.8,54.6 96.3,52.4 95.5,50.3 94.3,48.2 93.0,46.3 91.4,44.4 89.7,42.8 87.9,41.4 86.0,40.2 84.1,39.2 82.3,38.5 80.5,38.1 78.9,38.0 77.3,38.2 75.9,38.7 74.6,39.5 73.4,40.5 72.3,41.8 71.2,43.3 70.2,44.9 69.2,46.8 68.1,48.7 67.0,50.8 65.8,52.9 64.5,55.0 63.0,57.1 61.5,59.2 59.8,61.3 58.0,63.3 56.1,65.2 54.0,67.1 51.8,68.8 49.6,70.4 47.2,72.0 44.8,73.4 42.4,74.6 39.9,75.8 37.5,76.8 35.1,77.7 32.8,78.4 30.6,79.0 28.6,79.4 26.7,79.6 25.1,79.6 23.8,79.5 22.8,79.1 22.1,78.4 21.9,77.6 22.0,76.5 22.6,75.1 23.6,73.6 25.1,71.8 27.0,69.7 29.3,67.5 32.0,65.1 34.9,62.5 38.1,59.8 41.5,57.1 45.0,54.3 48.6,51.5 52.1,48.8 55.5,46.2 58.7,43.7 61.7,41.4 64.5,39.4 66.9,37.6 69.1,36.1 70.9,34.8 72.4,34.0 73.7,33.4 74.7,33.2 75.5,33.3 76.0,33.7 76.5,34.4 76.8,35.5 77.1,36.7 77.4,38.2 77.6,39.9 77.9,41.7 78.3,43.7 78.7,45.9 79.3,48.1 79.9,50.3 80.6,52.7 81.4,55.0 82.2,57.4 83.1,59.8 84.0,62.1 85.0,64.5 85.9,66.8 86.8,69.1 87.6,71.4 88.2,73.5 88.7,75.7 89.0,77.7 89.1,79.6 88.9,81.4 88.4,83.1 87.5,84.6 86.3,85.8 84.6,86.9 82.5,87.7 80.1,88.2 77.2,88.4 74.0,88.3 70.5,87.8 66.6,87.0 62.6,85.8 58.4,84.3 54.2,82.4 50.0,80.2 45.9,77.8 42.0,75.0 38.4,72.1 35.1,68.9 32.2,65.6 29.7,62.3 27.8,58.9 26.3,55.5 25.3,52.2 24.7,49.0 24.7,46.0 25.0,43.3 25.6,40.7 26.6,38.5 27.8,36.5 29.2,34.9 30.7,33.6 32.3,32.6 33.8,31.9 35.4,31.6 36.8,31.5 38.2,31.8 39.4,32.3 40.5,33.0 41.5,34.0 42.3,35.2 43.1,36.6 43.7,38.1 44.2,39.9 44.7,41.7 45.1,43.8 45.6,45.9 46.1,48.2 46.6,50.7 47.3,53.2 48.1,55.9 49.1,58.6 50.2,61.5 51.7,64.4 53.4,67.4 55.3,70.4 57.6,73.4 60.2,76.4 63.1,79.3 66.2,82.1 69.6,84.8 73.1,87.2 76.8,89.4 80.6,91.4 84.3,93.0" class="rope"/>
    <rect x="83.2" y="33.3" width="20" height="6" rx="3" transform="rotate(112.5 93.2 36.3)" fill="#f8f7f2"/><rect x="53.4" y="33.3" width="20" height="6" rx="3" transform="rotate(82.5 63.4 36.3)" fill="#f8f7f2"/><rect x="15.3" y="33.3" width="20" height="6" rx="3" transform="rotate(52.5 25.3 36.3)" fill="#f8f7f2"/><rect x="62.1" y="33.3" width="20" height="6" rx="3" transform="rotate(22.5 72.1 36.3)" fill="#f8f7f2"/><rect x="79.3" y="33.3" width="20" height="6" rx="3" transform="rotate(172.5 89.3 36.3)" fill="#f8f7f2"/><rect x="71.2" y="44.6" width="20" height="6" rx="3" transform="rotate(102.5 81.2 47.6)" fill="#f8f7f2"/><rect x="72.4" y="44.6" width="20" height="6" rx="3" transform="rotate(72.5 82.4 47.6)" fill="#f8f7f2"/>
    <polyline points="84.3,93.0 88.0,94.2 91.5,95.1 94.7,95.6 97.7,95.6 100.2,95.3 102.2,94.4 103.8,93.2 104.7,91.6 105.2,89.5 105.0,87.2 104.3,84.5 103.0,81.6 101.3,78.4 99.1,75.1 96.6,71.7 93.8,68.3 90.8,64.8 87.6,61.4 84.4,58.1 81.2,54.9 78.0,51.8 75.0,49.0 72.1,46.3 69.5,43.9 67.0,41.7 64.8,39.7 62.8,38.0 61.0,36.5 59.5,35.3 58.1,34.3 56.9,33.5 55.9,33.0 54.9,32.6 54.1,32.5 53.3,32.6 52.5,32.9 51.7,33.5 50.8,34.3 49.9,35.3 48.9,36.6 47.7,38.1 46.4,39.9 44.9,41.9 43.3,44.2 41.4,46.7 39.5,49.4 37.4,52.4 35.1,55.5 32.9,58.7 30.5,62.1 28.3,65.6 26.1,69.0 24.1,72.5 22.3,75.8 20.8,79.0 19.7,82.1 19.0,84.9 18.8,87.4 19.1,89.6 19.9,91.4 21.3,92.9 23.1,93.9 25.5,94.5 28.3,94.8 31.5,94.5 35.0,93.9 38.8,92.9 42.7,91.5 46.8,89.8 50.8,87.9 54.8,85.6 58.7,83.2 62.4,80.6 65.8,77.8 69.0,75.0 71.8,72.1 74.4,69.3 76.5,66.4 78.4,63.5 79.9,60.7 81.2,58.0 82.1,55.4 82.8,52.8 83.3,50.4 83.6,48.0 83.7,45.8 83.7,43.7 83.6,41.8 83.5,40.0 83.3,38.3 83.1,36.8 82.9,35.5 82.8,34.3 82.7,33.4 82.6,32.8 82.7,32.4 82.8,32.2 83.0,32.4 83.3,32.8 83.7,33.6 84.0,34.7 84.4,36.1 84.7,37.9 85.0,39.9 85.1,42.2 85.0,44.8 84.7,47.6 84.2,50.6 83.3,53.7 82.1,56.9 80.6,60.1 78.7,63.4 76.4,66.6 73.7,69.6 70.7,72.6 67.5,75.3 64.0,77.7 60.4,79.9 56.6,81.8 52.8,83.4 49.1,84.7 45.5,85.6 42.0,86.2 38.8,86.5 35.9,86.4 33.4,86.1 31.1,85.5 29.3,84.6 27.9,83.5 26.8,82.2 26.2,80.7 25.9,79.1 25.9,77.4 26.3,75.5 26.9,73.6 27.8,71.6 28.9,69.5 30.2,67.4 31.6,65.2 33.2,63.0 34.9,60.7 36.7,58.5 38.5,56.2 40.3,54.0 42.2,51.8 44.0,49.6 45.7,47.4 47.4,45.4 49.1,43.4 50.6,41.6 52.0,40.0 53.4,38.5 54.6,37.3 55.8,36.2 56.9,35.5 57.9,35.0 58.9,34.9 60.0,35.0 61.1,35.5 62.2,36.3 63.5,37.4 64.9,38.7 66.4,40.4 68.2,42.3 70.0,44.4 72.1,46.7 74.3,49.2 76.6,51.7 78.9,54.3 81.3,56.9 83.8,59.5 86.1,62.0 88.3,64.5 90.4,66.7 92.2,68.8 93.7,70.8 95.0,72.5 95.9,74.0 96.5,75.2 96.7,76.3 96.5,77.1 96.0,77.7 95.1,78.1 93.9,78.2 92.4,78.2 90.7,78.0 88.6,77.6 86.4,77.1 83.9,76.4 81.3,75.6 78.5,74.6 75.6,73.5 72.7,72.3 69.7,71.0 66.6,69.5 63.6,67.9 60.6,66.3 57.6,64.5 54.8,62.7 52.0,60.8 49.5,58.8 47.1,56.8 44.8,54.7 42.9,52.7 41.1,50.7 39.6,48.8 38.3,46.9 37.2,45.2 36.3,43.7 35.7,42.3 35.2,41.1 34.8,40.2 34.5,39.6 34.2,39.2 34.0,39.1 33.8,39.2 33.6,39.7 33.3,40.4 33.0,41.5 32.7,42.7 32.3,44.2 31.9,45.8 31.5,47.6 31.2,49.6 30.9,51.6 30.7,53.7 30.7,55.8 30.9,57.9 31.2,60.0 31.8,62.0 32.7,63.9 33.8,65.7 35.1,67.4 36.7,68.9 38.6,70.3 40.6,71.5 43.0,72.5 45.5,73.4 48.2,74.2 51.0,74.7 54.0,75.1 57.1,75.4 60.2,75.5 63.5,75.5 66.7,75.3 70.0,75.0 73.2,74.5 76.4,73.8 79.5,73.0 82.4,72.0 85.2,70.9 87.7,69.6 90.0,68.1 92.1,66.5 93.8,64.8 95.1,62.9 96.1,61.0 96.7,58.9 96.9,56.8 96.8,54.6 96.3,52.4 95.5,50.3 94.3,48.2 93.0,46.3 91.4,44.4 89.7,42.8 87.9,41.4 86.0,40.2 84.1,39.2 82.3,38.5 80.5,38.1 78.9,38.0 77.3,38.2 75.9,38.7 74.6,39.5 73.4,40.5 72.3,41.8 71.2,43.3 70.2,44.9 69.2,46.8 68.1,48.7 67.0,50.8 65.8,52.9 64.5,55.0 63.0,57.1 61.5,59.2 59.8,61.3 58.0,63.3 56.1,65.2 54.0,67.1 51.8,68.8 49.6,70.4 47.2,72.0 44.8,73.4 42.4,74.6 39.9,75.8 37.5,76.8 35.1,77.7 32.8,78.4 30.6,79.0 28.6,79.4 26.7,79.6 25.1,79.6 23.8,79.5 22.8,79.1 22.1,78.4 21.9,77.6 22.0,76.5 22.6,75.1 23.6,73.6 25.1,71.8 27.0,69.7 29.3,67.5 32.0,65.1 34.9,62.5 38.1,59.8 41.5,57.1 45.0,54.3 48.6,51.5 52.1,48.8 55.5,46.2 58.7,43.7 61.7,41.4 64.5,39.4 66.9,37.6 69.1,36.1 70.9,34.8 72.4,34.0 73.7,33.4 74.7,33.2 75.5,33.3 76.0,33.7 76.5,34.4 76.8,35.5 77.1,36.7 77.4,38.2 77.6,39.9 77.9,41.7 78.3,43.7 78.7,45.9 79.3,48.1 79.9,50.3 80.6,52.7 81.4,55.0 82.2,57.4 83.1,59.8 84.0,62.1 85.0,64.5 85.9,66.8 86.8,69.1 87.6,71.4 88.2,73.5 88.7,75.7 89.0,77.7 89.1,79.6 88.9,81.4 88.4,83.1 87.5,84.6 86.3,85.8 84.6,86.9 82.5,87.7 80.1,88.2 77.2,88.4 74.0,88.3 70.5,87.8 66.6,87.0 62.6,85.8 58.4,84.3 54.2,82.4 50.0,80.2 45.9,77.8 42.0,75.0 38.4,72.1 35.1,68.9 32.2,65.6 29.7,62.3 27.8,58.9 26.3,55.5 25.3,52.2 24.7,49.0 24.7,46.0 25.0,43.3 25.6,40.7 26.6,38.5 27.8,36.5 29.2,34.9 30.7,33.6 32.3,32.6 33.8,31.9 35.4,31.6 36.8,31.5 38.2,31.8 39.4,32.3 40.5,33.0 41.5,34.0 42.3,35.2 43.1,36.6 43.7,38.1 44.2,39.9 44.7,41.7 45.1,43.8 45.6,45.9 46.1,48.2 46.6,50.7 47.3,53.2 48.1,55.9 49.1,58.6 50.2,61.5 51.7,64.4 53.4,67.4 55.3,70.4 57.6,73.4 60.2,76.4 63.1,79.3 66.2,82.1 69.6,84.8 73.1,87.2 76.8,89.4 80.6,91.4 84.3,93.0" class="highlight"/>
  
</svg>