<svg xmlns="http://www.w3.org/2000/svg" viewBox="0 0 120 120" role="img">
  <rect width="120" height="120" rx="10" fill="#f8f7f2"/>
  <style>
    .shadow{fill:none;stroke:#4a4f56;stroke-width:13;stroke-linecap:round;stroke-linejoin:round;opacity:.22}
    .rope{fill:none;stroke:#1778bd;stroke-width:8;stroke-linecap:round;stroke-linejoin:round}
    .highlight{fill:none;stroke:#4fb1f0;stroke-width:2.2;stroke-linecap:round;stroke-linejoin:round;opacity:.85}
  </style>
  
    <polyline points="63.9,72.6 66.9,75.5 69.9,78.4 72.8,81.1 75.6,83.6 78.2,85.8 80.6,87.8 82.7,89.4 84.6,90.7 86.2,91.6 87.4,92.2 88.4,92.3 89.0,92.1 89.4,91.6 89.5,90.7 89.3,89.5 89.0,88.0 88.4,86.3 87.8,84.5 87.0,82.4 86.2,80.2 85.3,77.9 84.5,75.5 83.7,73.0 83.0,70.5 82.3,68.0 81.7,65.4 81.3,62.8 81.0,60.2 80.8,57.6 80.8,55.0 80.9,52.4 81.2,49.7 81.7,47.1 82.3,44.5 83.0,42.0 83.9,39.5 84.8,37.2 85.9,34.9 87.1,32.9 88.3,31.0 89.5,29.4 90.6,28.1 91.8,27.0 92.8,26.3 93.6,26.0 94.3,26.1 94.7,26.5 94.9,27.4 94.7,28.6 94.3,30.2 93.6,32.2 92.5,34.4 91.1,36.9 89.4,39.7 87.5,42.6 85.2,45.6 82.8,48.7 80.3,51.8 77.6,54.8 74.8,57.8 72.0,60.7 69.2,63.4 66.4,65.9 63.8,68.3 61.2,70.4 58.8,72.3 56.6,73.9 54.5,75.4 52.6,76.6 50.8,77.6 49.2,78.4 47.7,79.0 46.4,79.5 45.3,79.8 44.2,79.9 43.3,79.8 42.5,79.6 41.8,79.1 41.2,78.5 40.7,77.8 40.2,76.8 39.8,75.7 39.5,74.3 39.2,72.8 39.0,71.0 38.7,69.1 38.5,67.1 38.3,64.8 38.0,62.5 37.7,60.1 37.3,57.7 36.8,55.3 36.3,52.9 35.6,50.6 34.9,48.5 34.0,46.5 33.1,44.7 32.2,43.2 31.2,42.0 30.2,41.0 29.1,40.4 28.2,40.1 27.3,40.1 26.5,40.4 25.8,41.0 25.3,41.9 24.9,43.1 24.7,44.4 24.7,45.9 24.8,47.6 25.2,49.5 25.7,51.4 26.5,53.4 27.3,55.4 28.3,57.4 29.5,59.4 30.7,61.5 32.1,63.5 33.5,65.5 35.1,67.4 36.7,69.3 38.4,71.1 40.2,72.9 42.0,74.7 43.9,76.3 45.9,77.9 47.9,79.3 49.9,80.7 52.0,81.8 54.2,82.8 56.3,83.6 58.4,84.2 60.4,84.4 62.4,84.4 64.3,84.1 66.1,83.5 67.8,82.5 69.2,81.2 70.5,79.5 71.7,77.6 72.6,75.3 73.4,72.8 73.9,70.0 74.4,67.1 74.7,64.0 74.8,60.9 74.9,57.7 74.9,54.5 74.9,51.4 74.8,48.4 74.8,45.6 74.9,43.0 75.0,40.6 75.1,38.5 75.4,36.7 75.7,35.2 76.2,33.9 76.8,33.0 77.4,32.3 78.2,31.9 79.0,31.7 79.9,31.7 81.0,32.0 82.0,32.5 83.2,33.1 84.4,34.0 85.7,34.9 87.0,36.1 88.3,37.4 89.6,38.9 91.0,40.5 92.3,42.3 93.5,44.3 94.7,46.4 95.8,48.8 96.8,51.3 97.5,53.9 98.1,56.7 98.5,59.7 98.6,62.7 98.4,65.8 97.9,69.0 97.2,72.1 96.1,75.2 94.7,78.1 93.1,80.9 91.2,83.5 89.1,85.9 86.9,87.9 84.5,89.6 82.0,91.0 79.5,91.9 76.9,92.5 74.5,92.7 72.1,92.5 69.9,91.9 67.8,90.9 65.9,89.6 64.3,88.0 62.8,86.2 61.5,84.1 60.4,81.9 59.6,79.6 58.9,77.1 58.3,74.7 57.9,72.2 57.5,69.7 57.3,67.2 57.1,64.8 56.9,62.4 56.7,60.2 56.5,58.0 56.3,55.9 56.0,53.9 55.6,52.0 55.2,50.2 54.6,48.5 53.8,46.9 53.0,45.4 51.9,44.1 50.7,42.9 49.3,41.9 47.7,41.1 45.9,40.5 44.0,40.1 41.8,39.9 39.6,40.1 37.2,40.5 34.7,41.1 32.2,42.1 29.7,43.4 27.3,44.9 24.9,46.6 22.7,48.6 20.7,50.8 19.0,53.1 17.5,55.5 16.4,58.0 15.6,60.6 15.2,63.0 15.1,65.4 15.4,67.7 16.1,69.8 17.0,71.7 18.3,73.4 19.9,74.9 21.7,76.1 23.6,77.0 25.7,77.7 27.9,78.1 30.1,78.2 32.3,78.1 34.5,77.8 36.6,77.3 38.7,76.5 40.6,75.6 42.4,74.6 44.0,73.4 45.5,72.1 46.9,70.6 48.1,69.0 49.2,67.3 50.1,65.5 50.9,63.6 51.5,61.5 52.0,59.4 52.5,57.1 52.8,54.8 53.0,52.4 53.2,50.0 53.3,47.5 53.4,45.0 53.5,42.6 53.6,40.2 53.7,37.9 54.0,35.8 54.3,33.9 54.8,32.3 55.4,30.9 56.2,29.9 57.2,29.2 58.4,28.8 59.7,28.9 61.3,29.3 63.1,30.2 65.0,31.4 67.1,32.9 69.2,34.8 71.4,37.0 73.7,39.4 76.0,42.1 78.2,44.9 80.3,47.8 82.3,50.8 84.2,53.8 85.9,56.8 87.4,59.7 88.8,62.6 89.9,65.3 90.9,68.0 91.6,70.4 92.2,72.8 92.7,75.0 93.0,77.0 93.1,78.9 93.2,80.6 93.1,82.2 92.9,83.7 92.6,85.0 92.3,86.1 91.9,87.1 91.4,88.0 90.8,88.6 90.1,89.0 89.4,89.2 88.6,89.2 87.8,88.9 86.9,88.3 86.0,87.5 85.1,86.3 84.2,84.8 83.4,83.0 82.5,80.9 81.7,78.5 81.0,75.9 80.4,73.0 79.8,69.9 79.4,66.7 79.0,63.5 78.7,60.2 78.5,56.9 78.3,53.6 78.1,50.6 78.0,47.7 77.8,45.0 77.6,42.6 77.3,40.4 76.9,38.6 76.5,37.1 75.9,36.0 75.1,35.2 74.3,34.7 73.3,34.5 72.2,34.6 70.9,35.0 69.6,35.6 68.1,36.4 66.5,37.4 64.8,38.6 63.0,40.0 61.2,41.4 59.2,43.0 57.2,44.6 55.1,46.3 53.0,48.1 50.8,50.0 48.5,52.0 46.3,54.0 43.9,56.0 41.6,58.1 39.3,60.3 37.0,62.5 34.7,64.6 32.5,66.8 30.5,68.9 28.6,71.0 26.8,72.9 25.3,74.7 24.0,76.3 23.0,77.7 22.2,78.9 21.7,79.8 21.5,80.5 21.6,80.8 21.9,80.7 22.5,80.4 23.3,79.7 24.3,78.8 25.4,77.5 26.7,76.0 28.0,74.2 29.3,72.2 30.7,70.1 32.0,67.9 33.2,65.5 34.4,63.2 35.5,60.9 36.4,58.6 37.2,56.4 37.9,54.3 38.5,52.3 38.9,50.5 39.2,48.9 39.5,47.4 39.6,46.1 39.7,44.9 39.7,43.9 39.6,43.1 39.5,42.5 39.4,42.0 39.4,41.7 39.3,41.5 39.3,41.6 39.3,41.8 39.4,42.1 39.7,42.7 40.1,43.5 40.6,44.5 41.3,45.7 42.3,47.2 43.4,48.9 44.8,50.8 46.5,53.0 48.4,55.4 50.5,57.9 52.9,60.7 55.4,63.6 58.1,66.5 61.0,69.5 63.9,72.6" class="shadow"/>
    <polyline points="63.9,72.6 66.9,75.5 69.9,78.4 72.8,81.1 75.6,83.6 78.2,85.8 80.6,87.8 82.7,89.4 84.6,90.7 86.2,91.6 87.4,92.2 88.4,92.3 89.0,92.1 89.4,91.6 89.5,90.7 89.3,89.5 89.0,88.0 88.4,86.3 87.8,84.5 87.0,82.4 86.2,80.2 85.3,77.9 84.5,75.5 83.7,73.0 83.0,70.5 82.3,68.0 81.7,65.4 81.3,62.8 81.0,60.2 80.8,57.6 80.8,55.0 80.9,52.4 81.2,49.7 81.7,47.1 82.3,44.5 83.0,42.0 83.9,39.5 84.8,37.2 85.9,34.9 87.1,32.9 88.3,31.0 89.5,29.4 90.6,28.1 91.8,27.0 92.8,26.3 93.6,26.0 94.3,26.1 94.7,26.5 94.9,27.4 94.7,28.6 94.3,30.2 93.6,32.2 92.5,34.4 91.1,36.9 89.4,39.7 87.5,42.6 85.2,45.6 82.8,48.7 80.3,51.8 77.6,54.8 74.8,57.8 72.0,60.7 69.2,63.4 66.4,65.9 63.8,68.3 61.2,70.4 58.8,72.3 56.6,73.9 54.5,75.4 52.6,76.6 50.8,77.6 49.2,78.4 47.7,79.0 46.4,79.5 45.3,79.8 44.2,79.9 43.3,79.8 42.5,79.6 41.8,79.1 41.2,78.5 40.7,77.8 40.2,76.8 39.8,75.7 39.5,74.3 39.2,72.8 39.0,71.0 38.7,69.1 38.5,67.1 38.3,64.8 38.0,62.5 37.7,60.1 37.3,57.7 36.8,55.3 36.3,52.9 35.6,50.6 34.9,48.5 34.0,46.5 33.1,44.7 32.2,43.2 31.2,42.0 30.2,41.0 29.1,40.4 28.2,40.1 27.3,40.1 26.5,40.4 25.8,41.0 25.3,41.9 24.9,43.1 24.7,44.4 24.7,45.9 24.8,47.6 25.2,49.5 25.7,51.4 26.5,53.4 27.3,55.4 28.3,57.4 29.5,59.4 30.7,61.5 32.1,63.5 33.5,65.5 35.1,67.4 36.7,69.3 38.4,71.1 40.2,72.9 42.0,74.7 43.9,76.3 45.9,77.9 47.9,79.3 49.9,80.7 52.0,81.8 54.2,82.8 56.3,83.6 58.4,84.2 60.4,84.4 62.4,84.4 64.3,84.1 66.1,83.5 67.8,82.5 69.2,81.2 70.5,79.5 71.7,77.6 72.6,75.3 73.4,72.8 73.9,70.0 74.4,67.1 74.7,64.0 74.8,60.9 74.9,57.7 74.9,54.5 74.9,51.4 74.8,48.4 74.8,45.6 74.9,43.0 75.0,40.6 75.1,38.5 75.4,36.7 75.7,35.2 76.2,33.9 76.8,33.0 77.4,32.3 78.2,31.9 79.0,31.7 79.9,31.7 81.0,32.0 82.0,32.5 83.2,33.1 84.4,34.0 85.7,34.9 87.0,36.1 88.3,37.4 89.6,38.9 91.0,40.5 92.3,42.3 93.5,44.3 94.7,46.4 95.8,48.8 96.8,51.3 97.5,53.9 98.1,56.7 98.5,59.7 98.6,62.7 98.4,65.8 97.9,69.0 97.2,72.1 96.1,75.2 94.7,78.1 93.1,80.9 91.2,83.5 89.1,85.9 86.9,87.9 84.5,89.6 82.0,91.0 79.5,91.9 76.9,92.5 74.5,92.7 72.1,92.5 69.9,91.9 67.8,90.9 65.9,89.6 64.3,88.0 62.8,86.2 61.5,84.1 60.4,81.9 59.6,79.6 58.9,77.1 58.3,74.7 57.9,72.2 57.5,69.7 57.3,67.2 57.1,64.8 56.9,62.4 56.7,60.2 56.5,58.0 56.3,55.9 56.0,53.9 55.6,52.0 55.2,50.2 54.6,48.5 53.8,46.9 53.0,45.4 51.9,44.1 50.7,42.9 49.3,41.9 47.7,41.1 45.9,40.5 44.0,40.1 41.8,39.9 39.6,40.1 37.2,40.5 34.7,41.1 32.2,42.1 29.7,43.4 27.3,44.9 24.9,46.6 22.7,48.6 20.7,50.8 19.0,53.1 17.5,55.5 16.4,58.0 15.6,60.6 15.2,63.0 15.1,65.4 15.4,67.7 16.1,69.8 17.0,71.7 18.3,73.4 19.9,74.9 21.7,76.1 23.6,77.0 25.7,77.7 27.9,78.1 30.1,78.2 32.3,78.1 34.5,77.8 36.6,77.3 38.7,76.5 40.6,75.6 42.4,74.6 44.0,73.4 45.5,72.1 46.9,70.6 48.1,69.0 49.2,67.3 50.1,65.5 50.9,63.6 51.5,61.5 52.0,59.4 52.5,57.1 52.8,54.8 53.0,52.4 53.2,50.0 53.3,47.5 53.4,45.0 53.5,42.6 53.6,40.2 53.7,37.9 54.0,35.8 54.3,33.9 54.8,32.3 55.4,30.9 56.2,29.9 57.2,29.2 58.4,28.8 59.7,28.9 61.3,29.3 63.1,30.2 65.0,31.4 67.1,32.9 69.2,34.8 71.4,37.0 73.7,39.4 76.0,42.1 78.2,44.9 80.3,47.8 82.3,50.8 84.2,53.8 85.9,56.8 87.4,59.7 88.8,62.6 89.9,65.3 90.9,68.0 91.6,70.4 92.2,72.8 92.7,75.0 93.0,77.0 93.1,78.9 93.2,80.6 93.1,82.2 92.9,83.7 92.6,85.0 92.3,86.1 91.9,87.1 91.4,88.0 90.8,88.6 90.1,89.0 89.4,89.2 88.6,89.2 87.8,88.9 86.9,88.3 86.0,87.5 85.1,86.3 84.2,84.8 83.4,83.0 82.5,80.9 81.7,78.5 81.0,75.9 80.4,73.0 79.8,69.9 79.4,66.7 79.0,63.5 78.7,60.2 78.5,56.9 78.3,53.6 78.1,50.6 78.0,47.7 77.8,45.0 77.6,42.6 77.3,40.4 76.9,38.6 76.5,37.1 75.9,36.0 75.1,35.2 74.3,34.7 73.3,34.5 72.2,34.6 70.9,35.0 69.6,35.6 68.1,36.4 66.5,37.4 64.8,38.6 63.0,40.0 61.2,41.4 59.2,43.0 57.2,44.6 55.1,46.3 53.0,48.1 50.8,50.0 48.5,52.0 46.3,54.0 43.9,56.0 41.6,58.1 39.3,60.3 37.0,62.5 34.7,64.6 32.5,66.8 30.5,68.9 28.6,71.0 26.8,72.9 25.3,74.7 24.0,76.3 23.0,77.7 22.2,78.9 21.7,79.8 21.5,80.5 21.6,80.8 21.9,80.7 22.5,80.4 23.3,79.7 24.3,78.8 25.4,77.5 26.7,76.0 28.0,74.2 29.3,72.2 30.7,70.1 32.0,67.9 33.2,65.5 34.4,63.2 35.5,60.9 36.4,58.6 37.2,56.4 37.9,54.3 38.5,52.3 38.9,50.5 39.2,48.9 39.5,47.4 39.6,46.1 39.7,44.9 39.7,43.9 39.6,43.1 39.5,42.5 39.4,42.0 39.4,41.7 39.3,41.5 39.3,41.6 39.3,41.8 39.4,42.1 39.7,42.7 40.1,43.5 40.6,44.5 41.3,45.7 42.3,47.2 43.4,48.9 44.8,50.8 46.5,53.0 48.4,55.4 50.5,57.9 52.9,60.7 55.4,63.6 58.1,66.5 61.0,69.5 63.9,72.6" class="rope"/>
    <rect x="85.0" y="44.0" width="20" height="6" rx="3" transform="rotate(37.5 95.0 47.0)" fill="#f8f7f2"/><rect x="24.8" y="65.3" width="20" height="6" rx="3" transform="rotate(56.3 34.8 68.3)" fill="#f8f7f2"/><rect x="50.7" y="81.8" width="20" height="6" rx="3" transform="rotate(75.0 60.7 84.8)" fill="#f8f7f2"/><rect x="74.2" y="83.7" width="20" height="6" rx="3" transform="rotate(93.8 84.2 86.7)" fill="#f8f7f2"/><rect x="15.0" y="70.0" width="20" height="6" rx="3" transform="rotate(112.5 25.0 73.0)" fill="#f8f7f2"/><rect x="75.2" y="48.7" width="20" height="6" rx="3" transform="rotate(131.3 85.2 51.7)" fill="#f8f7f2"/><rect x="49.3" y="32.2" width="20" height="6" rx="3" transform="rotate(150.0 59.3 35.2)" fill="#f8f7f2"/><rect x="82.7" y="68.1" width="20" height="6" rx="3" transform="rotate(128.8 92.7 71.1)" fill="#f8f7f2"/>
    <polyline points="63.9,72.6 66.9,75.5 69.9,78.4 72.8,81.1 75.6,83.6 78.2,85.8 80.6,87.8 82.7,89.4 84.6,90.7 86.2,91.6 87.4,92.2 88.4,92.3 89.0,92.1 89.4,91.6 89.5,90.7 89.3,89.5 89.0,88.0 88.4,86.3 87.8,84.5 87.0,82.4 86.2,80.2 85.3,77.9 84.5,75.5 83.7,73.0 83.0,70.5 82.3,68.0 81.7,65.4 81.3,62.8 81.0,60.2 80.8,57.6 80.8,55.0 80.9,52.4 81.2,49.7 81.7,47.1 82.3,44.5 83.0,42.0 83.9,39.5 84.8,37.2 85.9,34.9 87.1,32.9 88.3,31.0 89.5,29.4 90.6,28.1 91.8,27.0 92.8,26.3 93.6,26.0 94.3,26.1 94.7,26.5 94.9,27.4 94.7,28.6 94.3,30.2 93.6,32.2 92.5,34.4 91.1,36.9 89.4,39.7 87.5,42.6 85.2,45.6 82.8,48.7 80.3,51.8 77.6,54.8 74.8,57.8 72.0,60.7 69.2,63.4 66.4,65.9 63.8,68.3 61.2,70.4 58.8,72.3 56.6,73.9 54.5,75.4 52.6,76.6 50.8,77.6 49.2,78.4 47.7,79.0 46.4,79.5 45.3,79.8 44.2,79.9 43.3,79.8 42.5,79.6 41.8,79.1 41.2,78.5 40.7,77.8 40.2,76.8 39.8,75.7 39.5,74.3 39.2,72.8 39.0,71.0 38.7,69.1 38.5,67.1 38.3,64.8 38.0,62.5 37.7,60.1 37.3,57.7 36.8,55.3 36.3,52.9 35.6,50.6 34.9,48.5 34.0,46.5 33.1,44.7 32.2,43.2 31.2,42.0 30.2,41.0 29.1,40.4 28.2,40.1 27.3,40.1 26.5,40.4 25.8,41.0 25.3,41.9 24.9,43.1 24.7,44.4 24.7,45.9 24.8,47.6 25.2,49.5 25.7,51.4 26.5,53.4 27.3,55.4 28.3,57.4 29.5,59.4 30.7,61.5 32.1,63.5 33.5,65.5 35.1,67.4 36.7,69.3 38.4,71.1 40.2,72.9 42.0,74.7 43.9,76.3 45.9,77.9 47.9,79.3 49.9,80.7 52.0,81.8 54.2,82.8 56.3,83.6 58.4,84.2 60.4,84.4 62.4,84.4 64.3,84.1 66.1,83.5 67.8,82.5 69.2,81.2 70.5,79.5 71.7,77.6 72.6,75.3 73.4,72.8 73.9,70.0 74.4,67.1 74.7,64.0 74.8,60.9 74.9,57.7 74.9,54.5 74.9,51.4 74.8,48.4 74.8,45.6 74.9,43.0 75.0,40.6 75.1,38.5 75.4,36.7 75.7,35.2 76.2,33.9 76.8,33.0 77.4,32.3 78.2,31.9 79.0,31.7 79.9,31.7 81.0,32.0 82.0,32.5 83.2,33.1 84.4,34.0 85.7,34.9 87.0,36.1 88.3,37.4 89.6,38.9 91.0,40.5 92.3,42.3 93.5,44.3 94.7,46.4 95.8,48.8 96.8,51.3 97.5,53.9 98.1,56.7 98.5,59.7 98.6,62.7 98.4,65.8 97.9,69.0 97.2,72.1 96.1,75.2 94.7,78.1 93.1,80.9 91.2,83.5 89.1,85.9 86.9,87.9 84.5,89.6 82.0,91.0 79.5,91.9 76.9,92.5 74.5,92.7 72.1,92.5 69.9,91.9 67.8,90.9 65.9,89.6 64.3,88.0 62.8,86.2 61.5,84.1 60.4,81.9 59.6,79.6 58.9,77.1 58.3,74.7 57.9,72.2 57.5,69.7 57.3,67.2 57.1,64.8 56.9,62.4 56.7,60.2 56.5,58.0 56.3,55.9 56.0,53.9 55.6,52.0 55.2,50.2 54.6,48.5 53.8,46.9 53.0,45.4 51.9,44.1 50.7,42.9 49.3,41.9 47.7,41.1 45.9,40.5 44.0,40.1 41.8,39.9 39.6,40.1 37.2,40.5 34.7,41.1 32.2,42.1 29.7,43.4 27.3,44.9 24.9,46.6 22.7,48.6 20.7,50.8 19.0,53.1 17.5,55.5 16.4,58.0 15.6,60.6 15.2,63.0 15.1,65.4 15.4,67.7 16.1,69.8 17.0,71.7 18.3,73.4 19.9,74.9 21.7,76.1 23.6,77.0 25.7,77.7 27.9,78.1 30.1,78.2 32.3,78.1 34.5,77.8 36.6,77.3 38.7,76.5 40.6,75.6 42.4,74.6 44.0,73.4 45.5,72.1 46.9,70.6 48.1,69.0 49.2,67.3 50.1,65.5 50.9,63.6 51.5,61.5 52.0,59.4 52.5,57.1 52.8,54.8 53.0,52.4 53.2,50.0 53.3,47.5 53.4,45.0 53.5,42.6 53.6,40.2 53.7,37.9 54.0,35.8 54.3,33.9 54.8,32.3 55.4,30.9 56.2,29.9 57.2,29.2 58.4,28.8 59.7,28.9 61.3,29.3 63.1,30.2 65.0,31.4 67.1,32.9 69.2,34.8 71.4,37.0 73.7,39.4 76.0,42.1 78.2,44.9 80.3,47.8 82.3,50.8 84.2,53.8 85.9,56.8 87.4,59.7 88.8,62.6 89.9,65.3 90.9,68.0 91.6,70.4 92.2,72.8 92.7,75.0 93.0,77.0 93.1,78.9 93.2,80.6 93.1,82.2 92.9,83.7 92.6,85.0 92.3,86.1 91.9,87.1 91.4,88.0 90.8,88.6 90.1,89.0 89.4,89.2 88.6,89.2 87.8,88.9 86.9,88.3 86.0,87.5 85.1,86.3 84.2,84.8 83.4,83.0 82.5,80.9 81.7,78.5 81.0,75.9 80.4,73.0 79.8,69.9 79.4,66.7 79.0,63.5 78.7,60.2 78.5,56.9 78.3,53.6 78.1,50.6 78.0,47.7 77.8,45.0 77.6,42.6 77.3,40.4 76.9,38.6 76.5,37.1 75.9,36.0 75.1,35.2 74.3,34.7 73.3,34.5 72.2,34.6 70.9,35.0 69.6,35.6 68.1,36.4 66.5,37.4 64.8,38.6 63.0,40.0 61.2,41.4 59.2,43.0 57.2,44.6 55.1,46.3 53.0,48.1 50.8,50.0 48.5,52.0 46.3,54.0 43.9,56.0 41.6,58.1 39.3,60.3 37.0,62.5 34.7,64.6 32.5,66.8 30.5,68.9 28.6,71.0 26.8,72.9 25.3,74.7 24.0,76.3 23.0,77.7 22.2,78.9 21.7,79.8 21.5,80.5 21.6,80.8 21.9,80.7 22.5,80.4 23.3,79.7 24.3,78.8 25.4,77.5 26.7,76.0 28.0,74.2 29.3,72.2 30.7,70.1 32.0,67.9 33.2,65.5 34.4,63.2 35.5,60.9 36.4,58.6 37.2,56.4 37.9,54.3 38.5,52.3 38.9,50.5 39.2,48.9 39.5,47.4 39.6,46.1 39.7,44.9 39.7,43.9 39.6,43.1 39.5,42.5 39.4,42.0 39.4,41.7 39.3,41.5 39.3,41.6 39.3,41.8 39.4,42.1 39.7,42.7 40.1,43.5 40.6,44.5 41.3,45.7 42.3,47.2 43.4,48.9 44.8,50.8 46.5,53.0 48.4,55.4 50.5,57.9 52.9,60.7 55.4,63.6 58.1,66.5 61.0,69.5 63.9,72.6" class="highlight"/>
  
</svg>