<svg xmlns="http://www.w3.org/2000/svg" viewBox="0 0 120 120" role="img">
  <rect width="120" height="120" rx="10" fill="#f8f7f2"/>
  <style>
    .shadow{fill:none;stroke:#4a4f56;stroke-width:13;stroke-linecap:round;stroke-linejoin:round;opacity:.22}
    .rope{fill:none;stroke:#1778bd;stroke-width:8;stroke-linecap:round;stroke-linejoin:round}
    .highlight{fill:none;stroke:#4fb1f0;stroke-width:2.2;stroke-linecap:round;stroke-linejoin:round;opacity:.85}
  </style>
  
    <polyline points="86.3,89.4 87.7,88.5 89.0,87.5 90.2,86.4 91.2,85.2 92.1,83.8 92.8,82.4 93.4,80.8 93.9,79.2 94.3,77.5 94.5,75.7 94.5,73.8 94.4,71.8 94.1,69.6 93.6,67.4 92.8,65.0 91.8,62.5 90.6,60.0 89.2,57.3 87.5,54.5 85.6,51.7 83.4,48.9 81.1,46.1 78.6,43.3 76.0,40.5 73.3,37.9 70.6,35.5 67.8,33.2 65.1,31.2 62.5,29.5 60.0,28.0 57.7,26.8 55.5,26.0 53.6,25.5 51.9,25.3 50.4,25.5 49.1,26.0 48.0,26.8 47.2,27.9 46.5,29.3 46.0,30.9 45.6,32.7 45.4,34.6 45.1,36.7 45.0,38.9 44.8,41.2 44.7,43.5 44.5,45.8 44.3,48.2 44.0,50.5 43.6,52.8 43.2,55.1 42.6,57.4 41.9,59.6 41.2,61.9 40.3,64.1 39.3,66.2 38.1,68.4 36.9,70.6 35.6,72.7 34.3,74.8 32.8,76.9 31.4,78.9 30.0,80.8 28.6,82.7 27.3,84.4 26.2,86.0 25.2,87.5 24.4,88.7 23.9,89.7 23.7,90.4 23.8,90.9 24.3,91.1 25.1,91.0 26.3,90.6 27.9,89.9 29.9,88.9 32.3,87.6 34.9,86.0 37.8,84.2 40.9,82.2 44.2,80.0 47.6,77.6 51.1,75.2 54.6,72.6 58.0,70.0 61.2,67.5 64.4,64.9 67.3,62.4 70.0,60.0 72.5,57.7 74.7,55.5 76.6,53.5 78.3,51.5 79.8,49.8 81.0,48.1 82.0,46.6 82.9,45.2 83.5,44.0 84.1,42.8 84.5,41.8 84.7,40.8 84.9,40.0 85.1,39.3 85.1,38.6 85.2,38.1 85.2,37.7 85.1,37.5 85.1,37.3 85.0,37.3 84.9,37.5 84.9,37.9 84.8,38.5 84.8,39.3 84.9,40.3 84.9,41.4 85.0,42.8 85.1,44.4 85.3,46.2 85.4,48.2 85.6,50.3 85.8,52.5 85.9,54.8 86.0,57.2 86.0,59.5 85.9,61.9 85.7,64.2 85.3,66.5 84.8,68.6 84.1,70.6 83.2,72.4 82.1,74.0 80.8,75.5 79.3,76.7 77.6,77.7 75.8,78.5 73.8,79.1 71.7,79.5 69.5,79.7 67.2,79.8 64.8,79.7 62.4,79.4 60.0,79.0 57.5,78.5 55.0,77.9 52.5,77.3 50.0,76.5 47.5,75.6 45.0,74.7 42.6,73.7 40.1,72.6 37.8,71.4 35.4,70.2 33.2,68.8 31.0,67.4 29.0,65.9 27.1,64.2 25.3,62.6 23.8,60.8 22.5,59.0 21.5,57.1 20.8,55.2 20.4,53.3 20.3,51.4 20.5,49.5 21.0,47.7 21.8,46.0 22.9,44.5 24.3,43.1 25.9,41.9 27.6,40.8 29.5,40.0 31.5,39.4 33.6,39.1 35.7,39.0 37.8,39.1 39.8,39.4 41.7,39.9 43.5,40.7 45.2,41.6 46.7,42.7 48.2,43.9 49.4,45.2 50.6,46.6 51.6,48.1 52.5,49.6 53.4,51.2 54.1,52.8 54.9,54.3 55.6,55.9 56.2,57.4 56.9,59.0 57.6,60.5 58.4,62.0 59.2,63.4 60.2,64.8 61.2,66.2 62.3,67.6 63.6,69.0 65.1,70.3 66.7,71.6 68.5,72.8 70.4,74.0 72.6,75.1 74.9,76.1 77.3,77.0 79.9,77.7 82.5,78.4 85.2,78.8 88.0,79.1 90.7,79.1 93.3,79.0 95.8,78.7 98.1,78.1 100.1,77.3 101.9,76.3 103.3,75.2 104.3,73.8 105.0,72.3 105.2,70.6 104.9,68.8 104.3,67.0 103.2,65.1 101.8,63.1 100.0,61.2 98.0,59.3 95.6,57.4 93.1,55.7 90.4,54.0 87.5,52.4 84.7,51.0 81.8,49.7 78.9,48.5 76.2,47.4 73.5,46.5 70.9,45.7 68.4,45.0 66.1,44.4 63.9,44.0 61.9,43.6 60.0,43.3 58.2,43.2 56.6,43.1 55.1,43.1 53.7,43.2 52.4,43.5 51.2,43.8 50.1,44.3 49.1,44.9 48.1,45.7 47.2,46.6 46.4,47.7 45.6,48.9 44.8,50.3 44.1,51.9 43.3,53.6 42.6,55.4 41.8,57.4 41.0,59.5 40.1,61.6 39.2,63.8 38.2,66.0 37.2,68.2 36.1,70.4 35.0,72.4 33.9,74.4 32.8,76.1 31.7,77.8 30.6,79.2 29.6,80.4 28.7,81.4 27.9,82.2 27.3,82.7 26.8,83.1 26.5,83.1 26.4,83.0 26.5,82.7 26.8,82.2 27.3,81.5 28.0,80.6 28.8,79.7 29.8,78.6 31.0,77.4 32.4,76.2 33.8,74.8 35.5,73.4 37.2,71.9 39.1,70.4 41.0,68.8 43.1,67.2 45.4,65.4 47.7,63.6 50.2,61.8 52.8,59.8 55.4,57.8 58.2,55.7 61.1,53.6 64.0,51.4 67.0,49.2 70.0,47.0 72.9,44.8 75.8,42.6 78.5,40.5 81.1,38.5 83.5,36.7 85.7,35.0 87.6,33.5 89.3,32.2 90.6,31.2 91.6,30.5 92.4,30.0 92.8,29.9 92.9,30.1 92.8,30.5 92.4,31.3 91.9,32.3 91.1,33.6 90.3,35.1 89.3,36.8 88.3,38.7 87.2,40.8 86.2,43.0 85.2,45.2 84.3,47.5 83.4,49.9 82.6,52.2 81.9,54.5 81.3,56.8 80.8,59.1 80.4,61.3 80.1,63.5 79.9,65.6 79.8,67.6 79.7,69.6 79.6,71.6 79.6,73.5 79.6,75.3 79.5,77.1 79.4,78.9 79.3,80.6 79.1,82.3 78.7,83.8 78.2,85.3 77.5,86.6 76.5,87.8 75.4,88.8 74.0,89.6 72.3,90.2 70.4,90.6 68.1,90.7 65.6,90.4 62.9,89.9 59.9,89.1 56.8,88.0 53.5,86.6 50.2,84.9 46.8,82.9 43.4,80.7 40.2,78.3 37.0,75.6 34.1,72.9 31.5,70.0 29.1,67.1 27.1,64.1 25.4,61.2 24.1,58.3 23.1,55.5 22.6,52.9 22.3,50.3 22.5,48.0 22.9,45.8 23.5,43.8 24.4,42.0 25.5,40.4 26.7,39.0 28.1,37.7 29.5,36.6 31.0,35.6 32.5,34.8 34.0,34.2 35.5,33.6 37.0,33.2 38.4,32.9 39.8,32.7 41.2,32.7 42.4,32.8 43.7,33.0 44.8,33.4 45.9,34.0 46.9,34.8 47.9,35.8 48.8,37.0 49.6,38.5 50.4,40.2 51.1,42.1 51.8,44.3 52.5,46.7 53.1,49.2 53.8,52.0 54.5,54.9 55.2,57.9 56.0,61.0 56.9,64.2 57.9,67.3 59.0,70.3 60.2,73.3 61.6,76.1 63.0,78.8 64.6,81.2 66.3,83.4 68.1,85.4 70.0,87.0 71.9,88.4 73.9,89.4 75.8,90.2 77.8,90.7 79.7,90.9 81.5,90.8 83.2,90.5 84.8,90.1 86.3,89.4" class="shadow"/>
    <polyline points="86.3,89.4 87.7,88.5 89.0,87.5 90.2,86.4 91.2,85.2 92.1,83.8 92.8,82.4 93.4,80.8 93.9,79.2 94.3,77.5 94.5,75.7 94.5,73.8 94.4,71.8 94.1,69.6 93.6,67.4 92.8,65.0 91.8,62.5 90.6,60.0 89.2,57.3 87.5,54.5 85.6,51.7 83.4,48.9 81.1,46.1 78.6,43.3 76.0,40.5 73.3,37.9 70.6,35.5 67.8,33.2 65.1,31.2 62.5,29.5 60.0,28.0 57.7,26.8 55.5,26.0 53.6,25.5 51.9,25.3 50.4,25.5 49.1,26.0 48.0,26.8 47.2,27.9 46.5,29.3 46.0,30.9 45.6,32.7 45.4,34.6 45.1,36.7 45.0,38.9 44.8,41.2 44.7,43.5 44.5,45.8 44.3,48.2 44.0,50.5 43.6,52.8 43.2,55.1 42.6,57.4 41.9,59.6 41.2,61.9 40.3,64.1 39.3,66.2 38.1,68.4 36.9,70.6 35.6,72.7 34.3,74.8 32.8,76.9 31.4,78.9 30.0,80.8 28.6,82.7 27.3,84.4 26.2,86.0 25.2,87.5 24.4,88.7 23.9,89.7 23.7,90.4 23.8,90.9 24.3,91.1 25.1,91.0 26.3,90.6 27.9,89.9 29.9,88.9 32.3,87.6 34.9,86.0 37.8,84.2 40.9,82.2 44.2,80.0 47.6,77.6 51.1,75.2 54.6,72.6 58.0,70.0 61.2,67.5 64.4,64.9 67.3,62.4 70.0,60.0 72.5,57.7 74.7,55.5 76.6,53.5 78.3,51.5 79.8,49.8 81.0,48.1 82.0,46.6 82.9,45.2 83.5,44.0 84.1,42.8 84.5,41.8 84.7,40.8 84.9,40.0 85.1,39.3 85.1,38.6 85.2,38.1 85.2,37.7 85.1,37.5 85.1,37.3 85.0,37.3 84.9,37.5 84.9,37.9 84.8,38.5 84.8,39.3 84.9,40.3 84.9,41.4 85.0,42.8 85.1,44.4 85.3,46.2 85.4,48.2 85.6,50.3 85.8,52.5 85.9,54.8 86.0,57.2 86.0,59.5 85.9,61.9 85.7,64.2 85.3,66.5 84.8,68.6 84.1,70.6 83.2,72.4 82.1,74.0 80.8,75.5 79.3,76.7 77.6,77.7 75.8,78.5 73.8,79.1 71.7,79.5 69.5,79.7 67.2,79.8 64.8,79.7 62.4,79.4 60.0,79.0 57.5,78.5 55.0,77.9 52.5,77.3 50.0,76.5 47.5,75.6 45.0,74.7 42.6,73.7 40.1,72.6 37.8,71.4 35.4,70.2 33.2,68.8 31.0,67.4 29.0,65.9 27.1,64.2 25.3,62.6 23.8,60.8 22.5,59.0 21.5,57.1 20.8,55.2 20.4,53.3 20.3,51.4 20.5,49.5 21.0,47.7 21.8,46.0 22.9,44.5 24.3,43.1 25.9,41.9 27.6,40.8 29.5,40.0 31.5,39.4 33.6,39.1 35.7,39.0 37.8,39.1 39.8,39.4 41.7,39.9 43.5,40.7 45.2,41.6 46.7,42.7 48.2,43.9 49.4,45.2 50.6,46.6 51.6,48.1 52.5,49.6 53.4,51.2 54.1,52.8 54.9,54.3 55.6,55.9 56.2,57.4 56.9,59.0 57.6,60.5 58.4,62.0 59.2,63.4 60.2,64.8 61.2,66.2 62.3,67.6 63.6,69.0 65.1,70.3 66.7,71.6 68.5,72.8 70.4,74.0 72.6,75.1 74.9,76.1 77.3,77.0 79.9,77.7 82.5,78.4 85.2,78.8 88.0,79.1 90.7,79.1 93.3,79.0 95.8,78.7 98.1,78.1 100.1,77.3 101.9,76.3 103.3,75.2 104.3,73.8 105.0,72.3 105.2,70.6 104.9,68.8 104.3,67.0 103.2,65.1 101.8,63.1 100.0,61.2 98.0,59.3 95.6,57.4 93.1,55.7 90.4,54.0 87.5,52.4 84.7,51.0 81.8,49.7 78.9,48.5 76.2,47.4 73.5,46.5 70.9,45.7 68.4,45.0 66.1,44.4 63.9,44.0 61.9,43.6 60.0,43.3 58.2,43.2 56.6,43.1 55.1,43.1 53.7,43.2 52.4,43.5 51.2,43.8 50.1,44.3 49.1,44.9 48.1,45.7 47.2,46.6 46.4,47.7 45.6,48.9 44.8,50.3 44.1,51.9 43.3,53.6 42.6,55.4 41.8,57.4 41.0,59.5 40.1,61.6 39.2,63.8 38.2,66.0 37.2,68.2 36.1,70.4 35.0,72.4 33.9,74.4 32.8,76.1 31.7,77.8 30.6,79.2 29.6,80.4 28.7,81.4 27.9,82.2 27.3,82.7 26.8,83.1 26.5,83.1 26.4,83.0 26.5,82.7 26.8,82.2 27.3,81.5 28.0,80.6 28.8,79.7 29.8,78.6 31.0,77.4 32.4,76.2 33.8,74.8 35.5,73.4 37.2,71.9 39.1,70.4 41.0,68.8 43.1,67.2 45.4,65.4 47.7,63.6 50.2,61.8 52.8,59.8 55.4,57.8 58.2,55.7 61.1,53.6 64.0,51.4 67.0,49.2 70.0,47.0 72.9,44.8 75.8,42.6 78.5,40.5 81.1,38.5 83.5,36.7 85.7,35.0 87.6,33.5 89.3,32.2 90.6,31.2 91.6,30.5 92.4,30.0 92.8,29.9 92.9,30.1 92.8,30.5 92.4,31.3 91.9,32.3 91.1,33.6 90.3,35.1 89.3,36.8 88.3,38.7 87.2,40.8 86.2,43.0 85.2,45.2 84.3,47.5 83.4,49.9 82.6,52.2 81.9,54.5 81.3,56.8 80.8,59.1 80.4,61.3 80.1,63.5 79.9,65.6 79.8,67.6 79.7,69.6 79.6,71.6 79.6,73.5 79.6,75.3 79.5,77.1 79.4,78.9 79.3,80.6 79.1,82.3 78.7,83.8 78.2,85.3 77.5,86.6 76.5,87.8 75.4,88.8 74.0,89.6 72.3,90.2 70.4,90.6 68.1,90.7 65.6,90.4 62.9,89.9 59.9,89.1 56.8,88.0 53.5,86.6 50.2,84.9 46.8,82.9 43.4,80.7 40.2,78.3 37.0,75.6 34.1,72.9 31.5,70.0 29.1,67.1 27.1,64.1 25.4,61.2 24.1,58.3 23.1,55.5 22.6,52.9 22.3,50.3 22.5,48.0 22.9,45.8 23.5,43.8 24.4,42.0 25.5,40.4 26.7,39.0 28.1,37.7 29.5,36.6 31.0,35.6 32.5,34.8 34.0,34.2 35.5,33.6 37.0,33.2 38.4,32.9 39.8,32.7 41.2,32.7 42.4,32.8 43.7,33.0 44.8,33.4 45.9,34.0 46.9,34.8 47.9,35.8 48.8,37.0 49.6,38.5 50.4,40.2 51.1,42.1 51.8,44.3 52.5,46.7 53.1,49.2 53.8,52.0 54.5,54.9 55.2,57.9 56.0,61.0 56.9,64.2 57.9,67.3 59.0,70.3 60.2,73.3 61.6,76.1 63.0,78.8 64.6,81.2 66.3,83.4 68.1,85.4 70.0,87.0 71.9,88.4 73.9,89.4 75.8,90.2 77.8,90.7 79.7,90.9 81.5,90.8 83.2,90.5 84.8,90.1 86.3,89.4" class="rope"/>
    <rect x="64.5" y="80.3" width="20" height="6" rx="3" transform="rotate(150.0 74.5 83.3)" fill="#f8f7f2"/><rect x="35.5" y="41.4" width="20" height="6" rx="3" transform="rotate(168.8 45.5 44.4)" fill="#f8f7f2"/><rect x="64.5" y="33.7" width="20" height="6" rx="3" transform="rotate(7.5 74.5 36.7)" fill="#f8f7f2"/><rect x="35.5" y="72.6" width="20" height="6" rx="3" transform="rotate(26.3 45.5 75.6)" fill="#f8f7f2"/><rect x="64.5" y="80.3" width="20" height="6" rx="3" transform="rotate(45.0 74.5 83.3)" fill="#f8f7f2"/><rect x="35.5" y="41.4" width="20" height="6" rx="3" transform="rotate(63.8 45.5 44.4)" fill="#f8f7f2"/><rect x="21.8" y="84.3" width="20" height="6" rx="3" transform="rotate(42.5 31.8 87.3)" fill="#f8f7f2"/><rect x="78.2" y="63.1" width="20" height="6" rx="3" transform="rotate(61.3 88.2 66.1)" fill="#f8f7f2"/>
    <polyline points="86.3,89.4 87.7,88.5 89.0,87.5 90.2,86.4 91.2,85.2 92.1,83.8 92.8,82.4 93.4,80.8 93.9,79.2 94.3,77.5 94.5,75.7 94.5,73.8 94.4,71.8 94.1,69.6 93.6,67.4 92.8,65.0 91.8,62.5 90.6,60.0 89.2,57.3 87.5,54.5 85.6,51.7 83.4,48.9 81.1,46.1 78.6,43.3 76.0,40.5 73.3,37.9 70.6,35.5 67.8,33.2 65.1,31.2 62.5,29.5 60.0,28.0 57.7,26.8 55.5,26.0 53.6,25.5 51.9,25.3 50.4,25.5 49.1,26.0 48.0,26.8 47.2,27.9 46.5,29.3 46.0,30.9 45.6,32.7 45.4,34.6 45.1,36.7 45.0,38.9 44.8,41.2 44.7,43.5 44.5,45.8 44.3,48.2 44.0,50.5 43.6,52.8 43.2,55.1 42.6,57.4 41.9,59.6 41.2,61.9 40.3,64.1 39.3,66.2 38.1,68.4 36.9,70.6 35.6,72.7 34.3,74.8 32.8,76.9 31.4,78.9 30.0,80.8 28.6,82.7 27.3,84.4 26.2,86.0 25.2,87.5 24.4,88.7 23.9,89.7 23.7,90.4 23.8,90.9 24.3,91.1 25.1,91.0 26.3,90.6 27.9,89.9 29.9,88.9 32.3,87.6 34.9,86.0 37.8,84.2 40.9,82.2 44.2,80.0 47.6,77.6 51.1,75.2 54.6,72.6 58.0,70.0 61.2,67.5 64.4,64.9 67.3,62.4 70.0,60.0 72.5,57.7 74.7,55.5 76.6,53.5 78.3,51.5 79.8,49.8 81.0,48.1 82.0,46.6 82.9,45.2 83.5,44.0 84.1,42.8 84.5,41.8 84.7,40.8 84.9,40.0 85.1,39.3 85.1,38.6 85.2,38.1 85.2,37.7 85.1,37.5 85.1,37.3 85.0,37.3 84.9,37.5 84.9,37.9 84.8,38.5 84.8,39.3 84.9,40.3 84.9,41.4 85.0,42.8 85.1,44.4 85.3,46.2 85.4,48.2 85.6,50.3 85.8,52.5 85.9,54.8 86.0,57.2 86.0,59.5 85.9,61.9 85.7,64.2 85.3,66.5 84.8,68.6 84.1,70.6 83.2,72.4 82.1,74.0 80.8,75.5 79.3,76.7 77.6,77.7 75.8,78.5 73.8,79.1 71.7,79.5 69.5,79.7 67.2,79.8 64.8,79.7 62.4,79.4 60.0,79.0 57.5,78.5 55.0,77.9 52.5,77.3 50.0,76.5 47.5,75.6 45.0,74.7 42.6,73.7 40.1,72.6 37.8,71.4 35.4,70.2 33.2,68.8 31.0,67.4 29.0,65.9 27.1,64.2 25.3,62.6 23.8,60.8 22.5,59.0 21.5,57.1 20.8,55.2 20.4,53.3 20.3,51.4 20.5,49.5 21.0,47.7 21.8,46.0 22.9,44.5 24.3,43.1 25.9,41.9 27.6,40.8 29.5,40.0 31.5,39.4 33.6,39.1 35.7,39.0 37.8,39.1 39.8,39.4 41.7,39.9 43.5,40.7 45.2,41.6 46.7,42.7 48.2,43.9 49.4,45.2 50.6,46.6 51.6,48.1 52.5,49.6 53.4,51.2 54.1,52.8 54.9,54.3 55.6,55.9 56.2,57.4 56.9,59.0 57.6,60.5 58.4,62.0 59.2,63.4 60.2,64.8 61.2,66.2 62.3,67.6 63.6,69.0 65.1,70.3 66.7,71.6 68.5,72.8 70.4,74.0 72.6,75.1 74.9,76.1 77.3,77.0 79.9,77.7 82.5,78.4 85.2,78.8 88.0,79.1 90.7,79.1 93.3,79.0 95.8,78.7 98.1,78.1 100.1,77.3 101.9,76.3 103.3,75.2 104.3,73.8 105.0,72.3 105.2,70.6 104.9,68.8 104.3,67.0 103.2,65.1 101.8,63.1 100.0,61.2 98.0,59.3 95.6,57.4 93.1,55.7 90.4,54.0 87.5,52.4 84.7,51.0 81.8,49.7 78.9,48.5 76.2,47.4 73.5,46.5 70.9,45.7 68.4,45.0 66.1,44.4 63.9,44.0 61.9,43.6 60.0,43.3 58.2,43.2 56.6,43.1 55.1,43.1 53.7,43.2 52.4,43.5 51.2,43.8 50.1,44.3 49.1,44.9 48.1,45.7 47.2,46.6 46.4,47.7 45.6,48.9 44.8,50.3 44.1,51.9 43.3,53.6 42.6,55.4 41.8,57.4 41.0,59.5 40.1,61.6 39.2,63.8 38.2,66.0 37.2,68.2 36.1,70.4 35.0,72.4 33.9,74.4 32.8,76.1 31.7,77.8 30.6,79.2 29.6,80.4 28.7,81.4 27.9,82.2 27.3,82.7 26.8,83.1 26.5,83.1 26.4,83.0 26.5,82.7 26.8,82.2 27.3,81.5 28.0,80.6 28.8,79.7 29.8,78.6 31.0,77.4 32.4,76.2 33.8,74.8 35.5,73.4 37.2,71.9 39.1,70.4 41.0,68.8 43.1,67.2 45.4,65.4 47.7,63.6 50.2,61.8 52.8,59.8 55.4,57.8 58.2,55.7 61.1,53.6 64.0,51.4 67.0,49.2 70.0,47.0 72.9,44.8 75.8,42.6 78.5,40.5 81.1,38.5 83.5,36.7 85.7,35.0 87.6,33.5 89.3,32.2 90.6,31.2 91.6,30.5 92.4,30.0 92.8,29.9 92.9,30.1 92.8,30.5 92.4,31.3 91.9,32.3 91.1,33.6 90.3,35.1 89.3,36.8 88.3,38.7 87.2,40.8 86.2,43.0 85.2,45.2 84.3,47.5 83.4,49.9 82.6,52.2 81.9,54.5 81.3,56.8 80.8,59.1 80.4,61.3 80.1,63.5 79.9,65.6 79.8,67.6 79.7,69.6 79.6,71.6 79.6,73.5 79.6,75.3 79.5,77.1 79.4,78.9 79.3,80.6 79.1,82.3 78.7,83.8 78.2,85.3 77.5,86.6 76.5,87.8 75.4,88.8 74.0,89.6 72.3,90.2 70.4,90.6 68.1,90.7 65.6,90.4 62.9,89.9 59.9,89.1 56.8,88.0 53.5,86.6 50.2,84.9 46.8,82.9 43.4,80.7 40.2,78.3 37.0,75.6 34.1,72.9 31.5,70.0 29.1,67.1 27.1,64.1 25.4,61.2 24.1,58.3 23.1,55.5 22.6,52.9 22.3,50.3 22.5,48.0 22.9,45.8 23.5,43.8 24.4,42.0 25.5,40.4 26.7,39.0 28.1,37.7 29.5,36.6 31.0,35.6 32.5,34.8 34.0,34.2 35.5,33.6 37.0,33.2 38.4,32.9 39.8,32.7 41.2,32.7 42.4,32.8 43.7,33.0 44.8,33.4 45.9,34.0 46.9,34.8 47.9,35.8 48.8,37.0 49.6,38.5 50.4,40.2 51.1,42.1 51.8,44.3 52.5,46.7 53.1,49.2 53.8,52.0 54.5,54.9 55.2,57.9 56.0,61.0 56.9,64.2 57.9,67.3 59.0,70.3 60.2,73.3 61.6,76.1 63.0,78.8 64.6,81.2 66.3,83.4 68.1,85.4 70.0,87.0 71.9,88.4 73.9,89.4 75.8,90.2 77.8,90.7 79.7,90.9 81.5,90.8 83.2,90.5 84.8,90.1 86.3,89.4" class="highlight"/>
  
</svg>