<svg xmlns="http://www.w3.org/2000/svg" viewBox="0 0 120 120" role="img">
  <rect width="120" height="120" rx="10" fill="#f8f7f2"/>
  <style>
    .shadow{fill:none;stroke:#4a4f56;stroke-width:13;stroke-linecap:round;stroke-linejoin:round;opacity:.22}
    .rope{fill:none;stroke:#1778bd;stroke-width:8;stroke-linecap:round;stroke-linejoin:round}
    .highlight{fill:none;stroke:#4fb1f0;stroke-width:2.2;stroke-linecap:round;stroke-linejoin:round;opacity:.85}
  </style>
  
    <polyline points="85.7,86.6 87.7,85.8 89.5,84.9 91.3,83.8 92.9,82.5 94.3,80.9 95.5,79.2 96.5,77.2 97.1,75.0 97.3,72.5 97.1,69.8 96.4,66.9 95.3,63.8 93.6,60.5 91.5,57.1 89.0,53.7 86.0,50.2 82.7,46.8 79.1,43.4 75.3,40.3 71.4,37.4 67.5,34.7 63.7,32.4 60.0,30.5 56.6,29.0 53.5,27.9 50.7,27.3 48.3,27.1 46.3,27.3 44.7,27.9 43.4,28.9 42.5,30.2 41.8,31.7 41.4,33.5 41.2,35.5 41.2,37.7 41.2,40.0 41.2,42.3 41.3,44.7 41.3,47.2 41.2,49.7 41.1,52.3 40.8,54.8 40.4,57.4 39.8,60.0 39.1,62.6 38.3,65.3 37.3,68.0 36.2,70.6 35.0,73.3 33.8,75.9 32.5,78.5 31.4,80.9 30.3,83.3 29.4,85.4 28.8,87.3 28.5,88.9 28.5,90.2 29.0,91.1 29.9,91.7 31.3,91.8 33.2,91.6 35.6,90.9 38.4,89.8 41.7,88.3 45.3,86.4 49.2,84.3 53.2,81.8 57.4,79.2 61.5,76.4 65.5,73.4 69.4,70.5 73.0,67.5 76.3,64.6 79.3,61.7 81.9,59.0 84.1,56.4 85.9,53.9 87.4,51.7 88.5,49.6 89.2,47.7 89.7,45.9 90.0,44.3 90.0,42.8 89.8,41.5 89.4,40.3 89.0,39.3 88.3,38.4 87.6,37.7 86.8,37.1 85.9,36.8 85.0,36.6 84.0,36.7 83.0,37.0 82.1,37.5 81.1,38.4 80.1,39.5 79.2,41.0 78.4,42.7 77.5,44.7 76.8,46.9 76.0,49.4 75.3,52.0 74.5,54.7 73.7,57.6 72.9,60.4 71.9,63.2 70.8,66.0 69.5,68.6 68.1,71.0 66.4,73.2 64.6,75.2 62.6,76.9 60.4,78.3 58.1,79.4 55.7,80.2 53.2,80.7 50.6,81.0 48.1,81.0 45.5,80.8 43.0,80.4 40.6,79.8 38.3,79.0 36.1,78.1 34.0,77.1 32.0,76.0 30.2,74.8 28.6,73.4 27.1,72.0 25.9,70.4 24.8,68.8 24.1,67.0 23.7,65.2 23.5,63.2 23.8,61.1 24.4,59.0 25.4,56.8 26.9,54.5 28.7,52.3 30.9,50.0 33.5,47.9 36.4,45.8 39.4,43.9 42.7,42.2 46.0,40.7 49.4,39.5 52.6,38.6 55.8,38.0 58.7,37.7 61.5,37.7 63.9,38.0 66.0,38.7 67.8,39.6 69.3,40.8 70.6,42.2 71.6,43.8 72.3,45.5 72.9,47.4 73.4,49.3 73.8,51.3 74.1,53.2 74.5,55.2 74.9,57.1 75.3,59.0 75.8,60.9 76.5,62.6 77.3,64.3 78.2,65.9 79.2,67.5 80.4,69.0 81.7,70.4 83.1,71.8 84.6,73.0 86.2,74.2 87.8,75.2 89.4,76.2 90.9,76.9 92.2,77.6 93.4,78.0 94.3,78.2 94.8,78.1 95.0,77.9 94.6,77.3 93.8,76.5 92.5,75.4 90.6,74.1 88.2,72.5 85.3,70.8 82.0,68.8 78.2,66.7 74.2,64.6 70.0,62.3 65.7,60.1 61.4,57.9 57.2,55.7 53.2,53.7 49.4,51.8 46.0,50.1 43.0,48.6 40.4,47.3 38.2,46.2 36.4,45.3 35.1,44.6 34.1,44.2 33.4,43.9 33.1,43.8 33.0,43.9 33.1,44.1 33.4,44.4 33.8,44.9 34.3,45.5 34.8,46.2 35.3,47.0 35.9,48.0 36.4,49.1 36.9,50.4 37.3,51.8 37.7,53.3 38.0,55.0 38.2,56.9 38.4,58.8 38.5,60.9 38.5,63.0 38.5,65.3 38.5,67.5 38.6,69.7 38.7,71.9 38.9,73.9 39.3,75.9 39.9,77.6 40.7,79.1 41.8,80.3 43.1,81.3 44.8,82.0 46.8,82.3 49.1,82.3 51.7,82.0 54.4,81.4 57.4,80.6 60.5,79.5 63.7,78.1 66.9,76.6 70.0,74.9 73.1,73.1 76.1,71.2 78.8,69.3 81.4,67.3 83.8,65.3 86.0,63.3 87.9,61.3 89.6,59.4 91.1,57.4 92.3,55.5 93.3,53.5 94.0,51.6 94.5,49.7 94.8,47.9 94.7,46.1 94.4,44.3 93.8,42.7 92.8,41.1 91.6,39.7 90.0,38.4 88.2,37.4 86.2,36.6 83.9,36.0 81.5,35.7 78.9,35.8 76.3,36.2 73.7,36.9 71.1,38.0 68.7,39.4 66.3,41.1 64.2,43.2 62.3,45.4 60.5,47.9 59.0,50.5 57.6,53.2 56.4,56.0 55.4,58.8 54.5,61.5 53.6,64.2 52.8,66.7 51.9,69.1 51.1,71.3 50.2,73.2 49.3,75.0 48.2,76.6 47.1,77.9 45.9,79.1 44.5,80.1 43.1,80.8 41.6,81.5 40.0,81.9 38.3,82.2 36.5,82.3 34.7,82.3 32.9,82.1 31.1,81.8 29.4,81.2 27.7,80.4 26.2,79.4 25.0,78.1 24.0,76.6 23.4,74.8 23.2,72.8 23.4,70.5 24.1,67.9 25.4,65.2 27.1,62.3 29.4,59.2 32.2,56.0 35.5,52.8 39.1,49.6 43.0,46.6 47.1,43.6 51.3,40.9 55.6,38.4 59.7,36.2 63.7,34.3 67.4,32.8 70.7,31.7 73.7,31.0 76.2,30.6 78.4,30.6 80.1,31.0 81.4,31.6 82.3,32.6 82.9,33.8 83.2,35.2 83.3,36.8 83.2,38.5 83.0,40.4 82.7,42.4 82.3,44.5 82.0,46.7 81.7,49.0 81.5,51.3 81.3,53.8 81.3,56.3 81.4,58.9 81.6,61.7 81.9,64.5 82.3,67.4 82.8,70.3 83.5,73.3 84.1,76.2 84.8,79.1 85.5,82.0 86.1,84.6 86.5,87.1 86.8,89.3 86.8,91.3 86.5,92.8 85.8,94.0 84.8,94.8 83.4,95.1 81.6,95.0 79.3,94.3 76.7,93.3 73.7,91.8 70.4,89.9 66.9,87.7 63.2,85.2 59.5,82.4 55.7,79.5 52.1,76.4 48.5,73.3 45.2,70.1 42.1,66.9 39.3,63.8 36.8,60.8 34.6,57.8 32.7,55.0 31.2,52.3 29.9,49.7 28.9,47.3 28.2,45.0 27.7,42.8 27.5,40.6 27.5,38.7 27.7,36.8 28.1,35.0 28.7,33.5 29.6,32.0 30.6,30.8 31.8,29.8 33.2,29.1 34.7,28.7 36.4,28.6 38.1,28.8 39.9,29.5 41.6,30.6 43.4,32.0 45.2,33.9 46.8,36.2 48.4,38.8 49.8,41.7 51.2,44.9 52.5,48.3 53.7,51.9 54.8,55.6 55.9,59.2 57.0,62.8 58.1,66.4 59.3,69.7 60.5,72.8 61.8,75.7 63.3,78.2 64.8,80.5 66.4,82.4 68.1,84.1 69.9,85.4 71.8,86.3 73.7,87.1 75.7,87.5 77.7,87.7 79.7,87.7 81.7,87.5 83.8,87.1 85.7,86.6" class="shadow"/>
    <polyline points="85.7,86.6 87.7,85.8 89.5,84.9 91.3,83.8 92.9,82.5 94.3,80.9 95.5,79.2 96.5,77.2 97.1,75.0 97.3,72.5 97.1,69.8 96.4,66.9 95.3,63.8 93.6,60.5 91.5,57.1 89.0,53.7 86.0,50.2 82.7,46.8 79.1,43.4 75.3,40.3 71.4,37.4 67.5,34.7 63.7,32.4 60.0,30.5 56.6,29.0 53.5,27.9 50.7,27.3 48.3,27.1 46.3,27.3 44.7,27.9 43.4,28.9 42.5,30.2 41.8,31.7 41.4,33.5 41.2,35.5 41.2,37.7 41.2,40.0 41.2,42.3 41.3,44.7 41.3,47.2 41.2,49.7 41.1,52.3 40.8,54.8 40.4,57.4 39.8,60.0 39.1,62.6 38.3,65.3 37.3,68.0 36.2,70.6 35.0,73.3 33.8,75.9 32.5,78.5 31.4,80.9 30.3,83.3 29.4,85.4 28.8,87.3 28.5,88.9 28.5,90.2 29.0,91.1 29.9,91.7 31.3,91.8 33.2,91.6 35.6,90.9 38.4,89.8 41.7,88.3 45.3,86.4 49.2,84.3 53.2,81.8 57.4,79.2 61.5,76.4 65.5,73.4 69.4,70.5 73.0,67.5 76.3,64.6 79.3,61.7 81.9,59.0 84.1,56.4 85.9,53.9 87.4,51.7 88.5,49.6 89.2,47.7 89.7,45.9 90.0,44.3 90.0,42.8 89.8,41.5 89.4,40.3 89.0,39.3 88.3,38.4 87.6,37.7 86.8,37.1 85.9,36.8 85.0,36.6 84.0,36.7 83.0,37.0 82.1,37.5 81.1,38.4 80.1,39.5 79.2,41.0 78.4,42.7 77.5,44.7 76.8,46.9 76.0,49.4 75.3,52.0 74.5,54.7 73.7,57.6 72.9,60.4 71.9,63.2 70.8,66.0 69.5,68.6 68.1,71.0 66.4,73.2 64.6,75.2 62.6,76.9 60.4,78.3 58.1,79.4 55.7,80.2 53.2,80.7 50.6,81.0 48.1,81.0 45.5,80.8 43.0,80.4 40.6,79.8 38.3,79.0 36.1,78.1 34.0,77.1 32.0,76.0 30.2,74.8 28.6,73.4 27.1,72.0 25.9,70.4 24.8,68.8 24.1,67.0 23.7,65.2 23.5,63.2 23.8,61.1 24.4,59.0 25.4,56.8 26.9,54.5 28.7,52.3 30.9,50.0 33.5,47.9 36.4,45.8 39.4,43.9 42.7,42.2 46.0,40.7 49.4,39.5 52.6,38.6 55.8,38.0 58.7,37.7 61.5,37.7 63.9,38.0 66.0,38.7 67.8,39.6 69.3,40.8 70.6,42.2 71.6,43.8 72.3,45.5 72.9,47.4 73.4,49.3 73.8,51.3 74.1,53.2 74.5,55.2 74.9,57.1 75.3,59.0 75.8,60.9 76.5,62.6 77.3,64.3 78.2,65.9 79.2,67.5 80.4,69.0 81.7,70.4 83.1,71.8 84.6,73.0 86.2,74.2 87.8,75.2 89.4,76.2 90.9,76.9 92.2,77.6 93.4,78.0 94.3,78.2 94.8,78.1 95.0,77.9 94.6,77.3 93.8,76.5 92.5,75.4 90.6,74.1 88.2,72.5 85.3,70.8 82.0,68.8 78.2,66.7 74.2,64.6 70.0,62.3 65.7,60.1 61.4,57.9 57.2,55.7 53.2,53.7 49.4,51.8 46.0,50.1 43.0,48.6 40.4,47.3 38.2,46.2 36.4,45.3 35.1,44.6 34.1,44.2 33.4,43.9 33.1,43.8 33.0,43.9 33.1,44.1 33.4,44.4 33.8,44.9 34.3,45.5 34.8,46.2 35.3,47.0 35.9,48.0 36.4,49.1 36.9,50.4 37.3,51.8 37.7,53.3 38.0,55.0 38.2,56.9 38.4,58.8 38.5,60.9 38.5,63.0 38.5,65.3 38.5,67.5 38.6,69.7 38.7,71.9 38.9,73.9 39.3,75.9 39.9,77.6 40.7,79.1 41.8,80.3 43.1,81.3 44.8,82.0 46.8,82.3 49.1,82.3 51.7,82.0 54.4,81.4 57.4,80.6 60.5,79.5 63.7,78.1 66.9,76.6 70.0,74.9 73.1,73.1 76.1,71.2 78.8,69.3 81.4,67.3 83.8,65.3 86.0,63.3 87.9,61.3 89.6,59.4 91.1,57.4 92.3,55.5 93.3,53.5 94.0,51.6 94.5,49.7 94.8,47.9 94.7,46.1 94.4,44.3 93.8,42.7 92.8,41.1 91.6,39.7 90.0,38.4 88.2,37.4 86.2,36.6 83.9,36.0 81.5,35.7 78.9,35.8 76.3,36.2 73.7,36.9 71.1,38.0 68.7,39.4 66.3,41.1 64.2,43.2 62.3,45.4 60.5,47.9 59.0,50.5 57.6,53.2 56.4,56.0 55.4,58.8 54.5,61.5 53.6,64.2 52.8,66.7 51.9,69.1 51.1,71.3 50.2,73.2 49.3,75.0 48.2,76.6 47.1,77.9 45.9,79.1 44.5,80.1 43.1,80.8 41.6,81.5 40.0,81.9 38.3,82.2 36.5,82.3 34.7,82.3 32.9,82.1 31.1,81.8 29.4,81.2 27.7,80.4 26.2,79.4 25.0,78.1 24.0,76.6 23.4,74.8 23.2,72.8 23.4,70.5 24.1,67.9 25.4,65.2 27.1,62.3 29.4,59.2 32.2,56.0 35.5,52.8 39.1,49.6 43.0,46.6 47.1,43.6 51.3,40.9 55.6,38.4 59.7,36.2 63.7,34.3 67.4,32.8 70.7,31.7 73.7,31.0 76.2,30.6 78.4,30.6 80.1,31.0 81.4,31.6 82.3,32.6 82.9,33.8 83.2,35.2 83.3,36.8 83.2,38.5 83.0,40.4 82.7,42.4 82.3,44.5 82.0,46.7 81.7,49.0 81.5,51.3 81.3,53.8 81.3,56.3 81.4,58.9 81.6,61.7 81.9,64.5 82.3,67.4 82.8,70.3 83.5,73.3 84.1,76.2 84.8,79.1 85.5,82.0 86.1,84.6 86.5,87.1 86.8,89.3 86.8,91.3 86.5,92.8 85.8,94.0 84.8,94.8 83.4,95.1 81.6,95.0 79.3,94.3 76.7,93.3 73.7,91.8 70.4,89.9 66.9,87.7 63.2,85.2 59.5,82.4 55.7,79.5 52.1,76.4 48.5,73.3 45.2,70.1 42.1,66.9 39.3,63.8 36.8,60.8 34.6,57.8 32.7,55.0 31.2,52.3 29.9,49.7 28.9,47.3 28.2,45.0 27.7,42.8 27.5,40.6 27.5,38.7 27.7,36.8 28.1,35.0 28.7,33.5 29.6,32.0 30.6,30.8 31.8,29.8 33.2,29.1 34.7,28.7 36.4,28.6 38.1,28.8 39.9,29.5 41.6,30.6 43.4,32.0 45.2,33.9 46.8,36.2 48.4,38.8 49.8,41.7 51.2,44.9 52.5,48.3 53.7,51.9 54.8,55.6 55.9,59.2 57.0,62.8 58.1,66.4 59.3,69.7 60.5,72.8 61.8,75.7 63.3,78.2 64.8,80.5 66.4,82.4 68.1,84.1 69.9,85.4 71.8,86.3 73.7,87.1 75.7,87.5 77.7,87.7 79.7,87.7 81.7,87.5 83.8,87.1 85.7,86.6" class="rope"/>
    <rect x="28.5" y="31.6" width="20" height="6" rx="3" transform="rotate(42.5 38.5 34.6)" fill="#f8f7f2"/><rect x="45.6" y="47.4" width="20" height="6" rx="3" transform="rotate(61.3 55.6 50.4)" fill="#f8f7f2"/><rect x="77.6" y="68.8" width="20" height="6" rx="3" transform="rotate(80.0 87.6 71.8)" fill="#f8f7f2"/><rect x="15.3" y="83.3" width="20" height="6" rx="3" transform="rotate(98.8 25.3 86.3)" fill="#f8f7f2"/><rect x="71.5" y="82.4" width="20" height="6" rx="3" transform="rotate(117.5 81.5 85.4)" fill="#f8f7f2"/><rect x="40.5" y="29.8" width="20" height="6" rx="3" transform="rotate(96.3 50.5 32.8)" fill="#f8f7f2"/><rect x="80.5" y="33.0" width="20" height="6" rx="3" transform="rotate(115.0 90.5 36.0)" fill="#f8f7f2"/><rect x="16.3" y="50.2" width="20" height="6" rx="3" transform="rotate(133.8 26.3 53.2)" fill="#f8f7f2"/>
    <polyline points="85.7,86.6 87.7,85.8 89.5,84.9 91.3,83.8 92.9,82.5 94.3,80.9 95.5,79.2 96.5,77.2 97.1,75.0 97.3,72.5 97.1,69.8 96.4,66.9 95.3,63.8 93.6,60.5 91.5,57.1 89.0,53.7 86.0,50.2 82.7,46.8 79.1,43.4 75.3,40.3 71.4,37.4 67.5,34.7 63.7,32.4 60.0,30.5 56.6,29.0 53.5,27.9 50.7,27.3 48.3,27.1 46.3,27.3 44.7,27.9 43.4,28.9 42.5,30.2 41.8,31.7 41.4,33.5 41.2,35.5 41.2,37.7 41.2,40.0 41.2,42.3 41.3,44.7 41.3,47.2 41.2,49.7 41.1,52.3 40.8,54.8 40.4,57.4 39.8,60.0 39.1,62.6 38.3,65.3 37.3,68.0 36.2,70.6 35.0,73.3 33.8,75.9 32.5,78.5 31.4,80.9 30.3,83.3 29.4,85.4 28.8,87.3 28.5,88.9 28.5,90.2 29.0,91.1 29.9,91.7 31.3,91.8 33.2,91.6 35.6,90.9 38.4,89.8 41.7,88.3 45.3,86.4 49.2,84.3 53.2,81.8 57.4,79.2 61.5,76.4 65.5,73.4 69.4,70.5 73.0,67.5 76.3,64.6 79.3,61.7 81.9,59.0 84.1,56.4 85.9,53.9 87.4,51.7 88.5,49.6 89.2,47.7 89.7,45.9 90.0,44.3 90.0,42.8 89.8,41.5 89.4,40.3 89.0,39.3 88.3,38.4 87.6,37.7 86.8,37.1 85.9,36.8 85.0,36.6 84.0,36.7 83.0,37.0 82.1,37.5 81.1,38.4 80.1,39.5 79.2,41.0 78.4,42.7 77.5,44.7 76.8,46.9 76.0,49.4 75.3,52.0 74.5,54.7 73.7,57.6 72.9,60.4 71.9,63.2 70.8,66.0 69.5,68.6 68.1,71.0 66.4,73.2 64.6,75.2 62.6,76.9 60.4,78.3 58.1,79.4 55.7,80.2 53.2,80.7 50.6,81.0 48.1,81.0 45.5,80.8 43.0,80.4 40.6,79.8 38.3,79.0 36.1,78.1 34.0,77.1 32.0,76.0 30.2,74.8 28.6,73.4 27.1,72.0 25.9,70.4 24.8,68.8 24.1,67.0 23.7,65.2 23.5,63.2 23.8,61.1 24.4,59.0 25.4,56.8 26.9,54.5 28.7,52.3 30.9,50.0 33.5,47.9 36.4,45.8 39.4,43.9 42.7,42.2 46.0,40.7 49.4,39.5 52.6,38.6 55.8,38.0 58.7,37.7 61.5,37.7 63.9,38.0 66.0,38.7 67.8,39.6 69.3,40.8 70.6,42.2 71.6,43.8 72.3,45.5 72.9,47.4 73.4,49.3 73.8,51.3 74.1,53.2 74.5,55.2 74.9,57.1 75.3,59.0 75.8,60.9 76.5,62.6 77.3,64.3 78.2,65.9 79.2,67.5 80.4,69.0 81.7,70.4 83.1,71.8 84.6,73.0 86.2,74.2 87.8,75.2 89.4,76.2 90.9,76.9 92.2,77.6 93.4,78.0 94.3,78.2 94.8,78.1 95.0,77.9 94.6,77.3 93.8,76.5 92.5,75.4 90.6,74.1 88.2,72.5 85.3,70.8 82.0,68.8 78.2,66.7 74.2,64.6 70.0,62.3 65.7,60.1 61.4,57.9 57.2,55.7 53.2,53.7 49.4,51.8 46.0,50.1 43.0,48.6 40.4,47.3 38.2,46.2 36.4,45.3 35.1,44.6 34.1,44.2 33.4,43.9 33.1,43.8 33.0,43.9 33.1,44.1 33.4,44.4 33.8,44.9 34.3,45.5 34.8,46.2 35.3,47.0 35.9,48.0 36.4,49.1 36.9,50.4 37.3,51.8 37.7,53.3 38.0,55.0 38.2,56.9 38.4,58.8 38.5,60.9 38.5,63.0 38.5,65.3 38.5,67.5 38.6,69.7 38.7,71.9 38.9,73.9 39.3,75.9 39.9,77.6 40.7,79.1 41.8,80.3 43.1,81.3 44.8,82.0 46.8,82.3 49.1,82.3 51.7,82.0 54.4,81.4 57.4,80.6 60.5,79.5 63.7,78.1 66.9,76.6 70.0,74.9 73.1,73.1 76.1,71.2 78.8,69.3 81.4,67.3 83.8,65.3 86.0,63.3 87.9,61.3 89.6,59.4 91.1,57.4 92.3,55.5 93.3,53.5 94.0,51.6 94.5,49.7 94.8,47.9 94.7,46.1 94.4,44.3 93.8,42.7 92.8,41.1 91.6,39.7 90.0,38.4 88.2,37.4 86.2,36.6 83.9,36.0 81.5,35.7 78.9,35.8 76.3,36.2 73.7,36.9 71.1,38.0 68.7,39.4 66.3,41.1 64.2,43.2 62.3,45.4 60.5,47.9 59.0,50.5 57.6,53.2 56.4,56.0 55.4,58.8 54.5,61.5 53.6,64.2 52.8,66.7 51.9,69.1 51.1,71.3 50.2,73.2 49.3,75.0 48.2,76.6 47.1,77.9 45.9,79.1 44.5,80.1 43.1,80.8 41.6,81.5 40.0,81.9 38.3,82.2 36.5,82.3 34.7,82.3 32.9,82.1 31.1,81.8 29.4,81.2 27.7,80.4 26.2,79.4 25.0,78.1 24.0,76.6 23.4,74.8 23.2,72.8 23.4,70.5 24.1,67.9 25.4,65.2 27.1,62.3 29.4,59.2 32.2,56.0 35.5,52.8 39.1,49.6 43.0,46.6 47.1,43.6 51.3,40.9 55.6,38.4 59.7,36.2 63.7,34.3 67.4,32.8 70.7,31.7 73.7,31.0 76.2,30.6 78.4,30.6 80.1,31.0 81.4,31.6 82.3,32.6 82.9,33.8 83.2,35.2 83.3,36.8 83.2,38.5 83.0,40.4 82.7,42.4 82.3,44.5 82.0,46.7 81.7,49.0 81.5,51.3 81.3,53.8 81.3,56.3 81.4,58.9 81.6,61.7 81.9,64.5 82.3,67.4 82.8,70.3 83.5,73.3 84.1,76.2 84.8,79.1 85.5,82.0 86.1,84.6 86.5,87.1 86.8,89.3 86.8,91.3 86.5,92.8 85.8,94.0 84.8,94.8 83.4,95.1 81.6,95.0 79.3,94.3 76.7,93.3 73.7,91.8 70.4,89.9 66.9,87.7 63.2,85.2 59.5,82.4 55.7,79.5 52.1,76.4 48.5,73.3 45.2,70.1 42.1,66.9 39.3,63.8 36.8,60.8 34.6,57.8 32.7,55.0 31.2,52.3 29.9,49.7 28.9,47.3 28.2,45.0 27.7,42.8 27.5,40.6 27.5,38.7 27.7,36.8 28.1,35.0 28.7,33.5 29.6,32.0 30.6,30.8 31.8,29.8 33.2,29.1 34.7,28.7 36.4,28.6 38.1,28.8 39.9,29.5 41.6,30.6 43.4,32.0 45.2,33.9 46.8,36.2 48.4,38.8 49.8,41.7 51.2,44.9 52.5,48.3 53.7,51.9 54.8,55.6 55.9,59.2 57.0,62.8 58.1,66.4 59.3,69.7 60.5,72.8 61.8,75.7 63.3,78.2 64.8,80.5 66.4,82.4 68.1,84.1 69.9,85.4 71.8,86.3 73.7,87.1 75.7,87.5 77.7,87.7 79.7,87.7 81.7,87.5 83.8,87.1 85.7,86.6" class="highlight"/>
  
</svg>