<svg xmlns="http://www.w3.org/2000/svg" viewBox="0 0 120 120" role="img">
  <rect width="120" height="120" rx="10" fill="#f8f7f2"/>
  <style>
    .shadow{fill:none;stroke:#4a4f56;stroke-width:13;stroke-linecap:round;stroke-linejoin:round;opacity:.22}
    .rope{fill:none;stroke:#1778bd;stroke-width:8;stroke-linecap:round;stroke-linejoin:round}
    .highlight{fill:none;stroke:#4fb1f0;stroke-width:2.2;stroke-linecap:round;stroke-linejoin:round;opacity:.85}
  </style>
  
    <polyline points="88.7,87.1 89.9,87.0 91.1,86.9 92.4,86.7 93.7,86.5 94.9,86.2 96.1,85.8 97.3,85.3 98.5,84.7 99.5,84.0 100.5,83.3 101.4,82.4 102.1,81.4 102.8,80.4 103.3,79.2 103.7,77.9 103.9,76.6 104.0,75.2 103.9,73.8 103.6,72.3 103.2,70.7 102.7,69.1 102.0,67.5 101.1,65.9 100.1,64.3 99.1,62.8 97.9,61.2 96.6,59.7 95.2,58.2 93.8,56.8 92.3,55.4 90.8,54.1 89.3,52.9 87.7,51.7 86.2,50.5 84.7,49.4 83.2,48.4 81.7,47.4 80.2,46.4 78.8,45.5 77.5,44.6 76.1,43.7 74.8,42.9 73.5,42.0 72.3,41.2 71.1,40.3 69.9,39.4 68.7,38.5 67.5,37.6 66.3,36.7 65.1,35.8 63.9,34.9 62.7,33.9 61.5,33.0 60.3,32.1 59.0,31.2 57.8,30.3 56.5,29.4 55.2,28.7 54.0,27.9 52.7,27.3 51.5,26.7 50.3,26.2 49.1,25.8 47.9,25.6 46.8,25.4 45.8,25.4 44.8,25.5 43.9,25.7 43.0,26.1 42.3,26.6 41.6,27.2 41.0,28.0 40.5,28.8 40.1,29.8 39.7,30.9 39.5,32.0 39.3,33.2 39.2,34.5 39.2,35.9 39.2,37.3 39.3,38.7 39.4,40.2 39.6,41.6 39.8,43.1 40.0,44.5 40.2,46.0 40.4,47.4 40.7,48.8 40.9,50.2 41.1,51.5 41.2,52.8 41.4,54.1 41.5,55.4 41.5,56.6 41.5,57.8 41.5,59.0 41.4,60.2 41.3,61.5 41.1,62.7 40.8,63.9 40.5,65.2 40.1,66.5 39.7,67.8 39.2,69.1 38.7,70.5 38.2,71.8 37.5,73.3 36.9,74.7 36.2,76.2 35.5,77.6 34.8,79.1 34.0,80.5 33.3,82.0 32.5,83.4 31.7,84.8 31.0,86.1 30.3,87.4 29.6,88.6 29.0,89.7 28.4,90.7 27.9,91.6 27.4,92.4 27.0,93.0 26.7,93.6 26.5,94.0 26.4,94.3 26.3,94.5 26.4,94.5 26.5,94.4 26.7,94.2 27.0,93.9 27.4,93.4 27.9,92.9 28.4,92.3 29.0,91.6 29.6,90.8 30.3,90.0 31.0,89.2 31.8,88.3 32.6,87.4 33.4,86.5 34.2,85.6 35.0,84.6 35.8,83.7 36.7,82.8 37.5,81.9 38.3,81.1 39.1,80.2 39.9,79.3 40.7,78.5 41.5,77.7 42.3,76.8 43.2,75.9 44.0,75.1 44.9,74.2 45.9,73.2 46.9,72.3 48.0,71.3 49.1,70.2 50.3,69.1 51.5,67.9 52.8,66.7 54.2,65.4 55.7,64.0 57.3,62.6 58.9,61.2 60.5,59.7 62.2,58.2 63.9,56.6 65.7,55.0 67.5,53.4 69.2,51.8 71.0,50.2 72.7,48.6 74.4,47.1 76.0,45.6 77.6,44.2 79.0,42.9 80.4,41.6 81.7,40.4 82.8,39.3 83.9,38.3 84.8,37.3 85.7,36.5 86.4,35.8 87.0,35.2 87.5,34.7 87.9,34.2 88.2,33.9 88.4,33.6 88.5,33.4 88.6,33.2 88.6,33.1 88.6,33.0 88.6,33.0 88.5,33.0 88.4,33.0 88.4,33.0 88.3,33.0 88.2,33.0 88.2,33.0 88.2,33.0 88.2,33.0 88.2,32.9 88.2,32.9 88.3,32.9 88.4,32.9 88.5,32.9 88.6,32.9 88.7,32.9 88.8,33.0 88.9,33.1 88.9,33.3 89.0,33.5 89.0,33.8 89.0,34.2 89.0,34.7 89.0,35.3 88.9,36.0 88.7,36.7 88.5,37.6 88.3,38.6 88.0,39.6 87.7,40.8 87.4,42.1 87.0,43.4 86.5,44.8 86.1,46.2 85.6,47.7 85.1,49.3 84.6,50.9 84.0,52.5 83.5,54.1 82.9,55.7 82.4,57.2 81.8,58.8 81.2,60.3 80.7,61.8 80.1,63.2 79.6,64.6 79.1,65.9 78.6,67.1 78.1,68.3 77.6,69.5 77.2,70.6 76.8,71.6 76.4,72.6 76.0,73.6 75.7,74.5 75.4,75.4 75.1,76.3 74.8,77.1 74.6,78.0 74.3,78.8 74.1,79.7 73.9,80.6 73.7,81.5 73.6,82.4 73.4,83.3 73.2,84.2 73.0,85.1 72.7,86.1 72.4,87.0 72.1,87.9 71.8,88.8 71.3,89.7 70.9,90.6 70.3,91.3 69.7,92.1 69.0,92.7 68.3,93.3 67.4,93.8 66.5,94.2 65.5,94.4 64.4,94.6 63.3,94.6 62.1,94.5 60.8,94.3 59.4,93.9 58.1,93.4 56.7,92.8 55.2,92.0 53.8,91.2 52.3,90.2 50.9,89.1 49.5,88.0 48.1,86.8 46.7,85.5 45.4,84.1 44.2,82.7 43.0,81.3 41.9,79.8 40.8,78.4 39.8,76.9 38.8,75.5 37.9,74.0 37.1,72.6 36.3,71.2 35.5,69.8 34.8,68.5 34.1,67.2 33.4,65.9 32.8,64.6 32.1,63.4 31.4,62.2 30.7,61.0 30.0,59.8 29.3,58.5 28.6,57.3 27.8,56.1 27.1,54.8 26.3,53.5 25.5,52.2 24.7,50.9 23.9,49.5 23.2,48.2 22.4,46.7 21.7,45.3 21.1,43.8 20.5,42.4 20.0,40.9 19.6,39.5 19.3,38.0 19.1,36.6 19.1,35.2 19.1,33.9 19.3,32.6 19.6,31.4 20.0,30.3 20.6,29.3 21.2,28.4 22.1,27.6 23.0,27.0 24.0,26.4 25.2,26.0 26.4,25.7 27.7,25.5 29.0,25.5 30.4,25.6 31.9,25.8 33.3,26.1 34.8,26.6 36.2,27.1 37.7,27.7 39.1,28.4 40.5,29.2 41.8,30.0 43.1,30.8 44.4,31.7 45.6,32.6 46.7,33.5 47.7,34.4 48.7,35.4 49.7,36.3 50.5,37.2 51.3,38.1 52.1,38.9 52.8,39.8 53.5,40.7 54.1,41.5 54.7,42.3 55.3,43.2 55.8,44.1 56.3,44.9 56.8,45.8 57.2,46.8 57.7,47.7 58.1,48.7 58.5,49.8 58.9,50.9 59.4,52.1 59.8,53.3 60.2,54.6 60.6,56.0 61.0,57.4 61.4,58.8 61.8,60.3 62.2,61.8 62.6,63.4 63.0,65.0 63.5,66.6 63.9,68.2 64.4,69.8 64.8,71.4 65.3,72.9 65.7,74.4 66.2,75.8 66.7,77.1 67.2,78.4 67.7,79.6 68.2,80.7 68.7,81.7 69.2,82.7 69.7,83.5 70.2,84.2 70.7,84.8 71.3,85.3 71.8,85.8 72.3,86.1 72.8,86.4 73.4,86.6 73.9,86.8 74.4,86.9 75.0,87.0 75.6,87.0 76.2,87.0 76.8,87.0 77.4,87.0 78.1,87.0 78.8,87.0 79.6,87.0 80.4,87.0 81.3,87.0 82.2,87.1 83.1,87.1 84.1,87.1 85.2,87.1 86.3,87.1 87.5,87.1 88.7,87.1" class="shadow"/>
    <polyline points="88.7,87.1 89.9,87.0 91.1,86.9 92.4,86.7 93.7,86.5 94.9,86.2 96.1,85.8 97.3,85.3 98.5,84.7 99.5,84.0 100.5,83.3 101.4,82.4 102.1,81.4 102.8,80.4 103.3,79.2 103.7,77.9 103.9,76.6 104.0,75.2 103.9,73.8 103.6,72.3 103.2,70.7 102.7,69.1 102.0,67.5 101.1,65.9 100.1,64.3 99.1,62.8 97.9,61.2 96.6,59.7 95.2,58.2 93.8,56.8 92.3,55.4 90.8,54.1 89.3,52.9 87.7,51.7 86.2,50.5 84.7,49.4 83.2,48.4 81.7,47.4 80.2,46.4 78.8,45.5 77.5,44.6 76.1,43.7 74.8,42.9 73.5,42.0 72.3,41.2 71.1,40.3 69.9,39.4 68.7,38.5 67.5,37.6 66.3,36.7 65.1,35.8 63.9,34.9 62.7,33.9 61.5,33.0 60.3,32.1 59.0,31.2 57.8,30.3 56.5,29.4 55.2,28.7 54.0,27.9 52.7,27.3 51.5,26.7 50.3,26.2 49.1,25.8 47.9,25.6 46.8,25.4 45.8,25.4 44.8,25.5 43.9,25.7 43.0,26.1 42.3,26.6 41.6,27.2 41.0,28.0 40.5,28.8 40.1,29.8 39.7,30.9 39.5,32.0 39.3,33.2 39.2,34.5 39.2,35.9 39.2,37.3 39.3,38.7 39.4,40.2 39.6,41.6 39.8,43.1 40.0,44.5 40.2,46.0 40.4,47.4 40.7,48.8 40.9,50.2 41.1,51.5 41.2,52.8 41.4,54.1 41.5,55.4 41.5,56.6 41.5,57.8 41.5,59.0 41.4,60.2 41.3,61.5 41.1,62.7 40.8,63.9 40.5,65.2 40.1,66.5 39.7,67.8 39.2,69.1 38.7,70.5 38.2,71.8 37.5,73.3 36.9,74.7 36.2,76.2 35.5,77.6 34.8,79.1 34.0,80.5 33.3,82.0 32.5,83.4 31.7,84.8 31.0,86.1 30.3,87.4 29.6,88.6 29.0,89.7 28.4,90.7 27.9,91.6 27.4,92.4 27.0,93.0 26.7,93.6 26.5,94.0 26.4,94.3 26.3,94.5 26.4,94.5 26.5,94.4 26.7,94.2 27.0,93.9 27.4,93.4 27.9,92.9 28.4,92.3 29.0,91.6 29.6,90.8 30.3,90.0 31.0,89.2 31.8,88.3 32.6,87.4 33.4,86.5 34.2,85.6 35.0,84.6 35.8,83.7 36.7,82.8 37.5,81.9 38.3,81.1 39.1,80.2 39.9,79.3 40.7,78.5 41.5,77.7 42.3,76.8 43.2,75.9 44.0,75.1 44.9,74.2 45.9,73.2 46.9,72.3 48.0,71.3 49.1,70.2 50.3,69.1 51.5,67.9 52.8,66.7 54.2,65.4 55.7,64.0 57.3,62.6 58.9,61.2 60.5,59.7 62.2,58.2 63.9,56.6 65.7,55.0 67.5,53.4 69.2,51.8 71.0,50.2 72.7,48.6 74.4,47.1 76.0,45.6 77.6,44.2 79.0,42.9 80.4,41.6 81.7,40.4 82.8,39.3 83.9,38.3 84.8,37.3 85.7,36.5 86.4,35.8 87.0,35.2 87.5,34.7 87.9,34.2 88.2,33.9 88.4,33.6 88.5,33.4 88.6,33.2 88.6,33.1 88.6,33.0 88.6,33.0 88.5,33.0 88.4,33.0 88.4,33.0 88.3,33.0 88.2,33.0 88.2,33.0 88.2,33.0 88.2,33.0 88.2,32.9 88.2,32.9 88.3,32.9 88.4,32.9 88.5,32.9 88.6,32.9 88.7,32.9 88.8,33.0 88.9,33.1 88.9,33.3 89.0,33.5 89.0,33.8 89.0,34.2 89.0,34.7 89.0,35.3 88.9,36.0 88.7,36.7 88.5,37.6 88.3,38.6 88.0,39.6 87.7,40.8 87.4,42.1 87.0,43.4 86.5,44.8 86.1,46.2 85.6,47.7 85.1,49.3 84.6,50.9 84.0,52.5 83.5,54.1 82.9,55.7 82.4,57.2 81.8,58.8 81.2,60.3 80.7,61.8 80.1,63.2 79.6,64.6 79.1,65.9 78.6,67.1 78.1,68.3 77.6,69.5 77.2,70.6 76.8,71.6 76.4,72.6 76.0,73.6 75.7,74.5 75.4,75.4 75.1,76.3 74.8,77.1 74.6,78.0 74.3,78.8 74.1,79.7 73.9,80.6 73.7,81.5 73.6,82.4 73.4,83.3 73.2,84.2 73.0,85.1 72.7,86.1 72.4,87.0 72.1,87.9 71.8,88.8 71.3,89.7 70.9,90.6 70.3,91.3 69.7,92.1 69.0,92.7 68.3,93.3 67.4,93.8 66.5,94.2 65.5,94.4 64.4,94.6 63.3,94.6 62.1,94.5 60.8,94.3 59.4,93.9 58.1,93.4 56.7,92.8 55.2,92.0 53.8,91.2 52.3,90.2 50.9,89.1 49.5,88.0 48.1,86.8 46.7,85.5 45.4,84.1 44.2,82.7 43.0,81.3 41.9,79.8 40.8,78.4 39.8,76.9 38.8,75.5 37.9,74.0 37.1,72.6 36.3,71.2 35.5,69.8 34.8,68.5 34.1,67.2 33.4,65.9 32.8,64.6 32.1,63.4 31.4,62.2 30.7,61.0 30.0,59.8 29.3,58.5 28.6,57.3 27.8,56.1 27.1,54.8 26.3,53.5 25.5,52.2 24.7,50.9 23.9,49.5 23.2,48.2 22.4,46.7 21.7,45.3 21.1,43.8 20.5,42.4 20.0,40.9 19.6,39.5 19.3,38.0 19.1,36.6 19.1,35.2 19.1,33.9 19.3,32.6 19.6,31.4 20.0,30.3 20.6,29.3 21.2,28.4 22.1,27.6 23.0,27.0 24.0,26.4 25.2,26.0 26.4,25.7 27.7,25.5 29.0,25.5 30.4,25.6 31.9,25.8 33.3,26.1 34.8,26.6 36.2,27.1 37.7,27.7 39.1,28.4 40.5,29.2 41.8,30.0 43.1,30.8 44.4,31.7 45.6,32.6 46.7,33.5 47.7,34.4 48.7,35.4 49.7,36.3 50.5,37.2 51.3,38.1 52.1,38.9 52.8,39.8 53.5,40.7 54.1,41.5 54.7,42.3 55.3,43.2 55.8,44.1 56.3,44.9 56.8,45.8 57.2,46.8 57.7,47.7 58.1,48.7 58.5,49.8 58.9,50.9 59.4,52.1 59.8,53.3 60.2,54.6 60.6,56.0 61.0,57.4 61.4,58.8 61.8,60.3 62.2,61.8 62.6,63.4 63.0,65.0 63.5,66.6 63.9,68.2 64.4,69.8 64.8,71.4 65.3,72.9 65.7,74.4 66.2,75.8 66.7,77.1 67.2,78.4 67.7,79.6 68.2,80.7 68.7,81.7 69.2,82.7 69.7,83.5 70.2,84.2 70.7,84.8 71.3,85.3 71.8,85.8 72.3,86.1 72.8,86.4 73.4,86.6 73.9,86.8 74.4,86.9 75.0,87.0 75.6,87.0 76.2,87.0 76.8,87.0 77.4,87.0 78.1,87.0 78.8,87.0 79.6,87.0 80.4,87.0 81.3,87.0 82.2,87.1 83.1,87.1 84.1,87.1 85.2,87.1 86.3,87.1 87.5,87.1 88.7,87.1" class="rope"/>
    <rect x="37.8" y="69.8" width="20" height="6" rx="3" transform="rotate(115.0 47.8 72.8)" fill="#f8f7f2"/><rect x="82.8" y="30.4" width="20" height="6" rx="3" transform="rotate(133.8 92.8 33.4)" fill="#f8f7f2"/><rect x="62.2" y="81.9" width="20" height="6" rx="3" transform="rotate(152.5 72.2 84.9)" fill="#f8f7f2"/><rect x="17.2" y="48.4" width="20" height="6" rx="3" transform="rotate(171.3 27.2 51.4)" fill="#f8f7f2"/><rect x="37.8" y="44.2" width="20" height="6" rx="3" transform="rotate(10.0 47.8 47.2)" fill="#f8f7f2"/><rect x="70.0" y="38.6" width="20" height="6" rx="3" transform="rotate(168.8 80.0 41.6)" fill="#f8f7f2"/><rect x="21.3" y="55.1" width="20" height="6" rx="3" transform="rotate(7.5 31.3 58.1)" fill="#f8f7f2"/><rect x="30.0" y="78.1" width="20" height="6" rx="3" transform="rotate(26.3 40.0 81.1)" fill="#f8f7f2"/>
    <polyline points="88.7,87.1 89.9,87.0 91.1,86.9 92.4,86.7 93.7,86.5 94.9,86.2 96.1,85.8 97.3,85.3 98.5,84.7 99.5,84.0 100.5,83.3 101.4,82.4 102.1,81.4 102.8,80.4 103.3,79.2 103.7,77.9 103.9,76.6 104.0,75.2 103.9,73.8 103.6,72.3 103.2,70.7 102.7,69.1 102.0,67.5 101.1,65.9 100.1,64.3 99.1,62.8 97.9,61.2 96.6,59.7 95.2,58.2 93.8,56.8 92.3,55.4 90.8,54.1 89.3,52.9 87.7,51.7 86.2,50.5 84.7,49.4 83.2,48.4 81.7,47.4 80.2,46.4 78.8,45.5 77.5,44.6 76.1,43.7 74.8,42.9 73.5,42.0 72.3,41.2 71.1,40.3 69.9,39.4 68.7,38.5 67.5,37.6 66.3,36.7 65.1,35.8 63.9,34.9 62.7,33.9 61.5,33.0 60.3,32.1 59.0,31.2 57.8,30.3 56.5,29.4 55.2,28.7 54.0,27.9 52.7,27.3 51.5,26.7 50.3,26.2 49.1,25.8 47.9,25.6 46.8,25.4 45.8,25.4 44.8,25.5 43.9,25.7 43.0,26.1 42.3,26.6 41.6,27.2 41.0,28.0 40.5,28.8 40.1,29.8 39.7,30.9 39.5,32.0 39.3,33.2 39.2,34.5 39.2,35.9 39.2,37.3 39.3,38.7 39.4,40.2 39.6,41.6 39.8,43.1 40.0,44.5 40.2,46.0 40.4,47.4 40.7,48.8 40.9,50.2 41.1,51.5 41.2,52.8 41.4,54.1 41.5,55.4 41.5,56.6 41.5,57.8 41.5,59.0 41.4,60.2 41.3,61.5 41.1,62.7 40.8,63.9 40.5,65.2 40.1,66.5 39.7,67.8 39.2,69.1 38.7,70.5 38.2,71.8 37.5,73.3 36.9,74.7 36.2,76.2 35.5,77.6 34.8,79.1 34.0,80.5 33.3,82.0 32.5,83.4 31.7,84.8 31.0,86.1 30.3,87.4 29.6,88.6 29.0,89.7 28.4,90.7 27.9,91.6 27.4,92.4 27.0,93.0 26.7,93.6 26.5,94.0 26.4,94.3 26.3,94.5 26.4,94.5 26.5,94.4 26.7,94.2 27.0,93.9 27.4,93.4 27.9,92.9 28.4,92.3 29.0,91.6 29.6,90.8 30.3,90.0 31.0,89.2 31.8,88.3 32.6,87.4 33.4,86.5 34.2,85.6 35.0,84.6 35.8,83.7 36.7,82.8 37.5,81.9 38.3,81.1 39.1,80.2 39.9,79.3 40.7,78.5 41.5,77.7 42.3,76.8 43.2,75.9 44.0,75.1 44.9,74.2 45.9,73.2 46.9,72.3 48.0,71.3 49.1,70.2 50.3,69.1 51.5,67.9 52.8,66.7 54.2,65.4 55.7,64.0 57.3,62.6 58.9,61.2 60.5,59.7 62.2,58.2 63.9,56.6 65.7,55.0 67.5,53.4 69.2,51.8 71.0,50.2 72.7,48.6 74.4,47.1 76.0,45.6 77.6,44.2 79.0,42.9 80.4,41.6 81.7,40.4 82.8,39.3 83.9,38.3 84.8,37.3 85.7,36.5 86.4,35.8 87.0,35.2 87.5,34.7 87.9,34.2 88.2,33.9 88.4,33.6 88.5,33.4 88.6,33.2 88.6,33.1 88.6,33.0 88.6,33.0 88.5,33.0 88.4,33.0 88.4,33.0 88.3,33.0 88.2,33.0 88.2,33.0 88.2,33.0 88.2,33.0 88.2,32.9 88.2,32.9 88.3,32.9 88.4,32.9 88.5,32.9 88.6,32.9 88.7,32.9 88.8,33.0 88.9,33.1 88.9,33.3 89.0,33.5 89.0,33.8 89.0,34.2 89.0,34.7 89.0,35.3 88.9,36.0 88.7,36.7 88.5,37.6 88.3,38.6 88.0,39.6 87.7,40.8 87.4,42.1 87.0,43.4 86.5,44.8 86.1,46.2 85.6,47.7 85.1,49.3 84.6,50.9 84.0,52.5 83.5,54.1 82.9,55.7 82.4,57.2 81.8,58.8 81.2,60.3 80.7,61.8 80.1,63.2 79.6,64.6 79.1,65.9 78.6,67.1 78.1,68.3 77.6,69.5 77.2,70.6 76.8,71.6 76.4,72.6 76.0,73.6 75.7,74.5 75.4,75.4 75.1,76.3 74.8,77.1 74.6,78.0 74.3,78.8 74.1,79.7 73.9,80.6 73.7,81.5 73.6,82.4 73.4,83.3 73.2,84.2 73.0,85.1 72.7,86.1 72.4,87.0 72.1,87.9 71.8,88.8 71.3,89.7 70.9,90.6 70.3,91.3 69.7,92.1 69.0,92.7 68.3,93.3 67.4,93.8 66.5,94.2 65.5,94.4 64.4,94.6 63.3,94.6 62.1,94.5 60.8,94.3 59.4,93.9 58.1,93.4 56.7,92.8 55.2,92.0 53.8,91.2 52.3,90.2 50.9,89.1 49.5,88.0 48.1,86.8 46.7,85.5 45.4,84.1 44.2,82.7 43.0,81.3 41.9,79.8 40.8,78.4 39.8,76.9 38.8,75.5 37.9,74.0 37.1,72.6 36.3,71.2 35.5,69.8 34.8,68.5 34.1,67.2 33.4,65.9 32.8,64.6 32.1,63.4 31.4,62.2 30.7,61.0 30.0,59.8 29.3,58.5 28.6,57.3 27.8,56.1 27.1,54.8 26.3,53.5 25.5,52.2 24.7,50.9 23.9,49.5 23.2,48.2 22.4,46.7 21.7,45.3 21.1,43.8 20.5,42.4 20.0,40.9 19.6,39.5 19.3,38.0 19.1,36.6 19.1,35.2 19.1,33.9 19.3,32.6 19.6,31.4 20.0,30.3 20.6,29.3 21.2,28.4 22.1,27.6 23.0,27.0 24.0,26.4 25.2,26.0 26.4,25.7 27.7,25.5 29.0,25.5 30.4,25.6 31.9,25.8 33.3,26.1 34.8,26.6 36.2,27.1 37.7,27.7 39.1,28.4 40.5,29.2 41.8,30.0 43.1,30.8 44.4,31.7 45.6,32.6 46.7,33.5 47.7,34.4 48.7,35.4 49.7,36.3 50.5,37.2 51.3,38.1 52.1,38.9 52.8,39.8 53.5,40.7 54.1,41.5 54.7,42.3 55.3,43.2 55.8,44.1 56.3,44.9 56.8,45.8 57.2,46.8 57.7,47.7 58.1,48.7 58.5,49.8 58.9,50.9 59.4,52.1 59.8,53.3 60.2,54.6 60.6,56.0 61.0,57.4 61.4,58.8 61.8,60.3 62.2,61.8 62.6,63.4 63.0,65.0 63.5,66.6 63.9,68.2 64.4,69.8 64.8,71.4 65.3,72.9 65.7,74.4 66.2,75.8 66.7,77.1 67.2,78.4 67.7,79.6 68.2,80.7 68.7,81.7 69.2,82.7 69.7,83.5 70.2,84.2 70.7,84.8 71.3,85.3 71.8,85.8 72.3,86.1 72.8,86.4 73.4,86.6 73.9,86.8 74.4,86.9 75.0,87.0 75.6,87.0 76.2,87.0 76.8,87.0 77.4,87.0 78.1,87.0 78.8,87.0 79.6,87.0 80.4,87.0 81.3,87.0 82.2,87.1 83.1,87.1 84.1,87.1 85.2,87.1 86.3,87.1 87.5,87.1 88.7,87.1" class="highlight"/>
  
</svg>