<svg xmlns="http://www.w3.org/2000/svg" viewBox="0 0 120 120" role="img">
  <rect width="120" height="120" rx="10" fill="#f8f7f2"/>
  <style>
    .shadow{fill:none;stroke:#4a4f56;stroke-width:13;stroke-linecap:round;stroke-linejoin:round;opacity:.22}
    .rope{fill:none;stroke:#1778bd;stroke-width:8;stroke-linecap:round;stroke-linejoin:round}
    .highlight{fill:none;stroke:#4fb1f0;stroke-width:2.2;stroke-linecap:round;stroke-linejoin:round;opacity:.85}
  </style>
  
    <polyline points="93.5,88.7 95.2,88.1 96.7,87.4 98.1,86.5 99.3,85.4 100.4,84.2 101.3,82.8 101.9,81.2 102.4,79.5 102.6,77.8 102.5,75.9 102.3,73.9 101.7,71.9 100.9,69.8 99.9,67.7 98.7,65.7 97.3,63.6 95.8,61.6 94.0,59.7 92.2,57.8 90.3,56.0 88.2,54.3 86.2,52.6 84.1,51.1 82.0,49.6 79.9,48.3 77.9,46.9 75.8,45.7 73.8,44.5 71.8,43.3 69.9,42.2 68.0,41.1 66.1,40.1 64.2,39.0 62.3,38.0 60.4,36.9 58.6,35.9 56.7,34.8 54.8,33.8 52.9,32.8 51.0,31.9 49.1,31.0 47.2,30.2 45.4,29.4 43.6,28.8 41.8,28.2 40.1,27.9 38.5,27.6 37.0,27.5 35.6,27.6 34.3,27.9 33.2,28.3 32.3,29.0 31.5,29.8 30.8,30.8 30.4,32.0 30.1,33.4 30.0,34.9 30.0,36.5 30.2,38.3 30.5,40.1 30.9,42.0 31.4,44.0 31.9,46.0 32.6,48.0 33.3,50.0 34.0,52.0 34.7,53.9 35.4,55.8 36.1,57.6 36.7,59.4 37.3,61.1 37.9,62.8 38.3,64.4 38.8,65.9 39.1,67.5 39.4,68.9 39.6,70.4 39.7,71.8 39.7,73.2 39.7,74.6 39.5,76.0 39.4,77.4 39.1,78.8 38.8,80.2 38.5,81.7 38.2,83.1 37.8,84.5 37.4,85.9 37.1,87.2 36.8,88.5 36.5,89.7 36.3,90.8 36.2,91.8 36.2,92.7 36.3,93.4 36.6,94.0 37.0,94.4 37.5,94.6 38.3,94.6 39.1,94.4 40.2,94.0 41.4,93.4 42.8,92.6 44.3,91.6 45.9,90.5 47.7,89.2 49.5,87.8 51.5,86.2 53.5,84.6 55.5,82.8 57.5,81.0 59.6,79.2 61.6,77.3 63.6,75.4 65.5,73.6 67.4,71.7 69.3,69.9 71.1,68.1 72.8,66.4 74.5,64.7 76.1,63.0 77.7,61.3 79.3,59.7 80.8,58.1 82.3,56.6 83.8,55.0 85.3,53.4 86.8,51.8 88.3,50.2 89.8,48.6 91.3,46.9 92.7,45.2 94.1,43.5 95.4,41.8 96.6,40.1 97.8,38.4 98.8,36.7 99.6,35.1 100.4,33.5 100.9,32.0 101.2,30.6 101.3,29.3 101.2,28.1 100.9,27.1 100.4,26.3 99.6,25.6 98.7,25.1 97.5,24.9 96.2,24.8 94.7,24.9 93.0,25.3 91.3,25.8 89.5,26.5 87.6,27.4 85.7,28.4 83.7,29.6 81.8,30.9 79.9,32.3 78.1,33.8 76.4,35.4 74.7,37.0 73.1,38.7 71.6,40.3 70.2,42.0 69.0,43.6 67.8,45.3 66.7,46.9 65.7,48.5 64.7,50.1 63.9,51.6 63.1,53.2 62.4,54.7 61.7,56.3 61.0,57.9 60.4,59.5 59.8,61.1 59.3,62.7 58.7,64.5 58.1,66.2 57.5,68.0 56.9,69.8 56.2,71.7 55.6,73.6 54.9,75.5 54.1,77.4 53.3,79.3 52.5,81.1 51.6,83.0 50.7,84.7 49.7,86.3 48.6,87.9 47.5,89.3 46.4,90.5 45.3,91.6 44.1,92.5 42.9,93.3 41.7,93.8 40.5,94.1 39.3,94.2 38.2,94.2 37.0,93.9 36.0,93.5 35.0,92.9 34.1,92.1 33.3,91.3 32.5,90.3 31.8,89.2 31.2,88.0 30.6,86.8 30.2,85.5 29.8,84.2 29.4,82.8 29.1,81.5 28.8,80.1 28.6,78.8 28.4,77.4 28.2,76.1 28.0,74.8 27.8,73.4 27.7,72.0 27.6,70.7 27.5,69.3 27.5,67.8 27.5,66.3 27.6,64.8 27.8,63.1 28.1,61.5 28.5,59.7 29.1,57.9 29.9,56.0 30.8,54.1 31.9,52.1 33.2,50.1 34.7,48.1 36.3,46.1 38.2,44.0 40.2,42.1 42.4,40.2 44.6,38.4 47.0,36.6 49.5,35.0 52.0,33.6 54.5,32.3 57.0,31.2 59.4,30.2 61.8,29.4 64.1,28.8 66.3,28.4 68.3,28.2 70.2,28.1 71.9,28.2 73.5,28.5 74.9,28.9 76.1,29.4 77.2,30.0 78.1,30.8 78.9,31.5 79.6,32.4 80.2,33.2 80.7,34.1 81.1,35.1 81.4,36.0 81.8,37.0 82.1,37.9 82.3,38.9 82.6,39.9 82.9,40.9 83.1,41.9 83.4,43.0 83.7,44.1 83.9,45.2 84.2,46.5 84.5,47.8 84.8,49.2 85.0,50.6 85.3,52.2 85.5,53.9 85.8,55.6 86.0,57.4 86.2,59.3 86.4,61.3 86.6,63.4 86.7,65.4 86.8,67.5 86.9,69.6 86.9,71.6 86.9,73.7 86.9,75.6 86.9,77.5 86.8,79.2 86.7,80.8 86.5,82.3 86.3,83.7 86.0,84.9 85.7,85.9 85.3,86.7 84.9,87.4 84.4,88.0 83.9,88.4 83.3,88.6 82.7,88.7 82.1,88.7 81.4,88.6 80.7,88.4 79.9,88.1 79.2,87.8 78.4,87.4 77.6,87.0 76.7,86.6 75.9,86.1 75.0,85.7 74.0,85.2 73.0,84.7 72.0,84.2 70.9,83.6 69.7,83.0 68.4,82.4 67.1,81.7 65.6,81.0 64.0,80.1 62.3,79.2 60.4,78.2 58.4,77.0 56.3,75.7 54.1,74.4 51.8,72.9 49.4,71.3 47.0,69.5 44.5,67.7 42.0,65.8 39.5,63.8 37.1,61.7 34.7,59.7 32.5,57.5 30.4,55.4 28.5,53.4 26.7,51.3 25.2,49.4 23.8,47.5 22.8,45.7 21.9,44.1 21.3,42.5 20.9,41.1 20.8,39.9 20.9,38.8 21.1,37.8 21.5,36.9 22.1,36.2 22.8,35.6 23.7,35.1 24.6,34.7 25.5,34.4 26.5,34.1 27.6,33.9 28.6,33.8 29.6,33.6 30.7,33.5 31.7,33.5 32.7,33.4 33.7,33.4 34.7,33.3 35.6,33.3 36.6,33.4 37.6,33.5 38.5,33.6 39.5,33.8 40.5,34.1 41.6,34.4 42.6,34.9 43.7,35.5 44.8,36.2 45.9,37.1 47.1,38.1 48.2,39.3 49.4,40.6 50.5,42.0 51.6,43.6 52.8,45.3 53.8,47.1 54.9,49.0 55.9,51.0 56.9,53.0 57.8,55.1 58.6,57.2 59.4,59.3 60.2,61.4 60.9,63.4 61.6,65.4 62.2,67.3 62.8,69.1 63.4,70.7 64.0,72.3 64.5,73.8 65.0,75.2 65.5,76.4 66.1,77.5 66.6,78.6 67.1,79.5 67.7,80.4 68.3,81.2 68.9,81.9 69.6,82.6 70.4,83.3 71.2,83.9 72.0,84.5 72.9,85.1 74.0,85.7 75.0,86.3 76.2,86.8 77.5,87.4 78.8,87.8 80.3,88.3 81.8,88.7 83.4,89.0 85.0,89.3 86.7,89.4 88.4,89.4 90.2,89.3 91.9,89.1 93.5,88.7" class="shadow"/>
    <polyline points="93.5,88.7 95.2,88.1 96.7,87.4 98.1,86.5 99.3,85.4 100.4,84.2 101.3,82.8 101.9,81.2 102.4,79.5 102.6,77.8 102.5,75.9 102.3,73.9 101.7,71.9 100.9,69.8 99.9,67.7 98.7,65.7 97.3,63.6 95.8,61.6 94.0,59.7 92.2,57.8 90.3,56.0 88.2,54.3 86.2,52.6 84.1,51.1 82.0,49.6 79.9,48.3 77.9,46.9 75.8,45.7 73.8,44.5 71.8,43.3 69.9,42.2 68.0,41.1 66.1,40.1 64.2,39.0 62.3,38.0 60.4,36.9 58.6,35.9 56.7,34.8 54.8,33.8 52.9,32.8 51.0,31.9 49.1,31.0 47.2,30.2 45.4,29.4 43.6,28.8 41.8,28.2 40.1,27.9 38.5,27.6 37.0,27.5 35.6,27.6 34.3,27.9 33.2,28.3 32.3,29.0 31.5,29.8 30.8,30.8 30.4,32.0 30.1,33.4 30.0,34.9 30.0,36.5 30.2,38.3 30.5,40.1 30.9,42.0 31.4,44.0 31.9,46.0 32.6,48.0 33.3,50.0 34.0,52.0 34.7,53.9 35.4,55.8 36.1,57.6 36.7,59.4 37.3,61.1 37.9,62.8 38.3,64.4 38.8,65.9 39.1,67.5 39.4,68.9 39.6,70.4 39.7,71.8 39.7,73.2 39.7,74.6 39.5,76.0 39.4,77.4 39.1,78.8 38.8,80.2 38.5,81.7 38.2,83.1 37.8,84.5 37.4,85.9 37.1,87.2 36.8,88.5 36.5,89.7 36.3,90.8 36.2,91.8 36.2,92.7 36.3,93.4 36.6,94.0 37.0,94.4 37.5,94.6 38.3,94.6 39.1,94.4 40.2,94.0 41.4,93.4 42.8,92.6 44.3,91.6 45.9,90.5 47.7,89.2 49.5,87.8 51.5,86.2 53.5,84.6 55.5,82.8 57.5,81.0 59.6,79.2 61.6,77.3 63.6,75.4 65.5,73.6 67.4,71.7 69.3,69.9 71.1,68.1 72.8,66.4 74.5,64.7 76.1,63.0 77.7,61.3 79.3,59.7 80.8,58.1 82.3,56.6 83.8,55.0 85.3,53.4 86.8,51.8 88.3,50.2 89.8,48.6 91.3,46.9 92.7,45.2 94.1,43.5 95.4,41.8 96.6,40.1 97.8,38.4 98.8,36.7 99.6,35.1 100.4,33.5 100.9,32.0 101.2,30.6 101.3,29.3 101.2,28.1 100.9,27.1 100.4,26.3 99.6,25.6 98.7,25.1 97.5,24.9 96.2,24.8 94.7,24.9 93.0,25.3 91.3,25.8 89.5,26.5 87.6,27.4 85.7,28.4 83.7,29.6 81.8,30.9 79.9,32.3 78.1,33.8 76.4,35.4 74.7,37.0 73.1,38.7 71.6,40.3 70.2,42.0 69.0,43.6 67.8,45.3 66.7,46.9 65.7,48.5 64.7,50.1 63.9,51.6 63.1,53.2 62.4,54.7 61.7,56.3 61.0,57.9 60.4,59.5 59.8,61.1 59.3,62.7 58.7,64.5 58.1,66.2 57.5,68.0 56.9,69.8 56.2,71.7 55.6,73.6 54.9,75.5 54.1,77.4 53.3,79.3 52.5,81.1 51.6,83.0 50.7,84.7 49.7,86.3 48.6,87.9 47.5,89.3 46.4,90.5 45.3,91.6 44.1,92.5 42.9,93.3 41.7,93.8 40.5,94.1 39.3,94.2 38.2,94.2 37.0,93.9 36.0,93.5 35.0,92.9 34.1,92.1 33.3,91.3 32.5,90.3 31.8,89.2 31.2,88.0 30.6,86.8 30.2,85.5 29.8,84.2 29.4,82.8 29.1,81.5 28.8,80.1 28.6,78.8 28.4,77.4 28.2,76.1 28.0,74.8 27.8,73.4 27.7,72.0 27.6,70.7 27.5,69.3 27.5,67.8 27.5,66.3 27.6,64.8 27.8,63.1 28.1,61.5 28.5,59.7 29.1,57.9 29.9,56.0 30.8,54.1 31.9,52.1 33.2,50.1 34.7,48.1 36.3,46.1 38.2,44.0 40.2,42.1 42.4,40.2 44.6,38.4 47.0,36.6 49.5,35.0 52.0,33.6 54.5,32.3 57.0,31.2 59.4,30.2 61.8,29.4 64.1,28.8 66.3,28.4 68.3,28.2 70.2,28.1 71.9,28.2 73.5,28.5 74.9,28.9 76.1,29.4 77.2,30.0 78.1,30.8 78.9,31.5 79.6,32.4 80.2,33.2 80.7,34.1 81.1,35.1 81.4,36.0 81.8,37.0 82.1,37.9 82.3,38.9 82.6,39.9 82.9,40.9 83.1,41.9 83.4,43.0 83.7,44.1 83.9,45.2 84.2,46.5 84.5,47.8 84.8,49.2 85.0,50.6 85.3,52.2 85.5,53.9 85.8,55.6 86.0,57.4 86.2,59.3 86.4,61.3 86.6,63.4 86.7,65.4 86.8,67.5 86.9,69.6 86.9,71.6 86.9,73.7 86.9,75.6 86.9,77.5 86.8,79.2 86.7,80.8 86.5,82.3 86.3,83.7 86.0,84.9 85.7,85.9 85.3,86.7 84.9,87.4 84.4,88.0 83.9,88.4 83.3,88.6 82.7,88.7 82.1,88.7 81.4,88.6 80.7,88.4 79.9,88.1 79.2,87.8 78.4,87.4 77.6,87.0 76.7,86.6 75.9,86.1 75.0,85.7 74.0,85.2 73.0,84.7 72.0,84.2 70.9,83.6 69.7,83.0 68.4,82.4 67.1,81.7 65.6,81.0 64.0,80.1 62.3,79.2 60.4,78.2 58.4,77.0 56.3,75.7 54.1,74.4 51.8,72.9 49.4,71.3 47.0,69.5 44.5,67.7 42.0,65.8 39.5,63.8 37.1,61.7 34.7,59.7 32.5,57.5 30.4,55.4 28.5,53.4 26.7,51.3 25.2,49.4 23.8,47.5 22.8,45.7 21.9,44.1 21.3,42.5 20.9,41.1 20.8,39.9 20.9,38.8 21.1,37.8 21.5,36.9 22.1,36.2 22.8,35.6 23.7,35.1 24.6,34.7 25.5,34.4 26.5,34.1 27.6,33.9 28.6,33.8 29.6,33.6 30.7,33.5 31.7,33.5 32.7,33.4 33.7,33.4 34.7,33.3 35.6,33.3 36.6,33.4 37.6,33.5 38.5,33.6 39.5,33.8 40.5,34.1 41.6,34.4 42.6,34.9 43.7,35.5 44.8,36.2 45.9,37.1 47.1,38.1 48.2,39.3 49.4,40.6 50.5,42.0 51.6,43.6 52.8,45.3 53.8,47.1 54.9,49.0 55.9,51.0 56.9,53.0 57.8,55.1 58.6,57.2 59.4,59.3 60.2,61.4 60.9,63.4 61.6,65.4 62.2,67.3 62.8,69.1 63.4,70.7 64.0,72.3 64.5,73.8 65.0,75.2 65.5,76.4 66.1,77.5 66.6,78.6 67.1,79.5 67.7,80.4 68.3,81.2 68.9,81.9 69.6,82.6 70.4,83.3 71.2,83.9 72.0,84.5 72.9,85.1 74.0,85.7 75.0,86.3 76.2,86.8 77.5,87.4 78.8,87.8 80.3,88.3 81.8,88.7 83.4,89.0 85.0,89.3 86.7,89.4 88.4,89.4 90.2,89.3 91.9,89.1 93.5,88.7" class="rope"/>
    <rect x="69.5" y="44.0" width="20" height="6" rx="3" transform="rotate(7.5 79.5 47.0)" fill="#f8f7f2"/><rect x="15.7" y="70.0" width="20" height="6" rx="3" transform="rotate(26.3 25.7 73.0)" fill="#f8f7f2"/><rect x="79.1" y="44.0" width="20" height="6" rx="3" transform="rotate(45.0 89.1 47.0)" fill="#f8f7f2"/><rect x="43.2" y="70.0" width="20" height="6" rx="3" transform="rotate(63.8 53.2 73.0)" fill="#f8f7f2"/><rect x="30.5" y="44.0" width="20" height="6" rx="3" transform="rotate(82.5 40.5 47.0)" fill="#f8f7f2"/><rect x="30.2" y="33.6" width="20" height="6" rx="3" transform="rotate(61.3 40.2 36.6)" fill="#f8f7f2"/><rect x="43.5" y="80.4" width="20" height="6" rx="3" transform="rotate(80.0 53.5 83.4)" fill="#f8f7f2"/><rect x="78.9" y="33.6" width="20" height="6" rx="3" transform="rotate(98.8 88.9 36.6)" fill="#f8f7f2"/>
    <polyline points="93.5,88.7 95.2,88.1 96.7,87.4 98.1,86.5 99.3,85.4 100.4,84.2 101.3,82.8 101.9,81.2 102.4,79.5 102.6,77.8 102.5,75.9 102.3,73.9 101.7,71.9 100.9,69.8 99.9,67.7 98.7,65.7 97.3,63.6 95.8,61.6 94.0,59.7 92.2,57.8 90.3,56.0 88.2,54.3 86.2,52.6 84.1,51.1 82.0,49.6 79.9,48.3 77.9,46.9 75.8,45.7 73.8,44.5 71.8,43.3 69.9,42.2 68.0,41.1 66.1,40.1 64.2,39.0 62.3,38.0 60.4,36.9 58.6,35.9 56.7,34.8 54.8,33.8 52.9,32.8 51.0,31.9 49.1,31.0 47.2,30.2 45.4,29.4 43.6,28.8 41.8,28.2 40.1,27.9 38.5,27.6 37.0,27.5 35.6,27.6 34.3,27.9 33.2,28.3 32.3,29.0 31.5,29.8 30.8,30.8 30.4,32.0 30.1,33.4 30.0,34.9 30.0,36.5 30.2,38.3 30.5,40.1 30.9,42.0 31.4,44.0 31.9,46.0 32.6,48.0 33.3,50.0 34.0,52.0 34.7,53.9 35.4,55.8 36.1,57.6 36.7,59.4 37.3,61.1 37.9,62.8 38.3,64.4 38.8,65.9 39.1,67.5 39.4,68.9 39.6,70.4 39.7,71.8 39.7,73.2 39.7,74.6 39.5,76.0 39.4,77.4 39.1,78.8 38.8,80.2 38.5,81.7 38.2,83.1 37.8,84.5 37.4,85.9 37.1,87.2 36.8,88.5 36.5,89.7 36.3,90.8 36.2,91.8 36.2,92.7 36.3,93.4 36.6,94.0 37.0,94.4 37.5,94.6 38.3,94.6 39.1,94.4 40.2,94.0 41.4,93.4 42.8,92.6 44.3,91.6 45.9,90.5 47.7,89.2 49.5,87.8 51.5,86.2 53.5,84.6 55.5,82.8 57.5,81.0 59.6,79.2 61.6,77.3 63.6,75.4 65.5,73.6 67.4,71.7 69.3,69.9 71.1,68.1 72.8,66.4 74.5,64.7 76.1,63.0 77.7,61.3 79.3,59.7 80.8,58.1 82.3,56.6 83.8,55.0 85.3,53.4 86.8,51.8 88.3,50.2 89.8,48.6 91.3,46.9 92.7,45.2 94.1,43.5 95.4,41.8 96.6,40.1 97.8,38.4 98.8,36.7 99.6,35.1 100.4,33.5 100.9,32.0 101.2,30.6 101.3,29.3 101.2,28.1 100.9,27.1 100.4,26.3 99.6,25.6 98.7,25.1 97.5,24.9 96.2,24.8 94.7,24.9 93.0,25.3 91.3,25.8 89.5,26.5 87.6,27.4 85.7,28.4 83.7,29.6 81.8,30.9 79.9,32.3 78.1,33.8 76.4,35.4 74.7,37.0 73.1,38.7 71.6,40.3 70.2,42.0 69.0,43.6 67.8,45.3 66.7,46.9 65.7,48.5 64.7,50.1 63.9,51.6 63.1,53.2 62.4,54.7 61.7,56.3 61.0,57.9 60.4,59.5 59.8,61.1 59.3,62.7 58.7,64.5 58.1,66.2 57.5,68.0 56.9,69.8 56.2,71.7 55.6,73.6 54.9,75.5 54.1,77.4 53.3,79.3 52.5,81.1 51.6,83.0 50.7,84.7 49.7,86.3 48.6,87.9 47.5,89.3 46.4,90.5 45.3,91.6 44.1,92.5 42.9,93.3 41.7,93.8 40.5,94.1 39.3,94.2 38.2,94.2 37.0,93.9 36.0,93.5 35.0,92.9 34.1,92.1 33.3,91.3 32.5,90.3 31.8,89.2 31.2,88.0 30.6,86.8 30.2,85.5 29.8,84.2 29.4,82.8 29.1,81.5 28.8,80.1 28.6,78.8 28.4,77.4 28.2,76.1 28.0,74.8 27.8,73.4 27.7,72.0 27.6,70.7 27.5,69.3 27.5,67.8 27.5,66.3 27.6,64.8 27.8,63.1 28.1,61.5 28.5,59.7 29.1,57.9 29.9,56.0 30.8,54.1 31.9,52.1 33.2,50.1 34.7,48.1 36.3,46.1 38.2,44.0 40.2,42.1 42.4,40.2 44.6,38.4 47.0,36.6 49.5,35.0 52.0,33.6 54.5,32.3 57.0,31.2 59.4,30.2 61.8,29.4 64.1,28.8 66.3,28.4 68.3,28.2 70.2,28.1 71.9,28.2 73.5,28.5 74.9,28.9 76.1,29.4 77.2,30.0 78.1,30.8 78.9,31.5 79.6,32.4 80.2,33.2 80.7,34.1 81.1,35.1 81.4,36.0 81.8,37.0 82.1,37.9 82.3,38.9 82.6,39.9 82.9,40.9 83.1,41.9 83.4,43.0 83.7,44.1 83.9,45.2 84.2,46.5 84.5,47.8 84.8,49.2 85.0,50.6 85.3,52.2 85.5,53.9 85.8,55.6 86.0,57.4 86.2,59.3 86.4,61.3 86.6,63.4 86.7,65.4 86.8,67.5 86.9,69.6 86.9,71.6 86.9,73.7 86.9,75.6 86.9,77.5 86.8,79.2 86.7,80.8 86.5,82.3 86.3,83.7 86.0,84.9 85.7,85.9 85.3,86.7 84.9,87.4 84.4,88.0 83.9,88.4 83.3,88.6 82.7,88.7 82.1,88.7 81.4,88.6 80.7,88.4 79.9,88.1 79.2,87.8 78.4,87.4 77.6,87.0 76.7,86.6 75.9,86.1 75.0,85.7 74.0,85.2 73.0,84.7 72.0,84.2 70.9,83.6 69.7,83.0 68.4,82.4 67.1,81.7 65.6,81.0 64.0,80.1 62.3,79.2 60.4,78.2 58.4,77.0 56.3,75.7 54.1,74.4 51.8,72.9 49.4,71.3 47.0,69.5 44.5,67.7 42.0,65.8 39.5,63.8 37.1,61.7 34.7,59.7 32.5,57.5 30.4,55.4 28.5,53.4 26.7,51.3 25.2,49.4 23.8,47.5 22.8,45.7 21.9,44.1 21.3,42.5 20.9,41.1 20.8,39.9 20.9,38.8 21.1,37.8 21.5,36.9 22.1,36.2 22.8,35.6 23.7,35.1 24.6,34.7 25.5,34.4 26.5,34.1 27.6,33.9 28.6,33.8 29.6,33.6 30.7,33.5 31.7,33.5 32.7,33.4 33.7,33.4 34.7,33.3 35.6,33.3 36.6,33.4 37.6,33.5 38.5,33.6 39.5,33.8 40.5,34.1 41.6,34.4 42.6,34.9 43.7,35.5 44.8,36.2 45.9,37.1 47.1,38.1 48.2,39.3 49.4,40.6 50.5,42.0 51.6,43.6 52.8,45.3 53.8,47.1 54.9,49.0 55.9,51.0 56.9,53.0 57.8,55.1 58.6,57.2 59.4,59.3 60.2,61.4 60.9,63.4 61.6,65.4 62.2,67.3 62.8,69.1 63.4,70.7 64.0,72.3 64.5,73.8 65.0,75.2 65.5,76.4 66.1,77.5 66.6,78.6 67.1,79.5 67.7,80.4 68.3,81.2 68.9,81.9 69.6,82.6 70.4,83.3 71.2,83.9 72.0,84.5 72.9,85.1 74.0,85.7 75.0,86.3 76.2,86.8 77.5,87.4 78.8,87.8 80.3,88.3 81.8,88.7 83.4,89.0 85.0,89.3 86.7,89.4 88.4,89.4 90.2,89.3 91.9,89.1 93.5,88.7" class="highlight"/>
  
</svg>