<svg xmlns="http://www.w3.org/2000/svg" viewBox="0 0 120 120" role="img">
  <rect width="120" height="120" rx="10" fill="#f8f7f2"/>
  <style>
    .shadow{fill:none;stroke:#4a4f56;stroke-width:13;stroke-linecap:round;stroke-linejoin:round;opacity:.22}
    .rope{fill:none;stroke:#1778bd;stroke-width:8;stroke-linecap:round;stroke-linejoin:round}
    .highlight{fill:none;stroke:#4fb1f0;stroke-width:2.2;stroke-linecap:round;stroke-linejoin:round;opacity:.85}
  </style>
  
    <polyline points="96.4,87.6 97.7,86.0 98.7,84.2 99.4,82.2 99.8,80.1 100.0,77.8 99.7,75.4 99.2,73.0 98.3,70.5 97.2,68.1 95.8,65.6 94.2,63.3 92.3,61.0 90.3,58.8 88.2,56.6 85.9,54.6 83.6,52.7 81.2,50.9 78.8,49.2 76.4,47.5 73.9,45.9 71.4,44.4 69.0,42.9 66.5,41.5 63.9,40.0 61.4,38.6 58.8,37.2 56.2,35.9 53.5,34.6 50.9,33.3 48.2,32.2 45.5,31.1 42.9,30.2 40.4,29.4 37.9,28.8 35.6,28.4 33.5,28.2 31.6,28.2 29.9,28.5 28.4,29.1 27.3,29.9 26.4,31.0 25.8,32.4 25.6,34.0 25.6,35.8 25.8,37.8 26.3,39.9 27.0,42.2 27.9,44.6 28.9,47.0 30.1,49.5 31.3,51.9 32.5,54.4 33.8,56.7 35.0,59.0 36.2,61.2 37.4,63.4 38.4,65.4 39.4,67.3 40.3,69.1 41.1,70.8 41.7,72.5 42.3,74.1 42.8,75.6 43.2,77.1 43.5,78.5 43.8,80.0 44.0,81.4 44.2,82.8 44.4,84.1 44.6,85.4 44.9,86.7 45.2,87.8 45.6,88.9 46.1,89.8 46.8,90.6 47.6,91.2 48.6,91.6 49.9,91.8 51.3,91.8 52.9,91.5 54.8,90.9 56.9,90.1 59.1,89.0 61.5,87.6 64.1,86.0 66.7,84.2 69.4,82.2 72.1,80.1 74.7,77.8 77.3,75.4 79.8,73.0 82.1,70.5 84.2,68.1 86.2,65.6 87.9,63.3 89.4,61.0 90.7,58.8 91.8,56.6 92.6,54.6 93.3,52.7 93.8,50.9 94.1,49.2 94.4,47.5 94.5,45.9 94.4,44.4 94.3,42.9 94.1,41.5 93.8,40.0 93.4,38.6 92.9,37.2 92.2,35.9 91.4,34.6 90.4,33.3 89.2,32.2 87.9,31.1 86.4,30.2 84.7,29.4 82.8,28.8 80.7,28.4 78.5,28.2 76.1,28.2 73.7,28.5 71.2,29.1 68.6,29.9 66.1,31.0 63.7,32.4 61.3,34.0 59.0,35.8 56.9,37.8 55.0,39.9 53.3,42.2 51.7,44.6 50.4,47.0 49.3,49.5 48.3,51.9 47.5,54.4 46.9,56.7 46.4,59.0 46.0,61.2 45.7,63.4 45.4,65.4 45.2,67.3 45.0,69.1 44.7,70.8 44.5,72.5 44.2,74.1 43.8,75.6 43.3,77.1 42.8,78.5 42.2,80.0 41.4,81.4 40.6,82.8 39.6,84.1 38.5,85.4 37.4,86.7 36.2,87.8 34.8,88.9 33.5,89.8 32.1,90.6 30.8,91.2 29.5,91.6 28.2,91.8 27.1,91.8 26.1,91.5 25.4,90.9 24.8,90.1 24.5,89.0 24.5,87.6 24.8,86.0 25.4,84.2 26.4,82.2 27.6,80.1 29.1,77.8 31.0,75.4 33.0,73.0 35.3,70.5 37.8,68.1 40.4,65.6 43.1,63.3 45.8,61.0 48.6,58.8 51.5,56.6 54.2,54.6 57.0,52.7 59.7,50.9 62.3,49.2 64.9,47.5 67.4,45.9 69.8,44.4 72.2,42.9 74.6,41.5 76.9,40.0 79.2,38.6 81.5,37.2 83.7,35.9 85.8,34.6 87.9,33.3 89.9,32.2 91.7,31.1 93.4,30.2 94.9,29.4 96.1,28.8 97.2,28.4 97.9,28.2 98.4,28.2 98.6,28.5 98.5,29.1 98.1,29.9 97.4,31.0 96.4,32.4 95.2,34.0 93.9,35.8 92.3,37.8 90.6,39.9 88.8,42.2 87.0,44.6 85.1,47.0 83.3,49.5 81.5,51.9 79.7,54.4 78.1,56.7 76.5,59.0 75.1,61.2 73.8,63.4 72.5,65.4 71.4,67.3 70.4,69.1 69.5,70.8 68.7,72.5 67.9,74.1 67.2,75.6 66.5,77.1 65.9,78.5 65.2,80.0 64.5,81.4 63.8,82.8 63.0,84.1 62.1,85.4 61.2,86.7 60.1,87.8 58.9,88.9 57.5,89.8 56.0,90.6 54.3,91.2 52.5,91.6 50.5,91.8 48.4,91.8 46.1,91.5 43.8,90.9 41.4,90.1 39.0,89.0 36.5,87.6 34.2,86.0 31.9,84.2 29.8,82.2 27.9,80.1 26.2,77.8 24.8,75.4 23.6,73.0 22.7,70.5 22.0,68.1 21.7,65.6 21.6,63.3 21.9,61.0 22.3,58.8 23.0,56.6 23.8,54.6 24.8,52.7 26.0,50.9 27.3,49.2 28.7,47.5 30.1,45.9 31.6,44.4 33.2,42.9 34.9,41.5 36.7,40.0 38.5,38.6 40.4,37.2 42.5,35.9 44.6,34.6 46.9,33.3 49.2,32.2 51.7,31.1 54.2,30.2 56.9,29.4 59.6,28.8 62.3,28.4 65.0,28.2 67.6,28.2 70.2,28.5 72.6,29.1 74.9,29.9 77.0,31.0 78.9,32.4 80.5,34.0 81.9,35.8 83.0,37.8 83.9,39.9 84.5,42.2 84.9,44.6 85.1,47.0 85.1,49.5 85.0,51.9 84.7,54.4 84.3,56.7 83.8,59.0 83.4,61.2 82.8,63.4 82.3,65.4 81.9,67.3 81.5,69.1 81.1,70.8 80.9,72.5 80.7,74.1 80.7,75.6 80.7,77.1 80.8,78.5 81.1,80.0 81.4,81.4 81.8,82.8 82.3,84.1 82.8,85.4 83.3,86.7 83.9,87.8 84.5,88.9 85.0,89.8 85.4,90.6 85.7,91.2 85.9,91.6 85.9,91.8 85.7,91.8 85.3,91.5 84.6,90.9 83.7,90.1 82.5,89.0 81.0,87.6 79.2,86.0 77.2,84.2 75.0,82.2 72.6,80.1 70.0,77.8 67.3,75.4 64.5,73.0 61.6,70.5 58.8,68.1 56.0,65.6 53.2,63.3 50.6,61.0 48.1,58.8 45.7,56.6 43.4,54.6 41.3,52.7 39.3,50.9 37.5,49.2 35.8,47.5 34.1,45.9 32.6,44.4 31.2,42.9 29.9,41.5 28.6,40.0 27.5,38.6 26.4,37.2 25.5,35.9 24.6,34.6 24.0,33.3 23.5,32.2 23.2,31.1 23.1,30.2 23.2,29.4 23.6,28.8 24.2,28.4 25.2,28.2 26.3,28.2 27.7,28.5 29.3,29.1 31.1,29.9 33.1,31.0 35.2,32.4 37.4,34.0 39.7,35.8 41.9,37.8 44.2,39.9 46.3,42.2 48.4,44.6 50.4,47.0 52.2,49.5 53.9,51.9 55.5,54.4 56.9,56.7 58.2,59.0 59.3,61.2 60.4,63.4 61.3,65.4 62.1,67.3 62.9,69.1 63.6,70.8 64.2,72.5 64.9,74.1 65.6,75.6 66.3,77.1 67.0,78.5 67.8,80.0 68.7,81.4 69.7,82.8 70.8,84.1 71.9,85.4 73.2,86.7 74.7,87.8 76.2,88.9 77.9,89.8 79.7,90.6 81.6,91.2 83.5,91.6 85.5,91.8 87.5,91.8 89.5,91.5 91.4,90.9 93.3,90.1 94.9,89.0 96.4,87.6" class="shadow"/>
    <polyline points="96.4,87.6 97.7,86.0 98.7,84.2 99.4,82.2 99.8,80.1 100.0,77.8 99.7,75.4 99.2,73.0 98.3,70.5 97.2,68.1 95.8,65.6 94.2,63.3 92.3,61.0 90.3,58.8 88.2,56.6 85.9,54.6 83.6,52.7 81.2,50.9 78.8,49.2 76.4,47.5 73.9,45.9 71.4,44.4 69.0,42.9 66.5,41.5 63.9,40.0 61.4,38.6 58.8,37.2 56.2,35.9 53.5,34.6 50.9,33.3 48.2,32.2 45.5,31.1 42.9,30.2 40.4,29.4 37.9,28.8 35.6,28.4 33.5,28.2 31.6,28.2 29.9,28.5 28.4,29.1 27.3,29.9 26.4,31.0 25.8,32.4 25.6,34.0 25.6,35.8 25.8,37.8 26.3,39.9 27.0,42.2 27.9,44.6 28.9,47.0 30.1,49.5 31.3,51.9 32.5,54.4 33.8,56.7 35.0,59.0 36.2,61.2 37.4,63.4 38.4,65.4 39.4,67.3 40.3,69.1 41.1,70.8 41.7,72.5 42.3,74.1 42.8,75.6 43.2,77.1 43.5,78.5 43.8,80.0 44.0,81.4 44.2,82.8 44.4,84.1 44.6,85.4 44.9,86.7 45.2,87.8 45.6,88.9 46.1,89.8 46.8,90.6 47.6,91.2 48.6,91.6 49.9,91.8 51.3,91.8 52.9,91.5 54.8,90.9 56.9,90.1 59.1,89.0 61.5,87.6 64.1,86.0 66.7,84.2 69.4,82.2 72.1,80.1 74.7,77.8 77.3,75.4 79.8,73.0 82.1,70.5 84.2,68.1 86.2,65.6 87.9,63.3 89.4,61.0 90.7,58.8 91.8,56.6 92.6,54.6 93.3,52.7 93.8,50.9 94.1,49.2 94.4,47.5 94.5,45.9 94.4,44.4 94.3,42.9 94.1,41.5 93.8,40.0 93.4,38.6 92.9,37.2 92.2,35.9 91.4,34.6 90.4,33.3 89.2,32.2 87.9,31.1 86.4,30.2 84.7,29.4 82.8,28.8 80.7,28.4 78.5,28.2 76.1,28.2 73.7,28.5 71.2,29.1 68.6,29.9 66.1,31.0 63.7,32.4 61.3,34.0 59.0,35.8 56.9,37.8 55.0,39.9 53.3,42.2 51.7,44.6 50.4,47.0 49.3,49.5 48.3,51.9 47.5,54.4 46.9,56.7 46.4,59.0 46.0,61.2 45.7,63.4 45.4,65.4 45.2,67.3 45.0,69.1 44.7,70.8 44.5,72.5 44.2,74.1 43.8,75.6 43.3,77.1 42.8,78.5 42.2,80.0 41.4,81.4 40.6,82.8 39.6,84.1 38.5,85.4 37.4,86.7 36.2,87.8 34.8,88.9 33.5,89.8 32.1,90.6 30.8,91.2 29.5,91.6 28.2,91.8 27.1,91.8 26.1,91.5 25.4,90.9 24.8,90.1 24.5,89.0 24.5,87.6 24.8,86.0 25.4,84.2 26.4,82.2 27.6,80.1 29.1,77.8 31.0,75.4 33.0,73.0 35.3,70.5 37.8,68.1 40.4,65.6 43.1,63.3 45.8,61.0 48.6,58.8 51.5,56.6 54.2,54.6 57.0,52.7 59.7,50.9 62.3,49.2 64.9,47.5 67.4,45.9 69.8,44.4 72.2,42.9 74.6,41.5 76.9,40.0 79.2,38.6 81.5,37.2 83.7,35.9 85.8,34.6 87.9,33.3 89.9,32.2 91.7,31.1 93.4,30.2 94.9,29.4 96.1,28.8 97.2,28.4 97.9,28.2 98.4,28.2 98.6,28.5 98.5,29.1 98.1,29.9 97.4,31.0 96.4,32.4 95.2,34.0 93.9,35.8 92.3,37.8 90.6,39.9 88.8,42.2 87.0,44.6 85.1,47.0 83.3,49.5 81.5,51.9 79.7,54.4 78.1,56.7 76.5,59.0 75.1,61.2 73.8,63.4 72.5,65.4 71.4,67.3 70.4,69.1 69.5,70.8 68.7,72.5 67.9,74.1 67.2,75.6 66.5,77.1 65.9,78.5 65.2,80.0 64.5,81.4 63.8,82.8 63.0,84.1 62.1,85.4 61.2,86.7 60.1,87.8 58.9,88.9 57.5,89.8 56.0,90.6 54.3,91.2 52.5,91.6 50.5,91.8 48.4,91.8 46.1,91.5 43.8,90.9 41.4,90.1 39.0,89.0 36.5,87.6 34.2,86.0 31.9,84.2 29.8,82.2 27.9,80.1 26.2,77.8 24.8,75.4 23.6,73.0 22.7,70.5 22.0,68.1 21.7,65.6 21.6,63.3 21.9,61.0 22.3,58.8 23.0,56.6 23.8,54.6 24.8,52.7 26.0,50.9 27.3,49.2 28.7,47.5 30.1,45.9 31.6,44.4 33.2,42.9 34.9,41.5 36.7,40.0 38.5,38.6 40.4,37.2 42.5,35.9 44.6,34.6 46.9,33.3 49.2,32.2 51.7,31.1 54.2,30.2 56.9,29.4 59.6,28.8 62.3,28.4 65.0,28.2 67.6,28.2 70.2,28.5 72.6,29.1 74.9,29.9 77.0,31.0 78.9,32.4 80.5,34.0 81.9,35.8 83.0,37.8 83.9,39.9 84.5,42.2 84.9,44.6 85.1,47.0 85.1,49.5 85.0,51.9 84.7,54.4 84.3,56.7 83.8,59.0 83.4,61.2 82.8,63.4 82.3,65.4 81.9,67.3 81.5,69.1 81.1,70.8 80.9,72.5 80.7,74.1 80.7,75.6 80.7,77.1 80.8,78.5 81.1,80.0 81.4,81.4 81.8,82.8 82.3,84.1 82.8,85.4 83.3,86.7 83.9,87.8 84.5,88.9 85.0,89.8 85.4,90.6 85.7,91.2 85.9,91.6 85.9,91.8 85.7,91.8 85.3,91.5 84.6,90.9 83.7,90.1 82.5,89.0 81.0,87.6 79.2,86.0 77.2,84.2 75.0,82.2 72.6,80.1 70.0,77.8 67.3,75.4 64.5,73.0 61.6,70.5 58.8,68.1 56.0,65.6 53.2,63.3 50.6,61.0 48.1,58.8 45.7,56.6 43.4,54.6 41.3,52.7 39.3,50.9 37.5,49.2 35.8,47.5 34.1,45.9 32.6,44.4 31.2,42.9 29.9,41.5 28.6,40.0 27.5,38.6 26.4,37.2 25.5,35.9 24.6,34.6 24.0,33.3 23.5,32.2 23.2,31.1 23.1,30.2 23.2,29.4 23.6,28.8 24.2,28.4 25.2,28.2 26.3,28.2 27.7,28.5 29.3,29.1 31.1,29.9 33.1,31.0 35.2,32.4 37.4,34.0 39.7,35.8 41.9,37.8 44.2,39.9 46.3,42.2 48.4,44.6 50.4,47.0 52.2,49.5 53.9,51.9 55.5,54.4 56.9,56.7 58.2,59.0 59.3,61.2 60.4,63.4 61.3,65.4 62.1,67.3 62.9,69.1 63.6,70.8 64.2,72.5 64.9,74.1 65.6,75.6 66.3,77.1 67.0,78.5 67.8,80.0 68.7,81.4 69.7,82.8 70.8,84.1 71.9,85.4 73.2,86.7 74.7,87.8 76.2,88.9 77.9,89.8 79.7,90.6 81.6,91.2 83.5,91.6 85.5,91.8 87.5,91.8 89.5,91.5 91.4,90.9 93.3,90.1 94.9,89.0 96.4,87.6" class="rope"/>
    <rect x="33.4" y="61.5" width="20" height="6" rx="3" transform="rotate(80.0 43.4 64.5)" fill="#f8f7f2"/><rect x="66.6" y="73.3" width="20" height="6" rx="3" transform="rotate(98.8 76.6 76.3)" fill="#f8f7f2"/><rect x="33.4" y="29.4" width="20" height="6" rx="3" transform="rotate(117.5 43.4 32.4)" fill="#f8f7f2"/><rect x="66.6" y="79.8" width="20" height="6" rx="3" transform="rotate(136.3 76.6 82.8)" fill="#f8f7f2"/><rect x="33.4" y="52.5" width="20" height="6" rx="3" transform="rotate(155.0 43.4 55.5)" fill="#f8f7f2"/><rect x="20.5" y="76.5" width="20" height="6" rx="3" transform="rotate(133.8 30.5 79.5)" fill="#f8f7f2"/><rect x="79.5" y="29.0" width="20" height="6" rx="3" transform="rotate(152.5 89.5 32.0)" fill="#f8f7f2"/><rect x="20.5" y="77.1" width="20" height="6" rx="3" transform="rotate(171.3 30.5 80.1)" fill="#f8f7f2"/>
    <polyline points="96.4,87.6 97.7,86.0 98.7,84.2 99.4,82.2 99.8,80.1 100.0,77.8 99.7,75.4 99.2,73.0 98.3,70.5 97.2,68.1 95.8,65.6 94.2,63.3 92.3,61.0 90.3,58.8 88.2,56.6 85.9,54.6 83.6,52.7 81.2,50.9 78.8,49.2 76.4,47.5 73.9,45.9 71.4,44.4 69.0,42.9 66.5,41.5 63.9,40.0 61.4,38.6 58.8,37.2 56.2,35.9 53.5,34.6 50.9,33.3 48.2,32.2 45.5,31.1 42.9,30.2 40.4,29.4 37.9,28.8 35.6,28.4 33.5,28.2 31.6,28.2 29.9,28.5 28.4,29.1 27.3,29.9 26.4,31.0 25.8,32.4 25.6,34.0 25.6,35.8 25.8,37.8 26.3,39.9 27.0,42.2 27.9,44.6 28.9,47.0 30.1,49.5 31.3,51.9 32.5,54.4 33.8,56.7 35.0,59.0 36.2,61.2 37.4,63.4 38.4,65.4 39.4,67.3 40.3,69.1 41.1,70.8 41.7,72.5 42.3,74.1 42.8,75.6 43.2,77.1 43.5,78.5 43.8,80.0 44.0,81.4 44.2,82.8 44.4,84.1 44.6,85.4 44.9,86.7 45.2,87.8 45.6,88.9 46.1,89.8 46.8,90.6 47.6,91.2 48.6,91.6 49.9,91.8 51.3,91.8 52.9,91.5 54.8,90.9 56.9,90.1 59.1,89.0 61.5,87.6 64.1,86.0 66.7,84.2 69.4,82.2 72.1,80.1 74.7,77.8 77.3,75.4 79.8,73.0 82.1,70.5 84.2,68.1 86.2,65.6 87.9,63.3 89.4,61.0 90.7,58.8 91.8,56.6 92.6,54.6 93.3,52.7 93.8,50.9 94.1,49.2 94.4,47.5 94.5,45.9 94.4,44.4 94.3,42.9 94.1,41.5 93.8,40.0 93.4,38.6 92.9,37.2 92.2,35.9 91.4,34.6 90.4,33.3 89.2,32.2 87.9,31.1 86.4,30.2 84.7,29.4 82.8,28.8 80.7,28.4 78.5,28.2 76.1,28.2 73.7,28.5 71.2,29.1 68.6,29.9 66.1,31.0 63.7,32.4 61.3,34.0 59.0,35.8 56.9,37.8 55.0,39.9 53.3,42.2 51.7,44.6 50.4,47.0 49.3,49.5 48.3,51.9 47.5,54.4 46.9,56.7 46.4,59.0 46.0,61.2 45.7,63.4 45.4,65.4 45.2,67.3 45.0,69.1 44.7,70.8 44.5,72.5 44.2,74.1 43.8,75.6 43.3,77.1 42.8,78.5 42.2,80.0 41.4,81.4 40.6,82.8 39.6,84.1 38.5,85.4 37.4,86.7 36.2,87.8 34.8,88.9 33.5,89.8 32.1,90.6 30.8,91.2 29.5,91.6 28.2,91.8 27.1,91.8 26.1,91.5 25.4,90.9 24.8,90.1 24.5,89.0 24.5,87.6 24.8,86.0 25.4,84.2 26.4,82.2 27.6,80.1 29.1,77.8 31.0,75.4 33.0,73.0 35.3,70.5 37.8,68.1 40.4,65.6 43.1,63.3 45.8,61.0 48.6,58.8 51.5,56.6 54.2,54.6 57.0,52.7 59.7,50.9 62.3,49.2 64.9,47.5 67.4,45.9 69.8,44.4 72.2,42.9 74.6,41.5 76.9,40.0 79.2,38.6 81.5,37.2 83.7,35.9 85.8,34.6 87.9,33.3 89.9,32.2 91.7,31.1 93.4,30.2 94.9,29.4 96.1,28.8 97.2,28.4 97.9,28.2 98.4,28.2 98.6,28.5 98.5,29.1 98.1,29.9 97.4,31.0 96.4,32.4 95.2,34.0 93.9,35.8 92.3,37.8 90.6,39.9 88.8,42.2 87.0,44.6 85.1,47.0 83.3,49.5 81.5,51.9 79.7,54.4 78.1,56.7 76.5,59.0 75.1,61.2 73.8,63.4 72.5,65.4 71.4,67.3 70.4,69.1 69.5,70.8 68.7,72.5 67.9,74.1 67.2,75.6 66.5,77.1 65.9,78.5 65.2,80.0 64.5,81.4 63.8,82.8 63.0,84.1 62.1,85.4 61.2,86.7 60.1,87.8 58.9,88.9 57.5,89.8 56.0,90.6 54.3,91.2 52.5,91.6 50.5,91.8 48.4,91.8 46.1,91.5 43.8,90.9 41.4,90.1 39.0,89.0 36.5,87.6 34.2,86.0 31.9,84.2 29.8,82.2 27.9,80.1 26.2,77.8 24.8,75.4 23.6,73.0 22.7,70.5 22.0,68.1 21.7,65.6 21.6,63.3 21.9,61.0 22.3,58.8 23.0,56.6 23.8,54.6 24.8,52.7 26.0,50.9 27.3,49.2 28.7,47.5 30.1,45.9 31.6,44.4 33.2,42.9 34.9,41.5 36.7,40.0 38.5,38.6 40.4,37.2 42.5,35.9 44.6,34.6 46.9,33.3 49.2,32.2 51.7,31.1 54.2,30.2 56.9,29.4 59.6,28.8 62.3,28.4 65.0,28.2 67.6,28.2 70.2,28.5 72.6,29.1 74.9,29.9 77.0,31.0 78.9,32.4 80.5,34.0 81.9,35.8 83.0,37.8 83.9,39.9 84.5,42.2 84.9,44.6 85.1,47.0 85.1,49.5 85.0,51.9 84.7,54.4 84.3,56.7 83.8,59.0 83.4,61.2 82.8,63.4 82.3,65.4 81.9,67.3 81.5,69.1 81.1,70.8 80.9,72.5 80.7,74.1 80.7,75.6 80.7,77.1 80.8,78.5 81.1,80.0 81.4,81.4 81.8,82.8 82.3,84.1 82.8,85.4 83.3,86.7 83.9,87.8 84.5,88.9 85.0,89.8 85.4,90.6 85.7,91.2 85.9,91.6 85.9,91.8 85.7,91.8 85.3,91.5 84.6,90.9 83.7,90.1 82.5,89.0 81.0,87.6 79.2,86.0 77.2,84.2 75.0,82.2 72.6,80.1 70.0,77.8 67.3,75.4 64.5,73.0 61.6,70.5 58.8,68.1 56.0,65.6 53.2,63.3 50.6,61.0 48.1,58.8 45.7,56.6 43.4,54.6 41.3,52.7 39.3,50.9 37.5,49.2 35.8,47.5 34.1,45.9 32.6,44.4 31.2,42.9 29.9,41.5 28.6,40.0 27.5,38.6 26.4,37.2 25.5,35.9 24.6,34.6 24.0,33.3 23.5,32.2 23.2,31.1 23.1,30.2 23.2,29.4 23.6,28.8 24.2,28.4 25.2,28.2 26.3,28.2 27.7,28.5 29.3,29.1 31.1,29.9 33.1,31.0 35.2,32.4 37.4,34.0 39.7,35.8 41.9,37.8 44.2,39.9 46.3,42.2 48.4,44.6 50.4,47.0 52.2,49.5 53.9,51.9 55.5,54.4 56.9,56.7 58.2,59.0 59.3,61.2 60.4,63.4 61.3,65.4 62.1,67.3 62.9,69.1 63.6,70.8 64.2,72.5 64.9,74.1 65.6,75.6 66.3,77.1 67.0,78.5 67.8,80.0 68.7,81.4 69.7,82.8 70.8,84.1 71.9,85.4 73.2,86.7 74.7,87.8 76.2,88.9 77.9,89.8 79.7,90.6 81.6,91.2 83.5,91.6 85.5,91.8 87.5,91.8 89.5,91.5 91.4,90.9 93.3,90.1 94.9,89.0 96.4,87.6" class="highlight"/>
  
</svg>