<svg xmlns="http://www.w3.org/2000/svg" viewBox="0 0 120 120" role="img">
  <rect width="120" height="120" rx="10" fill="#f8f7f2"/>
  <style>
    .shadow{fill:none;stroke:#4a4f56;stroke-width:13;stroke-linecap:round;stroke-linejoin:round;opacity:.22}
    .rope{fill:none;stroke:#1778bd;stroke-width:8;stroke-linecap:round;stroke-linejoin:round}
    .highlight{fill:none;stroke:#4fb1f0;stroke-width:2.2;stroke-linecap:round;stroke-linejoin:round;opacity:.85}
  </style>
  
    <polyline points="94.8,82.8 95.5,80.5 95.9,78.0 96.0,75.4 95.7,72.7 95.2,70.0 94.3,67.3 93.1,64.7 91.5,62.0 89.7,59.5 87.7,57.0 85.4,54.7 82.9,52.4 80.2,50.3 77.4,48.3 74.5,46.4 71.5,44.6 68.4,42.9 65.2,41.3 62.0,39.9 58.9,38.6 55.7,37.4 52.5,36.3 49.4,35.3 46.4,34.5 43.5,33.8 40.7,33.3 38.1,33.0 35.6,32.8 33.4,32.9 31.4,33.1 29.6,33.6 28.2,34.4 27.0,35.3 26.1,36.6 25.6,38.1 25.3,39.8 25.4,41.8 25.7,44.0 26.3,46.4 27.1,49.0 28.1,51.8 29.3,54.6 30.6,57.6 32.0,60.6 33.4,63.6 34.9,66.6 36.3,69.5 37.7,72.3 39.1,74.9 40.4,77.4 41.7,79.7 42.9,81.7 44.1,83.5 45.2,85.0 46.3,86.3 47.4,87.3 48.5,88.0 49.7,88.4 50.9,88.6 52.1,88.5 53.4,88.2 54.8,87.7 56.3,87.0 57.9,86.1 59.7,85.1 61.5,83.9 63.4,82.6 65.4,81.2 67.5,79.7 69.7,78.1 71.9,76.3 74.3,74.5 76.7,72.6 79.1,70.7 81.6,68.6 84.0,66.5 86.4,64.2 88.8,61.9 91.0,59.5 93.1,57.1 95.0,54.6 96.6,52.0 98.0,49.5 99.1,46.9 99.8,44.3 100.0,41.9 99.9,39.4 99.3,37.2 98.2,35.0 96.7,33.0 94.8,31.3 92.4,29.7 89.6,28.5 86.5,27.5 83.1,26.8 79.5,26.5 75.8,26.5 72.0,26.8 68.1,27.4 64.4,28.4 60.7,29.6 57.3,31.1 54.1,32.9 51.1,34.9 48.5,37.2 46.2,39.5 44.2,42.0 42.6,44.6 41.3,47.3 40.2,50.0 39.5,52.7 39.0,55.3 38.7,58.0 38.6,60.5 38.6,63.0 38.6,65.3 38.8,67.6 39.0,69.7 39.2,71.7 39.3,73.6 39.5,75.4 39.5,77.1 39.5,78.7 39.4,80.1 39.3,81.4 39.0,82.6 38.7,83.7 38.3,84.7 37.9,85.5 37.4,86.2 37.0,86.7 36.6,87.0 36.2,87.2 35.9,87.1 35.8,86.9 35.8,86.4 36.0,85.6 36.5,84.7 37.3,83.4 38.4,81.9 39.8,80.2 41.5,78.2 43.7,76.0 46.2,73.6 49.0,71.0 52.1,68.2 55.6,65.4 59.2,62.4 63.0,59.4 66.9,56.4 70.9,53.4 74.8,50.5 78.7,47.7 82.3,45.1 85.7,42.6 88.8,40.3 91.5,38.3 93.8,36.5 95.7,35.0 97.2,33.7 98.2,32.7 98.7,32.0 98.8,31.6 98.5,31.4 97.8,31.5 96.8,31.8 95.5,32.3 93.9,33.0 92.1,33.9 90.2,34.9 88.1,36.1 86.0,37.4 83.7,38.8 81.5,40.3 79.3,41.9 77.1,43.7 74.9,45.5 72.8,47.4 70.8,49.3 68.8,51.4 66.9,53.5 65.2,55.8 63.5,58.1 61.9,60.5 60.3,62.9 58.9,65.4 57.6,68.0 56.3,70.5 55.1,73.1 53.9,75.7 52.7,78.1 51.5,80.6 50.4,82.8 49.2,85.0 47.9,87.0 46.6,88.7 45.2,90.3 43.8,91.5 42.2,92.5 40.6,93.2 38.9,93.5 37.2,93.5 35.4,93.2 33.6,92.6 31.9,91.6 30.2,90.4 28.7,88.9 27.3,87.1 26.1,85.1 25.2,82.8 24.5,80.5 24.1,78.0 24.0,75.4 24.3,72.7 24.8,70.0 25.7,67.3 26.9,64.7 28.5,62.0 30.3,59.5 32.3,57.0 34.6,54.7 37.1,52.4 39.8,50.3 42.6,48.3 45.5,46.4 48.5,44.6 51.6,42.9 54.8,41.3 58.0,39.9 61.1,38.6 64.3,37.4 67.5,36.3 70.6,35.3 73.6,34.5 76.5,33.8 79.3,33.3 81.9,33.0 84.4,32.8 86.6,32.9 88.6,33.1 90.4,33.6 91.8,34.4 93.0,35.3 93.9,36.6 94.4,38.1 94.7,39.8 94.6,41.8 94.3,44.0 93.7,46.4 92.9,49.0 91.9,51.8 90.7,54.6 89.4,57.6 88.0,60.6 86.6,63.6 85.1,66.6 83.7,69.5 82.3,72.3 80.9,74.9 79.6,77.4 78.3,79.7 77.1,81.7 75.9,83.5 74.8,85.0 73.7,86.3 72.6,87.3 71.5,88.0 70.3,88.4 69.1,88.6 67.9,88.5 66.6,88.2 65.2,87.7 63.7,87.0 62.1,86.1 60.3,85.1 58.5,83.9 56.6,82.6 54.6,81.2 52.5,79.7 50.3,78.1 48.1,76.3 45.7,74.5 43.3,72.6 40.9,70.7 38.4,68.6 36.0,66.5 33.6,64.2 31.2,61.9 29.0,59.5 26.9,57.1 25.0,54.6 23.4,52.0 22.0,49.5 20.9,46.9 20.2,44.3 20.0,41.9 20.1,39.4 20.7,37.2 21.8,35.0 23.3,33.0 25.2,31.3 27.6,29.7 30.4,28.5 33.5,27.5 36.9,26.8 40.5,26.5 44.2,26.5 48.0,26.8 51.9,27.4 55.6,28.4 59.3,29.6 62.7,31.1 65.9,32.9 68.9,34.9 71.5,37.2 73.8,39.5 75.8,42.0 77.4,44.6 78.7,47.3 79.8,50.0 80.5,52.7 81.0,55.3 81.3,58.0 81.4,60.5 81.4,63.0 81.4,65.3 81.2,67.6 81.0,69.7 80.8,71.7 80.7,73.6 80.5,75.4 80.5,77.1 80.5,78.7 80.6,80.1 80.7,81.4 81.0,82.6 81.3,83.7 81.7,84.7 82.1,85.5 82.6,86.2 83.0,86.7 83.4,87.0 83.8,87.2 84.1,87.1 84.2,86.9 84.2,86.4 84.0,85.6 83.5,84.7 82.7,83.4 81.6,81.9 80.2,80.2 78.5,78.2 76.3,76.0 73.8,73.6 71.0,71.0 67.9,68.2 64.4,65.4 60.8,62.4 57.0,59.4 53.1,56.4 49.1,53.4 45.2,50.5 41.3,47.7 37.7,45.1 34.3,42.6 31.2,40.3 28.5,38.3 26.2,36.5 24.3,35.0 22.8,33.7 21.8,32.7 21.3,32.0 21.2,31.6 21.5,31.4 22.2,31.5 23.2,31.8 24.5,32.3 26.1,33.0 27.9,33.9 29.8,34.9 31.9,36.1 34.0,37.4 36.3,38.8 38.5,40.3 40.7,41.9 42.9,43.7 45.1,45.5 47.2,47.4 49.2,49.3 51.2,51.4 53.1,53.5 54.8,55.8 56.5,58.1 58.1,60.5 59.7,62.9 61.1,65.4 62.4,68.0 63.7,70.5 64.9,73.1 66.1,75.7 67.3,78.1 68.5,80.6 69.6,82.8 70.8,85.0 72.1,87.0 73.4,88.7 74.8,90.3 76.2,91.5 77.8,92.5 79.4,93.2 81.1,93.5 82.8,93.5 84.6,93.2 86.4,92.6 88.1,91.6 89.8,90.4 91.3,88.9 92.7,87.1 93.9,85.1 94.8,82.8" class="shadow"/>
    <polyline points="94.8,82.8 95.5,80.5 95.9,78.0 96.0,75.4 95.7,72.7 95.2,70.0 94.3,67.3 93.1,64.7 91.5,62.0 89.7,59.5 87.7,57.0 85.4,54.7 82.9,52.4 80.2,50.3 77.4,48.3 74.5,46.4 71.5,44.6 68.4,42.9 65.2,41.3 62.0,39.9 58.9,38.6 55.7,37.4 52.5,36.3 49.4,35.3 46.4,34.5 43.5,33.8 40.7,33.3 38.1,33.0 35.6,32.8 33.4,32.9 31.4,33.1 29.6,33.6 28.2,34.4 27.0,35.3 26.1,36.6 25.6,38.1 25.3,39.8 25.4,41.8 25.7,44.0 26.3,46.4 27.1,49.0 28.1,51.8 29.3,54.6 30.6,57.6 32.0,60.6 33.4,63.6 34.9,66.6 36.3,69.5 37.7,72.3 39.1,74.9 40.4,77.4 41.7,79.7 42.9,81.7 44.1,83.5 45.2,85.0 46.3,86.3 47.4,87.3 48.5,88.0 49.7,88.4 50.9,88.6 52.1,88.5 53.4,88.2 54.8,87.7 56.3,87.0 57.9,86.1 59.7,85.1 61.5,83.9 63.4,82.6 65.4,81.2 67.5,79.7 69.7,78.1 71.9,76.3 74.3,74.5 76.7,72.6 79.1,70.7 81.6,68.6 84.0,66.5 86.4,64.2 88.8,61.9 91.0,59.5 93.1,57.1 95.0,54.6 96.6,52.0 98.0,49.5 99.1,46.9 99.8,44.3 100.0,41.9 99.9,39.4 99.3,37.2 98.2,35.0 96.7,33.0 94.8,31.3 92.4,29.7 89.6,28.5 86.5,27.5 83.1,26.8 79.5,26.5 75.8,26.5 72.0,26.8 68.1,27.4 64.4,28.4 60.7,29.6 57.3,31.1 54.1,32.9 51.1,34.9 48.5,37.2 46.2,39.5 44.2,42.0 42.6,44.6 41.3,47.3 40.2,50.0 39.5,52.7 39.0,55.3 38.7,58.0 38.6,60.5 38.6,63.0 38.6,65.3 38.8,67.6 39.0,69.7 39.2,71.7 39.3,73.6 39.5,75.4 39.5,77.1 39.5,78.7 39.4,80.1 39.3,81.4 39.0,82.6 38.7,83.7 38.3,84.7 37.9,85.5 37.4,86.2 37.0,86.7 36.6,87.0 36.2,87.2 35.9,87.1 35.8,86.9 35.8,86.4 36.0,85.6 36.5,84.7 37.3,83.4 38.4,81.9 39.8,80.2 41.5,78.2 43.7,76.0 46.2,73.6 49.0,71.0 52.1,68.2 55.6,65.4 59.2,62.4 63.0,59.4 66.9,56.4 70.9,53.4 74.8,50.5 78.7,47.7 82.3,45.1 85.7,42.6 88.8,40.3 91.5,38.3 93.8,36.5 95.7,35.0 97.2,33.7 98.2,32.7 98.7,32.0 98.8,31.6 98.5,31.4 97.8,31.5 96.8,31.8 95.5,32.3 93.9,33.0 92.1,33.9 90.2,34.9 88.1,36.1 86.0,37.4 83.7,38.8 81.5,40.3 79.3,41.9 77.1,43.7 74.9,45.5 72.8,47.4 70.8,49.3 68.8,51.4 66.9,53.5 65.2,55.8 63.5,58.1 61.9,60.5 60.3,62.9 58.9,65.4 57.6,68.0 56.3,70.5 55.1,73.1 53.9,75.7 52.7,78.1 51.5,80.6 50.4,82.8 49.2,85.0 47.9,87.0 46.6,88.7 45.2,90.3 43.8,91.5 42.2,92.5 40.6,93.2 38.9,93.5 37.2,93.5 35.4,93.2 33.6,92.6 31.9,91.6 30.2,90.4 28.7,88.9 27.3,87.1 26.1,85.1 25.2,82.8 24.5,80.5 24.1,78.0 24.0,75.4 24.3,72.7 24.8,70.0 25.7,67.3 26.9,64.7 28.5,62.0 30.3,59.5 32.3,57.0 34.6,54.7 37.1,52.4 39.8,50.3 42.6,48.3 45.5,46.4 48.5,44.6 51.6,42.9 54.8,41.3 58.0,39.9 61.1,38.6 64.3,37.4 67.5,36.3 70.6,35.3 73.6,34.5 76.5,33.8 79.3,33.3 81.9,33.0 84.4,32.8 86.6,32.9 88.6,33.1 90.4,33.6 91.8,34.4 93.0,35.3 93.9,36.6 94.4,38.1 94.7,39.8 94.6,41.8 94.3,44.0 93.7,46.4 92.9,49.0 91.9,51.8 90.7,54.6 89.4,57.6 88.0,60.6 86.6,63.6 85.1,66.6 83.7,69.5 82.3,72.3 80.9,74.9 79.6,77.4 78.3,79.7 77.1,81.7 75.9,83.5 74.8,85.0 73.7,86.3 72.6,87.3 71.5,88.0 70.3,88.4 69.1,88.6 67.9,88.5 66.6,88.2 65.2,87.7 63.7,87.0 62.1,86.1 60.3,85.1 58.5,83.9 56.6,82.6 54.6,81.2 52.5,79.7 50.3,78.1 48.1,76.3 45.7,74.5 43.3,72.6 40.9,70.7 38.4,68.6 36.0,66.5 33.6,64.2 31.2,61.9 29.0,59.5 26.9,57.1 25.0,54.6 23.4,52.0 22.0,49.5 20.9,46.9 20.2,44.3 20.0,41.9 20.1,39.4 20.7,37.2 21.8,35.0 23.3,33.0 25.2,31.3 27.6,29.7 30.4,28.5 33.5,27.5 36.9,26.8 40.5,26.5 44.2,26.5 48.0,26.8 51.9,27.4 55.6,28.4 59.3,29.6 62.7,31.1 65.9,32.9 68.9,34.9 71.5,37.2 73.8,39.5 75.8,42.0 77.4,44.6 78.7,47.3 79.8,50.0 80.5,52.7 81.0,55.3 81.3,58.0 81.4,60.5 81.4,63.0 81.4,65.3 81.2,67.6 81.0,69.7 80.8,71.7 80.7,73.6 80.5,75.4 80.5,77.1 80.5,78.7 80.6,80.1 80.7,81.4 81.0,82.6 81.3,83.7 81.7,84.7 82.1,85.5 82.6,86.2 83.0,86.7 83.4,87.0 83.8,87.2 84.1,87.1 84.2,86.9 84.2,86.4 84.0,85.6 83.5,84.7 82.7,83.4 81.6,81.9 80.2,80.2 78.5,78.2 76.3,76.0 73.8,73.6 71.0,71.0 67.9,68.2 64.4,65.4 60.8,62.4 57.0,59.4 53.1,56.4 49.1,53.4 45.2,50.5 41.3,47.7 37.7,45.1 34.3,42.6 31.2,40.3 28.5,38.3 26.2,36.5 24.3,35.0 22.8,33.7 21.8,32.7 21.3,32.0 21.2,31.6 21.5,31.4 22.2,31.5 23.2,31.8 24.5,32.3 26.1,33.0 27.9,33.9 29.8,34.9 31.9,36.1 34.0,37.4 36.3,38.8 38.5,40.3 40.7,41.9 42.9,43.7 45.1,45.5 47.2,47.4 49.2,49.3 51.2,51.4 53.1,53.5 54.8,55.8 56.5,58.1 58.1,60.5 59.7,62.9 61.1,65.4 62.4,68.0 63.7,70.5 64.9,73.1 66.1,75.7 67.3,78.1 68.5,80.6 69.6,82.8 70.8,85.0 72.1,87.0 73.4,88.7 74.8,90.3 76.2,91.5 77.8,92.5 79.4,93.2 81.1,93.5 82.8,93.5 84.6,93.2 86.4,92.6 88.1,91.6 89.8,90.4 91.3,88.9 92.7,87.1 93.9,85.1 94.8,82.8" class="rope"/>
    <rect x="52.5" y="70.1" width="20" height="6" rx="3" transform="rotate(152.5 62.5 73.1)" fill="#f8f7f2"/><rect x="72.9" y="32.2" width="20" height="6" rx="3" transform="rotate(171.3 82.9 35.2)" fill="#f8f7f2"/><rect x="15.1" y="43.9" width="20" height="6" rx="3" transform="rotate(10.0 25.1 46.9)" fill="#f8f7f2"/><rect x="76.4" y="81.8" width="20" height="6" rx="3" transform="rotate(28.8 86.4 84.8)" fill="#f8f7f2"/><rect x="47.5" y="70.1" width="20" height="6" rx="3" transform="rotate(47.5 57.5 73.1)" fill="#f8f7f2"/><rect x="76.6" y="64.7" width="20" height="6" rx="3" transform="rotate(26.3 86.6 67.7)" fill="#f8f7f2"/><rect x="15.1" y="83.9" width="20" height="6" rx="3" transform="rotate(45.0 25.1 86.9)" fill="#f8f7f2"/><rect x="72.7" y="49.3" width="20" height="6" rx="3" transform="rotate(63.8 82.7 52.3)" fill="#f8f7f2"/>
    <polyline points="94.8,82.8 95.5,80.5 95.9,78.0 96.0,75.4 95.7,72.7 95.2,70.0 94.3,67.3 93.1,64.7 91.5,62.0 89.7,59.5 87.7,57.0 85.4,54.7 82.9,52.4 80.2,50.3 77.4,48.3 74.5,46.4 71.5,44.6 68.4,42.9 65.2,41.3 62.0,39.9 58.9,38.6 55.7,37.4 52.5,36.3 49.4,35.3 46.4,34.5 43.5,33.8 40.7,33.3 38.1,33.0 35.6,32.8 33.4,32.9 31.4,33.1 29.6,33.6 28.2,34.4 27.0,35.3 26.1,36.6 25.6,38.1 25.3,39.8 25.4,41.8 25.7,44.0 26.3,46.4 27.1,49.0 28.1,51.8 29.3,54.6 30.6,57.6 32.0,60.6 33.4,63.6 34.9,66.6 36.3,69.5 37.7,72.3 39.1,74.9 40.4,77.4 41.7,79.7 42.9,81.7 44.1,83.5 45.2,85.0 46.3,86.3 47.4,87.3 48.5,88.0 49.7,88.4 50.9,88.6 52.1,88.5 53.4,88.2 54.8,87.7 56.3,87.0 57.9,86.1 59.7,85.1 61.5,83.9 63.4,82.6 65.4,81.2 67.5,79.7 69.7,78.1 71.9,76.3 74.3,74.5 76.7,72.6 79.1,70.7 81.6,68.6 84.0,66.5 86.4,64.2 88.8,61.9 91.0,59.5 93.1,57.1 95.0,54.6 96.6,52.0 98.0,49.5 99.1,46.9 99.8,44.3 100.0,41.9 99.9,39.4 99.3,37.2 98.2,35.0 96.7,33.0 94.8,31.3 92.4,29.7 89.6,28.5 86.5,27.5 83.1,26.8 79.5,26.5 75.8,26.5 72.0,26.8 68.1,27.4 64.4,28.4 60.7,29.6 57.3,31.1 54.1,32.9 51.1,34.9 48.5,37.2 46.2,39.5 44.2,42.0 42.6,44.6 41.3,47.3 40.2,50.0 39.5,52.7 39.0,55.3 38.7,58.0 38.6,60.5 38.6,63.0 38.6,65.3 38.8,67.6 39.0,69.7 39.2,71.7 39.3,73.6 39.5,75.4 39.5,77.1 39.5,78.7 39.4,80.1 39.3,81.4 39.0,82.6 38.7,83.7 38.3,84.7 37.9,85.5 37.4,86.2 37.0,86.7 36.6,87.0 36.2,87.2 35.9,87.1 35.8,86.9 35.8,86.4 36.0,85.6 36.5,84.7 37.3,83.4 38.4,81.9 39.8,80.2 41.5,78.2 43.7,76.0 46.2,73.6 49.0,71.0 52.1,68.2 55.6,65.4 59.2,62.4 63.0,59.4 66.9,56.4 70.9,53.4 74.8,50.5 78.7,47.7 82.3,45.1 85.7,42.6 88.8,40.3 91.5,38.3 93.8,36.5 95.7,35.0 97.2,33.7 98.2,32.7 98.7,32.0 98.8,31.6 98.5,31.4 97.8,31.5 96.8,31.8 95.5,32.3 93.9,33.0 92.1,33.9 90.2,34.9 88.1,36.1 86.0,37.4 83.7,38.8 81.5,40.3 79.3,41.9 77.1,43.7 74.9,45.5 72.8,47.4 70.8,49.3 68.8,51.4 66.9,53.5 65.2,55.8 63.5,58.1 61.9,60.5 60.3,62.9 58.9,65.4 57.6,68.0 56.3,70.5 55.1,73.1 53.9,75.7 52.7,78.1 51.5,80.6 50.4,82.8 49.2,85.0 47.9,87.0 46.6,88.7 45.2,90.3 43.8,91.5 42.2,92.5 40.6,93.2 38.9,93.5 37.2,93.5 35.4,93.2 33.6,92.6 31.9,91.6 30.2,90.4 28.7,88.9 27.3,87.1 26.1,85.1 25.2,82.8 24.5,80.5 24.1,78.0 24.0,75.4 24.3,72.7 24.8,70.0 25.7,67.3 26.9,64.7 28.5,62.0 30.3,59.5 32.3,57.0 34.6,54.7 37.1,52.4 39.8,50.3 42.6,48.3 45.5,46.4 48.5,44.6 51.6,42.9 54.8,41.3 58.0,39.9 61.1,38.6 64.3,37.4 67.5,36.3 70.6,35.3 73.6,34.5 76.5,33.8 79.3,33.3 81.9,33.0 84.4,32.8 86.6,32.9 88.6,33.1 90.4,33.6 91.8,34.4 93.0,35.3 93.9,36.6 94.4,38.1 94.7,39.8 94.6,41.8 94.3,44.0 93.7,46.4 92.9,49.0 91.9,51.8 90.7,54.6 89.4,57.6 88.0,60.6 86.6,63.6 85.1,66.6 83.7,69.5 82.3,72.3 80.9,74.9 79.6,77.4 78.3,79.7 77.1,81.7 75.9,83.5 74.8,85.0 73.7,86.3 72.6,87.3 71.5,88.0 70.3,88.4 69.1,88.6 67.9,88.5 66.6,88.2 65.2,87.7 63.7,87.0 62.1,86.1 60.3,85.1 58.5,83.9 56.6,82.6 54.6,81.2 52.5,79.7 50.3,78.1 48.1,76.3 45.7,74.5 43.3,72.6 40.9,70.7 38.4,68.6 36.0,66.5 33.6,64.2 31.2,61.9 29.0,59.5 26.9,57.1 25.0,54.6 23.4,52.0 22.0,49.5 20.9,46.9 20.2,44.3 20.0,41.9 20.1,39.4 20.7,37.2 21.8,35.0 23.3,33.0 25.2,31.3 27.6,29.7 30.4,28.5 33.5,27.5 36.9,26.8 40.5,26.5 44.2,26.5 48.0,26.8 51.9,27.4 55.6,28.4 59.3,29.6 62.7,31.1 65.9,32.9 68.9,34.9 71.5,37.2 73.8,39.5 75.8,42.0 77.4,44.6 78.7,47.3 79.8,50.0 80.5,52.7 81.0,55.3 81.3,58.0 81.4,60.5 81.4,63.0 81.4,65.3 81.2,67.6 81.0,69.7 80.8,71.7 80.7,73.6 80.5,75.4 80.5,77.1 80.5,78.7 80.6,80.1 80.7,81.4 81.0,82.6 81.3,83.7 81.7,84.7 82.1,85.5 82.6,86.2 83.0,86.7 83.4,87.0 83.8,87.2 84.1,87.1 84.2,86.9 84.2,86.4 84.0,85.6 83.5,84.7 82.7,83.4 81.6,81.9 80.2,80.2 78.5,78.2 76.3,76.0 73.8,73.6 71.0,71.0 67.9,68.2 64.4,65.4 60.8,62.4 57.0,59.4 53.1,56.4 49.1,53.4 45.2,50.5 41.3,47.7 37.7,45.1 34.3,42.6 31.2,40.3 28.5,38.3 26.2,36.5 24.3,35.0 22.8,33.7 21.8,32.7 21.3,32.0 21.2,31.6 21.5,31.4 22.2,31.5 23.2,31.8 24.5,32.3 26.1,33.0 27.9,33.9 29.8,34.9 31.9,36.1 34.0,37.4 36.3,38.8 38.5,40.3 40.7,41.9 42.9,43.7 45.1,45.5 47.2,47.4 49.2,49.3 51.2,51.4 53.1,53.5 54.8,55.8 56.5,58.1 58.1,60.5 59.7,62.9 61.1,65.4 62.4,68.0 63.7,70.5 64.9,73.1 66.1,75.7 67.3,78.1 68.5,80.6 69.6,82.8 70.8,85.0 72.1,87.0 73.4,88.7 74.8,90.3 76.2,91.5 77.8,92.5 79.4,93.2 81.1,93.5 82.8,93.5 84.6,93.2 86.4,92.6 88.1,91.6 89.8,90.4 91.3,88.9 92.7,87.1 93.9,85.1 94.8,82.8" class="highlight"/>
  
</svg>