<svg xmlns="http://www.w3.org/2000/svg" viewBox="0 0 120 120" role="img">
  <rect width="120" height="120" rx="10" fill="#f8f7f2"/>
  <style>
    .shadow{fill:none;stroke:#4a4f56;stroke-width:13;stroke-linecap:round;stroke-linejoin:round;opacity:.22}
    .rope{fill:none;stroke:#1778bd;stroke-width:8;stroke-linecap:round;stroke-linejoin:round}
    .highlight{fill:none;stroke:#4fb1f0;stroke-width:2.2;stroke-linecap:round;stroke-linejoin:round;opacity:.85}
  </style>
  
    <polyline points="90.2,76.5 90.4,73.9 90.7,71.3 90.9,68.8 91.0,66.2 91.1,63.8 91.2,61.4 91.2,59.1 91.2,56.9 91.1,54.8 91.0,52.8 90.9,50.9 90.6,49.1 90.3,47.4 90.0,45.9 89.5,44.5 88.9,43.2 88.3,42.1 87.5,41.1 86.5,40.4 85.5,39.9 84.3,39.7 83.0,39.7 81.5,40.1 80.0,40.7 78.4,41.6 76.7,42.8 74.9,44.3 73.2,46.0 71.4,48.0 69.8,50.2 68.1,52.6 66.6,55.1 65.2,57.7 64.0,60.3 62.8,62.9 61.9,65.4 61.1,67.9 60.4,70.2 59.9,72.2 59.6,74.1 59.4,75.8 59.3,77.1 59.2,78.2 59.3,79.0 59.4,79.6 59.5,79.9 59.6,79.9 59.7,79.7 59.8,79.2 59.8,78.6 59.8,77.7 59.7,76.7 59.6,75.5 59.4,74.2 59.0,72.7 58.6,71.1 58.0,69.4 57.3,67.6 56.5,65.6 55.6,63.4 54.5,61.2 53.2,58.8 51.8,56.4 50.2,53.8 48.5,51.1 46.7,48.4 44.7,45.6 42.6,42.9 40.5,40.1 38.2,37.5 36.0,35.0 33.7,32.6 31.5,30.4 29.4,28.5 27.3,27.0 25.5,25.7 23.8,24.8 22.3,24.3 21.1,24.2 20.2,24.5 19.5,25.2 19.1,26.3 19.0,27.7 19.2,29.5 19.7,31.6 20.3,34.0 21.2,36.5 22.3,39.3 23.5,42.1 24.8,45.1 26.3,48.1 27.7,51.0 29.2,53.9 30.6,56.8 32.0,59.5 33.4,62.2 34.6,64.7 35.7,67.1 36.8,69.3 37.6,71.4 38.3,73.3 38.9,75.1 39.3,76.8 39.6,78.4 39.7,79.8 39.7,81.0 39.5,82.1 39.1,83.0 38.6,83.8 38.0,84.3 37.2,84.7 36.4,84.8 35.4,84.6 34.4,84.2 33.3,83.5 32.2,82.6 31.1,81.3 30.0,79.8 29.0,78.0 28.1,76.0 27.3,73.7 26.7,71.3 26.3,68.7 26.1,66.1 26.1,63.3 26.4,60.6 26.9,57.9 27.7,55.3 28.7,52.9 30.0,50.7 31.5,48.6 33.2,46.8 35.0,45.3 37.0,44.1 39.1,43.2 41.2,42.6 43.4,42.2 45.6,42.2 47.8,42.4 49.9,42.9 52.0,43.5 53.9,44.4 55.8,45.5 57.6,46.7 59.2,48.1 60.7,49.6 62.2,51.2 63.5,52.9 64.7,54.7 65.7,56.6 66.7,58.6 67.6,60.6 68.4,62.8 69.1,65.0 69.7,67.2 70.3,69.5 70.7,71.8 71.1,74.1 71.4,76.4 71.6,78.6 71.7,80.7 71.8,82.7 71.8,84.6 71.8,86.2 71.8,87.6 71.8,88.8 71.9,89.6 71.9,90.0 72.0,90.1 72.2,89.9 72.5,89.2 72.9,88.2 73.4,86.8 74.0,85.0 74.7,83.0 75.5,80.6 76.4,78.1 77.3,75.3 78.4,72.4 79.5,69.4 80.6,66.3 81.8,63.2 82.9,60.2 84.0,57.3 85.1,54.5 86.2,51.8 87.1,49.3 88.1,46.9 88.9,44.8 89.7,42.8 90.5,41.0 91.1,39.4 91.8,38.0 92.3,36.7 92.9,35.6 93.3,34.7 93.8,33.9 94.2,33.3 94.5,32.9 94.8,32.6 95.0,32.5 95.1,32.7 95.2,33.0 95.2,33.5 95.0,34.3 94.8,35.4 94.4,36.7 94.0,38.2 93.4,40.0 92.7,42.1 91.9,44.4 91.0,46.9 90.1,49.5 89.1,52.3 88.1,55.2 87.1,58.2 86.1,61.1 85.1,64.0 84.2,66.8 83.3,69.5 82.5,72.0 81.9,74.2 81.3,76.1 80.8,77.8 80.4,79.1 80.1,80.1 79.9,80.8 79.7,81.2 79.6,81.2 79.5,81.0 79.5,80.4 79.4,79.6 79.4,78.6 79.4,77.4 79.3,76.0 79.2,74.5 79.1,72.9 78.9,71.2 78.7,69.4 78.4,67.5 78.1,65.7 77.7,63.7 77.2,61.8 76.7,59.8 76.0,57.8 75.3,55.8 74.4,53.8 73.5,51.8 72.4,49.9 71.2,48.0 69.8,46.1 68.3,44.4 66.6,42.8 64.8,41.3 62.9,40.0 60.9,39.0 58.8,38.2 56.6,37.7 54.4,37.4 52.2,37.6 50.0,38.0 47.9,38.8 45.9,39.9 44.0,41.4 42.3,43.2 40.8,45.2 39.4,47.5 38.3,50.1 37.5,52.8 36.8,55.6 36.4,58.5 36.2,61.4 36.2,64.3 36.4,67.1 36.8,69.9 37.3,72.4 37.8,74.8 38.5,77.0 39.2,79.0 39.9,80.8 40.6,82.3 41.3,83.6 41.9,84.7 42.5,85.6 42.9,86.2 43.3,86.7 43.5,87.0 43.6,87.1 43.5,87.0 43.4,86.8 43.0,86.4 42.5,85.9 41.9,85.1 41.1,84.2 40.1,83.1 39.0,81.8 37.7,80.2 36.3,78.5 34.8,76.5 33.1,74.3 31.4,71.9 29.6,69.3 27.8,66.5 25.9,63.6 24.1,60.5 22.3,57.4 20.7,54.3 19.2,51.2 17.9,48.1 16.8,45.2 15.9,42.5 15.3,40.0 15.0,37.7 15.0,35.8 15.3,34.1 15.8,32.9 16.7,32.0 17.8,31.4 19.1,31.3 20.7,31.5 22.4,32.0 24.2,32.8 26.2,34.0 28.2,35.3 30.2,36.9 32.3,38.7 34.3,40.6 36.2,42.6 38.1,44.7 39.9,46.8 41.5,48.9 43.0,51.1 44.4,53.2 45.7,55.4 46.8,57.5 47.7,59.5 48.5,61.6 49.2,63.5 49.8,65.5 50.2,67.3 50.5,69.1 50.7,70.8 50.8,72.4 50.7,73.8 50.6,75.2 50.4,76.3 50.1,77.2 49.8,77.9 49.4,78.4 49.1,78.6 48.7,78.5 48.4,78.1 48.1,77.4 47.9,76.3 47.9,75.0 47.9,73.4 48.2,71.5 48.5,69.3 49.1,67.0 49.8,64.5 50.7,61.8 51.8,59.2 53.1,56.4 54.5,53.8 56.1,51.2 57.7,48.7 59.5,46.3 61.3,44.2 63.1,42.3 65.0,40.6 66.8,39.1 68.6,38.0 70.4,37.0 72.0,36.4 73.6,35.9 75.1,35.7 76.6,35.8 77.9,36.0 79.1,36.4 80.3,37.0 81.4,37.8 82.4,38.7 83.4,39.8 84.2,41.0 85.0,42.5 85.8,44.0 86.5,45.8 87.1,47.7 87.7,49.8 88.1,52.0 88.5,54.4 88.8,57.0 89.0,59.8 89.1,62.7 89.2,65.6 89.1,68.7 89.0,71.8 88.8,74.9 88.6,77.9 88.3,80.8 88.0,83.6 87.7,86.1 87.5,88.5 87.2,90.5 87.0,92.2 86.8,93.5 86.8,94.5 86.7,95.1 86.8,95.2 86.9,95.0 87.1,94.3 87.4,93.4 87.7,92.0 88.0,90.4 88.4,88.5 88.8,86.4 89.1,84.1 89.5,81.7 89.9,79.1 90.2,76.5" class="shadow"/>
    <polyline points="90.2,76.5 90.4,73.9 90.7,71.3 90.9,68.8 91.0,66.2 91.1,63.8 91.2,61.4 91.2,59.1 91.2,56.9 91.1,54.8 91.0,52.8 90.9,50.9 90.6,49.1 90.3,47.4 90.0,45.9 89.5,44.5 88.9,43.2 88.3,42.1 87.5,41.1 86.5,40.4 85.5,39.9 84.3,39.7 83.0,39.7 81.5,40.1 80.0,40.7 78.4,41.6 76.7,42.8 74.9,44.3 73.2,46.0 71.4,48.0 69.8,50.2 68.1,52.6 66.6,55.1 65.2,57.7 64.0,60.3 62.8,62.9 61.9,65.4 61.1,67.9 60.4,70.2 59.9,72.2 59.6,74.1 59.4,75.8 59.3,77.1 59.2,78.2 59.3,79.0 59.4,79.6 59.5,79.9 59.6,79.9 59.7,79.7 59.8,79.2 59.8,78.6 59.8,77.7 59.7,76.7 59.6,75.5 59.4,74.2 59.0,72.7 58.6,71.1 58.0,69.4 57.3,67.6 56.5,65.6 55.6,63.4 54.5,61.2 53.2,58.8 51.8,56.4 50.2,53.8 48.5,51.1 46.7,48.4 44.7,45.6 42.6,42.9 40.5,40.1 38.2,37.5 36.0,35.0 33.7,32.6 31.5,30.4 29.4,28.5 27.3,27.0 25.5,25.7 23.8,24.8 22.3,24.3 21.1,24.2 20.2,24.5 19.5,25.2 19.1,26.3 19.0,27.7 19.2,29.5 19.7,31.6 20.3,34.0 21.2,36.5 22.3,39.3 23.5,42.1 24.8,45.1 26.3,48.1 27.7,51.0 29.2,53.9 30.6,56.8 32.0,59.5 33.4,62.2 34.6,64.7 35.7,67.1 36.8,69.3 37.6,71.4 38.3,73.3 38.9,75.1 39.3,76.8 39.6,78.4 39.7,79.8 39.7,81.0 39.5,82.1 39.1,83.0 38.6,83.8 38.0,84.3 37.2,84.7 36.4,84.8 35.4,84.6 34.4,84.2 33.3,83.5 32.2,82.6 31.1,81.3 30.0,79.8 29.0,78.0 28.1,76.0 27.3,73.7 26.7,71.3 26.3,68.7 26.1,66.1 26.1,63.3 26.4,60.6 26.9,57.9 27.7,55.3 28.7,52.9 30.0,50.7 31.5,48.6 33.2,46.8 35.0,45.3 37.0,44.1 39.1,43.2 41.2,42.6 43.4,42.2 45.6,42.2 47.8,42.4 49.9,42.9 52.0,43.5 53.9,44.4 55.8,45.5 57.6,46.7 59.2,48.1 60.7,49.6 62.2,51.2 63.5,52.9 64.7,54.7 65.7,56.6 66.7,58.6 67.6,60.6 68.4,62.8 69.1,65.0 69.7,67.2 70.3,69.5 70.7,71.8 71.1,74.1 71.4,76.4 71.6,78.6 71.7,80.7 71.8,82.7 71.8,84.6 71.8,86.2 71.8,87.6 71.8,88.8 71.9,89.6 71.9,90.0 72.0,90.1 72.2,89.9 72.5,89.2 72.9,88.2 73.4,86.8 74.0,85.0 74.7,83.0 75.5,80.6 76.4,78.1 77.3,75.3 78.4,72.4 79.5,69.4 80.6,66.3 81.8,63.2 82.9,60.2 84.0,57.3 85.1,54.5 86.2,51.8 87.1,49.3 88.1,46.9 88.9,44.8 89.7,42.8 90.5,41.0 91.1,39.4 91.8,38.0 92.3,36.7 92.9,35.6 93.3,34.7 93.8,33.9 94.2,33.3 94.5,32.9 94.8,32.6 95.0,32.5 95.1,32.7 95.2,33.0 95.2,33.5 95.0,34.3 94.8,35.4 94.4,36.7 94.0,38.2 93.4,40.0 92.7,42.1 91.9,44.4 91.0,46.9 90.1,49.5 89.1,52.3 88.1,55.2 87.1,58.2 86.1,61.1 85.1,64.0 84.2,66.8 83.3,69.5 82.5,72.0 81.9,74.2 81.3,76.1 80.8,77.8 80.4,79.1 80.1,80.1 79.9,80.8 79.7,81.2 79.6,81.2 79.5,81.0 79.5,80.4 79.4,79.6 79.4,78.6 79.4,77.4 79.3,76.0 79.2,74.5 79.1,72.9 78.9,71.2 78.7,69.4 78.4,67.5 78.1,65.7 77.7,63.7 77.2,61.8 76.7,59.8 76.0,57.8 75.3,55.8 74.4,53.8 73.5,51.8 72.4,49.9 71.2,48.0 69.8,46.1 68.3,44.4 66.6,42.8 64.8,41.3 62.9,40.0 60.9,39.0 58.8,38.2 56.6,37.7 54.4,37.4 52.2,37.6 50.0,38.0 47.9,38.8 45.9,39.9 44.0,41.4 42.3,43.2 40.8,45.2 39.4,47.5 38.3,50.1 37.5,52.8 36.8,55.6 36.4,58.5 36.2,61.4 36.2,64.3 36.4,67.1 36.8,69.9 37.3,72.4 37.8,74.8 38.5,77.0 39.2,79.0 39.9,80.8 40.6,82.3 41.3,83.6 41.9,84.7 42.5,85.6 42.9,86.2 43.3,86.7 43.5,87.0 43.6,87.1 43.5,87.0 43.4,86.8 43.0,86.4 42.5,85.9 41.9,85.1 41.1,84.2 40.1,83.1 39.0,81.8 37.7,80.2 36.3,78.5 34.8,76.5 33.1,74.3 31.4,71.9 29.6,69.3 27.8,66.5 25.9,63.6 24.1,60.5 22.3,57.4 20.7,54.3 19.2,51.2 17.9,48.1 16.8,45.2 15.9,42.5 15.3,40.0 15.0,37.7 15.0,35.8 15.3,34.1 15.8,32.9 16.7,32.0 17.8,31.4 19.1,31.3 20.7,31.5 22.4,32.0 24.2,32.8 26.2,34.0 28.2,35.3 30.2,36.9 32.3,38.7 34.3,40.6 36.2,42.6 38.1,44.7 39.9,46.8 41.5,48.9 43.0,51.1 44.4,53.2 45.7,55.4 46.8,57.5 47.7,59.5 48.5,61.6 49.2,63.5 49.8,65.5 50.2,67.3 50.5,69.1 50.7,70.8 50.8,72.4 50.7,73.8 50.6,75.2 50.4,76.3 50.1,77.2 49.8,77.9 49.4,78.4 49.1,78.6 48.7,78.5 48.4,78.1 48.1,77.4 47.9,76.3 47.9,75.0 47.9,73.4 48.2,71.5 48.5,69.3 49.1,67.0 49.8,64.5 50.7,61.8 51.8,59.2 53.1,56.4 54.5,53.8 56.1,51.2 57.7,48.7 59.5,46.3 61.3,44.2 63.1,42.3 65.0,40.6 66.8,39.1 68.6,38.0 70.4,37.0 72.0,36.4 73.6,35.9 75.1,35.7 76.6,35.8 77.9,36.0 79.1,36.4 80.3,37.0 81.4,37.8 82.4,38.7 83.4,39.8 84.2,41.0 85.0,42.5 85.8,44.0 86.5,45.8 87.1,47.7 87.7,49.8 88.1,52.0 88.5,54.4 88.8,57.0 89.0,59.8 89.1,62.7 89.2,65.6 89.1,68.7 89.0,71.8 88.8,74.9 88.6,77.9 88.3,80.8 88.0,83.6 87.7,86.1 87.5,88.5 87.2,90.5 87.0,92.2 86.8,93.5 86.8,94.5 86.7,95.1 86.8,95.2 86.9,95.0 87.1,94.3 87.4,93.4 87.7,92.0 88.0,90.4 88.4,88.5 88.8,86.4 89.1,84.1 89.5,81.7 89.9,79.1 90.2,76.5" class="rope"/>
    <rect x="84.5" y="29.2" width="20" height="6" rx="3" transform="rotate(45.0 94.5 32.2)" fill="#f8f7f2"/><rect x="55.9" y="39.4" width="20" height="6" rx="3" transform="rotate(63.8 65.9 42.4)" fill="#f8f7f2"/><rect x="15.5" y="60.0" width="20" height="6" rx="3" transform="rotate(82.5 25.5 63.0)" fill="#f8f7f2"/><rect x="44.1" y="78.8" width="20" height="6" rx="3" transform="rotate(101.3 54.1 81.8)" fill="#f8f7f2"/><rect x="64.4" y="51.1" width="20" height="6" rx="3" transform="rotate(80.0 74.4 54.1)" fill="#f8f7f2"/><rect x="18.1" y="33.5" width="20" height="6" rx="3" transform="rotate(98.8 28.1 36.5)" fill="#f8f7f2"/><rect x="35.6" y="29.6" width="20" height="6" rx="3" transform="rotate(117.5 45.6 32.6)" fill="#f8f7f2"/><rect x="81.9" y="41.8" width="20" height="6" rx="3" transform="rotate(136.3 91.9 44.8)" fill="#f8f7f2"/>
    <polyline points="90.2,76.5 90.4,73.9 90.7,71.3 90.9,68.8 91.0,66.2 91.1,63.8 91.2,61.4 91.2,59.1 91.2,56.9 91.1,54.8 91.0,52.8 90.9,50.9 90.6,49.1 90.3,47.4 90.0,45.9 89.5,44.5 88.9,43.2 88.3,42.1 87.5,41.1 86.5,40.4 85.5,39.9 84.3,39.7 83.0,39.7 81.5,40.1 80.0,40.7 78.4,41.6 76.7,42.8 74.9,44.3 73.2,46.0 71.4,48.0 69.8,50.2 68.1,52.6 66.6,55.1 65.2,57.7 64.0,60.3 62.8,62.9 61.9,65.4 61.1,67.9 60.4,70.2 59.9,72.2 59.6,74.1 59.4,75.8 59.3,77.1 59.2,78.2 59.3,79.0 59.4,79.6 59.5,79.9 59.6,79.9 59.7,79.7 59.8,79.2 59.8,78.6 59.8,77.7 59.7,76.7 59.6,75.5 59.4,74.2 59.0,72.7 58.6,71.1 58.0,69.4 57.3,67.6 56.5,65.6 55.6,63.4 54.5,61.2 53.2,58.8 51.8,56.4 50.2,53.8 48.5,51.1 46.7,48.4 44.7,45.6 42.6,42.9 40.5,40.1 38.2,37.5 36.0,35.0 33.7,32.6 31.5,30.4 29.4,28.5 27.3,27.0 25.5,25.7 23.8,24.8 22.3,24.3 21.1,24.2 20.2,24.5 19.5,25.2 19.1,26.3 19.0,27.7 19.2,29.5 19.7,31.6 20.3,34.0 21.2,36.5 22.3,39.3 23.5,42.1 24.8,45.1 26.3,48.1 27.7,51.0 29.2,53.9 30.6,56.8 32.0,59.5 33.4,62.2 34.6,64.7 35.7,67.1 36.8,69.3 37.6,71.4 38.3,73.3 38.9,75.1 39.3,76.8 39.6,78.4 39.7,79.8 39.7,81.0 39.5,82.1 39.1,83.0 38.6,83.8 38.0,84.3 37.2,84.7 36.4,84.8 35.4,84.6 34.4,84.2 33.3,83.5 32.2,82.6 31.1,81.3 30.0,79.8 29.0,78.0 28.1,76.0 27.3,73.7 26.7,71.3 26.3,68.7 26.1,66.1 26.1,63.3 26.4,60.6 26.9,57.9 27.7,55.3 28.7,52.9 30.0,50.7 31.5,48.6 33.2,46.8 35.0,45.3 37.0,44.1 39.1,43.2 41.2,42.6 43.4,42.2 45.6,42.2 47.8,42.4 49.9,42.9 52.0,43.5 53.9,44.4 55.8,45.5 57.6,46.7 59.2,48.1 60.7,49.6 62.2,51.2 63.5,52.9 64.7,54.7 65.7,56.6 66.7,58.6 67.6,60.6 68.4,62.8 69.1,65.0 69.7,67.2 70.3,69.5 70.7,71.8 71.1,74.1 71.4,76.4 71.6,78.6 71.7,80.7 71.8,82.7 71.8,84.6 71.8,86.2 71.8,87.6 71.8,88.8 71.9,89.6 71.9,90.0 72.0,90.1 72.2,89.9 72.5,89.2 72.9,88.2 73.4,86.8 74.0,85.0 74.7,83.0 75.5,80.6 76.4,78.1 77.3,75.3 78.4,72.4 79.5,69.4 80.6,66.3 81.8,63.2 82.9,60.2 84.0,57.3 85.1,54.5 86.2,51.8 87.1,49.3 88.1,46.9 88.9,44.8 89.7,42.8 90.5,41.0 91.1,39.4 91.8,38.0 92.3,36.7 92.9,35.6 93.3,34.7 93.8,33.9 94.2,33.3 94.5,32.9 94.8,32.6 95.0,32.5 95.1,32.7 95.2,33.0 95.2,33.5 95.0,34.3 94.8,35.4 94.4,36.7 94.0,38.2 93.4,40.0 92.7,42.1 91.9,44.4 91.0,46.9 90.1,49.5 89.1,52.3 88.1,55.2 87.1,58.2 86.1,61.1 85.1,64.0 84.2,66.8 83.3,69.5 82.5,72.0 81.9,74.2 81.3,76.1 80.8,77.8 80.4,79.1 80.1,80.1 79.9,80.8 79.7,81.2 79.6,81.2 79.5,81.0 79.5,80.4 79.4,79.6 79.4,78.6 79.4,77.4 79.3,76.0 79.2,74.5 79.1,72.9 78.9,71.2 78.7,69.4 78.4,67.5 78.1,65.7 77.7,63.7 77.2,61.8 76.7,59.8 76.0,57.8 75.3,55.8 74.4,53.8 73.5,51.8 72.4,49.9 71.2,48.0 69.8,46.1 68.3,44.4 66.6,42.8 64.8,41.3 62.9,40.0 60.9,39.0 58.8,38.2 56.6,37.7 54.4,37.4 52.2,37.6 50.0,38.0 47.9,38.8 45.9,39.9 44.0,41.4 42.3,43.2 40.8,45.2 39.4,47.5 38.3,50.1 37.5,52.8 36.8,55.6 36.4,58.5 36.2,61.4 36.2,64.3 36.4,67.1 36.8,69.9 37.3,72.4 37.8,74.8 38.5,77.0 39.2,79.0 39.9,80.8 40.6,82.3 41.3,83.6 41.9,84.7 42.5,85.6 42.9,86.2 43.3,86.7 43.5,87.0 43.6,87.1 43.5,87.0 43.4,86.8 43.0,86.4 42.5,85.9 41.9,85.1 41.1,84.2 40.1,83.1 39.0,81.8 37.7,80.2 36.3,78.5 34.8,76.5 33.1,74.3 31.4,71.9 29.6,69.3 27.8,66.5 25.9,63.6 24.1,60.5 22.3,57.4 20.7,54.3 19.2,51.2 17.9,48.1 16.8,45.2 15.9,42.5 15.3,40.0 15.0,37.7 15.0,35.8 15.3,34.1 15.8,32.9 16.7,32.0 17.8,31.4 19.1,31.3 20.7,31.5 22.4,32.0 24.2,32.8 26.2,34.0 28.2,35.3 30.2,36.9 32.3,38.7 34.3,40.6 36.2,42.6 38.1,44.7 39.9,46.8 41.5,48.9 43.0,51.1 44.4,53.2 45.7,55.4 46.8,57.5 47.7,59.5 48.5,61.6 49.2,63.5 49.8,65.5 50.2,67.3 50.5,69.1 50.7,70.8 50.8,72.4 50.7,73.8 50.6,75.2 50.4,76.3 50.1,77.2 49.8,77.9 49.4,78.4 49.1,78.6 48.7,78.5 48.4,78.1 48.1,77.4 47.9,76.3 47.9,75.0 47.9,73.4 48.2,71.5 48.5,69.3 49.1,67.0 49.8,64.5 50.7,61.8 51.8,59.2 53.1,56.4 54.5,53.8 56.1,51.2 57.7,48.7 59.5,46.3 61.3,44.2 63.1,42.3 65.0,40.6 66.8,39.1 68.6,38.0 70.4,37.0 72.0,36.4 73.6,35.9 75.1,35.7 76.6,35.8 77.9,36.0 79.1,36.4 80.3,37.0 81.4,37.8 82.4,38.7 83.4,39.8 84.2,41.0 85.0,42.5 85.8,44.0 86.5,45.8 87.1,47.7 87.7,49.8 88.1,52.0 88.5,54.4 88.8,57.0 89.0,59.8 89.1,62.7 89.2,65.6 89.1,68.7 89.0,71.8 88.8,74.9 88.6,77.9 88.3,80.8 88.0,83.6 87.7,86.1 87.5,88.5 87.2,90.5 87.0,92.2 86.8,93.5 86.8,94.5 86.7,95.1 86.8,95.2 86.9,95.0 87.1,94.3 87.4,93.4 87.7,92.0 88.0,90.4 88.4,88.5 88.8,86.4 89.1,84.1 89.5,81.7 89.9,79.1 90.2,76.5" class="highlight"/>
  
</svg>