<svg xmlns="http://www.w3.org/2000/svg" viewBox="0 0 120 120" role="img">
  <rect width="120" height="120" rx="10" fill="#f8f7f2"/>
  <style>
    .shadow{fill:none;stroke:#4a4f56;stroke-width:13;stroke-linecap:round;stroke-linejoin:round;opacity:.22}
    .rope{fill:none;stroke:#1778bd;stroke-width:8;stroke-linecap:round;stroke-linejoin:round}
    .highlight{fill:none;stroke:#4fb1f0;stroke-width:2.2;stroke-linecap:round;stroke-linejoin:round;opacity:.85}
  </style>
  
    <polyline points="86.5,71.4 86.6,70.4 86.7,69.4 86.9,68.5 87.1,67.5 87.3,66.4 87.5,65.4 87.8,64.3 88.0,63.2 88.2,62.1 88.3,60.8 88.3,59.6 88.2,58.2 88.0,56.8 87.7,55.3 87.2,53.8 86.5,52.3 85.7,50.7 84.6,49.1 83.4,47.5 82.0,45.9 80.4,44.4 78.6,42.9 76.7,41.5 74.6,40.2 72.5,38.9 70.3,37.8 68.0,36.8 65.7,36.0 63.4,35.2 61.2,34.6 58.9,34.1 56.8,33.8 54.7,33.5 52.8,33.3 50.9,33.2 49.1,33.2 47.4,33.2 45.8,33.3 44.3,33.3 42.8,33.4 41.4,33.5 40.0,33.5 38.6,33.5 37.2,33.5 35.8,33.4 34.4,33.3 33.0,33.2 31.6,33.1 30.1,32.9 28.7,32.8 27.2,32.7 25.8,32.6 24.4,32.6 23.1,32.6 21.9,32.8 20.8,33.0 19.9,33.4 19.1,33.8 18.5,34.5 18.1,35.2 18.0,36.1 18.1,37.2 18.4,38.4 18.9,39.7 19.7,41.1 20.6,42.6 21.8,44.2 23.2,45.9 24.7,47.6 26.3,49.3 28.1,51.0 29.9,52.8 31.8,54.5 33.7,56.1 35.6,57.7 37.4,59.3 39.3,60.8 41.0,62.2 42.7,63.6 44.3,64.9 45.9,66.2 47.3,67.4 48.7,68.6 50.0,69.8 51.2,71.0 52.4,72.2 53.5,73.4 54.5,74.6 55.5,75.9 56.6,77.2 57.5,78.5 58.5,79.9 59.5,81.3 60.5,82.8 61.4,84.2 62.4,85.6 63.4,87.1 64.4,88.4 65.3,89.8 66.3,91.0 67.2,92.2 68.1,93.2 69.0,94.1 69.9,94.8 70.7,95.4 71.5,95.8 72.2,96.0 72.9,96.1 73.5,96.0 74.1,95.6 74.6,95.1 75.1,94.5 75.5,93.7 75.9,92.8 76.3,91.8 76.6,90.7 76.9,89.5 77.1,88.2 77.4,87.0 77.6,85.7 77.9,84.4 78.2,83.2 78.5,82.0 78.8,80.8 79.2,79.7 79.6,78.5 80.1,77.5 80.7,76.4 81.3,75.4 82.0,74.4 82.8,73.4 83.6,72.4 84.5,71.4 85.5,70.3 86.5,69.2 87.6,68.1 88.6,66.9 89.6,65.6 90.7,64.2 91.6,62.8 92.5,61.3 93.3,59.8 94.0,58.2 94.5,56.6 94.8,55.0 95.0,53.4 95.0,51.8 94.8,50.2 94.4,48.7 93.8,47.2 93.0,45.9 92.0,44.6 90.8,43.4 89.5,42.3 88.0,41.4 86.4,40.6 84.7,39.8 82.9,39.2 81.1,38.7 79.2,38.3 77.3,38.0 75.5,37.7 73.6,37.5 71.7,37.4 69.9,37.2 68.1,37.1 66.3,37.0 64.5,36.8 62.7,36.7 60.9,36.5 59.1,36.3 57.3,36.0 55.4,35.7 53.5,35.4 51.5,35.1 49.5,34.7 47.4,34.4 45.2,34.1 42.9,33.9 40.7,33.7 38.4,33.5 36.1,33.4 33.8,33.5 31.6,33.6 29.5,33.9 27.4,34.2 25.6,34.7 23.8,35.3 22.3,36.1 21.0,36.9 19.9,37.9 19.1,39.0 18.5,40.1 18.2,41.3 18.1,42.6 18.3,43.9 18.7,45.3 19.3,46.7 20.1,48.0 21.0,49.4 22.1,50.7 23.3,52.0 24.5,53.2 25.9,54.4 27.2,55.6 28.5,56.7 29.8,57.7 31.1,58.7 32.3,59.7 33.5,60.7 34.7,61.6 35.8,62.5 36.8,63.4 37.8,64.3 38.8,65.3 39.7,66.2 40.7,67.2 41.7,68.1 42.6,69.1 43.6,70.2 44.7,71.2 45.7,72.3 46.9,73.3 48.0,74.4 49.2,75.4 50.5,76.4 51.7,77.3 53.0,78.2 54.3,79.1 55.6,79.8 56.9,80.5 58.2,81.1 59.4,81.6 60.6,82.0 61.7,82.2 62.7,82.4 63.7,82.5 64.6,82.4 65.5,82.3 66.3,82.1 67.0,81.8 67.6,81.4 68.1,81.0 68.7,80.5 69.1,80.0 69.5,79.5 69.9,79.0 70.3,78.5 70.7,78.0 71.1,77.5 71.5,77.1 71.9,76.7 72.3,76.3 72.8,76.0 73.4,75.7 74.0,75.4 74.6,75.2 75.4,75.0 76.2,74.7 77.1,74.5 78.0,74.3 79.0,74.1 80.0,73.8 81.1,73.5 82.3,73.2 83.4,72.8 84.6,72.4 85.8,71.9 86.9,71.4 88.0,70.8 89.1,70.2 90.1,69.5 91.0,68.8 91.8,68.0 92.4,67.2 93.0,66.4 93.4,65.5 93.6,64.7 93.7,63.8 93.7,63.0 93.5,62.2 93.1,61.4 92.7,60.6 92.1,59.8 91.4,59.1 90.7,58.4 89.8,57.8 88.9,57.2 88.0,56.6 87.1,56.0 86.1,55.5 85.1,54.9 84.2,54.4 83.2,53.9 82.2,53.4 81.3,52.9 80.3,52.3 79.3,51.7 78.3,51.2 77.3,50.5 76.1,49.9 74.9,49.2 73.6,48.5 72.2,47.8 70.7,47.0 69.1,46.3 67.3,45.5 65.4,44.8 63.3,44.1 61.2,43.3 58.9,42.7 56.6,42.0 54.2,41.4 51.7,40.9 49.3,40.5 46.9,40.1 44.5,39.8 42.3,39.6 40.1,39.5 38.1,39.4 36.2,39.5 34.6,39.6 33.0,39.8 31.7,40.0 30.6,40.4 29.7,40.7 28.9,41.2 28.4,41.6 27.9,42.1 27.6,42.5 27.4,43.0 27.3,43.5 27.2,44.0 27.2,44.4 27.2,44.8 27.2,45.2 27.2,45.6 27.2,45.9 27.2,46.2 27.1,46.5 27.1,46.8 27.0,47.0 27.0,47.3 27.0,47.6 27.0,47.9 27.1,48.2 27.3,48.6 27.5,49.0 27.9,49.4 28.4,49.9 29.0,50.5 29.8,51.2 30.7,51.9 31.7,52.7 32.9,53.5 34.2,54.4 35.6,55.3 37.2,56.3 38.8,57.4 40.4,58.4 42.1,59.5 43.8,60.5 45.6,61.6 47.2,62.6 48.9,63.6 50.5,64.6 52.0,65.5 53.5,66.4 54.9,67.2 56.2,68.0 57.4,68.8 58.5,69.5 59.5,70.2 60.4,70.8 61.3,71.5 62.2,72.1 62.9,72.7 63.7,73.4 64.4,74.0 65.0,74.7 65.7,75.4 66.4,76.2 67.1,76.9 67.8,77.8 68.5,78.6 69.2,79.5 70.0,80.4 70.8,81.4 71.6,82.3 72.4,83.3 73.3,84.2 74.2,85.0 75.1,85.9 76.0,86.6 76.9,87.3 77.8,87.8 78.7,88.3 79.6,88.6 80.4,88.8 81.2,88.9 82.0,88.8 82.7,88.6 83.4,88.2 84.0,87.7 84.5,87.1 85.0,86.4 85.3,85.5 85.7,84.6 85.9,83.6 86.1,82.5 86.2,81.4 86.3,80.3 86.4,79.1 86.4,78.0 86.4,76.8 86.4,75.7 86.4,74.6 86.4,73.5 86.4,72.5 86.5,71.4" class="shadow"/>
    <polyline points="86.5,71.4 86.6,70.4 86.7,69.4 86.9,68.5 87.1,67.5 87.3,66.4 87.5,65.4 87.8,64.3 88.0,63.2 88.2,62.1 88.3,60.8 88.3,59.6 88.2,58.2 88.0,56.8 87.7,55.3 87.2,53.8 86.5,52.3 85.7,50.7 84.6,49.1 83.4,47.5 82.0,45.9 80.4,44.4 78.6,42.9 76.7,41.5 74.6,40.2 72.5,38.9 70.3,37.8 68.0,36.8 65.7,36.0 63.4,35.2 61.2,34.6 58.9,34.1 56.8,33.8 54.7,33.5 52.8,33.3 50.9,33.2 49.1,33.2 47.4,33.2 45.8,33.3 44.3,33.3 42.8,33.4 41.4,33.5 40.0,33.5 38.6,33.5 37.2,33.5 35.8,33.4 34.4,33.3 33.0,33.2 31.6,33.1 30.1,32.9 28.7,32.8 27.2,32.7 25.8,32.6 24.4,32.6 23.1,32.6 21.9,32.8 20.8,33.0 19.9,33.4 19.1,33.8 18.5,34.5 18.1,35.2 18.0,36.1 18.1,37.2 18.4,38.4 18.9,39.7 19.7,41.1 20.6,42.6 21.8,44.2 23.2,45.9 24.7,47.6 26.3,49.3 28.1,51.0 29.9,52.8 31.8,54.5 33.7,56.1 35.6,57.7 37.4,59.3 39.3,60.8 41.0,62.2 42.7,63.6 44.3,64.9 45.9,66.2 47.3,67.4 48.7,68.6 50.0,69.8 51.2,71.0 52.4,72.2 53.5,73.4 54.5,74.6 55.5,75.9 56.6,77.2 57.5,78.5 58.5,79.9 59.5,81.3 60.5,82.8 61.4,84.2 62.4,85.6 63.4,87.1 64.4,88.4 65.3,89.8 66.3,91.0 67.2,92.2 68.1,93.2 69.0,94.1 69.9,94.8 70.7,95.4 71.5,95.8 72.2,96.0 72.9,96.1 73.5,96.0 74.1,95.6 74.6,95.1 75.1,94.5 75.5,93.7 75.9,92.8 76.3,91.8 76.6,90.7 76.9,89.5 77.1,88.2 77.4,87.0 77.6,85.7 77.9,84.4 78.2,83.2 78.5,82.0 78.8,80.8 79.2,79.7 79.6,78.5 80.1,77.5 80.7,76.4 81.3,75.4 82.0,74.4 82.8,73.4 83.6,72.4 84.5,71.4 85.5,70.3 86.5,69.2 87.6,68.1 88.6,66.9 89.6,65.6 90.7,64.2 91.6,62.8 92.5,61.3 93.3,59.8 94.0,58.2 94.5,56.6 94.8,55.0 95.0,53.4 95.0,51.8 94.8,50.2 94.4,48.7 93.8,47.2 93.0,45.9 92.0,44.6 90.8,43.4 89.5,42.3 88.0,41.4 86.4,40.6 84.7,39.8 82.9,39.2 81.1,38.7 79.2,38.3 77.3,38.0 75.5,37.7 73.6,37.5 71.7,37.4 69.9,37.2 68.1,37.1 66.3,37.0 64.5,36.8 62.7,36.7 60.9,36.5 59.1,36.3 57.3,36.0 55.4,35.7 53.5,35.4 51.5,35.1 49.5,34.7 47.4,34.4 45.2,34.1 42.9,33.9 40.7,33.7 38.4,33.5 36.1,33.4 33.8,33.5 31.6,33.6 29.5,33.9 27.4,34.2 25.6,34.7 23.8,35.3 22.3,36.1 21.0,36.9 19.9,37.9 19.1,39.0 18.5,40.1 18.2,41.3 18.1,42.6 18.3,43.9 18.7,45.3 19.3,46.7 20.1,48.0 21.0,49.4 22.1,50.7 23.3,52.0 24.5,53.2 25.9,54.4 27.2,55.6 28.5,56.7 29.8,57.7 31.1,58.7 32.3,59.7 33.5,60.7 34.7,61.6 35.8,62.5 36.8,63.4 37.8,64.3 38.8,65.3 39.7,66.2 40.7,67.2 41.7,68.1 42.6,69.1 43.6,70.2 44.7,71.2 45.7,72.3 46.9,73.3 48.0,74.4 49.2,75.4 50.5,76.4 51.7,77.3 53.0,78.2 54.3,79.1 55.6,79.8 56.9,80.5 58.2,81.1 59.4,81.6 60.6,82.0 61.7,82.2 62.7,82.4 63.7,82.5 64.6,82.4 65.5,82.3 66.3,82.1 67.0,81.8 67.6,81.4 68.1,81.0 68.7,80.5 69.1,80.0 69.5,79.5 69.9,79.0 70.3,78.5 70.7,78.0 71.1,77.5 71.5,77.1 71.9,76.7 72.3,76.3 72.8,76.0 73.4,75.7 74.0,75.4 74.6,75.2 75.4,75.0 76.2,74.7 77.1,74.5 78.0,74.3 79.0,74.1 80.0,73.8 81.1,73.5 82.3,73.2 83.4,72.8 84.6,72.4 85.8,71.9 86.9,71.4 88.0,70.8 89.1,70.2 90.1,69.5 91.0,68.8 91.8,68.0 92.4,67.2 93.0,66.4 93.4,65.5 93.6,64.7 93.7,63.8 93.7,63.0 93.5,62.2 93.1,61.4 92.7,60.6 92.1,59.8 91.4,59.1 90.7,58.4 89.8,57.8 88.9,57.2 88.0,56.6 87.1,56.0 86.1,55.5 85.1,54.9 84.2,54.4 83.2,53.9 82.2,53.4 81.3,52.9 80.3,52.3 79.3,51.7 78.3,51.2 77.3,50.5 76.1,49.9 74.9,49.2 73.6,48.5 72.2,47.8 70.7,47.0 69.1,46.3 67.3,45.5 65.4,44.8 63.3,44.1 61.2,43.3 58.9,42.7 56.6,42.0 54.2,41.4 51.7,40.9 49.3,40.5 46.9,40.1 44.5,39.8 42.3,39.6 40.1,39.5 38.1,39.4 36.2,39.5 34.6,39.6 33.0,39.8 31.7,40.0 30.6,40.4 29.7,40.7 28.9,41.2 28.4,41.6 27.9,42.1 27.6,42.5 27.4,43.0 27.3,43.5 27.2,44.0 27.2,44.4 27.2,44.8 27.2,45.2 27.2,45.6 27.2,45.9 27.2,46.2 27.1,46.5 27.1,46.8 27.0,47.0 27.0,47.3 27.0,47.6 27.0,47.9 27.1,48.2 27.3,48.6 27.5,49.0 27.9,49.4 28.4,49.9 29.0,50.5 29.8,51.2 30.7,51.9 31.7,52.7 32.9,53.5 34.2,54.4 35.6,55.3 37.2,56.3 38.8,57.4 40.4,58.4 42.1,59.5 43.8,60.5 45.6,61.6 47.2,62.6 48.9,63.6 50.5,64.6 52.0,65.5 53.5,66.4 54.9,67.2 56.2,68.0 57.4,68.8 58.5,69.5 59.5,70.2 60.4,70.8 61.3,71.5 62.2,72.1 62.9,72.7 63.7,73.4 64.4,74.0 65.0,74.7 65.7,75.4 66.4,76.2 67.1,76.9 67.8,77.8 68.5,78.6 69.2,79.5 70.0,80.4 70.8,81.4 71.6,82.3 72.4,83.3 73.3,84.2 74.2,85.0 75.1,85.9 76.0,86.6 76.9,87.3 77.8,87.8 78.7,88.3 79.6,88.6 80.4,88.8 81.2,88.9 82.0,88.8 82.7,88.6 83.4,88.2 84.0,87.7 84.5,87.1 85.0,86.4 85.3,85.5 85.7,84.6 85.9,83.6 86.1,82.5 86.2,81.4 86.3,80.3 86.4,79.1 86.4,78.0 86.4,76.8 86.4,75.7 86.4,74.6 86.4,73.5 86.4,72.5 86.5,71.4" class="rope"/>
    <rect x="16.1" y="48.8" width="20" height="6" rx="3" transform="rotate(117.5 26.1 51.8)" fill="#f8f7f2"/><rect x="80.2" y="81.7" width="20" height="6" rx="3" transform="rotate(136.3 90.2 84.7)" fill="#f8f7f2"/><rect x="41.2" y="30.2" width="20" height="6" rx="3" transform="rotate(155.0 51.2 33.2)" fill="#f8f7f2"/><rect x="32.3" y="70.2" width="20" height="6" rx="3" transform="rotate(173.8 42.3 73.2)" fill="#f8f7f2"/><rect x="28.6" y="29.2" width="20" height="6" rx="3" transform="rotate(152.5 38.6 32.2)" fill="#f8f7f2"/><rect x="45.6" y="78.8" width="20" height="6" rx="3" transform="rotate(171.3 55.6 81.8)" fill="#f8f7f2"/><rect x="77.7" y="54.0" width="20" height="6" rx="3" transform="rotate(10.0 87.7 57.0)" fill="#f8f7f2"/><rect x="15.3" y="39.4" width="20" height="6" rx="3" transform="rotate(28.8 25.3 42.4)" fill="#f8f7f2"/>
    <polyline points="86.5,71.4 86.6,70.4 86.7,69.4 86.9,68.5 87.1,67.5 87.3,66.4 87.5,65.4 87.8,64.3 88.0,63.2 88.2,62.1 88.3,60.8 88.3,59.6 88.2,58.2 88.0,56.8 87.7,55.3 87.2,53.8 86.5,52.3 85.7,50.7 84.6,49.1 83.4,47.5 82.0,45.9 80.4,44.4 78.6,42.9 76.7,41.5 74.6,40.2 72.5,38.9 70.3,37.8 68.0,36.8 65.7,36.0 63.4,35.2 61.2,34.6 58.9,34.1 56.8,33.8 54.7,33.5 52.8,33.3 50.9,33.2 49.1,33.2 47.4,33.2 45.8,33.3 44.3,33.3 42.8,33.4 41.4,33.5 40.0,33.5 38.6,33.5 37.2,33.5 35.8,33.4 34.4,33.3 33.0,33.2 31.6,33.1 30.1,32.9 28.7,32.8 27.2,32.7 25.8,32.6 24.4,32.6 23.1,32.6 21.9,32.8 20.8,33.0 19.9,33.4 19.1,33.8 18.5,34.5 18.1,35.2 18.0,36.1 18.1,37.2 18.4,38.4 18.9,39.7 19.7,41.1 20.6,42.6 21.8,44.2 23.2,45.9 24.7,47.6 26.3,49.3 28.1,51.0 29.9,52.8 31.8,54.5 33.7,56.1 35.6,57.7 37.4,59.3 39.3,60.8 41.0,62.2 42.7,63.6 44.3,64.9 45.9,66.2 47.3,67.4 48.7,68.6 50.0,69.8 51.2,71.0 52.4,72.2 53.5,73.4 54.5,74.6 55.5,75.9 56.6,77.2 57.5,78.5 58.5,79.9 59.5,81.3 60.5,82.8 61.4,84.2 62.4,85.6 63.4,87.1 64.4,88.4 65.3,89.8 66.3,91.0 67.2,92.2 68.1,93.2 69.0,94.1 69.9,94.8 70.7,95.4 71.5,95.8 72.2,96.0 72.9,96.1 73.5,96.0 74.1,95.6 74.6,95.1 75.1,94.5 75.5,93.7 75.9,92.8 76.3,91.8 76.6,90.7 76.9,89.5 77.1,88.2 77.4,87.0 77.6,85.7 77.9,84.4 78.2,83.2 78.5,82.0 78.8,80.8 79.2,79.7 79.6,78.5 80.1,77.5 80.7,76.4 81.3,75.4 82.0,74.4 82.8,73.4 83.6,72.4 84.5,71.4 85.5,70.3 86.5,69.2 87.6,68.1 88.6,66.9 89.6,65.6 90.7,64.2 91.6,62.8 92.5,61.3 93.3,59.8 94.0,58.2 94.5,56.6 94.8,55.0 95.0,53.4 95.0,51.8 94.8,50.2 94.4,48.7 93.8,47.2 93.0,45.9 92.0,44.6 90.8,43.4 89.5,42.3 88.0,41.4 86.4,40.6 84.7,39.8 82.9,39.2 81.1,38.7 79.2,38.3 77.3,38.0 75.5,37.7 73.6,37.5 71.7,37.4 69.9,37.2 68.1,37.1 66.3,37.0 64.5,36.8 62.7,36.7 60.9,36.5 59.1,36.3 57.3,36.0 55.4,35.7 53.5,35.4 51.5,35.1 49.5,34.7 47.4,34.4 45.2,34.1 42.9,33.9 40.7,33.7 38.4,33.5 36.1,33.4 33.8,33.5 31.6,33.6 29.5,33.9 27.4,34.2 25.6,34.7 23.8,35.3 22.3,36.1 21.0,36.9 19.9,37.9 19.1,39.0 18.5,40.1 18.2,41.3 18.1,42.6 18.3,43.9 18.7,45.3 19.3,46.7 20.1,48.0 21.0,49.4 22.1,50.7 23.3,52.0 24.5,53.2 25.9,54.4 27.2,55.6 28.5,56.7 29.8,57.7 31.1,58.7 32.3,59.7 33.5,60.7 34.7,61.6 35.8,62.5 36.8,63.4 37.8,64.3 38.8,65.3 39.7,66.2 40.7,67.2 41.7,68.1 42.6,69.1 43.6,70.2 44.7,71.2 45.7,72.3 46.9,73.3 48.0,74.4 49.2,75.4 50.5,76.4 51.7,77.3 53.0,78.2 54.3,79.1 55.6,79.8 56.9,80.5 58.2,81.1 59.4,81.6 60.6,82.0 61.7,82.2 62.7,82.4 63.7,82.5 64.6,82.4 65.5,82.3 66.3,82.1 67.0,81.8 67.6,81.4 68.1,81.0 68.7,80.5 69.1,80.0 69.5,79.5 69.9,79.0 70.3,78.5 70.7,78.0 71.1,77.5 71.5,77.1 71.9,76.7 72.3,76.3 72.8,76.0 73.4,75.7 74.0,75.4 74.6,75.2 75.4,75.0 76.2,74.7 77.1,74.5 78.0,74.3 79.0,74.1 80.0,73.8 81.1,73.5 82.3,73.2 83.4,72.8 84.6,72.4 85.8,71.9 86.9,71.4 88.0,70.8 89.1,70.2 90.1,69.5 91.0,68.8 91.8,68.0 92.4,67.2 93.0,66.4 93.4,65.5 93.6,64.7 93.7,63.8 93.7,63.0 93.5,62.2 93.1,61.4 92.7,60.6 92.1,59.8 91.4,59.1 90.7,58.4 89.8,57.8 88.9,57.2 88.0,56.6 87.1,56.0 86.1,55.5 85.1,54.9 84.2,54.4 83.2,53.9 82.2,53.4 81.3,52.9 80.3,52.3 79.3,51.7 78.3,51.2 77.3,50.5 76.1,49.9 74.9,49.2 73.6,48.5 72.2,47.8 70.7,47.0 69.1,46.3 67.3,45.5 65.4,44.8 63.3,44.1 61.2,43.3 58.9,42.7 56.6,42.0 54.2,41.4 51.7,40.9 49.3,40.5 46.9,40.1 44.5,39.8 42.3,39.6 40.1,39.5 38.1,39.4 36.2,39.5 34.6,39.6 33.0,39.8 31.7,40.0 30.6,40.4 29.7,40.7 28.9,41.2 28.4,41.6 27.9,42.1 27.6,42.5 27.4,43.0 27.3,43.5 27.2,44.0 27.2,44.4 27.2,44.8 27.2,45.2 27.2,45.6 27.2,45.9 27.2,46.2 27.1,46.5 27.1,46.8 27.0,47.0 27.0,47.3 27.0,47.6 27.0,47.9 27.1,48.2 27.3,48.6 27.5,49.0 27.9,49.4 28.4,49.9 29.0,50.5 29.8,51.2 30.7,51.9 31.7,52.7 32.9,53.5 34.2,54.4 35.6,55.3 37.2,56.3 38.8,57.4 40.4,58.4 42.1,59.5 43.8,60.5 45.6,61.6 47.2,62.6 48.9,63.6 50.5,64.6 52.0,65.5 53.5,66.4 54.9,67.2 56.2,68.0 57.4,68.8 58.5,69.5 59.5,70.2 60.4,70.8 61.3,71.5 62.2,72.1 62.9,72.7 63.7,73.4 64.4,74.0 65.0,74.7 65.7,75.4 66.4,76.2 67.1,76.9 67.8,77.8 68.5,78.6 69.2,79.5 70.0,80.4 70.8,81.4 71.6,82.3 72.4,83.3 73.3,84.2 74.2,85.0 75.1,85.9 76.0,86.6 76.9,87.3 77.8,87.8 78.7,88.3 79.6,88.6 80.4,88.8 81.2,88.9 82.0,88.8 82.7,88.6 83.4,88.2 84.0,87.7 84.5,87.1 85.0,86.4 85.3,85.5 85.7,84.6 85.9,83.6 86.1,82.5 86.2,81.4 86.3,80.3 86.4,79.1 86.4,78.0 86.4,76.8 86.4,75.7 86.4,74.6 86.4,73.5 86.4,72.5 86.5,71.4" class="highlight"/>
  
</svg>