<svg xmlns="http://www.w3.org/2000/svg" viewBox="0 0 120 120" role="img">
  <rect width="120" height="120" rx="10" fill="#f8f7f2"/>
  <style>
    .shadow{fill:none;stroke:#4a4f56;stroke-width:13;stroke-linecap:round;stroke-linejoin:round;opacity:.22}
    .rope{fill:none;stroke:#1778bd;stroke-width:8;stroke-linecap:round;stroke-linejoin:round}
    .highlight{fill:none;stroke:#4fb1f0;stroke-width:2.2;stroke-linecap:round;stroke-linejoin:round;opacity:.85}
  </style>
  
    <polyline points="86.3,68.1 86.7,66.8 87.2,65.5 87.5,64.1 87.7,62.6 87.8,61.1 87.8,59.5 87.5,57.8 87.1,56.1 86.5,54.3 85.7,52.4 84.6,50.6 83.3,48.7 81.8,46.8 80.0,44.9 78.0,43.1 75.7,41.3 73.3,39.6 70.6,38.0 67.8,36.4 64.9,35.0 61.9,33.7 58.8,32.6 55.7,31.6 52.6,30.8 49.6,30.1 46.6,29.6 43.8,29.3 41.2,29.1 38.7,29.1 36.4,29.3 34.3,29.6 32.4,30.1 30.8,30.6 29.4,31.3 28.3,32.1 27.3,33.0 26.6,34.0 26.1,35.0 25.8,36.1 25.7,37.2 25.7,38.3 25.8,39.5 26.1,40.7 26.5,42.0 27.0,43.2 27.6,44.5 28.3,45.8 29.1,47.2 30.0,48.5 31.0,50.0 32.0,51.4 33.1,53.0 34.3,54.5 35.6,56.2 37.0,57.9 38.5,59.7 40.1,61.6 41.7,63.5 43.4,65.4 45.2,67.5 47.1,69.5 49.0,71.6 50.9,73.7 52.8,75.8 54.7,77.9 56.6,79.9 58.5,81.9 60.3,83.8 62.0,85.6 63.7,87.3 65.3,88.8 66.8,90.2 68.2,91.4 69.4,92.4 70.6,93.3 71.7,93.9 72.6,94.4 73.5,94.6 74.3,94.7 74.9,94.5 75.5,94.2 76.1,93.7 76.6,93.1 77.0,92.3 77.4,91.4 77.7,90.3 78.1,89.2 78.4,87.9 78.8,86.6 79.1,85.3 79.4,83.8 79.8,82.4 80.2,80.9 80.6,79.4 81.0,77.9 81.4,76.4 81.9,74.9 82.4,73.3 83.0,71.8 83.5,70.2 84.1,68.6 84.6,67.0 85.2,65.3 85.8,63.6 86.3,61.8 86.7,60.0 87.2,58.2 87.5,56.3 87.7,54.3 87.8,52.3 87.8,50.3 87.5,48.2 87.1,46.2 86.5,44.1 85.7,42.1 84.6,40.1 83.3,38.1 81.8,36.2 80.0,34.4 78.0,32.7 75.7,31.1 73.3,29.7 70.6,28.4 67.8,27.4 64.9,26.5 61.9,25.7 58.8,25.2 55.7,24.9 52.6,24.8 49.6,24.9 46.6,25.2 43.8,25.7 41.2,26.3 38.7,27.2 36.4,28.1 34.3,29.2 32.4,30.4 30.8,31.8 29.4,33.2 28.3,34.6 27.3,36.1 26.6,37.7 26.1,39.3 25.8,40.9 25.7,42.5 25.7,44.1 25.8,45.7 26.1,47.3 26.5,48.9 27.0,50.4 27.6,52.0 28.3,53.6 29.1,55.2 30.0,56.8 31.0,58.4 32.0,60.1 33.1,61.8 34.3,63.5 35.6,65.2 37.0,66.9 38.5,68.7 40.1,70.5 41.7,72.3 43.4,74.1 45.2,75.9 47.1,77.7 49.0,79.4 50.9,81.1 52.8,82.7 54.7,84.3 56.6,85.7 58.5,87.0 60.3,88.2 62.0,89.3 63.7,90.2 65.3,90.9 66.8,91.4 68.2,91.8 69.4,92.0 70.6,92.0 71.7,91.8 72.6,91.5 73.5,91.0 74.3,90.3 74.9,89.5 75.5,88.6 76.1,87.5 76.6,86.3 77.0,85.1 77.4,83.7 77.7,82.4 78.1,80.9 78.4,79.5 78.8,78.0 79.1,76.5 79.4,75.1 79.8,73.6 80.2,72.1 80.6,70.7 81.0,69.3 81.4,67.9 81.9,66.5 82.4,65.1 83.0,63.7 83.5,62.4 84.1,61.0 84.6,59.7 85.2,58.3 85.8,56.9 86.3,55.6 86.7,54.2 87.2,52.8 87.5,51.3 87.7,49.9 87.8,48.5 87.8,47.1 87.5,45.7 87.1,44.3 86.5,43.0 85.7,41.7 84.6,40.4 83.3,39.3 81.8,38.2 80.0,37.2 78.0,36.3 75.7,35.6 73.3,34.9 70.6,34.4 67.8,34.0 64.9,33.8 61.9,33.7 58.8,33.8 55.7,33.9 52.6,34.3 49.6,34.7 46.6,35.3 43.8,35.9 41.2,36.7 38.7,37.6 36.4,38.5 34.3,39.5 32.4,40.6 30.8,41.7 29.4,42.8 28.3,43.9 27.3,45.1 26.6,46.2 26.1,47.4 25.8,48.5 25.7,49.6 25.7,50.7 25.8,51.8 26.1,52.9 26.5,53.9 27.0,55.0 27.6,56.0 28.3,57.0 29.1,58.0 30.0,59.0 31.0,60.0 32.0,61.1 33.1,62.1 34.3,63.1 35.6,64.2 37.0,65.2 38.5,66.3 40.1,67.4 41.7,68.5 43.4,69.5 45.2,70.6 47.1,71.7 49.0,72.7 50.9,73.7 52.8,74.7 54.7,75.6 56.6,76.5 58.5,77.3 60.3,78.1 62.0,78.7 63.7,79.3 65.3,79.8 66.8,80.2 68.2,80.5 69.4,80.7 70.6,80.8 71.7,80.9 72.6,80.8 73.5,80.6 74.3,80.3 74.9,80.0 75.5,79.5 76.1,79.0 76.6,78.5 77.0,77.9 77.4,77.2 77.7,76.5 78.1,75.8 78.4,75.0 78.8,74.3 79.1,73.5 79.4,72.7 79.8,71.9 80.2,71.1 80.6,70.4 81.0,69.6 81.4,68.8 81.9,68.1 82.4,67.3 83.0,66.6 83.5,65.8 84.1,65.0 84.6,64.3 85.2,63.5 85.8,62.7 86.3,61.8 86.7,61.0 87.2,60.1 87.5,59.2 87.7,58.2 87.8,57.3 87.8,56.3 87.5,55.2 87.1,54.2 86.5,53.1 85.7,52.0 84.6,51.0 83.3,49.9 81.8,48.8 80.0,47.8 78.0,46.7 75.7,45.8 73.3,44.8 70.6,43.9 67.8,43.1 64.9,42.4 61.9,41.7 58.8,41.1 55.7,40.6 52.6,40.2 49.6,39.9 46.6,39.7 43.8,39.5 41.2,39.5 38.7,39.5 36.4,39.7 34.3,39.9 32.4,40.2 30.8,40.5 29.4,41.0 28.3,41.4 27.3,41.9 26.6,42.5 26.1,43.1 25.8,43.7 25.7,44.3 25.7,45.0 25.8,45.7 26.1,46.4 26.5,47.0 27.0,47.8 27.6,48.5 28.3,49.2 29.1,50.0 30.0,50.8 31.0,51.6 32.0,52.4 33.1,53.3 34.3,54.2 35.6,55.2 37.0,56.2 38.5,57.3 40.1,58.4 41.7,59.6 43.4,60.9 45.2,62.2 47.1,63.5 49.0,64.9 50.9,66.3 52.8,67.8 54.7,69.3 56.6,70.7 58.5,72.2 60.3,73.6 62.0,75.1 63.7,76.4 65.3,77.7 66.8,79.0 68.2,80.1 69.4,81.2 70.6,82.1 71.7,82.9 72.6,83.6 73.5,84.2 74.3,84.7 74.9,85.0 75.5,85.2 76.1,85.3 76.6,85.2 77.0,85.1 77.4,84.8 77.7,84.4 78.1,84.0 78.4,83.5 78.8,82.9 79.1,82.2 79.4,81.5 79.8,80.7 80.2,79.9 80.6,79.1 81.0,78.3 81.4,77.4 81.9,76.5 82.4,75.5 83.0,74.6 83.5,73.6 84.1,72.6 84.6,71.5 85.2,70.4 85.8,69.3 86.3,68.1" class="shadow"/>
    <polyline points="86.3,68.1 86.7,66.8 87.2,65.5 87.5,64.1 87.7,62.6 87.8,61.1 87.8,59.5 87.5,57.8 87.1,56.1 86.5,54.3 85.7,52.4 84.6,50.6 83.3,48.7 81.8,46.8 80.0,44.9 78.0,43.1 75.7,41.3 73.3,39.6 70.6,38.0 67.8,36.4 64.9,35.0 61.9,33.7 58.8,32.6 55.7,31.6 52.6,30.8 49.6,30.1 46.6,29.6 43.8,29.3 41.2,29.1 38.7,29.1 36.4,29.3 34.3,29.6 32.4,30.1 30.8,30.6 29.4,31.3 28.3,32.1 27.3,33.0 26.6,34.0 26.1,35.0 25.8,36.1 25.7,37.2 25.7,38.3 25.8,39.5 26.1,40.7 26.5,42.0 27.0,43.2 27.6,44.5 28.3,45.8 29.1,47.2 30.0,48.5 31.0,50.0 32.0,51.4 33.1,53.0 34.3,54.5 35.6,56.2 37.0,57.9 38.5,59.7 40.1,61.6 41.7,63.5 43.4,65.4 45.2,67.5 47.1,69.5 49.0,71.6 50.9,73.7 52.8,75.8 54.7,77.9 56.6,79.9 58.5,81.9 60.3,83.8 62.0,85.6 63.7,87.3 65.3,88.8 66.8,90.2 68.2,91.4 69.4,92.4 70.6,93.3 71.7,93.9 72.6,94.4 73.5,94.6 74.3,94.7 74.9,94.5 75.5,94.2 76.1,93.7 76.6,93.1 77.0,92.3 77.4,91.4 77.7,90.3 78.1,89.2 78.4,87.9 78.8,86.6 79.1,85.3 79.4,83.8 79.8,82.4 80.2,80.9 80.6,79.4 81.0,77.9 81.4,76.4 81.9,74.9 82.4,73.3 83.0,71.8 83.5,70.2 84.1,68.6 84.6,67.0 85.2,65.3 85.8,63.6 86.3,61.8 86.7,60.0 87.2,58.2 87.5,56.3 87.7,54.3 87.8,52.3 87.8,50.3 87.5,48.2 87.1,46.2 86.5,44.1 85.7,42.1 84.6,40.1 83.3,38.1 81.8,36.2 80.0,34.4 78.0,32.7 75.7,31.1 73.3,29.7 70.6,28.4 67.8,27.4 64.9,26.5 61.9,25.7 58.8,25.2 55.7,24.9 52.6,24.8 49.6,24.9 46.6,25.2 43.8,25.7 41.2,26.3 38.7,27.2 36.4,28.1 34.3,29.2 32.4,30.4 30.8,31.8 29.4,33.2 28.3,34.6 27.3,36.1 26.6,37.7 26.1,39.3 25.8,40.9 25.7,42.5 25.7,44.1 25.8,45.7 26.1,47.3 26.5,48.9 27.0,50.4 27.6,52.0 28.3,53.6 29.1,55.2 30.0,56.8 31.0,58.4 32.0,60.1 33.1,61.8 34.3,63.5 35.6,65.2 37.0,66.9 38.5,68.7 40.1,70.5 41.7,72.3 43.4,74.1 45.2,75.9 47.1,77.7 49.0,79.4 50.9,81.1 52.8,82.7 54.7,84.3 56.6,85.7 58.5,87.0 60.3,88.2 62.0,89.3 63.7,90.2 65.3,90.9 66.8,91.4 68.2,91.8 69.4,92.0 70.6,92.0 71.7,91.8 72.6,91.5 73.5,91.0 74.3,90.3 74.9,89.5 75.5,88.6 76.1,87.5 76.6,86.3 77.0,85.1 77.4,83.7 77.7,82.4 78.1,80.9 78.4,79.5 78.8,78.0 79.1,76.5 79.4,75.1 79.8,73.6 80.2,72.1 80.6,70.7 81.0,69.3 81.4,67.9 81.9,66.5 82.4,65.1 83.0,63.7 83.5,62.4 84.1,61.0 84.6,59.7 85.2,58.3 85.8,56.9 86.3,55.6 86.7,54.2 87.2,52.8 87.5,51.3 87.7,49.9 87.8,48.5 87.8,47.1 87.5,45.7 87.1,44.3 86.5,43.0 85.7,41.7 84.6,40.4 83.3,39.3 81.8,38.2 80.0,37.2 78.0,36.3 75.7,35.6 73.3,34.9 70.6,34.4 67.8,34.0 64.9,33.8 61.9,33.7 58.8,33.8 55.7,33.9 52.6,34.3 49.6,34.7 46.6,35.3 43.8,35.9 41.2,36.7 38.7,37.6 36.4,38.5 34.3,39.5 32.4,40.6 30.8,41.7 29.4,42.8 28.3,43.9 27.3,45.1 26.6,46.2 26.1,47.4 25.8,48.5 25.7,49.6 25.7,50.7 25.8,51.8 26.1,52.9 26.5,53.9 27.0,55.0 27.6,56.0 28.3,57.0 29.1,58.0 30.0,59.0 31.0,60.0 32.0,61.1 33.1,62.1 34.3,63.1 35.6,64.2 37.0,65.2 38.5,66.3 40.1,67.4 41.7,68.5 43.4,69.5 45.2,70.6 47.1,71.7 49.0,72.7 50.9,73.7 52.8,74.7 54.7,75.6 56.6,76.5 58.5,77.3 60.3,78.1 62.0,78.7 63.7,79.3 65.3,79.8 66.8,80.2 68.2,80.5 69.4,80.7 70.6,80.8 71.7,80.9 72.6,80.8 73.5,80.6 74.3,80.3 74.9,80.0 75.5,79.5 76.1,79.0 76.6,78.5 77.0,77.9 77.4,77.2 77.7,76.5 78.1,75.8 78.4,75.0 78.8,74.3 79.1,73.5 79.4,72.7 79.8,71.9 80.2,71.1 80.6,70.4 81.0,69.6 81.4,68.8 81.9,68.1 82.4,67.3 83.0,66.6 83.5,65.8 84.1,65.0 84.6,64.3 85.2,63.5 85.8,62.7 86.3,61.8 86.7,61.0 87.2,60.1 87.5,59.2 87.7,58.2 87.8,57.3 87.8,56.3 87.5,55.2 87.1,54.2 86.5,53.1 85.7,52.0 84.6,51.0 83.3,49.9 81.8,48.8 80.0,47.8 78.0,46.7 75.7,45.8 73.3,44.8 70.6,43.9 67.8,43.1 64.9,42.4 61.9,41.7 58.8,41.1 55.7,40.6 52.6,40.2 49.6,39.9 46.6,39.7 43.8,39.5 41.2,39.5 38.7,39.5 36.4,39.7 34.3,39.9 32.4,40.2 30.8,40.5 29.4,41.0 28.3,41.4 27.3,41.9 26.6,42.5 26.1,43.1 25.8,43.7 25.7,44.3 25.7,45.0 25.8,45.7 26.1,46.4 26.5,47.0 27.0,47.8 27.6,48.5 28.3,49.2 29.1,50.0 30.0,50.8 31.0,51.6 32.0,52.4 33.1,53.3 34.3,54.2 35.6,55.2 37.0,56.2 38.5,57.3 40.1,58.4 41.7,59.6 43.4,60.9 45.2,62.2 47.1,63.5 49.0,64.9 50.9,66.3 52.8,67.8 54.7,69.3 56.6,70.7 58.5,72.2 60.3,73.6 62.0,75.1 63.7,76.4 65.3,77.7 66.8,79.0 68.2,80.1 69.4,81.2 70.6,82.1 71.7,82.9 72.6,83.6 73.5,84.2 74.3,84.7 74.9,85.0 75.5,85.2 76.1,85.3 76.6,85.2 77.0,85.1 77.4,84.8 77.7,84.4 78.1,84.0 78.4,83.5 78.8,82.9 79.1,82.2 79.4,81.5 79.8,80.7 80.2,79.9 80.6,79.1 81.0,78.3 81.4,77.4 81.9,76.5 82.4,75.5 83.0,74.6 83.5,73.6 84.1,72.6 84.6,71.5 85.2,70.4 85.8,69.3 86.3,68.1" class="rope"/>
    <rect x="68.7" y="43.2" width="20" height="6" rx="3" transform="rotate(10.0 78.7 46.2)" fill="#f8f7f2"/><rect x="31.3" y="70.8" width="20" height="6" rx="3" transform="rotate(28.8 41.3 73.8)" fill="#f8f7f2"/><rect x="68.7" y="43.2" width="20" height="6" rx="3" transform="rotate(47.5 78.7 46.2)" fill="#f8f7f2"/><rect x="31.3" y="70.8" width="20" height="6" rx="3" transform="rotate(66.3 41.3 73.8)" fill="#f8f7f2"/><rect x="19.3" y="57.2" width="20" height="6" rx="3" transform="rotate(45.0 29.3 60.2)" fill="#f8f7f2"/><rect x="80.7" y="56.8" width="20" height="6" rx="3" transform="rotate(63.8 90.7 59.8)" fill="#f8f7f2"/><rect x="19.3" y="57.2" width="20" height="6" rx="3" transform="rotate(82.5 29.3 60.2)" fill="#f8f7f2"/><rect x="80.7" y="56.8" width="20" height="6" rx="3" transform="rotate(101.3 90.7 59.8)" fill="#f8f7f2"/>
    <polyline points="86.3,68.1 86.7,66.8 87.2,65.5 87.5,64.1 87.7,62.6 87.8,61.1 87.8,59.5 87.5,57.8 87.1,56.1 86.5,54.3 85.7,52.4 84.6,50.6 83.3,48.7 81.8,46.8 80.0,44.9 78.0,43.1 75.7,41.3 73.3,39.6 70.6,38.0 67.8,36.4 64.9,35.0 61.9,33.7 58.8,32.6 55.7,31.6 52.6,30.8 49.6,30.1 46.6,29.6 43.8,29.3 41.2,29.1 38.7,29.1 36.4,29.3 34.3,29.6 32.4,30.1 30.8,30.6 29.4,31.3 28.3,32.1 27.3,33.0 26.6,34.0 26.1,35.0 25.8,36.1 25.7,37.2 25.7,38.3 25.8,39.5 26.1,40.7 26.5,42.0 27.0,43.2 27.6,44.5 28.3,45.8 29.1,47.2 30.0,48.5 31.0,50.0 32.0,51.4 33.1,53.0 34.3,54.5 35.6,56.2 37.0,57.9 38.5,59.7 40.1,61.6 41.7,63.5 43.4,65.4 45.2,67.5 47.1,69.5 49.0,71.6 50.9,73.7 52.8,75.8 54.7,77.9 56.6,79.9 58.5,81.9 60.3,83.8 62.0,85.6 63.7,87.3 65.3,88.8 66.8,90.2 68.2,91.4 69.4,92.4 70.6,93.3 71.7,93.9 72.6,94.4 73.5,94.6 74.3,94.7 74.9,94.5 75.5,94.2 76.1,93.7 76.6,93.1 77.0,92.3 77.4,91.4 77.7,90.3 78.1,89.2 78.4,87.9 78.8,86.6 79.1,85.3 79.4,83.8 79.8,82.4 80.2,80.9 80.6,79.4 81.0,77.9 81.4,76.4 81.9,74.9 82.4,73.3 83.0,71.8 83.5,70.2 84.1,68.6 84.6,67.0 85.2,65.3 85.8,63.6 86.3,61.8 86.7,60.0 87.2,58.2 87.5,56.3 87.7,54.3 87.8,52.3 87.8,50.3 87.5,48.2 87.1,46.2 86.5,44.1 85.7,42.1 84.6,40.1 83.3,38.1 81.8,36.2 80.0,34.4 78.0,32.7 75.7,31.1 73.3,29.7 70.6,28.4 67.8,27.4 64.9,26.5 61.9,25.7 58.8,25.2 55.7,24.9 52.6,24.8 49.6,24.9 46.6,25.2 43.8,25.7 41.2,26.3 38.7,27.2 36.4,28.1 34.3,29.2 32.4,30.4 30.8,31.8 29.4,33.2 28.3,34.6 27.3,36.1 26.6,37.7 26.1,39.3 25.8,40.9 25.7,42.5 25.7,44.1 25.8,45.7 26.1,47.3 26.5,48.9 27.0,50.4 27.6,52.0 28.3,53.6 29.1,55.2 30.0,56.8 31.0,58.4 32.0,60.1 33.1,61.8 34.3,63.5 35.6,65.2 37.0,66.9 38.5,68.7 40.1,70.5 41.7,72.3 43.4,74.1 45.2,75.9 47.1,77.7 49.0,79.4 50.9,81.1 52.8,82.7 54.7,84.3 56.6,85.7 58.5,87.0 60.3,88.2 62.0,89.3 63.7,90.2 65.3,90.9 66.8,91.4 68.2,91.8 69.4,92.0 70.6,92.0 71.7,91.8 72.6,91.5 73.5,91.0 74.3,90.3 74.9,89.5 75.5,88.6 76.1,87.5 76.6,86.3 77.0,85.1 77.4,83.7 77.7,82.4 78.1,80.9 78.4,79.5 78.8,78.0 79.1,76.5 79.4,75.1 79.8,73.6 80.2,72.1 80.6,70.7 81.0,69.3 81.4,67.9 81.9,66.5 82.4,65.1 83.0,63.7 83.5,62.4 84.1,61.0 84.6,59.7 85.2,58.3 85.8,56.9 86.3,55.6 86.7,54.2 87.2,52.8 87.5,51.3 87.7,49.9 87.8,48.5 87.8,47.1 87.5,45.7 87.1,44.3 86.5,43.0 85.7,41.7 84.6,40.4 83.3,39.3 81.8,38.2 80.0,37.2 78.0,36.3 75.7,35.6 73.3,34.9 70.6,34.4 67.8,34.0 64.9,33.8 61.9,33.7 58.8,33.8 55.7,33.9 52.6,34.3 49.6,34.7 46.6,35.3 43.8,35.9 41.2,36.7 38.7,37.6 36.4,38.5 34.3,39.5 32.4,40.6 30.8,41.7 29.4,42.8 28.3,43.9 27.3,45.1 26.6,46.2 26.1,47.4 25.8,48.5 25.7,49.6 25.7,50.7 25.8,51.8 26.1,52.9 26.5,53.9 27.0,55.0 27.6,56.0 28.3,57.0 29.1,58.0 30.0,59.0 31.0,60.0 32.0,61.1 33.1,62.1 34.3,63.1 35.6,64.2 37.0,65.2 38.5,66.3 40.1,67.4 41.7,68.5 43.4,69.5 45.2,70.6 47.1,71.7 49.0,72.7 50.9,73.7 52.8,74.7 54.7,75.6 56.6,76.5 58.5,77.3 60.3,78.1 62.0,78.7 63.7,79.3 65.3,79.8 66.8,80.2 68.2,80.5 69.4,80.7 70.6,80.8 71.7,80.9 72.6,80.8 73.5,80.6 74.3,80.3 74.9,80.0 75.5,79.5 76.1,79.0 76.6,78.5 77.0,77.9 77.4,77.2 77.7,76.5 78.1,75.8 78.4,75.0 78.8,74.3 79.1,73.5 79.4,72.7 79.8,71.9 80.2,71.1 80.6,70.4 81.0,69.6 81.4,68.8 81.9,68.1 82.4,67.3 83.0,66.6 83.5,65.8 84.1,65.0 84.6,64.3 85.2,63.5 85.8,62.7 86.3,61.8 86.7,61.0 87.2,60.1 87.5,59.2 87.7,58.2 87.8,57.3 87.8,56.3 87.5,55.2 87.1,54.2 86.5,53.1 85.7,52.0 84.6,51.0 83.3,49.9 81.8,48.8 80.0,47.8 78.0,46.7 75.7,45.8 73.3,44.8 70.6,43.9 67.8,43.1 64.9,42.4 61.9,41.7 58.8,41.1 55.7,40.6 52.6,40.2 49.6,39.9 46.6,39.7 43.8,39.5 41.2,39.5 38.7,39.5 36.4,39.7 34.3,39.9 32.4,40.2 30.8,40.5 29.4,41.0 28.3,41.4 27.3,41.9 26.6,42.5 26.1,43.1 25.8,43.7 25.7,44.3 25.7,45.0 25.8,45.7 26.1,46.4 26.5,47.0 27.0,47.8 27.6,48.5 28.3,49.2 29.1,50.0 30.0,50.8 31.0,51.6 32.0,52.4 33.1,53.3 34.3,54.2 35.6,55.2 37.0,56.2 38.5,57.3 40.1,58.4 41.7,59.6 43.4,60.9 45.2,62.2 47.1,63.5 49.0,64.9 50.9,66.3 52.8,67.8 54.7,69.3 56.6,70.7 58.5,72.2 60.3,73.6 62.0,75.1 63.7,76.4 65.3,77.7 66.8,79.0 68.2,80.1 69.4,81.2 70.6,82.1 71.7,82.9 72.6,83.6 73.5,84.2 74.3,84.7 74.9,85.0 75.5,85.2 76.1,85.3 76.6,85.2 77.0,85.1 77.4,84.8 77.7,84.4 78.1,84.0 78.4,83.5 78.8,82.9 79.1,82.2 79.4,81.5 79.8,80.7 80.2,79.9 80.6,79.1 81.0,78.3 81.4,77.4 81.9,76.5 82.4,75.5 83.0,74.6 83.5,73.6 84.1,72.6 84.6,71.5 85.2,70.4 85.8,69.3 86.3,68.1" class="highlight"/>
  
</svg>