<svg xmlns="http://www.w3.org/2000/svg" viewBox="0 0 120 120" role="img">
  <rect width="120" height="120" rx="10" fill="#f8f7f2"/>
  <style>
    .shadow{fill:none;stroke:#4a4f56;stroke-width:13;stroke-linecap:round;stroke-linejoin:round;opacity:.22}
    .rope{fill:none;stroke:#1778bd;stroke-width:8;stroke-linecap:round;stroke-linejoin:round}
    .highlight{fill:none;stroke:#4fb1f0;stroke-width:2.2;stroke-linecap:round;stroke-linejoin:round;opacity:.85}
  </style>
  
    <polyline points="88.4,64.9 88.8,63.0 89.0,61.1 89.0,59.0 88.7,56.8 88.1,54.7 87.2,52.4 85.9,50.2 84.3,48.0 82.3,45.9 80.0,43.8 77.4,41.9 74.5,40.1 71.3,38.4 68.0,36.9 64.5,35.6 60.9,34.6 57.3,33.7 53.7,33.0 50.3,32.6 46.9,32.4 43.8,32.3 40.8,32.5 38.1,32.8 35.7,33.3 33.6,33.9 31.7,34.6 30.1,35.5 28.8,36.4 27.8,37.5 27.0,38.6 26.5,39.7 26.2,40.9 26.1,42.2 26.2,43.5 26.5,44.9 27.0,46.3 27.6,47.9 28.5,49.4 29.6,51.1 30.9,52.9 32.3,54.8 34.0,56.8 35.9,58.8 37.9,61.0 40.1,63.3 42.5,65.6 45.0,68.0 47.6,70.5 50.2,73.0 52.9,75.4 55.6,77.8 58.2,80.2 60.8,82.4 63.3,84.6 65.6,86.5 67.7,88.3 69.7,89.8 71.5,91.1 73.1,92.2 74.4,92.9 75.6,93.4 76.6,93.7 77.5,93.6 78.1,93.3 78.7,92.7 79.2,91.9 79.5,90.9 79.8,89.7 80.1,88.4 80.3,86.9 80.5,85.3 80.7,83.6 80.9,81.8 81.1,79.9 81.4,78.0 81.7,76.1 82.0,74.2 82.3,72.2 82.6,70.3 83.0,68.3 83.4,66.2 83.7,64.2 84.0,62.1 84.3,60.0 84.5,57.8 84.6,55.6 84.6,53.3 84.4,51.0 84.0,48.6 83.4,46.2 82.5,43.9 81.4,41.5 79.9,39.1 78.1,36.8 76.0,34.6 73.6,32.6 70.8,30.6 67.8,28.9 64.4,27.3 60.9,26.0 57.2,25.0 53.4,24.2 49.5,23.7 45.7,23.6 41.9,23.7 38.3,24.1 35.0,24.8 31.9,25.8 29.1,27.1 26.7,28.6 24.8,30.3 23.2,32.2 22.1,34.2 21.4,36.4 21.1,38.7 21.2,41.0 21.7,43.3 22.4,45.7 23.5,48.1 24.8,50.4 26.4,52.8 28.1,55.0 29.9,57.3 31.9,59.5 33.9,61.6 36.1,63.8 38.2,65.9 40.4,67.9 42.6,70.0 44.9,72.0 47.2,74.0 49.4,76.0 51.7,78.0 54.0,80.0 56.3,81.9 58.5,83.8 60.7,85.6 62.8,87.3 64.9,88.9 66.9,90.3 68.8,91.6 70.6,92.6 72.3,93.5 73.9,94.1 75.3,94.5 76.7,94.6 77.9,94.4 78.9,93.9 79.9,93.1 80.7,92.1 81.5,90.8 82.2,89.2 82.8,87.4 83.3,85.5 83.8,83.3 84.2,81.0 84.6,78.6 84.9,76.1 85.2,73.6 85.5,71.1 85.6,68.6 85.8,66.1 85.8,63.7 85.8,61.3 85.8,59.1 85.6,56.9 85.4,54.9 85.1,52.9 84.6,51.0 84.1,49.3 83.5,47.6 82.8,46.0 82.0,44.5 81.0,43.0 79.9,41.6 78.6,40.2 77.1,38.9 75.5,37.7 73.6,36.5 71.5,35.4 69.2,34.4 66.6,33.5 63.8,32.7 60.8,32.0 57.5,31.5 54.1,31.1 50.5,31.0 46.9,31.0 43.1,31.2 39.4,31.7 35.7,32.4 32.2,33.3 28.8,34.5 25.8,35.8 23.0,37.4 20.7,39.2 18.7,41.1 17.2,43.2 16.2,45.3 15.8,47.6 15.8,49.9 16.2,52.3 17.2,54.6 18.6,57.0 20.3,59.2 22.4,61.4 24.7,63.5 27.3,65.4 30.0,67.3 32.8,69.0 35.7,70.6 38.5,72.1 41.4,73.4 44.2,74.6 46.9,75.7 49.5,76.6 51.9,77.5 54.3,78.3 56.5,79.1 58.6,79.7 60.6,80.3 62.5,80.8 64.3,81.3 65.9,81.7 67.5,82.1 69.0,82.3 70.5,82.5 71.8,82.6 73.1,82.6 74.3,82.5 75.5,82.2 76.6,81.8 77.7,81.3 78.8,80.6 79.8,79.7 80.8,78.7 81.8,77.6 82.8,76.3 83.7,74.8 84.6,73.2 85.5,71.5 86.3,69.7 87.1,67.9 87.9,66.0 88.5,64.0 89.1,62.1 89.6,60.2 89.9,58.3 90.1,56.5 90.1,54.8 89.9,53.1 89.6,51.6 89.0,50.2 88.3,49.0 87.3,47.8 86.2,46.8 84.8,45.9 83.3,45.2 81.6,44.5 79.8,44.0 77.8,43.5 75.7,43.1 73.4,42.9 71.1,42.6 68.6,42.5 66.1,42.3 63.4,42.2 60.7,42.2 57.9,42.2 54.9,42.3 51.9,42.3 48.8,42.5 45.7,42.7 42.5,42.9 39.4,43.3 36.2,43.7 33.1,44.2 30.1,44.8 27.3,45.5 24.7,46.3 22.4,47.2 20.3,48.2 18.6,49.3 17.4,50.5 16.5,51.7 16.1,53.1 16.2,54.5 16.8,56.0 17.8,57.5 19.3,59.0 21.1,60.5 23.4,62.0 25.9,63.5 28.7,64.9 31.7,66.3 34.9,67.5 38.1,68.7 41.3,69.8 44.5,70.8 47.6,71.7 50.6,72.5 53.4,73.2 56.0,73.7 58.5,74.2 60.7,74.6 62.7,74.9 64.5,75.2 66.1,75.3 67.6,75.5 68.8,75.5 70.0,75.6 71.0,75.6 72.0,75.6 72.9,75.5 73.7,75.4 74.5,75.3 75.2,75.2 76.0,75.0 76.8,74.8 77.6,74.5 78.5,74.2 79.4,73.8 80.3,73.4 81.3,72.9 82.3,72.3 83.4,71.6 84.5,70.8 85.6,69.9 86.6,68.9 87.7,67.8 88.7,66.7 89.6,65.4 90.4,64.1 91.0,62.8 91.4,61.4 91.6,59.9 91.6,58.5 91.3,57.1 90.7,55.6 89.8,54.3 88.6,52.9 87.1,51.6 85.3,50.4 83.3,49.3 81.0,48.3 78.5,47.4 75.8,46.5 72.9,45.8 70.0,45.2 66.9,44.7 63.8,44.2 60.8,43.9 57.7,43.6 54.7,43.4 51.7,43.3 48.9,43.2 46.1,43.2 43.4,43.2 40.8,43.2 38.4,43.3 36.0,43.4 33.8,43.6 31.7,43.8 29.8,44.0 28.0,44.3 26.4,44.6 25.0,45.0 23.8,45.5 22.9,46.1 22.3,46.8 22.0,47.6 22.0,48.5 22.3,49.5 23.1,50.6 24.2,51.8 25.6,53.2 27.4,54.7 29.5,56.2 31.9,57.8 34.5,59.5 37.3,61.3 40.3,63.1 43.3,64.9 46.4,66.6 49.5,68.4 52.6,70.1 55.5,71.7 58.2,73.2 60.8,74.6 63.2,75.9 65.3,77.1 67.2,78.1 68.9,79.0 70.4,79.7 71.6,80.3 72.7,80.7 73.5,81.0 74.3,81.2 74.9,81.3 75.4,81.3 75.8,81.2 76.2,81.0 76.6,80.7 77.0,80.4 77.4,80.0 77.9,79.5 78.3,79.0 78.9,78.4 79.5,77.8 80.2,77.1 80.9,76.4 81.7,75.5 82.6,74.6 83.5,73.6 84.4,72.4 85.3,71.2 86.2,69.8 87.0,68.3 87.8,66.6 88.4,64.9" class="shadow"/>
    <polyline points="88.4,64.9 88.8,63.0 89.0,61.1 89.0,59.0 88.7,56.8 88.1,54.7 87.2,52.4 85.9,50.2 84.3,48.0 82.3,45.9 80.0,43.8 77.4,41.9 74.5,40.1 71.3,38.4 68.0,36.9 64.5,35.6 60.9,34.6 57.3,33.7 53.7,33.0 50.3,32.6 46.9,32.4 43.8,32.3 40.8,32.5 38.1,32.8 35.7,33.3 33.6,33.9 31.7,34.6 30.1,35.5 28.8,36.4 27.8,37.5 27.0,38.6 26.5,39.7 26.2,40.9 26.1,42.2 26.2,43.5 26.5,44.9 27.0,46.3 27.6,47.9 28.5,49.4 29.6,51.1 30.9,52.9 32.3,54.8 34.0,56.8 35.9,58.8 37.9,61.0 40.1,63.3 42.5,65.6 45.0,68.0 47.6,70.5 50.2,73.0 52.9,75.4 55.6,77.8 58.2,80.2 60.8,82.4 63.3,84.6 65.6,86.5 67.7,88.3 69.7,89.8 71.5,91.1 73.1,92.2 74.4,92.9 75.6,93.4 76.6,93.7 77.5,93.6 78.1,93.3 78.7,92.7 79.2,91.9 79.5,90.9 79.8,89.7 80.1,88.4 80.3,86.9 80.5,85.3 80.7,83.6 80.9,81.8 81.1,79.9 81.4,78.0 81.7,76.1 82.0,74.2 82.3,72.2 82.6,70.3 83.0,68.3 83.4,66.2 83.7,64.2 84.0,62.1 84.3,60.0 84.5,57.8 84.6,55.6 84.6,53.3 84.4,51.0 84.0,48.6 83.4,46.2 82.5,43.9 81.4,41.5 79.9,39.1 78.1,36.8 76.0,34.6 73.6,32.6 70.8,30.6 67.8,28.9 64.4,27.3 60.9,26.0 57.2,25.0 53.4,24.2 49.5,23.7 45.7,23.6 41.9,23.7 38.3,24.1 35.0,24.8 31.9,25.8 29.1,27.1 26.7,28.6 24.8,30.3 23.2,32.2 22.1,34.2 21.4,36.4 21.1,38.7 21.2,41.0 21.7,43.3 22.4,45.7 23.5,48.1 24.8,50.4 26.4,52.8 28.1,55.0 29.9,57.3 31.9,59.5 33.9,61.6 36.1,63.8 38.2,65.9 40.4,67.9 42.6,70.0 44.9,72.0 47.2,74.0 49.4,76.0 51.7,78.0 54.0,80.0 56.3,81.9 58.5,83.8 60.7,85.6 62.8,87.3 64.9,88.9 66.9,90.3 68.8,91.6 70.6,92.6 72.3,93.5 73.9,94.1 75.3,94.5 76.7,94.6 77.9,94.4 78.9,93.9 79.9,93.1 80.7,92.1 81.5,90.8 82.2,89.2 82.8,87.4 83.3,85.5 83.8,83.3 84.2,81.0 84.6,78.6 84.9,76.1 85.2,73.6 85.5,71.1 85.6,68.6 85.8,66.1 85.8,63.7 85.8,61.3 85.8,59.1 85.6,56.9 85.4,54.9 85.1,52.9 84.6,51.0 84.1,49.3 83.5,47.6 82.8,46.0 82.0,44.5 81.0,43.0 79.9,41.6 78.6,40.2 77.1,38.9 75.5,37.7 73.6,36.5 71.5,35.4 69.2,34.4 66.6,33.5 63.8,32.7 60.8,32.0 57.5,31.5 54.1,31.1 50.5,31.0 46.9,31.0 43.1,31.2 39.4,31.7 35.7,32.4 32.2,33.3 28.8,34.5 25.8,35.8 23.0,37.4 20.7,39.2 18.7,41.1 17.2,43.2 16.2,45.3 15.8,47.6 15.8,49.9 16.2,52.3 17.2,54.6 18.6,57.0 20.3,59.2 22.4,61.4 24.7,63.5 27.3,65.4 30.0,67.3 32.8,69.0 35.7,70.6 38.5,72.1 41.4,73.4 44.2,74.6 46.9,75.7 49.5,76.6 51.9,77.5 54.3,78.3 56.5,79.1 58.6,79.7 60.6,80.3 62.5,80.8 64.3,81.3 65.9,81.7 67.5,82.1 69.0,82.3 70.5,82.5 71.8,82.6 73.1,82.6 74.3,82.5 75.5,82.2 76.6,81.8 77.7,81.3 78.8,80.6 79.8,79.7 80.8,78.7 81.8,77.6 82.8,76.3 83.7,74.8 84.6,73.2 85.5,71.5 86.3,69.7 87.1,67.9 87.9,66.0 88.5,64.0 89.1,62.1 89.6,60.2 89.9,58.3 90.1,56.5 90.1,54.8 89.9,53.1 89.6,51.6 89.0,50.2 88.3,49.0 87.3,47.8 86.2,46.8 84.8,45.9 83.3,45.2 81.6,44.5 79.8,44.0 77.8,43.5 75.7,43.1 73.4,42.9 71.1,42.6 68.6,42.5 66.1,42.3 63.4,42.2 60.7,42.2 57.9,42.2 54.9,42.3 51.9,42.3 48.8,42.5 45.7,42.7 42.5,42.9 39.4,43.3 36.2,43.7 33.1,44.2 30.1,44.8 27.3,45.5 24.7,46.3 22.4,47.2 20.3,48.2 18.6,49.3 17.4,50.5 16.5,51.7 16.1,53.1 16.2,54.5 16.8,56.0 17.8,57.5 19.3,59.0 21.1,60.5 23.4,62.0 25.9,63.5 28.7,64.9 31.7,66.3 34.9,67.5 38.1,68.7 41.3,69.8 44.5,70.8 47.6,71.7 50.6,72.5 53.4,73.2 56.0,73.7 58.5,74.2 60.7,74.6 62.7,74.9 64.5,75.2 66.1,75.3 67.6,75.5 68.8,75.5 70.0,75.6 71.0,75.6 72.0,75.6 72.9,75.5 73.7,75.4 74.5,75.3 75.2,75.2 76.0,75.0 76.8,74.8 77.6,74.5 78.5,74.2 79.4,73.8 80.3,73.4 81.3,72.9 82.3,72.3 83.4,71.6 84.5,70.8 85.6,69.9 86.6,68.9 87.7,67.8 88.7,66.7 89.6,65.4 90.4,64.1 91.0,62.8 91.4,61.4 91.6,59.9 91.6,58.5 91.3,57.1 90.7,55.6 89.8,54.3 88.6,52.9 87.1,51.6 85.3,50.4 83.3,49.3 81.0,48.3 78.5,47.4 75.8,46.5 72.9,45.8 70.0,45.2 66.9,44.7 63.8,44.2 60.8,43.9 57.7,43.6 54.7,43.4 51.7,43.3 48.9,43.2 46.1,43.2 43.4,43.2 40.8,43.2 38.4,43.3 36.0,43.4 33.8,43.6 31.7,43.8 29.8,44.0 28.0,44.3 26.4,44.6 25.0,45.0 23.8,45.5 22.9,46.1 22.3,46.8 22.0,47.6 22.0,48.5 22.3,49.5 23.1,50.6 24.2,51.8 25.6,53.2 27.4,54.7 29.5,56.2 31.9,57.8 34.5,59.5 37.3,61.3 40.3,63.1 43.3,64.9 46.4,66.6 49.5,68.4 52.6,70.1 55.5,71.7 58.2,73.2 60.8,74.6 63.2,75.9 65.3,77.1 67.2,78.1 68.9,79.0 70.4,79.7 71.6,80.3 72.7,80.7 73.5,81.0 74.3,81.2 74.9,81.3 75.4,81.3 75.8,81.2 76.2,81.0 76.6,80.7 77.0,80.4 77.4,80.0 77.9,79.5 78.3,79.0 78.9,78.4 79.5,77.8 80.2,77.1 80.9,76.4 81.7,75.5 82.6,74.6 83.5,73.6 84.4,72.4 85.3,71.2 86.2,69.8 87.0,68.3 87.8,66.6 88.4,64.9" class="rope"/>
    <rect x="67.4" y="84.9" width="20" height="6" rx="3" transform="rotate(82.5 77.4 87.9)" fill="#f8f7f2"/><rect x="16.2" y="39.0" width="20" height="6" rx="3" transform="rotate(101.3 26.2 42.0)" fill="#f8f7f2"/><rect x="80.4" y="54.5" width="20" height="6" rx="3" transform="rotate(120.0 90.4 57.5)" fill="#f8f7f2"/><rect x="40.8" y="78.5" width="20" height="6" rx="3" transform="rotate(138.8 50.8 81.5)" fill="#f8f7f2"/><rect x="71.7" y="84.2" width="20" height="6" rx="3" transform="rotate(117.5 81.7 87.2)" fill="#f8f7f2"/><rect x="15.2" y="42.4" width="20" height="6" rx="3" transform="rotate(136.3 25.2 45.4)" fill="#f8f7f2"/><rect x="77.5" y="50.4" width="20" height="6" rx="3" transform="rotate(155.0 87.5 53.4)" fill="#f8f7f2"/><rect x="45.9" y="80.9" width="20" height="6" rx="3" transform="rotate(173.8 55.9 83.9)" fill="#f8f7f2"/>
    <polyline points="88.4,64.9 88.8,63.0 89.0,61.1 89.0,59.0 88.7,56.8 88.1,54.7 87.2,52.4 85.9,50.2 84.3,48.0 82.3,45.9 80.0,43.8 77.4,41.9 74.5,40.1 71.3,38.4 68.0,36.9 64.5,35.6 60.9,34.6 57.3,33.7 53.7,33.0 50.3,32.6 46.9,32.4 43.8,32.3 40.8,32.5 38.1,32.8 35.7,33.3 33.6,33.9 31.7,34.6 30.1,35.5 28.8,36.4 27.8,37.5 27.0,38.6 26.5,39.7 26.2,40.9 26.1,42.2 26.2,43.5 26.5,44.9 27.0,46.3 27.6,47.9 28.5,49.4 29.6,51.1 30.9,52.9 32.3,54.8 34.0,56.8 35.9,58.8 37.9,61.0 40.1,63.3 42.5,65.6 45.0,68.0 47.6,70.5 50.2,73.0 52.9,75.4 55.6,77.8 58.2,80.2 60.8,82.4 63.3,84.6 65.6,86.5 67.7,88.3 69.7,89.8 71.5,91.1 73.1,92.2 74.4,92.9 75.6,93.4 76.6,93.7 77.5,93.6 78.1,93.3 78.7,92.7 79.2,91.9 79.5,90.9 79.8,89.7 80.1,88.4 80.3,86.9 80.5,85.3 80.7,83.6 80.9,81.8 81.1,79.9 81.4,78.0 81.7,76.1 82.0,74.2 82.3,72.2 82.6,70.3 83.0,68.3 83.4,66.2 83.7,64.2 84.0,62.1 84.3,60.0 84.5,57.8 84.6,55.6 84.6,53.3 84.4,51.0 84.0,48.6 83.4,46.2 82.5,43.9 81.4,41.5 79.9,39.1 78.1,36.8 76.0,34.6 73.6,32.6 70.8,30.6 67.8,28.9 64.4,27.3 60.9,26.0 57.2,25.0 53.4,24.2 49.5,23.7 45.7,23.6 41.9,23.7 38.3,24.1 35.0,24.8 31.9,25.8 29.1,27.1 26.7,28.6 24.8,30.3 23.2,32.2 22.1,34.2 21.4,36.4 21.1,38.7 21.2,41.0 21.7,43.3 22.4,45.7 23.5,48.1 24.8,50.4 26.4,52.8 28.1,55.0 29.9,57.3 31.9,59.5 33.9,61.6 36.1,63.8 38.2,65.9 40.4,67.9 42.6,70.0 44.9,72.0 47.2,74.0 49.4,76.0 51.7,78.0 54.0,80.0 56.3,81.9 58.5,83.8 60.7,85.6 62.8,87.3 64.9,88.9 66.9,90.3 68.8,91.6 70.6,92.6 72.3,93.5 73.9,94.1 75.3,94.5 76.7,94.6 77.9,94.4 78.9,93.9 79.9,93.1 80.7,92.1 81.5,90.8 82.2,89.2 82.8,87.4 83.3,85.5 83.8,83.3 84.2,81.0 84.6,78.6 84.9,76.1 85.2,73.6 85.5,71.1 85.6,68.6 85.8,66.1 85.8,63.7 85.8,61.3 85.8,59.1 85.6,56.9 85.4,54.9 85.1,52.9 84.6,51.0 84.1,49.3 83.5,47.6 82.8,46.0 82.0,44.5 81.0,43.0 79.9,41.6 78.6,40.2 77.1,38.9 75.5,37.7 73.6,36.5 71.5,35.4 69.2,34.4 66.6,33.5 63.8,32.7 60.8,32.0 57.5,31.5 54.1,31.1 50.5,31.0 46.9,31.0 43.1,31.2 39.4,31.7 35.7,32.4 32.2,33.3 28.8,34.5 25.8,35.8 23.0,37.4 20.7,39.2 18.7,41.1 17.2,43.2 16.2,45.3 15.8,47.6 15.8,49.9 16.2,52.3 17.2,54.6 18.6,57.0 20.3,59.2 22.4,61.4 24.7,63.5 27.3,65.4 30.0,67.3 32.8,69.0 35.7,70.6 38.5,72.1 41.4,73.4 44.2,74.6 46.9,75.7 49.5,76.6 51.9,77.5 54.3,78.3 56.5,79.1 58.6,79.7 60.6,80.3 62.5,80.8 64.3,81.3 65.9,81.7 67.5,82.1 69.0,82.3 70.5,82.5 71.8,82.6 73.1,82.6 74.3,82.5 75.5,82.2 76.6,81.8 77.7,81.3 78.8,80.6 79.8,79.7 80.8,78.7 81.8,77.6 82.8,76.3 83.7,74.8 84.6,73.2 85.5,71.5 86.3,69.7 87.1,67.9 87.9,66.0 88.5,64.0 89.1,62.1 89.6,60.2 89.9,58.3 90.1,56.5 90.1,54.8 89.9,53.1 89.6,51.6 89.0,50.2 88.3,49.0 87.3,47.8 86.2,46.8 84.8,45.9 83.3,45.2 81.6,44.5 79.8,44.0 77.8,43.5 75.7,43.1 73.4,42.9 71.1,42.6 68.6,42.5 66.1,42.3 63.4,42.2 60.7,42.2 57.9,42.2 54.9,42.3 51.9,42.3 48.8,42.5 45.7,42.7 42.5,42.9 39.4,43.3 36.2,43.7 33.1,44.2 30.1,44.8 27.3,45.5 24.7,46.3 22.4,47.2 20.3,48.2 18.6,49.3 17.4,50.5 16.5,51.7 16.1,53.1 16.2,54.5 16.8,56.0 17.8,57.5 19.3,59.0 21.1,60.5 23.4,62.0 25.9,63.5 28.7,64.9 31.7,66.3 34.9,67.5 38.1,68.7 41.3,69.8 44.5,70.8 47.6,71.7 50.6,72.5 53.4,73.2 56.0,73.7 58.5,74.2 60.7,74.6 62.7,74.9 64.5,75.2 66.1,75.3 67.6,75.5 68.8,75.5 70.0,75.6 71.0,75.6 72.0,75.6 72.9,75.5 73.7,75.4 74.5,75.3 75.2,75.2 76.0,75.0 76.8,74.8 77.6,74.5 78.5,74.2 79.4,73.8 80.3,73.4 81.3,72.9 82.3,72.3 83.4,71.6 84.5,70.8 85.6,69.9 86.6,68.9 87.7,67.8 88.7,66.7 89.6,65.4 90.4,64.1 91.0,62.8 91.4,61.4 91.6,59.9 91.6,58.5 91.3,57.1 90.7,55.6 89.8,54.3 88.6,52.9 87.1,51.6 85.3,50.4 83.3,49.3 81.0,48.3 78.5,47.4 75.8,46.5 72.9,45.8 70.0,45.2 66.9,44.7 63.8,44.2 60.8,43.9 57.7,43.6 54.7,43.4 51.7,43.3 48.9,43.2 46.1,43.2 43.4,43.2 40.8,43.2 38.4,43.3 36.0,43.4 33.8,43.6 31.7,43.8 29.8,44.0 28.0,44.3 26.4,44.6 25.0,45.0 23.8,45.5 22.9,46.1 22.3,46.8 22.0,47.6 22.0,48.5 22.3,49.5 23.1,50.6 24.2,51.8 25.6,53.2 27.4,54.7 29.5,56.2 31.9,57.8 34.5,59.5 37.3,61.3 40.3,63.1 43.3,64.9 46.4,66.6 49.5,68.4 52.6,70.1 55.5,71.7 58.2,73.2 60.8,74.6 63.2,75.9 65.3,77.1 67.2,78.1 68.9,79.0 70.4,79.7 71.6,80.3 72.7,80.7 73.5,81.0 74.3,81.2 74.9,81.3 75.4,81.3 75.8,81.2 76.2,81.0 76.6,80.7 77.0,80.4 77.4,80.0 77.9,79.5 78.3,79.0 78.9,78.4 79.5,77.8 80.2,77.1 80.9,76.4 81.7,75.5 82.6,74.6 83.5,73.6 84.4,72.4 85.3,71.2 86.2,69.8 87.0,68.3 87.8,66.6 88.4,64.9" class="highlight"/>
  
</svg>