<svg xmlns="http://www.w3.org/2000/svg" viewBox="0 0 120 120" role="img">
  <rect width="120" height="120" rx="10" fill="#f8f7f2"/>
  <style>
    .shadow{fill:none;stroke:#4a4f56;stroke-width:13;stroke-linecap:round;stroke-linejoin:round;opacity:.22}
    .rope{fill:none;stroke:#1778bd;stroke-width:8;stroke-linecap:round;stroke-linejoin:round}
    .highlight{fill:none;stroke:#4fb1f0;stroke-width:2.2;stroke-linecap:round;stroke-linejoin:round;opacity:.85}
  </style>
  
    <polyline points="67.9,77.3 70.8,78.3 73.6,79.1 76.3,79.9 78.7,80.5 80.9,81.0 83.0,81.3 84.8,81.6 86.3,81.7 87.7,81.8 88.8,81.8 89.8,81.7 90.6,81.6 91.2,81.5 91.7,81.3 92.2,81.2 92.5,81.1 92.8,81.0 93.0,80.9 93.2,80.9 93.4,80.9 93.5,80.9 93.5,81.0 93.4,81.0 93.3,81.1 93.1,81.1 92.7,81.2 92.2,81.2 91.6,81.2 90.7,81.2 89.7,81.1 88.5,80.9 87.1,80.7 85.5,80.3 83.7,80.0 81.8,79.5 79.7,79.0 77.5,78.4 75.2,77.7 72.9,77.0 70.5,76.2 68.1,75.3 65.7,74.5 63.5,73.6 61.3,72.7 59.2,71.8 57.2,70.8 55.4,69.9 53.8,69.1 52.3,68.2 50.9,67.4 49.7,66.6 48.6,65.8 47.6,65.1 46.8,64.4 46.0,63.8 45.3,63.2 44.7,62.6 44.1,62.1 43.5,61.5 42.9,61.0 42.4,60.5 41.8,60.0 41.2,59.4 40.6,58.9 40.0,58.4 39.3,57.8 38.7,57.2 38.0,56.6 37.4,55.9 36.7,55.2 36.1,54.5 35.5,53.8 34.9,53.0 34.4,52.2 34.0,51.4 33.6,50.6 33.3,49.8 33.1,49.0 33.0,48.2 33.0,47.4 33.2,46.7 33.4,46.0 33.8,45.3 34.3,44.7 34.8,44.1 35.5,43.6 36.3,43.1 37.2,42.7 38.2,42.4 39.3,42.1 40.4,41.9 41.5,41.7 42.7,41.5 44.0,41.4 45.2,41.3 46.5,41.2 47.8,41.1 49.1,41.0 50.5,40.8 51.8,40.7 53.2,40.5 54.6,40.3 56.0,40.0 57.5,39.8 59.1,39.4 60.8,39.1 62.5,38.7 64.4,38.3 66.4,38.0 68.5,37.6 70.7,37.3 73.0,37.0 75.3,36.7 77.8,36.6 80.3,36.5 82.8,36.6 85.3,36.7 87.8,37.0 90.1,37.5 92.4,38.0 94.4,38.7 96.3,39.6 97.9,40.5 99.3,41.6 100.4,42.8 101.2,44.1 101.7,45.5 101.9,46.9 101.8,48.4 101.4,49.9 100.7,51.5 99.8,53.0 98.7,54.5 97.3,56.0 95.8,57.5 94.2,58.9 92.5,60.3 90.7,61.7 88.9,63.0 87.0,64.3 85.1,65.6 83.2,66.8 81.3,68.1 79.3,69.3 77.3,70.6 75.3,71.9 73.2,73.3 71.1,74.7 68.9,76.1 66.6,77.6 64.2,79.1 61.7,80.6 59.1,82.2 56.5,83.8 53.7,85.4 50.9,86.9 48.0,88.4 45.2,89.8 42.4,91.2 39.6,92.4 37.0,93.5 34.5,94.4 32.2,95.1 30.1,95.7 28.3,96.1 26.7,96.3 25.4,96.3 24.4,96.1 23.7,95.7 23.2,95.1 23.1,94.3 23.2,93.4 23.6,92.4 24.2,91.2 25.0,90.0 26.0,88.7 27.0,87.4 28.2,86.0 29.4,84.7 30.7,83.3 32.0,82.0 33.3,80.7 34.6,79.4 35.8,78.2 37.1,77.0 38.2,75.8 39.4,74.6 40.5,73.5 41.6,72.4 42.7,71.2 43.8,70.0 44.9,68.8 46.0,67.6 47.2,66.3 48.3,65.0 49.6,63.6 50.8,62.1 52.1,60.6 53.4,59.0 54.8,57.4 56.1,55.8 57.5,54.2 58.9,52.5 60.3,50.9 61.7,49.4 63.0,47.8 64.3,46.4 65.5,45.1 66.7,43.8 67.9,42.7 68.9,41.7 69.9,40.9 70.9,40.1 71.7,39.5 72.5,39.0 73.2,38.7 73.9,38.4 74.5,38.3 75.1,38.2 75.6,38.2 76.1,38.3 76.6,38.4 77.1,38.5 77.7,38.7 78.2,38.8 78.7,38.9 79.3,39.0 80.0,39.1 80.6,39.1 81.4,39.1 82.2,39.1 83.0,39.0 83.9,39.0 84.8,38.9 85.7,38.9 86.6,38.8 87.5,38.8 88.3,38.8 89.0,38.8 89.7,38.9 90.3,39.1 90.6,39.3 90.9,39.7 90.9,40.0 90.7,40.5 90.3,41.0 89.6,41.6 88.7,42.3 87.6,43.0 86.2,43.8 84.7,44.7 82.9,45.5 80.9,46.4 78.8,47.3 76.6,48.2 74.3,49.2 71.9,50.1 69.5,50.9 67.1,51.8 64.6,52.6 62.3,53.4 59.9,54.2 57.6,54.9 55.4,55.6 53.2,56.2 51.1,56.8 49.0,57.4 47.0,57.9 44.9,58.5 42.9,59.0 40.9,59.5 38.9,60.0 36.9,60.6 34.9,61.1 32.8,61.6 30.8,62.2 28.7,62.8 26.8,63.4 24.8,64.1 23.0,64.8 21.3,65.5 19.8,66.2 18.5,67.0 17.4,67.8 16.6,68.6 16.1,69.4 15.9,70.2 16.0,71.0 16.5,71.8 17.3,72.6 18.4,73.3 19.9,74.0 21.6,74.7 23.7,75.3 25.9,75.9 28.4,76.4 31.0,76.9 33.7,77.3 36.4,77.6 39.3,77.9 42.1,78.1 44.8,78.3 47.5,78.5 50.2,78.6 52.7,78.7 55.1,78.8 57.5,78.9 59.7,79.0 61.8,79.2 63.8,79.3 65.8,79.5 67.7,79.7 69.5,80.0 71.3,80.2 73.1,80.6 74.8,80.9 76.6,81.3 78.3,81.7 79.9,82.0 81.6,82.4 83.2,82.7 84.7,83.0 86.1,83.3 87.5,83.4 88.7,83.5 89.8,83.4 90.7,83.3 91.4,83.0 92.0,82.5 92.4,82.0 92.5,81.3 92.5,80.4 92.3,79.5 91.9,78.4 91.3,77.2 90.6,75.9 89.7,74.5 88.8,73.1 87.7,71.6 86.5,70.1 85.3,68.5 84.1,67.0 82.8,65.5 81.5,64.0 80.3,62.5 79.1,61.1 77.9,59.7 76.8,58.3 75.7,57.0 74.7,55.7 73.8,54.4 72.9,53.2 72.0,51.9 71.2,50.7 70.4,49.4 69.7,48.1 68.9,46.7 68.2,45.3 67.4,43.9 66.6,42.4 65.8,40.9 64.9,39.4 63.9,37.8 62.9,36.2 61.8,34.6 60.6,33.1 59.3,31.6 57.9,30.2 56.4,28.8 54.9,27.6 53.3,26.5 51.6,25.6 49.9,24.9 48.2,24.3 46.5,23.9 44.8,23.7 43.1,23.7 41.5,23.9 40.0,24.3 38.5,24.9 37.2,25.7 36.0,26.6 34.9,27.6 33.9,28.8 33.1,30.0 32.4,31.3 31.8,32.6 31.4,34.0 31.0,35.3 30.7,36.7 30.5,38.0 30.4,39.3 30.3,40.6 30.2,41.8 30.2,43.0 30.1,44.2 30.2,45.4 30.2,46.5 30.3,47.6 30.5,48.8 30.7,50.0 31.0,51.2 31.5,52.4 32.1,53.7 32.9,55.0 33.9,56.4 35.0,57.9 36.5,59.4 38.1,61.0 40.0,62.6 42.1,64.2 44.4,65.8 47.0,67.5 49.7,69.1 52.6,70.6 55.6,72.2 58.7,73.6 61.8,74.9 64.8,76.2 67.9,77.3" class="shadow"/>
    <polyline points="67.9,77.3 70.8,78.3 73.6,79.1 76.3,79.9 78.7,80.5 80.9,81.0 83.0,81.3 84.8,81.6 86.3,81.7 87.7,81.8 88.8,81.8 89.8,81.7 90.6,81.6 91.2,81.5 91.7,81.3 92.2,81.2 92.5,81.1 92.8,81.0 93.0,80.9 93.2,80.9 93.4,80.9 93.5,80.9 93.5,81.0 93.4,81.0 93.3,81.1 93.1,81.1 92.7,81.2 92.2,81.2 91.6,81.2 90.7,81.2 89.7,81.1 88.5,80.9 87.1,80.7 85.5,80.3 83.7,80.0 81.8,79.5 79.7,79.0 77.5,78.4 75.2,77.7 72.9,77.0 70.5,76.2 68.1,75.3 65.7,74.5 63.5,73.6 61.3,72.7 59.2,71.8 57.2,70.8 55.4,69.9 53.8,69.1 52.3,68.2 50.9,67.4 49.7,66.6 48.6,65.8 47.6,65.1 46.8,64.4 46.0,63.8 45.3,63.2 44.7,62.6 44.1,62.1 43.5,61.5 42.9,61.0 42.4,60.5 41.8,60.0 41.2,59.4 40.6,58.9 40.0,58.4 39.3,57.8 38.7,57.2 38.0,56.6 37.4,55.9 36.7,55.2 36.1,54.5 35.5,53.8 34.9,53.0 34.4,52.2 34.0,51.4 33.6,50.6 33.3,49.8 33.1,49.0 33.0,48.2 33.0,47.4 33.2,46.7 33.4,46.0 33.8,45.3 34.3,44.7 34.8,44.1 35.5,43.6 36.3,43.1 37.2,42.7 38.2,42.4 39.3,42.1 40.4,41.9 41.5,41.7 42.7,41.5 44.0,41.4 45.2,41.3 46.5,41.2 47.8,41.1 49.1,41.0 50.5,40.8 51.8,40.7 53.2,40.5 54.6,40.3 56.0,40.0 57.5,39.8 59.1,39.4 60.8,39.1 62.5,38.7 64.4,38.3 66.4,38.0 68.5,37.6 70.7,37.3 73.0,37.0 75.3,36.7 77.8,36.6 80.3,36.5 82.8,36.6 85.3,36.7 87.8,37.0 90.1,37.5 92.4,38.0 94.4,38.7 96.3,39.6 97.9,40.5 99.3,41.6 100.4,42.8 101.2,44.1 101.7,45.5 101.9,46.9 101.8,48.4 101.4,49.9 100.7,51.5 99.8,53.0 98.7,54.5 97.3,56.0 95.8,57.5 94.2,58.9 92.5,60.3 90.7,61.7 88.9,63.0 87.0,64.3 85.1,65.6 83.2,66.8 81.3,68.1 79.3,69.3 77.3,70.6 75.3,71.9 73.2,73.3 71.1,74.7 68.9,76.1 66.6,77.6 64.2,79.1 61.7,80.6 59.1,82.2 56.5,83.8 53.7,85.4 50.9,86.9 48.0,88.4 45.2,89.8 42.4,91.2 39.6,92.4 37.0,93.5 34.5,94.4 32.2,95.1 30.1,95.7 28.3,96.1 26.7,96.3 25.4,96.3 24.4,96.1 23.7,95.7 23.2,95.1 23.1,94.3 23.2,93.4 23.6,92.4 24.2,91.2 25.0,90.0 26.0,88.7 27.0,87.4 28.2,86.0 29.4,84.7 30.7,83.3 32.0,82.0 33.3,80.7 34.6,79.4 35.8,78.2 37.1,77.0 38.2,75.8 39.4,74.6 40.5,73.5 41.6,72.4 42.7,71.2 43.8,70.0 44.9,68.8 46.0,67.6 47.2,66.3 48.3,65.0 49.6,63.6 50.8,62.1 52.1,60.6 53.4,59.0 54.8,57.4 56.1,55.8 57.5,54.2 58.9,52.5 60.3,50.9 61.7,49.4 63.0,47.8 64.3,46.4 65.5,45.1 66.7,43.8 67.9,42.7 68.9,41.7 69.9,40.9 70.9,40.1 71.7,39.5 72.5,39.0 73.2,38.7 73.9,38.4 74.5,38.3 75.1,38.2 75.6,38.2 76.1,38.3 76.6,38.4 77.1,38.5 77.7,38.7 78.2,38.8 78.7,38.9 79.3,39.0 80.0,39.1 80.6,39.1 81.4,39.1 82.2,39.1 83.0,39.0 83.9,39.0 84.8,38.9 85.7,38.9 86.6,38.8 87.5,38.8 88.3,38.8 89.0,38.8 89.7,38.9 90.3,39.1 90.6,39.3 90.9,39.7 90.9,40.0 90.7,40.5 90.3,41.0 89.6,41.6 88.7,42.3 87.6,43.0 86.2,43.8 84.7,44.7 82.9,45.5 80.9,46.4 78.8,47.3 76.6,48.2 74.3,49.2 71.9,50.1 69.5,50.9 67.1,51.8 64.6,52.6 62.3,53.4 59.9,54.2 57.6,54.9 55.4,55.6 53.2,56.2 51.1,56.8 49.0,57.4 47.0,57.9 44.9,58.5 42.9,59.0 40.9,59.5 38.9,60.0 36.9,60.6 34.9,61.1 32.8,61.6 30.8,62.2 28.7,62.8 26.8,63.4 24.8,64.1 23.0,64.8 21.3,65.5 19.8,66.2 18.5,67.0 17.4,67.8 16.6,68.6 16.1,69.4 15.9,70.2 16.0,71.0 16.5,71.8 17.3,72.6 18.4,73.3 19.9,74.0 21.6,74.7 23.7,75.3 25.9,75.9 28.4,76.4 31.0,76.9 33.7,77.3 36.4,77.6 39.3,77.9 42.1,78.1 44.8,78.3 47.5,78.5 50.2,78.6 52.7,78.7 55.1,78.8 57.5,78.9 59.7,79.0 61.8,79.2 63.8,79.3 65.8,79.5 67.7,79.7 69.5,80.0 71.3,80.2 73.1,80.6 74.8,80.9 76.6,81.3 78.3,81.7 79.9,82.0 81.6,82.4 83.2,82.7 84.7,83.0 86.1,83.3 87.5,83.4 88.7,83.5 89.8,83.4 90.7,83.3 91.4,83.0 92.0,82.5 92.4,82.0 92.5,81.3 92.5,80.4 92.3,79.5 91.9,78.4 91.3,77.2 90.6,75.9 89.7,74.5 88.8,73.1 87.7,71.6 86.5,70.1 85.3,68.5 84.1,67.0 82.8,65.5 81.5,64.0 80.3,62.5 79.1,61.1 77.9,59.7 76.8,58.3 75.7,57.0 74.7,55.7 73.8,54.4 72.9,53.2 72.0,51.9 71.2,50.7 70.4,49.4 69.7,48.1 68.9,46.7 68.2,45.3 67.4,43.9 66.6,42.4 65.8,40.9 64.9,39.4 63.9,37.8 62.9,36.2 61.8,34.6 60.6,33.1 59.3,31.6 57.9,30.2 56.4,28.8 54.9,27.6 53.3,26.5 51.6,25.6 49.9,24.9 48.2,24.3 46.5,23.9 44.8,23.7 43.1,23.7 41.5,23.9 40.0,24.3 38.5,24.9 37.2,25.7 36.0,26.6 34.9,27.6 33.9,28.8 33.1,30.0 32.4,31.3 31.8,32.6 31.4,34.0 31.0,35.3 30.7,36.7 30.5,38.0 30.4,39.3 30.3,40.6 30.2,41.8 30.2,43.0 30.1,44.2 30.2,45.4 30.2,46.5 30.3,47.6 30.5,48.8 30.7,50.0 31.0,51.2 31.5,52.4 32.1,53.7 32.9,55.0 33.9,56.4 35.0,57.9 36.5,59.4 38.1,61.0 40.0,62.6 42.1,64.2 44.4,65.8 47.0,67.5 49.7,69.1 52.6,70.6 55.6,72.2 58.7,73.6 61.8,74.9 64.8,76.2 67.9,77.3" class="rope"/>
    <rect x="60.0" y="77.6" width="20" height="6" rx="3" transform="rotate(110.0 70.0 80.6)" fill="#f8f7f2"/><rect x="40.0" y="29.0" width="20" height="6" rx="3" transform="rotate(128.8 50.0 32.0)" fill="#f8f7f2"/><rect x="60.0" y="76.0" width="20" height="6" rx="3" transform="rotate(147.5 70.0 79.0)" fill="#f8f7f2"/><rect x="40.0" y="58.2" width="20" height="6" rx="3" transform="rotate(166.3 50.0 61.2)" fill="#f8f7f2"/><rect x="60.0" y="36.4" width="20" height="6" rx="3" transform="rotate(5.0 70.0 39.4)" fill="#f8f7f2"/><rect x="40.0" y="85.0" width="20" height="6" rx="3" transform="rotate(23.8 50.0 88.0)" fill="#f8f7f2"/><rect x="60.0" y="38.0" width="20" height="6" rx="3" transform="rotate(42.5 70.0 41.0)" fill="#f8f7f2"/><rect x="75.0" y="83.2" width="20" height="6" rx="3" transform="rotate(21.3 85.0 86.2)" fill="#f8f7f2"/>
    <polyline points="67.9,77.3 70.8,78.3 73.6,79.1 76.3,79.9 78.7,80.5 80.9,81.0 83.0,81.3 84.8,81.6 86.3,81.7 87.7,81.8 88.8,81.8 89.8,81.7 90.6,81.6 91.2,81.5 91.7,81.3 92.2,81.2 92.5,81.1 92.8,81.0 93.0,80.9 93.2,80.9 93.4,80.9 93.5,80.9 93.5,81.0 93.4,81.0 93.3,81.1 93.1,81.1 92.7,81.2 92.2,81.2 91.6,81.2 90.7,81.2 89.7,81.1 88.5,80.9 87.1,80.7 85.5,80.3 83.7,80.0 81.8,79.5 79.7,79.0 77.5,78.4 75.2,77.7 72.9,77.0 70.5,76.2 68.1,75.3 65.7,74.5 63.5,73.6 61.3,72.7 59.2,71.8 57.2,70.8 55.4,69.9 53.8,69.1 52.3,68.2 50.9,67.4 49.7,66.6 48.6,65.8 47.6,65.1 46.8,64.4 46.0,63.8 45.3,63.2 44.7,62.6 44.1,62.1 43.5,61.5 42.9,61.0 42.4,60.5 41.8,60.0 41.2,59.4 40.6,58.9 40.0,58.4 39.3,57.8 38.7,57.2 38.0,56.6 37.4,55.9 36.7,55.2 36.1,54.5 35.5,53.8 34.9,53.0 34.4,52.2 34.0,51.4 33.6,50.6 33.3,49.8 33.1,49.0 33.0,48.2 33.0,47.4 33.2,46.7 33.4,46.0 33.8,45.3 34.3,44.7 34.8,44.1 35.5,43.6 36.3,43.1 37.2,42.7 38.2,42.4 39.3,42.1 40.4,41.9 41.5,41.7 42.7,41.5 44.0,41.4 45.2,41.3 46.5,41.2 47.8,41.1 49.1,41.0 50.5,40.8 51.8,40.7 53.2,40.5 54.6,40.3 56.0,40.0 57.5,39.8 59.1,39.4 60.8,39.1 62.5,38.7 64.4,38.3 66.4,38.0 68.5,37.6 70.7,37.3 73.0,37.0 75.3,36.7 77.8,36.6 80.3,36.5 82.8,36.6 85.3,36.7 87.8,37.0 90.1,37.5 92.4,38.0 94.4,38.7 96.3,39.6 97.9,40.5 99.3,41.6 100.4,42.8 101.2,44.1 101.7,45.5 101.9,46.9 101.8,48.4 101.4,49.9 100.7,51.5 99.8,53.0 98.7,54.5 97.3,56.0 95.8,57.5 94.2,58.9 92.5,60.3 90.7,61.7 88.9,63.0 87.0,64.3 85.1,65.6 83.2,66.8 81.3,68.1 79.3,69.3 77.3,70.6 75.3,71.9 73.2,73.3 71.1,74.7 68.9,76.1 66.6,77.6 64.2,79.1 61.7,80.6 59.1,82.2 56.5,83.8 53.7,85.4 50.9,86.9 48.0,88.4 45.2,89.8 42.4,91.2 39.6,92.4 37.0,93.5 34.5,94.4 32.2,95.1 30.1,95.7 28.3,96.1 26.7,96.3 25.4,96.3 24.4,96.1 23.7,95.7 23.2,95.1 23.1,94.3 23.2,93.4 23.6,92.4 24.2,91.2 25.0,90.0 26.0,88.7 27.0,87.4 28.2,86.0 29.4,84.7 30.7,83.3 32.0,82.0 33.3,80.7 34.6,79.4 35.8,78.2 37.1,77.0 38.2,75.8 39.4,74.6 40.5,73.5 41.6,72.4 42.7,71.2 43.8,70.0 44.9,68.8 46.0,67.6 47.2,66.3 48.3,65.0 49.6,63.6 50.8,62.1 52.1,60.6 53.4,59.0 54.8,57.4 56.1,55.8 57.5,54.2 58.9,52.5 60.3,50.9 61.7,49.4 63.0,47.8 64.3,46.4 65.5,45.1 66.7,43.8 67.9,42.7 68.9,41.7 69.9,40.9 70.9,40.1 71.7,39.5 72.5,39.0 73.2,38.7 73.9,38.4 74.5,38.3 75.1,38.2 75.6,38.2 76.1,38.3 76.6,38.4 77.1,38.5 77.7,38.7 78.2,38.8 78.7,38.9 79.3,39.0 80.0,39.1 80.6,39.1 81.4,39.1 82.2,39.1 83.0,39.0 83.9,39.0 84.8,38.9 85.7,38.9 86.6,38.8 87.5,38.8 88.3,38.8 89.0,38.8 89.7,38.9 90.3,39.1 90.6,39.3 90.9,39.7 90.9,40.0 90.7,40.5 90.3,41.0 89.6,41.6 88.7,42.3 87.6,43.0 86.2,43.8 84.7,44.7 82.9,45.5 80.9,46.4 78.8,47.3 76.6,48.2 74.3,49.2 71.9,50.1 69.5,50.9 67.1,51.8 64.6,52.6 62.3,53.4 59.9,54.2 57.6,54.9 55.4,55.6 53.2,56.2 51.1,56.8 49.0,57.4 47.0,57.9 44.9,58.5 42.9,59.0 40.9,59.5 38.9,60.0 36.9,60.6 34.9,61.1 32.8,61.6 30.8,62.2 28.7,62.8 26.8,63.4 24.8,64.1 23.0,64.8 21.3,65.5 19.8,66.2 18.5,67.0 17.4,67.8 16.6,68.6 16.1,69.4 15.9,70.2 16.0,71.0 16.5,71.8 17.3,72.6 18.4,73.3 19.9,74.0 21.6,74.7 23.7,75.3 25.9,75.9 28.4,76.4 31.0,76.9 33.7,77.3 36.4,77.6 39.3,77.9 42.1,78.1 44.8,78.3 47.5,78.5 50.2,78.6 52.7,78.7 55.1,78.8 57.5,78.9 59.7,79.0 61.8,79.2 63.8,79.3 65.8,79.5 67.7,79.7 69.5,80.0 71.3,80.2 73.1,80.6 74.8,80.9 76.6,81.3 78.3,81.7 79.9,82.0 81.6,82.4 83.2,82.7 84.7,83.0 86.1,83.3 87.5,83.4 88.7,83.5 89.8,83.4 90.7,83.3 91.4,83.0 92.0,82.5 92.4,82.0 92.5,81.3 92.5,80.4 92.3,79.5 91.9,78.4 91.3,77.2 90.6,75.9 89.7,74.5 88.8,73.1 87.7,71.6 86.5,70.1 85.3,68.5 84.1,67.0 82.8,65.5 81.5,64.0 80.3,62.5 79.1,61.1 77.9,59.7 76.8,58.3 75.7,57.0 74.7,55.7 73.8,54.4 72.9,53.2 72.0,51.9 71.2,50.7 70.4,49.4 69.7,48.1 68.9,46.7 68.2,45.3 67.4,43.9 66.6,42.4 65.8,40.9 64.9,39.4 63.9,37.8 62.9,36.2 61.8,34.6 60.6,33.1 59.3,31.6 57.9,30.2 56.4,28.8 54.9,27.6 53.3,26.5 51.6,25.6 49.9,24.9 48.2,24.3 46.5,23.9 44.8,23.7 43.1,23.7 41.5,23.9 40.0,24.3 38.5,24.9 37.2,25.7 36.0,26.6 34.9,27.6 33.9,28.8 33.1,30.0 32.4,31.3 31.8,32.6 31.4,34.0 31.0,35.3 30.7,36.7 30.5,38.0 30.4,39.3 30.3,40.6 30.2,41.8 30.2,43.0 30.1,44.2 30.2,45.4 30.2,46.5 30.3,47.6 30.5,48.8 30.7,50.0 31.0,51.2 31.5,52.4 32.1,53.7 32.9,55.0 33.9,56.4 35.0,57.9 36.5,59.4 38.1,61.0 40.0,62.6 42.1,64.2 44.4,65.8 47.0,67.5 49.7,69.1 52.6,70.6 55.6,72.2 58.7,73.6 61.8,74.9 64.8,76.2 67.9,77.3" class="highlight"/>
  
</svg>