<svg xmlns="http://www.w3.org/2000/svg" viewBox="0 0 120 120" role="img">
  <rect width="120" height="120" rx="10" fill="#f8f7f2"/>
  <style>
    .shadow{fill:none;stroke:#4a4f56;stroke-width:13;stroke-linecap:round;stroke-linejoin:round;opacity:.22}
    .rope{fill:none;stroke:#1778bd;stroke-width:8;stroke-linecap:round;stroke-linejoin:round}
    .highlight{fill:none;stroke:#4fb1f0;stroke-width:2.2;stroke-linecap:round;stroke-linejoin:round;opacity:.85}
  </style>
  
    <polyline points="89.2,60.7 89.8,58.3 90.3,55.9 90.7,53.6 90.9,51.4 90.9,49.3 90.8,47.5 90.4,45.8 89.9,44.4 89.2,43.3 88.4,42.3 87.4,41.6 86.2,41.2 85.0,41.0 83.6,41.0 82.1,41.2 80.6,41.5 79.1,42.0 77.5,42.7 75.9,43.5 74.3,44.3 72.7,45.3 71.1,46.3 69.5,47.4 67.9,48.5 66.3,49.8 64.7,51.1 63.1,52.4 61.5,53.9 59.8,55.5 58.1,57.1 56.4,58.8 54.7,60.6 53.0,62.5 51.2,64.5 49.6,66.5 47.9,68.5 46.3,70.5 44.9,72.5 43.5,74.4 42.3,76.2 41.2,77.9 40.2,79.4 39.5,80.7 38.9,81.8 38.5,82.6 38.3,83.2 38.2,83.5 38.3,83.5 38.5,83.2 38.9,82.7 39.3,81.9 39.8,80.9 40.4,79.7 40.9,78.3 41.5,76.8 42.1,75.1 42.6,73.4 43.1,71.6 43.4,69.7 43.8,67.8 44.0,65.9 44.1,64.0 44.0,62.1 43.9,60.1 43.6,58.2 43.2,56.2 42.7,54.3 42.0,52.2 41.2,50.2 40.2,48.1 39.1,46.0 37.8,43.9 36.5,41.8 35.0,39.7 33.4,37.6 31.7,35.5 29.9,33.6 28.1,31.8 26.4,30.1 24.6,28.7 22.9,27.4 21.3,26.5 19.9,25.8 18.6,25.5 17.5,25.4 16.7,25.7 16.1,26.4 15.7,27.3 15.6,28.6 15.8,30.2 16.3,32.0 17.0,34.1 18.0,36.3 19.1,38.7 20.5,41.2 22.0,43.8 23.6,46.4 25.3,49.0 27.1,51.5 28.9,54.1 30.7,56.5 32.5,58.9 34.2,61.2 35.8,63.4 37.4,65.6 38.9,67.7 40.4,69.7 41.7,71.6 43.0,73.6 44.2,75.4 45.3,77.3 46.3,79.1 47.3,80.9 48.2,82.6 49.1,84.2 49.9,85.7 50.6,87.1 51.3,88.4 51.9,89.5 52.4,90.4 52.9,91.0 53.3,91.4 53.6,91.5 53.9,91.4 54.0,90.9 54.2,90.1 54.3,89.0 54.3,87.6 54.3,86.0 54.4,84.1 54.4,82.1 54.4,79.8 54.5,77.5 54.6,75.0 54.7,72.5 54.9,70.0 55.2,67.6 55.6,65.1 56.0,62.8 56.5,60.6 57.1,58.5 57.7,56.6 58.4,54.8 59.2,53.1 60.1,51.6 61.0,50.2 62.0,48.9 63.1,47.8 64.2,46.7 65.5,45.7 66.8,44.9 68.2,44.1 69.7,43.5 71.3,42.9 73.0,42.4 74.9,42.1 76.8,41.9 78.8,41.9 80.8,42.0 82.9,42.3 85.0,42.9 87.2,43.6 89.2,44.5 91.2,45.7 93.1,47.1 94.9,48.6 96.4,50.4 97.8,52.2 98.9,54.3 99.8,56.4 100.4,58.6 100.8,60.8 100.9,62.9 100.7,65.1 100.3,67.1 99.6,69.0 98.8,70.8 97.7,72.4 96.5,73.9 95.3,75.1 93.9,76.1 92.5,77.0 91.1,77.6 89.7,78.1 88.3,78.4 87.1,78.5 85.9,78.5 84.8,78.4 83.8,78.2 83.0,77.8 82.2,77.4 81.7,76.9 81.2,76.2 80.9,75.5 80.7,74.6 80.7,73.6 80.8,72.5 81.0,71.2 81.3,69.8 81.7,68.2 82.3,66.4 82.9,64.5 83.6,62.4 84.4,60.2 85.2,57.8 86.0,55.3 86.9,52.7 87.7,50.1 88.5,47.5 89.2,44.9 89.8,42.4 90.3,40.0 90.7,37.7 90.9,35.7 90.9,33.9 90.8,32.3 90.4,31.0 89.9,30.0 89.2,29.3 88.4,28.9 87.4,28.7 86.2,28.9 85.0,29.2 83.6,29.8 82.1,30.6 80.6,31.6 79.1,32.7 77.5,33.9 75.9,35.2 74.3,36.6 72.7,38.1 71.1,39.6 69.5,41.2 67.9,42.8 66.3,44.5 64.7,46.3 63.1,48.1 61.5,50.1 59.8,52.1 58.1,54.2 56.4,56.5 54.7,58.8 53.0,61.3 51.2,63.9 49.6,66.5 47.9,69.2 46.3,71.8 44.9,74.5 43.5,77.1 42.3,79.7 41.2,82.1 40.2,84.3 39.5,86.3 38.9,88.1 38.5,89.5 38.3,90.7 38.2,91.6 38.3,92.1 38.5,92.4 38.9,92.3 39.3,91.9 39.8,91.2 40.4,90.3 40.9,89.1 41.5,87.8 42.1,86.3 42.6,84.7 43.1,82.9 43.4,81.1 43.8,79.3 44.0,77.4 44.1,75.6 44.0,73.7 43.9,71.8 43.6,69.9 43.2,68.1 42.7,66.2 42.0,64.3 41.2,62.4 40.2,60.5 39.1,58.6 37.8,56.7 36.5,54.7 35.0,52.8 33.4,50.8 31.7,48.9 29.9,47.1 28.1,45.3 26.4,43.7 24.6,42.2 22.9,40.9 21.3,39.8 19.9,38.9 18.6,38.2 17.5,37.9 16.7,37.7 16.1,37.9 15.7,38.4 15.6,39.1 15.8,40.0 16.3,41.2 17.0,42.6 18.0,44.1 19.1,45.8 20.5,47.6 22.0,49.4 23.6,51.3 25.3,53.2 27.1,55.1 28.9,57.0 30.7,58.8 32.5,60.6 34.2,62.3 35.8,64.0 37.4,65.6 38.9,67.1 40.4,68.6 41.7,70.0 43.0,71.4 44.2,72.7 45.3,74.0 46.3,75.3 47.3,76.4 48.2,77.5 49.1,78.5 49.9,79.4 50.6,80.2 51.3,80.7 51.9,81.1 52.4,81.3 52.9,81.3 53.3,81.0 53.6,80.5 53.9,79.7 54.0,78.6 54.2,77.3 54.3,75.7 54.3,73.9 54.3,72.0 54.4,69.8 54.4,67.5 54.4,65.1 54.5,62.7 54.6,60.2 54.7,57.7 54.9,55.3 55.2,53.0 55.6,50.8 56.0,48.7 56.5,46.8 57.1,45.0 57.7,43.4 58.4,41.9 59.2,40.6 60.1,39.4 61.0,38.3 62.0,37.3 63.1,36.4 64.2,35.6 65.5,34.9 66.8,34.3 68.2,33.7 69.7,33.2 71.3,32.8 73.0,32.6 74.9,32.5 76.8,32.5 78.8,32.7 80.8,33.1 82.9,33.7 85.0,34.5 87.2,35.6 89.2,37.0 91.2,38.6 93.1,40.4 94.9,42.5 96.4,44.9 97.8,47.4 98.9,50.0 99.8,52.8 100.4,55.7 100.8,58.6 100.9,61.5 100.7,64.4 100.3,67.1 99.6,69.7 98.8,72.2 97.7,74.4 96.5,76.5 95.3,78.3 93.9,79.9 92.5,81.2 91.1,82.4 89.7,83.3 88.3,84.0 87.1,84.6 85.9,85.0 84.8,85.2 83.8,85.4 83.0,85.4 82.2,85.3 81.7,85.2 81.2,84.9 80.9,84.6 80.7,84.2 80.7,83.7 80.8,83.0 81.0,82.2 81.3,81.3 81.7,80.2 82.3,79.0 82.9,77.5 83.6,75.9 84.4,74.1 85.2,72.2 86.0,70.1 86.9,67.9 87.7,65.5 88.5,63.1 89.2,60.7" class="shadow"/>
    <polyline points="89.2,60.7 89.8,58.3 90.3,55.9 90.7,53.6 90.9,51.4 90.9,49.3 90.8,47.5 90.4,45.8 89.9,44.4 89.2,43.3 88.4,42.3 87.4,41.6 86.2,41.2 85.0,41.0 83.6,41.0 82.1,41.2 80.6,41.5 79.1,42.0 77.5,42.7 75.9,43.5 74.3,44.3 72.7,45.3 71.1,46.3 69.5,47.4 67.9,48.5 66.3,49.8 64.7,51.1 63.1,52.4 61.5,53.9 59.8,55.5 58.1,57.1 56.4,58.8 54.7,60.6 53.0,62.5 51.2,64.5 49.6,66.5 47.9,68.5 46.3,70.5 44.9,72.5 43.5,74.4 42.3,76.2 41.2,77.9 40.2,79.4 39.5,80.7 38.9,81.8 38.5,82.6 38.3,83.2 38.2,83.5 38.3,83.5 38.5,83.2 38.9,82.7 39.3,81.9 39.8,80.9 40.4,79.7 40.9,78.3 41.5,76.8 42.1,75.1 42.6,73.4 43.1,71.6 43.4,69.7 43.8,67.8 44.0,65.9 44.1,64.0 44.0,62.1 43.9,60.1 43.6,58.2 43.2,56.2 42.7,54.3 42.0,52.2 41.2,50.2 40.2,48.1 39.1,46.0 37.8,43.9 36.5,41.8 35.0,39.7 33.4,37.6 31.7,35.5 29.9,33.6 28.1,31.8 26.4,30.1 24.6,28.7 22.9,27.4 21.3,26.5 19.9,25.8 18.6,25.5 17.5,25.4 16.7,25.7 16.1,26.4 15.7,27.3 15.6,28.6 15.8,30.2 16.3,32.0 17.0,34.1 18.0,36.3 19.1,38.7 20.5,41.2 22.0,43.8 23.6,46.4 25.3,49.0 27.1,51.5 28.9,54.1 30.7,56.5 32.5,58.9 34.2,61.2 35.8,63.4 37.4,65.6 38.9,67.7 40.4,69.7 41.7,71.6 43.0,73.6 44.2,75.4 45.3,77.3 46.3,79.1 47.3,80.9 48.2,82.6 49.1,84.2 49.9,85.7 50.6,87.1 51.3,88.4 51.9,89.5 52.4,90.4 52.9,91.0 53.3,91.4 53.6,91.5 53.9,91.4 54.0,90.9 54.2,90.1 54.3,89.0 54.3,87.6 54.3,86.0 54.4,84.1 54.4,82.1 54.4,79.8 54.5,77.5 54.6,75.0 54.7,72.5 54.9,70.0 55.2,67.6 55.6,65.1 56.0,62.8 56.5,60.6 57.1,58.5 57.7,56.6 58.4,54.8 59.2,53.1 60.1,51.6 61.0,50.2 62.0,48.9 63.1,47.8 64.2,46.7 65.5,45.7 66.8,44.9 68.2,44.1 69.7,43.5 71.3,42.9 73.0,42.4 74.9,42.1 76.8,41.9 78.8,41.9 80.8,42.0 82.9,42.3 85.0,42.9 87.2,43.6 89.2,44.5 91.2,45.7 93.1,47.1 94.9,48.6 96.4,50.4 97.8,52.2 98.9,54.3 99.8,56.4 100.4,58.6 100.8,60.8 100.9,62.9 100.7,65.1 100.3,67.1 99.6,69.0 98.8,70.8 97.7,72.4 96.5,73.9 95.3,75.1 93.9,76.1 92.5,77.0 91.1,77.6 89.7,78.1 88.3,78.4 87.1,78.5 85.9,78.5 84.8,78.4 83.8,78.2 83.0,77.8 82.2,77.4 81.7,76.9 81.2,76.2 80.9,75.5 80.7,74.6 80.7,73.6 80.8,72.5 81.0,71.2 81.3,69.8 81.7,68.2 82.3,66.4 82.9,64.5 83.6,62.4 84.4,60.2 85.2,57.8 86.0,55.3 86.9,52.7 87.7,50.1 88.5,47.5 89.2,44.9 89.8,42.4 90.3,40.0 90.7,37.7 90.9,35.7 90.9,33.9 90.8,32.3 90.4,31.0 89.9,30.0 89.2,29.3 88.4,28.9 87.4,28.7 86.2,28.9 85.0,29.2 83.6,29.8 82.1,30.6 80.6,31.6 79.1,32.7 77.5,33.9 75.9,35.2 74.3,36.6 72.7,38.1 71.1,39.6 69.5,41.2 67.9,42.8 66.3,44.5 64.7,46.3 63.1,48.1 61.5,50.1 59.8,52.1 58.1,54.2 56.4,56.5 54.7,58.8 53.0,61.3 51.2,63.9 49.6,66.5 47.9,69.2 46.3,71.8 44.9,74.5 43.5,77.1 42.3,79.7 41.2,82.1 40.2,84.3 39.5,86.3 38.9,88.1 38.5,89.5 38.3,90.7 38.2,91.6 38.3,92.1 38.5,92.4 38.9,92.3 39.3,91.9 39.8,91.2 40.4,90.3 40.9,89.1 41.5,87.8 42.1,86.3 42.6,84.7 43.1,82.9 43.4,81.1 43.8,79.3 44.0,77.4 44.1,75.6 44.0,73.7 43.9,71.8 43.6,69.9 43.2,68.1 42.7,66.2 42.0,64.3 41.2,62.4 40.2,60.5 39.1,58.6 37.8,56.7 36.5,54.7 35.0,52.8 33.4,50.8 31.7,48.9 29.9,47.1 28.1,45.3 26.4,43.7 24.6,42.2 22.9,40.9 21.3,39.8 19.9,38.9 18.6,38.2 17.5,37.9 16.7,37.7 16.1,37.9 15.7,38.4 15.6,39.1 15.8,40.0 16.3,41.2 17.0,42.6 18.0,44.1 19.1,45.8 20.5,47.6 22.0,49.4 23.6,51.3 25.3,53.2 27.1,55.1 28.9,57.0 30.7,58.8 32.5,60.6 34.2,62.3 35.8,64.0 37.4,65.6 38.9,67.1 40.4,68.6 41.7,70.0 43.0,71.4 44.2,72.7 45.3,74.0 46.3,75.3 47.3,76.4 48.2,77.5 49.1,78.5 49.9,79.4 50.6,80.2 51.3,80.7 51.9,81.1 52.4,81.3 52.9,81.3 53.3,81.0 53.6,80.5 53.9,79.7 54.0,78.6 54.2,77.3 54.3,75.7 54.3,73.9 54.3,72.0 54.4,69.8 54.4,67.5 54.4,65.1 54.5,62.7 54.6,60.2 54.7,57.7 54.9,55.3 55.2,53.0 55.6,50.8 56.0,48.7 56.5,46.8 57.1,45.0 57.7,43.4 58.4,41.9 59.2,40.6 60.1,39.4 61.0,38.3 62.0,37.3 63.1,36.4 64.2,35.6 65.5,34.9 66.8,34.3 68.2,33.7 69.7,33.2 71.3,32.8 73.0,32.6 74.9,32.5 76.8,32.5 78.8,32.7 80.8,33.1 82.9,33.7 85.0,34.5 87.2,35.6 89.2,37.0 91.2,38.6 93.1,40.4 94.9,42.5 96.4,44.9 97.8,47.4 98.9,50.0 99.8,52.8 100.4,55.7 100.8,58.6 100.9,61.5 100.7,64.4 100.3,67.1 99.6,69.7 98.8,72.2 97.7,74.4 96.5,76.5 95.3,78.3 93.9,79.9 92.5,81.2 91.1,82.4 89.7,83.3 88.3,84.0 87.1,84.6 85.9,85.0 84.8,85.2 83.8,85.4 83.0,85.4 82.2,85.3 81.7,85.2 81.2,84.9 80.9,84.6 80.7,84.2 80.7,83.7 80.8,83.0 81.0,82.2 81.3,81.3 81.7,80.2 82.3,79.0 82.9,77.5 83.6,75.9 84.4,74.1 85.2,72.2 86.0,70.1 86.9,67.9 87.7,65.5 88.5,63.1 89.2,60.7" class="rope"/>
    <rect x="49.4" y="56.7" width="20" height="6" rx="3" transform="rotate(155.0 59.4 59.7)" fill="#f8f7f2"/><rect x="15.0" y="29.0" width="20" height="6" rx="3" transform="rotate(173.8 25.0 32.0)" fill="#f8f7f2"/><rect x="50.6" y="57.3" width="20" height="6" rx="3" transform="rotate(12.5 60.6 60.3)" fill="#f8f7f2"/><rect x="58.3" y="37.4" width="20" height="6" rx="3" transform="rotate(171.3 68.3 40.4)" fill="#f8f7f2"/><rect x="16.0" y="37.0" width="20" height="6" rx="3" transform="rotate(10.0 26.0 40.0)" fill="#f8f7f2"/><rect x="41.7" y="76.6" width="20" height="6" rx="3" transform="rotate(28.8 51.7 79.6)" fill="#f8f7f2"/><rect x="84.0" y="77.0" width="20" height="6" rx="3" transform="rotate(47.5 94.0 80.0)" fill="#f8f7f2"/><rect x="58.3" y="37.4" width="20" height="6" rx="3" transform="rotate(66.3 68.3 40.4)" fill="#f8f7f2"/>
    <polyline points="89.2,60.7 89.8,58.3 90.3,55.9 90.7,53.6 90.9,51.4 90.9,49.3 90.8,47.5 90.4,45.8 89.9,44.4 89.2,43.3 88.4,42.3 87.4,41.6 86.2,41.2 85.0,41.0 83.6,41.0 82.1,41.2 80.6,41.5 79.1,42.0 77.5,42.7 75.9,43.5 74.3,44.3 72.7,45.3 71.1,46.3 69.5,47.4 67.9,48.5 66.3,49.8 64.7,51.1 63.1,52.4 61.5,53.9 59.8,55.5 58.1,57.1 56.4,58.8 54.7,60.6 53.0,62.5 51.2,64.5 49.6,66.5 47.9,68.5 46.3,70.5 44.9,72.5 43.5,74.4 42.3,76.2 41.2,77.9 40.2,79.4 39.5,80.7 38.9,81.8 38.5,82.6 38.3,83.2 38.2,83.5 38.3,83.5 38.5,83.2 38.9,82.7 39.3,81.9 39.8,80.9 40.4,79.7 40.9,78.3 41.5,76.8 42.1,75.1 42.6,73.4 43.1,71.6 43.4,69.7 43.8,67.8 44.0,65.9 44.1,64.0 44.0,62.1 43.9,60.1 43.6,58.2 43.2,56.2 42.7,54.3 42.0,52.2 41.2,50.2 40.2,48.1 39.1,46.0 37.8,43.9 36.5,41.8 35.0,39.7 33.4,37.6 31.7,35.5 29.9,33.6 28.1,31.8 26.4,30.1 24.6,28.7 22.9,27.4 21.3,26.5 19.9,25.8 18.6,25.5 17.5,25.4 16.7,25.7 16.1,26.4 15.7,27.3 15.6,28.6 15.8,30.2 16.3,32.0 17.0,34.1 18.0,36.3 19.1,38.7 20.5,41.2 22.0,43.8 23.6,46.4 25.3,49.0 27.1,51.5 28.9,54.1 30.7,56.5 32.5,58.9 34.2,61.2 35.8,63.4 37.4,65.6 38.9,67.7 40.4,69.7 41.7,71.6 43.0,73.6 44.2,75.4 45.3,77.3 46.3,79.1 47.3,80.9 48.2,82.6 49.1,84.2 49.9,85.7 50.6,87.1 51.3,88.4 51.9,89.5 52.4,90.4 52.9,91.0 53.3,91.4 53.6,91.5 53.9,91.4 54.0,90.9 54.2,90.1 54.3,89.0 54.3,87.6 54.3,86.0 54.4,84.1 54.4,82.1 54.4,79.8 54.5,77.5 54.6,75.0 54.7,72.5 54.9,70.0 55.2,67.6 55.6,65.1 56.0,62.8 56.5,60.6 57.1,58.5 57.7,56.6 58.4,54.8 59.2,53.1 60.1,51.6 61.0,50.2 62.0,48.9 63.1,47.8 64.2,46.7 65.5,45.7 66.8,44.9 68.2,44.1 69.7,43.5 71.3,42.9 73.0,42.4 74.9,42.1 76.8,41.9 78.8,41.9 80.8,42.0 82.9,42.3 85.0,42.9 87.2,43.6 89.2,44.5 91.2,45.7 93.1,47.1 94.9,48.6 96.4,50.4 97.8,52.2 98.9,54.3 99.8,56.4 100.4,58.6 100.8,60.8 100.9,62.9 100.7,65.1 100.3,67.1 99.6,69.0 98.8,70.8 97.7,72.4 96.5,73.9 95.3,75.1 93.9,76.1 92.5,77.0 91.1,77.6 89.7,78.1 88.3,78.4 87.1,78.5 85.9,78.5 84.8,78.4 83.8,78.2 83.0,77.8 82.2,77.4 81.7,76.9 81.2,76.2 80.9,75.5 80.7,74.6 80.7,73.6 80.8,72.5 81.0,71.2 81.3,69.8 81.7,68.2 82.3,66.4 82.9,64.5 83.6,62.4 84.4,60.2 85.2,57.8 86.0,55.3 86.9,52.7 87.7,50.1 88.5,47.5 89.2,44.9 89.8,42.4 90.3,40.0 90.7,37.7 90.9,35.7 90.9,33.9 90.8,32.3 90.4,31.0 89.9,30.0 89.2,29.3 88.4,28.9 87.4,28.7 86.2,28.9 85.0,29.2 83.6,29.8 82.1,30.6 80.6,31.6 79.1,32.7 77.5,33.9 75.9,35.2 74.3,36.6 72.7,38.1 71.1,39.6 69.5,41.2 67.9,42.8 66.3,44.5 64.7,46.3 63.1,48.1 61.5,50.1 59.8,52.1 58.1,54.2 56.4,56.5 54.7,58.8 53.0,61.3 51.2,63.9 49.6,66.5 47.9,69.2 46.3,71.8 44.9,74.5 43.5,77.1 42.3,79.7 41.2,82.1 40.2,84.3 39.5,86.3 38.9,88.1 38.5,89.5 38.3,90.7 38.2,91.6 38.3,92.1 38.5,92.4 38.9,92.3 39.3,91.9 39.8,91.2 40.4,90.3 40.9,89.1 41.5,87.8 42.1,86.3 42.6,84.7 43.1,82.9 43.4,81.1 43.8,79.3 44.0,77.4 44.1,75.6 44.0,73.7 43.9,71.8 43.6,69.9 43.2,68.1 42.7,66.2 42.0,64.3 41.2,62.4 40.2,60.5 39.1,58.6 37.8,56.7 36.5,54.7 35.0,52.8 33.4,50.8 31.7,48.9 29.9,47.1 28.1,45.3 26.4,43.7 24.6,42.2 22.9,40.9 21.3,39.8 19.9,38.9 18.6,38.2 17.5,37.9 16.7,37.7 16.1,37.9 15.7,38.4 15.6,39.1 15.8,40.0 16.3,41.2 17.0,42.6 18.0,44.1 19.1,45.8 20.5,47.6 22.0,49.4 23.6,51.3 25.3,53.2 27.1,55.1 28.9,57.0 30.7,58.8 32.5,60.6 34.2,62.3 35.8,64.0 37.4,65.6 38.9,67.1 40.4,68.6 41.7,70.0 43.0,71.4 44.2,72.7 45.3,74.0 46.3,75.3 47.3,76.4 48.2,77.5 49.1,78.5 49.9,79.4 50.6,80.2 51.3,80.7 51.9,81.1 52.4,81.3 52.9,81.3 53.3,81.0 53.6,80.5 53.9,79.7 54.0,78.6 54.2,77.3 54.3,75.7 54.3,73.9 54.3,72.0 54.4,69.8 54.4,67.5 54.4,65.1 54.5,62.7 54.6,60.2 54.7,57.7 54.9,55.3 55.2,53.0 55.6,50.8 56.0,48.7 56.5,46.8 57.1,45.0 57.7,43.4 58.4,41.9 59.2,40.6 60.1,39.4 61.0,38.3 62.0,37.3 63.1,36.4 64.2,35.6 65.5,34.9 66.8,34.3 68.2,33.7 69.7,33.2 71.3,32.8 73.0,32.6 74.9,32.5 76.8,32.5 78.8,32.7 80.8,33.1 82.9,33.7 85.0,34.5 87.2,35.6 89.2,37.0 91.2,38.6 93.1,40.4 94.9,42.5 96.4,44.9 97.8,47.4 98.9,50.0 99.8,52.8 100.4,55.7 100.8,58.6 100.9,61.5 100.7,64.4 100.3,67.1 99.6,69.7 98.8,72.2 97.7,74.4 96.5,76.5 95.3,78.3 93.9,79.9 92.5,81.2 91.1,82.4 89.7,83.3 88.3,84.0 87.1,84.6 85.9,85.0 84.8,85.2 83.8,85.4 83.0,85.4 82.2,85.3 81.7,85.2 81.2,84.9 80.9,84.6 80.7,84.2 80.7,83.7 80.8,83.0 81.0,82.2 81.3,81.3 81.7,80.2 82.3,79.0 82.9,77.5 83.6,75.9 84.4,74.1 85.2,72.2 86.0,70.1 86.9,67.9 87.7,65.5 88.5,63.1 89.2,60.7" class="highlight"/>
  
</svg>