<svg xmlns="http://www.w3.org/2000/svg" viewBox="0 0 120 120" role="img">
  <rect width="120" height="120" rx="10" fill="#f8f7f2"/>
  <style>
    .shadow{fill:none;stroke:#4a4f56;stroke-width:13;stroke-linecap:round;stroke-linejoin:round;opacity:.22}
    .rope{fill:none;stroke:#1778bd;stroke-width:8;stroke-linecap:round;stroke-linejoin:round}
    .highlight{fill:none;stroke:#4fb1f0;stroke-width:2.2;stroke-linecap:round;stroke-linejoin:round;opacity:.85}
  </style>
  
    <polyline points="86.4,56.2 86.4,53.7 86.3,51.3 86.0,49.2 85.6,47.2 85.0,45.6 84.2,44.2 83.2,43.1 82.1,42.3 80.8,41.7 79.4,41.4 77.8,41.4 76.0,41.6 74.2,42.0 72.2,42.7 70.2,43.5 68.1,44.5 65.9,45.6 63.7,46.8 61.5,48.2 59.2,49.7 57.0,51.3 54.7,53.0 52.5,54.7 50.3,56.5 48.1,58.4 45.9,60.3 43.9,62.3 41.9,64.2 40.0,66.2 38.1,68.2 36.5,70.1 34.9,72.0 33.5,73.8 32.3,75.5 31.3,77.0 30.4,78.4 29.8,79.5 29.3,80.4 29.0,81.1 28.9,81.4 29.0,81.5 29.2,81.3 29.5,80.7 29.8,79.8 30.3,78.6 30.8,77.1 31.3,75.3 31.8,73.3 32.2,71.0 32.6,68.6 32.9,66.0 33.1,63.3 33.3,60.6 33.3,57.8 33.3,55.0 33.2,52.4 33.1,49.8 32.9,47.4 32.7,45.1 32.5,43.1 32.2,41.2 32.1,39.6 31.9,38.3 31.8,37.1 31.8,36.2 31.9,35.6 32.1,35.1 32.4,34.9 32.7,34.9 33.2,35.2 33.9,35.6 34.6,36.2 35.5,37.0 36.4,37.9 37.6,39.1 38.8,40.4 40.2,41.9 41.8,43.6 43.4,45.4 45.3,47.5 47.2,49.7 49.3,52.1 51.5,54.6 53.9,57.3 56.3,60.2 58.8,63.1 61.3,66.2 63.8,69.3 66.3,72.4 68.8,75.5 71.1,78.5 73.4,81.4 75.5,84.2 77.4,86.8 79.1,89.1 80.6,91.2 81.8,92.9 82.8,94.3 83.6,95.4 84.2,96.0 84.5,96.2 84.6,96.1 84.6,95.5 84.4,94.5 84.1,93.2 83.7,91.6 83.3,89.6 82.8,87.4 82.4,85.0 82.0,82.3 81.6,79.6 81.3,76.7 81.1,73.8 81.1,70.8 81.1,67.9 81.2,65.1 81.5,62.3 81.8,59.6 82.3,57.0 82.8,54.6 83.4,52.3 84.1,50.1 84.9,48.2 85.7,46.3 86.5,44.7 87.4,43.1 88.2,41.8 89.1,40.6 89.9,39.6 90.7,38.7 91.4,38.1 92.0,37.6 92.5,37.3 92.9,37.3 93.1,37.5 93.1,37.9 92.9,38.5 92.4,39.4 91.8,40.5 90.8,41.9 89.6,43.5 88.2,45.3 86.5,47.3 84.5,49.5 82.4,51.9 80.0,54.3 77.6,56.9 75.0,59.5 72.3,62.1 69.6,64.6 66.9,67.1 64.3,69.4 61.8,71.6 59.5,73.5 57.3,75.3 55.3,76.7 53.5,77.9 52.0,78.7 50.7,79.3 49.6,79.6 48.7,79.5 48.1,79.2 47.6,78.6 47.4,77.7 47.2,76.6 47.2,75.4 47.2,73.9 47.3,72.3 47.4,70.6 47.5,68.7 47.6,66.8 47.6,64.9 47.6,62.9 47.4,61.0 47.2,59.0 46.8,57.1 46.4,55.2 45.7,53.3 45.0,51.5 44.1,49.7 43.0,48.0 41.8,46.4 40.5,44.9 39.0,43.5 37.5,42.2 35.8,41.1 34.0,40.1 32.1,39.3 30.2,38.8 28.3,38.4 26.4,38.3 24.6,38.5 22.9,38.9 21.3,39.7 20.0,40.7 18.8,42.1 17.9,43.7 17.3,45.6 16.9,47.8 17.0,50.3 17.3,52.9 18.0,55.8 19.0,58.7 20.4,61.8 22.0,64.9 24.0,68.0 26.1,71.1 28.5,74.0 31.0,76.8 33.6,79.4 36.2,81.8 38.9,83.9 41.5,85.8 44.1,87.3 46.5,88.5 48.8,89.4 50.9,90.0 52.8,90.2 54.6,90.1 56.1,89.8 57.5,89.2 58.6,88.3 59.6,87.2 60.4,85.9 61.1,84.4 61.6,82.7 62.0,80.9 62.4,78.9 62.6,76.9 62.8,74.7 63.0,72.4 63.2,70.1 63.5,67.6 63.7,65.1 64.1,62.5 64.5,59.9 65.0,57.2 65.6,54.4 66.4,51.7 67.4,48.9 68.5,46.2 69.8,43.5 71.3,40.8 72.9,38.3 74.7,35.9 76.7,33.7 78.9,31.8 81.2,30.0 83.5,28.6 86.0,27.4 88.4,26.6 90.8,26.2 93.2,26.1 95.5,26.4 97.6,27.1 99.5,28.1 101.1,29.6 102.5,31.3 103.6,33.4 104.3,35.7 104.7,38.3 104.8,41.0 104.5,43.9 103.8,46.9 102.9,49.9 101.7,52.9 100.2,55.9 98.5,58.8 96.6,61.5 94.6,64.1 92.5,66.6 90.3,68.8 88.1,70.8 85.9,72.6 83.8,74.2 81.7,75.5 79.8,76.7 77.9,77.6 76.2,78.2 74.6,78.7 73.2,79.0 71.9,79.1 70.8,79.0 69.8,78.7 69.0,78.2 68.3,77.6 67.7,76.8 67.3,75.9 66.9,74.7 66.7,73.5 66.5,72.0 66.3,70.4 66.2,68.7 66.1,66.8 66.0,64.8 65.9,62.7 65.7,60.5 65.4,58.2 64.9,55.9 64.3,53.7 63.6,51.5 62.7,49.3 61.6,47.3 60.2,45.4 58.7,43.8 56.9,42.3 55.0,41.1 52.9,40.2 50.6,39.6 48.2,39.3 45.8,39.3 43.3,39.6 40.8,40.2 38.3,41.2 35.9,42.4 33.7,43.9 31.6,45.6 29.7,47.5 28.0,49.6 26.6,51.8 25.4,54.0 24.5,56.4 23.9,58.7 23.5,61.0 23.4,63.3 23.5,65.5 23.9,67.6 24.4,69.6 25.1,71.5 26.0,73.3 26.9,74.9 28.0,76.3 29.1,77.6 30.3,78.8 31.4,79.8 32.6,80.6 33.8,81.2 35.0,81.7 36.1,82.1 37.2,82.2 38.2,82.1 39.1,81.8 40.0,81.3 40.7,80.6 41.4,79.7 42.0,78.4 42.4,77.0 42.8,75.3 43.0,73.3 43.1,71.1 43.2,68.6 43.2,66.0 43.1,63.1 42.9,60.1 42.7,57.0 42.6,53.8 42.4,50.6 42.4,47.3 42.4,44.2 42.5,41.1 42.8,38.2 43.3,35.5 43.9,33.0 44.8,30.9 45.8,29.0 47.1,27.6 48.6,26.4 50.3,25.7 52.2,25.3 54.2,25.4 56.4,25.7 58.6,26.5 61.0,27.6 63.4,28.9 65.8,30.6 68.1,32.5 70.5,34.5 72.7,36.8 74.9,39.2 76.9,41.7 78.8,44.3 80.5,46.9 82.2,49.5 83.6,52.2 84.9,54.9 86.1,57.5 87.1,60.1 88.0,62.6 88.7,65.2 89.3,67.6 89.8,70.0 90.2,72.3 90.5,74.5 90.6,76.7 90.6,78.7 90.5,80.6 90.4,82.4 90.1,83.9 89.8,85.3 89.4,86.5 88.9,87.5 88.4,88.1 87.9,88.5 87.4,88.6 86.9,88.4 86.5,87.9 86.1,87.0 85.7,85.9 85.5,84.4 85.3,82.6 85.2,80.6 85.2,78.3 85.2,75.8 85.4,73.1 85.5,70.3 85.8,67.5 86.0,64.6 86.2,61.7 86.3,58.9 86.4,56.2" class="shadow"/>
    <polyline points="86.4,56.2 86.4,53.7 86.3,51.3 86.0,49.2 85.6,47.2 85.0,45.6 84.2,44.2 83.2,43.1 82.1,42.3 80.8,41.7 79.4,41.4 77.8,41.4 76.0,41.6 74.2,42.0 72.2,42.7 70.2,43.5 68.1,44.5 65.9,45.6 63.7,46.8 61.5,48.2 59.2,49.7 57.0,51.3 54.7,53.0 52.5,54.7 50.3,56.5 48.1,58.4 45.9,60.3 43.9,62.3 41.9,64.2 40.0,66.2 38.1,68.2 36.5,70.1 34.9,72.0 33.5,73.8 32.3,75.5 31.3,77.0 30.4,78.4 29.8,79.5 29.3,80.4 29.0,81.1 28.9,81.4 29.0,81.5 29.2,81.3 29.5,80.7 29.8,79.8 30.3,78.6 30.8,77.1 31.3,75.3 31.8,73.3 32.2,71.0 32.6,68.6 32.9,66.0 33.1,63.3 33.3,60.6 33.3,57.8 33.3,55.0 33.2,52.4 33.1,49.8 32.9,47.4 32.7,45.1 32.5,43.1 32.2,41.2 32.1,39.6 31.9,38.3 31.8,37.1 31.8,36.2 31.9,35.6 32.1,35.1 32.4,34.9 32.7,34.9 33.2,35.2 33.9,35.6 34.6,36.2 35.5,37.0 36.4,37.9 37.6,39.1 38.8,40.4 40.2,41.9 41.8,43.6 43.4,45.4 45.3,47.5 47.2,49.7 49.3,52.1 51.5,54.6 53.9,57.3 56.3,60.2 58.8,63.1 61.3,66.2 63.8,69.3 66.3,72.4 68.8,75.5 71.1,78.5 73.4,81.4 75.5,84.2 77.4,86.8 79.1,89.1 80.6,91.2 81.8,92.9 82.8,94.3 83.6,95.4 84.2,96.0 84.5,96.2 84.6,96.1 84.6,95.5 84.4,94.5 84.1,93.2 83.7,91.6 83.3,89.6 82.8,87.4 82.4,85.0 82.0,82.3 81.6,79.6 81.3,76.7 81.1,73.8 81.1,70.8 81.1,67.9 81.2,65.1 81.5,62.3 81.8,59.6 82.3,57.0 82.8,54.6 83.4,52.3 84.1,50.1 84.9,48.2 85.7,46.3 86.5,44.7 87.4,43.1 88.2,41.8 89.1,40.6 89.9,39.6 90.7,38.7 91.4,38.1 92.0,37.6 92.5,37.3 92.9,37.3 93.1,37.5 93.1,37.9 92.9,38.5 92.4,39.4 91.8,40.5 90.8,41.9 89.6,43.5 88.2,45.3 86.5,47.3 84.5,49.5 82.4,51.9 80.0,54.3 77.6,56.9 75.0,59.5 72.3,62.1 69.6,64.6 66.9,67.1 64.3,69.4 61.8,71.6 59.5,73.5 57.3,75.3 55.3,76.7 53.5,77.9 52.0,78.7 50.7,79.3 49.6,79.6 48.7,79.5 48.1,79.2 47.6,78.6 47.4,77.7 47.2,76.6 47.2,75.4 47.2,73.9 47.3,72.3 47.4,70.6 47.5,68.7 47.6,66.8 47.6,64.9 47.6,62.9 47.4,61.0 47.2,59.0 46.8,57.1 46.4,55.2 45.7,53.3 45.0,51.5 44.1,49.7 43.0,48.0 41.8,46.4 40.5,44.9 39.0,43.5 37.5,42.2 35.8,41.1 34.0,40.1 32.1,39.3 30.2,38.8 28.3,38.4 26.4,38.3 24.6,38.5 22.9,38.9 21.3,39.7 20.0,40.7 18.8,42.1 17.9,43.7 17.3,45.6 16.9,47.8 17.0,50.3 17.3,52.9 18.0,55.8 19.0,58.7 20.4,61.8 22.0,64.9 24.0,68.0 26.1,71.1 28.5,74.0 31.0,76.8 33.6,79.4 36.2,81.8 38.9,83.9 41.5,85.8 44.1,87.3 46.5,88.5 48.8,89.4 50.9,90.0 52.8,90.2 54.6,90.1 56.1,89.8 57.5,89.2 58.6,88.3 59.6,87.2 60.4,85.9 61.1,84.4 61.6,82.7 62.0,80.9 62.4,78.9 62.6,76.9 62.8,74.7 63.0,72.4 63.2,70.1 63.5,67.6 63.7,65.1 64.1,62.5 64.5,59.9 65.0,57.2 65.6,54.4 66.4,51.7 67.4,48.9 68.5,46.2 69.8,43.5 71.3,40.8 72.9,38.3 74.7,35.9 76.7,33.7 78.9,31.8 81.2,30.0 83.5,28.6 86.0,27.4 88.4,26.6 90.8,26.2 93.2,26.1 95.5,26.4 97.6,27.1 99.5,28.1 101.1,29.6 102.5,31.3 103.6,33.4 104.3,35.7 104.7,38.3 104.8,41.0 104.5,43.9 103.8,46.9 102.9,49.9 101.7,52.9 100.2,55.9 98.5,58.8 96.6,61.5 94.6,64.1 92.5,66.6 90.3,68.8 88.1,70.8 85.9,72.6 83.8,74.2 81.7,75.5 79.8,76.7 77.9,77.6 76.2,78.2 74.6,78.7 73.2,79.0 71.9,79.1 70.8,79.0 69.8,78.7 69.0,78.2 68.3,77.6 67.7,76.8 67.3,75.9 66.9,74.7 66.7,73.5 66.5,72.0 66.3,70.4 66.2,68.7 66.1,66.8 66.0,64.8 65.9,62.7 65.7,60.5 65.4,58.2 64.9,55.9 64.3,53.7 63.6,51.5 62.7,49.3 61.6,47.3 60.2,45.4 58.7,43.8 56.9,42.3 55.0,41.1 52.9,40.2 50.6,39.6 48.2,39.3 45.8,39.3 43.3,39.6 40.8,40.2 38.3,41.2 35.9,42.4 33.7,43.9 31.6,45.6 29.7,47.5 28.0,49.6 26.6,51.8 25.4,54.0 24.5,56.4 23.9,58.7 23.5,61.0 23.4,63.3 23.5,65.5 23.9,67.6 24.4,69.6 25.1,71.5 26.0,73.3 26.9,74.9 28.0,76.3 29.1,77.6 30.3,78.8 31.4,79.8 32.6,80.6 33.8,81.2 35.0,81.7 36.1,82.1 37.2,82.2 38.2,82.1 39.1,81.8 40.0,81.3 40.7,80.6 41.4,79.7 42.0,78.4 42.4,77.0 42.8,75.3 43.0,73.3 43.1,71.1 43.2,68.6 43.2,66.0 43.1,63.1 42.9,60.1 42.7,57.0 42.6,53.8 42.4,50.6 42.4,47.3 42.4,44.2 42.5,41.1 42.8,38.2 43.3,35.5 43.9,33.0 44.8,30.9 45.8,29.0 47.1,27.6 48.6,26.4 50.3,25.7 52.2,25.3 54.2,25.4 56.4,25.7 58.6,26.5 61.0,27.6 63.4,28.9 65.8,30.6 68.1,32.5 70.5,34.5 72.7,36.8 74.9,39.2 76.9,41.7 78.8,44.3 80.5,46.9 82.2,49.5 83.6,52.2 84.9,54.9 86.1,57.5 87.1,60.1 88.0,62.6 88.7,65.2 89.3,67.6 89.8,70.0 90.2,72.3 90.5,74.5 90.6,76.7 90.6,78.7 90.5,80.6 90.4,82.4 90.1,83.9 89.8,85.3 89.4,86.5 88.9,87.5 88.4,88.1 87.9,88.5 87.4,88.6 86.9,88.4 86.5,87.9 86.1,87.0 85.7,85.9 85.5,84.4 85.3,82.6 85.2,80.6 85.2,78.3 85.2,75.8 85.4,73.1 85.5,70.3 85.8,67.5 86.0,64.6 86.2,61.7 86.3,58.9 86.4,56.2" class="rope"/>
    <rect x="81.2" y="29.7" width="20" height="6" rx="3" transform="rotate(47.5 91.2 32.7)" fill="#f8f7f2"/><rect x="39.2" y="33.4" width="20" height="6" rx="3" transform="rotate(66.3 49.2 36.4)" fill="#f8f7f2"/><rect x="34.1" y="50.9" width="20" height="6" rx="3" transform="rotate(85.0 44.1 53.9)" fill="#f8f7f2"/><rect x="27.0" y="78.9" width="20" height="6" rx="3" transform="rotate(63.8 37.0 81.9)" fill="#f8f7f2"/><rect x="47.6" y="60.2" width="20" height="6" rx="3" transform="rotate(82.5 57.6 63.2)" fill="#f8f7f2"/><rect x="76.4" y="39.6" width="20" height="6" rx="3" transform="rotate(101.3 86.4 42.6)" fill="#f8f7f2"/><rect x="15.1" y="29.2" width="20" height="6" rx="3" transform="rotate(120.0 25.1 32.2)" fill="#f8f7f2"/><rect x="73.0" y="35.1" width="20" height="6" rx="3" transform="rotate(138.8 83.0 38.1)" fill="#f8f7f2"/>
    <polyline points="86.4,56.2 86.4,53.7 86.3,51.3 86.0,49.2 85.6,47.2 85.0,45.6 84.2,44.2 83.2,43.1 82.1,42.3 80.8,41.7 79.4,41.4 77.8,41.4 76.0,41.6 74.2,42.0 72.2,42.7 70.2,43.5 68.1,44.5 65.9,45.6 63.7,46.8 61.5,48.2 59.2,49.7 57.0,51.3 54.7,53.0 52.5,54.7 50.3,56.5 48.1,58.4 45.9,60.3 43.9,62.3 41.9,64.2 40.0,66.2 38.1,68.2 36.5,70.1 34.9,72.0 33.5,73.8 32.3,75.5 31.3,77.0 30.4,78.4 29.8,79.5 29.3,80.4 29.0,81.1 28.9,81.4 29.0,81.5 29.2,81.3 29.5,80.7 29.8,79.8 30.3,78.6 30.8,77.1 31.3,75.3 31.8,73.3 32.2,71.0 32.6,68.6 32.9,66.0 33.1,63.3 33.3,60.6 33.3,57.8 33.3,55.0 33.2,52.4 33.1,49.8 32.9,47.4 32.7,45.1 32.5,43.1 32.2,41.2 32.1,39.6 31.9,38.3 31.8,37.1 31.8,36.2 31.9,35.6 32.1,35.1 32.4,34.9 32.7,34.9 33.2,35.2 33.9,35.6 34.6,36.2 35.5,37.0 36.4,37.9 37.6,39.1 38.8,40.4 40.2,41.9 41.8,43.6 43.4,45.4 45.3,47.5 47.2,49.7 49.3,52.1 51.5,54.6 53.9,57.3 56.3,60.2 58.8,63.1 61.3,66.2 63.8,69.3 66.3,72.4 68.8,75.5 71.1,78.5 73.4,81.4 75.5,84.2 77.4,86.8 79.1,89.1 80.6,91.2 81.8,92.9 82.8,94.3 83.6,95.4 84.2,96.0 84.5,96.2 84.6,96.1 84.6,95.5 84.4,94.5 84.1,93.2 83.7,91.6 83.3,89.6 82.8,87.4 82.4,85.0 82.0,82.3 81.6,79.6 81.3,76.7 81.1,73.8 81.1,70.8 81.1,67.9 81.2,65.1 81.5,62.3 81.8,59.6 82.3,57.0 82.8,54.6 83.4,52.3 84.1,50.1 84.9,48.2 85.7,46.3 86.5,44.7 87.4,43.1 88.2,41.8 89.1,40.6 89.9,39.6 90.7,38.7 91.4,38.1 92.0,37.6 92.5,37.3 92.9,37.3 93.1,37.5 93.1,37.9 92.9,38.5 92.4,39.4 91.8,40.5 90.8,41.9 89.6,43.5 88.2,45.3 86.5,47.3 84.5,49.5 82.4,51.9 80.0,54.3 77.6,56.9 75.0,59.5 72.3,62.1 69.6,64.6 66.9,67.1 64.3,69.4 61.8,71.6 59.5,73.5 57.3,75.3 55.3,76.7 53.5,77.9 52.0,78.7 50.7,79.3 49.6,79.6 48.7,79.5 48.1,79.2 47.6,78.6 47.4,77.7 47.2,76.6 47.2,75.4 47.2,73.9 47.3,72.3 47.4,70.6 47.5,68.7 47.6,66.8 47.6,64.9 47.6,62.9 47.4,61.0 47.2,59.0 46.8,57.1 46.4,55.2 45.7,53.3 45.0,51.5 44.1,49.7 43.0,48.0 41.8,46.4 40.5,44.9 39.0,43.5 37.5,42.2 35.8,41.1 34.0,40.1 32.1,39.3 30.2,38.8 28.3,38.4 26.4,38.3 24.6,38.5 22.9,38.9 21.3,39.7 20.0,40.7 18.8,42.1 17.9,43.7 17.3,45.6 16.9,47.8 17.0,50.3 17.3,52.9 18.0,55.8 19.0,58.7 20.4,61.8 22.0,64.9 24.0,68.0 26.1,71.1 28.5,74.0 31.0,76.8 33.6,79.4 36.2,81.8 38.9,83.9 41.5,85.8 44.1,87.3 46.5,88.5 48.8,89.4 50.9,90.0 52.8,90.2 54.6,90.1 56.1,89.8 57.5,89.2 58.6,88.3 59.6,87.2 60.4,85.9 61.1,84.4 61.6,82.7 62.0,80.9 62.4,78.9 62.6,76.9 62.8,74.7 63.0,72.4 63.2,70.1 63.5,67.6 63.7,65.1 64.1,62.5 64.5,59.9 65.0,57.2 65.6,54.4 66.4,51.7 67.4,48.9 68.5,46.2 69.8,43.5 71.3,40.8 72.9,38.3 74.7,35.9 76.7,33.7 78.9,31.8 81.2,30.0 83.5,28.6 86.0,27.4 88.4,26.6 90.8,26.2 93.2,26.1 95.5,26.4 97.6,27.1 99.5,28.1 101.1,29.6 102.5,31.3 103.6,33.4 104.3,35.7 104.7,38.3 104.8,41.0 104.5,43.9 103.8,46.9 102.9,49.9 101.7,52.9 100.2,55.9 98.5,58.8 96.6,61.5 94.6,64.1 92.5,66.6 90.3,68.8 88.1,70.8 85.9,72.6 83.8,74.2 81.7,75.5 79.8,76.7 77.9,77.6 76.2,78.2 74.6,78.7 73.2,79.0 71.9,79.1 70.8,79.0 69.8,78.7 69.0,78.2 68.3,77.6 67.7,76.8 67.3,75.9 66.9,74.7 66.7,73.5 66.5,72.0 66.3,70.4 66.2,68.7 66.1,66.8 66.0,64.8 65.9,62.7 65.7,60.5 65.4,58.2 64.9,55.9 64.3,53.7 63.6,51.5 62.7,49.3 61.6,47.3 60.2,45.4 58.7,43.8 56.9,42.3 55.0,41.1 52.9,40.2 50.6,39.6 48.2,39.3 45.8,39.3 43.3,39.6 40.8,40.2 38.3,41.2 35.9,42.4 33.7,43.9 31.6,45.6 29.7,47.5 28.0,49.6 26.6,51.8 25.4,54.0 24.5,56.4 23.9,58.7 23.5,61.0 23.4,63.3 23.5,65.5 23.9,67.6 24.4,69.6 25.1,71.5 26.0,73.3 26.9,74.9 28.0,76.3 29.1,77.6 30.3,78.8 31.4,79.8 32.6,80.6 33.8,81.2 35.0,81.7 36.1,82.1 37.2,82.2 38.2,82.1 39.1,81.8 40.0,81.3 40.7,80.6 41.4,79.7 42.0,78.4 42.4,77.0 42.8,75.3 43.0,73.3 43.1,71.1 43.2,68.6 43.2,66.0 43.1,63.1 42.9,60.1 42.7,57.0 42.6,53.8 42.4,50.6 42.4,47.3 42.4,44.2 42.5,41.1 42.8,38.2 43.3,35.5 43.9,33.0 44.8,30.9 45.8,29.0 47.1,27.6 48.6,26.4 50.3,25.7 52.2,25.3 54.2,25.4 56.4,25.7 58.6,26.5 61.0,27.6 63.4,28.9 65.8,30.6 68.1,32.5 70.5,34.5 72.7,36.8 74.9,39.2 76.9,41.7 78.8,44.3 80.5,46.9 82.2,49.5 83.6,52.2 84.9,54.9 86.1,57.5 87.1,60.1 88.0,62.6 88.7,65.2 89.3,67.6 89.8,70.0 90.2,72.3 90.5,74.5 90.6,76.7 90.6,78.7 90.5,80.6 90.4,82.4 90.1,83.9 89.8,85.3 89.4,86.5 88.9,87.5 88.4,88.1 87.9,88.5 87.4,88.6 86.9,88.4 86.5,87.9 86.1,87.0 85.7,85.9 85.5,84.4 85.3,82.6 85.2,80.6 85.2,78.3 85.2,75.8 85.4,73.1 85.5,70.3 85.8,67.5 86.0,64.6 86.2,61.7 86.3,58.9 86.4,56.2" class="highlight"/>
  
</svg>