<svg xmlns="http://www.w3.org/2000/svg" viewBox="0 0 120 120" role="img">
  <rect width="120" height="120" rx="10" fill="#f8f7f2"/>
  <style>
    .shadow{fill:none;stroke:#4a4f56;stroke-width:13;stroke-linecap:round;stroke-linejoin:round;opacity:.22}
    .rope{fill:none;stroke:#1778bd;stroke-width:8;stroke-linecap:round;stroke-linejoin:round}
    .highlight{fill:none;stroke:#4fb1f0;stroke-width:2.2;stroke-linecap:round;stroke-linejoin:round;opacity:.85}
  </style>
  
    <polyline points="70.6,79.6 73.7,80.5 76.7,81.3 79.4,82.0 81.9,82.5 84.1,82.9 86.1,83.2 87.8,83.4 89.3,83.5 90.6,83.5 91.6,83.5 92.4,83.4 93.0,83.2 93.4,83.1 93.6,82.8 93.5,82.6 93.3,82.3 93.0,81.9 92.4,81.6 91.6,81.1 90.7,80.7 89.6,80.2 88.2,79.6 86.7,79.0 85.0,78.3 83.1,77.6 81.1,76.8 78.8,75.9 76.5,74.9 74.0,73.9 71.4,72.8 68.8,71.6 66.0,70.4 63.3,69.1 60.6,67.8 58.0,66.4 55.4,65.1 52.9,63.7 50.5,62.3 48.4,60.9 46.3,59.5 44.5,58.2 42.8,56.9 41.4,55.7 40.2,54.5 39.1,53.4 38.3,52.4 37.6,51.4 37.1,50.5 36.7,49.7 36.5,49.0 36.4,48.4 36.4,47.8 36.5,47.3 36.7,46.9 36.9,46.5 37.1,46.2 37.4,46.0 37.7,45.8 38.0,45.6 38.3,45.4 38.6,45.3 38.9,45.2 39.2,45.1 39.5,45.0 39.8,44.9 40.1,44.8 40.5,44.7 40.8,44.6 41.2,44.5 41.7,44.3 42.2,44.2 42.9,44.1 43.6,43.9 44.5,43.8 45.5,43.7 46.6,43.6 48.0,43.5 49.5,43.5 51.2,43.5 53.2,43.5 55.3,43.6 57.7,43.7 60.2,43.9 62.9,44.2 65.8,44.6 68.8,45.0 72.0,45.5 75.1,46.1 78.3,46.8 81.5,47.6 84.6,48.4 87.6,49.3 90.4,50.3 92.9,51.4 95.3,52.5 97.3,53.7 99.0,55.0 100.3,56.2 101.3,57.5 101.8,58.8 102.0,60.1 101.8,61.5 101.2,62.8 100.3,64.0 99.0,65.3 97.5,66.5 95.6,67.7 93.5,68.9 91.2,70.0 88.8,71.1 86.1,72.1 83.4,73.1 80.6,74.0 77.8,74.9 74.9,75.8 71.9,76.7 69.0,77.5 66.1,78.3 63.2,79.1 60.3,79.9 57.4,80.6 54.6,81.4 51.8,82.1 49.1,82.8 46.4,83.5 43.8,84.1 41.3,84.7 38.9,85.2 36.6,85.6 34.4,85.9 32.5,86.2 30.7,86.3 29.1,86.3 27.8,86.2 26.7,85.9 25.8,85.5 25.3,84.9 24.9,84.1 24.9,83.1 25.1,82.0 25.6,80.7 26.4,79.2 27.3,77.6 28.5,75.8 29.8,73.9 31.3,71.9 32.9,69.8 34.6,67.6 36.4,65.4 38.3,63.2 40.1,60.9 42.0,58.7 43.8,56.5 45.6,54.4 47.3,52.3 49.0,50.3 50.6,48.5 52.2,46.7 53.7,45.0 55.1,43.5 56.5,42.1 57.8,40.8 59.0,39.6 60.2,38.5 61.4,37.6 62.6,36.7 63.8,35.9 65.0,35.2 66.1,34.6 67.3,34.0 68.6,33.5 69.9,33.1 71.2,32.7 72.6,32.4 74.0,32.2 75.5,32.0 77.1,31.9 78.7,31.8 80.3,31.9 82.0,32.1 83.7,32.3 85.4,32.7 87.1,33.3 88.7,33.9 90.2,34.8 91.7,35.7 92.9,36.9 94.0,38.2 94.9,39.6 95.5,41.2 95.8,42.9 95.9,44.8 95.6,46.8 94.9,48.9 93.9,51.1 92.5,53.3 90.8,55.6 88.7,57.9 86.3,60.2 83.6,62.5 80.7,64.7 77.5,66.8 74.1,68.9 70.6,70.8 67.0,72.6 63.4,74.3 59.8,75.9 56.2,77.3 52.7,78.5 49.4,79.6 46.3,80.5 43.3,81.3 40.6,82.0 38.1,82.5 35.9,82.9 33.9,83.2 32.2,83.4 30.7,83.5 29.4,83.5 28.4,83.5 27.6,83.4 27.0,83.2 26.6,83.1 26.4,82.8 26.5,82.6 26.7,82.3 27.0,81.9 27.6,81.6 28.4,81.1 29.3,80.7 30.4,80.2 31.8,79.6 33.3,79.0 35.0,78.3 36.9,77.6 38.9,76.8 41.2,75.9 43.5,74.9 46.0,73.9 48.6,72.8 51.2,71.6 54.0,70.4 56.7,69.1 59.4,67.8 62.0,66.4 64.6,65.1 67.1,63.7 69.5,62.3 71.6,60.9 73.7,59.5 75.5,58.2 77.2,56.9 78.6,55.7 79.8,54.5 80.9,53.4 81.7,52.4 82.4,51.4 82.9,50.5 83.3,49.7 83.5,49.0 83.6,48.4 83.6,47.8 83.5,47.3 83.3,46.9 83.1,46.5 82.9,46.2 82.6,46.0 82.3,45.8 82.0,45.6 81.7,45.4 81.4,45.3 81.1,45.2 80.8,45.1 80.5,45.0 80.2,44.9 79.9,44.8 79.5,44.7 79.2,44.6 78.8,44.5 78.3,44.3 77.8,44.2 77.1,44.1 76.4,43.9 75.5,43.8 74.5,43.7 73.4,43.6 72.0,43.5 70.5,43.5 68.8,43.5 66.8,43.5 64.7,43.6 62.3,43.7 59.8,43.9 57.1,44.2 54.2,44.6 51.2,45.0 48.0,45.5 44.9,46.1 41.7,46.8 38.5,47.6 35.4,48.4 32.4,49.3 29.6,50.3 27.1,51.4 24.7,52.5 22.7,53.7 21.0,55.0 19.7,56.2 18.7,57.5 18.2,58.8 18.0,60.1 18.2,61.5 18.8,62.8 19.7,64.0 21.0,65.3 22.5,66.5 24.4,67.7 26.5,68.9 28.8,70.0 31.2,71.1 33.9,72.1 36.6,73.1 39.4,74.0 42.2,74.9 45.1,75.8 48.1,76.7 51.0,77.5 53.9,78.3 56.8,79.1 59.7,79.9 62.6,80.6 65.4,81.4 68.2,82.1 70.9,82.8 73.6,83.5 76.2,84.1 78.7,84.7 81.1,85.2 83.4,85.6 85.6,85.9 87.5,86.2 89.3,86.3 90.9,86.3 92.2,86.2 93.3,85.9 94.2,85.5 94.7,84.9 95.1,84.1 95.1,83.1 94.9,82.0 94.4,80.7 93.6,79.2 92.7,77.6 91.5,75.8 90.2,73.9 88.7,71.9 87.1,69.8 85.4,67.6 83.6,65.4 81.7,63.2 79.9,60.9 78.0,58.7 76.2,56.5 74.4,54.4 72.7,52.3 71.0,50.3 69.4,48.5 67.8,46.7 66.3,45.0 64.9,43.5 63.5,42.1 62.2,40.8 61.0,39.6 59.8,38.5 58.6,37.6 57.4,36.7 56.2,35.9 55.0,35.2 53.9,34.6 52.7,34.0 51.4,33.5 50.1,33.1 48.8,32.7 47.4,32.4 46.0,32.2 44.5,32.0 42.9,31.9 41.3,31.8 39.7,31.9 38.0,32.1 36.3,32.3 34.6,32.7 32.9,33.3 31.3,33.9 29.8,34.8 28.3,35.7 27.1,36.9 26.0,38.2 25.1,39.6 24.5,41.2 24.2,42.9 24.1,44.8 24.4,46.8 25.1,48.9 26.1,51.1 27.5,53.3 29.2,55.6 31.3,57.9 33.7,60.2 36.4,62.5 39.3,64.7 42.5,66.8 45.9,68.9 49.4,70.8 53.0,72.6 56.6,74.3 60.2,75.9 63.8,77.3 67.3,78.5 70.6,79.6" class="shadow"/>
    <polyline points="70.6,79.6 73.7,80.5 76.7,81.3 79.4,82.0 81.9,82.5 84.1,82.9 86.1,83.2 87.8,83.4 89.3,83.5 90.6,83.5 91.6,83.5 92.4,83.4 93.0,83.2 93.4,83.1 93.6,82.8 93.5,82.6 93.3,82.3 93.0,81.9 92.4,81.6 91.6,81.1 90.7,80.7 89.6,80.2 88.2,79.6 86.7,79.0 85.0,78.3 83.1,77.6 81.1,76.8 78.8,75.9 76.5,74.9 74.0,73.9 71.4,72.8 68.8,71.6 66.0,70.4 63.3,69.1 60.6,67.8 58.0,66.4 55.4,65.1 52.9,63.7 50.5,62.3 48.4,60.9 46.3,59.5 44.5,58.2 42.8,56.9 41.4,55.7 40.2,54.5 39.1,53.4 38.3,52.4 37.6,51.4 37.1,50.5 36.7,49.7 36.5,49.0 36.4,48.4 36.4,47.8 36.5,47.3 36.7,46.9 36.9,46.5 37.1,46.2 37.4,46.0 37.7,45.8 38.0,45.6 38.3,45.4 38.6,45.3 38.9,45.2 39.2,45.1 39.5,45.0 39.8,44.9 40.1,44.8 40.5,44.7 40.8,44.6 41.2,44.5 41.7,44.3 42.2,44.2 42.9,44.1 43.6,43.9 44.5,43.8 45.5,43.7 46.6,43.6 48.0,43.5 49.5,43.5 51.2,43.5 53.2,43.5 55.3,43.6 57.7,43.7 60.2,43.9 62.9,44.2 65.8,44.6 68.8,45.0 72.0,45.5 75.1,46.1 78.3,46.8 81.5,47.6 84.6,48.4 87.6,49.3 90.4,50.3 92.9,51.4 95.3,52.5 97.3,53.7 99.0,55.0 100.3,56.2 101.3,57.5 101.8,58.8 102.0,60.1 101.8,61.5 101.2,62.8 100.3,64.0 99.0,65.3 97.5,66.5 95.6,67.7 93.5,68.9 91.2,70.0 88.8,71.1 86.1,72.1 83.4,73.1 80.6,74.0 77.8,74.9 74.9,75.8 71.9,76.7 69.0,77.5 66.1,78.3 63.2,79.1 60.3,79.9 57.4,80.6 54.6,81.4 51.8,82.1 49.1,82.8 46.4,83.5 43.8,84.1 41.3,84.7 38.9,85.2 36.6,85.6 34.4,85.9 32.5,86.2 30.7,86.3 29.1,86.3 27.8,86.2 26.7,85.9 25.8,85.5 25.3,84.9 24.9,84.1 24.9,83.1 25.1,82.0 25.6,80.7 26.4,79.2 27.3,77.6 28.5,75.8 29.8,73.9 31.3,71.9 32.9,69.8 34.6,67.6 36.4,65.4 38.3,63.2 40.1,60.9 42.0,58.7 43.8,56.5 45.6,54.4 47.3,52.3 49.0,50.3 50.6,48.5 52.2,46.7 53.7,45.0 55.1,43.5 56.5,42.1 57.8,40.8 59.0,39.6 60.2,38.5 61.4,37.6 62.6,36.7 63.8,35.9 65.0,35.2 66.1,34.6 67.3,34.0 68.6,33.5 69.9,33.1 71.2,32.7 72.6,32.4 74.0,32.2 75.5,32.0 77.1,31.9 78.7,31.8 80.3,31.9 82.0,32.1 83.7,32.3 85.4,32.7 87.1,33.3 88.7,33.9 90.2,34.8 91.7,35.7 92.9,36.9 94.0,38.2 94.9,39.6 95.5,41.2 95.8,42.9 95.9,44.8 95.6,46.8 94.9,48.9 93.9,51.1 92.5,53.3 90.8,55.6 88.7,57.9 86.3,60.2 83.6,62.5 80.7,64.7 77.5,66.8 74.1,68.9 70.6,70.8 67.0,72.6 63.4,74.3 59.8,75.9 56.2,77.3 52.7,78.5 49.4,79.6 46.3,80.5 43.3,81.3 40.6,82.0 38.1,82.5 35.9,82.9 33.9,83.2 32.2,83.4 30.7,83.5 29.4,83.5 28.4,83.5 27.6,83.4 27.0,83.2 26.6,83.1 26.4,82.8 26.5,82.6 26.7,82.3 27.0,81.9 27.6,81.6 28.4,81.1 29.3,80.7 30.4,80.2 31.8,79.6 33.3,79.0 35.0,78.3 36.9,77.6 38.9,76.8 41.2,75.9 43.5,74.9 46.0,73.9 48.6,72.8 51.2,71.6 54.0,70.4 56.7,69.1 59.4,67.8 62.0,66.4 64.6,65.1 67.1,63.7 69.5,62.3 71.6,60.9 73.7,59.5 75.5,58.2 77.2,56.9 78.6,55.7 79.8,54.5 80.9,53.4 81.7,52.4 82.4,51.4 82.9,50.5 83.3,49.7 83.5,49.0 83.6,48.4 83.6,47.8 83.5,47.3 83.3,46.9 83.1,46.5 82.9,46.2 82.6,46.0 82.3,45.8 82.0,45.6 81.7,45.4 81.4,45.3 81.1,45.2 80.8,45.1 80.5,45.0 80.2,44.9 79.9,44.8 79.5,44.7 79.2,44.6 78.8,44.5 78.3,44.3 77.8,44.2 77.1,44.1 76.4,43.9 75.5,43.8 74.5,43.7 73.4,43.6 72.0,43.5 70.5,43.5 68.8,43.5 66.8,43.5 64.7,43.6 62.3,43.7 59.8,43.9 57.1,44.2 54.2,44.6 51.2,45.0 48.0,45.5 44.9,46.1 41.7,46.8 38.5,47.6 35.4,48.4 32.4,49.3 29.6,50.3 27.1,51.4 24.7,52.5 22.7,53.7 21.0,55.0 19.7,56.2 18.7,57.5 18.2,58.8 18.0,60.1 18.2,61.5 18.8,62.8 19.7,64.0 21.0,65.3 22.5,66.5 24.4,67.7 26.5,68.9 28.8,70.0 31.2,71.1 33.9,72.1 36.6,73.1 39.4,74.0 42.2,74.9 45.1,75.8 48.1,76.7 51.0,77.5 53.9,78.3 56.8,79.1 59.7,79.9 62.6,80.6 65.4,81.4 68.2,82.1 70.9,82.8 73.6,83.5 76.2,84.1 78.7,84.7 81.1,85.2 83.4,85.6 85.6,85.9 87.5,86.2 89.3,86.3 90.9,86.3 92.2,86.2 93.3,85.9 94.2,85.5 94.7,84.9 95.1,84.1 95.1,83.1 94.9,82.0 94.4,80.7 93.6,79.2 92.7,77.6 91.5,75.8 90.2,73.9 88.7,71.9 87.1,69.8 85.4,67.6 83.6,65.4 81.7,63.2 79.9,60.9 78.0,58.7 76.2,56.5 74.4,54.4 72.7,52.3 71.0,50.3 69.4,48.5 67.8,46.7 66.3,45.0 64.9,43.5 63.5,42.1 62.2,40.8 61.0,39.6 59.8,38.5 58.6,37.6 57.4,36.7 56.2,35.9 55.0,35.2 53.9,34.6 52.7,34.0 51.4,33.5 50.1,33.1 48.8,32.7 47.4,32.4 46.0,32.2 44.5,32.0 42.9,31.9 41.3,31.8 39.7,31.9 38.0,32.1 36.3,32.3 34.6,32.7 32.9,33.3 31.3,33.9 29.8,34.8 28.3,35.7 27.1,36.9 26.0,38.2 25.1,39.6 24.5,41.2 24.2,42.9 24.1,44.8 24.4,46.8 25.1,48.9 26.1,51.1 27.5,53.3 29.2,55.6 31.3,57.9 33.7,60.2 36.4,62.5 39.3,64.7 42.5,66.8 45.9,68.9 49.4,70.8 53.0,72.6 56.6,74.3 60.2,75.9 63.8,77.3 67.3,78.5 70.6,79.6" class="rope"/>
    <rect x="16.3" y="39.8" width="20" height="6" rx="3" transform="rotate(2.5 26.3 42.8)" fill="#f8f7f2"/><rect x="80.4" y="74.2" width="20" height="6" rx="3" transform="rotate(21.3 90.4 77.2)" fill="#f8f7f2"/><rect x="40.7" y="39.8" width="20" height="6" rx="3" transform="rotate(40.0 50.7 42.8)" fill="#f8f7f2"/><rect x="32.7" y="74.2" width="20" height="6" rx="3" transform="rotate(58.8 42.7 77.2)" fill="#f8f7f2"/><rect x="83.7" y="39.8" width="20" height="6" rx="3" transform="rotate(77.5 93.7 42.8)" fill="#f8f7f2"/><rect x="19.6" y="74.2" width="20" height="6" rx="3" transform="rotate(96.3 29.6 77.2)" fill="#f8f7f2"/><rect x="59.3" y="39.8" width="20" height="6" rx="3" transform="rotate(115.0 69.3 42.8)" fill="#f8f7f2"/><rect x="28.4" y="52.8" width="20" height="6" rx="3" transform="rotate(93.8 38.4 55.8)" fill="#f8f7f2"/>
    <polyline points="70.6,79.6 73.7,80.5 76.7,81.3 79.4,82.0 81.9,82.5 84.1,82.9 86.1,83.2 87.8,83.4 89.3,83.5 90.6,83.5 91.6,83.5 92.4,83.4 93.0,83.2 93.4,83.1 93.6,82.8 93.5,82.6 93.3,82.3 93.0,81.9 92.4,81.6 91.6,81.1 90.7,80.7 89.6,80.2 88.2,79.6 86.7,79.0 85.0,78.3 83.1,77.6 81.1,76.8 78.8,75.9 76.5,74.9 74.0,73.9 71.4,72.8 68.8,71.6 66.0,70.4 63.3,69.1 60.6,67.8 58.0,66.4 55.4,65.1 52.9,63.7 50.5,62.3 48.4,60.9 46.3,59.5 44.5,58.2 42.8,56.9 41.4,55.7 40.2,54.5 39.1,53.4 38.3,52.4 37.6,51.4 37.1,50.5 36.7,49.7 36.5,49.0 36.4,48.4 36.4,47.8 36.5,47.3 36.7,46.9 36.9,46.5 37.1,46.2 37.4,46.0 37.7,45.8 38.0,45.6 38.3,45.4 38.6,45.3 38.9,45.2 39.2,45.1 39.5,45.0 39.8,44.9 40.1,44.8 40.5,44.7 40.8,44.6 41.2,44.5 41.7,44.3 42.2,44.2 42.9,44.1 43.6,43.9 44.5,43.8 45.5,43.7 46.6,43.6 48.0,43.5 49.5,43.5 51.2,43.5 53.2,43.5 55.3,43.6 57.7,43.7 60.2,43.9 62.9,44.2 65.8,44.6 68.8,45.0 72.0,45.5 75.1,46.1 78.3,46.8 81.5,47.6 84.6,48.4 87.6,49.3 90.4,50.3 92.9,51.4 95.3,52.5 97.3,53.7 99.0,55.0 100.3,56.2 101.3,57.5 101.8,58.8 102.0,60.1 101.8,61.5 101.2,62.8 100.3,64.0 99.0,65.3 97.5,66.5 95.6,67.7 93.5,68.9 91.2,70.0 88.8,71.1 86.1,72.1 83.4,73.1 80.6,74.0 77.8,74.9 74.9,75.8 71.9,76.7 69.0,77.5 66.1,78.3 63.2,79.1 60.3,79.9 57.4,80.6 54.6,81.4 51.8,82.1 49.1,82.8 46.4,83.5 43.8,84.1 41.3,84.7 38.9,85.2 36.6,85.6 34.4,85.9 32.5,86.2 30.7,86.3 29.1,86.3 27.8,86.2 26.7,85.9 25.8,85.5 25.3,84.9 24.9,84.1 24.9,83.1 25.1,82.0 25.6,80.7 26.4,79.2 27.3,77.6 28.5,75.8 29.8,73.9 31.3,71.9 32.9,69.8 34.6,67.6 36.4,65.4 38.3,63.2 40.1,60.9 42.0,58.7 43.8,56.5 45.6,54.4 47.3,52.3 49.0,50.3 50.6,48.5 52.2,46.7 53.7,45.0 55.1,43.5 56.5,42.1 57.8,40.8 59.0,39.6 60.2,38.5 61.4,37.6 62.6,36.7 63.8,35.9 65.0,35.2 66.1,34.6 67.3,34.0 68.6,33.5 69.9,33.1 71.2,32.7 72.6,32.4 74.0,32.2 75.5,32.0 77.1,31.9 78.7,31.8 80.3,31.9 82.0,32.1 83.7,32.3 85.4,32.7 87.1,33.3 88.7,33.9 90.2,34.8 91.7,35.7 92.9,36.9 94.0,38.2 94.9,39.6 95.5,41.2 95.8,42.9 95.9,44.8 95.6,46.8 94.9,48.9 93.9,51.1 92.5,53.3 90.8,55.6 88.7,57.9 86.3,60.2 83.6,62.5 80.7,64.7 77.5,66.8 74.1,68.9 70.6,70.8 67.0,72.6 63.4,74.3 59.8,75.9 56.2,77.3 52.7,78.5 49.4,79.6 46.3,80.5 43.3,81.3 40.6,82.0 38.1,82.5 35.9,82.9 33.9,83.2 32.2,83.4 30.7,83.5 29.4,83.5 28.4,83.5 27.6,83.4 27.0,83.2 26.6,83.1 26.4,82.8 26.5,82.6 26.7,82.3 27.0,81.9 27.6,81.6 28.4,81.1 29.3,80.7 30.4,80.2 31.8,79.6 33.3,79.0 35.0,78.3 36.9,77.6 38.9,76.8 41.2,75.9 43.5,74.9 46.0,73.9 48.6,72.8 51.2,71.6 54.0,70.4 56.7,69.1 59.4,67.8 62.0,66.4 64.6,65.1 67.1,63.7 69.5,62.3 71.6,60.9 73.7,59.5 75.5,58.2 77.2,56.9 78.6,55.7 79.8,54.5 80.9,53.4 81.7,52.4 82.4,51.4 82.9,50.5 83.3,49.7 83.5,49.0 83.6,48.4 83.6,47.8 83.5,47.3 83.3,46.9 83.1,46.5 82.9,46.2 82.6,46.0 82.3,45.8 82.0,45.6 81.7,45.4 81.4,45.3 81.1,45.2 80.8,45.1 80.5,45.0 80.2,44.9 79.9,44.8 79.5,44.7 79.2,44.6 78.8,44.5 78.3,44.3 77.8,44.2 77.1,44.1 76.4,43.9 75.5,43.8 74.5,43.7 73.4,43.6 72.0,43.5 70.5,43.5 68.8,43.5 66.8,43.5 64.7,43.6 62.3,43.7 59.8,43.9 57.1,44.2 54.2,44.6 51.2,45.0 48.0,45.5 44.9,46.1 41.7,46.8 38.5,47.6 35.4,48.4 32.4,49.3 29.6,50.3 27.1,51.4 24.7,52.5 22.7,53.7 21.0,55.0 19.7,56.2 18.7,57.5 18.2,58.8 18.0,60.1 18.2,61.5 18.8,62.8 19.7,64.0 21.0,65.3 22.5,66.5 24.4,67.7 26.5,68.9 28.8,70.0 31.2,71.1 33.9,72.1 36.6,73.1 39.4,74.0 42.2,74.9 45.1,75.8 48.1,76.7 51.0,77.5 53.9,78.3 56.8,79.1 59.7,79.9 62.6,80.6 65.4,81.4 68.2,82.1 70.9,82.8 73.6,83.5 76.2,84.1 78.7,84.7 81.1,85.2 83.4,85.6 85.6,85.9 87.5,86.2 89.3,86.3 90.9,86.3 92.2,86.2 93.3,85.9 94.2,85.5 94.7,84.9 95.1,84.1 95.1,83.1 94.9,82.0 94.4,80.7 93.6,79.2 92.7,77.6 91.5,75.8 90.2,73.9 88.7,71.9 87.1,69.8 85.4,67.6 83.6,65.4 81.7,63.2 79.9,60.9 78.0,58.7 76.2,56.5 74.4,54.4 72.7,52.3 71.0,50.3 69.4,48.5 67.8,46.7 66.3,45.0 64.9,43.5 63.5,42.1 62.2,40.8 61.0,39.6 59.8,38.5 58.6,37.6 57.4,36.7 56.2,35.9 55.0,35.2 53.9,34.6 52.7,34.0 51.4,33.5 50.1,33.1 48.8,32.7 47.4,32.4 46.0,32.2 44.5,32.0 42.9,31.9 41.3,31.8 39.7,31.9 38.0,32.1 36.3,32.3 34.6,32.7 32.9,33.3 31.3,33.9 29.8,34.8 28.3,35.7 27.1,36.9 26.0,38.2 25.1,39.6 24.5,41.2 24.2,42.9 24.1,44.8 24.4,46.8 25.1,48.9 26.1,51.1 27.5,53.3 29.2,55.6 31.3,57.9 33.7,60.2 36.4,62.5 39.3,64.7 42.5,66.8 45.9,68.9 49.4,70.8 53.0,72.6 56.6,74.3 60.2,75.9 63.8,77.3 67.3,78.5 70.6,79.6" class="highlight"/>
  
</svg>