<svg xmlns="http://www.w3.org/2000/svg" viewBox="0 0 120 120" role="img">
  <rect width="120" height="120" rx="10" fill="#f8f7f2"/>
  <style>
    .shadow{fill:none;stroke:#4a4f56;stroke-width:13;stroke-linecap:round;stroke-linejoin:round;opacity:.22}
    .rope{fill:none;stroke:#1778bd;stroke-width:8;stroke-linecap:round;stroke-linejoin:round}
    .highlight{fill:none;stroke:#4fb1f0;stroke-width:2.2;stroke-linecap:round;stroke-linejoin:round;opacity:.85}
  </style>
  
    <polyline points="72.2,80.3 73.5,81.3 74.9,82.2 76.2,83.0 77.5,83.8 78.7,84.6 80.0,85.3 81.3,85.9 82.6,86.5 84.0,87.1 85.3,87.5 86.6,88.0 87.9,88.3 89.2,88.6 90.4,88.7 91.6,88.7 92.8,88.6 93.9,88.3 94.8,87.8 95.7,87.2 96.4,86.3 97.0,85.3 97.5,84.0 97.8,82.6 97.9,80.9 97.8,79.1 97.7,77.1 97.3,75.0 96.8,72.7 96.2,70.3 95.4,67.9 94.6,65.4 93.6,63.0 92.6,60.5 91.5,58.1 90.4,55.7 89.3,53.5 88.2,51.4 87.2,49.3 86.1,47.5 85.1,45.7 84.2,44.1 83.4,42.7 82.6,41.4 81.9,40.2 81.3,39.2 80.8,38.3 80.4,37.5 80.1,36.7 80.0,36.1 79.9,35.5 79.9,35.0 80.0,34.6 80.1,34.2 80.4,33.8 80.8,33.5 81.2,33.3 81.7,33.1 82.3,33.0 82.9,33.0 83.5,33.1 84.2,33.4 84.9,33.7 85.5,34.2 86.1,34.9 86.6,35.7 87.1,36.7 87.5,37.8 87.7,39.2 87.9,40.7 87.9,42.3 87.7,44.1 87.3,46.1 86.8,48.1 86.1,50.2 85.2,52.4 84.2,54.6 83.0,56.9 81.6,59.1 80.1,61.2 78.5,63.3 76.8,65.3 75.0,67.2 73.2,69.0 71.3,70.6 69.4,72.1 67.5,73.4 65.6,74.6 63.8,75.6 62.0,76.5 60.3,77.2 58.6,77.8 57.0,78.3 55.5,78.7 54.0,79.0 52.6,79.2 51.2,79.3 49.9,79.4 48.6,79.4 47.3,79.3 46.1,79.2 44.9,79.0 43.7,78.8 42.6,78.5 41.5,78.1 40.3,77.7 39.3,77.1 38.2,76.5 37.2,75.7 36.3,74.8 35.4,73.8 34.6,72.7 33.9,71.5 33.3,70.1 32.7,68.7 32.3,67.1 32.0,65.5 31.8,63.8 31.7,62.0 31.7,60.2 31.8,58.5 32.0,56.7 32.3,54.9 32.6,53.2 33.0,51.6 33.4,50.1 33.9,48.7 34.3,47.5 34.8,46.4 35.3,45.4 35.8,44.6 36.2,44.0 36.6,43.5 36.9,43.1 37.2,42.9 37.5,42.9 37.6,42.9 37.8,43.1 37.8,43.4 37.8,43.7 37.7,44.2 37.5,44.7 37.2,45.3 36.9,45.9 36.5,46.6 36.0,47.3 35.4,48.1 34.7,49.0 34.0,49.9 33.1,50.8 32.3,51.9 31.3,53.0 30.4,54.2 29.4,55.5 28.3,56.9 27.3,58.3 26.4,59.9 25.5,61.5 24.6,63.2 23.9,65.0 23.3,66.8 22.8,68.6 22.5,70.4 22.4,72.3 22.4,74.0 22.7,75.8 23.2,77.4 23.9,79.0 24.8,80.4 25.8,81.6 27.1,82.8 28.6,83.7 30.2,84.4 31.9,85.0 33.8,85.3 35.7,85.5 37.7,85.4 39.7,85.2 41.8,84.8 43.8,84.3 45.8,83.6 47.7,82.7 49.6,81.8 51.4,80.8 53.1,79.7 54.8,78.5 56.3,77.3 57.8,76.0 59.1,74.7 60.4,73.3 61.6,72.0 62.8,70.6 63.8,69.1 64.8,67.7 65.8,66.1 66.7,64.6 67.6,62.9 68.4,61.2 69.2,59.4 70.0,57.6 70.7,55.7 71.3,53.7 71.9,51.7 72.5,49.6 73.0,47.4 73.5,45.3 73.9,43.1 74.3,41.0 74.6,38.9 74.9,36.8 75.1,34.9 75.3,33.0 75.4,31.4 75.5,29.9 75.6,28.6 75.7,27.4 75.8,26.6 75.9,25.9 76.0,25.5 76.1,25.4 76.3,25.4 76.5,25.8 76.7,26.3 76.9,27.1 77.2,28.0 77.5,29.1 77.8,30.4 78.2,31.8 78.6,33.2 79.0,34.8 79.5,36.5 80.0,38.2 80.6,39.9 81.2,41.6 81.8,43.4 82.5,45.1 83.3,46.9 84.1,48.6 84.9,50.4 85.9,52.2 86.8,54.0 87.9,55.8 89.0,57.7 90.2,59.6 91.4,61.5 92.6,63.5 93.9,65.6 95.1,67.7 96.3,69.8 97.5,72.0 98.6,74.1 99.7,76.3 100.6,78.5 101.4,80.6 102.0,82.6 102.5,84.6 102.8,86.4 102.9,88.1 102.7,89.6 102.4,91.0 101.8,92.1 101.0,93.0 100.0,93.7 98.8,94.2 97.5,94.3 95.9,94.3 94.3,94.0 92.5,93.5 90.7,92.7 88.8,91.8 86.8,90.6 84.9,89.4 83.0,87.9 81.1,86.4 79.3,84.8 77.5,83.1 75.8,81.4 74.3,79.6 72.8,77.8 71.4,76.0 70.1,74.3 69.0,72.5 67.9,70.8 66.9,69.1 66.1,67.4 65.3,65.7 64.6,64.1 63.9,62.4 63.4,60.7 62.9,59.0 62.5,57.4 62.1,55.7 61.7,53.9 61.5,52.2 61.2,50.5 61.0,48.8 60.8,47.1 60.7,45.4 60.5,43.8 60.4,42.2 60.3,40.8 60.2,39.4 60.0,38.2 59.9,37.1 59.7,36.1 59.4,35.4 59.2,34.8 58.8,34.5 58.4,34.3 58.0,34.4 57.5,34.7 56.9,35.1 56.2,35.8 55.5,36.6 54.7,37.6 53.9,38.8 53.0,40.1 52.0,41.4 51.1,42.9 50.1,44.4 49.1,46.0 48.1,47.6 47.0,49.2 46.0,50.8 44.9,52.4 43.9,54.0 42.8,55.5 41.8,57.0 40.7,58.4 39.6,59.8 38.5,61.2 37.4,62.5 36.2,63.8 35.0,65.1 33.8,66.4 32.5,67.6 31.2,68.9 29.8,70.1 28.5,71.2 27.1,72.4 25.8,73.5 24.5,74.6 23.2,75.6 22.0,76.5 20.9,77.3 19.9,78.0 19.0,78.6 18.2,79.1 17.7,79.4 17.3,79.6 17.1,79.6 17.1,79.4 17.3,79.0 17.7,78.4 18.3,77.7 19.0,76.8 20.0,75.7 21.1,74.5 22.4,73.2 23.7,71.7 25.2,70.2 26.8,68.6 28.3,66.9 30.0,65.2 31.6,63.5 33.2,61.8 34.7,60.1 36.2,58.5 37.6,56.9 39.0,55.4 40.2,54.0 41.4,52.6 42.4,51.3 43.4,50.0 44.2,48.8 44.9,47.7 45.5,46.6 46.1,45.6 46.5,44.6 46.8,43.7 47.0,42.8 47.2,41.9 47.2,41.0 47.2,40.2 47.2,39.5 47.0,38.8 46.9,38.2 46.7,37.6 46.4,37.2 46.2,36.9 45.9,36.7 45.7,36.6 45.5,36.7 45.3,37.0 45.2,37.5 45.2,38.2 45.2,39.0 45.3,40.0 45.6,41.3 45.9,42.7 46.4,44.3 47.0,46.0 47.7,47.9 48.6,49.9 49.6,52.0 50.7,54.1 51.8,56.3 53.1,58.5 54.5,60.7 55.9,62.8 57.4,64.9 58.9,66.9 60.4,68.9 62.0,70.7 63.5,72.4 65.0,74.0 66.5,75.5 68.0,76.8 69.4,78.1 70.8,79.2 72.2,80.3" class="shadow"/>
    <polyline points="72.2,80.3 73.5,81.3 74.9,82.2 76.2,83.0 77.5,83.8 78.7,84.6 80.0,85.3 81.3,85.9 82.6,86.5 84.0,87.1 85.3,87.5 86.6,88.0 87.9,88.3 89.2,88.6 90.4,88.7 91.6,88.7 92.8,88.6 93.9,88.3 94.8,87.8 95.7,87.2 96.4,86.3 97.0,85.3 97.5,84.0 97.8,82.6 97.9,80.9 97.8,79.1 97.7,77.1 97.3,75.0 96.8,72.7 96.2,70.3 95.4,67.9 94.6,65.4 93.6,63.0 92.6,60.5 91.5,58.1 90.4,55.7 89.3,53.5 88.2,51.4 87.2,49.3 86.1,47.5 85.1,45.7 84.2,44.1 83.4,42.7 82.6,41.4 81.9,40.2 81.3,39.2 80.8,38.3 80.4,37.5 80.1,36.7 80.0,36.1 79.9,35.5 79.9,35.0 80.0,34.6 80.1,34.2 80.4,33.8 80.8,33.5 81.2,33.3 81.7,33.1 82.3,33.0 82.9,33.0 83.5,33.1 84.2,33.4 84.9,33.7 85.5,34.2 86.1,34.9 86.6,35.7 87.1,36.7 87.5,37.8 87.7,39.2 87.9,40.7 87.9,42.3 87.7,44.1 87.3,46.1 86.8,48.1 86.1,50.2 85.2,52.4 84.2,54.6 83.0,56.9 81.6,59.1 80.1,61.2 78.5,63.3 76.8,65.3 75.0,67.2 73.2,69.0 71.3,70.6 69.4,72.1 67.5,73.4 65.6,74.6 63.8,75.6 62.0,76.5 60.3,77.2 58.6,77.8 57.0,78.3 55.5,78.7 54.0,79.0 52.6,79.2 51.2,79.3 49.9,79.4 48.6,79.4 47.3,79.3 46.1,79.2 44.9,79.0 43.7,78.8 42.6,78.5 41.5,78.1 40.3,77.7 39.3,77.1 38.2,76.5 37.2,75.7 36.3,74.8 35.4,73.8 34.6,72.7 33.9,71.5 33.3,70.1 32.7,68.7 32.3,67.1 32.0,65.5 31.8,63.8 31.7,62.0 31.7,60.2 31.8,58.5 32.0,56.7 32.3,54.9 32.6,53.2 33.0,51.6 33.4,50.1 33.9,48.7 34.3,47.5 34.8,46.4 35.3,45.4 35.8,44.6 36.2,44.0 36.6,43.5 36.9,43.1 37.2,42.9 37.5,42.9 37.6,42.9 37.8,43.1 37.8,43.4 37.8,43.7 37.7,44.2 37.5,44.7 37.2,45.3 36.9,45.9 36.5,46.6 36.0,47.3 35.4,48.1 34.7,49.0 34.0,49.9 33.1,50.8 32.3,51.9 31.3,53.0 30.4,54.2 29.4,55.5 28.3,56.9 27.3,58.3 26.4,59.9 25.5,61.5 24.6,63.2 23.9,65.0 23.3,66.8 22.8,68.6 22.5,70.4 22.4,72.3 22.4,74.0 22.7,75.8 23.2,77.4 23.9,79.0 24.8,80.4 25.8,81.6 27.1,82.8 28.6,83.7 30.2,84.4 31.9,85.0 33.8,85.3 35.7,85.5 37.7,85.4 39.7,85.2 41.8,84.8 43.8,84.3 45.8,83.6 47.7,82.7 49.6,81.8 51.4,80.8 53.1,79.7 54.8,78.5 56.3,77.3 57.8,76.0 59.1,74.7 60.4,73.3 61.6,72.0 62.8,70.6 63.8,69.1 64.8,67.7 65.8,66.1 66.7,64.6 67.6,62.9 68.4,61.2 69.2,59.4 70.0,57.6 70.7,55.7 71.3,53.7 71.9,51.7 72.5,49.6 73.0,47.4 73.5,45.3 73.9,43.1 74.3,41.0 74.6,38.9 74.9,36.8 75.1,34.9 75.3,33.0 75.4,31.4 75.5,29.9 75.6,28.6 75.7,27.4 75.8,26.6 75.9,25.9 76.0,25.5 76.1,25.4 76.3,25.4 76.5,25.8 76.7,26.3 76.9,27.1 77.2,28.0 77.5,29.1 77.8,30.4 78.2,31.8 78.6,33.2 79.0,34.8 79.5,36.5 80.0,38.2 80.6,39.9 81.2,41.6 81.8,43.4 82.5,45.1 83.3,46.9 84.1,48.6 84.9,50.4 85.9,52.2 86.8,54.0 87.9,55.8 89.0,57.7 90.2,59.6 91.4,61.5 92.6,63.5 93.9,65.6 95.1,67.7 96.3,69.8 97.5,72.0 98.6,74.1 99.7,76.3 100.6,78.5 101.4,80.6 102.0,82.6 102.5,84.6 102.8,86.4 102.9,88.1 102.7,89.6 102.4,91.0 101.8,92.1 101.0,93.0 100.0,93.7 98.8,94.2 97.5,94.3 95.9,94.3 94.3,94.0 92.5,93.5 90.7,92.7 88.8,91.8 86.8,90.6 84.9,89.4 83.0,87.9 81.1,86.4 79.3,84.8 77.5,83.1 75.8,81.4 74.3,79.6 72.8,77.8 71.4,76.0 70.1,74.3 69.0,72.5 67.9,70.8 66.9,69.1 66.1,67.4 65.3,65.7 64.6,64.1 63.9,62.4 63.4,60.7 62.9,59.0 62.5,57.4 62.1,55.7 61.7,53.9 61.5,52.2 61.2,50.5 61.0,48.8 60.8,47.1 60.7,45.4 60.5,43.8 60.4,42.2 60.3,40.8 60.2,39.4 60.0,38.2 59.9,37.1 59.7,36.1 59.4,35.4 59.2,34.8 58.8,34.5 58.4,34.3 58.0,34.4 57.5,34.7 56.9,35.1 56.2,35.8 55.5,36.6 54.7,37.6 53.9,38.8 53.0,40.1 52.0,41.4 51.1,42.9 50.1,44.4 49.1,46.0 48.1,47.6 47.0,49.2 46.0,50.8 44.9,52.4 43.9,54.0 42.8,55.5 41.8,57.0 40.7,58.4 39.6,59.8 38.5,61.2 37.4,62.5 36.2,63.8 35.0,65.1 33.8,66.4 32.5,67.6 31.2,68.9 29.8,70.1 28.5,71.2 27.1,72.4 25.8,73.5 24.5,74.6 23.2,75.6 22.0,76.5 20.9,77.3 19.9,78.0 19.0,78.6 18.2,79.1 17.7,79.4 17.3,79.6 17.1,79.6 17.1,79.4 17.3,79.0 17.7,78.4 18.3,77.7 19.0,76.8 20.0,75.7 21.1,74.5 22.4,73.2 23.7,71.7 25.2,70.2 26.8,68.6 28.3,66.9 30.0,65.2 31.6,63.5 33.2,61.8 34.7,60.1 36.2,58.5 37.6,56.9 39.0,55.4 40.2,54.0 41.4,52.6 42.4,51.3 43.4,50.0 44.2,48.8 44.9,47.7 45.5,46.6 46.1,45.6 46.5,44.6 46.8,43.7 47.0,42.8 47.2,41.9 47.2,41.0 47.2,40.2 47.2,39.5 47.0,38.8 46.9,38.2 46.7,37.6 46.4,37.2 46.2,36.9 45.9,36.7 45.7,36.6 45.5,36.7 45.3,37.0 45.2,37.5 45.2,38.2 45.2,39.0 45.3,40.0 45.6,41.3 45.9,42.7 46.4,44.3 47.0,46.0 47.7,47.9 48.6,49.9 49.6,52.0 50.7,54.1 51.8,56.3 53.1,58.5 54.5,60.7 55.9,62.8 57.4,64.9 58.9,66.9 60.4,68.9 62.0,70.7 63.5,72.4 65.0,74.0 66.5,75.5 68.0,76.8 69.4,78.1 70.8,79.2 72.2,80.3" class="rope"/>
    <rect x="73.3" y="39.7" width="20" height="6" rx="3" transform="rotate(75.0 83.3 42.7)" fill="#f8f7f2"/><rect x="23.8" y="53.7" width="20" height="6" rx="3" transform="rotate(93.8 33.8 56.7)" fill="#f8f7f2"/><rect x="26.7" y="79.0" width="20" height="6" rx="3" transform="rotate(112.5 36.7 82.0)" fill="#f8f7f2"/><rect x="76.2" y="29.2" width="20" height="6" rx="3" transform="rotate(131.3 86.2 32.2)" fill="#f8f7f2"/><rect x="73.3" y="74.3" width="20" height="6" rx="3" transform="rotate(150.0 83.3 77.3)" fill="#f8f7f2"/><rect x="23.8" y="60.3" width="20" height="6" rx="3" transform="rotate(168.8 33.8 63.3)" fill="#f8f7f2"/><rect x="26.7" y="35.0" width="20" height="6" rx="3" transform="rotate(7.5 36.7 38.0)" fill="#f8f7f2"/><rect x="79.1" y="30.0" width="20" height="6" rx="3" transform="rotate(166.3 89.1 33.0)" fill="#f8f7f2"/>
    <polyline points="72.2,80.3 73.5,81.3 74.9,82.2 76.2,83.0 77.5,83.8 78.7,84.6 80.0,85.3 81.3,85.9 82.6,86.5 84.0,87.1 85.3,87.5 86.6,88.0 87.9,88.3 89.2,88.6 90.4,88.7 91.6,88.7 92.8,88.6 93.9,88.3 94.8,87.8 95.7,87.2 96.4,86.3 97.0,85.3 97.5,84.0 97.8,82.6 97.9,80.9 97.8,79.1 97.7,77.1 97.3,75.0 96.8,72.7 96.2,70.3 95.4,67.9 94.6,65.4 93.6,63.0 92.6,60.5 91.5,58.1 90.4,55.7 89.3,53.5 88.2,51.4 87.2,49.3 86.1,47.5 85.1,45.7 84.2,44.1 83.4,42.7 82.6,41.4 81.9,40.2 81.3,39.2 80.8,38.3 80.4,37.5 80.1,36.7 80.0,36.1 79.9,35.5 79.9,35.0 80.0,34.6 80.1,34.2 80.4,33.8 80.8,33.5 81.2,33.3 81.7,33.1 82.3,33.0 82.9,33.0 83.5,33.1 84.2,33.4 84.9,33.7 85.5,34.2 86.1,34.9 86.6,35.7 87.1,36.7 87.5,37.8 87.7,39.2 87.9,40.7 87.9,42.3 87.7,44.1 87.3,46.1 86.8,48.1 86.1,50.2 85.2,52.4 84.2,54.6 83.0,56.9 81.6,59.1 80.1,61.2 78.5,63.3 76.8,65.3 75.0,67.2 73.2,69.0 71.3,70.6 69.4,72.1 67.5,73.4 65.6,74.6 63.8,75.6 62.0,76.5 60.3,77.2 58.6,77.8 57.0,78.3 55.5,78.7 54.0,79.0 52.6,79.2 51.2,79.3 49.9,79.4 48.6,79.4 47.3,79.3 46.1,79.2 44.9,79.0 43.7,78.8 42.6,78.5 41.5,78.1 40.3,77.7 39.3,77.1 38.2,76.5 37.2,75.7 36.3,74.8 35.4,73.8 34.6,72.7 33.9,71.5 33.3,70.1 32.7,68.7 32.3,67.1 32.0,65.5 31.8,63.8 31.7,62.0 31.7,60.2 31.8,58.5 32.0,56.7 32.3,54.9 32.6,53.2 33.0,51.6 33.4,50.1 33.9,48.7 34.3,47.5 34.8,46.4 35.3,45.4 35.8,44.6 36.2,44.0 36.6,43.5 36.9,43.1 37.2,42.9 37.5,42.9 37.6,42.9 37.8,43.1 37.8,43.4 37.8,43.7 37.7,44.2 37.5,44.7 37.2,45.3 36.9,45.9 36.5,46.6 36.0,47.3 35.4,48.1 34.7,49.0 34.0,49.9 33.1,50.8 32.3,51.9 31.3,53.0 30.4,54.2 29.4,55.5 28.3,56.9 27.3,58.3 26.4,59.9 25.5,61.5 24.6,63.2 23.9,65.0 23.3,66.8 22.8,68.6 22.5,70.4 22.4,72.3 22.4,74.0 22.7,75.8 23.2,77.4 23.9,79.0 24.8,80.4 25.8,81.6 27.1,82.8 28.6,83.7 30.2,84.4 31.9,85.0 33.8,85.3 35.7,85.5 37.7,85.4 39.7,85.2 41.8,84.8 43.8,84.3 45.8,83.6 47.7,82.7 49.6,81.8 51.4,80.8 53.1,79.7 54.8,78.5 56.3,77.3 57.8,76.0 59.1,74.7 60.4,73.3 61.6,72.0 62.8,70.6 63.8,69.1 64.8,67.7 65.8,66.1 66.7,64.6 67.6,62.9 68.4,61.2 69.2,59.4 70.0,57.6 70.7,55.7 71.3,53.7 71.9,51.7 72.5,49.6 73.0,47.4 73.5,45.3 73.9,43.1 74.3,41.0 74.6,38.9 74.9,36.8 75.1,34.9 75.3,33.0 75.4,31.4 75.5,29.9 75.6,28.6 75.7,27.4 75.8,26.6 75.9,25.9 76.0,25.5 76.1,25.4 76.3,25.4 76.5,25.8 76.7,26.3 76.9,27.1 77.2,28.0 77.5,29.1 77.8,30.4 78.2,31.8 78.6,33.2 79.0,34.8 79.5,36.5 80.0,38.2 80.6,39.9 81.2,41.6 81.8,43.4 82.5,45.1 83.3,46.9 84.1,48.6 84.9,50.4 85.9,52.2 86.8,54.0 87.9,55.8 89.0,57.7 90.2,59.6 91.4,61.5 92.6,63.5 93.9,65.6 95.1,67.7 96.3,69.8 97.5,72.0 98.6,74.1 99.7,76.3 100.6,78.5 101.4,80.6 102.0,82.6 102.5,84.6 102.8,86.4 102.9,88.1 102.7,89.6 102.4,91.0 101.8,92.1 101.0,93.0 100.0,93.7 98.8,94.2 97.5,94.3 95.9,94.3 94.3,94.0 92.5,93.5 90.7,92.7 88.8,91.8 86.8,90.6 84.9,89.4 83.0,87.9 81.1,86.4 79.3,84.8 77.5,83.1 75.8,81.4 74.3,79.6 72.8,77.8 71.4,76.0 70.1,74.3 69.0,72.5 67.9,70.8 66.9,69.1 66.1,67.4 65.3,65.7 64.6,64.1 63.9,62.4 63.4,60.7 62.9,59.0 62.5,57.4 62.1,55.7 61.7,53.9 61.5,52.2 61.2,50.5 61.0,48.8 60.8,47.1 60.7,45.4 60.5,43.8 60.4,42.2 60.3,40.8 60.2,39.4 60.0,38.2 59.9,37.1 59.7,36.1 59.4,35.4 59.2,34.8 58.8,34.5 58.4,34.3 58.0,34.4 57.5,34.7 56.9,35.1 56.2,35.8 55.5,36.6 54.7,37.6 53.9,38.8 53.0,40.1 52.0,41.4 51.1,42.9 50.1,44.4 49.1,46.0 48.1,47.6 47.0,49.2 46.0,50.8 44.9,52.4 43.9,54.0 42.8,55.5 41.8,57.0 40.7,58.4 39.6,59.8 38.5,61.2 37.4,62.5 36.2,63.8 35.0,65.1 33.8,66.4 32.5,67.6 31.2,68.9 29.8,70.1 28.5,71.2 27.1,72.4 25.8,73.5 24.5,74.6 23.2,75.6 22.0,76.5 20.9,77.3 19.9,78.0 19.0,78.6 18.2,79.1 17.7,79.4 17.3,79.6 17.1,79.6 17.1,79.4 17.3,79.0 17.7,78.4 18.3,77.7 19.0,76.8 20.0,75.7 21.1,74.5 22.4,73.2 23.7,71.7 25.2,70.2 26.8,68.6 28.3,66.9 30.0,65.2 31.6,63.5 33.2,61.8 34.7,60.1 36.2,58.5 37.6,56.9 39.0,55.4 40.2,54.0 41.4,52.6 42.4,51.3 43.4,50.0 44.2,48.8 44.9,47.7 45.5,46.6 46.1,45.6 46.5,44.6 46.8,43.7 47.0,42.8 47.2,41.9 47.2,41.0 47.2,40.2 47.2,39.5 47.0,38.8 46.9,38.2 46.7,37.6 46.4,37.2 46.2,36.9 45.9,36.7 45.7,36.6 45.5,36.7 45.3,37.0 45.2,37.5 45.2,38.2 45.2,39.0 45.3,40.0 45.6,41.3 45.9,42.7 46.4,44.3 47.0,46.0 47.7,47.9 48.6,49.9 49.6,52.0 50.7,54.1 51.8,56.3 53.1,58.5 54.5,60.7 55.9,62.8 57.4,64.9 58.9,66.9 60.4,68.9 62.0,70.7 63.5,72.4 65.0,74.0 66.5,75.5 68.0,76.8 69.4,78.1 70.8,79.2 72.2,80.3" class="highlight"/>
  
</svg>