<svg xmlns="http://www.w3.org/2000/svg" viewBox="0 0 120 120" role="img">
  <rect width="120" height="120" rx="10" fill="#f8f7f2"/>
  <style>
    .shadow{fill:none;stroke:#4a4f56;stroke-width:13;stroke-linecap:round;stroke-linejoin:round;opacity:.22}
    .rope{fill:none;stroke:#1778bd;stroke-width:8;stroke-linecap:round;stroke-linejoin:round}
    .highlight{fill:none;stroke:#4fb1f0;stroke-width:2.2;stroke-linecap:round;stroke-linejoin:round;opacity:.85}
  </style>
  
    <polyline points="74.5,82.3 76.6,83.7 78.8,85.1 81.0,86.3 83.2,87.5 85.4,88.6 87.6,89.5 89.8,90.3 91.9,90.8 93.9,91.2 95.7,91.3 97.4,91.1 98.8,90.7 100.0,89.9 100.9,88.8 101.6,87.5 101.9,85.8 101.9,83.8 101.6,81.6 101.0,79.1 100.1,76.5 99.0,73.7 97.6,70.8 96.1,67.8 94.5,64.8 92.7,61.9 90.9,59.0 89.1,56.2 87.3,53.6 85.5,51.1 83.9,48.8 82.3,46.7 80.8,44.7 79.5,43.0 78.3,41.4 77.3,40.0 76.4,38.7 75.7,37.6 75.1,36.6 74.6,35.7 74.3,34.9 74.1,34.2 73.9,33.5 73.9,33.0 73.9,32.6 73.9,32.3 74.0,32.1 74.1,32.1 74.2,32.2 74.2,32.6 74.2,33.1 74.1,33.9 73.8,35.0 73.4,36.2 72.9,37.8 72.1,39.6 71.1,41.6 70.0,43.8 68.6,46.2 67.0,48.8 65.2,51.5 63.2,54.2 61.1,57.0 58.9,59.8 56.5,62.5 54.1,65.2 51.7,67.7 49.4,70.0 47.1,72.1 44.8,74.1 42.7,75.8 40.8,77.3 39.0,78.5 37.3,79.5 35.8,80.4 34.5,81.0 33.3,81.4 32.3,81.7 31.4,81.9 30.6,81.9 29.9,81.8 29.3,81.6 28.7,81.3 28.3,80.9 27.8,80.5 27.4,79.9 27.1,79.3 26.9,78.5 26.7,77.6 26.6,76.6 26.6,75.4 26.8,74.1 27.0,72.6 27.4,71.0 27.8,69.2 28.5,67.3 29.2,65.3 30.0,63.2 30.9,61.0 31.9,58.8 32.9,56.5 34.0,54.3 35.0,52.2 36.1,50.2 37.1,48.3 38.1,46.6 39.1,45.1 39.9,43.8 40.8,42.8 41.5,42.0 42.2,41.4 42.8,41.0 43.4,40.9 43.9,41.0 44.4,41.3 44.9,41.7 45.4,42.3 45.8,43.1 46.3,43.9 46.8,44.9 47.3,45.9 47.8,47.0 48.4,48.2 49.0,49.4 49.7,50.6 50.4,51.9 51.2,53.3 52.2,54.7 53.3,56.2 54.5,57.8 55.8,59.4 57.4,61.1 59.1,62.8 61.0,64.6 63.0,66.4 65.3,68.3 67.7,70.1 70.3,71.9 72.9,73.7 75.7,75.3 78.4,76.8 81.2,78.2 83.9,79.4 86.5,80.4 88.9,81.1 91.2,81.6 93.2,81.8 94.9,81.8 96.4,81.5 97.5,81.0 98.3,80.2 98.8,79.2 98.9,78.0 98.8,76.6 98.4,75.1 97.7,73.5 96.9,71.8 95.9,70.0 94.7,68.2 93.5,66.4 92.2,64.6 90.9,62.7 89.6,60.9 88.3,59.1 87.1,57.4 85.9,55.6 84.8,53.8 83.8,52.1 82.9,50.3 82.0,48.6 81.3,46.8 80.6,45.1 80.0,43.4 79.5,41.7 79.0,40.0 78.6,38.4 78.4,37.0 78.1,35.6 77.9,34.4 77.8,33.4 77.8,32.6 77.7,32.1 77.7,31.8 77.7,31.8 77.7,32.1 77.6,32.7 77.5,33.6 77.3,34.8 77.1,36.3 76.7,38.1 76.2,40.0 75.6,42.2 74.8,44.5 73.9,47.0 72.9,49.5 71.7,52.1 70.4,54.6 69.0,57.2 67.6,59.6 66.0,62.1 64.3,64.4 62.6,66.6 60.9,68.7 59.1,70.7 57.3,72.6 55.4,74.4 53.5,76.1 51.6,77.8 49.6,79.3 47.6,80.9 45.5,82.3 43.4,83.7 41.2,85.1 39.0,86.3 36.8,87.5 34.6,88.6 32.4,89.5 30.2,90.3 28.1,90.8 26.1,91.2 24.3,91.3 22.6,91.1 21.2,90.7 20.0,89.9 19.1,88.8 18.4,87.5 18.1,85.8 18.1,83.8 18.4,81.6 19.0,79.1 19.9,76.5 21.0,73.7 22.4,70.8 23.9,67.8 25.5,64.8 27.3,61.9 29.1,59.0 30.9,56.2 32.7,53.6 34.5,51.1 36.1,48.8 37.7,46.7 39.2,44.7 40.5,43.0 41.7,41.4 42.7,40.0 43.6,38.7 44.3,37.6 44.9,36.6 45.4,35.7 45.7,34.9 45.9,34.2 46.1,33.5 46.1,33.0 46.1,32.6 46.1,32.3 46.0,32.1 45.9,32.1 45.8,32.2 45.8,32.6 45.8,33.1 45.9,33.9 46.2,35.0 46.6,36.2 47.1,37.8 47.9,39.6 48.9,41.6 50.0,43.8 51.4,46.2 53.0,48.8 54.8,51.5 56.8,54.2 58.9,57.0 61.1,59.8 63.5,62.5 65.9,65.2 68.3,67.7 70.6,70.0 72.9,72.1 75.2,74.1 77.3,75.8 79.2,77.3 81.0,78.5 82.7,79.5 84.2,80.4 85.5,81.0 86.7,81.4 87.7,81.7 88.6,81.9 89.4,81.9 90.1,81.8 90.7,81.6 91.3,81.3 91.7,80.9 92.2,80.5 92.6,79.9 92.9,79.3 93.1,78.5 93.3,77.6 93.4,76.6 93.4,75.4 93.2,74.1 93.0,72.6 92.6,71.0 92.2,69.2 91.5,67.3 90.8,65.3 90.0,63.2 89.1,61.0 88.1,58.8 87.1,56.5 86.0,54.3 85.0,52.2 83.9,50.2 82.9,48.3 81.9,46.6 80.9,45.1 80.1,43.8 79.2,42.8 78.5,42.0 77.8,41.4 77.2,41.0 76.6,40.9 76.1,41.0 75.6,41.3 75.1,41.7 74.6,42.3 74.2,43.1 73.7,43.9 73.2,44.9 72.7,45.9 72.2,47.0 71.6,48.2 71.0,49.4 70.3,50.6 69.6,51.9 68.8,53.3 67.8,54.7 66.7,56.2 65.5,57.8 64.2,59.4 62.6,61.1 60.9,62.8 59.0,64.6 57.0,66.4 54.7,68.3 52.3,70.1 49.7,71.9 47.1,73.7 44.3,75.3 41.6,76.8 38.8,78.2 36.1,79.4 33.5,80.4 31.1,81.1 28.8,81.6 26.8,81.8 25.1,81.8 23.6,81.5 22.5,81.0 21.7,80.2 21.2,79.2 21.1,78.0 21.2,76.6 21.6,75.1 22.3,73.5 23.1,71.8 24.1,70.0 25.3,68.2 26.5,66.4 27.8,64.6 29.1,62.7 30.4,60.9 31.7,59.1 32.9,57.4 34.1,55.6 35.2,53.8 36.2,52.1 37.1,50.3 38.0,48.6 38.7,46.8 39.4,45.1 40.0,43.4 40.5,41.7 41.0,40.0 41.4,38.4 41.6,37.0 41.9,35.6 42.1,34.4 42.2,33.4 42.2,32.6 42.3,32.1 42.3,31.8 42.3,31.8 42.3,32.1 42.4,32.7 42.5,33.6 42.7,34.8 42.9,36.3 43.3,38.1 43.8,40.0 44.4,42.2 45.2,44.5 46.1,47.0 47.1,49.5 48.3,52.1 49.6,54.6 51.0,57.2 52.4,59.6 54.0,62.1 55.7,64.4 57.4,66.6 59.1,68.7 60.9,70.7 62.7,72.6 64.6,74.4 66.5,76.1 68.4,77.8 70.4,79.3 72.4,80.9 74.5,82.3" class="shadow"/>
    <polyline points="74.5,82.3 76.6,83.7 78.8,85.1 81.0,86.3 83.2,87.5 85.4,88.6 87.6,89.5 89.8,90.3 91.9,90.8 93.9,91.2 95.7,91.3 97.4,91.1 98.8,90.7 100.0,89.9 100.9,88.8 101.6,87.5 101.9,85.8 101.9,83.8 101.6,81.6 101.0,79.1 100.1,76.5 99.0,73.7 97.6,70.8 96.1,67.8 94.5,64.8 92.7,61.9 90.9,59.0 89.1,56.2 87.3,53.6 85.5,51.1 83.9,48.8 82.3,46.7 80.8,44.7 79.5,43.0 78.3,41.4 77.3,40.0 76.4,38.7 75.7,37.6 75.1,36.6 74.6,35.7 74.3,34.9 74.1,34.2 73.9,33.5 73.9,33.0 73.9,32.6 73.9,32.3 74.0,32.1 74.1,32.1 74.2,32.2 74.2,32.6 74.2,33.1 74.1,33.9 73.8,35.0 73.4,36.2 72.9,37.8 72.1,39.6 71.1,41.6 70.0,43.8 68.6,46.2 67.0,48.8 65.2,51.5 63.2,54.2 61.1,57.0 58.9,59.8 56.5,62.5 54.1,65.2 51.7,67.7 49.4,70.0 47.1,72.1 44.8,74.1 42.7,75.8 40.8,77.3 39.0,78.5 37.3,79.5 35.8,80.4 34.5,81.0 33.3,81.4 32.3,81.7 31.4,81.9 30.6,81.9 29.9,81.8 29.3,81.6 28.7,81.3 28.3,80.9 27.8,80.5 27.4,79.9 27.1,79.3 26.9,78.5 26.7,77.6 26.6,76.6 26.6,75.4 26.8,74.1 27.0,72.6 27.4,71.0 27.8,69.2 28.5,67.3 29.2,65.3 30.0,63.2 30.9,61.0 31.9,58.8 32.9,56.5 34.0,54.3 35.0,52.2 36.1,50.2 37.1,48.3 38.1,46.6 39.1,45.1 39.9,43.8 40.8,42.8 41.5,42.0 42.2,41.4 42.8,41.0 43.4,40.9 43.9,41.0 44.4,41.3 44.9,41.7 45.4,42.3 45.8,43.1 46.3,43.9 46.8,44.9 47.3,45.9 47.8,47.0 48.4,48.2 49.0,49.4 49.7,50.6 50.4,51.9 51.2,53.3 52.2,54.7 53.3,56.2 54.5,57.8 55.8,59.4 57.4,61.1 59.1,62.8 61.0,64.6 63.0,66.4 65.3,68.3 67.7,70.1 70.3,71.9 72.9,73.7 75.7,75.3 78.4,76.8 81.2,78.2 83.9,79.4 86.5,80.4 88.9,81.1 91.2,81.6 93.2,81.8 94.9,81.8 96.4,81.5 97.5,81.0 98.3,80.2 98.8,79.2 98.9,78.0 98.8,76.6 98.4,75.1 97.7,73.5 96.9,71.8 95.9,70.0 94.7,68.2 93.5,66.4 92.2,64.6 90.9,62.7 89.6,60.9 88.3,59.1 87.1,57.4 85.9,55.6 84.8,53.8 83.8,52.1 82.9,50.3 82.0,48.6 81.3,46.8 80.6,45.1 80.0,43.4 79.5,41.7 79.0,40.0 78.6,38.4 78.4,37.0 78.1,35.6 77.9,34.4 77.8,33.4 77.8,32.6 77.7,32.1 77.7,31.8 77.7,31.8 77.7,32.1 77.6,32.7 77.5,33.6 77.3,34.8 77.1,36.3 76.7,38.1 76.2,40.0 75.6,42.2 74.8,44.5 73.9,47.0 72.9,49.5 71.7,52.1 70.4,54.6 69.0,57.2 67.6,59.6 66.0,62.1 64.3,64.4 62.6,66.6 60.9,68.7 59.1,70.7 57.3,72.6 55.4,74.4 53.5,76.1 51.6,77.8 49.6,79.3 47.6,80.9 45.5,82.3 43.4,83.7 41.2,85.1 39.0,86.3 36.8,87.5 34.6,88.6 32.4,89.5 30.2,90.3 28.1,90.8 26.1,91.2 24.3,91.3 22.6,91.1 21.2,90.7 20.0,89.9 19.1,88.8 18.4,87.5 18.1,85.8 18.1,83.8 18.4,81.6 19.0,79.1 19.9,76.5 21.0,73.7 22.4,70.8 23.9,67.8 25.5,64.8 27.3,61.9 29.1,59.0 30.9,56.2 32.7,53.6 34.5,51.1 36.1,48.8 37.7,46.7 39.2,44.7 40.5,43.0 41.7,41.4 42.7,40.0 43.6,38.7 44.3,37.6 44.9,36.6 45.4,35.7 45.7,34.9 45.9,34.2 46.1,33.5 46.1,33.0 46.1,32.6 46.1,32.3 46.0,32.1 45.9,32.1 45.8,32.2 45.8,32.6 45.8,33.1 45.9,33.9 46.2,35.0 46.6,36.2 47.1,37.8 47.9,39.6 48.9,41.6 50.0,43.8 51.4,46.2 53.0,48.8 54.8,51.5 56.8,54.2 58.9,57.0 61.1,59.8 63.5,62.5 65.9,65.2 68.3,67.7 70.6,70.0 72.9,72.1 75.2,74.1 77.3,75.8 79.2,77.3 81.0,78.5 82.7,79.5 84.2,80.4 85.5,81.0 86.7,81.4 87.7,81.7 88.6,81.9 89.4,81.9 90.1,81.8 90.7,81.6 91.3,81.3 91.7,80.9 92.2,80.5 92.6,79.9 92.9,79.3 93.1,78.5 93.3,77.6 93.4,76.6 93.4,75.4 93.2,74.1 93.0,72.6 92.6,71.0 92.2,69.2 91.5,67.3 90.8,65.3 90.0,63.2 89.1,61.0 88.1,58.8 87.1,56.5 86.0,54.3 85.0,52.2 83.9,50.2 82.9,48.3 81.9,46.6 80.9,45.1 80.1,43.8 79.2,42.8 78.5,42.0 77.8,41.4 77.2,41.0 76.6,40.9 76.1,41.0 75.6,41.3 75.1,41.7 74.6,42.3 74.2,43.1 73.7,43.9 73.2,44.9 72.7,45.9 72.2,47.0 71.6,48.2 71.0,49.4 70.3,50.6 69.6,51.9 68.8,53.3 67.8,54.7 66.7,56.2 65.5,57.8 64.2,59.4 62.6,61.1 60.9,62.8 59.0,64.6 57.0,66.4 54.7,68.3 52.3,70.1 49.7,71.9 47.1,73.7 44.3,75.3 41.6,76.8 38.8,78.2 36.1,79.4 33.5,80.4 31.1,81.1 28.8,81.6 26.8,81.8 25.1,81.8 23.6,81.5 22.5,81.0 21.7,80.2 21.2,79.2 21.1,78.0 21.2,76.6 21.6,75.1 22.3,73.5 23.1,71.8 24.1,70.0 25.3,68.2 26.5,66.4 27.8,64.6 29.1,62.7 30.4,60.9 31.7,59.1 32.9,57.4 34.1,55.6 35.2,53.8 36.2,52.1 37.1,50.3 38.0,48.6 38.7,46.8 39.4,45.1 40.0,43.4 40.5,41.7 41.0,40.0 41.4,38.4 41.6,37.0 41.9,35.6 42.1,34.4 42.2,33.4 42.2,32.6 42.3,32.1 42.3,31.8 42.3,31.8 42.3,32.1 42.4,32.7 42.5,33.6 42.7,34.8 42.9,36.3 43.3,38.1 43.8,40.0 44.4,42.2 45.2,44.5 46.1,47.0 47.1,49.5 48.3,52.1 49.6,54.6 51.0,57.2 52.4,59.6 54.0,62.1 55.7,64.4 57.4,66.6 59.1,68.7 60.9,70.7 62.7,72.6 64.6,74.4 66.5,76.1 68.4,77.8 70.4,79.3 72.4,80.9 74.5,82.3" class="rope"/>
    <rect x="23.4" y="84.9" width="20" height="6" rx="3" transform="rotate(147.5 33.4 87.9)" fill="#f8f7f2"/><rect x="52.8" y="54.4" width="20" height="6" rx="3" transform="rotate(166.3 62.8 57.4)" fill="#f8f7f2"/><rect x="72.7" y="29.1" width="20" height="6" rx="3" transform="rotate(5.0 82.7 32.1)" fill="#f8f7f2"/><rect x="15.1" y="59.6" width="20" height="6" rx="3" transform="rotate(23.8 25.1 62.6)" fill="#f8f7f2"/><rect x="76.6" y="84.9" width="20" height="6" rx="3" transform="rotate(42.5 86.6 87.9)" fill="#f8f7f2"/><rect x="47.2" y="54.4" width="20" height="6" rx="3" transform="rotate(61.3 57.2 57.4)" fill="#f8f7f2"/><rect x="27.3" y="29.1" width="20" height="6" rx="3" transform="rotate(80.0 37.3 32.1)" fill="#f8f7f2"/><rect x="33.8" y="75.4" width="20" height="6" rx="3" transform="rotate(58.8 43.8 78.4)" fill="#f8f7f2"/>
    <polyline points="74.5,82.3 76.6,83.7 78.8,85.1 81.0,86.3 83.2,87.5 85.4,88.6 87.6,89.5 89.8,90.3 91.9,90.8 93.9,91.2 95.7,91.3 97.4,91.1 98.8,90.7 100.0,89.9 100.9,88.8 101.6,87.5 101.9,85.8 101.9,83.8 101.6,81.6 101.0,79.1 100.1,76.5 99.0,73.7 97.6,70.8 96.1,67.8 94.5,64.8 92.7,61.9 90.9,59.0 89.1,56.2 87.3,53.6 85.5,51.1 83.9,48.8 82.3,46.7 80.8,44.7 79.5,43.0 78.3,41.4 77.3,40.0 76.4,38.7 75.7,37.6 75.1,36.6 74.6,35.7 74.3,34.9 74.1,34.2 73.9,33.5 73.9,33.0 73.9,32.6 73.9,32.3 74.0,32.1 74.1,32.1 74.2,32.2 74.2,32.6 74.2,33.1 74.1,33.9 73.8,35.0 73.4,36.2 72.9,37.8 72.1,39.6 71.1,41.6 70.0,43.8 68.6,46.2 67.0,48.8 65.2,51.5 63.2,54.2 61.1,57.0 58.9,59.8 56.5,62.5 54.1,65.2 51.7,67.7 49.4,70.0 47.1,72.1 44.8,74.1 42.7,75.8 40.8,77.3 39.0,78.5 37.3,79.5 35.8,80.4 34.5,81.0 33.3,81.4 32.3,81.7 31.4,81.9 30.6,81.9 29.9,81.8 29.3,81.6 28.7,81.3 28.3,80.9 27.8,80.5 27.4,79.9 27.1,79.3 26.9,78.5 26.7,77.6 26.6,76.6 26.6,75.4 26.8,74.1 27.0,72.6 27.4,71.0 27.8,69.2 28.5,67.3 29.2,65.3 30.0,63.2 30.9,61.0 31.9,58.8 32.9,56.5 34.0,54.3 35.0,52.2 36.1,50.2 37.1,48.3 38.1,46.6 39.1,45.1 39.9,43.8 40.8,42.8 41.5,42.0 42.2,41.4 42.8,41.0 43.4,40.9 43.9,41.0 44.4,41.3 44.9,41.7 45.4,42.3 45.8,43.1 46.3,43.9 46.8,44.9 47.3,45.9 47.8,47.0 48.4,48.2 49.0,49.4 49.7,50.6 50.4,51.9 51.2,53.3 52.2,54.7 53.3,56.2 54.5,57.8 55.8,59.4 57.4,61.1 59.1,62.8 61.0,64.6 63.0,66.4 65.3,68.3 67.7,70.1 70.3,71.9 72.9,73.7 75.7,75.3 78.4,76.8 81.2,78.2 83.9,79.4 86.5,80.4 88.9,81.1 91.2,81.6 93.2,81.8 94.9,81.8 96.4,81.5 97.5,81.0 98.3,80.2 98.8,79.2 98.9,78.0 98.8,76.6 98.4,75.1 97.7,73.5 96.9,71.8 95.9,70.0 94.7,68.2 93.5,66.4 92.2,64.6 90.9,62.7 89.6,60.9 88.3,59.1 87.1,57.4 85.9,55.6 84.8,53.8 83.8,52.1 82.9,50.3 82.0,48.6 81.3,46.8 80.6,45.1 80.0,43.4 79.5,41.7 79.0,40.0 78.6,38.4 78.4,37.0 78.1,35.6 77.9,34.4 77.8,33.4 77.8,32.6 77.7,32.1 77.7,31.8 77.7,31.8 77.7,32.1 77.6,32.7 77.5,33.6 77.3,34.8 77.1,36.3 76.7,38.1 76.2,40.0 75.6,42.2 74.8,44.5 73.9,47.0 72.9,49.5 71.7,52.1 70.4,54.6 69.0,57.2 67.6,59.6 66.0,62.1 64.3,64.4 62.6,66.6 60.9,68.7 59.1,70.7 57.3,72.6 55.4,74.4 53.5,76.1 51.6,77.8 49.6,79.3 47.6,80.9 45.5,82.3 43.4,83.7 41.2,85.1 39.0,86.3 36.8,87.5 34.6,88.6 32.4,89.5 30.2,90.3 28.1,90.8 26.1,91.2 24.3,91.3 22.6,91.1 21.2,90.7 20.0,89.9 19.1,88.8 18.4,87.5 18.1,85.8 18.1,83.8 18.4,81.6 19.0,79.1 19.9,76.5 21.0,73.7 22.4,70.8 23.9,67.8 25.5,64.8 27.3,61.9 29.1,59.0 30.9,56.2 32.7,53.6 34.5,51.1 36.1,48.8 37.7,46.7 39.2,44.7 40.5,43.0 41.7,41.4 42.7,40.0 43.6,38.7 44.3,37.6 44.9,36.6 45.4,35.7 45.7,34.9 45.9,34.2 46.1,33.5 46.1,33.0 46.1,32.6 46.1,32.3 46.0,32.1 45.9,32.1 45.8,32.2 45.8,32.6 45.8,33.1 45.9,33.9 46.2,35.0 46.6,36.2 47.1,37.8 47.9,39.6 48.9,41.6 50.0,43.8 51.4,46.2 53.0,48.8 54.8,51.5 56.8,54.2 58.9,57.0 61.1,59.8 63.5,62.5 65.9,65.2 68.3,67.7 70.6,70.0 72.9,72.1 75.2,74.1 77.3,75.8 79.2,77.3 81.0,78.5 82.7,79.5 84.2,80.4 85.5,81.0 86.7,81.4 87.7,81.7 88.6,81.9 89.4,81.9 90.1,81.8 90.7,81.6 91.3,81.3 91.7,80.9 92.2,80.5 92.6,79.9 92.9,79.3 93.1,78.5 93.3,77.6 93.4,76.6 93.4,75.4 93.2,74.1 93.0,72.6 92.6,71.0 92.2,69.2 91.5,67.3 90.8,65.3 90.0,63.2 89.1,61.0 88.1,58.8 87.1,56.5 86.0,54.3 85.0,52.2 83.9,50.2 82.9,48.3 81.9,46.6 80.9,45.1 80.1,43.8 79.2,42.8 78.5,42.0 77.8,41.4 77.2,41.0 76.6,40.9 76.1,41.0 75.6,41.3 75.1,41.7 74.6,42.3 74.2,43.1 73.7,43.9 73.2,44.9 72.7,45.9 72.2,47.0 71.6,48.2 71.0,49.4 70.3,50.6 69.6,51.9 68.8,53.3 67.8,54.7 66.7,56.2 65.5,57.8 64.2,59.4 62.6,61.1 60.9,62.8 59.0,64.6 57.0,66.4 54.7,68.3 52.3,70.1 49.7,71.9 47.1,73.7 44.3,75.3 41.6,76.8 38.8,78.2 36.1,79.4 33.5,80.4 31.1,81.1 28.8,81.6 26.8,81.8 25.1,81.8 23.6,81.5 22.5,81.0 21.7,80.2 21.2,79.2 21.1,78.0 21.2,76.6 21.6,75.1 22.3,73.5 23.1,71.8 24.1,70.0 25.3,68.2 26.5,66.4 27.8,64.6 29.1,62.7 30.4,60.9 31.7,59.1 32.9,57.4 34.1,55.6 35.2,53.8 36.2,52.1 37.1,50.3 38.0,48.6 38.7,46.8 39.4,45.1 40.0,43.4 40.5,41.7 41.0,40.0 41.4,38.4 41.6,37.0 41.9,35.6 42.1,34.4 42.2,33.4 42.2,32.6 42.3,32.1 42.3,31.8 42.3,31.8 42.3,32.1 42.4,32.7 42.5,33.6 42.7,34.8 42.9,36.3 43.3,38.1 43.8,40.0 44.4,42.2 45.2,44.5 46.1,47.0 47.1,49.5 48.3,52.1 49.6,54.6 51.0,57.2 52.4,59.6 54.0,62.1 55.7,64.4 57.4,66.6 59.1,68.7 60.9,70.7 62.7,72.6 64.6,74.4 66.5,76.1 68.4,77.8 70.4,79.3 72.4,80.9 74.5,82.3" class="highlight"/>
  
</svg>