<svg xmlns="http://www.w3.org/2000/svg" viewBox="0 0 120 120" role="img">
  <rect width="120" height="120" rx="10" fill="#f8f7f2"/>
  <style>
    .shadow{fill:none;stroke:#4a4f56;stroke-width:13;stroke-linecap:round;stroke-linejoin:round;opacity:.22}
    .rope{fill:none;stroke:#1778bd;stroke-width:8;stroke-linecap:round;stroke-linejoin:round}
    .highlight{fill:none;stroke:#4fb1f0;stroke-width:2.2;stroke-linecap:round;stroke-linejoin:round;opacity:.85}
  </style>
  
    <polyline points="78.9,87.2 81.9,88.9 84.9,90.3 87.9,91.5 90.8,92.3 93.5,92.9 95.9,93.1 98.1,92.9 100.0,92.4 101.5,91.4 102.7,90.1 103.4,88.4 103.7,86.4 103.6,84.0 103.1,81.3 102.2,78.4 100.9,75.2 99.3,71.9 97.4,68.4 95.3,64.9 93.1,61.3 90.7,57.8 88.3,54.4 85.9,51.2 83.5,48.1 81.2,45.2 79.1,42.6 77.1,40.2 75.3,38.2 73.7,36.4 72.2,34.9 70.9,33.8 69.8,32.9 68.8,32.3 68.0,32.0 67.3,32.0 66.7,32.1 66.1,32.6 65.6,33.2 65.0,34.0 64.5,35.1 63.9,36.3 63.2,37.6 62.4,39.1 61.5,40.8 60.4,42.7 59.2,44.7 57.8,46.8 56.2,49.1 54.4,51.5 52.4,54.0 50.2,56.7 47.8,59.4 45.3,62.2 42.6,65.1 39.7,68.0 36.8,70.8 33.8,73.6 30.9,76.4 28.0,78.9 25.3,81.3 22.8,83.5 20.5,85.5 18.5,87.1 16.9,88.5 15.6,89.4 14.8,90.1 14.5,90.4 14.6,90.3 15.1,89.8 16.1,88.9 17.5,87.8 19.3,86.3 21.4,84.5 23.7,82.5 26.3,80.3 29.1,77.9 31.9,75.4 34.8,72.8 37.6,70.1 40.4,67.5 43.1,64.9 45.6,62.4 48.0,59.9 50.1,57.6 52.1,55.4 53.8,53.3 55.4,51.5 56.7,49.7 57.9,48.2 58.9,46.8 59.7,45.6 60.5,44.6 61.1,43.8 61.7,43.1 62.2,42.6 62.7,42.3 63.3,42.1 63.8,42.1 64.5,42.3 65.2,42.7 66.1,43.2 67.1,44.0 68.3,44.9 69.6,46.1 71.2,47.4 72.9,48.9 74.8,50.6 77.0,52.5 79.2,54.5 81.7,56.6 84.2,58.8 86.8,61.1 89.4,63.4 92.0,65.7 94.5,67.9 96.8,70.1 99.0,72.1 100.8,74.0 102.4,75.7 103.6,77.1 104.4,78.3 104.8,79.2 104.7,79.8 104.2,80.1 103.2,80.2 101.9,79.9 100.1,79.4 98.0,78.5 95.7,77.5 93.0,76.2 90.2,74.7 87.2,73.1 84.2,71.3 81.1,69.4 78.1,67.4 75.1,65.4 72.3,63.4 69.6,61.4 67.0,59.4 64.7,57.5 62.5,55.6 60.5,53.7 58.8,52.0 57.2,50.4 55.8,48.8 54.6,47.4 53.6,46.1 52.6,44.8 51.8,43.8 51.1,42.8 50.5,42.0 49.9,41.4 49.4,40.9 48.8,40.6 48.3,40.6 47.7,40.7 47.0,41.1 46.2,41.7 45.3,42.6 44.2,43.8 43.1,45.2 41.7,46.8 40.2,48.7 38.6,50.9 36.8,53.2 34.9,55.8 33.0,58.5 31.0,61.3 28.9,64.2 26.9,67.1 25.1,70.0 23.3,72.8 21.8,75.5 20.5,78.1 19.4,80.4 18.8,82.5 18.4,84.4 18.5,85.9 18.9,87.2 19.7,88.1 21.0,88.6 22.5,88.8 24.4,88.7 26.6,88.3 29.1,87.6 31.7,86.5 34.6,85.3 37.5,83.7 40.5,82.0 43.5,80.1 46.6,78.1 49.5,75.9 52.4,73.6 55.1,71.2 57.8,68.8 60.2,66.3 62.6,63.8 64.7,61.3 66.7,58.7 68.6,56.2 70.2,53.6 71.7,51.1 73.1,48.5 74.3,46.0 75.3,43.6 76.2,41.2 77.0,38.9 77.7,36.7 78.3,34.7 78.9,32.8 79.3,31.1 79.8,29.7 80.2,28.5 80.7,27.7 81.2,27.1 81.8,26.9 82.4,27.1 83.2,27.6 84.0,28.6 85.0,29.9 86.0,31.6 87.1,33.6 88.3,36.0 89.5,38.7 90.8,41.6 92.0,44.8 93.1,48.1 94.2,51.6 95.0,55.1 95.7,58.7 96.2,62.2 96.4,65.6 96.3,68.8 95.9,71.9 95.2,74.8 94.2,77.4 92.9,79.8 91.4,81.8 89.5,83.6 87.4,85.1 85.1,86.2 82.7,87.1 80.0,87.7 77.3,88.0 74.5,88.0 71.7,87.9 68.8,87.4 66.0,86.8 63.2,86.0 60.4,84.9 57.7,83.7 55.1,82.4 52.6,80.9 50.2,79.2 47.9,77.3 45.7,75.3 43.7,73.2 41.9,70.9 40.2,68.5 38.7,66.0 37.4,63.3 36.2,60.6 35.3,57.8 34.5,54.9 33.9,52.0 33.4,49.2 33.1,46.4 32.9,43.6 32.8,41.1 32.8,38.7 32.8,36.5 32.9,34.5 32.9,32.9 33.0,31.5 32.9,30.6 32.8,29.9 32.7,29.6 32.5,29.7 32.2,30.2 31.9,31.1 31.5,32.2 31.1,33.7 30.8,35.5 30.5,37.5 30.2,39.7 30.1,42.1 30.1,44.6 30.3,47.2 30.7,49.9 31.2,52.5 32.0,55.1 33.0,57.6 34.2,60.1 35.6,62.4 37.2,64.6 39.1,66.7 41.1,68.5 43.2,70.3 45.5,71.8 47.9,73.2 50.4,74.4 53.0,75.4 55.7,76.2 58.4,76.9 61.2,77.4 64.0,77.7 66.8,77.9 69.5,77.9 72.3,77.7 74.9,77.3 77.5,76.8 80.0,76.0 82.4,75.1 84.5,73.9 86.5,72.6 88.3,71.1 89.9,69.4 91.2,67.5 92.2,65.5 93.0,63.4 93.5,61.2 93.8,58.9 93.8,56.6 93.6,54.3 93.2,52.1 92.6,49.9 91.9,47.9 91.1,46.0 90.2,44.3 89.3,42.9 88.5,41.7 87.6,40.8 86.9,40.2 86.2,39.9 85.5,39.8 85.0,40.1 84.5,40.6 84.1,41.5 83.8,42.5 83.5,43.8 83.2,45.3 82.8,46.9 82.5,48.7 82.1,50.6 81.6,52.6 80.9,54.6 80.2,56.6 79.3,58.6 78.3,60.6 77.2,62.5 75.9,64.4 74.4,66.3 72.8,68.0 71.0,69.6 69.0,71.2 66.9,72.6 64.7,73.9 62.3,75.2 59.8,76.2 57.2,77.2 54.4,78.0 51.6,78.6 48.7,79.1 45.8,79.4 42.9,79.4 40.0,79.3 37.1,78.9 34.4,78.3 31.7,77.4 29.3,76.2 27.1,74.8 25.2,73.2 23.5,71.3 22.2,69.1 21.3,66.8 20.6,64.2 20.4,61.5 20.5,58.7 20.9,55.8 21.6,52.9 22.6,50.0 23.9,47.2 25.3,44.5 26.9,41.9 28.5,39.6 30.2,37.5 32.0,35.6 33.7,34.1 35.3,32.8 36.8,31.9 38.2,31.4 39.5,31.2 40.6,31.3 41.7,31.7 42.5,32.4 43.3,33.5 44.0,34.7 44.7,36.3 45.2,38.0 45.8,39.9 46.3,41.9 46.9,44.1 47.5,46.4 48.2,48.8 49.0,51.2 49.9,53.7 50.9,56.2 52.1,58.7 53.4,61.3 54.8,63.8 56.5,66.4 58.3,68.9 60.3,71.5 62.5,74.0 64.8,76.4 67.4,78.8 70.1,81.1 72.9,83.3 75.8,85.3 78.9,87.2" class="shadow"/>
    <polyline points="78.9,87.2 81.9,88.9 84.9,90.3 87.9,91.5 90.8,92.3 93.5,92.9 95.9,93.1 98.1,92.9 100.0,92.4 101.5,91.4 102.7,90.1 103.4,88.4 103.7,86.4 103.6,84.0 103.1,81.3 102.2,78.4 100.9,75.2 99.3,71.9 97.4,68.4 95.3,64.9 93.1,61.3 90.7,57.8 88.3,54.4 85.9,51.2 83.5,48.1 81.2,45.2 79.1,42.6 77.1,40.2 75.3,38.2 73.7,36.4 72.2,34.9 70.9,33.8 69.8,32.9 68.8,32.3 68.0,32.0 67.3,32.0 66.7,32.1 66.1,32.6 65.6,33.2 65.0,34.0 64.5,35.1 63.9,36.3 63.2,37.6 62.4,39.1 61.5,40.8 60.4,42.7 59.2,44.7 57.8,46.8 56.2,49.1 54.4,51.5 52.4,54.0 50.2,56.7 47.8,59.4 45.3,62.2 42.6,65.1 39.7,68.0 36.8,70.8 33.8,73.6 30.9,76.4 28.0,78.9 25.3,81.3 22.8,83.5 20.5,85.5 18.5,87.1 16.9,88.5 15.6,89.4 14.8,90.1 14.5,90.4 14.6,90.3 15.1,89.8 16.1,88.9 17.5,87.8 19.3,86.3 21.4,84.5 23.7,82.5 26.3,80.3 29.1,77.9 31.9,75.4 34.8,72.8 37.6,70.1 40.4,67.5 43.1,64.9 45.6,62.4 48.0,59.9 50.1,57.6 52.1,55.4 53.8,53.3 55.4,51.5 56.7,49.7 57.9,48.2 58.9,46.8 59.7,45.6 60.5,44.6 61.1,43.8 61.7,43.1 62.2,42.6 62.7,42.3 63.3,42.1 63.8,42.1 64.5,42.3 65.2,42.7 66.1,43.2 67.1,44.0 68.3,44.9 69.6,46.1 71.2,47.4 72.9,48.9 74.8,50.6 77.0,52.5 79.2,54.5 81.7,56.6 84.2,58.8 86.8,61.1 89.4,63.4 92.0,65.7 94.5,67.9 96.8,70.1 99.0,72.1 100.8,74.0 102.4,75.7 103.6,77.1 104.4,78.3 104.8,79.2 104.7,79.8 104.2,80.1 103.2,80.2 101.9,79.9 100.1,79.4 98.0,78.5 95.7,77.5 93.0,76.2 90.2,74.7 87.2,73.1 84.2,71.3 81.1,69.4 78.1,67.4 75.1,65.4 72.3,63.4 69.6,61.4 67.0,59.4 64.7,57.5 62.5,55.6 60.5,53.7 58.8,52.0 57.2,50.4 55.8,48.8 54.6,47.4 53.6,46.1 52.6,44.8 51.8,43.8 51.1,42.8 50.5,42.0 49.9,41.4 49.4,40.9 48.8,40.6 48.3,40.6 47.7,40.7 47.0,41.1 46.2,41.7 45.3,42.6 44.2,43.8 43.1,45.2 41.7,46.8 40.2,48.7 38.6,50.9 36.8,53.2 34.9,55.8 33.0,58.5 31.0,61.3 28.9,64.2 26.9,67.1 25.1,70.0 23.3,72.8 21.8,75.5 20.5,78.1 19.4,80.4 18.8,82.5 18.4,84.4 18.5,85.9 18.9,87.2 19.7,88.1 21.0,88.6 22.5,88.8 24.4,88.7 26.6,88.3 29.1,87.6 31.7,86.5 34.6,85.3 37.5,83.7 40.5,82.0 43.5,80.1 46.6,78.1 49.5,75.9 52.4,73.6 55.1,71.2 57.8,68.8 60.2,66.3 62.6,63.8 64.7,61.3 66.7,58.7 68.6,56.2 70.2,53.6 71.7,51.1 73.1,48.5 74.3,46.0 75.3,43.6 76.2,41.2 77.0,38.9 77.7,36.7 78.3,34.7 78.9,32.8 79.3,31.1 79.8,29.7 80.2,28.5 80.7,27.7 81.2,27.1 81.8,26.9 82.4,27.1 83.2,27.6 84.0,28.6 85.0,29.9 86.0,31.6 87.1,33.6 88.3,36.0 89.5,38.7 90.8,41.6 92.0,44.8 93.1,48.1 94.2,51.6 95.0,55.1 95.7,58.7 96.2,62.2 96.4,65.6 96.3,68.8 95.9,71.9 95.2,74.8 94.2,77.4 92.9,79.8 91.4,81.8 89.5,83.6 87.4,85.1 85.1,86.2 82.7,87.1 80.0,87.7 77.3,88.0 74.5,88.0 71.7,87.9 68.8,87.4 66.0,86.8 63.2,86.0 60.4,84.9 57.7,83.7 55.1,82.4 52.6,80.9 50.2,79.2 47.9,77.3 45.7,75.3 43.7,73.2 41.9,70.9 40.2,68.5 38.7,66.0 37.4,63.3 36.2,60.6 35.3,57.8 34.5,54.9 33.9,52.0 33.4,49.2 33.1,46.4 32.9,43.6 32.8,41.1 32.8,38.7 32.8,36.5 32.9,34.5 32.9,32.9 33.0,31.5 32.9,30.6 32.8,29.9 32.7,29.6 32.5,29.7 32.2,30.2 31.9,31.1 31.5,32.2 31.1,33.7 30.8,35.5 30.5,37.5 30.2,39.7 30.1,42.1 30.1,44.6 30.3,47.2 30.7,49.9 31.2,52.5 32.0,55.1 33.0,57.6 34.2,60.1 35.6,62.4 37.2,64.6 39.1,66.7 41.1,68.5 43.2,70.3 45.5,71.8 47.9,73.2 50.4,74.4 53.0,75.4 55.7,76.2 58.4,76.9 61.2,77.4 64.0,77.7 66.8,77.9 69.5,77.9 72.3,77.7 74.9,77.3 77.5,76.8 80.0,76.0 82.4,75.1 84.5,73.9 86.5,72.6 88.3,71.1 89.9,69.4 91.2,67.5 92.2,65.5 93.0,63.4 93.5,61.2 93.8,58.9 93.8,56.6 93.6,54.3 93.2,52.1 92.6,49.9 91.9,47.9 91.1,46.0 90.2,44.3 89.3,42.9 88.5,41.7 87.6,40.8 86.9,40.2 86.2,39.9 85.5,39.8 85.0,40.1 84.5,40.6 84.1,41.5 83.8,42.5 83.5,43.8 83.2,45.3 82.8,46.9 82.5,48.7 82.1,50.6 81.6,52.6 80.9,54.6 80.2,56.6 79.3,58.6 78.3,60.6 77.2,62.5 75.9,64.4 74.4,66.3 72.8,68.0 71.0,69.6 69.0,71.2 66.9,72.6 64.7,73.9 62.3,75.2 59.8,76.2 57.2,77.2 54.4,78.0 51.6,78.6 48.7,79.1 45.8,79.4 42.9,79.4 40.0,79.3 37.1,78.9 34.4,78.3 31.7,77.4 29.3,76.2 27.1,74.8 25.2,73.2 23.5,71.3 22.2,69.1 21.3,66.8 20.6,64.2 20.4,61.5 20.5,58.7 20.9,55.8 21.6,52.9 22.6,50.0 23.9,47.2 25.3,44.5 26.9,41.9 28.5,39.6 30.2,37.5 32.0,35.6 33.7,34.1 35.3,32.8 36.8,31.9 38.2,31.4 39.5,31.2 40.6,31.3 41.7,31.7 42.5,32.4 43.3,33.5 44.0,34.7 44.7,36.3 45.2,38.0 45.8,39.9 46.3,41.9 46.9,44.1 47.5,46.4 48.2,48.8 49.0,51.2 49.9,53.7 50.9,56.2 52.1,58.7 53.4,61.3 54.8,63.8 56.5,66.4 58.3,68.9 60.3,71.5 62.5,74.0 64.8,76.4 67.4,78.8 70.1,81.1 72.9,83.3 75.8,85.3 78.9,87.2" class="rope"/>
    <rect x="37.8" y="36.7" width="20" height="6" rx="3" transform="rotate(40.0 47.8 39.7)" fill="#f8f7f2"/><rect x="62.2" y="56.3" width="20" height="6" rx="3" transform="rotate(58.8 72.2 59.3)" fill="#f8f7f2"/><rect x="37.8" y="76.3" width="20" height="6" rx="3" transform="rotate(77.5 47.8 79.3)" fill="#f8f7f2"/><rect x="62.2" y="85.0" width="20" height="6" rx="3" transform="rotate(96.3 72.2 88.0)" fill="#f8f7f2"/><rect x="37.8" y="77.3" width="20" height="6" rx="3" transform="rotate(115.0 47.8 80.3)" fill="#f8f7f2"/><rect x="62.2" y="57.7" width="20" height="6" rx="3" transform="rotate(133.8 72.2 60.7)" fill="#f8f7f2"/><rect x="76.7" y="38.8" width="20" height="6" rx="3" transform="rotate(112.5 86.7 41.8)" fill="#f8f7f2"/><rect x="23.3" y="59.2" width="20" height="6" rx="3" transform="rotate(131.3 33.3 62.2)" fill="#f8f7f2"/>
    <polyline points="78.9,87.2 81.9,88.9 84.9,90.3 87.9,91.5 90.8,92.3 93.5,92.9 95.9,93.1 98.1,92.9 100.0,92.4 101.5,91.4 102.7,90.1 103.4,88.4 103.7,86.4 103.6,84.0 103.1,81.3 102.2,78.4 100.9,75.2 99.3,71.9 97.4,68.4 95.3,64.9 93.1,61.3 90.7,57.8 88.3,54.4 85.9,51.2 83.5,48.1 81.2,45.2 79.1,42.6 77.1,40.2 75.3,38.2 73.7,36.4 72.2,34.9 70.9,33.8 69.8,32.9 68.8,32.3 68.0,32.0 67.3,32.0 66.7,32.1 66.1,32.6 65.6,33.2 65.0,34.0 64.5,35.1 63.9,36.3 63.2,37.6 62.4,39.1 61.5,40.8 60.4,42.7 59.2,44.7 57.8,46.8 56.2,49.1 54.4,51.5 52.4,54.0 50.2,56.7 47.8,59.4 45.3,62.2 42.6,65.1 39.7,68.0 36.8,70.8 33.8,73.6 30.9,76.4 28.0,78.9 25.3,81.3 22.8,83.5 20.5,85.5 18.5,87.1 16.9,88.5 15.6,89.4 14.8,90.1 14.5,90.4 14.6,90.3 15.1,89.8 16.1,88.9 17.5,87.8 19.3,86.3 21.4,84.5 23.7,82.5 26.3,80.3 29.1,77.9 31.9,75.4 34.8,72.8 37.6,70.1 40.4,67.5 43.1,64.9 45.6,62.4 48.0,59.9 50.1,57.6 52.1,55.4 53.8,53.3 55.4,51.5 56.7,49.7 57.9,48.2 58.9,46.8 59.7,45.6 60.5,44.6 61.1,43.8 61.7,43.1 62.2,42.6 62.7,42.3 63.3,42.1 63.8,42.1 64.5,42.3 65.2,42.7 66.1,43.2 67.1,44.0 68.3,44.9 69.6,46.1 71.2,47.4 72.9,48.9 74.8,50.6 77.0,52.5 79.2,54.5 81.7,56.6 84.2,58.8 86.8,61.1 89.4,63.4 92.0,65.7 94.5,67.9 96.8,70.1 99.0,72.1 100.8,74.0 102.4,75.7 103.6,77.1 104.4,78.3 104.8,79.2 104.7,79.8 104.2,80.1 103.2,80.2 101.9,79.9 100.1,79.4 98.0,78.5 95.7,77.5 93.0,76.2 90.2,74.7 87.2,73.1 84.2,71.3 81.1,69.4 78.1,67.4 75.1,65.4 72.3,63.4 69.6,61.4 67.0,59.4 64.7,57.5 62.5,55.6 60.5,53.7 58.8,52.0 57.2,50.4 55.8,48.8 54.6,47.4 53.6,46.1 52.6,44.8 51.8,43.8 51.1,42.8 50.5,42.0 49.9,41.4 49.4,40.9 48.8,40.6 48.3,40.6 47.7,40.7 47.0,41.1 46.2,41.7 45.3,42.6 44.2,43.8 43.1,45.2 41.7,46.8 40.2,48.7 38.6,50.9 36.8,53.2 34.9,55.8 33.0,58.5 31.0,61.3 28.9,64.2 26.9,67.1 25.1,70.0 23.3,72.8 21.8,75.5 20.5,78.1 19.4,80.4 18.8,82.5 18.4,84.4 18.5,85.9 18.9,87.2 19.7,88.1 21.0,88.6 22.5,88.8 24.4,88.7 26.6,88.3 29.1,87.6 31.7,86.5 34.6,85.3 37.5,83.7 40.5,82.0 43.5,80.1 46.6,78.1 49.5,75.9 52.4,73.6 55.1,71.2 57.8,68.8 60.2,66.3 62.6,63.8 64.7,61.3 66.7,58.7 68.6,56.2 70.2,53.6 71.7,51.1 73.1,48.5 74.3,46.0 75.3,43.6 76.2,41.2 77.0,38.9 77.7,36.7 78.3,34.7 78.9,32.8 79.3,31.1 79.8,29.7 80.2,28.5 80.7,27.7 81.2,27.1 81.8,26.9 82.4,27.1 83.2,27.6 84.0,28.6 85.0,29.9 86.0,31.6 87.1,33.6 88.3,36.0 89.5,38.7 90.8,41.6 92.0,44.8 93.1,48.1 94.2,51.6 95.0,55.1 95.7,58.7 96.2,62.2 96.4,65.6 96.3,68.8 95.9,71.9 95.2,74.8 94.2,77.4 92.9,79.8 91.4,81.8 89.5,83.6 87.4,85.1 85.1,86.2 82.7,87.1 80.0,87.7 77.3,88.0 74.5,88.0 71.7,87.9 68.8,87.4 66.0,86.8 63.2,86.0 60.4,84.9 57.7,83.7 55.1,82.4 52.6,80.9 50.2,79.2 47.9,77.3 45.7,75.3 43.7,73.2 41.9,70.9 40.2,68.5 38.7,66.0 37.4,63.3 36.2,60.6 35.3,57.8 34.5,54.9 33.9,52.0 33.4,49.2 33.1,46.4 32.9,43.6 32.8,41.1 32.8,38.7 32.8,36.5 32.9,34.5 32.9,32.9 33.0,31.5 32.9,30.6 32.8,29.9 32.7,29.6 32.5,29.7 32.2,30.2 31.9,31.1 31.5,32.2 31.1,33.7 30.8,35.5 30.5,37.5 30.2,39.7 30.1,42.1 30.1,44.6 30.3,47.2 30.7,49.9 31.2,52.5 32.0,55.1 33.0,57.6 34.2,60.1 35.6,62.4 37.2,64.6 39.1,66.7 41.1,68.5 43.2,70.3 45.5,71.8 47.9,73.2 50.4,74.4 53.0,75.4 55.7,76.2 58.4,76.9 61.2,77.4 64.0,77.7 66.8,77.9 69.5,77.9 72.3,77.7 74.9,77.3 77.5,76.8 80.0,76.0 82.4,75.1 84.5,73.9 86.5,72.6 88.3,71.1 89.9,69.4 91.2,67.5 92.2,65.5 93.0,63.4 93.5,61.2 93.8,58.9 93.8,56.6 93.6,54.3 93.2,52.1 92.6,49.9 91.9,47.9 91.1,46.0 90.2,44.3 89.3,42.9 88.5,41.7 87.6,40.8 86.9,40.2 86.2,39.9 85.5,39.8 85.0,40.1 84.5,40.6 84.1,41.5 83.8,42.5 83.5,43.8 83.2,45.3 82.8,46.9 82.5,48.7 82.1,50.6 81.6,52.6 80.9,54.6 80.2,56.6 79.3,58.6 78.3,60.6 77.2,62.5 75.9,64.4 74.4,66.3 72.8,68.0 71.0,69.6 69.0,71.2 66.9,72.6 64.7,73.9 62.3,75.2 59.8,76.2 57.2,77.2 54.4,78.0 51.6,78.6 48.7,79.1 45.8,79.4 42.9,79.4 40.0,79.3 37.1,78.9 34.4,78.3 31.7,77.4 29.3,76.2 27.1,74.8 25.2,73.2 23.5,71.3 22.2,69.1 21.3,66.8 20.6,64.2 20.4,61.5 20.5,58.7 20.9,55.8 21.6,52.9 22.6,50.0 23.9,47.2 25.3,44.5 26.9,41.9 28.5,39.6 30.2,37.5 32.0,35.6 33.7,34.1 35.3,32.8 36.8,31.9 38.2,31.4 39.5,31.2 40.6,31.3 41.7,31.7 42.5,32.4 43.3,33.5 44.0,34.7 44.7,36.3 45.2,38.0 45.8,39.9 46.3,41.9 46.9,44.1 47.5,46.4 48.2,48.8 49.0,51.2 49.9,53.7 50.9,56.2 52.1,58.7 53.4,61.3 54.8,63.8 56.5,66.4 58.3,68.9 60.3,71.5 62.5,74.0 64.8,76.4 67.4,78.8 70.1,81.1 72.9,83.3 75.8,85.3 78.9,87.2" class="highlight"/>
  
</svg>