<svg xmlns="http://www.w3.org/2000/svg" viewBox="0 0 120 120" role="img">
  <rect width="120" height="120" rx="10" fill="#f8f7f2"/>
  <style>
    .shadow{fill:none;stroke:#4a4f56;stroke-width:13;stroke-linecap:round;stroke-linejoin:round;opacity:.22}
    .rope{fill:none;stroke:#1778bd;stroke-width:8;stroke-linecap:round;stroke-linejoin:round}
    .highlight{fill:none;stroke:#4fb1f0;stroke-width:2.2;stroke-linecap:round;stroke-linejoin:round;opacity:.85}
  </style>
  
    <polyline points="84.3,93.0 87.5,93.8 90.5,94.4 93.4,94.9 96.0,95.2 98.3,95.3 100.2,95.2 101.8,94.9 103.1,94.4 103.9,93.7 104.3,92.9 104.2,92.0 103.8,90.8 103.0,89.6 101.8,88.3 100.3,86.9 98.4,85.4 96.4,84.0 94.0,82.4 91.5,80.9 88.9,79.4 86.2,78.0 83.3,76.5 80.5,75.1 77.6,73.8 74.7,72.5 71.8,71.2 69.0,70.1 66.1,68.9 63.3,67.9 60.5,66.8 57.7,65.8 55.0,64.8 52.2,63.9 49.5,63.0 46.8,62.0 44.2,61.2 41.5,60.3 39.0,59.4 36.5,58.5 34.1,57.6 31.8,56.8 29.7,56.0 27.8,55.1 26.2,54.3 24.7,53.5 23.6,52.8 22.7,52.1 22.1,51.4 21.9,50.7 22.0,50.1 22.4,49.5 23.1,49.0 24.1,48.6 25.4,48.1 26.9,47.7 28.6,47.4 30.6,47.1 32.7,46.9 34.9,46.6 37.2,46.5 39.5,46.3 41.8,46.2 44.2,46.0 46.4,45.9 48.7,45.8 50.8,45.7 52.8,45.6 54.8,45.5 56.6,45.4 58.3,45.3 60.0,45.1 61.5,44.9 63.0,44.7 64.3,44.4 65.7,44.1 66.9,43.8 68.1,43.4 69.3,43.0 70.5,42.5 71.7,42.0 72.8,41.4 74.0,40.8 75.1,40.2 76.3,39.5 77.5,38.9 78.6,38.2 79.8,37.6 80.9,36.9 82.0,36.4 83.1,35.8 84.1,35.4 85.0,35.0 85.9,34.8 86.7,34.6 87.3,34.6 87.9,34.7 88.3,35.0 88.5,35.4 88.6,35.9 88.5,36.6 88.3,37.4 87.8,38.4 87.2,39.5 86.4,40.7 85.4,42.0 84.2,43.4 82.9,44.9 81.5,46.4 79.9,47.9 78.2,49.5 76.4,51.2 74.5,52.8 72.6,54.4 70.6,55.9 68.5,57.5 66.5,59.0 64.4,60.6 62.3,62.0 60.1,63.5 58.0,64.9 55.8,66.3 53.7,67.8 51.5,69.2 49.2,70.6 47.0,72.0 44.7,73.5 42.4,75.0 40.0,76.5 37.7,78.0 35.3,79.5 33.0,81.0 30.8,82.6 28.6,84.1 26.5,85.6 24.6,87.0 22.8,88.4 21.3,89.7 20.1,90.9 19.1,92.0 18.5,93.0 18.3,93.8 18.5,94.4 19.0,94.9 19.9,95.2 21.3,95.3 23.0,95.2 25.2,94.9 27.6,94.4 30.4,93.7 33.4,92.9 36.6,92.0 40.0,90.8 43.5,89.6 47.1,88.3 50.7,86.9 54.3,85.4 57.8,84.0 61.2,82.4 64.4,80.9 67.5,79.4 70.5,78.0 73.2,76.5 75.7,75.1 78.1,73.8 80.3,72.5 82.3,71.2 84.1,70.1 85.8,68.9 87.3,67.9 88.8,66.8 90.0,65.8 91.2,64.8 92.2,63.9 93.0,63.0 93.7,62.0 94.3,61.2 94.6,60.3 94.8,59.4 94.7,58.5 94.4,57.6 93.9,56.8 93.1,56.0 92.0,55.1 90.7,54.3 89.1,53.5 87.3,52.8 85.2,52.1 82.9,51.4 80.5,50.7 77.8,50.1 75.1,49.5 72.3,49.0 69.4,48.6 66.5,48.1 63.7,47.7 60.9,47.4 58.2,47.1 55.7,46.9 53.4,46.6 51.2,46.5 49.2,46.3 47.4,46.2 45.8,46.0 44.4,45.9 43.3,45.8 42.3,45.7 41.4,45.6 40.7,45.5 40.2,45.4 39.8,45.3 39.4,45.1 39.2,44.9 39.0,44.7 38.9,44.4 38.8,44.1 38.7,43.8 38.6,43.4 38.6,43.0 38.5,42.5 38.5,42.0 38.5,41.4 38.5,40.8 38.5,40.2 38.6,39.5 38.7,38.9 38.8,38.2 39.0,37.6 39.3,36.9 39.7,36.4 40.2,35.8 40.7,35.4 41.4,35.0 42.2,34.8 43.1,34.6 44.2,34.6 45.4,34.7 46.7,35.0 48.2,35.4 49.7,35.9 51.4,36.6 53.2,37.4 55.0,38.4 57.0,39.5 59.0,40.7 61.0,42.0 63.0,43.4 65.0,44.9 67.0,46.4 69.0,47.9 70.9,49.5 72.7,51.2 74.5,52.8 76.2,54.4 77.7,55.9 79.2,57.5 80.6,59.0 81.9,60.6 83.1,62.0 84.2,63.5 85.3,64.9 86.2,66.3 87.1,67.8 87.9,69.2 88.7,70.6 89.3,72.0 89.9,73.5 90.3,75.0 90.6,76.5 90.8,78.0 90.8,79.5 90.7,81.0 90.3,82.6 89.6,84.1 88.7,85.6 87.5,87.0 86.1,88.4 84.3,89.7 82.2,90.9 79.8,92.0 77.1,93.0 74.2,93.8 71.0,94.4 67.6,94.9 64.1,95.2 60.4,95.3 56.7,95.2 53.0,94.9 49.3,94.4 45.8,93.7 42.4,92.9 39.1,92.0 36.2,90.8 33.5,89.6 31.1,88.3 29.0,86.9 27.3,85.4 25.9,84.0 24.8,82.4 24.0,80.9 23.6,79.4 23.4,78.0 23.5,76.5 23.8,75.1 24.3,73.8 25.0,72.5 25.9,71.2 26.9,70.1 28.1,68.9 29.3,67.9 30.7,66.8 32.2,65.8 33.9,64.8 35.6,63.9 37.5,63.0 39.5,62.0 41.6,61.2 43.9,60.3 46.3,59.4 48.8,58.5 51.5,57.6 54.3,56.8 57.2,56.0 60.1,55.1 63.1,54.3 66.1,53.5 69.1,52.8 72.1,52.1 74.9,51.4 77.7,50.7 80.2,50.1 82.6,49.5 84.7,49.0 86.5,48.6 88.1,48.1 89.4,47.7 90.5,47.4 91.2,47.1 91.6,46.9 91.8,46.6 91.7,46.5 91.3,46.3 90.8,46.2 90.0,46.0 89.1,45.9 88.1,45.8 87.0,45.7 85.8,45.6 84.5,45.5 83.2,45.4 81.9,45.3 80.6,45.1 79.3,44.9 78.0,44.7 76.8,44.4 75.6,44.1 74.4,43.8 73.2,43.4 72.1,43.0 70.9,42.5 69.8,42.0 68.7,41.4 67.5,40.8 66.3,40.2 65.1,39.5 63.8,38.9 62.5,38.2 61.2,37.6 59.8,36.9 58.3,36.4 56.8,35.8 55.2,35.4 53.6,35.0 51.9,34.8 50.2,34.6 48.5,34.6 46.7,34.7 45.0,35.0 43.3,35.4 41.7,35.9 40.1,36.6 38.6,37.4 37.1,38.4 35.8,39.5 34.7,40.7 33.6,42.0 32.8,43.4 32.0,44.9 31.5,46.4 31.1,47.9 30.9,49.5 30.9,51.2 31.0,52.8 31.3,54.4 31.7,55.9 32.3,57.5 32.9,59.0 33.7,60.6 34.6,62.0 35.6,63.5 36.7,64.9 37.9,66.3 39.2,67.8 40.6,69.2 42.1,70.6 43.7,72.0 45.4,73.5 47.3,75.0 49.3,76.5 51.5,78.0 53.8,79.5 56.3,81.0 59.0,82.6 61.8,84.1 64.8,85.6 67.9,87.0 71.1,88.4 74.4,89.7 77.7,90.9 81.0,92.0 84.3,93.0" class="shadow"/>
    <polyline points="84.3,93.0 87.5,93.8 90.5,94.4 93.4,94.9 96.0,95.2 98.3,95.3 100.2,95.2 101.8,94.9 103.1,94.4 103.9,93.7 104.3,92.9 104.2,92.0 103.8,90.8 103.0,89.6 101.8,88.3 100.3,86.9 98.4,85.4 96.4,84.0 94.0,82.4 91.5,80.9 88.9,79.4 86.2,78.0 83.3,76.5 80.5,75.1 77.6,73.8 74.7,72.5 71.8,71.2 69.0,70.1 66.1,68.9 63.3,67.9 60.5,66.8 57.7,65.8 55.0,64.8 52.2,63.9 49.5,63.0 46.8,62.0 44.2,61.2 41.5,60.3 39.0,59.4 36.5,58.5 34.1,57.6 31.8,56.8 29.7,56.0 27.8,55.1 26.2,54.3 24.7,53.5 23.6,52.8 22.7,52.1 22.1,51.4 21.9,50.7 22.0,50.1 22.4,49.5 23.1,49.0 24.1,48.6 25.4,48.1 26.9,47.7 28.6,47.4 30.6,47.1 32.7,46.9 34.9,46.6 37.2,46.5 39.5,46.3 41.8,46.2 44.2,46.0 46.4,45.9 48.7,45.8 50.8,45.7 52.8,45.6 54.8,45.5 56.6,45.4 58.3,45.3 60.0,45.1 61.5,44.9 63.0,44.7 64.3,44.4 65.7,44.1 66.9,43.8 68.1,43.4 69.3,43.0 70.5,42.5 71.7,42.0 72.8,41.4 74.0,40.8 75.1,40.2 76.3,39.5 77.5,38.9 78.6,38.2 79.8,37.6 80.9,36.9 82.0,36.4 83.1,35.8 84.1,35.4 85.0,35.0 85.9,34.8 86.7,34.6 87.3,34.6 87.9,34.7 88.3,35.0 88.5,35.4 88.6,35.9 88.5,36.6 88.3,37.4 87.8,38.4 87.2,39.5 86.4,40.7 85.4,42.0 84.2,43.4 82.9,44.9 81.5,46.4 79.9,47.9 78.2,49.5 76.4,51.2 74.5,52.8 72.6,54.4 70.6,55.9 68.5,57.5 66.5,59.0 64.4,60.6 62.3,62.0 60.1,63.5 58.0,64.9 55.8,66.3 53.7,67.8 51.5,69.2 49.2,70.6 47.0,72.0 44.7,73.5 42.4,75.0 40.0,76.5 37.7,78.0 35.3,79.5 33.0,81.0 30.8,82.6 28.6,84.1 26.5,85.6 24.6,87.0 22.8,88.4 21.3,89.7 20.1,90.9 19.1,92.0 18.5,93.0 18.3,93.8 18.5,94.4 19.0,94.9 19.9,95.2 21.3,95.3 23.0,95.2 25.2,94.9 27.6,94.4 30.4,93.7 33.4,92.9 36.6,92.0 40.0,90.8 43.5,89.6 47.1,88.3 50.7,86.9 54.3,85.4 57.8,84.0 61.2,82.4 64.4,80.9 67.5,79.4 70.5,78.0 73.2,76.5 75.7,75.1 78.1,73.8 80.3,72.5 82.3,71.2 84.1,70.1 85.8,68.9 87.3,67.9 88.8,66.8 90.0,65.8 91.2,64.8 92.2,63.9 93.0,63.0 93.7,62.0 94.3,61.2 94.6,60.3 94.8,59.4 94.7,58.5 94.4,57.6 93.9,56.8 93.1,56.0 92.0,55.1 90.7,54.3 89.1,53.5 87.3,52.8 85.2,52.1 82.9,51.4 80.5,50.7 77.8,50.1 75.1,49.5 72.3,49.0 69.4,48.6 66.5,48.1 63.7,47.7 60.9,47.4 58.2,47.1 55.7,46.9 53.4,46.6 51.2,46.5 49.2,46.3 47.4,46.2 45.8,46.0 44.4,45.9 43.3,45.8 42.3,45.7 41.4,45.6 40.7,45.5 40.2,45.4 39.8,45.3 39.4,45.1 39.2,44.9 39.0,44.7 38.9,44.4 38.8,44.1 38.7,43.8 38.6,43.4 38.6,43.0 38.5,42.5 38.5,42.0 38.5,41.4 38.5,40.8 38.5,40.2 38.6,39.5 38.7,38.9 38.8,38.2 39.0,37.6 39.3,36.9 39.7,36.4 40.2,35.8 40.7,35.4 41.4,35.0 42.2,34.8 43.1,34.6 44.2,34.6 45.4,34.7 46.7,35.0 48.2,35.4 49.7,35.9 51.4,36.6 53.2,37.4 55.0,38.4 57.0,39.5 59.0,40.7 61.0,42.0 63.0,43.4 65.0,44.9 67.0,46.4 69.0,47.9 70.9,49.5 72.7,51.2 74.5,52.8 76.2,54.4 77.7,55.9 79.2,57.5 80.6,59.0 81.9,60.6 83.1,62.0 84.2,63.5 85.3,64.9 86.2,66.3 87.1,67.8 87.9,69.2 88.7,70.6 89.3,72.0 89.9,73.5 90.3,75.0 90.6,76.5 90.8,78.0 90.8,79.5 90.7,81.0 90.3,82.6 89.6,84.1 88.7,85.6 87.5,87.0 86.1,88.4 84.3,89.7 82.2,90.9 79.8,92.0 77.1,93.0 74.2,93.8 71.0,94.4 67.6,94.9 64.1,95.2 60.4,95.3 56.7,95.2 53.0,94.9 49.3,94.4 45.8,93.7 42.4,92.9 39.1,92.0 36.2,90.8 33.5,89.6 31.1,88.3 29.0,86.9 27.3,85.4 25.9,84.0 24.8,82.4 24.0,80.9 23.6,79.4 23.4,78.0 23.5,76.5 23.8,75.1 24.3,73.8 25.0,72.5 25.9,71.2 26.9,70.1 28.1,68.9 29.3,67.9 30.7,66.8 32.2,65.8 33.9,64.8 35.6,63.9 37.5,63.0 39.5,62.0 41.6,61.2 43.9,60.3 46.3,59.4 48.8,58.5 51.5,57.6 54.3,56.8 57.2,56.0 60.1,55.1 63.1,54.3 66.1,53.5 69.1,52.8 72.1,52.1 74.9,51.4 77.7,50.7 80.2,50.1 82.6,49.5 84.7,49.0 86.5,48.6 88.1,48.1 89.4,47.7 90.5,47.4 91.2,47.1 91.6,46.9 91.8,46.6 91.7,46.5 91.3,46.3 90.8,46.2 90.0,46.0 89.1,45.9 88.1,45.8 87.0,45.7 85.8,45.6 84.5,45.5 83.2,45.4 81.9,45.3 80.6,45.1 79.3,44.9 78.0,44.7 76.8,44.4 75.6,44.1 74.4,43.8 73.2,43.4 72.1,43.0 70.9,42.5 69.8,42.0 68.7,41.4 67.5,40.8 66.3,40.2 65.1,39.5 63.8,38.9 62.5,38.2 61.2,37.6 59.8,36.9 58.3,36.4 56.8,35.8 55.2,35.4 53.6,35.0 51.9,34.8 50.2,34.6 48.5,34.6 46.7,34.7 45.0,35.0 43.3,35.4 41.7,35.9 40.1,36.6 38.6,37.4 37.1,38.4 35.8,39.5 34.7,40.7 33.6,42.0 32.8,43.4 32.0,44.9 31.5,46.4 31.1,47.9 30.9,49.5 30.9,51.2 31.0,52.8 31.3,54.4 31.7,55.9 32.3,57.5 32.9,59.0 33.7,60.6 34.6,62.0 35.6,63.5 36.7,64.9 37.9,66.3 39.2,67.8 40.6,69.2 42.1,70.6 43.7,72.0 45.4,73.5 47.3,75.0 49.3,76.5 51.5,78.0 53.8,79.5 56.3,81.0 59.0,82.6 61.8,84.1 64.8,85.6 67.9,87.0 71.1,88.4 74.4,89.7 77.7,90.9 81.0,92.0 84.3,93.0" class="rope"/>
    <rect x="83.2" y="40.1" width="20" height="6" rx="3" transform="rotate(112.5 93.2 43.1)" fill="#f8f7f2"/><rect x="34.3" y="84.7" width="20" height="6" rx="3" transform="rotate(131.3 44.3 87.7)" fill="#f8f7f2"/><rect x="39.0" y="34.7" width="20" height="6" rx="3" transform="rotate(150.0 49.0 37.7)" fill="#f8f7f2"/><rect x="81.3" y="60.8" width="20" height="6" rx="3" transform="rotate(168.8 91.3 63.8)" fill="#f8f7f2"/><rect x="16.8" y="73.9" width="20" height="6" rx="3" transform="rotate(7.5 26.8 76.9)" fill="#f8f7f2"/><rect x="65.7" y="29.3" width="20" height="6" rx="3" transform="rotate(26.3 75.7 32.3)" fill="#f8f7f2"/><rect x="34.1" y="63.8" width="20" height="6" rx="3" transform="rotate(5.0 44.1 66.8)" fill="#f8f7f2"/><rect x="83.3" y="33.0" width="20" height="6" rx="3" transform="rotate(23.8 93.3 36.0)" fill="#f8f7f2"/>
    <polyline points="84.3,93.0 87.5,93.8 90.5,94.4 93.4,94.9 96.0,95.2 98.3,95.3 100.2,95.2 101.8,94.9 103.1,94.4 103.9,93.7 104.3,92.9 104.2,92.0 103.8,90.8 103.0,89.6 101.8,88.3 100.3,86.9 98.4,85.4 96.4,84.0 94.0,82.4 91.5,80.9 88.9,79.4 86.2,78.0 83.3,76.5 80.5,75.1 77.6,73.8 74.7,72.5 71.8,71.2 69.0,70.1 66.1,68.9 63.3,67.9 60.5,66.8 57.7,65.8 55.0,64.8 52.2,63.9 49.5,63.0 46.8,62.0 44.2,61.2 41.5,60.3 39.0,59.4 36.5,58.5 34.1,57.6 31.8,56.8 29.7,56.0 27.8,55.1 26.2,54.3 24.7,53.5 23.6,52.8 22.7,52.1 22.1,51.4 21.9,50.7 22.0,50.1 22.4,49.5 23.1,49.0 24.1,48.6 25.4,48.1 26.9,47.7 28.6,47.4 30.6,47.1 32.7,46.9 34.9,46.6 37.2,46.5 39.5,46.3 41.8,46.2 44.2,46.0 46.4,45.9 48.7,45.8 50.8,45.7 52.8,45.6 54.8,45.5 56.6,45.4 58.3,45.3 60.0,45.1 61.5,44.9 63.0,44.7 64.3,44.4 65.7,44.1 66.9,43.8 68.1,43.4 69.3,43.0 70.5,42.5 71.7,42.0 72.8,41.4 74.0,40.8 75.1,40.2 76.3,39.5 77.5,38.9 78.6,38.2 79.8,37.6 80.9,36.9 82.0,36.4 83.1,35.8 84.1,35.4 85.0,35.0 85.9,34.8 86.7,34.6 87.3,34.6 87.9,34.7 88.3,35.0 88.5,35.4 88.6,35.9 88.5,36.6 88.3,37.4 87.8,38.4 87.2,39.5 86.4,40.7 85.4,42.0 84.2,43.4 82.9,44.9 81.5,46.4 79.9,47.9 78.2,49.5 76.4,51.2 74.5,52.8 72.6,54.4 70.6,55.9 68.5,57.5 66.5,59.0 64.4,60.6 62.3,62.0 60.1,63.5 58.0,64.9 55.8,66.3 53.7,67.8 51.5,69.2 49.2,70.6 47.0,72.0 44.7,73.5 42.4,75.0 40.0,76.5 37.7,78.0 35.3,79.5 33.0,81.0 30.8,82.6 28.6,84.1 26.5,85.6 24.6,87.0 22.8,88.4 21.3,89.7 20.1,90.9 19.1,92.0 18.5,93.0 18.3,93.8 18.5,94.4 19.0,94.9 19.9,95.2 21.3,95.3 23.0,95.2 25.2,94.9 27.6,94.4 30.4,93.7 33.4,92.9 36.6,92.0 40.0,90.8 43.5,89.6 47.1,88.3 50.7,86.9 54.3,85.4 57.8,84.0 61.2,82.4 64.4,80.9 67.5,79.4 70.5,78.0 73.2,76.5 75.7,75.1 78.1,73.8 80.3,72.5 82.3,71.2 84.1,70.1 85.8,68.9 87.3,67.9 88.8,66.8 90.0,65.8 91.2,64.8 92.2,63.9 93.0,63.0 93.7,62.0 94.3,61.2 94.6,60.3 94.8,59.4 94.7,58.5 94.4,57.6 93.9,56.8 93.1,56.0 92.0,55.1 90.7,54.3 89.1,53.5 87.3,52.8 85.2,52.1 82.9,51.4 80.5,50.7 77.8,50.1 75.1,49.5 72.3,49.0 69.4,48.6 66.5,48.1 63.7,47.7 60.9,47.4 58.2,47.1 55.7,46.9 53.4,46.6 51.2,46.5 49.2,46.3 47.4,46.2 45.8,46.0 44.4,45.9 43.3,45.8 42.3,45.7 41.4,45.6 40.7,45.5 40.2,45.4 39.8,45.3 39.4,45.1 39.2,44.9 39.0,44.7 38.9,44.4 38.8,44.1 38.7,43.8 38.6,43.4 38.6,43.0 38.5,42.5 38.5,42.0 38.5,41.4 38.5,40.8 38.5,40.2 38.6,39.5 38.7,38.9 38.8,38.2 39.0,37.6 39.3,36.9 39.7,36.4 40.2,35.8 40.7,35.4 41.4,35.0 42.2,34.8 43.1,34.6 44.2,34.6 45.4,34.7 46.7,35.0 48.2,35.4 49.7,35.9 51.4,36.6 53.2,37.4 55.0,38.4 57.0,39.5 59.0,40.7 61.0,42.0 63.0,43.4 65.0,44.9 67.0,46.4 69.0,47.9 70.9,49.5 72.7,51.2 74.5,52.8 76.2,54.4 77.7,55.9 79.2,57.5 80.6,59.0 81.9,60.6 83.1,62.0 84.2,63.5 85.3,64.9 86.2,66.3 87.1,67.8 87.9,69.2 88.7,70.6 89.3,72.0 89.9,73.5 90.3,75.0 90.6,76.5 90.8,78.0 90.8,79.5 90.7,81.0 90.3,82.6 89.6,84.1 88.7,85.6 87.5,87.0 86.1,88.4 84.3,89.7 82.2,90.9 79.8,92.0 77.1,93.0 74.2,93.8 71.0,94.4 67.6,94.9 64.1,95.2 60.4,95.3 56.7,95.2 53.0,94.9 49.3,94.4 45.8,93.7 42.4,92.9 39.1,92.0 36.2,90.8 33.5,89.6 31.1,88.3 29.0,86.9 27.3,85.4 25.9,84.0 24.8,82.4 24.0,80.9 23.6,79.4 23.4,78.0 23.5,76.5 23.8,75.1 24.3,73.8 25.0,72.5 25.9,71.2 26.9,70.1 28.1,68.9 29.3,67.9 30.7,66.8 32.2,65.8 33.9,64.8 35.6,63.9 37.5,63.0 39.5,62.0 41.6,61.2 43.9,60.3 46.3,59.4 48.8,58.5 51.5,57.6 54.3,56.8 57.2,56.0 60.1,55.1 63.1,54.3 66.1,53.5 69.1,52.8 72.1,52.1 74.9,51.4 77.7,50.7 80.2,50.1 82.6,49.5 84.7,49.0 86.5,48.6 88.1,48.1 89.4,47.7 90.5,47.4 91.2,47.1 91.6,46.9 91.8,46.6 91.7,46.5 91.3,46.3 90.8,46.2 90.0,46.0 89.1,45.9 88.1,45.8 87.0,45.7 85.8,45.6 84.5,45.5 83.2,45.4 81.9,45.3 80.6,45.1 79.3,44.9 78.0,44.7 76.8,44.4 75.6,44.1 74.4,43.8 73.2,43.4 72.1,43.0 70.9,42.5 69.8,42.0 68.7,41.4 67.5,40.8 66.3,40.2 65.1,39.5 63.8,38.9 62.5,38.2 61.2,37.6 59.8,36.9 58.3,36.4 56.8,35.8 55.2,35.4 53.6,35.0 51.9,34.8 50.2,34.6 48.5,34.6 46.7,34.7 45.0,35.0 43.3,35.4 41.7,35.9 40.1,36.6 38.6,37.4 37.1,38.4 35.8,39.5 34.7,40.7 33.6,42.0 32.8,43.4 32.0,44.9 31.5,46.4 31.1,47.9 30.9,49.5 30.9,51.2 31.0,52.8 31.3,54.4 31.7,55.9 32.3,57.5 32.9,59.0 33.7,60.6 34.6,62.0 35.6,63.5 36.7,64.9 37.9,66.3 39.2,67.8 40.6,69.2 42.1,70.6 43.7,72.0 45.4,73.5 47.3,75.0 49.3,76.5 51.5,78.0 53.8,79.5 56.3,81.0 59.0,82.6 61.8,84.1 64.8,85.6 67.9,87.0 71.1,88.4 74.4,89.7 77.7,90.9 81.0,92.0 84.3,93.0" class="highlight"/>
  
</svg>