<svg xmlns="http://www.w3.org/2000/svg" viewBox="0 0 120 120" role="img">
  <rect width="120" height="120" rx="10" fill="#f8f7f2"/>
  <style>
    .shadow{fill:none;stroke:#4a4f56;stroke-width:13;stroke-linecap:round;stroke-linejoin:round;opacity:.22}
    .rope{fill:none;stroke:#1778bd;stroke-width:8;stroke-linecap:round;stroke-linejoin:round}
    .highlight{fill:none;stroke:#4fb1f0;stroke-width:2.2;stroke-linecap:round;stroke-linejoin:round;opacity:.85}
  </style>
  
    <polyline points="88.1,95.8 89.5,96.0 90.7,95.9 91.8,95.6 92.8,95.2 93.6,94.5 94.3,93.7 94.8,92.7 95.1,91.6 95.4,90.4 95.5,89.2 95.5,87.8 95.4,86.4 95.3,85.1 95.1,83.7 94.9,82.3 94.7,80.9 94.5,79.5 94.3,78.2 94.2,76.9 94.1,75.6 94.1,74.3 94.1,73.1 94.1,71.7 94.2,70.4 94.3,69.0 94.4,67.6 94.4,66.1 94.5,64.6 94.5,62.9 94.4,61.2 94.3,59.4 94.0,57.5 93.7,55.6 93.2,53.6 92.6,51.6 91.9,49.6 91.1,47.6 90.1,45.6 89.1,43.7 87.9,41.9 86.7,40.1 85.4,38.5 84.1,37.0 82.7,35.7 81.3,34.6 80.0,33.6 78.6,32.8 77.3,32.1 76.0,31.7 74.8,31.4 73.7,31.2 72.6,31.2 71.7,31.3 70.8,31.4 69.9,31.7 69.2,32.0 68.6,32.4 68.0,32.7 67.5,33.1 67.0,33.5 66.7,33.9 66.4,34.2 66.1,34.6 65.9,34.9 65.7,35.3 65.5,35.6 65.4,36.0 65.3,36.4 65.2,36.9 65.1,37.5 64.9,38.1 64.8,38.8 64.6,39.7 64.5,40.7 64.2,41.8 64.0,43.0 63.6,44.3 63.3,45.8 62.8,47.4 62.3,49.1 61.7,50.9 61.1,52.7 60.4,54.6 59.6,56.5 58.8,58.4 57.9,60.3 57.0,62.1 56.0,63.9 55.0,65.6 54.0,67.3 53.0,68.8 52.0,70.2 51.0,71.5 50.0,72.7 49.0,73.8 48.1,74.8 47.1,75.7 46.1,76.5 45.2,77.2 44.2,77.9 43.2,78.6 42.1,79.2 41.1,79.8 39.9,80.4 38.8,81.1 37.5,81.7 36.2,82.3 34.8,82.9 33.3,83.5 31.8,84.1 30.2,84.7 28.6,85.2 27.0,85.7 25.4,86.1 23.8,86.4 22.3,86.6 20.8,86.7 19.5,86.7 18.2,86.5 17.2,86.1 16.3,85.6 15.6,84.9 15.1,84.1 14.8,83.1 14.8,82.0 15.0,80.7 15.4,79.3 16.0,77.9 16.9,76.3 17.9,74.7 19.0,73.1 20.3,71.4 21.8,69.8 23.3,68.2 24.8,66.6 26.4,65.0 28.0,63.5 29.6,62.1 31.1,60.7 32.6,59.4 34.0,58.1 35.4,56.9 36.6,55.7 37.8,54.6 38.9,53.5 39.9,52.4 40.8,51.3 41.6,50.3 42.4,49.2 43.1,48.1 43.8,47.0 44.4,45.9 45.0,44.8 45.5,43.7 46.1,42.6 46.6,41.6 47.1,40.6 47.6,39.6 48.1,38.8 48.6,38.0 49.0,37.3 49.5,36.7 49.9,36.3 50.4,36.0 50.8,35.9 51.2,35.9 51.6,36.1 52.0,36.4 52.3,36.9 52.7,37.6 53.0,38.3 53.4,39.2 53.7,40.2 54.1,41.2 54.4,42.4 54.7,43.6 55.1,44.8 55.4,46.0 55.8,47.3 56.2,48.5 56.5,49.7 56.9,50.9 57.3,52.1 57.8,53.3 58.2,54.4 58.7,55.5 59.2,56.6 59.7,57.6 60.3,58.7 60.9,59.7 61.6,60.8 62.4,61.9 63.2,63.0 64.2,64.1 65.2,65.3 66.3,66.5 67.5,67.7 68.8,68.9 70.2,70.1 71.7,71.3 73.2,72.5 74.8,73.6 76.5,74.7 78.2,75.8 79.9,76.7 81.7,77.6 83.4,78.3 85.0,79.0 86.6,79.5 88.1,79.9 89.5,80.1 90.7,80.2 91.8,80.1 92.8,80.0 93.6,79.7 94.3,79.2 94.8,78.7 95.1,78.1 95.4,77.4 95.5,76.7 95.5,75.9 95.4,75.0 95.3,74.2 95.1,73.3 94.9,72.4 94.7,71.6 94.5,70.7 94.3,69.8 94.2,69.0 94.1,68.1 94.1,67.2 94.1,66.4 94.1,65.5 94.2,64.6 94.3,63.6 94.4,62.6 94.4,61.6 94.5,60.5 94.5,59.3 94.4,58.1 94.3,56.9 94.0,55.6 93.7,54.3 93.2,53.0 92.6,51.6 91.9,50.3 91.1,49.0 90.1,47.8 89.1,46.6 87.9,45.4 86.7,44.4 85.4,43.4 84.1,42.6 82.7,41.9 81.3,41.3 80.0,40.9 78.6,40.6 77.3,40.4 76.0,40.3 74.8,40.4 73.7,40.5 72.6,40.8 71.7,41.1 70.8,41.4 69.9,41.9 69.2,42.3 68.6,42.8 68.0,43.4 67.5,43.9 67.0,44.4 66.7,45.0 66.4,45.5 66.1,46.0 65.9,46.6 65.7,47.2 65.5,47.8 65.4,48.5 65.3,49.2 65.2,49.9 65.1,50.7 64.9,51.7 64.8,52.6 64.6,53.7 64.5,54.9 64.2,56.1 64.0,57.4 63.6,58.8 63.3,60.3 62.8,61.8 62.3,63.3 61.7,64.8 61.1,66.4 60.4,67.9 59.6,69.4 58.8,70.8 57.9,72.2 57.0,73.4 56.0,74.6 55.0,75.7 54.0,76.6 53.0,77.4 52.0,78.2 51.0,78.8 50.0,79.3 49.0,79.7 48.1,80.0 47.1,80.2 46.1,80.4 45.2,80.6 44.2,80.7 43.2,80.8 42.1,80.8 41.1,80.9 39.9,81.0 38.8,81.1 37.5,81.1 36.2,81.2 34.8,81.3 33.3,81.3 31.8,81.3 30.2,81.3 28.6,81.1 27.0,81.0 25.4,80.7 23.8,80.3 22.3,79.8 20.8,79.2 19.5,78.4 18.2,77.5 17.2,76.5 16.3,75.3 15.6,74.0 15.1,72.6 14.8,71.1 14.8,69.5 15.0,67.8 15.4,66.1 16.0,64.3 16.9,62.6 17.9,60.8 19.0,59.1 20.3,57.4 21.8,55.8 23.3,54.2 24.8,52.8 26.4,51.4 28.0,50.1 29.6,48.8 31.1,47.7 32.6,46.6 34.0,45.6 35.4,44.6 36.6,43.6 37.8,42.7 38.9,41.7 39.9,40.8 40.8,39.9 41.6,38.9 42.4,37.9 43.1,37.0 43.8,36.0 44.4,35.0 45.0,34.0 45.5,33.0 46.1,32.0 46.6,31.2 47.1,30.4 47.6,29.7 48.1,29.1 48.6,28.6 49.0,28.4 49.5,28.2 49.9,28.3 50.4,28.6 50.8,29.0 51.2,29.7 51.6,30.5 52.0,31.5 52.3,32.7 52.7,34.1 53.0,35.5 53.4,37.1 53.7,38.8 54.1,40.6 54.4,42.4 54.7,44.2 55.1,46.1 55.4,47.9 55.8,49.7 56.2,51.5 56.5,53.2 56.9,54.9 57.3,56.5 57.8,58.1 58.2,59.7 58.7,61.2 59.2,62.7 59.7,64.3 60.3,65.8 60.9,67.3 61.6,68.9 62.4,70.4 63.2,72.1 64.2,73.7 65.2,75.5 66.3,77.2 67.5,79.0 68.8,80.7 70.2,82.5 71.7,84.3 73.2,86.0 74.8,87.6 76.5,89.2 78.2,90.6 79.9,91.9 81.7,93.1 83.4,94.1 85.0,94.9 86.6,95.4 88.1,95.8" class="shadow"/>
    <polyline points="88.1,95.8 89.5,96.0 90.7,95.9 91.8,95.6 92.8,95.2 93.6,94.5 94.3,93.7 94.8,92.7 95.1,91.6 95.4,90.4 95.5,89.2 95.5,87.8 95.4,86.4 95.3,85.1 95.1,83.7 94.9,82.3 94.7,80.9 94.5,79.5 94.3,78.2 94.2,76.9 94.1,75.6 94.1,74.3 94.1,73.1 94.1,71.7 94.2,70.4 94.3,69.0 94.4,67.6 94.4,66.1 94.5,64.6 94.5,62.9 94.4,61.2 94.3,59.4 94.0,57.5 93.7,55.6 93.2,53.6 92.6,51.6 91.9,49.6 91.1,47.6 90.1,45.6 89.1,43.7 87.9,41.9 86.7,40.1 85.4,38.5 84.1,37.0 82.7,35.7 81.3,34.6 80.0,33.6 78.6,32.8 77.3,32.1 76.0,31.7 74.8,31.4 73.7,31.2 72.6,31.2 71.7,31.3 70.8,31.4 69.9,31.7 69.2,32.0 68.6,32.4 68.0,32.7 67.5,33.1 67.0,33.5 66.7,33.9 66.4,34.2 66.1,34.6 65.9,34.9 65.7,35.3 65.5,35.6 65.4,36.0 65.3,36.4 65.2,36.9 65.1,37.5 64.9,38.1 64.8,38.8 64.6,39.7 64.5,40.7 64.2,41.8 64.0,43.0 63.6,44.3 63.3,45.8 62.8,47.4 62.3,49.1 61.7,50.9 61.1,52.7 60.4,54.6 59.6,56.5 58.8,58.4 57.9,60.3 57.0,62.1 56.0,63.9 55.0,65.6 54.0,67.3 53.0,68.8 52.0,70.2 51.0,71.5 50.0,72.7 49.0,73.8 48.1,74.8 47.1,75.7 46.1,76.5 45.2,77.2 44.2,77.9 43.2,78.6 42.1,79.2 41.1,79.8 39.9,80.4 38.8,81.1 37.5,81.7 36.2,82.3 34.8,82.9 33.3,83.5 31.8,84.1 30.2,84.7 28.6,85.2 27.0,85.7 25.4,86.1 23.8,86.4 22.3,86.6 20.8,86.7 19.5,86.7 18.2,86.5 17.2,86.1 16.3,85.6 15.6,84.9 15.1,84.1 14.8,83.1 14.8,82.0 15.0,80.7 15.4,79.3 16.0,77.9 16.9,76.3 17.9,74.7 19.0,73.1 20.3,71.4 21.8,69.8 23.3,68.2 24.8,66.6 26.4,65.0 28.0,63.5 29.6,62.1 31.1,60.7 32.6,59.4 34.0,58.1 35.4,56.9 36.6,55.7 37.8,54.6 38.9,53.5 39.9,52.4 40.8,51.3 41.6,50.3 42.4,49.2 43.1,48.1 43.8,47.0 44.4,45.9 45.0,44.8 45.5,43.7 46.1,42.6 46.6,41.6 47.1,40.6 47.6,39.6 48.1,38.8 48.6,38.0 49.0,37.3 49.5,36.7 49.9,36.3 50.4,36.0 50.8,35.9 51.2,35.9 51.6,36.1 52.0,36.4 52.3,36.9 52.7,37.6 53.0,38.3 53.4,39.2 53.7,40.2 54.1,41.2 54.4,42.4 54.7,43.6 55.1,44.8 55.4,46.0 55.8,47.3 56.2,48.5 56.5,49.7 56.9,50.9 57.3,52.1 57.8,53.3 58.2,54.4 58.7,55.5 59.2,56.6 59.7,57.6 60.3,58.7 60.9,59.7 61.6,60.8 62.4,61.9 63.2,63.0 64.2,64.1 65.2,65.3 66.3,66.5 67.5,67.7 68.8,68.9 70.2,70.1 71.7,71.3 73.2,72.5 74.8,73.6 76.5,74.7 78.2,75.8 79.9,76.7 81.7,77.6 83.4,78.3 85.0,79.0 86.6,79.5 88.1,79.9 89.5,80.1 90.7,80.2 91.8,80.1 92.8,80.0 93.6,79.7 94.3,79.2 94.8,78.7 95.1,78.1 95.4,77.4 95.5,76.7 95.5,75.9 95.4,75.0 95.3,74.2 95.1,73.3 94.9,72.4 94.7,71.6 94.5,70.7 94.3,69.8 94.2,69.0 94.1,68.1 94.1,67.2 94.1,66.4 94.1,65.5 94.2,64.6 94.3,63.6 94.4,62.6 94.4,61.6 94.5,60.5 94.5,59.3 94.4,58.1 94.3,56.9 94.0,55.6 93.7,54.3 93.2,53.0 92.6,51.6 91.9,50.3 91.1,49.0 90.1,47.8 89.1,46.6 87.9,45.4 86.7,44.4 85.4,43.4 84.1,42.6 82.7,41.9 81.3,41.3 80.0,40.9 78.6,40.6 77.3,40.4 76.0,40.3 74.8,40.4 73.7,40.5 72.6,40.8 71.7,41.1 70.8,41.4 69.9,41.9 69.2,42.3 68.6,42.8 68.0,43.4 67.5,43.9 67.0,44.4 66.7,45.0 66.4,45.5 66.1,46.0 65.9,46.6 65.7,47.2 65.5,47.8 65.4,48.5 65.3,49.2 65.2,49.9 65.1,50.7 64.9,51.7 64.8,52.6 64.6,53.7 64.5,54.9 64.2,56.1 64.0,57.4 63.6,58.8 63.3,60.3 62.8,61.8 62.3,63.3 61.7,64.8 61.1,66.4 60.4,67.9 59.6,69.4 58.8,70.8 57.9,72.2 57.0,73.4 56.0,74.6 55.0,75.7 54.0,76.6 53.0,77.4 52.0,78.2 51.0,78.8 50.0,79.3 49.0,79.7 48.1,80.0 47.1,80.2 46.1,80.4 45.2,80.6 44.2,80.7 43.2,80.8 42.1,80.8 41.1,80.9 39.9,81.0 38.8,81.1 37.5,81.1 36.2,81.2 34.8,81.3 33.3,81.3 31.8,81.3 30.2,81.3 28.6,81.1 27.0,81.0 25.4,80.7 23.8,80.3 22.3,79.8 20.8,79.2 19.5,78.4 18.2,77.5 17.2,76.5 16.3,75.3 15.6,74.0 15.1,72.6 14.8,71.1 14.8,69.5 15.0,67.8 15.4,66.1 16.0,64.3 16.9,62.6 17.9,60.8 19.0,59.1 20.3,57.4 21.8,55.8 23.3,54.2 24.8,52.8 26.4,51.4 28.0,50.1 29.6,48.8 31.1,47.7 32.6,46.6 34.0,45.6 35.4,44.6 36.6,43.6 37.8,42.7 38.9,41.7 39.9,40.8 40.8,39.9 41.6,38.9 42.4,37.9 43.1,37.0 43.8,36.0 44.4,35.0 45.0,34.0 45.5,33.0 46.1,32.0 46.6,31.2 47.1,30.4 47.6,29.7 48.1,29.1 48.6,28.6 49.0,28.4 49.5,28.2 49.9,28.3 50.4,28.6 50.8,29.0 51.2,29.7 51.6,30.5 52.0,31.5 52.3,32.7 52.7,34.1 53.0,35.5 53.4,37.1 53.7,38.8 54.1,40.6 54.4,42.4 54.7,44.2 55.1,46.1 55.4,47.9 55.8,49.7 56.2,51.5 56.5,53.2 56.9,54.9 57.3,56.5 57.8,58.1 58.2,59.7 58.7,61.2 59.2,62.7 59.7,64.3 60.3,65.8 60.9,67.3 61.6,68.9 62.4,70.4 63.2,72.1 64.2,73.7 65.2,75.5 66.3,77.2 67.5,79.0 68.8,80.7 70.2,82.5 71.7,84.3 73.2,86.0 74.8,87.6 76.5,89.2 78.2,90.6 79.9,91.9 81.7,93.1 83.4,94.1 85.0,94.9 86.6,95.4 88.1,95.8" class="rope"/>
    <rect x="20.0" y="84.9" width="20" height="6" rx="3" transform="rotate(5.0 30.0 87.9)" fill="#f8f7f2"/><rect x="32.0" y="29.1" width="20" height="6" rx="3" transform="rotate(23.8 42.0 32.1)" fill="#f8f7f2"/><rect x="80.0" y="84.9" width="20" height="6" rx="3" transform="rotate(42.5 90.0 87.9)" fill="#f8f7f2"/><rect x="68.0" y="29.1" width="20" height="6" rx="3" transform="rotate(61.3 78.0 32.1)" fill="#f8f7f2"/><rect x="20.0" y="84.9" width="20" height="6" rx="3" transform="rotate(80.0 30.0 87.9)" fill="#f8f7f2"/><rect x="32.0" y="29.1" width="20" height="6" rx="3" transform="rotate(98.8 42.0 32.1)" fill="#f8f7f2"/><rect x="75.0" y="31.4" width="20" height="6" rx="3" transform="rotate(77.5 85.0 34.4)" fill="#f8f7f2"/><rect x="25.5" y="82.6" width="20" height="6" rx="3" transform="rotate(96.3 35.5 85.6)" fill="#f8f7f2"/>
    <polyline points="88.1,95.8 89.5,96.0 90.7,95.9 91.8,95.6 92.8,95.2 93.6,94.5 94.3,93.7 94.8,92.7 95.1,91.6 95.4,90.4 95.5,89.2 95.5,87.8 95.4,86.4 95.3,85.1 95.1,83.7 94.9,82.3 94.7,80.9 94.5,79.5 94.3,78.2 94.2,76.9 94.1,75.6 94.1,74.3 94.1,73.1 94.1,71.7 94.2,70.4 94.3,69.0 94.4,67.6 94.4,66.1 94.5,64.6 94.5,62.9 94.4,61.2 94.3,59.4 94.0,57.5 93.7,55.6 93.2,53.6 92.6,51.6 91.9,49.6 91.1,47.6 90.1,45.6 89.1,43.7 87.9,41.9 86.7,40.1 85.4,38.5 84.1,37.0 82.7,35.7 81.3,34.6 80.0,33.6 78.6,32.8 77.3,32.1 76.0,31.7 74.8,31.4 73.7,31.2 72.6,31.2 71.7,31.3 70.8,31.4 69.9,31.7 69.2,32.0 68.6,32.4 68.0,32.7 67.5,33.1 67.0,33.5 66.7,33.9 66.4,34.2 66.1,34.6 65.9,34.9 65.7,35.3 65.5,35.6 65.4,36.0 65.3,36.4 65.2,36.9 65.1,37.5 64.9,38.1 64.8,38.8 64.6,39.7 64.5,40.7 64.2,41.8 64.0,43.0 63.6,44.3 63.3,45.8 62.8,47.4 62.3,49.1 61.7,50.9 61.1,52.7 60.4,54.6 59.6,56.5 58.8,58.4 57.9,60.3 57.0,62.1 56.0,63.9 55.0,65.6 54.0,67.3 53.0,68.8 52.0,70.2 51.0,71.5 50.0,72.7 49.0,73.8 48.1,74.8 47.1,75.7 46.1,76.5 45.2,77.2 44.2,77.9 43.2,78.6 42.1,79.2 41.1,79.8 39.9,80.4 38.8,81.1 37.5,81.7 36.2,82.3 34.8,82.9 33.3,83.5 31.8,84.1 30.2,84.7 28.6,85.2 27.0,85.7 25.4,86.1 23.8,86.4 22.3,86.6 20.8,86.7 19.5,86.7 18.2,86.5 17.2,86.1 16.3,85.6 15.6,84.9 15.1,84.1 14.8,83.1 14.8,82.0 15.0,80.7 15.4,79.3 16.0,77.9 16.9,76.3 17.9,74.7 19.0,73.1 20.3,71.4 21.8,69.8 23.3,68.2 24.8,66.6 26.4,65.0 28.0,63.5 29.6,62.1 31.1,60.7 32.6,59.4 34.0,58.1 35.4,56.9 36.6,55.7 37.8,54.6 38.9,53.5 39.9,52.4 40.8,51.3 41.6,50.3 42.4,49.2 43.1,48.1 43.8,47.0 44.4,45.9 45.0,44.8 45.5,43.7 46.1,42.6 46.6,41.6 47.1,40.6 47.6,39.6 48.1,38.8 48.6,38.0 49.0,37.3 49.5,36.7 49.9,36.3 50.4,36.0 50.8,35.9 51.2,35.9 51.6,36.1 52.0,36.4 52.3,36.9 52.7,37.6 53.0,38.3 53.4,39.2 53.7,40.2 54.1,41.2 54.4,42.4 54.7,43.6 55.1,44.8 55.4,46.0 55.8,47.3 56.2,48.5 56.5,49.7 56.9,50.9 57.3,52.1 57.8,53.3 58.2,54.4 58.7,55.5 59.2,56.6 59.7,57.6 60.3,58.7 60.9,59.7 61.6,60.8 62.4,61.9 63.2,63.0 64.2,64.1 65.2,65.3 66.3,66.5 67.5,67.7 68.8,68.9 70.2,70.1 71.7,71.3 73.2,72.5 74.8,73.6 76.5,74.7 78.2,75.8 79.9,76.7 81.7,77.6 83.4,78.3 85.0,79.0 86.6,79.5 88.1,79.9 89.5,80.1 90.7,80.2 91.8,80.1 92.8,80.0 93.6,79.7 94.3,79.2 94.8,78.7 95.1,78.1 95.4,77.4 95.5,76.7 95.5,75.9 95.4,75.0 95.3,74.2 95.1,73.3 94.9,72.4 94.7,71.6 94.5,70.7 94.3,69.8 94.2,69.0 94.1,68.1 94.1,67.2 94.1,66.4 94.1,65.5 94.2,64.6 94.3,63.6 94.4,62.6 94.4,61.6 94.5,60.5 94.5,59.3 94.4,58.1 94.3,56.9 94.0,55.6 93.7,54.3 93.2,53.0 92.6,51.6 91.9,50.3 91.1,49.0 90.1,47.8 89.1,46.6 87.9,45.4 86.7,44.4 85.4,43.4 84.1,42.6 82.7,41.9 81.3,41.3 80.0,40.9 78.6,40.6 77.3,40.4 76.0,40.3 74.8,40.4 73.7,40.5 72.6,40.8 71.7,41.1 70.8,41.4 69.9,41.9 69.2,42.3 68.6,42.8 68.0,43.4 67.5,43.9 67.0,44.4 66.7,45.0 66.4,45.5 66.1,46.0 65.9,46.6 65.7,47.2 65.5,47.8 65.4,48.5 65.3,49.2 65.2,49.9 65.1,50.7 64.9,51.7 64.8,52.6 64.6,53.7 64.5,54.9 64.2,56.1 64.0,57.4 63.6,58.8 63.3,60.3 62.8,61.8 62.3,63.3 61.7,64.8 61.1,66.4 60.4,67.9 59.6,69.4 58.8,70.8 57.9,72.2 57.0,73.4 56.0,74.6 55.0,75.7 54.0,76.6 53.0,77.4 52.0,78.2 51.0,78.8 50.0,79.3 49.0,79.7 48.1,80.0 47.1,80.2 46.1,80.4 45.2,80.6 44.2,80.7 43.2,80.8 42.1,80.8 41.1,80.9 39.9,81.0 38.8,81.1 37.5,81.1 36.2,81.2 34.8,81.3 33.3,81.3 31.8,81.3 30.2,81.3 28.6,81.1 27.0,81.0 25.4,80.7 23.8,80.3 22.3,79.8 20.8,79.2 19.5,78.4 18.2,77.5 17.2,76.5 16.3,75.3 15.6,74.0 15.1,72.6 14.8,71.1 14.8,69.5 15.0,67.8 15.4,66.1 16.0,64.3 16.9,62.6 17.9,60.8 19.0,59.1 20.3,57.4 21.8,55.8 23.3,54.2 24.8,52.8 26.4,51.4 28.0,50.1 29.6,48.8 31.1,47.7 32.6,46.6 34.0,45.6 35.4,44.6 36.6,43.6 37.8,42.7 38.9,41.7 39.9,40.8 40.8,39.9 41.6,38.9 42.4,37.9 43.1,37.0 43.8,36.0 44.4,35.0 45.0,34.0 45.5,33.0 46.1,32.0 46.6,31.2 47.1,30.4 47.6,29.7 48.1,29.1 48.6,28.6 49.0,28.4 49.5,28.2 49.9,28.3 50.4,28.6 50.8,29.0 51.2,29.7 51.6,30.5 52.0,31.5 52.3,32.7 52.7,34.1 53.0,35.5 53.4,37.1 53.7,38.8 54.1,40.6 54.4,42.4 54.7,44.2 55.1,46.1 55.4,47.9 55.8,49.7 56.2,51.5 56.5,53.2 56.9,54.9 57.3,56.5 57.8,58.1 58.2,59.7 58.7,61.2 59.2,62.7 59.7,64.3 60.3,65.8 60.9,67.3 61.6,68.9 62.4,70.4 63.2,72.1 64.2,73.7 65.2,75.5 66.3,77.2 67.5,79.0 68.8,80.7 70.2,82.5 71.7,84.3 73.2,86.0 74.8,87.6 76.5,89.2 78.2,90.6 79.9,91.9 81.7,93.1 83.4,94.1 85.0,94.9 86.6,95.4 88.1,95.8" class="highlight"/>
  
</svg>