<svg xmlns="http://www.w3.org/2000/svg" viewBox="0 0 120 120" role="img">
  <rect width="120" height="120" rx="10" fill="#f8f7f2"/>
  <style>
    .shadow{fill:none;stroke:#4a4f56;stroke-width:13;stroke-linecap:round;stroke-linejoin:round;opacity:.22}
    .rope{fill:none;stroke:#1778bd;stroke-width:8;stroke-linecap:round;stroke-linejoin:round}
    .highlight{fill:none;stroke:#4fb1f0;stroke-width:2.2;stroke-linecap:round;stroke-linejoin:round;opacity:.85}
  </style>
  
    <polyline points="88.3,93.8 89.7,93.3 90.9,92.6 92.0,91.8 92.9,90.7 93.7,89.6 94.3,88.3 94.7,86.9 95.1,85.5 95.3,83.9 95.3,82.4 95.3,80.7 95.2,79.1 94.9,77.4 94.6,75.7 94.2,73.9 93.8,72.1 93.2,70.3 92.6,68.5 92.0,66.6 91.2,64.7 90.4,62.8 89.5,60.8 88.6,58.8 87.6,56.7 86.4,54.6 85.2,52.4 84.0,50.2 82.6,48.0 81.2,45.8 79.7,43.6 78.1,41.4 76.5,39.3 74.8,37.2 73.2,35.2 71.5,33.4 69.8,31.6 68.2,30.0 66.6,28.6 65.1,27.4 63.6,26.4 62.2,25.6 60.9,25.1 59.7,24.8 58.7,24.7 57.7,24.9 56.8,25.3 56.0,26.0 55.3,26.9 54.7,28.0 54.2,29.3 53.7,30.7 53.3,32.3 52.9,34.0 52.6,35.9 52.3,37.8 51.9,39.8 51.6,41.8 51.2,43.8 50.8,45.9 50.4,48.0 50.0,50.0 49.4,52.0 48.9,54.0 48.2,56.0 47.5,57.9 46.8,59.8 45.9,61.6 45.0,63.4 44.0,65.2 42.9,67.0 41.8,68.7 40.5,70.4 39.2,72.1 37.8,73.8 36.3,75.5 34.8,77.1 33.2,78.7 31.6,80.3 30.0,81.7 28.3,83.2 26.7,84.5 25.2,85.8 23.7,86.9 22.3,87.9 21.0,88.8 19.9,89.5 19.0,90.0 18.3,90.3 17.8,90.4 17.5,90.4 17.5,90.1 17.8,89.6 18.4,88.8 19.2,87.9 20.3,86.8 21.6,85.5 23.2,84.0 25.0,82.4 27.0,80.6 29.1,78.8 31.4,76.8 33.8,74.8 36.3,72.7 38.9,70.6 41.4,68.5 44.0,66.4 46.5,64.3 48.9,62.3 51.3,60.4 53.5,58.5 55.6,56.8 57.7,55.1 59.5,53.5 61.3,52.0 62.9,50.6 64.4,49.2 65.8,48.0 67.1,46.8 68.2,45.7 69.3,44.7 70.2,43.8 71.1,42.9 72.0,42.1 72.7,41.3 73.4,40.6 74.1,40.0 74.7,39.4 75.3,38.9 75.8,38.5 76.3,38.2 76.8,37.9 77.3,37.8 77.8,37.8 78.3,37.9 78.8,38.2 79.3,38.6 79.8,39.2 80.3,39.9 80.9,40.7 81.4,41.8 82.1,42.9 82.7,44.2 83.4,45.6 84.1,47.2 84.9,48.8 85.7,50.6 86.5,52.4 87.3,54.2 88.1,56.1 88.9,58.0 89.7,59.9 90.4,61.7 91.1,63.5 91.7,65.3 92.2,66.9 92.7,68.4 93.0,69.8 93.2,71.2 93.3,72.3 93.3,73.4 93.2,74.3 93.0,75.1 92.6,75.7 92.1,76.3 91.5,76.7 90.8,77.0 90.1,77.2 89.2,77.3 88.3,77.3 87.2,77.3 86.1,77.2 85.0,77.0 83.7,76.7 82.4,76.4 81.1,76.0 79.6,75.6 78.1,75.1 76.5,74.6 74.8,73.9 73.1,73.2 71.2,72.4 69.3,71.6 67.2,70.7 65.1,69.6 62.9,68.5 60.6,67.3 58.3,66.1 56.0,64.7 53.6,63.3 51.2,61.8 48.9,60.2 46.6,58.7 44.4,57.1 42.3,55.4 40.3,53.8 38.4,52.2 36.7,50.7 35.2,49.2 33.8,47.8 32.7,46.5 31.8,45.3 31.1,44.2 30.6,43.3 30.3,42.5 30.1,41.9 30.2,41.4 30.4,41.1 30.7,40.9 31.2,40.9 31.7,41.0 32.3,41.2 33.0,41.6 33.7,42.1 34.4,42.8 35.1,43.5 35.8,44.3 36.5,45.1 37.1,46.1 37.6,47.0 38.1,48.1 38.5,49.1 38.8,50.2 39.0,51.3 39.2,52.5 39.2,53.6 39.2,54.8 39.1,56.0 38.9,57.2 38.6,58.5 38.3,59.7 37.8,61.0 37.4,62.3 36.9,63.7 36.3,65.0 35.8,66.4 35.2,67.8 34.7,69.2 34.2,70.5 33.7,71.9 33.4,73.3 33.1,74.6 33.0,75.8 33.0,77.0 33.2,78.1 33.5,79.1 34.1,79.9 34.8,80.7 35.8,81.3 37.0,81.7 38.3,82.0 39.9,82.1 41.7,82.0 43.7,81.8 45.8,81.3 48.1,80.8 50.5,80.0 53.0,79.1 55.5,78.1 58.1,76.9 60.6,75.6 63.2,74.2 65.7,72.8 68.1,71.3 70.4,69.7 72.5,68.1 74.6,66.5 76.5,64.9 78.2,63.3 79.8,61.8 81.3,60.2 82.6,58.7 83.7,57.3 84.8,55.8 85.7,54.5 86.4,53.1 87.1,51.8 87.7,50.6 88.2,49.3 88.6,48.2 89.0,47.0 89.3,45.9 89.5,44.8 89.7,43.7 89.8,42.7 89.9,41.7 89.9,40.8 89.8,40.0 89.7,39.2 89.6,38.5 89.4,37.8 89.1,37.3 88.8,36.9 88.4,36.7 88.0,36.5 87.6,36.6 87.1,36.8 86.6,37.1 86.1,37.7 85.6,38.4 85.1,39.3 84.6,40.4 84.1,41.7 83.7,43.1 83.2,44.7 82.8,46.4 82.4,48.2 82.0,50.1 81.6,52.1 81.2,54.1 80.8,56.2 80.4,58.3 80.0,60.4 79.5,62.4 79.1,64.4 78.6,66.3 78.0,68.2 77.4,69.9 76.8,71.6 76.1,73.1 75.3,74.5 74.5,75.8 73.6,77.0 72.6,78.1 71.6,79.0 70.5,79.9 69.4,80.6 68.2,81.3 66.9,81.9 65.6,82.4 64.2,82.8 62.7,83.2 61.2,83.4 59.5,83.6 57.8,83.8 56.1,83.9 54.2,83.8 52.2,83.7 50.2,83.5 48.1,83.2 45.9,82.8 43.6,82.3 41.3,81.6 39.0,80.8 36.6,79.8 34.3,78.7 32.0,77.4 29.7,75.9 27.5,74.3 25.5,72.6 23.6,70.7 21.8,68.6 20.3,66.5 19.0,64.3 17.9,61.9 17.0,59.5 16.5,57.1 16.2,54.7 16.1,52.3 16.4,49.9 16.9,47.7 17.6,45.5 18.6,43.4 19.7,41.4 21.1,39.6 22.6,38.0 24.2,36.5 26.0,35.2 27.8,34.2 29.6,33.3 31.5,32.5 33.3,32.0 35.1,31.6 36.9,31.5 38.6,31.4 40.2,31.5 41.7,31.7 43.1,32.1 44.4,32.5 45.7,33.1 46.8,33.7 47.8,34.4 48.7,35.2 49.5,36.0 50.2,36.9 50.9,37.9 51.4,39.0 51.9,40.1 52.4,41.3 52.8,42.6 53.1,44.0 53.5,45.5 53.8,47.1 54.1,48.8 54.4,50.6 54.8,52.5 55.2,54.5 55.6,56.6 56.1,58.9 56.7,61.2 57.4,63.6 58.2,66.0 59.1,68.5 60.1,71.0 61.2,73.4 62.4,75.9 63.8,78.3 65.3,80.6 66.8,82.7 68.5,84.8 70.3,86.7 72.1,88.4 74.0,89.9 75.9,91.2 77.9,92.3 79.8,93.1 81.6,93.7 83.5,94.1 85.2,94.2 86.8,94.1 88.3,93.8" class="shadow"/>
    <polyline points="88.3,93.8 89.7,93.3 90.9,92.6 92.0,91.8 92.9,90.7 93.7,89.6 94.3,88.3 94.7,86.9 95.1,85.5 95.3,83.9 95.3,82.4 95.3,80.7 95.2,79.1 94.9,77.4 94.6,75.7 94.2,73.9 93.8,72.1 93.2,70.3 92.6,68.5 92.0,66.6 91.2,64.7 90.4,62.8 89.5,60.8 88.6,58.8 87.6,56.7 86.4,54.6 85.2,52.4 84.0,50.2 82.6,48.0 81.2,45.8 79.7,43.6 78.1,41.4 76.5,39.3 74.8,37.2 73.2,35.2 71.5,33.4 69.8,31.6 68.2,30.0 66.6,28.6 65.1,27.4 63.6,26.4 62.2,25.6 60.9,25.1 59.7,24.8 58.7,24.7 57.7,24.9 56.8,25.3 56.0,26.0 55.3,26.9 54.7,28.0 54.2,29.3 53.7,30.7 53.3,32.3 52.9,34.0 52.6,35.9 52.3,37.8 51.9,39.8 51.6,41.8 51.2,43.8 50.8,45.9 50.4,48.0 50.0,50.0 49.4,52.0 48.9,54.0 48.2,56.0 47.5,57.9 46.8,59.8 45.9,61.6 45.0,63.4 44.0,65.2 42.9,67.0 41.8,68.7 40.5,70.4 39.2,72.1 37.8,73.8 36.3,75.5 34.8,77.1 33.2,78.7 31.6,80.3 30.0,81.7 28.3,83.2 26.7,84.5 25.2,85.8 23.7,86.9 22.3,87.9 21.0,88.8 19.9,89.5 19.0,90.0 18.3,90.3 17.8,90.4 17.5,90.4 17.5,90.1 17.8,89.6 18.4,88.8 19.2,87.9 20.3,86.8 21.6,85.5 23.2,84.0 25.0,82.4 27.0,80.6 29.1,78.8 31.4,76.8 33.8,74.8 36.3,72.7 38.9,70.6 41.4,68.5 44.0,66.4 46.5,64.3 48.9,62.3 51.3,60.4 53.5,58.5 55.6,56.8 57.7,55.1 59.5,53.5 61.3,52.0 62.9,50.6 64.4,49.2 65.8,48.0 67.1,46.8 68.2,45.7 69.3,44.7 70.2,43.8 71.1,42.9 72.0,42.1 72.7,41.3 73.4,40.6 74.1,40.0 74.7,39.4 75.3,38.9 75.8,38.5 76.3,38.2 76.8,37.9 77.3,37.8 77.8,37.8 78.3,37.9 78.8,38.2 79.3,38.6 79.8,39.2 80.3,39.9 80.9,40.7 81.4,41.8 82.1,42.9 82.7,44.2 83.4,45.6 84.1,47.2 84.9,48.8 85.7,50.6 86.5,52.4 87.3,54.2 88.1,56.1 88.9,58.0 89.7,59.9 90.4,61.7 91.1,63.5 91.7,65.3 92.2,66.9 92.7,68.4 93.0,69.8 93.2,71.2 93.3,72.3 93.3,73.4 93.2,74.3 93.0,75.1 92.6,75.7 92.1,76.3 91.5,76.7 90.8,77.0 90.1,77.2 89.2,77.3 88.3,77.3 87.2,77.3 86.1,77.2 85.0,77.0 83.7,76.7 82.4,76.4 81.1,76.0 79.6,75.6 78.1,75.1 76.5,74.6 74.8,73.9 73.1,73.2 71.2,72.4 69.3,71.6 67.2,70.7 65.1,69.6 62.9,68.5 60.6,67.3 58.3,66.1 56.0,64.7 53.6,63.3 51.2,61.8 48.9,60.2 46.6,58.7 44.4,57.1 42.3,55.4 40.3,53.8 38.4,52.2 36.7,50.7 35.2,49.2 33.8,47.8 32.7,46.5 31.8,45.3 31.1,44.2 30.6,43.3 30.3,42.5 30.1,41.9 30.2,41.4 30.4,41.1 30.7,40.9 31.2,40.9 31.7,41.0 32.3,41.2 33.0,41.6 33.7,42.1 34.4,42.8 35.1,43.5 35.8,44.3 36.5,45.1 37.1,46.1 37.6,47.0 38.1,48.1 38.5,49.1 38.8,50.2 39.0,51.3 39.2,52.5 39.2,53.6 39.2,54.8 39.1,56.0 38.9,57.2 38.6,58.5 38.3,59.7 37.8,61.0 37.4,62.3 36.9,63.7 36.3,65.0 35.8,66.4 35.2,67.8 34.7,69.2 34.2,70.5 33.7,71.9 33.4,73.3 33.1,74.6 33.0,75.8 33.0,77.0 33.2,78.1 33.5,79.1 34.1,79.9 34.8,80.7 35.8,81.3 37.0,81.7 38.3,82.0 39.9,82.1 41.7,82.0 43.7,81.8 45.8,81.3 48.1,80.8 50.5,80.0 53.0,79.1 55.5,78.1 58.1,76.9 60.6,75.6 63.2,74.2 65.7,72.8 68.1,71.3 70.4,69.7 72.5,68.1 74.6,66.5 76.5,64.9 78.2,63.3 79.8,61.8 81.3,60.2 82.6,58.7 83.7,57.3 84.8,55.8 85.7,54.5 86.4,53.1 87.1,51.8 87.7,50.6 88.2,49.3 88.6,48.2 89.0,47.0 89.3,45.9 89.5,44.8 89.7,43.7 89.8,42.7 89.9,41.7 89.9,40.8 89.8,40.0 89.7,39.2 89.6,38.5 89.4,37.8 89.1,37.3 88.8,36.9 88.4,36.7 88.0,36.5 87.6,36.6 87.1,36.8 86.6,37.1 86.1,37.7 85.6,38.4 85.1,39.3 84.6,40.4 84.1,41.7 83.7,43.1 83.2,44.7 82.8,46.4 82.4,48.2 82.0,50.1 81.6,52.1 81.2,54.1 80.8,56.2 80.4,58.3 80.0,60.4 79.5,62.4 79.1,64.4 78.6,66.3 78.0,68.2 77.4,69.9 76.8,71.6 76.1,73.1 75.3,74.5 74.5,75.8 73.6,77.0 72.6,78.1 71.6,79.0 70.5,79.9 69.4,80.6 68.2,81.3 66.9,81.9 65.6,82.4 64.2,82.8 62.7,83.2 61.2,83.4 59.5,83.6 57.8,83.8 56.1,83.9 54.2,83.8 52.2,83.7 50.2,83.5 48.1,83.2 45.9,82.8 43.6,82.3 41.3,81.6 39.0,80.8 36.6,79.8 34.3,78.7 32.0,77.4 29.7,75.9 27.5,74.3 25.5,72.6 23.6,70.7 21.8,68.6 20.3,66.5 19.0,64.3 17.9,61.9 17.0,59.5 16.5,57.1 16.2,54.7 16.1,52.3 16.4,49.9 16.9,47.7 17.6,45.5 18.6,43.4 19.7,41.4 21.1,39.6 22.6,38.0 24.2,36.5 26.0,35.2 27.8,34.2 29.6,33.3 31.5,32.5 33.3,32.0 35.1,31.6 36.9,31.5 38.6,31.4 40.2,31.5 41.7,31.7 43.1,32.1 44.4,32.5 45.7,33.1 46.8,33.7 47.8,34.4 48.7,35.2 49.5,36.0 50.2,36.9 50.9,37.9 51.4,39.0 51.9,40.1 52.4,41.3 52.8,42.6 53.1,44.0 53.5,45.5 53.8,47.1 54.1,48.8 54.4,50.6 54.8,52.5 55.2,54.5 55.6,56.6 56.1,58.9 56.7,61.2 57.4,63.6 58.2,66.0 59.1,68.5 60.1,71.0 61.2,73.4 62.4,75.9 63.8,78.3 65.3,80.6 66.8,82.7 68.5,84.8 70.3,86.7 72.1,88.4 74.0,89.9 75.9,91.2 77.9,92.3 79.8,93.1 81.6,93.7 83.5,94.1 85.2,94.2 86.8,94.1 88.3,93.8" class="rope"/>
    <rect x="54.8" y="31.4" width="20" height="6" rx="3" transform="rotate(77.5 64.8 34.4)" fill="#f8f7f2"/><rect x="71.1" y="83.1" width="20" height="6" rx="3" transform="rotate(96.3 81.1 86.1)" fill="#f8f7f2"/><rect x="15.3" y="45.7" width="20" height="6" rx="3" transform="rotate(115.0 25.3 48.7)" fill="#f8f7f2"/><rect x="77.9" y="46.9" width="20" height="6" rx="3" transform="rotate(133.8 87.9 49.9)" fill="#f8f7f2"/><rect x="45.2" y="82.6" width="20" height="6" rx="3" transform="rotate(152.5 55.2 85.6)" fill="#f8f7f2"/><rect x="28.9" y="30.9" width="20" height="6" rx="3" transform="rotate(171.3 38.9 33.9)" fill="#f8f7f2"/><rect x="32.0" y="49.7" width="20" height="6" rx="3" transform="rotate(150.0 42.0 52.7)" fill="#f8f7f2"/><rect x="41.5" y="43.1" width="20" height="6" rx="3" transform="rotate(168.8 51.5 46.1)" fill="#f8f7f2"/>
    <polyline points="88.3,93.8 89.7,93.3 90.9,92.6 92.0,91.8 92.9,90.7 93.7,89.6 94.3,88.3 94.7,86.9 95.1,85.5 95.3,83.9 95.3,82.4 95.3,80.7 95.2,79.1 94.9,77.4 94.6,75.7 94.2,73.9 93.8,72.1 93.2,70.3 92.6,68.5 92.0,66.6 91.2,64.7 90.4,62.8 89.5,60.8 88.6,58.8 87.6,56.7 86.4,54.6 85.2,52.4 84.0,50.2 82.6,48.0 81.2,45.8 79.7,43.6 78.1,41.4 76.5,39.3 74.8,37.2 73.2,35.2 71.5,33.4 69.8,31.6 68.2,30.0 66.6,28.6 65.1,27.4 63.6,26.4 62.2,25.6 60.9,25.1 59.7,24.8 58.7,24.7 57.7,24.9 56.8,25.3 56.0,26.0 55.3,26.9 54.7,28.0 54.2,29.3 53.7,30.7 53.3,32.3 52.9,34.0 52.6,35.9 52.3,37.8 51.9,39.8 51.6,41.8 51.2,43.8 50.8,45.9 50.4,48.0 50.0,50.0 49.4,52.0 48.9,54.0 48.2,56.0 47.5,57.9 46.8,59.8 45.9,61.6 45.0,63.4 44.0,65.2 42.9,67.0 41.8,68.7 40.5,70.4 39.2,72.1 37.8,73.8 36.3,75.5 34.8,77.1 33.2,78.7 31.6,80.3 30.0,81.7 28.3,83.2 26.7,84.5 25.2,85.8 23.7,86.9 22.3,87.9 21.0,88.8 19.9,89.5 19.0,90.0 18.3,90.3 17.8,90.4 17.5,90.4 17.5,90.1 17.8,89.6 18.4,88.8 19.2,87.9 20.3,86.8 21.6,85.5 23.2,84.0 25.0,82.4 27.0,80.6 29.1,78.8 31.4,76.8 33.8,74.8 36.3,72.7 38.9,70.6 41.4,68.5 44.0,66.4 46.5,64.3 48.9,62.3 51.3,60.4 53.5,58.5 55.6,56.8 57.7,55.1 59.5,53.5 61.3,52.0 62.9,50.6 64.4,49.2 65.8,48.0 67.1,46.8 68.2,45.7 69.3,44.7 70.2,43.8 71.1,42.9 72.0,42.1 72.7,41.3 73.4,40.6 74.1,40.0 74.7,39.4 75.3,38.9 75.8,38.5 76.3,38.2 76.8,37.9 77.3,37.8 77.8,37.8 78.3,37.9 78.8,38.2 79.3,38.6 79.8,39.2 80.3,39.9 80.9,40.7 81.4,41.8 82.1,42.9 82.7,44.2 83.4,45.6 84.1,47.2 84.9,48.8 85.7,50.6 86.5,52.4 87.3,54.2 88.1,56.1 88.9,58.0 89.7,59.9 90.4,61.7 91.1,63.5 91.7,65.3 92.2,66.9 92.7,68.4 93.0,69.8 93.2,71.2 93.3,72.3 93.3,73.4 93.2,74.3 93.0,75.1 92.6,75.7 92.1,76.3 91.5,76.7 90.8,77.0 90.1,77.2 89.2,77.3 88.3,77.3 87.2,77.3 86.1,77.2 85.0,77.0 83.7,76.7 82.4,76.4 81.1,76.0 79.6,75.6 78.1,75.1 76.5,74.6 74.8,73.9 73.1,73.2 71.2,72.4 69.3,71.6 67.2,70.7 65.1,69.6 62.9,68.5 60.6,67.3 58.3,66.1 56.0,64.7 53.6,63.3 51.2,61.8 48.9,60.2 46.6,58.7 44.4,57.1 42.3,55.4 40.3,53.8 38.4,52.2 36.7,50.7 35.2,49.2 33.8,47.8 32.7,46.5 31.8,45.3 31.1,44.2 30.6,43.3 30.3,42.5 30.1,41.9 30.2,41.4 30.4,41.1 30.7,40.9 31.2,40.9 31.7,41.0 32.3,41.2 33.0,41.6 33.7,42.1 34.4,42.8 35.1,43.5 35.8,44.3 36.5,45.1 37.1,46.1 37.6,47.0 38.1,48.1 38.5,49.1 38.8,50.2 39.0,51.3 39.2,52.5 39.2,53.6 39.2,54.8 39.1,56.0 38.9,57.2 38.6,58.5 38.3,59.7 37.8,61.0 37.4,62.3 36.9,63.7 36.3,65.0 35.8,66.4 35.2,67.8 34.7,69.2 34.2,70.5 33.7,71.9 33.4,73.3 33.1,74.6 33.0,75.8 33.0,77.0 33.2,78.1 33.5,79.1 34.1,79.9 34.8,80.7 35.8,81.3 37.0,81.7 38.3,82.0 39.9,82.1 41.7,82.0 43.7,81.8 45.8,81.3 48.1,80.8 50.5,80.0 53.0,79.1 55.5,78.1 58.1,76.9 60.6,75.6 63.2,74.2 65.7,72.8 68.1,71.3 70.4,69.7 72.5,68.1 74.6,66.5 76.5,64.9 78.2,63.3 79.8,61.8 81.3,60.2 82.6,58.7 83.7,57.3 84.8,55.8 85.7,54.5 86.4,53.1 87.1,51.8 87.7,50.6 88.2,49.3 88.6,48.2 89.0,47.0 89.3,45.9 89.5,44.8 89.7,43.7 89.8,42.7 89.9,41.7 89.9,40.8 89.8,40.0 89.7,39.2 89.6,38.5 89.4,37.8 89.1,37.3 88.8,36.9 88.4,36.7 88.0,36.5 87.6,36.6 87.1,36.8 86.6,37.1 86.1,37.7 85.6,38.4 85.1,39.3 84.6,40.4 84.1,41.7 83.7,43.1 83.2,44.7 82.8,46.4 82.4,48.2 82.0,50.1 81.6,52.1 81.2,54.1 80.8,56.2 80.4,58.3 80.0,60.4 79.5,62.4 79.1,64.4 78.6,66.3 78.0,68.2 77.4,69.9 76.8,71.6 76.1,73.1 75.3,74.5 74.5,75.8 73.6,77.0 72.6,78.1 71.6,79.0 70.5,79.9 69.4,80.6 68.2,81.3 66.9,81.9 65.6,82.4 64.2,82.8 62.7,83.2 61.2,83.4 59.5,83.6 57.8,83.8 56.1,83.9 54.2,83.8 52.2,83.7 50.2,83.5 48.1,83.2 45.9,82.8 43.6,82.3 41.3,81.6 39.0,80.8 36.6,79.8 34.3,78.7 32.0,77.4 29.7,75.9 27.5,74.3 25.5,72.6 23.6,70.7 21.8,68.6 20.3,66.5 19.0,64.3 17.9,61.9 17.0,59.5 16.5,57.1 16.2,54.7 16.1,52.3 16.4,49.9 16.9,47.7 17.6,45.5 18.6,43.4 19.7,41.4 21.1,39.6 22.6,38.0 24.2,36.5 26.0,35.2 27.8,34.2 29.6,33.3 31.5,32.5 33.3,32.0 35.1,31.6 36.9,31.5 38.6,31.4 40.2,31.5 41.7,31.7 43.1,32.1 44.4,32.5 45.7,33.1 46.8,33.7 47.8,34.4 48.7,35.2 49.5,36.0 50.2,36.9 50.9,37.9 51.4,39.0 51.9,40.1 52.4,41.3 52.8,42.6 53.1,44.0 53.5,45.5 53.8,47.1 54.1,48.8 54.4,50.6 54.8,52.5 55.2,54.5 55.6,56.6 56.1,58.9 56.7,61.2 57.4,63.6 58.2,66.0 59.1,68.5 60.1,71.0 61.2,73.4 62.4,75.9 63.8,78.3 65.3,80.6 66.8,82.7 68.5,84.8 70.3,86.7 72.1,88.4 74.0,89.9 75.9,91.2 77.9,92.3 79.8,93.1 81.6,93.7 83.5,94.1 85.2,94.2 86.8,94.1 88.3,93.8" class="highlight"/>
  
</svg>